<svg width="100" height="72" viewBox="0 0 100 72" fill="none" xmlns="http://www.w3.org/2000/svg">
<path d="M63.1275 1.20981C69.9679 3.44453 74.5323 8.63747 78.7489 13.7584C83.1121 19.0574 87.4219 24.6228 87.7382 31.0988C88.0722 37.9372 85.7713 44.9871 80.5266 50.156C75.3807 55.2275 67.4875 57.2758 59.7994 58.6338C52.5227 59.919 45.1279 59.6769 38.0848 57.6525C30.8085 55.561 23.719 52.429 19.3762 47.0146C14.9801 41.5338 14.0319 34.6872 14.3374 28.0454C14.6454 21.3508 15.9163 14.3279 21.1104 9.3135C26.1949 4.40497 34.2015 3.09077 41.6804 1.64835C48.8313 0.26917 56.2794 -1.02741 63.1275 1.20981Z" fill="#FD6F00"/>
<path d="M26.2265 1.72546C27.7995 1.72546 29.2427 1.9282 30.5562 2.33366C31.8697 2.73913 32.9682 3.35859 33.8516 4.19205C34.756 5.02551 35.4111 6.0955 35.817 7.402C36.2256 8.68598 36.3221 10.2065 36.1064 11.9635C35.957 13.1799 35.5734 14.34 34.9554 15.4438C34.3585 16.5475 33.6007 17.595 32.682 18.5861C31.7843 19.5773 30.7781 20.5121 29.6635 21.3906C28.5489 22.2691 27.4098 23.0913 26.2461 23.8572C25.0824 24.6231 23.9361 25.3327 22.8072 25.9859C21.6993 26.6392 20.6808 27.2474 19.7517 27.8105H30.3224C31.5808 27.8105 32.5173 27.5289 33.1317 26.9658C33.7462 26.4026 34.1896 25.5241 34.4621 24.3302H35.7519C35.6634 25.0511 35.5534 25.862 35.4218 26.7631C35.2902 27.6641 35.1152 28.5764 34.897 29.5C34.6787 30.4235 34.4108 31.3246 34.0932 32.2031C33.7756 33.0816 33.376 33.8587 32.8945 34.5345C32.4131 35.2103 31.8419 35.7622 31.1812 36.1902C30.5231 36.5956 29.7537 36.7984 28.8728 36.7984H7.03929L7.27577 34.8724C7.95753 34.4444 8.85156 33.8249 9.95786 33.014C11.0851 32.2031 12.2919 31.257 13.5782 30.1757C14.8645 29.0945 16.1752 27.9006 17.5101 26.5941C18.845 25.2876 20.0688 23.9473 21.1813 22.5732C22.2966 21.1766 23.235 19.7687 23.9965 18.3496C24.7818 16.908 25.2574 15.5113 25.4233 14.1598C25.5422 13.1912 25.5243 12.3127 25.3694 11.5243C25.2355 10.7358 24.9514 10.0601 24.5172 9.49692C24.0857 8.91124 23.5014 8.46072 22.7641 8.14536C22.0477 7.82999 21.1547 7.67231 20.0851 7.67231C19.0784 7.67231 18.1375 7.81873 17.2626 8.11157C16.4115 8.38188 15.6122 8.7423 14.8647 9.19281C14.1383 9.64333 13.465 10.1727 12.845 10.7809C12.246 11.3891 11.7086 12.0086 11.2326 12.6393L10.491 11.7608C11.0825 10.7021 11.88 9.58702 12.8838 8.41567C13.9085 7.24432 15.1004 6.16307 16.4596 5.17193C17.8187 4.18079 19.3249 3.35859 20.9781 2.70534C22.6313 2.05209 24.3808 1.72546 26.2265 1.72546Z" fill="black"/>
<path d="M47.4702 34.0627H32.4317L32.7174 31.7361L49.9452 11.8337C50.2389 11.5134 50.5558 11.1762 50.896 10.8221C51.2362 10.4681 51.6359 10.1478 52.095 9.86117C52.5541 9.57456 53.0918 9.33853 53.7081 9.15308C54.3264 8.95077 55.0595 8.84961 55.9073 8.84961C56.8187 8.84961 57.582 8.93391 58.1972 9.1025C58.8144 9.25423 59.2962 9.4734 59.6426 9.76001C60.0101 10.0466 60.2538 10.3922 60.3737 10.7969C60.4936 11.2015 60.5245 11.6398 60.4666 12.1119L58.057 31.7361H64.384L64.0983 34.0627H57.7713L56.8243 41.7759C56.6628 43.0909 56.1325 44.0434 55.2335 44.6335C54.3344 45.2236 52.9946 45.5186 51.2141 45.5186C49.4337 45.5186 48.1664 45.2236 47.4122 44.6335C46.658 44.0434 46.3616 43.0909 46.5231 41.7759L47.4702 34.0627ZM47.7558 31.7361L49.594 16.7651L36.8823 31.7361H47.7558Z" fill="black"/>
<path d="M8.85151 57.9309C8.64388 57.9309 8.47236 57.9009 8.33696 57.8409C8.20214 57.7741 8.09587 57.6874 8.01814 57.5806C7.94041 57.4739 7.88699 57.3571 7.8579 57.2303C7.82939 57.0969 7.82126 56.9601 7.83352 56.82C7.84928 56.6398 7.8745 56.4664 7.90919 56.2995C7.95058 56.1327 7.96706 55.9826 7.95864 55.8492C7.95692 55.7157 7.91603 55.609 7.83596 55.5289C7.75589 55.4488 7.60535 55.4088 7.38432 55.4088C7.14989 55.4088 6.89623 55.4755 6.62334 55.609C6.35045 55.7424 6.09429 55.9526 5.85486 56.2395C5.61543 56.5264 5.40554 56.8967 5.22519 57.3504C5.04542 57.7975 4.92781 58.3379 4.87235 58.9718C4.81106 59.6724 4.81865 60.313 4.89512 60.8935C4.97887 61.4673 5.13355 61.9577 5.35916 62.3647C5.58477 62.7717 5.88188 63.0887 6.25051 63.3155C6.61972 63.5357 7.06554 63.6458 7.58797 63.6458C7.8224 63.6458 8.04576 63.6191 8.25806 63.5657C8.47706 63.5124 8.68442 63.439 8.88013 63.3455C9.07585 63.2521 9.26268 63.1454 9.44063 63.0253C9.62587 62.8985 9.80499 62.7651 9.97799 62.6249L10.2081 62.8651C10.036 63.072 9.81857 63.2988 9.55585 63.5457C9.29313 63.7926 8.98134 64.0261 8.62048 64.2463C8.26021 64.4598 7.84593 64.64 7.37764 64.7868C6.90992 64.9269 6.38471 64.997 5.802 64.997C5.21929 64.997 4.6596 64.8869 4.12295 64.6667C3.59357 64.4398 3.13323 64.1129 2.74193 63.6858C2.35063 63.2588 2.05093 62.7417 1.84284 62.1345C1.64203 61.5207 1.57577 60.8234 1.64407 60.0427C1.69719 59.4356 1.82296 58.8784 2.02138 58.3713C2.22038 57.8575 2.46858 57.3938 2.76599 56.9801C3.0701 56.5664 3.41001 56.2028 3.78573 55.8892C4.16816 55.5756 4.56265 55.3154 4.96922 55.1085C5.37638 54.895 5.78556 54.7349 6.19677 54.6281C6.61468 54.5214 7.01117 54.468 7.38625 54.468C7.88189 54.468 8.30894 54.5247 8.6674 54.6381C9.02586 54.7516 9.31747 54.9017 9.54225 55.0885C9.77372 55.2753 9.93894 55.4922 10.0379 55.7391C10.1375 55.9793 10.1758 56.2295 10.1531 56.4897C10.1361 56.6832 10.093 56.87 10.0237 57.0502C9.9616 57.2237 9.8745 57.3771 9.76236 57.5106C9.6575 57.6374 9.52789 57.7408 9.37353 57.8208C9.21976 57.8942 9.04575 57.9309 8.85151 57.9309ZM11.8128 59.7325C11.8893 58.8584 12.0834 58.0944 12.3951 57.4405C12.7074 56.78 13.0938 56.2295 13.5543 55.7891C14.0215 55.3487 14.546 55.0185 15.1279 54.7983C15.7098 54.5781 16.3088 54.468 16.925 54.468C17.5412 54.468 18.1216 54.5714 18.6661 54.7782C19.2112 54.9784 19.6764 55.2887 20.0616 55.709C20.4535 56.1294 20.7483 56.6632 20.9462 57.3104C21.1447 57.951 21.2054 58.7116 21.1284 59.5924C21.0519 60.4664 20.8569 61.2404 20.5434 61.9143C20.23 62.5882 19.8388 63.1554 19.3698 63.6158C18.9076 64.0762 18.3846 64.4265 17.801 64.6667C17.218 64.9002 16.6183 65.017 16.0021 65.017C15.3859 65.017 14.8061 64.9069 14.2628 64.6867C13.72 64.4598 13.2536 64.1262 12.8634 63.6858C12.48 63.2455 12.1899 62.695 11.9932 62.0344C11.7965 61.3739 11.7363 60.6065 11.8128 59.7325ZM18.0003 59.6324C18.047 59.0986 18.0719 58.5848 18.0749 58.0911C18.0852 57.5906 18.0537 57.1469 17.9804 56.7599C17.9071 56.3729 17.7799 56.066 17.5988 55.8392C17.4183 55.6056 17.1639 55.4889 16.8357 55.4889C16.5075 55.4889 16.2322 55.6123 16.0096 55.8592C15.7877 56.0994 15.6056 56.4196 15.4634 56.82C15.3218 57.2137 15.2121 57.664 15.1342 58.1711C15.0564 58.6782 14.9941 59.1987 14.9474 59.7325C14.9007 60.2663 14.8716 60.79 14.8602 61.3038C14.8493 61.8109 14.8799 62.2646 14.9521 62.665C15.0242 63.0653 15.1499 63.3889 15.3293 63.6358C15.5092 63.876 15.7632 63.9961 16.0914 63.9961C16.4196 63.9961 16.6953 63.8693 16.9184 63.6158C17.1415 63.3622 17.3248 63.0286 17.4681 62.6149C17.6115 62.2012 17.7227 61.7342 17.8017 61.2137C17.8874 60.6933 17.9536 60.1662 18.0003 59.6324ZM29.5174 59.8726C29.591 59.0319 29.6094 58.3613 29.5728 57.8609C29.5435 57.3538 29.4766 56.9701 29.3721 56.7099C29.2682 56.443 29.1428 56.2695 28.9957 56.1895C28.8493 56.1027 28.6956 56.0593 28.5349 56.0593C28.3407 56.0593 28.1618 56.1127 27.9985 56.2195C27.8423 56.3196 27.7015 56.4363 27.576 56.5698C27.4571 56.7032 27.3517 56.8367 27.2597 56.9701C27.1743 57.1036 27.1019 57.2036 27.0425 57.2704L26.4576 63.9561C26.45 64.0428 26.4272 64.1496 26.3894 64.2763C26.3521 64.3964 26.2749 64.5132 26.1578 64.6266C26.048 64.7334 25.886 64.8235 25.672 64.8969C25.464 64.9769 25.1826 65.017 24.8276 65.017C24.4726 65.017 24.1951 64.9736 23.9951 64.8869C23.8011 64.8068 23.6555 64.71 23.5583 64.5966C23.4611 64.4832 23.4043 64.3664 23.388 64.2463C23.3717 64.1262 23.3668 64.0295 23.3732 63.9561L24.0492 56.2295C24.0661 56.036 24.0338 55.8692 23.9523 55.7291C23.8781 55.5823 23.7338 55.5089 23.5195 55.5089C23.4056 55.5089 23.3068 55.5289 23.2229 55.5689C23.139 55.609 23.047 55.6657 22.9468 55.7391L22.7577 55.4889C22.9228 55.3621 23.1044 55.2386 23.3025 55.1185C23.5078 54.9918 23.7251 54.8817 23.9543 54.7883C24.1835 54.6948 24.428 54.6181 24.6877 54.5581C24.9475 54.498 25.218 54.468 25.4993 54.468C25.9347 54.468 26.2665 54.5414 26.4948 54.6882C26.7237 54.8283 26.8863 54.9984 26.9826 55.1986C27.079 55.3988 27.1276 55.609 27.1284 55.8291C27.1365 56.0427 27.1341 56.2228 27.1213 56.3696C27.4001 56.016 27.7091 55.699 28.0484 55.4188C28.1862 55.2987 28.337 55.1819 28.501 55.0685C28.6717 54.9551 28.8479 54.855 29.0296 54.7682C29.2186 54.6748 29.4126 54.6014 29.6115 54.5481C29.8171 54.4947 30.0237 54.468 30.2314 54.468C30.6868 54.468 31.0811 54.5547 31.4142 54.7282C31.754 54.9017 32.0267 55.1919 32.2322 55.5989C32.4377 56.006 32.5746 56.5464 32.6429 57.2203C32.7118 57.8876 32.7028 58.7183 32.6158 59.7125C32.5311 60.6799 32.3705 61.5207 32.1339 62.2346C31.8973 62.9485 31.6164 63.5557 31.2914 64.0562C30.9663 64.5566 30.6125 64.9636 30.2301 65.2772C29.8471 65.5975 29.4669 65.8477 29.0894 66.0278C28.712 66.208 28.3529 66.3314 28.0121 66.3981C27.6775 66.4715 27.3894 66.5116 27.1477 66.5183L27.0731 66.1079C27.2781 66.0612 27.4687 65.9878 27.6449 65.8877C27.8278 65.7876 27.998 65.6408 28.1556 65.4473C28.3132 65.2538 28.4584 65.0103 28.5913 64.7167C28.7247 64.4165 28.8478 64.0428 28.9606 63.5958C29.0801 63.1487 29.1831 62.6216 29.2697 62.0144C29.3636 61.4006 29.4462 60.6866 29.5174 59.8726ZM38.9265 55.2687C38.7725 55.2687 38.6234 55.2887 38.4792 55.3287C38.3417 55.3688 38.2153 55.4355 38.1 55.5289C37.9853 55.6156 37.8916 55.7291 37.8191 55.8692C37.7471 56.0026 37.703 56.1628 37.6866 56.3496C37.6638 56.6098 37.7349 56.87 37.8996 57.1303C38.0717 57.3838 38.2861 57.6507 38.5429 57.9309C38.807 58.2045 39.09 58.4914 39.3919 58.7917C39.7011 59.0853 39.9818 59.3989 40.2339 59.7325C40.4933 60.0594 40.7004 60.4097 40.8553 60.7834C41.0168 61.157 41.0789 61.5574 41.0415 61.9844C40.9995 62.4648 40.8784 62.8918 40.6783 63.2655C40.4849 63.6391 40.2227 63.9561 39.8918 64.2163C39.5677 64.4765 39.1818 64.6767 38.7342 64.8168C38.2938 64.9502 37.8091 65.017 37.28 65.017C36.8178 65.017 36.4047 64.9536 36.0407 64.8268C35.6773 64.6934 35.3565 64.5332 35.0781 64.3464C34.807 64.1529 34.577 63.9494 34.3881 63.7359C34.1991 63.5224 34.0553 63.3289 33.9566 63.1554L34.3301 62.9052C34.4084 63.0053 34.5093 63.1154 34.6328 63.2355C34.7568 63.3489 34.8948 63.4556 35.0468 63.5557C35.2055 63.6558 35.3757 63.7392 35.5574 63.8059C35.7397 63.866 35.9279 63.896 36.1222 63.896C36.6044 63.896 37.0095 63.7826 37.3375 63.5557C37.666 63.3222 37.8501 62.9786 37.8898 62.5248C37.912 62.2713 37.851 62.0111 37.7069 61.7442C37.5634 61.4706 37.377 61.1904 37.1475 60.9035C36.9181 60.6166 36.6695 60.3196 36.4016 60.0127C36.1338 59.7058 35.8869 59.3888 35.661 59.0619C35.4351 58.735 35.2536 58.398 35.1165 58.051C34.9794 57.7041 34.9272 57.3438 34.9599 56.9701C34.9967 56.5498 35.1125 56.1828 35.3074 55.8692C35.509 55.5556 35.7595 55.2954 36.0589 55.0885C36.365 54.8817 36.7032 54.7282 37.0737 54.6281C37.4514 54.5214 37.8345 54.468 38.223 54.468C38.6717 54.468 39.0768 54.508 39.4382 54.5881C39.7995 54.6682 40.1035 54.7916 40.3502 54.9584C40.6041 55.1185 40.7905 55.322 40.9096 55.5689C41.0354 55.8158 41.0839 56.1027 41.0553 56.4297C41.0331 56.6832 40.9302 56.9034 40.7464 57.0902C40.5626 57.277 40.32 57.3705 40.0186 57.3705C39.7306 57.3705 39.5148 57.3104 39.3712 57.1903C39.235 57.0635 39.1762 56.8934 39.1949 56.6799C39.2071 56.5398 39.2503 56.4297 39.3242 56.3496C39.4049 56.2695 39.4908 56.2061 39.582 56.1594C39.6737 56.106 39.7546 56.0627 39.8245 56.0293C39.9016 55.9893 39.9428 55.9392 39.9481 55.8792C39.9644 55.6924 39.8768 55.5456 39.6852 55.4388C39.4942 55.3254 39.2413 55.2687 38.9265 55.2687ZM52.2094 63.1154C52.2042 63.1754 52.2017 63.2421 52.202 63.3155C52.2028 63.3822 52.2137 63.449 52.2347 63.5157C52.2562 63.5757 52.292 63.6258 52.3421 63.6658C52.3922 63.7059 52.4675 63.7259 52.5679 63.7259C52.6952 63.7259 52.8128 63.6825 52.9209 63.5958C53.0295 63.5023 53.1315 63.4089 53.2267 63.3155L53.4495 63.5257C53.3367 63.6658 53.1958 63.8226 53.0265 63.9961C52.8646 64.1629 52.6697 64.323 52.442 64.4765C52.2142 64.63 51.9587 64.7568 51.6753 64.8568C51.3913 64.9636 51.0752 65.017 50.7269 65.017C50.4322 65.017 50.1779 64.9769 49.9638 64.8969C49.7559 64.8235 49.5805 64.7234 49.4375 64.5966C49.3019 64.4632 49.2048 64.3097 49.1463 64.1362C49.0884 63.9561 49.0682 63.7659 49.0857 63.5657L49.1251 63.1154C48.7587 63.4757 48.3793 63.7926 47.987 64.0662C47.8157 64.1863 47.6347 64.303 47.4439 64.4165C47.2532 64.5299 47.0566 64.6333 46.8542 64.7267C46.6524 64.8135 46.4453 64.8835 46.233 64.9369C46.0207 64.9903 45.8107 65.017 45.6031 65.017C45.2012 65.017 44.8624 64.9469 44.5867 64.8068C44.3182 64.66 44.1071 64.4698 43.9534 64.2363C43.7997 64.0028 43.6955 63.7392 43.6408 63.4456C43.5861 63.152 43.5716 62.8585 43.5973 62.5649L44.1393 56.3696C44.1446 56.3096 44.1468 56.2462 44.1459 56.1794C44.1456 56.106 44.1347 56.0393 44.1132 55.9793C44.0922 55.9125 44.0567 55.8592 44.0066 55.8191C43.9565 55.7791 43.8813 55.7591 43.7808 55.7591C43.6602 55.7591 43.5423 55.8058 43.4269 55.8992C43.3189 55.9859 43.2206 56.076 43.132 56.1694L42.8993 55.9593C43.012 55.8191 43.1493 55.6657 43.3113 55.4989C43.4805 55.3254 43.679 55.1619 43.9068 55.0084C44.1345 54.855 44.3901 54.7282 44.6734 54.6281C44.9641 54.5214 45.2802 54.468 45.6218 54.468C45.9165 54.468 46.1709 54.508 46.3849 54.5881C46.5995 54.6615 46.7746 54.7649 46.9103 54.8984C47.0466 55.0251 47.1437 55.1786 47.2016 55.3587C47.2601 55.5322 47.2806 55.7191 47.2631 55.9192L46.6781 62.6049C46.67 62.6983 46.6749 62.7951 46.6929 62.8952C46.7182 62.9886 46.7542 63.0753 46.8008 63.1554C46.854 63.2355 46.9219 63.3022 47.0043 63.3556C47.0873 63.4023 47.189 63.4256 47.3096 63.4256C47.5038 63.4256 47.7025 63.3756 47.9055 63.2755C48.1084 63.1754 48.2962 63.0586 48.4686 62.9252C48.6416 62.7851 48.7909 62.6483 48.9164 62.5148C49.0486 62.3814 49.1445 62.2813 49.2039 62.2146L49.7153 56.3696C49.7205 56.3096 49.7227 56.2462 49.7218 56.1794C49.7216 56.106 49.7107 56.0393 49.6891 55.9793C49.6682 55.9125 49.6327 55.8592 49.5826 55.8191C49.5325 55.7791 49.4572 55.7591 49.3567 55.7591C49.2362 55.7591 49.1182 55.8058 49.0029 55.8992C48.8948 55.9859 48.7965 56.076 48.708 56.1694L48.4752 55.9593C48.5879 55.8191 48.7253 55.6657 48.8872 55.4989C49.0565 55.3254 49.2549 55.1619 49.4827 55.0084C49.7105 54.855 49.966 54.7282 50.2494 54.6281C50.54 54.5214 50.8562 54.468 51.1977 54.468C51.4925 54.468 51.7468 54.508 51.9608 54.5881C52.1754 54.6615 52.3506 54.7649 52.4863 54.8984C52.6225 55.0251 52.7196 55.1786 52.7775 55.3587C52.836 55.5322 52.8565 55.7191 52.839 55.9192L52.2094 63.1154ZM58.5082 63.9761C58.5006 64.0628 58.4748 64.1662 58.4308 64.2863C58.3935 64.4065 58.3133 64.5199 58.1901 64.6266C58.0736 64.7334 57.9049 64.8235 57.6842 64.8969C57.4695 64.9769 57.1847 65.017 56.8297 65.017C56.4747 65.017 56.2006 64.9736 56.0072 64.8869C55.8133 64.8068 55.6711 64.71 55.5805 64.5966C55.4967 64.4832 55.4466 64.3664 55.4303 64.2463C55.4207 64.1262 55.4192 64.0295 55.4256 63.9561L56.5552 51.0451C56.5721 50.8516 56.5398 50.6848 56.4583 50.5446C56.384 50.3979 56.2398 50.3245 56.0254 50.3245C55.9116 50.3245 55.8094 50.3445 55.7188 50.3845C55.6355 50.4179 55.5437 50.4712 55.4436 50.5446L55.2636 50.3044C55.4288 50.1777 55.6104 50.0542 55.8084 49.9341C56.007 49.8073 56.221 49.6973 56.4502 49.6038C56.6861 49.5104 56.9339 49.4337 57.1937 49.3736C57.4534 49.3136 57.724 49.2836 58.0053 49.2836C58.4407 49.2836 58.7736 49.3436 59.0043 49.4637C59.2355 49.5772 59.4004 49.7206 59.4991 49.8941C59.5983 50.0609 59.6496 50.2411 59.6527 50.4345C59.6632 50.6214 59.662 50.7882 59.6491 50.935L58.5082 63.9761ZM65.679 55.3287L65.0319 62.725C65.001 63.0787 65.0463 63.3255 65.168 63.4657C65.2903 63.5991 65.4687 63.6658 65.7031 63.6658C65.8839 63.6658 66.0491 63.6158 66.1985 63.5157C66.3479 63.4156 66.4784 63.3022 66.5899 63.1754C66.7227 63.0353 66.8409 62.8718 66.9443 62.685L67.2435 62.8251C67.1243 63.0386 66.9833 63.2722 66.8205 63.5257C66.6644 63.7793 66.4628 64.0161 66.2158 64.2363C65.9694 64.4498 65.6656 64.63 65.3045 64.7768C64.9501 64.9236 64.5116 64.997 63.9892 64.997C63.6945 64.997 63.4136 64.9536 63.1466 64.8668C62.8863 64.7801 62.6571 64.6433 62.4591 64.4565C62.2679 64.2697 62.1208 64.0361 62.0181 63.7559C61.9154 63.4757 61.8812 63.1387 61.9156 62.745L62.5645 55.3287H61.4393L61.5023 54.6081C61.6898 54.6081 61.9551 54.5614 62.2982 54.468C62.6419 54.3679 62.9977 54.2044 63.3659 53.9776C63.7407 53.7507 64.0955 53.4471 64.4301 53.0668C64.7648 52.6865 65.0203 52.2161 65.1966 51.6556H66.0003L65.742 54.6081H67.3797C67.9155 54.6081 68.1913 54.518 68.207 54.3379C68.2129 54.2712 68.1832 54.2278 68.118 54.2078C68.0533 54.1811 67.9789 54.151 67.8948 54.1177C67.8179 54.0777 67.7489 54.0243 67.6877 53.9576C67.6266 53.8908 67.6027 53.7807 67.6162 53.6273C67.6325 53.4404 67.7023 53.2937 67.8255 53.1869C67.9554 53.0801 68.1141 53.0268 68.3016 53.0268C68.4222 53.0268 68.5237 53.0534 68.6061 53.1068C68.6958 53.1535 68.767 53.2203 68.8197 53.307C68.8729 53.3871 68.9083 53.4805 68.9257 53.5872C68.9499 53.694 68.9573 53.8008 68.948 53.9075C68.91 54.3412 68.7524 54.6882 68.4751 54.9484C68.2051 55.2019 67.7922 55.3287 67.2362 55.3287H65.679ZM72.6244 63.9561C72.6168 64.0428 72.5908 64.1496 72.5462 64.2763C72.5089 64.3964 72.4283 64.5132 72.3045 64.6266C72.188 64.7334 72.0228 64.8235 71.8087 64.8969C71.5941 64.9769 71.3093 65.017 70.9543 65.017C70.5993 65.017 70.3251 64.9736 70.1318 64.8869C69.9378 64.8068 69.7956 64.71 69.7051 64.5966C69.6145 64.4832 69.5611 64.3664 69.5448 64.2463C69.5352 64.1262 69.5337 64.0295 69.5401 63.9561L70.2161 56.2295C70.233 56.036 70.2007 55.8692 70.1192 55.7291C70.045 55.5823 69.9007 55.5089 69.6864 55.5089C69.5725 55.5089 69.4736 55.5289 69.3897 55.5689C69.3059 55.609 69.2138 55.6657 69.1136 55.7391L68.9245 55.4889C69.0897 55.3621 69.2713 55.2386 69.4693 55.1185C69.6747 54.9918 69.8919 54.8817 70.1211 54.7883C70.3503 54.6948 70.5948 54.6181 70.8546 54.5581C71.1144 54.498 71.3849 54.468 71.6662 54.468C72.1016 54.468 72.4346 54.528 72.6652 54.6481C72.8964 54.7616 73.0613 54.905 73.16 55.0785C73.2593 55.2453 73.3105 55.4255 73.3136 55.619C73.3235 55.8125 73.322 55.9826 73.3092 56.1294L72.6244 63.9561ZM70.2584 52.186C70.2747 51.9992 70.3304 51.8224 70.4253 51.6556C70.5276 51.4821 70.6579 51.332 70.8164 51.2052C70.9815 51.0784 71.1644 50.9783 71.3651 50.905C71.5724 50.8316 71.7933 50.7949 72.0278 50.7949C72.2555 50.7949 72.4632 50.8316 72.6511 50.905C72.8456 50.9783 73.011 51.0784 73.1472 51.2052C73.2835 51.332 73.3842 51.4821 73.4494 51.6556C73.5219 51.8224 73.55 51.9992 73.5336 52.186C73.5167 52.3795 73.4574 52.5597 73.3557 52.7265C73.2608 52.8933 73.134 53.0401 72.9756 53.1669C72.8177 53.287 72.6351 53.3837 72.4278 53.4571C72.2271 53.5305 72.0129 53.5672 71.7852 53.5672C71.5508 53.5672 71.3363 53.5305 71.1418 53.4571C70.954 53.3837 70.7883 53.287 70.6448 53.1669C70.5085 53.0401 70.4041 52.8933 70.3316 52.7265C70.2659 52.5597 70.2414 52.3795 70.2584 52.186ZM82.0483 59.8726C82.1218 59.0319 82.1403 58.3613 82.1037 57.8609C82.0744 57.3538 82.0075 56.9701 81.903 56.7099C81.7991 56.443 81.6736 56.2695 81.5266 56.1895C81.3801 56.1027 81.2265 56.0593 81.0658 56.0593C80.8715 56.0593 80.6927 56.1127 80.5293 56.2195C80.3732 56.3196 80.2324 56.4363 80.1069 56.5698C79.988 56.7032 79.8826 56.8367 79.7905 56.9701C79.7052 57.1036 79.6328 57.2036 79.5734 57.2704L78.9884 63.9561C78.9809 64.0428 78.9581 64.1496 78.9202 64.2763C78.8829 64.3964 78.8057 64.5132 78.6887 64.6266C78.5788 64.7334 78.4169 64.8235 78.2029 64.8969C77.9949 64.9769 77.7135 65.017 77.3585 65.017C77.0035 65.017 76.726 64.9736 76.5259 64.8869C76.332 64.8068 76.1864 64.71 76.0892 64.5966C75.9919 64.4832 75.9352 64.3664 75.9189 64.2463C75.9026 64.1262 75.8977 64.0295 75.9041 63.9561L76.5801 56.2295C76.597 56.036 76.5647 55.8692 76.4832 55.7291C76.409 55.5823 76.2647 55.5089 76.0504 55.5089C75.9365 55.5089 75.8376 55.5289 75.7538 55.5689C75.6699 55.609 75.5778 55.6657 75.4777 55.7391L75.2886 55.4889C75.4537 55.3621 75.6353 55.2386 75.8333 55.1185C76.0387 54.9918 76.2559 54.8817 76.4851 54.7883C76.7143 54.6948 76.9588 54.6181 77.2186 54.5581C77.4784 54.498 77.7489 54.468 78.0302 54.468C78.4656 54.468 78.7974 54.5414 79.0257 54.6882C79.2545 54.8283 79.4171 54.9984 79.5135 55.1986C79.6099 55.3988 79.6584 55.609 79.6593 55.8291C79.6674 56.0427 79.665 56.2228 79.6522 56.3696C79.9309 56.016 80.24 55.699 80.5793 55.4188C80.7171 55.2987 80.8679 55.1819 81.0319 55.0685C81.2026 54.9551 81.3788 54.855 81.5605 54.7682C81.7495 54.6748 81.9435 54.6014 82.1424 54.5481C82.348 54.4947 82.5546 54.468 82.7622 54.468C83.2177 54.468 83.612 54.5547 83.9451 54.7282C84.2849 54.9017 84.5576 55.1919 84.7631 55.5989C84.9686 56.006 85.1055 56.5464 85.1738 57.2203C85.2427 57.8876 85.2336 58.7183 85.1466 59.7125C85.062 60.6799 84.9014 61.5207 84.6648 62.2346C84.4282 62.9485 84.1473 63.5557 83.8222 64.0562C83.4971 64.5566 83.1434 64.9636 82.761 65.2772C82.3779 65.5975 81.9977 65.8477 81.6203 66.0278C81.2428 66.208 80.8837 66.3314 80.543 66.3981C80.2084 66.4715 79.9202 66.5116 79.6785 66.5183L79.6039 66.1079C79.8089 66.0612 79.9996 65.9878 80.1758 65.8877C80.3587 65.7876 80.5289 65.6408 80.6865 65.4473C80.8441 65.2538 80.9893 65.0103 81.1221 64.7167C81.2556 64.4165 81.3787 64.0428 81.4915 63.5958C81.611 63.1487 81.714 62.6216 81.8006 62.0144C81.8945 61.4006 81.9771 60.6866 82.0483 59.8726ZM87.5123 58.5615C87.5718 57.8809 87.741 57.2871 88.0198 56.78C88.3059 56.2662 88.6647 55.8392 89.0964 55.4989C89.5286 55.1519 90.0166 54.895 90.5603 54.7282C91.1046 54.5547 91.6681 54.468 92.2508 54.468C92.8335 54.468 93.3794 54.5447 93.8884 54.6982C94.3974 54.8516 94.8388 55.0885 95.2127 55.4088C95.3569 55.2153 95.4785 55.0118 95.5775 54.7983C95.6766 54.5848 95.7354 54.3712 95.7541 54.1577C95.7786 53.8775 95.7212 53.654 95.5817 53.4871C95.449 53.3203 95.2654 53.2369 95.0309 53.2369L95.0563 52.9467C95.2078 52.9 95.3419 52.8599 95.4587 52.8266C95.576 52.7866 95.6825 52.7565 95.778 52.7365C95.8735 52.7165 95.9685 52.7031 96.0628 52.6965C96.1578 52.6831 96.2622 52.6765 96.376 52.6765C96.6908 52.6765 96.9235 52.7732 97.074 52.9667C97.2245 53.1602 97.2849 53.4271 97.2551 53.7674C97.2376 53.9676 97.1732 54.1677 97.0619 54.3679C96.9512 54.5614 96.8177 54.7482 96.6612 54.9284C96.5048 55.1085 96.3325 55.2787 96.1444 55.4388C95.9629 55.5989 95.7899 55.7391 95.6254 55.8592C95.8787 56.1794 96.0636 56.5531 96.1803 56.9801C96.297 57.4072 96.3314 57.8942 96.2836 58.4414C96.2234 59.1286 96.0498 59.7358 95.7625 60.2629C95.482 60.79 95.125 61.2337 94.6916 61.5941C94.2582 61.9544 93.7688 62.2279 93.2233 62.4148C92.6784 62.5949 92.1146 62.685 91.5319 62.685C91.1903 62.685 90.8581 62.655 90.5351 62.5949C90.2122 62.5349 89.9117 62.4481 89.6336 62.3347C89.5194 62.4148 89.4169 62.5148 89.326 62.6349C89.2418 62.755 89.1933 62.8885 89.1805 63.0353C89.1589 63.2822 89.25 63.4657 89.4538 63.5858C89.6576 63.7059 89.9347 63.7926 90.285 63.846C90.6353 63.8994 91.0343 63.9327 91.4819 63.9461C91.9295 63.9594 92.3862 63.9828 92.8521 64.0161C93.3254 64.0428 93.7825 64.0995 94.2237 64.1863C94.6655 64.2663 95.0554 64.4031 95.3934 64.5966C95.7321 64.7834 95.9942 65.0403 96.18 65.3673C96.3657 65.6942 96.4358 66.1179 96.3903 66.6384C96.357 67.0187 96.2468 67.359 96.0598 67.6592C95.8722 67.9662 95.6312 68.233 95.3367 68.4599C95.0484 68.6934 94.7164 68.8903 94.3407 69.0504C93.9711 69.2172 93.581 69.3507 93.1704 69.4507C92.7659 69.5575 92.3539 69.6342 91.9346 69.6809C91.5219 69.7277 91.128 69.751 90.753 69.751C90.0698 69.751 89.4568 69.7143 88.914 69.6409C88.3773 69.5742 87.9245 69.4674 87.5556 69.3206C87.1866 69.1738 86.9086 68.9837 86.7214 68.7502C86.5342 68.5166 86.4549 68.2364 86.4835 67.9094C86.5039 67.6759 86.5765 67.4591 86.7011 67.2589C86.8252 67.0654 86.9816 66.8852 87.1704 66.7184C87.3652 66.5583 87.579 66.4115 87.8117 66.278C88.0438 66.1513 88.2787 66.0312 88.5164 65.9177C88.1937 65.7776 87.9311 65.5641 87.7285 65.2772C87.532 64.997 87.4541 64.6233 87.495 64.1562C87.5166 63.9094 87.58 63.6825 87.6852 63.4757C87.7909 63.2621 87.9184 63.0686 88.0675 62.8952C88.2239 62.715 88.3886 62.5549 88.5616 62.4148C88.7419 62.268 88.9135 62.1445 89.0763 62.0444C88.8157 61.8843 88.5781 61.6908 88.3635 61.4639C88.1562 61.2304 87.9814 60.9702 87.839 60.6833C87.704 60.3897 87.605 60.0661 87.5422 59.7125C87.4861 59.3588 87.4761 58.9752 87.5123 58.5615ZM93.256 58.4814C93.2898 58.0944 93.3027 57.7174 93.2947 57.3504C93.2866 56.9835 93.2449 56.6565 93.1695 56.3696C93.0941 56.0827 92.977 55.8525 92.818 55.679C92.6596 55.4989 92.4431 55.4088 92.1685 55.4088C91.8939 55.4088 91.6613 55.5022 91.4708 55.689C91.2809 55.8692 91.1226 56.1094 90.9959 56.4096C90.8697 56.7032 90.7699 57.0402 90.6965 57.4205C90.6236 57.7942 90.5702 58.1745 90.5364 58.5615C90.5019 58.9551 90.4882 59.3421 90.4951 59.7225C90.502 60.1028 90.5425 60.4431 90.6167 60.7433C90.6909 61.0436 90.8069 61.2871 90.9647 61.474C91.1231 61.6541 91.3396 61.7442 91.6142 61.7442C91.8888 61.7442 92.1217 61.6474 92.3127 61.4539C92.5038 61.2604 92.663 61.0102 92.7903 60.7033C92.9182 60.3897 93.0192 60.0394 93.0933 59.6524C93.1673 59.2654 93.2215 58.8751 93.256 58.4814ZM93.9994 67.439C94.0181 67.2255 93.9498 67.0487 93.7946 66.9086C93.6389 66.7751 93.4275 66.665 93.1605 66.5783C92.8995 66.4982 92.597 66.4348 92.2528 66.3881C91.9147 66.3481 91.5693 66.3147 91.2167 66.2881C90.8635 66.268 90.5203 66.248 90.1871 66.228C89.854 66.208 89.565 66.1813 89.3201 66.1479C89.1706 66.248 89.024 66.3548 88.8801 66.4682C88.7424 66.5883 88.6177 66.7117 88.5061 66.8385C88.4007 66.972 88.3117 67.1088 88.2392 67.2489C88.166 67.3957 88.1231 67.5425 88.1102 67.6892C88.088 67.9428 88.1433 68.153 88.2761 68.3198C88.4082 68.4933 88.5939 68.63 88.8329 68.7301C89.0787 68.8302 89.3639 68.9003 89.6886 68.9403C90.02 68.9803 90.3699 69.0004 90.7383 69.0004C91.2272 69.0004 91.6697 68.957 92.0658 68.8703C92.4613 68.7902 92.7994 68.6768 93.0801 68.53C93.3603 68.3898 93.5789 68.2264 93.7359 68.0395C93.8929 67.8527 93.9807 67.6526 93.9994 67.439Z" fill="black"/>
</svg>
