<svg width="32" height="32" viewBox="0 0 32 32" fill="none" xmlns="http://www.w3.org/2000/svg">
<path d="M20.5794 4.40477C22.868 5.15244 24.3951 6.88986 25.8059 8.60319C27.2657 10.3761 28.7076 12.2381 28.8134 14.4048C28.9252 16.6928 28.1554 19.0514 26.4006 20.7808C24.679 22.4776 22.0381 23.1629 19.4659 23.6173C17.0313 24.0473 14.5572 23.9663 12.2008 23.2889C9.76633 22.5892 7.39436 21.5413 5.94137 19.7298C4.47057 17.8961 4.15333 15.6054 4.25555 13.3832C4.35858 11.1434 4.7838 8.79374 6.52161 7.11604C8.22272 5.47378 10.9015 5.03409 13.4037 4.55149C15.7963 4.09006 18.2882 3.65626 20.5794 4.40477Z" fill="#FD6F00"/>
<path d="M8.23329 4.57725C8.75958 4.57725 9.24246 4.64508 9.68192 4.78074C10.1214 4.9164 10.4889 5.12365 10.7845 5.40251C11.087 5.68136 11.3062 6.03935 11.442 6.47647C11.5787 6.90605 11.611 7.41477 11.5388 8.00262C11.4889 8.40959 11.3605 8.79773 11.1538 9.16702C10.9541 9.53631 10.7005 9.88676 10.3931 10.2184C10.0928 10.55 9.75615 10.8627 9.38324 11.1567C9.01032 11.4506 8.6292 11.7257 8.23986 11.9819C7.85052 12.2382 7.467 12.4756 7.0893 12.6941C6.71863 12.9127 6.37787 13.1162 6.06703 13.3046H9.60369C10.0247 13.3046 10.338 13.2104 10.5436 13.022C10.7492 12.8336 10.8976 12.5396 10.9887 12.1402H11.4203C11.3906 12.3814 11.3538 12.6527 11.3098 12.9541C11.2658 13.2556 11.2072 13.5608 11.1342 13.8698C11.0612 14.1788 10.9715 14.4803 10.8653 14.7742C10.759 15.0681 10.6253 15.3282 10.4643 15.5543C10.3032 15.7804 10.1121 15.965 9.891 16.1082C9.67084 16.2439 9.41341 16.3117 9.11868 16.3117H1.81379L1.89291 15.6673C2.12101 15.5241 2.42013 15.3169 2.79027 15.0455C3.16742 14.7742 3.57118 14.4577 4.00154 14.0959C4.43191 13.7342 4.87041 13.3347 5.31704 12.8976C5.76367 12.4605 6.1731 12.0121 6.54532 11.5523C6.91847 11.0851 7.23243 10.614 7.48721 10.1392C7.74994 9.6569 7.90906 9.18963 7.96458 8.73744C8.00437 8.41336 7.99836 8.11944 7.94654 7.85566C7.90174 7.59188 7.8067 7.36578 7.66142 7.17737C7.51707 6.98142 7.32155 6.83068 7.07487 6.72517C6.83521 6.61966 6.53644 6.56691 6.17856 6.56691C5.84174 6.56691 5.52696 6.61589 5.23425 6.71387C4.94947 6.80431 4.68205 6.92489 4.43197 7.07562C4.18892 7.22635 3.96367 7.40346 3.75624 7.60695C3.55582 7.81044 3.376 8.01769 3.21676 8.22872L2.96866 7.93479C3.16653 7.58057 3.43337 7.20751 3.7692 6.81561C4.11204 6.42371 4.51082 6.06196 4.96555 5.73035C5.42029 5.39874 5.92421 5.12365 6.47734 4.90509C7.03046 4.68653 7.61578 4.57725 8.23329 4.57725Z" fill="black"/>
<path d="M15.3409 15.3965H10.3094L10.405 14.618L16.1689 7.95923C16.2672 7.85206 16.3732 7.73925 16.4871 7.62079C16.6009 7.50234 16.7346 7.39517 16.8882 7.29928C17.0418 7.20339 17.2217 7.12442 17.4279 7.06237C17.6348 6.99468 17.88 6.96084 18.1637 6.96084C18.4686 6.96084 18.724 6.98904 18.9298 7.04545C19.1363 7.09621 19.2975 7.16954 19.4134 7.26543C19.5364 7.36132 19.6179 7.47696 19.658 7.61233C19.6981 7.74771 19.7085 7.89437 19.6891 8.05231L18.8829 14.618H20.9998L20.9042 15.3965H18.7873L18.4705 17.9771C18.4165 18.417 18.2391 18.7357 17.9382 18.9332C17.6374 19.1306 17.1892 19.2293 16.5935 19.2293C15.9978 19.2293 15.5738 19.1306 15.3215 18.9332C15.0691 18.7357 14.97 18.417 15.024 17.9771L15.3409 15.3965ZM15.4364 14.618L16.0514 9.60913L11.7985 14.618H15.4364Z" fill="black"/>
<path d="M2.42011 23.3821C2.35064 23.3821 2.29326 23.3721 2.24796 23.352C2.20285 23.3297 2.16729 23.3007 2.14129 23.2649C2.11528 23.2292 2.09741 23.1902 2.08768 23.1477C2.07814 23.1031 2.07542 23.0573 2.07952 23.0105C2.08479 22.9502 2.09323 22.8921 2.10484 22.8363C2.11868 22.7805 2.1242 22.7303 2.12138 22.6856C2.12081 22.641 2.10712 22.6053 2.08034 22.5785C2.05355 22.5517 2.00318 22.5383 1.92923 22.5383C1.8508 22.5383 1.76593 22.5606 1.67463 22.6053C1.58333 22.6499 1.49762 22.7202 1.41751 22.8162C1.33741 22.9122 1.26718 23.0361 1.20684 23.1879C1.1467 23.3375 1.10735 23.5183 1.08879 23.7304C1.06829 23.9648 1.07083 24.1791 1.09641 24.3733C1.12443 24.5653 1.17618 24.7294 1.25167 24.8656C1.32715 25.0017 1.42655 25.1078 1.54989 25.1837C1.67342 25.2573 1.82257 25.2942 1.99737 25.2942C2.0758 25.2942 2.15053 25.2853 2.22156 25.2674C2.29483 25.2495 2.36421 25.225 2.42969 25.1937C2.49517 25.1625 2.55768 25.1268 2.61721 25.0866C2.67919 25.0442 2.73912 24.9995 2.797 24.9526L2.874 25.033C2.81641 25.1022 2.74366 25.1781 2.65576 25.2607C2.56786 25.3433 2.46355 25.4214 2.34282 25.4951C2.22228 25.5665 2.08367 25.6268 1.92699 25.6759C1.77051 25.7228 1.59479 25.7462 1.39983 25.7462C1.20487 25.7462 1.01761 25.7094 0.838064 25.6357C0.660949 25.5598 0.506933 25.4505 0.376014 25.3076C0.245095 25.1647 0.144825 24.9917 0.0752021 24.7885C0.00801578 24.5832 -0.0141518 24.3499 0.00869926 24.0887C0.0264723 23.8855 0.0685511 23.6991 0.134936 23.5295C0.201515 23.3576 0.284558 23.2024 0.384062 23.064C0.485808 22.9256 0.599534 22.804 0.725241 22.699C0.853189 22.5941 0.985177 22.5071 1.1212 22.4378C1.25743 22.3664 1.39433 22.3128 1.53191 22.2771C1.67173 22.2414 1.80438 22.2235 1.92988 22.2235C2.0957 22.2235 2.23858 22.2425 2.35851 22.2805C2.47844 22.3184 2.57601 22.3686 2.65121 22.4311C2.72866 22.4937 2.78394 22.5662 2.81705 22.6488C2.85035 22.7292 2.8632 22.8129 2.85558 22.9C2.84991 22.9647 2.83548 23.0272 2.81228 23.0875C2.79152 23.1455 2.76238 23.1969 2.72486 23.2415C2.68977 23.2839 2.64641 23.3185 2.59476 23.3453C2.54332 23.3699 2.4851 23.3821 2.42011 23.3821Z" fill="black"/>
<path d="M3.41088 23.9849C3.43647 23.6924 3.50141 23.4368 3.6057 23.2181C3.71019 22.9971 3.83947 22.8129 3.99354 22.6655C4.14985 22.5182 4.32534 22.4077 4.52003 22.334C4.71471 22.2604 4.91513 22.2235 5.12129 22.2235C5.32746 22.2235 5.52163 22.2581 5.70381 22.3273C5.88619 22.3943 6.04182 22.4981 6.17069 22.6388C6.3018 22.7794 6.40047 22.958 6.46668 23.1745C6.53308 23.3888 6.55339 23.6433 6.52761 23.938C6.50203 24.2305 6.43679 24.4894 6.33191 24.7149C6.22703 24.9404 6.09614 25.1301 5.93925 25.2841C5.7846 25.4382 5.60963 25.5554 5.41437 25.6357C5.21929 25.7139 5.01868 25.7529 4.81251 25.7529C4.60635 25.7529 4.41237 25.7161 4.23058 25.6424C4.04898 25.5665 3.89292 25.4549 3.76239 25.3076C3.6341 25.1602 3.53705 24.9761 3.47123 24.7551C3.40541 24.5341 3.3853 24.2773 3.41088 23.9849ZM5.48105 23.9514C5.49668 23.7728 5.50499 23.6009 5.506 23.4357C5.50945 23.2683 5.4989 23.1198 5.47438 22.9904C5.44985 22.8609 5.40729 22.7582 5.34671 22.6823C5.28632 22.6042 5.20122 22.5651 5.09141 22.5651C4.98161 22.5651 4.88948 22.6064 4.81502 22.689C4.74077 22.7694 4.67985 22.8765 4.63228 23.0105C4.5849 23.1422 4.54819 23.2928 4.52214 23.4625C4.49609 23.6322 4.47525 23.8063 4.45963 23.9849C4.444 24.1635 4.43428 24.3387 4.43044 24.5106C4.4268 24.6803 4.43705 24.8321 4.46119 24.966C4.48532 25.1 4.52739 25.2082 4.58739 25.2908C4.64759 25.3712 4.73259 25.4114 4.84239 25.4114C4.9522 25.4114 5.04443 25.369 5.11907 25.2841C5.19372 25.1993 5.25503 25.0877 5.30299 24.9493C5.35096 24.8109 5.38816 24.6546 5.4146 24.4805C5.44328 24.3064 5.46543 24.13 5.48105 23.9514Z" fill="black"/>
<path d="M9.33435 24.0318C9.35896 23.7505 9.36515 23.5261 9.3529 23.3587C9.3431 23.189 9.32071 23.0607 9.28575 22.9736C9.25099 22.8843 9.20901 22.8263 9.15981 22.7995C9.11081 22.7705 9.05942 22.756 9.00563 22.756C8.94065 22.756 8.88082 22.7738 8.82615 22.8095C8.77393 22.843 8.72681 22.8821 8.68481 22.9267C8.64505 22.9714 8.60977 23.016 8.57897 23.0607C8.55041 23.1053 8.5262 23.1388 8.50632 23.1611L8.31062 25.398C8.30808 25.427 8.30047 25.4627 8.2878 25.5051C8.27532 25.5453 8.24949 25.5844 8.21032 25.6223C8.17358 25.6581 8.1194 25.6882 8.04778 25.7128C7.97821 25.7395 7.88404 25.7529 7.76527 25.7529C7.6465 25.7529 7.55366 25.7384 7.48673 25.7094C7.42184 25.6826 7.37313 25.6502 7.3406 25.6123C7.30806 25.5743 7.28907 25.5353 7.28363 25.4951C7.27818 25.4549 7.27653 25.4225 7.27868 25.398L7.50484 22.8129C7.51051 22.7481 7.4997 22.6923 7.47243 22.6455C7.4476 22.5963 7.39933 22.5718 7.32762 22.5718C7.28952 22.5718 7.25644 22.5785 7.22838 22.5919C7.20032 22.6053 7.16952 22.6242 7.136 22.6488L7.07274 22.5651C7.12799 22.5227 7.18875 22.4814 7.25501 22.4412C7.3237 22.3988 7.3964 22.3619 7.47308 22.3307C7.54976 22.2994 7.63156 22.2738 7.71848 22.2537C7.80539 22.2336 7.8959 22.2235 7.99002 22.2235C8.13568 22.2235 8.2467 22.2481 8.32307 22.2972C8.39965 22.3441 8.45405 22.401 8.48629 22.468C8.51852 22.535 8.53478 22.6053 8.53506 22.6789C8.53777 22.7504 8.53698 22.8107 8.53268 22.8598C8.62595 22.7415 8.72934 22.6354 8.84287 22.5417C8.88896 22.5015 8.93944 22.4624 8.9943 22.4245C9.0514 22.3865 9.11035 22.353 9.17116 22.324C9.2344 22.2927 9.29929 22.2682 9.36584 22.2503C9.43463 22.2325 9.50376 22.2235 9.57323 22.2235C9.72561 22.2235 9.85752 22.2526 9.96897 22.3106C10.0827 22.3686 10.1739 22.4658 10.2426 22.6019C10.3114 22.7381 10.3572 22.9189 10.3801 23.1444C10.4031 23.3676 10.4001 23.6456 10.371 23.9782C10.3427 24.3019 10.2889 24.5832 10.2098 24.822C10.1306 25.0609 10.0366 25.264 9.92787 25.4315C9.8191 25.5989 9.70074 25.7351 9.5728 25.84C9.44465 25.9472 9.31744 26.0309 9.19116 26.0911C9.06487 26.1514 8.94473 26.1927 8.83073 26.215C8.71878 26.2396 8.62237 26.253 8.5415 26.2552L8.51654 26.1179C8.58513 26.1023 8.64891 26.0778 8.70786 26.0443C8.76905 26.0108 8.82601 25.9617 8.87873 25.8969C8.93146 25.8322 8.98004 25.7507 9.02449 25.6525C9.06913 25.552 9.11032 25.427 9.14806 25.2774C9.18804 25.1279 9.22251 24.9515 9.25149 24.7484C9.28291 24.543 9.31053 24.3041 9.33435 24.0318Z" fill="black"/>
<path d="M12.4824 22.4914C12.4308 22.4914 12.381 22.4981 12.3327 22.5115C12.2867 22.5249 12.2444 22.5472 12.2059 22.5785C12.1675 22.6075 12.1361 22.6455 12.1119 22.6923C12.0878 22.737 12.073 22.7906 12.0675 22.8531C12.0599 22.9401 12.0837 23.0272 12.1388 23.1143C12.1964 23.1991 12.2681 23.2884 12.354 23.3821C12.4424 23.4737 12.5371 23.5697 12.6381 23.6701C12.7415 23.7683 12.8354 23.8733 12.9198 23.9849C13.0066 24.0943 13.0759 24.2115 13.1277 24.3365C13.1817 24.4615 13.2025 24.5954 13.19 24.7383C13.176 24.8991 13.1354 25.0419 13.0685 25.1669C13.0038 25.292 12.9161 25.398 12.8054 25.4851C12.6969 25.5721 12.5678 25.6391 12.418 25.686C12.2707 25.7306 12.1085 25.7529 11.9315 25.7529C11.7769 25.7529 11.6387 25.7317 11.5169 25.6893C11.3953 25.6447 11.2879 25.5911 11.1948 25.5286C11.1041 25.4638 11.0272 25.3958 10.9639 25.3243C10.9007 25.2529 10.8526 25.1881 10.8196 25.1301L10.9446 25.0464C10.9708 25.0799 11.0045 25.1167 11.0458 25.1569C11.0873 25.1948 11.1335 25.2306 11.1843 25.264C11.2374 25.2975 11.2944 25.3254 11.3552 25.3478C11.4162 25.3679 11.4791 25.3779 11.5441 25.3779C11.7055 25.3779 11.841 25.3399 11.9507 25.264C12.0607 25.1859 12.1222 25.0709 12.1355 24.9191C12.143 24.8343 12.1226 24.7472 12.0743 24.658C12.0263 24.5664 11.9639 24.4727 11.8872 24.3767C11.8104 24.2807 11.7272 24.1813 11.6376 24.0787C11.548 23.976 11.4654 23.8699 11.3898 23.7605C11.3142 23.6511 11.2535 23.5384 11.2077 23.4223C11.1618 23.3062 11.1443 23.1857 11.1553 23.0607C11.1676 22.92 11.2063 22.7973 11.2715 22.6923C11.339 22.5874 11.4228 22.5004 11.5229 22.4311C11.6254 22.3619 11.7385 22.3106 11.8625 22.2771C11.9888 22.2414 12.117 22.2235 12.247 22.2235C12.3971 22.2235 12.5327 22.2369 12.6536 22.2637C12.7745 22.2905 12.8762 22.3318 12.9587 22.3876C13.0436 22.4412 13.106 22.5093 13.1459 22.5919C13.1879 22.6745 13.2042 22.7705 13.1946 22.8799C13.1872 22.9647 13.1527 23.0384 13.0913 23.1009C13.0298 23.1634 12.9486 23.1946 12.8478 23.1946C12.7514 23.1946 12.6792 23.1745 12.6312 23.1344C12.5856 23.0919 12.5659 23.035 12.5722 22.9636C12.5763 22.9167 12.5907 22.8799 12.6155 22.8531C12.6424 22.8263 12.6712 22.8051 12.7017 22.7894C12.7324 22.7716 12.7594 22.7571 12.7828 22.7459C12.8086 22.7325 12.8224 22.7158 12.8242 22.6957C12.8296 22.6332 12.8003 22.5841 12.7362 22.5483C12.6723 22.5104 12.5877 22.4914 12.4824 22.4914Z" fill="black"/>
<path d="M16.9265 25.1167C16.9247 25.1368 16.9239 25.1591 16.924 25.1837C16.9243 25.206 16.9279 25.2283 16.9349 25.2507C16.9421 25.2707 16.9541 25.2875 16.9709 25.3009C16.9876 25.3143 17.0128 25.321 17.0464 25.321C17.089 25.321 17.1284 25.3065 17.1645 25.2774C17.2009 25.2462 17.235 25.2149 17.2668 25.1837L17.3414 25.254C17.3037 25.3009 17.2565 25.3533 17.1999 25.4114C17.1457 25.4672 17.0805 25.5208 17.0043 25.5721C16.9281 25.6235 16.8426 25.6659 16.7478 25.6994C16.6528 25.7351 16.547 25.7529 16.4305 25.7529C16.3319 25.7529 16.2468 25.7395 16.1752 25.7128C16.1056 25.6882 16.0469 25.6547 15.9991 25.6123C15.9537 25.5677 15.9212 25.5163 15.9016 25.4583C15.8823 25.398 15.8755 25.3344 15.8814 25.2674L15.8945 25.1167C15.772 25.2373 15.645 25.3433 15.5138 25.4348C15.4565 25.475 15.3959 25.5141 15.3321 25.552C15.2683 25.59 15.2025 25.6246 15.1348 25.6558C15.0672 25.6849 14.998 25.7083 14.9269 25.7262C14.8559 25.744 14.7857 25.7529 14.7162 25.7529C14.5817 25.7529 14.4684 25.7295 14.3761 25.6826C14.2863 25.6335 14.2157 25.5699 14.1642 25.4917C14.1128 25.4136 14.0779 25.3254 14.0597 25.2272C14.0414 25.129 14.0365 25.0308 14.0451 24.9325L14.2264 22.8598C14.2282 22.8397 14.2289 22.8185 14.2286 22.7961C14.2286 22.7716 14.2249 22.7493 14.2177 22.7292C14.2107 22.7068 14.1988 22.689 14.182 22.6756C14.1653 22.6622 14.1401 22.6555 14.1065 22.6555C14.0662 22.6555 14.0267 22.6711 13.9881 22.7024C13.952 22.7314 13.9191 22.7615 13.8894 22.7928L13.8116 22.7225C13.8493 22.6756 13.8952 22.6243 13.9494 22.5684C14.006 22.5104 14.0724 22.4557 14.1486 22.4044C14.2248 22.353 14.3103 22.3106 14.4051 22.2771C14.5024 22.2414 14.6082 22.2235 14.7224 22.2235C14.821 22.2235 14.9061 22.2369 14.9778 22.2637C15.0496 22.2883 15.1082 22.3229 15.1535 22.3675C15.1991 22.4099 15.2316 22.4613 15.251 22.5216C15.2706 22.5796 15.2774 22.6421 15.2716 22.7091L15.0759 24.9459C15.0731 24.9772 15.0748 25.0096 15.0808 25.043C15.0893 25.0743 15.1013 25.1033 15.1169 25.1301C15.1347 25.1569 15.1574 25.1792 15.185 25.1971C15.2128 25.2127 15.2468 25.2205 15.2871 25.2205C15.3521 25.2205 15.4186 25.2038 15.4865 25.1703C15.5544 25.1368 15.6172 25.0977 15.6749 25.0531C15.7328 25.0062 15.7827 24.9604 15.8247 24.9158C15.869 24.8711 15.901 24.8377 15.9209 24.8153L16.092 22.8598C16.0938 22.8397 16.0945 22.8185 16.0942 22.7961C16.0941 22.7716 16.0905 22.7493 16.0833 22.7292C16.0762 22.7068 16.0644 22.689 16.0476 22.6756C16.0309 22.6622 16.0057 22.6555 15.9721 22.6555C15.9317 22.6555 15.8923 22.6711 15.8537 22.7024C15.8175 22.7314 15.7846 22.7615 15.755 22.7928L15.6771 22.7225C15.7148 22.6756 15.7608 22.6243 15.815 22.5684C15.8716 22.5104 15.938 22.4557 16.0142 22.4044C16.0904 22.353 16.1759 22.3106 16.2707 22.2771C16.368 22.2414 16.4737 22.2235 16.588 22.2235C16.6866 22.2235 16.7717 22.2369 16.8433 22.2637C16.9151 22.2883 16.9737 22.3229 17.0191 22.3675C17.0647 22.4099 17.0972 22.4613 17.1166 22.5216C17.1361 22.5796 17.143 22.6421 17.1371 22.7091L16.9265 25.1167Z" fill="black"/>
<path d="M19.0339 25.4047C19.0313 25.4337 19.0227 25.4683 19.008 25.5085C18.9955 25.5487 18.9687 25.5866 18.9274 25.6223C18.8885 25.6581 18.832 25.6882 18.7582 25.7128C18.6864 25.7395 18.5911 25.7529 18.4723 25.7529C18.3535 25.7529 18.2618 25.7384 18.1971 25.7094C18.1322 25.6826 18.0847 25.6502 18.0544 25.6123C18.0263 25.5743 18.0096 25.5353 18.0041 25.4951C18.0009 25.4549 18.0004 25.4225 18.0025 25.398L18.3804 21.0783C18.3861 21.0136 18.3753 20.9578 18.348 20.9109C18.3232 20.8618 18.2749 20.8372 18.2032 20.8372C18.1651 20.8372 18.1309 20.8439 18.1006 20.8573C18.0727 20.8685 18.0421 20.8863 18.0085 20.9109L17.9483 20.8305C18.0036 20.7881 18.0643 20.7468 18.1306 20.7066C18.1971 20.6642 18.2686 20.6274 18.3453 20.5961C18.4242 20.5649 18.5072 20.5392 18.5941 20.5191C18.681 20.499 18.7715 20.489 18.8656 20.489C19.0113 20.489 19.1227 20.5091 19.1998 20.5492C19.2772 20.5872 19.3324 20.6352 19.3654 20.6932C19.3986 20.749 19.4157 20.8093 19.4168 20.8741C19.4203 20.9366 19.4199 20.9924 19.4156 21.0415L19.0339 25.4047Z" fill="black"/>
<path d="M21.433 22.5115L21.2165 24.9861C21.2062 25.1044 21.2214 25.187 21.2621 25.2339C21.303 25.2786 21.3627 25.3009 21.4411 25.3009C21.5016 25.3009 21.5568 25.2841 21.6068 25.2507C21.6568 25.2172 21.7005 25.1792 21.7378 25.1368C21.7822 25.0899 21.8218 25.0352 21.8564 24.9727L21.9565 25.0196C21.9166 25.091 21.8694 25.1692 21.8149 25.254C21.7627 25.3388 21.6953 25.4181 21.6126 25.4917C21.5302 25.5632 21.4286 25.6235 21.3077 25.6726C21.1892 25.7217 21.0425 25.7462 20.8677 25.7462C20.7691 25.7462 20.6751 25.7317 20.5858 25.7027C20.4987 25.6737 20.422 25.6279 20.3558 25.5654C20.2918 25.5029 20.2426 25.4248 20.2082 25.331C20.1738 25.2373 20.1624 25.1245 20.1739 24.9928L20.391 22.5115H20.0145L20.0356 22.2704C20.0984 22.2704 20.1871 22.2548 20.3019 22.2235C20.4169 22.1901 20.536 22.1354 20.6591 22.0595C20.7845 21.9836 20.9032 21.882 21.0152 21.7547C21.1272 21.6275 21.2127 21.4701 21.2716 21.2826H21.5405L21.4541 22.2704H22.002C22.1813 22.2704 22.2736 22.2403 22.2788 22.18C22.2808 22.1577 22.2709 22.1432 22.249 22.1365C22.2274 22.1275 22.2025 22.1175 22.1744 22.1063C22.1486 22.0929 22.1256 22.0751 22.1051 22.0528C22.0846 22.0304 22.0767 21.9936 22.0812 21.9423C22.0866 21.8797 22.11 21.8306 22.1512 21.7949C22.1947 21.7592 22.2478 21.7413 22.3105 21.7413C22.3508 21.7413 22.3848 21.7503 22.4124 21.7681C22.4424 21.7838 22.4662 21.8061 22.4838 21.8351C22.5016 21.8619 22.5135 21.8931 22.5193 21.9289C22.5274 21.9646 22.5299 22.0003 22.5267 22.036C22.514 22.1811 22.4613 22.2972 22.3685 22.3843C22.2782 22.4691 22.14 22.5115 21.954 22.5115H21.433Z" fill="black"/>
<path d="M23.7568 25.398C23.7542 25.427 23.7455 25.4627 23.7306 25.5051C23.7181 25.5453 23.6912 25.5844 23.6498 25.6223C23.6108 25.6581 23.5555 25.6882 23.4839 25.7128C23.4121 25.7395 23.3168 25.7529 23.198 25.7529C23.0792 25.7529 22.9875 25.7384 22.9228 25.7094C22.8579 25.6826 22.8103 25.6502 22.78 25.6123C22.7497 25.5743 22.7319 25.5353 22.7264 25.4951C22.7232 25.4549 22.7227 25.4225 22.7248 25.398L22.951 22.8129C22.9567 22.7481 22.9459 22.6923 22.9186 22.6455C22.8938 22.5963 22.8455 22.5718 22.7738 22.5718C22.7357 22.5718 22.7026 22.5785 22.6745 22.5919C22.6465 22.6053 22.6157 22.6242 22.5822 22.6488L22.5189 22.5651C22.5742 22.5227 22.6349 22.4814 22.7012 22.4412C22.7699 22.3988 22.8426 22.3619 22.9192 22.3307C22.9959 22.2994 23.0777 22.2738 23.1646 22.2537C23.2516 22.2336 23.3421 22.2235 23.4362 22.2235C23.5818 22.2235 23.6933 22.2436 23.7704 22.2838C23.8478 22.3218 23.903 22.3698 23.936 22.4278C23.9692 22.4836 23.9863 22.5439 23.9874 22.6086C23.9907 22.6734 23.9902 22.7303 23.9859 22.7794L23.7568 25.398ZM22.9652 21.4601C22.9706 21.3976 22.9893 21.3384 23.021 21.2826C23.0552 21.2245 23.0988 21.1743 23.1519 21.1319C23.2071 21.0895 23.2683 21.056 23.3354 21.0314C23.4048 21.0069 23.4787 20.9946 23.5572 20.9946C23.6333 20.9946 23.7029 21.0069 23.7657 21.0314C23.8308 21.056 23.8861 21.0895 23.9317 21.1319C23.9773 21.1743 24.011 21.2245 24.0328 21.2826C24.057 21.3384 24.0664 21.3976 24.061 21.4601C24.0553 21.5248 24.0355 21.5851 24.0015 21.6409C23.9697 21.6967 23.9273 21.7458 23.8743 21.7882C23.8215 21.8284 23.7604 21.8608 23.691 21.8853C23.6239 21.9099 23.5522 21.9222 23.476 21.9222C23.3976 21.9222 23.3258 21.9099 23.2607 21.8853C23.1979 21.8608 23.1425 21.8284 23.0944 21.7882C23.0489 21.7458 23.0139 21.6967 22.9897 21.6409C22.9677 21.5851 22.9595 21.5248 22.9652 21.4601Z" fill="black"/>
<path d="M26.9097 24.0318C26.9344 23.7505 26.9405 23.5261 26.9283 23.3587C26.9185 23.189 26.8961 23.0607 26.8611 22.9736C26.8264 22.8843 26.7844 22.8263 26.7352 22.7995C26.6862 22.7705 26.6348 22.756 26.581 22.756C26.516 22.756 26.4562 22.7738 26.4015 22.8095C26.3493 22.843 26.3022 22.8821 26.2602 22.9267C26.2204 22.9714 26.1852 23.016 26.1544 23.0607C26.1258 23.1053 26.1016 23.1388 26.0817 23.1611L25.886 25.398C25.8835 25.427 25.8759 25.4627 25.8632 25.5051C25.8507 25.5453 25.8249 25.5844 25.7857 25.6223C25.749 25.6581 25.6948 25.6882 25.6232 25.7128C25.5536 25.7395 25.4594 25.7529 25.3407 25.7529C25.2219 25.7529 25.129 25.7384 25.0621 25.7094C24.9972 25.6826 24.9485 25.6502 24.916 25.6123C24.8835 25.5743 24.8645 25.5353 24.859 25.4951C24.8536 25.4549 24.8519 25.4225 24.8541 25.398L25.0802 22.8129C25.0859 22.7481 25.0751 22.6923 25.0478 22.6455C25.023 22.5963 24.9747 22.5718 24.903 22.5718C24.8649 22.5718 24.8318 22.5785 24.8038 22.5919C24.7757 22.6053 24.7449 22.6242 24.7114 22.6488L24.6481 22.5651C24.7034 22.5227 24.7641 22.4814 24.8304 22.4412C24.8991 22.3988 24.9718 22.3619 25.0485 22.3307C25.1252 22.2994 25.207 22.2738 25.2939 22.2537C25.3808 22.2336 25.4713 22.2235 25.5654 22.2235C25.7111 22.2235 25.8221 22.2481 25.8985 22.2972C25.975 22.3441 26.0294 22.401 26.0617 22.468C26.0939 22.535 26.1102 22.6053 26.1104 22.6789C26.1132 22.7504 26.1124 22.8107 26.1081 22.8598C26.2013 22.7415 26.3047 22.6354 26.4183 22.5417C26.4644 22.5015 26.5148 22.4624 26.5697 22.4245C26.6268 22.3865 26.6857 22.353 26.7465 22.324C26.8098 22.2927 26.8747 22.2682 26.9412 22.2503C27.01 22.2325 27.0791 22.2235 27.1486 22.2235C27.301 22.2235 27.4329 22.2526 27.5444 22.3106C27.6581 22.3686 27.7493 22.4658 27.818 22.6019C27.8868 22.7381 27.9326 22.9189 27.9555 23.1444C27.9785 23.3676 27.9755 23.6456 27.9464 23.9782C27.9181 24.3019 27.8643 24.5832 27.7852 24.822C27.706 25.0609 27.612 25.264 27.5033 25.4315C27.3945 25.5989 27.2761 25.7351 27.1482 25.84C27.02 25.9472 26.8928 26.0309 26.7665 26.0911C26.6403 26.1514 26.5201 26.1927 26.4061 26.215C26.2942 26.2396 26.1978 26.253 26.1169 26.2552L26.0919 26.1179C26.1605 26.1023 26.2243 26.0778 26.2833 26.0443C26.3444 26.0108 26.4014 25.9617 26.4541 25.8969C26.5068 25.8322 26.5554 25.7507 26.5999 25.6525C26.6445 25.552 26.6857 25.427 26.7235 25.2774C26.7634 25.1279 26.7979 24.9515 26.8269 24.7484C26.8583 24.543 26.8859 24.3041 26.9097 24.0318Z" fill="black"/>
<path d="M28.7379 23.5931C28.7578 23.3654 28.8144 23.1667 28.9076 22.9971C29.0034 22.8252 29.1234 22.6823 29.2678 22.5684C29.4124 22.4524 29.5757 22.3664 29.7576 22.3106C29.9397 22.2526 30.1283 22.2235 30.3232 22.2235C30.5182 22.2235 30.7008 22.2492 30.8711 22.3006C31.0414 22.3519 31.1891 22.4311 31.3142 22.5383C31.3624 22.4736 31.4031 22.4055 31.4363 22.334C31.4694 22.2626 31.4891 22.1912 31.4953 22.1197C31.5036 22.026 31.4843 21.9512 31.4377 21.8954C31.3932 21.8396 31.3318 21.8117 31.2534 21.8117L31.2619 21.7146C31.3126 21.6989 31.3574 21.6855 31.3965 21.6744C31.4358 21.661 31.4714 21.6509 31.5033 21.6442C31.5353 21.6375 31.5671 21.6331 31.5986 21.6308C31.6304 21.6264 31.6653 21.6241 31.7034 21.6241C31.8087 21.6241 31.8866 21.6565 31.9369 21.7212C31.9873 21.786 32.0075 21.8753 31.9975 21.9891C31.9917 22.0561 31.9701 22.1231 31.9329 22.1901C31.8959 22.2548 31.8512 22.3173 31.7988 22.3776C31.7465 22.4378 31.6889 22.4948 31.6259 22.5483C31.5652 22.6019 31.5073 22.6488 31.4523 22.689C31.537 22.7961 31.5989 22.9212 31.6379 23.064C31.677 23.2069 31.6885 23.3699 31.6725 23.5529C31.6524 23.7829 31.5943 23.986 31.4982 24.1624C31.4043 24.3387 31.2849 24.4872 31.1399 24.6077C30.9949 24.7283 30.8311 24.8198 30.6486 24.8823C30.4663 24.9426 30.2777 24.9727 30.0827 24.9727C29.9684 24.9727 29.8573 24.9627 29.7492 24.9426C29.6412 24.9225 29.5406 24.8935 29.4476 24.8555C29.4094 24.8823 29.3751 24.9158 29.3447 24.956C29.3165 24.9962 29.3003 25.0408 29.296 25.0899C29.2888 25.1725 29.3192 25.2339 29.3874 25.2741C29.4556 25.3143 29.5483 25.3433 29.6655 25.3612C29.7827 25.379 29.9162 25.3902 30.066 25.3946C30.2157 25.3991 30.3685 25.4069 30.5244 25.4181C30.6827 25.427 30.8357 25.446 30.9833 25.475C31.1311 25.5018 31.2616 25.5476 31.3747 25.6123C31.488 25.6748 31.5757 25.7608 31.6378 25.8701C31.7 25.9795 31.7234 26.1213 31.7082 26.2954C31.697 26.4227 31.6602 26.5365 31.5976 26.637C31.5349 26.7397 31.4542 26.8289 31.3557 26.9049C31.2592 26.983 31.1481 27.0488 31.0224 27.1024C30.8988 27.1582 30.7683 27.2029 30.6309 27.2364C30.4956 27.2721 30.3577 27.2978 30.2174 27.3134C30.0794 27.329 29.9476 27.3368 29.8221 27.3368C29.5935 27.3368 29.3884 27.3245 29.2068 27.3C29.0273 27.2777 28.8758 27.2419 28.7523 27.1928C28.6289 27.1437 28.5359 27.0801 28.4732 27.002C28.4106 26.9238 28.3841 26.8301 28.3936 26.7207C28.4005 26.6425 28.4247 26.57 28.4665 26.503C28.508 26.4383 28.5603 26.378 28.6235 26.3222C28.6887 26.2686 28.7602 26.2195 28.838 26.1749C28.9157 26.1324 28.9943 26.0923 29.0738 26.0543C28.9658 26.0074 28.878 25.936 28.8102 25.84C28.7444 25.7462 28.7184 25.6212 28.7321 25.465C28.7393 25.3824 28.7605 25.3065 28.7957 25.2373C28.8311 25.1658 28.8737 25.1011 28.9236 25.043C28.9759 24.9828 29.031 24.9292 29.0889 24.8823C29.1493 24.8332 29.2066 24.7919 29.2611 24.7584C29.1739 24.7048 29.0944 24.6401 29.0226 24.5642C28.9533 24.4861 28.8948 24.399 28.8472 24.303C28.802 24.2048 28.7689 24.0965 28.7479 23.9782C28.7291 23.8599 28.7257 23.7315 28.7379 23.5931ZM30.6595 23.5663C30.6709 23.4368 30.6752 23.3107 30.6725 23.1879C30.6698 23.0651 30.6558 22.9558 30.6306 22.8598C30.6054 22.7638 30.5662 22.6868 30.513 22.6287C30.46 22.5684 30.3876 22.5383 30.2957 22.5383C30.2038 22.5383 30.126 22.5696 30.0623 22.6321C29.9987 22.6923 29.9458 22.7727 29.9034 22.8732C29.8612 22.9714 29.8278 23.0841 29.8032 23.2114C29.7788 23.3364 29.761 23.4636 29.7496 23.5931C29.7381 23.7248 29.7335 23.8543 29.7358 23.9815C29.7381 24.1088 29.7517 24.2226 29.7765 24.3231C29.8013 24.4236 29.8402 24.505 29.8929 24.5675C29.9459 24.6278 30.0184 24.658 30.1102 24.658C30.2021 24.658 30.28 24.6256 30.344 24.5608C30.4079 24.4961 30.4611 24.4124 30.5037 24.3097C30.5465 24.2048 30.5803 24.0876 30.6051 23.9581C30.6299 23.8286 30.648 23.698 30.6595 23.5663ZM30.9083 26.5633C30.9145 26.4919 30.8917 26.4327 30.8398 26.3858C30.7876 26.3412 30.7169 26.3043 30.6276 26.2753C30.5403 26.2485 30.4391 26.2273 30.3239 26.2117C30.2108 26.1983 30.0952 26.1871 29.9772 26.1782C29.8591 26.1715 29.7442 26.1648 29.6328 26.1581C29.5213 26.1514 29.4246 26.1425 29.3427 26.1313C29.2927 26.1648 29.2436 26.2005 29.1955 26.2385C29.1494 26.2787 29.1077 26.32 29.0704 26.3624C29.0351 26.407 29.0053 26.4528 28.981 26.4997C28.9566 26.5488 28.9422 26.5979 28.9379 26.647C28.9305 26.7318 28.949 26.8022 28.9934 26.858C29.0376 26.916 29.0997 26.9618 29.1797 26.9953C29.2619 27.0287 29.3574 27.0522 29.466 27.0656C29.5769 27.079 29.6939 27.0857 29.8172 27.0857C29.9808 27.0857 30.1288 27.0712 30.2613 27.0421C30.3936 27.0154 30.5068 26.9774 30.6007 26.9283C30.6944 26.8814 30.7676 26.8267 30.8201 26.7642C30.8726 26.7017 30.902 26.6347 30.9083 26.5633Z" fill="black"/>
</svg>
