<svg width="243" height="116" viewBox="0 0 243 116" fill="none" xmlns="http://www.w3.org/2000/svg">
<rect x="1" y="1" width="241" height="114" rx="55" fill="#AD1B02"/>
<rect x="18" y="13" width="90" height="90" rx="45" fill="white"/>
<path d="M93.682 48.4129V39.1609H87.3847V35.4082H84.9427V33H72.5278V35.4082V39.1609V45.3237V48.4129V54.5776H80.2918H84.9427H87.3847H93.682H96.8401V48.4129H93.682Z" fill="#E3731C"/>
<path d="M75.2588 66.1891C73.1075 66.533 72.0079 68.107 72.0079 70.8767C72.0079 73.6634 73.4725 75.5272 75.7191 75.5272C76.7642 75.5272 77.7134 75.1835 79.7098 74.2137V76.468C77.3145 77.5568 75.904 77.8928 73.9743 77.8928C71.8847 77.8928 70.4142 77.3436 69.2141 76.1309C67.9837 74.9113 67.3678 73.3012 67.3678 71.5083C67.3678 67.5191 70.3486 64.8203 74.7036 64.8203C77.5961 64.8203 79.5848 66.129 79.5848 68.0508C79.5848 69.2889 78.659 70.1404 77.2852 70.1404C76.5799 70.1404 76.0007 69.9572 75.2598 69.5311V66.1891H75.2588Z" fill="black"/>
<path d="M64.6433 71.5093C66.5719 69.1011 67.253 68.1292 67.253 66.9466C67.253 65.7696 66.3095 64.8213 65.049 64.8213C64.2723 64.8213 63.5738 65.1845 63.2329 65.5623V70.468L60.073 74.6391V65.1303H57.0681L52.0735 73.3322V65.1303H50.3473L45.8129 66.2249V67.3728L48.2859 67.6218V77.6806H51.4826L56.2728 69.8828V77.6806H59.7736L64.6433 71.5093Z" fill="black"/>
<path d="M36.2655 76.1319C36.6055 76.1473 36.7547 76.1473 36.9697 76.1473C39.5445 76.1473 40.9249 74.5568 40.9249 71.5093C40.9249 68.9287 39.7954 67.556 37.7108 67.556C37.364 67.556 36.9998 67.5976 36.2645 67.6858V76.1319H36.2655ZM36.2655 81.628L38.3385 82.0845V83.2496H30.2063V82.0845L32.0594 81.628V67.557H30V66.35L34.9752 64.8533H36.2665V66.534C38.5962 65.1614 39.3963 64.9182 40.5917 64.9182C43.3515 64.9182 45.3887 67.4398 45.3887 70.9311C45.3887 74.9664 42.6705 77.6817 38.3879 77.6817C37.9036 77.6817 37.0976 77.6527 36.2665 77.5578V81.628H36.2655Z" fill="black"/>
<path d="M96.8402 48.4131H93.6821V54.5779H96.8402V48.4131Z" fill="#E669A2"/>
<path d="M87.3838 35.4086H84.9418V39.1623H87.3838V35.4086Z" fill="#F3BC87"/>
<path d="M84.9414 33H72.5265V35.4082H84.9414V33Z" fill="#EE9C34"/>
<path d="M84.9414 35.4086H72.5265V39.1623H84.9414V35.4086Z" fill="#E3731C"/>
<path d="M93.6811 39.1613H87.3845V48.4133H93.6811V39.1613Z" fill="#F3BE26"/>
<path d="M93.6811 48.4131H87.3845V54.5779H93.6811V48.4131Z" fill="#AD1B02"/>
<path d="M87.3838 39.1613H84.9418V48.4133H87.3838V39.1613Z" fill="#E88C14"/>
<path d="M87.3838 48.4131H84.9418V54.5779H87.3838V48.4131Z" fill="#D1390D"/>
<path d="M80.2905 48.4133H84.9414V39.1613H72.5265V45.3242H80.2905V48.4133Z" fill="#D85604"/>
<path d="M84.9424 48.4131H80.2915V54.5779H84.9424V48.4131Z" fill="#C22303"/>
<path d="M80.2905 45.3232H72.5265V48.4124H80.2905V45.3232Z" fill="#C14303"/>
<path d="M80.2905 48.4131H72.5265V54.5779H80.2905V48.4131Z" fill="#AD1B02"/>
<path d="M72.5274 54.5782H60.0787V57.6606H72.5274V54.5782Z" fill="#AD1B02"/>
<path d="M158.404 55.324C158.404 55.996 158.242 56.626 157.918 57.214C157.606 57.802 157.108 58.276 156.424 58.636C155.752 58.996 154.9 59.176 153.868 59.176H151.762V64H149.242V51.436H153.868C154.84 51.436 155.668 51.604 156.352 51.94C157.036 52.276 157.546 52.738 157.882 53.326C158.23 53.914 158.404 54.58 158.404 55.324ZM153.76 57.142C154.456 57.142 154.972 56.986 155.308 56.674C155.644 56.35 155.812 55.9 155.812 55.324C155.812 54.1 155.128 53.488 153.76 53.488H151.762V57.142H153.76ZM174.017 54.028L171.101 64H168.383L166.565 57.034L164.747 64H162.011L159.077 54.028H161.633L163.397 61.624L165.305 54.028H167.969L169.841 61.606L171.605 54.028H174.017ZM174.769 57.7C174.769 56.464 175.045 55.36 175.597 54.388C176.161 53.404 176.923 52.642 177.883 52.102C178.855 51.55 179.941 51.274 181.141 51.274C182.545 51.274 183.775 51.634 184.831 52.354C185.887 53.074 186.625 54.07 187.045 55.342H184.147C183.859 54.742 183.451 54.292 182.923 53.992C182.407 53.692 181.807 53.542 181.123 53.542C180.391 53.542 179.737 53.716 179.161 54.064C178.597 54.4 178.153 54.88 177.829 55.504C177.517 56.128 177.361 56.86 177.361 57.7C177.361 58.528 177.517 59.26 177.829 59.896C178.153 60.52 178.597 61.006 179.161 61.354C179.737 61.69 180.391 61.858 181.123 61.858C181.807 61.858 182.407 61.708 182.923 61.408C183.451 61.096 183.859 60.64 184.147 60.04H187.045C186.625 61.324 185.887 62.326 184.831 63.046C183.787 63.754 182.557 64.108 181.141 64.108C179.941 64.108 178.855 63.838 177.883 63.298C176.923 62.746 176.161 61.984 175.597 61.012C175.045 60.04 174.769 58.936 174.769 57.7Z" fill="white"/>
<rect x="1" y="1" width="241" height="114" rx="55" stroke="black" stroke-width="2"/>
</svg>
