<svg width="65" height="46" viewBox="0 0 65 46" fill="none" xmlns="http://www.w3.org/2000/svg">
<g clip-path="url(#clip0_649_7521)">
<path d="M40.9493 1.4428C45.3137 2.86863 48.226 6.18191 50.9163 9.44924C53.7002 12.8302 56.45 16.3811 56.6519 20.513C56.865 24.8762 55.3969 29.3742 52.0506 32.6722C48.7673 35.908 43.7312 37.2149 38.8259 38.0813C34.1831 38.9014 29.465 38.7469 24.9712 37.4552C20.3287 36.1208 15.8053 34.1224 13.0345 30.6679C10.2296 27.1709 9.62463 22.8025 9.81956 18.5649C10.0161 14.2935 10.8269 9.81263 14.141 6.61324C17.385 3.48142 22.4936 2.64292 27.2653 1.72261C31.8279 0.842638 36.58 0.0153725 40.9493 1.4428Z" fill="#FD6F00"/>
<path d="M17.4052 1.77197C18.4089 1.77197 19.3297 1.90132 20.1678 2.16003C21.0058 2.41873 21.7067 2.81397 22.2703 3.34574C22.8474 3.87752 23.2654 4.56021 23.5243 5.3938C23.785 6.21303 23.8466 7.18316 23.7089 8.3042C23.6136 9.08031 23.3689 9.82049 22.9746 10.5247C22.5937 11.229 22.1102 11.8973 21.5241 12.5297C20.9513 13.1621 20.3093 13.7585 19.5982 14.319C18.887 14.8796 18.1602 15.4041 17.4177 15.8928C16.6753 16.3815 15.9439 16.8342 15.2236 17.251C14.5167 17.6678 13.8669 18.0558 13.2741 18.4152H20.0186C20.8215 18.4152 21.419 18.2355 21.811 17.8762C22.2031 17.5169 22.486 16.9564 22.6598 16.1946H23.4828C23.4263 16.6545 23.3561 17.1719 23.2721 17.7468C23.1882 18.3217 23.0766 18.9038 22.9373 19.4931C22.798 20.0823 22.6271 20.6572 22.4244 21.2178C22.2218 21.7783 21.9669 22.2741 21.6597 22.7053C21.3525 23.1365 20.9881 23.4886 20.5665 23.7617C20.1466 24.0204 19.6557 24.1497 19.0937 24.1497H5.16312L5.31401 22.9209C5.74899 22.6478 6.31942 22.2526 7.02528 21.7352C7.74452 21.2178 8.51449 20.6141 9.3352 19.9242C10.1559 19.2344 10.9921 18.4726 11.8439 17.639C12.6956 16.8054 13.4764 15.9503 14.1862 15.0736C14.8978 14.1825 15.4966 13.2842 15.9824 12.3788C16.4834 11.4589 16.7869 10.5678 16.8928 9.70551C16.9687 9.0875 16.9572 8.52698 16.8584 8.02394C16.7729 7.52091 16.5917 7.08974 16.3146 6.73043C16.0394 6.35675 15.6665 6.0693 15.1961 5.86809C14.739 5.66688 14.1693 5.56627 13.4868 5.56627C12.8445 5.56627 12.2442 5.65969 11.686 5.84653C11.1429 6.019 10.6329 6.24896 10.156 6.53641C9.69252 6.82385 9.26298 7.1616 8.8674 7.54966C8.48521 7.93771 8.14228 8.33295 7.83861 8.73537L7.36547 8.17485C7.74281 7.49935 8.25169 6.78792 8.89211 6.04056C9.54592 5.2932 10.3064 4.60333 11.1736 3.97094C12.0408 3.33856 13.0018 2.81397 14.0566 2.39717C15.1114 1.98037 16.2276 1.77197 17.4052 1.77197Z" fill="black"/>
<path d="M30.9595 22.4042H21.3644L21.5466 20.9198L32.5386 8.22134C32.726 8.01696 32.9282 7.80183 33.1453 7.57593C33.3624 7.35004 33.6173 7.14566 33.9103 6.96279C34.2032 6.77993 34.5463 6.62933 34.9395 6.51101C35.334 6.38192 35.8017 6.31738 36.3426 6.31738C36.9242 6.31738 37.4112 6.37117 37.8037 6.47874C38.1975 6.57555 38.5049 6.71539 38.7259 6.89825C38.9604 7.08112 39.1159 7.30163 39.1924 7.5598C39.2689 7.81796 39.2886 8.09764 39.2516 8.39883L37.7142 20.9198H41.7511L41.5688 22.4042H37.532L36.9277 27.3255C36.8247 28.1645 36.4864 28.7723 35.9127 29.1488C35.3391 29.5253 34.4842 29.7135 33.3483 29.7135C32.2123 29.7135 31.4037 29.5253 30.9225 29.1488C30.4413 28.7723 30.2522 28.1645 30.3552 27.3255L30.9595 22.4042ZM31.1417 20.9198L32.3146 11.3677L24.2041 20.9198H31.1417Z" fill="black"/>
<path d="M6.32259 37.5961C6.19012 37.5961 6.08068 37.577 5.99429 37.5386C5.90827 37.4961 5.84047 37.4407 5.79087 37.3726C5.74128 37.3045 5.7072 37.23 5.68863 37.1491C5.67044 37.064 5.66526 36.9767 5.67308 36.8873C5.68313 36.7724 5.69923 36.6617 5.72136 36.5552C5.74776 36.4488 5.75828 36.353 5.75291 36.2679C5.75181 36.1827 5.72572 36.1146 5.67464 36.0635C5.62355 36.0124 5.52749 35.9869 5.38647 35.9869C5.2369 35.9869 5.07506 36.0295 4.90094 36.1146C4.72683 36.1998 4.56339 36.3339 4.41062 36.5169C4.25786 36.7 4.12394 36.9363 4.00887 37.2257C3.89417 37.511 3.81913 37.8558 3.78375 38.2602C3.74464 38.7072 3.74948 39.1159 3.79827 39.4863C3.85171 39.8524 3.9504 40.1653 4.09435 40.425C4.23829 40.6847 4.42787 40.8869 4.66306 41.0317C4.89863 41.1722 5.18308 41.2424 5.51641 41.2424C5.66598 41.2424 5.8085 41.2254 5.94395 41.1913C6.08368 41.1573 6.21598 41.1104 6.34085 41.0508C6.46573 40.9912 6.58493 40.9231 6.69847 40.8465C6.81666 40.7656 6.93094 40.6805 7.04133 40.5911L7.18817 40.7443C7.07834 40.8763 6.93961 41.021 6.77198 41.1785C6.60436 41.3361 6.40543 41.4851 6.17519 41.6256C5.94532 41.7618 5.681 41.8767 5.38221 41.9704C5.08379 42.0598 4.74869 42.1045 4.3769 42.1045C4.00511 42.1045 3.64801 42.0342 3.3056 41.8938C2.96784 41.749 2.67413 41.5404 2.42447 41.2679C2.1748 40.9955 1.98359 40.6656 1.85081 40.2781C1.72269 39.8865 1.68041 39.4416 1.72399 38.9435C1.75789 38.5561 1.83813 38.2006 1.96473 37.8771C2.0917 37.5493 2.25006 37.2534 2.43982 36.9895C2.63385 36.7255 2.85072 36.4935 3.09045 36.2934C3.33445 36.0933 3.58615 35.9273 3.84556 35.7953C4.10534 35.6591 4.36641 35.5569 4.62878 35.4888C4.89542 35.4207 5.14839 35.3866 5.38771 35.3866C5.70394 35.3866 5.97641 35.4228 6.20512 35.4952C6.43383 35.5676 6.61989 35.6634 6.76331 35.7826C6.911 35.9018 7.01641 36.0401 7.07955 36.1976C7.14307 36.3509 7.16756 36.5105 7.15304 36.6766C7.14223 36.8 7.11471 36.9192 7.07047 37.0342C7.03087 37.1449 6.9753 37.2428 6.90374 37.3279C6.83684 37.4088 6.75414 37.4748 6.65566 37.5259C6.55755 37.5727 6.44652 37.5961 6.32259 37.5961ZM8.21201 38.7456C8.2608 38.1879 8.38464 37.7004 8.58353 37.2832C8.7828 36.8618 9.02934 36.5105 9.32315 36.2296C9.62123 35.9486 9.9559 35.7379 10.3272 35.5974C10.6984 35.4569 11.0806 35.3866 11.4738 35.3866C11.8669 35.3866 12.2372 35.4526 12.5847 35.5846C12.9325 35.7123 13.2292 35.9103 13.475 36.1785C13.725 36.4467 13.9132 36.7873 14.0395 37.2002C14.1661 37.6089 14.2048 38.0942 14.1557 38.6562C14.1069 39.2139 13.9825 39.7077 13.7825 40.1377C13.5824 40.5676 13.3328 40.9295 13.0336 41.2232C12.7387 41.517 12.4051 41.7405 12.0327 41.8938C11.6607 42.0428 11.2781 42.1173 10.8849 42.1173C10.4918 42.1173 10.1219 42.047 9.77518 41.9065C9.42888 41.7618 9.13126 41.5489 8.88234 41.2679C8.6377 40.987 8.45262 40.6358 8.3271 40.2143C8.20158 39.7928 8.16322 39.3033 8.21201 38.7456ZM12.1599 38.6817C12.1897 38.3411 12.2055 38.0133 12.2074 37.6983C12.214 37.379 12.1939 37.0959 12.1471 36.849C12.1004 36.6021 12.0192 36.4062 11.9037 36.2615C11.7885 36.1125 11.6262 36.038 11.4168 36.038C11.2074 36.038 11.0317 36.1167 10.8897 36.2743C10.7481 36.4275 10.632 36.6319 10.5412 36.8873C10.4509 37.1385 10.3809 37.4258 10.3312 37.7494C10.2815 38.0729 10.2418 38.405 10.212 38.7456C10.1822 39.0861 10.1636 39.4203 10.1563 39.7481C10.1494 40.0717 10.1689 40.3612 10.215 40.6166C10.261 40.872 10.3412 41.0785 10.4556 41.236C10.5704 41.3893 10.7325 41.4659 10.9419 41.4659C11.1513 41.4659 11.3272 41.385 11.4696 41.2232C11.6119 41.0615 11.7288 40.8486 11.8203 40.5847C11.9118 40.3207 11.9827 40.0227 12.0331 39.6907C12.0878 39.3586 12.1301 39.0223 12.1599 38.6817ZM19.5082 38.835C19.5551 38.2986 19.5669 37.8707 19.5435 37.5514C19.5248 37.2279 19.4821 36.9831 19.4155 36.8171C19.3492 36.6468 19.2691 36.5361 19.1753 36.485C19.0819 36.4296 18.9838 36.402 18.8813 36.402C18.7574 36.402 18.6433 36.436 18.539 36.5041C18.4394 36.568 18.3496 36.6425 18.2695 36.7276C18.1936 36.8128 18.1264 36.8979 18.0676 36.9831C18.0132 37.0682 17.967 37.1321 17.9291 37.1747L17.5559 41.4404C17.551 41.4957 17.5365 41.5638 17.5124 41.6447C17.4886 41.7213 17.4393 41.7958 17.3646 41.8682C17.2945 41.9363 17.1912 41.9938 17.0546 42.0406C16.922 42.0917 16.7424 42.1173 16.5159 42.1173C16.2894 42.1173 16.1123 42.0896 15.9847 42.0342C15.861 41.9832 15.7681 41.9214 15.706 41.8491C15.644 41.7767 15.6078 41.7022 15.5974 41.6256C15.587 41.5489 15.5839 41.4872 15.588 41.4404L16.0193 36.5105C16.0301 36.3871 16.0095 36.2806 15.9574 36.1912C15.9101 36.0976 15.818 36.0508 15.6813 36.0508C15.6086 36.0508 15.5455 36.0635 15.492 36.0891C15.4385 36.1146 15.3798 36.1508 15.3159 36.1976L15.1952 36.038C15.3006 35.9571 15.4165 35.8783 15.5428 35.8017C15.6738 35.7208 15.8124 35.6506 15.9587 35.591C16.1049 35.5314 16.2609 35.4824 16.4267 35.4441C16.5924 35.4058 16.765 35.3866 16.9445 35.3866C17.2223 35.3866 17.434 35.4335 17.5796 35.5271C17.7257 35.6165 17.8294 35.7251 17.8909 35.8528C17.9524 35.9805 17.9834 36.1146 17.9839 36.2551C17.9891 36.3913 17.9876 36.5063 17.9794 36.5999C18.1572 36.3743 18.3544 36.1721 18.5709 35.9933C18.6588 35.9167 18.7551 35.8422 18.8597 35.7698C18.9686 35.6974 19.081 35.6336 19.1969 35.5782C19.3175 35.5186 19.4413 35.4718 19.5682 35.4377C19.6994 35.4037 19.8312 35.3866 19.9637 35.3866C20.2543 35.3866 20.5059 35.442 20.7184 35.5527C20.9352 35.6634 21.1092 35.8485 21.2403 36.1082C21.3714 36.3679 21.4588 36.7127 21.5023 37.1427C21.5463 37.5684 21.5405 38.0985 21.485 38.7328C21.431 39.3501 21.3285 39.8865 21.1776 40.342C21.0266 40.7975 20.8474 41.1849 20.64 41.5042C20.4326 41.8235 20.2069 42.0832 19.9629 42.2833C19.7185 42.4876 19.4759 42.6473 19.2351 42.7622C18.9943 42.8772 18.7651 42.9559 18.5478 42.9985C18.3343 43.0453 18.1504 43.0709 17.9962 43.0751L17.9486 42.8133C18.0794 42.7835 18.201 42.7367 18.3134 42.6728C18.4301 42.609 18.5387 42.5153 18.6393 42.3918C18.7398 42.2684 18.8325 42.113 18.9172 41.9257C19.0024 41.7341 19.0809 41.4957 19.1529 41.2105C19.2291 40.9252 19.2949 40.5889 19.3501 40.2015C19.41 39.8099 19.4627 39.3543 19.5082 38.835ZM25.5115 35.8975C25.4132 35.8975 25.3181 35.9103 25.2261 35.9358C25.1384 35.9614 25.0578 36.0039 24.9842 36.0635C24.9109 36.1189 24.8512 36.1912 24.8049 36.2806C24.759 36.3658 24.7308 36.468 24.7204 36.5872C24.7059 36.7532 24.7512 36.9192 24.8563 37.0853C24.9661 37.247 25.1029 37.4173 25.2667 37.5961C25.4352 37.7707 25.6158 37.9537 25.8084 38.1453C26.0057 38.3326 26.1848 38.5327 26.3457 38.7456C26.5112 38.9542 26.6433 39.1777 26.7421 39.4161C26.8452 39.6545 26.8848 39.9099 26.861 40.1824C26.8341 40.4889 26.7569 40.7613 26.6292 40.9997C26.5058 41.2381 26.3385 41.4404 26.1274 41.6064C25.9206 41.7724 25.6744 41.9001 25.3888 41.9895C25.1078 42.0747 24.7985 42.1173 24.4609 42.1173C24.1661 42.1173 23.9025 42.0768 23.6703 41.9959C23.4384 41.9108 23.2337 41.8086 23.0561 41.6894C22.8831 41.566 22.7364 41.4361 22.6158 41.2999C22.4952 41.1636 22.4035 41.0402 22.3405 40.9295L22.5788 40.7699C22.6288 40.8337 22.6932 40.904 22.7719 40.9806C22.8511 41.053 22.9391 41.1211 23.0361 41.1849C23.1374 41.2488 23.246 41.302 23.3619 41.3446C23.4782 41.3829 23.5983 41.402 23.7222 41.402C24.0299 41.402 24.2884 41.3297 24.4976 41.1849C24.7073 41.0359 24.8247 40.8167 24.85 40.5272C24.8642 40.3654 24.8253 40.1994 24.7334 40.0291C24.6418 39.8546 24.5228 39.6758 24.3765 39.4927C24.2301 39.3096 24.0714 39.1202 23.9005 38.9244C23.7296 38.7285 23.5721 38.5263 23.428 38.3177C23.2838 38.1091 23.168 37.8941 23.0806 37.6727C22.9931 37.4514 22.9598 37.2215 22.9807 36.9831C23.0041 36.7149 23.078 36.4807 23.2024 36.2806C23.331 36.0806 23.4908 35.9145 23.6818 35.7826C23.8771 35.6506 24.093 35.5527 24.3293 35.4888C24.5703 35.4207 24.8148 35.3866 25.0626 35.3866C25.3489 35.3866 25.6074 35.4122 25.838 35.4633C26.0685 35.5143 26.2625 35.5931 26.4198 35.6995C26.5818 35.8017 26.7008 35.9316 26.7768 36.0891C26.857 36.2466 26.888 36.4296 26.8698 36.6382C26.8556 36.8 26.7899 36.9405 26.6726 37.0597C26.5554 37.1789 26.4006 37.2385 26.2083 37.2385C26.0245 37.2385 25.8868 37.2002 25.7953 37.1236C25.7083 37.0427 25.6708 36.9341 25.6827 36.7979C25.6905 36.7085 25.7181 36.6382 25.7653 36.5872C25.8167 36.5361 25.8716 36.4956 25.9297 36.4658C25.9883 36.4318 26.0398 36.4041 26.0844 36.3828C26.1337 36.3573 26.16 36.3253 26.1633 36.287C26.1737 36.1678 26.1178 36.0742 25.9956 36.0061C25.8737 35.9337 25.7124 35.8975 25.5115 35.8975ZM33.9865 40.904C33.9831 40.9423 33.9815 40.9848 33.9817 41.0317C33.9823 41.0742 33.9892 41.1168 34.0026 41.1594C34.0163 41.1977 34.0392 41.2296 34.0711 41.2552C34.1031 41.2807 34.1511 41.2935 34.2152 41.2935C34.2964 41.2935 34.3715 41.2658 34.4404 41.2105C34.5097 41.1509 34.5748 41.0913 34.6355 41.0317L34.7777 41.1658C34.7057 41.2552 34.6158 41.3552 34.5078 41.4659C34.4045 41.5723 34.2802 41.6745 34.1348 41.7724C33.9895 41.8703 33.8265 41.9512 33.6457 42.0151C33.4645 42.0832 33.2628 42.1173 33.0406 42.1173C32.8526 42.1173 32.6903 42.0917 32.5537 42.0406C32.4211 41.9938 32.3091 41.9299 32.2179 41.8491C32.1313 41.7639 32.0694 41.666 32.0321 41.5553C31.9951 41.4404 31.9822 41.319 31.9934 41.1913L32.0185 40.904C31.7848 41.1338 31.5427 41.3361 31.2924 41.5106C31.1831 41.5872 31.0676 41.6617 30.9459 41.7341C30.8242 41.8065 30.6988 41.8725 30.5696 41.9321C30.4409 41.9874 30.3088 42.0321 30.1733 42.0662C30.0378 42.1002 29.9039 42.1173 29.7714 42.1173C29.515 42.1173 29.2988 42.0726 29.1229 41.9832C28.9516 41.8895 28.8169 41.7682 28.7188 41.6192C28.6208 41.4702 28.5543 41.302 28.5194 41.1147C28.4845 40.9274 28.4752 40.7401 28.4916 40.5527L28.8374 36.5999C28.8408 36.5616 28.8422 36.5212 28.8416 36.4786C28.8415 36.4318 28.8345 36.3892 28.8208 36.3509C28.8074 36.3083 28.7847 36.2743 28.7528 36.2487C28.7208 36.2232 28.6728 36.2104 28.6087 36.2104C28.5318 36.2104 28.4565 36.2402 28.3829 36.2998C28.314 36.3551 28.2513 36.4126 28.1948 36.4722L28.0463 36.3381C28.1182 36.2487 28.2058 36.1508 28.3091 36.0444C28.4171 35.9337 28.5438 35.8294 28.6891 35.7315C28.8344 35.6336 28.9974 35.5527 29.1782 35.4888C29.3637 35.4207 29.5654 35.3866 29.7833 35.3866C29.9714 35.3866 30.1337 35.4122 30.2702 35.4633C30.4071 35.5101 30.5189 35.5761 30.6055 35.6612C30.6924 35.7421 30.7543 35.84 30.7913 35.955C30.8286 36.0657 30.8417 36.1849 30.8305 36.3126L30.4573 40.5783C30.4521 40.6379 30.4552 40.6996 30.4668 40.7635C30.4829 40.8231 30.5058 40.8784 30.5356 40.9295C30.5695 40.9806 30.6128 41.0232 30.6654 41.0572C30.7184 41.087 30.7833 41.1019 30.8602 41.1019C30.9841 41.1019 31.1109 41.07 31.2404 41.0061C31.3699 40.9423 31.4897 40.8678 31.5997 40.7826C31.7101 40.6932 31.8053 40.606 31.8854 40.5208C31.9698 40.4357 32.0309 40.3718 32.0688 40.3292L32.3951 36.5999C32.3984 36.5616 32.3999 36.5212 32.3993 36.4786C32.3991 36.4318 32.3922 36.3892 32.3784 36.3509C32.3651 36.3083 32.3424 36.2743 32.3104 36.2487C32.2785 36.2232 32.2305 36.2104 32.1664 36.2104C32.0894 36.2104 32.0142 36.2402 31.9406 36.2998C31.8716 36.3551 31.8089 36.4126 31.7524 36.4722L31.6039 36.3381C31.6758 36.2487 31.7635 36.1508 31.8668 36.0444C31.9748 35.9337 32.1014 35.8294 32.2467 35.7315C32.392 35.6336 32.5551 35.5527 32.7359 35.4888C32.9213 35.4207 33.123 35.3866 33.341 35.3866C33.529 35.3866 33.6913 35.4122 33.8279 35.4633C33.9648 35.5101 34.0765 35.5761 34.1631 35.6612C34.25 35.7421 34.312 35.84 34.3489 35.955C34.3863 36.0657 34.3993 36.1849 34.3882 36.3126L33.9865 40.904ZM38.0053 41.4531C38.0005 41.5085 37.984 41.5745 37.9559 41.6511C37.9321 41.7277 37.8809 41.8001 37.8023 41.8682C37.728 41.9363 37.6204 41.9938 37.4795 42.0406C37.3426 42.0917 37.1609 42.1173 36.9344 42.1173C36.7079 42.1173 36.533 42.0896 36.4096 42.0342C36.2859 41.9832 36.1951 41.9214 36.1374 41.8491C36.0839 41.7767 36.0519 41.7022 36.0415 41.6256C36.0354 41.5489 36.0344 41.4872 36.0385 41.4404L36.7592 33.2027C36.77 33.0792 36.7494 32.9728 36.6974 32.8834C36.65 32.7897 36.558 32.7429 36.4212 32.7429C36.3486 32.7429 36.2834 32.7557 36.2256 32.7812C36.1724 32.8025 36.1139 32.8366 36.05 32.8834L35.9352 32.7301C36.0405 32.6493 36.1564 32.5705 36.2828 32.4939C36.4095 32.413 36.546 32.3427 36.6922 32.2831C36.8427 32.2235 37.0009 32.1746 37.1666 32.1363C37.3323 32.098 37.505 32.0788 37.6844 32.0788C37.9622 32.0788 38.1747 32.1171 38.3218 32.1937C38.4693 32.2661 38.5746 32.3576 38.6375 32.4683C38.7009 32.5748 38.7335 32.6897 38.7356 32.8132C38.7422 32.9324 38.7415 33.0388 38.7333 33.1324L38.0053 41.4531ZM42.5805 35.9358L42.1677 40.6549C42.1479 40.8805 42.1769 41.0381 42.2545 41.1275C42.3325 41.2126 42.4463 41.2552 42.5959 41.2552C42.7113 41.2552 42.8166 41.2232 42.912 41.1594C43.0073 41.0955 43.0906 41.0232 43.1617 40.9423C43.2465 40.8529 43.3218 40.7486 43.3878 40.6294L43.5787 40.7188C43.5027 40.855 43.4127 41.004 43.3088 41.1658C43.2092 41.3275 43.0806 41.4787 42.923 41.6192C42.7658 41.7554 42.572 41.8703 42.3416 41.964C42.1154 42.0577 41.8357 42.1045 41.5024 42.1045C41.3143 42.1045 41.1351 42.0768 40.9648 42.0215C40.7987 41.9661 40.6525 41.8789 40.5261 41.7597C40.4041 41.6405 40.3103 41.4915 40.2447 41.3126C40.1792 41.1338 40.1574 40.9189 40.1794 40.6677L40.5934 35.9358H39.8754L39.9157 35.476C40.0353 35.476 40.2046 35.4462 40.4235 35.3866C40.6427 35.3228 40.8698 35.2185 41.1047 35.0737C41.3438 34.929 41.5702 34.7353 41.7837 34.4926C41.9973 34.25 42.1603 33.9498 42.2727 33.5922H42.7856L42.6207 35.476H43.6656C44.0075 35.476 44.1835 35.4186 44.1935 35.3036C44.1972 35.261 44.1783 35.2334 44.1367 35.2206C44.0954 35.2036 44.048 35.1844 43.9943 35.1631C43.9452 35.1376 43.9012 35.1035 43.8622 35.061C43.8232 35.0184 43.8079 34.9481 43.8165 34.8502C43.8269 34.731 43.8715 34.6374 43.9501 34.5693C44.0329 34.5011 44.1342 34.4671 44.2539 34.4671C44.3308 34.4671 44.3955 34.4841 44.4481 34.5182C44.5053 34.548 44.5508 34.5905 44.5844 34.6459C44.6184 34.697 44.6409 34.7566 44.6521 34.8247C44.6675 34.8928 44.6722 34.9609 44.6662 35.029C44.642 35.3057 44.5415 35.5271 44.3646 35.6932C44.1923 35.8549 43.9288 35.9358 43.5741 35.9358H42.5805ZM47.012 41.4404C47.0071 41.4957 46.9905 41.5638 46.962 41.6447C46.9382 41.7213 46.8868 41.7958 46.8079 41.8682C46.7335 41.9363 46.6281 41.9938 46.4915 42.0406C46.3546 42.0917 46.1728 42.1173 45.9463 42.1173C45.7198 42.1173 45.5449 42.0896 45.4216 42.0342C45.2978 41.9832 45.2071 41.9214 45.1493 41.8491C45.0915 41.7767 45.0575 41.7022 45.0471 41.6256C45.0409 41.5489 45.0399 41.4872 45.044 41.4404L45.4753 36.5105C45.4861 36.3871 45.4655 36.2806 45.4135 36.1912C45.3662 36.0976 45.2741 36.0508 45.1374 36.0508C45.0647 36.0508 45.0016 36.0635 44.9481 36.0891C44.8946 36.1146 44.8359 36.1508 44.772 36.1976L44.6513 36.038C44.7567 35.9571 44.8725 35.8783 44.9989 35.8017C45.1299 35.7208 45.2685 35.6506 45.4148 35.591C45.561 35.5314 45.717 35.4824 45.8827 35.4441C46.0485 35.4058 46.2211 35.3866 46.4006 35.3866C46.6784 35.3866 46.8908 35.4249 47.038 35.5016C47.1855 35.5739 47.2907 35.6655 47.3537 35.7762C47.417 35.8826 47.4497 35.9975 47.4517 36.121C47.458 36.2445 47.457 36.353 47.4489 36.4467L47.012 41.4404ZM45.5023 33.9307C45.5128 33.8115 45.5483 33.6987 45.6089 33.5922C45.6741 33.4815 45.7573 33.3858 45.8584 33.3049C45.9637 33.224 46.0804 33.1601 46.2085 33.1133C46.3408 33.0665 46.4817 33.043 46.6313 33.043C46.7766 33.043 46.9091 33.0665 47.029 33.1133C47.1531 33.1601 47.2586 33.224 47.3455 33.3049C47.4325 33.3858 47.4967 33.4815 47.5383 33.5922C47.5846 33.6987 47.6025 33.8115 47.5921 33.9307C47.5813 34.0541 47.5434 34.1691 47.4786 34.2755C47.418 34.3819 47.3371 34.4756 47.236 34.5565C47.1353 34.6331 47.0188 34.6948 46.8865 34.7417C46.7585 34.7885 46.6218 34.8119 46.4765 34.8119C46.3269 34.8119 46.1901 34.7885 46.066 34.7417C45.9462 34.6948 45.8404 34.6331 45.7489 34.5565C45.6619 34.4756 45.5953 34.3819 45.5491 34.2755C45.5071 34.1691 45.4915 34.0541 45.5023 33.9307ZM53.0247 38.835C53.0716 38.2986 53.0834 37.8707 53.0601 37.5514C53.0414 37.2279 52.9987 36.9831 52.932 36.8171C52.8657 36.6468 52.7857 36.5361 52.6919 36.485C52.5984 36.4296 52.5004 36.402 52.3978 36.402C52.2739 36.402 52.1598 36.436 52.0556 36.5041C51.956 36.568 51.8661 36.6425 51.786 36.7276C51.7102 36.8128 51.6429 36.8979 51.5842 36.9831C51.5297 37.0682 51.4835 37.1321 51.4456 37.1747L51.0724 41.4404C51.0676 41.4957 51.0531 41.5638 51.0289 41.6447C51.0051 41.7213 50.9559 41.7958 50.8812 41.8682C50.8111 41.9363 50.7078 41.9938 50.5712 42.0406C50.4385 42.0917 50.2589 42.1173 50.0325 42.1173C49.806 42.1173 49.6289 42.0896 49.5013 42.0342C49.3775 41.9832 49.2846 41.9214 49.2226 41.8491C49.1605 41.7767 49.1243 41.7022 49.1139 41.6256C49.1036 41.5489 49.1004 41.4872 49.1045 41.4404L49.5358 36.5105C49.5466 36.3871 49.526 36.2806 49.474 36.1912C49.4266 36.0976 49.3346 36.0508 49.1978 36.0508C49.1252 36.0508 49.0621 36.0635 49.0086 36.0891C48.9551 36.1146 48.8963 36.1508 48.8324 36.1976L48.7118 36.038C48.8171 35.9571 48.933 35.8783 49.0594 35.8017C49.1904 35.7208 49.329 35.6506 49.4752 35.591C49.6215 35.5314 49.7775 35.4824 49.9432 35.4441C50.1089 35.4058 50.2816 35.3866 50.461 35.3866C50.7388 35.3866 50.9505 35.4335 51.0962 35.5271C51.2422 35.6165 51.346 35.7251 51.4074 35.8528C51.4689 35.9805 51.4999 36.1146 51.5004 36.2551C51.5056 36.3913 51.5041 36.5063 51.4959 36.5999C51.6738 36.3743 51.8709 36.1721 52.0874 35.9933C52.1753 35.9167 52.2716 35.8422 52.3762 35.7698C52.4851 35.6974 52.5975 35.6336 52.7135 35.5782C52.8341 35.5186 52.9578 35.4718 53.0848 35.4377C53.2159 35.4037 53.3478 35.3866 53.4802 35.3866C53.7708 35.3866 54.0224 35.442 54.2349 35.5527C54.4518 35.6634 54.6257 35.8485 54.7568 36.1082C54.888 36.3679 54.9753 36.7127 55.0189 37.1427C55.0628 37.5684 55.0571 38.0985 55.0016 38.7328C54.9476 39.3501 54.8451 39.8865 54.6941 40.342C54.5432 40.7975 54.364 41.1849 54.1566 41.5042C53.9491 41.8235 53.7234 42.0832 53.4794 42.2833C53.2351 42.4876 52.9925 42.6473 52.7516 42.7622C52.5108 42.8772 52.2817 42.9559 52.0643 42.9985C51.8508 43.0453 51.6669 43.0709 51.5127 43.0751L51.4651 42.8133C51.5959 42.7835 51.7176 42.7367 51.83 42.6728C51.9467 42.609 52.0553 42.5153 52.1558 42.3918C52.2564 42.2684 52.349 42.113 52.4338 41.9257C52.5189 41.7341 52.5975 41.4957 52.6694 41.2105C52.7457 40.9252 52.8114 40.5889 52.8667 40.2015C52.9266 39.8099 52.9793 39.3543 53.0247 38.835ZM56.5109 37.9984C56.5489 37.5642 56.6569 37.1853 56.8347 36.8618C57.0173 36.5339 57.2462 36.2615 57.5216 36.0444C57.7974 35.823 58.1087 35.6591 58.4557 35.5527C58.8029 35.442 59.1625 35.3866 59.5343 35.3866C59.9061 35.3866 60.2543 35.4356 60.5791 35.5335C60.9039 35.6314 61.1855 35.7826 61.424 35.9869C61.516 35.8634 61.5936 35.7336 61.6568 35.5974C61.72 35.4611 61.7576 35.3249 61.7695 35.1887C61.7852 35.0099 61.7485 34.8673 61.6595 34.7608C61.5748 34.6544 61.4577 34.6012 61.3081 34.6012L61.3243 34.416C61.4209 34.3862 61.5065 34.3606 61.581 34.3394C61.6559 34.3138 61.7238 34.2947 61.7848 34.2819C61.8457 34.2691 61.9063 34.2606 61.9665 34.2563C62.027 34.2478 62.0937 34.2436 62.1663 34.2436C62.3672 34.2436 62.5156 34.3053 62.6116 34.4288C62.7077 34.5522 62.7462 34.7225 62.7272 34.9396C62.716 35.0673 62.6749 35.1951 62.6039 35.3228C62.5333 35.4462 62.4481 35.5654 62.3483 35.6804C62.2485 35.7953 62.1386 35.9039 62.0185 36.0061C61.9027 36.1082 61.7924 36.1976 61.6874 36.2743C61.849 36.4786 61.967 36.717 62.0415 36.9895C62.1159 37.2619 62.1379 37.5727 62.1073 37.9218C62.069 38.3603 61.9581 38.7477 61.7749 39.084C61.5959 39.4203 61.3681 39.7034 61.0916 39.9333C60.8151 40.1632 60.5028 40.3378 60.1548 40.457C59.8071 40.5719 59.4474 40.6294 59.0756 40.6294C58.8577 40.6294 58.6457 40.6102 58.4396 40.5719C58.2336 40.5336 58.0418 40.4782 57.8644 40.4059C57.7916 40.457 57.7261 40.5208 57.6682 40.5974C57.6144 40.6741 57.5835 40.7592 57.5753 40.8529C57.5615 41.0104 57.6196 41.1275 57.7497 41.2041C57.8797 41.2807 58.0565 41.3361 58.28 41.3701C58.5035 41.4042 58.7581 41.4255 59.0437 41.434C59.3292 41.4425 59.6207 41.4574 59.9179 41.4787C60.2199 41.4957 60.5116 41.5319 60.7931 41.5872C61.0749 41.6383 61.3237 41.7256 61.5394 41.8491C61.7554 41.9683 61.9227 42.1322 62.0412 42.3408C62.1597 42.5494 62.2044 42.8197 62.1754 43.1518C62.1542 43.3944 62.0839 43.6115 61.9646 43.8031C61.8449 43.9989 61.6911 44.1692 61.5032 44.314C61.3192 44.463 61.1074 44.5886 60.8677 44.6907C60.6319 44.7972 60.383 44.8823 60.121 44.9462C59.8629 45.0143 59.6001 45.0632 59.3325 45.093C59.0692 45.1228 58.8179 45.1377 58.5786 45.1377C58.1427 45.1377 57.7516 45.1143 57.4053 45.0675C57.0629 45.0249 56.7739 44.9568 56.5385 44.8631C56.3032 44.7695 56.1257 44.6482 56.0063 44.4992C55.8869 44.3502 55.8363 44.1714 55.8545 43.9628C55.8675 43.8138 55.9138 43.6754 55.9934 43.5477C56.0726 43.4242 56.1724 43.3093 56.2928 43.2028C56.4171 43.1007 56.5535 43.007 56.702 42.9219C56.8501 42.841 56.9999 42.7644 57.1516 42.692C56.9457 42.6026 56.7782 42.4663 56.6489 42.2833C56.5235 42.1045 56.4738 41.8661 56.4999 41.5681C56.5137 41.4106 56.5541 41.2658 56.6212 41.1338C56.6887 40.9976 56.77 40.8742 56.8652 40.7635C56.965 40.6485 57.0701 40.5464 57.1804 40.457C57.2955 40.3633 57.4049 40.2845 57.5088 40.2207C57.3425 40.1185 57.1909 39.995 57.054 39.8503C56.9218 39.7013 56.8102 39.5353 56.7194 39.3522C56.6332 39.1649 56.5701 38.9584 56.53 38.7328C56.4942 38.5072 56.4878 38.2624 56.5109 37.9984ZM60.1756 37.9473C60.1972 37.7004 60.2054 37.4599 60.2003 37.2257C60.1951 36.9916 60.1685 36.783 60.1204 36.5999C60.0723 36.4169 59.9976 36.27 59.8962 36.1593C59.7951 36.0444 59.657 35.9869 59.4818 35.9869C59.3066 35.9869 59.1582 36.0465 59.0366 36.1657C58.9155 36.2806 58.8145 36.4339 58.7336 36.6255C58.6531 36.8128 58.5894 37.0278 58.5426 37.2704C58.4961 37.5088 58.462 37.7515 58.4404 37.9984C58.4184 38.2496 58.4096 38.4965 58.4141 38.7392C58.4185 38.9818 58.4443 39.199 58.4917 39.3905C58.539 39.5821 58.613 39.7375 58.7137 39.8567C58.8148 39.9716 58.9529 40.0291 59.1281 40.0291C59.3033 40.0291 59.4519 39.9674 59.5738 39.8439C59.6957 39.7205 59.7973 39.5608 59.8785 39.365C59.9601 39.1649 60.0246 38.9414 60.0718 38.6945C60.119 38.4476 60.1536 38.1985 60.1756 37.9473ZM60.6499 43.6626C60.6619 43.5264 60.6183 43.4136 60.5193 43.3242C60.4199 43.239 60.285 43.1688 60.1147 43.1134C59.9482 43.0624 59.7552 43.0219 59.5355 42.9921C59.3198 42.9666 59.0995 42.9453 58.8745 42.9283C58.6491 42.9155 58.4301 42.9027 58.2176 42.8899C58.005 42.8772 57.8206 42.8601 57.6644 42.8389C57.569 42.9027 57.4755 42.9708 57.3837 43.0432C57.2958 43.1198 57.2162 43.1986 57.145 43.2795C57.0778 43.3646 57.021 43.4519 56.9747 43.5413C56.9281 43.6349 56.9006 43.7286 56.8924 43.8223C56.8783 43.984 56.9136 44.1181 56.9983 44.2246C57.0826 44.3353 57.201 44.4225 57.3536 44.4864C57.5104 44.5502 57.6923 44.5949 57.8995 44.6205C58.1109 44.646 58.3342 44.6588 58.5692 44.6588C58.8812 44.6588 59.1635 44.6311 59.4162 44.5758C59.6686 44.5247 59.8843 44.4523 60.0634 44.3587C60.2422 44.2693 60.3816 44.165 60.4818 44.0458C60.582 43.9266 60.638 43.7989 60.6499 43.6626Z" fill="white"/>
</g>
<defs>
<clipPath id="clip0_649_7521">
<rect width="63.5688" height="45.329" fill="white" transform="translate(0.715576 0.670898)"/>
</clipPath>
</defs>
</svg>
