<svg width="36" height="34" viewBox="0 0 36 34" fill="none" xmlns="http://www.w3.org/2000/svg">
<g clip-path="url(#clip0_650_7523)">
<path d="M33.1665 13.8561C31.9817 14.4715 31.9133 14.6309 32.2551 16.4309C33.3944 22.5148 27.8118 32.5407 15.9631 29.7608C13.0009 29.0773 12.4084 29.1228 10.0615 30.3988C7.64615 31.6976 7.66901 31.6976 7.98802 29.4646C8.37539 26.6164 8.32972 26.2746 7.32715 24.9302C2.45093 18.4818 4.22829 9.13947 11.1325 4.83293C20.2013 -0.840789 27.3332 1.82517 30.5689 8.34197C31.4803 10.1876 32.1183 10.4838 34.1919 10.0737C35.1261 9.8914 35.1261 9.36733 34.1919 7.84068C27.06 -3.78019 9.10447 -1.41045 3.13454 8.1141C-0.28336 13.5599 -0.374465 20.8742 4.77517 26.6619C5.66383 27.6644 5.75496 28.7354 5.20809 31.5608C4.66122 34.4092 5.80055 34.6371 10.4717 32.6318L13.3883 31.3786L15.5529 31.9711C19.9277 33.1787 24.485 32.609 28.7915 30.2849C30.5917 29.3278 33.8046 25.7048 35.354 20.0767C36.6527 15.269 35.7185 12.5574 33.1665 13.8561Z" fill="white"/>
<path d="M18.5838 13.6052L17.9003 12.238C15.6671 7.77201 14.2316 6.7922 12.0898 8.29608C6.41606 12.3065 13.8215 25.3856 21.7965 25.4768C26.4905 25.5222 30.797 20.8967 27.174 19.6891C26.5816 19.484 25.2829 18.7548 24.2803 18.0485C22.2068 16.5673 21.1129 16.4534 20.1104 17.5927C19.4495 18.3675 19.2901 18.3447 18.4698 17.2965C17.6041 16.2257 17.6041 15.7699 18.3559 14.9724C18.7432 14.6077 18.8117 14.061 18.5838 13.6052ZM21.8193 19.0056L21.9332 18.2991C26.2398 21.3525 27.1968 21.7855 25.1233 22.8791C23.9385 23.5172 21.9561 24.1096 20.9307 23.5626C19.199 22.674 13.5936 17.6384 13.024 16.4991C11.6796 13.8786 12.6367 9.07081 14.0948 10.7114C14.6646 11.3494 16.2369 13.6509 16.7381 14.3572C15.9178 16.0889 15.5988 16.4991 16.9204 18.1853C19.1079 20.9652 21.4776 21.1702 21.8193 19.0056Z" fill="white"/>
</g>
<defs>
<clipPath id="clip0_650_7523">
<rect width="35.2211" height="33.932" fill="white" transform="translate(0.715576 0.0170898)"/>
</clipPath>
</defs>
</svg>
