<svg width="33" height="32" viewBox="0 0 33 32" fill="none" xmlns="http://www.w3.org/2000/svg">
<g clip-path="url(#clip0_650_7522)">
<path fill-rule="evenodd" clip-rule="evenodd" d="M11.8616 2.09262C9.21351 4.33821 8.59911 4.6348 5.99337 4.9102C2.6038 5.27034 2.66733 5.24916 2.79444 5.92707C2.92155 6.64736 3.11227 9.3802 3.17583 10.1005C0.633646 13.0028 0.57005 12.8757 0.803083 14.5069C0.887823 15.1637 0.718365 21.2649 1.14206 26.9212C1.24799 28.3406 1.71403 28.9974 3.02749 29.6753C5.56967 30.9464 7.66695 30.2049 5.65439 28.7432C3.85368 27.4297 3.68426 26.8577 3.4936 21.6462C3.43005 19.9514 3.28173 17.6423 3.15462 16.4983C2.64619 11.9648 4.1927 13.8502 4.12915 14.2315C4.00204 15.2484 4.51045 16.0534 6.75605 17.2186C8.11188 17.9177 13.175 21.159 15.1876 21.8369C18.1746 22.8749 19.4034 21.0107 26.4367 16.2017C27.729 15.3331 28.5764 14.5493 29.0636 13.7866C30.2924 11.9012 30.4195 21.4556 29.212 25.5231C28.407 28.2347 28.1739 28.3194 20.4415 28.5101C12.5183 28.7008 8.74738 29.2092 8.93804 29.7812C9.40411 31.1794 26.9664 31.4972 29.7416 30.1837C30.9703 29.5905 32.3049 26.5823 32.5591 25.1205C32.9405 22.9597 32.9617 19.6337 32.6228 15.206C32.3897 12.0283 32.0719 11.3292 30.3135 9.76152C29.6992 9.21072 29.6568 8.17266 30.2076 6.09655C30.4195 5.29152 30.6949 3.99926 28.7671 3.99926C26.8393 3.99926 23.7462 4.12636 23.2166 4.12636C22.454 3.66029 19.2975 1.85958 18.7467 1.30878C18.2594 0.927451 15.2936 -0.809704 11.8616 2.09262ZM18.7467 3.27897C19.467 3.74503 20.0601 4.14755 20.0601 4.2111C20.0601 4.25347 18.2382 4.29584 16.0138 4.29584C11.6921 4.29584 11.6074 4.25347 13.1115 3.32134C15.2724 1.94432 16.6494 1.94432 18.7467 3.27897ZM27.7926 12.2613C27.6231 13.1087 26.7121 13.4901 26.0978 13.0028C25.6529 12.6639 25.2293 12.5791 23.5133 12.5791C22.9837 12.5791 13.8741 12.5367 9.67951 12.8333C5.99335 13.0875 7.96356 14.5493 9.91257 14.8035C11.5438 15.0154 24.6784 14.5069 24.4242 14.9095C24.2971 15.1213 20.1448 18.1719 17.412 20.3963C16.84 20.0997 6.18403 14.6764 5.78152 14.6764C5.42138 14.6764 5.1672 6.4567 5.18839 6.43551C5.25194 6.35077 17.5603 6.01182 27.6654 6.01182C28.0044 9.14717 28.1951 10.2276 27.7926 12.2613ZM17.4544 9.06243C16.1197 10.3971 17.5814 10.9055 22.4751 10.8208C26.8604 10.736 27.1994 10.6513 26.352 9.67679C25.6106 8.78703 18.217 8.27859 17.4544 9.06243Z" fill="white"/>
</g>
<defs>
<clipPath id="clip0_650_7522">
<rect width="32.1464" height="30.5718" fill="white" transform="translate(0.715576 0.445312)"/>
</clipPath>
</defs>
</svg>
