<svg width="35" height="36" viewBox="0 0 35 36" fill="none" xmlns="http://www.w3.org/2000/svg">
<g clip-path="url(#clip0_686_7744)">
<g clip-path="url(#clip1_686_7744)">
<mask id="mask0_686_7744" style="mask-type:luminance" maskUnits="userSpaceOnUse" x="0" y="0" width="35" height="36">
<path d="M35 0.589966H0V35.59H35V0.589966Z" fill="white"/>
</mask>
<g mask="url(#mask0_686_7744)">
<path d="M17.6802 29.456C24.0571 29.456 29.2266 24.2865 29.2266 17.9096C29.2266 11.5327 24.0571 6.36316 17.6802 6.36316C11.3033 6.36316 6.13379 11.5327 6.13379 17.9096C6.13379 24.2865 11.3033 29.456 17.6802 29.456Z" fill="#FE7000"/>
<path d="M34.3156 18.09C34.3145 22.1168 32.8676 26.0093 30.2382 29.0591C27.6089 32.109 23.9718 34.1134 19.9891 34.7075C16.0064 35.3017 11.9427 34.4461 8.53776 32.2965C5.13273 30.1469 2.61273 26.8462 1.43632 22.9951C0.259912 19.144 0.505357 14.9985 2.12794 11.3132C3.75054 7.62772 6.64238 4.64742 10.2772 2.91461C13.9121 1.18179 18.0483 0.811674 21.9331 1.87162C25.8179 2.93156 29.193 5.35109 31.4441 8.68986L16.912 24.8759L8.50893 18.09" stroke="black" stroke-width="2" stroke-linecap="round" stroke-linejoin="round"/>
</g>
</g>
</g>
<defs>
<clipPath id="clip0_686_7744">
<rect width="35" height="35" fill="white" transform="translate(0 0.589966)"/>
</clipPath>
<clipPath id="clip1_686_7744">
<rect width="35" height="35" fill="white" transform="translate(0 0.589966)"/>
</clipPath>
</defs>
</svg>
