<svg width="35" height="36" viewBox="0 0 35 36" fill="none" xmlns="http://www.w3.org/2000/svg">
<g clip-path="url(#clip0_686_7746)">
<g clip-path="url(#clip1_686_7746)">
<mask id="mask0_686_7746" style="mask-type:luminance" maskUnits="userSpaceOnUse" x="0" y="0" width="35" height="36">
<path d="M35 0.780029H0V35.78H35V0.780029Z" fill="white"/>
</mask>
<g mask="url(#mask0_686_7746)">
<path d="M17.6802 29.646C24.0571 29.646 29.2266 24.4765 29.2266 18.0996C29.2266 11.7227 24.0571 6.55322 17.6802 6.55322C11.3033 6.55322 6.13379 11.7227 6.13379 18.0996C6.13379 24.4765 11.3033 29.646 17.6802 29.646Z" fill="#FE7000"/>
<path d="M34.3156 18.28C34.3145 22.3068 32.8676 26.1993 30.2382 29.2491C27.6089 32.299 23.9718 34.3034 19.9891 34.8975C16.0064 35.4917 11.9427 34.6361 8.53776 32.4865C5.13273 30.3369 2.61273 27.0362 1.43632 23.1851C0.259912 19.334 0.505357 15.1885 2.12794 11.5032C3.75054 7.81779 6.64238 4.83748 10.2772 3.10467C13.9121 1.37186 18.0483 1.00174 21.9331 2.06168C25.8179 3.12162 29.193 5.54115 31.4441 8.87992L16.912 25.0659L8.50893 18.28" stroke="black" stroke-width="2" stroke-linecap="round" stroke-linejoin="round"/>
</g>
</g>
</g>
<defs>
<clipPath id="clip0_686_7746">
<rect width="35" height="35" fill="white" transform="translate(0 0.780029)"/>
</clipPath>
<clipPath id="clip1_686_7746">
<rect width="35" height="35" fill="white" transform="translate(0 0.780029)"/>
</clipPath>
</defs>
</svg>
