<svg width="35" height="36" viewBox="0 0 35 36" fill="none" xmlns="http://www.w3.org/2000/svg">
<g clip-path="url(#clip0_686_7745)">
<g clip-path="url(#clip1_686_7745)">
<mask id="mask0_686_7745" style="mask-type:luminance" maskUnits="userSpaceOnUse" x="0" y="0" width="35" height="36">
<path d="M35 0.190002H0V35.19H35V0.190002Z" fill="white"/>
</mask>
<g mask="url(#mask0_686_7745)">
<path d="M17.6802 29.056C24.0571 29.056 29.2266 23.8865 29.2266 17.5096C29.2266 11.1327 24.0571 5.9632 17.6802 5.9632C11.3033 5.9632 6.13379 11.1327 6.13379 17.5096C6.13379 23.8865 11.3033 29.056 17.6802 29.056Z" fill="#FE7000"/>
<path d="M34.3156 17.69C34.3145 21.7168 32.8676 25.6093 30.2382 28.6591C27.6089 31.709 23.9718 33.7134 19.9891 34.3075C16.0064 34.9017 11.9427 34.0461 8.53776 31.8965C5.13273 29.7469 2.61273 26.4462 1.43632 22.5951C0.259912 18.744 0.505357 14.5985 2.12794 10.9132C3.75054 7.22776 6.64238 4.24745 10.2772 2.51464C13.9121 0.781831 18.0483 0.411711 21.9331 1.47165C25.8179 2.53159 29.193 4.95112 31.4441 8.28989L16.912 24.4759L8.50893 17.69" stroke="black" stroke-width="2" stroke-linecap="round" stroke-linejoin="round"/>
</g>
</g>
</g>
<defs>
<clipPath id="clip0_686_7745">
<rect width="35" height="35" fill="white" transform="translate(0 0.190002)"/>
</clipPath>
<clipPath id="clip1_686_7745">
<rect width="35" height="35" fill="white" transform="translate(0 0.190002)"/>
</clipPath>
</defs>
</svg>
