<svg width="44" height="46" viewBox="0 0 44 46" fill="none" xmlns="http://www.w3.org/2000/svg">
<g clip-path="url(#clip0_788_7648)">
<path fill-rule="evenodd" clip-rule="evenodd" d="M21.342 55.6797C17.7049 55.0479 14.8132 52.8311 11.3043 51.6838C6.59622 50.1444 -0.119114 52.0744 -2.67017 47.8284C-5.15679 43.6896 -0.0864016 38.8735 0.750754 34.1183C1.6054 29.2638 -1.02224 23.4421 2.26907 19.7728C5.56195 16.1017 11.5606 17.788 16.3714 16.7036C21.9041 15.4564 27.2349 10.9422 32.5393 12.9492C37.9096 14.9812 41.6728 20.8583 42.4032 26.5534C43.081 31.8379 37.1749 35.5999 36.1142 40.821C35.0783 45.9198 40.08 52.3553 36.4117 56.0451C32.7802 59.6978 26.4168 56.5612 21.342 55.6797Z" fill="#FFC900"/>
<path d="M27.1494 49.4999C24.7654 47.5494 20.2576 39.3572 21.2979 22.1927C22.3381 5.0282 29.5327 -3.59741 33 -5.76465" stroke="black" stroke-width="0.520137"/>
<path d="M16.408 34.176C14.6122 31.5256 12.5533 22.0277 18.6836 5.23933C24.8139 -11.5491 34.5402 -18.0056 38.6371 -19.1353" stroke="black" stroke-width="0.540603"/>
<path d="M12.5938 33.7004V28.8896L28.8649 29.432V33.7004C28.8649 33.7433 28.8411 33.7815 28.8017 33.7986C28.2201 34.0504 23.7536 35.9405 20.7293 35.9405C17.7051 35.9405 13.2386 34.0504 12.657 33.7986C12.6176 33.7815 12.5938 33.7433 12.5938 33.7004Z" fill="#91A6E5" stroke="black" stroke-width="0.867797"/>
<path d="M20.694 20.7659L5.28829 26.0782C5.19181 26.1115 5.19049 26.2475 5.28631 26.2826L21.2332 32.1298C21.2577 32.1388 21.2846 32.1386 21.309 32.1294L36.7152 26.2857C36.8106 26.2495 36.8078 26.1136 36.7111 26.0813L20.7637 20.7655C20.7411 20.758 20.7166 20.7581 20.694 20.7659Z" fill="#91A6E5" stroke="black" stroke-width="0.867797"/>
<path d="M24.6646 24.6811C24.4372 24.6054 24.1915 24.7282 24.1157 24.9556C24.0399 25.1829 24.1628 25.4286 24.3901 25.5044L24.6646 24.6811ZM32.6629 27.8046H33.0968V27.4919L32.8001 27.393L32.6629 27.8046ZM24.3901 25.5044L32.5257 28.2163L32.8001 27.393L24.6646 24.6811L24.3901 25.5044ZM32.229 27.8046V35.9402H33.0968V27.8046H32.229Z" fill="black"/>
<path d="M34.0724 38.6521C34.0724 39.6783 33.8938 40.5971 33.6134 41.2512C33.4731 41.5787 33.3115 41.8298 33.1432 41.9959C32.9758 42.1611 32.8136 42.2317 32.6623 42.2317C32.511 42.2317 32.3487 42.1611 32.1813 41.9959C32.013 41.8298 31.8515 41.5787 31.7111 41.2512C31.4308 40.5971 31.2521 39.6783 31.2521 38.6521C31.2521 37.6258 31.4308 36.7071 31.7111 36.0529C31.8515 35.7255 32.013 35.4744 32.1813 35.3082C32.3487 35.143 32.511 35.0724 32.6623 35.0724C32.8136 35.0724 32.9758 35.143 33.1432 35.3082C33.3115 35.4744 33.4731 35.7255 33.6134 36.0529C33.8938 36.7071 34.0724 37.6258 34.0724 38.6521Z" fill="#F66C5A" stroke="black" stroke-width="0.433898"/>
<path fill-rule="evenodd" clip-rule="evenodd" d="M14.2143 15.2787C13.7331 14.9335 13.1964 14.6396 12.6913 14.3318C12.3833 14.1441 12.0894 13.8304 11.7627 13.6758C10.5315 15.8445 9.27331 18.0144 8.25391 20.2836C9.01652 20.0111 9.96137 19.6608 10.6179 19.2064C10.7701 20.0376 11.0914 20.82 11.2929 21.6351C12.114 19.4088 13.4222 17.3798 14.2743 15.1659" fill="#F1F333"/>
<path d="M14.2143 15.2787C13.7331 14.9335 13.1964 14.6396 12.6913 14.3318C12.3833 14.1441 12.0894 13.8304 11.7627 13.6758C10.5315 15.8445 9.27331 18.0144 8.25391 20.2836C9.01652 20.0111 9.96137 19.6608 10.6179 19.2064C10.7701 20.0376 11.0914 20.82 11.2929 21.6351C12.114 19.4088 13.4222 17.3798 14.2743 15.1659" stroke="black" stroke-width="0.443009" stroke-miterlimit="1.5" stroke-linecap="round" stroke-linejoin="round"/>
<path fill-rule="evenodd" clip-rule="evenodd" d="M18.4357 14.1084C17.8339 14.4917 16.8518 15.0832 16.2148 15.4092C16.5256 16.4916 18.3082 20.5949 18.8167 21.4725C18.9867 20.5641 19.1541 19.6411 19.3508 18.7377C20.249 19.1934 21.0444 19.5307 22.0123 20.1375C21.7976 19.6963 19.0934 15.1256 18.4357 14.1084V14.1084Z" fill="#F1F333" stroke="black" stroke-width="0.443009" stroke-miterlimit="1.5" stroke-linecap="round" stroke-linejoin="round"/>
<path fill-rule="evenodd" clip-rule="evenodd" d="M17.728 5.78397C17.3468 5.76409 16.9577 5.89893 16.6967 6.19499C16.9283 5.64599 16.4489 4.89209 15.981 4.63558C15.1671 4.18925 13.823 4.77277 13.7287 5.72146C12.9785 4.30292 10.9057 4.98812 10.991 6.56256C10.8638 6.48318 10.7404 6.43353 10.5964 6.38493C9.27041 5.9372 8.46853 7.89177 9.33929 8.77778C8.19197 9.10206 7.75144 11.0865 9.03132 11.5451C7.67228 12.2792 8.56082 14.866 10.1561 14.3487C10.0504 14.7973 10.0282 15.3499 10.2806 15.7569C10.6901 16.4173 11.7455 16.72 12.3837 16.182C12.3731 17.5511 14.424 17.7516 14.9864 16.6628C15.9387 17.8756 17.7671 17.408 17.9013 15.8202C18.2187 15.9331 18.5793 16.0306 18.9149 15.9451C19.9578 15.6792 20.4216 14.4249 19.8924 13.5408C21.1158 13.3617 21.8578 11.2282 20.0999 10.4502C20.7457 9.91835 20.8375 9.01055 20.2558 8.19045C19.9488 7.75753 19.2374 7.66961 18.8119 7.74039C19 7.26468 19.018 6.73338 18.7115 6.30146" fill="white"/>
<path d="M17.728 5.78397C17.3468 5.76409 16.9577 5.89893 16.6967 6.19499C16.9283 5.64599 16.4489 4.89209 15.981 4.63558C15.1671 4.18925 13.823 4.77277 13.7287 5.72146C12.9785 4.30292 10.9057 4.98812 10.991 6.56256C10.8638 6.48318 10.7404 6.43353 10.5964 6.38493C9.27041 5.9372 8.46853 7.89177 9.33929 8.77778C8.19197 9.10206 7.75144 11.0865 9.03132 11.5451C7.67228 12.2792 8.56082 14.866 10.1561 14.3487C10.0504 14.7973 10.0282 15.3499 10.2806 15.7569C10.6901 16.4173 11.7455 16.72 12.3837 16.182C12.3731 17.5511 14.424 17.7516 14.9864 16.6628C15.9387 17.8756 17.7671 17.408 17.9013 15.8202C18.2187 15.9331 18.5793 16.0306 18.9149 15.9451C19.9578 15.6792 20.4216 14.4249 19.8924 13.5408C21.1158 13.3617 21.8578 11.2282 20.0999 10.4502C20.7457 9.91835 20.8375 9.01055 20.2558 8.19045C19.9488 7.75753 19.2374 7.66961 18.8119 7.74039C19 7.26468 19.018 6.73338 18.7115 6.30146" stroke="black" stroke-width="0.443009" stroke-miterlimit="1.5" stroke-linecap="round" stroke-linejoin="round"/>
<path d="M15.9301 6.94415C14.0422 6.06439 11.4366 7.27373 10.758 9.23529C9.96391 11.5309 10.5382 13.9232 12.8939 15.0306C14.6353 15.8492 16.8729 15.5771 18.2395 14.1855C20.3304 12.0561 19.6192 8.70605 17.0892 7.45561" stroke="black" stroke-width="0.443009" stroke-miterlimit="1.5" stroke-linecap="round" stroke-linejoin="round"/>
<path d="M13.5898 10.3358C14.1495 9.90593 14.6555 9.42519 14.9201 8.82178" stroke="black" stroke-width="0.443009" stroke-miterlimit="1.5" stroke-linecap="round" stroke-linejoin="round"/>
<path fill-rule="evenodd" clip-rule="evenodd" d="M14.9548 8.896C14.9136 10.2463 15.0236 11.5987 14.9691 12.9475Z" fill="white"/>
<path d="M14.9548 8.896C14.9136 10.2463 15.0236 11.5987 14.9691 12.9475" stroke="black" stroke-width="0.443009" stroke-miterlimit="1.5" stroke-linecap="round" stroke-linejoin="round"/>
<path fill-rule="evenodd" clip-rule="evenodd" d="M13.4922 13.0605C14.499 12.94 15.5344 13.0262 16.5328 12.8975Z" fill="white"/>
<path d="M13.4922 13.0605C14.499 12.94 15.5344 13.0262 16.5328 12.8975" stroke="black" stroke-width="0.443009" stroke-miterlimit="1.5" stroke-linecap="round" stroke-linejoin="round"/>
</g>
<defs>
<clipPath id="clip0_788_7648">
<rect width="44" height="46" fill="white"/>
</clipPath>
</defs>
</svg>
