<svg width="176" height="163" viewBox="0 0 176 163" fill="none" xmlns="http://www.w3.org/2000/svg">
<g clip-path="url(#clip0_784_7543)">
<path d="M42.2482 16.2421L35.4148 9.81068C34.8836 9.31068 34.1223 9.13936 33.4352 9.38461C31.9452 9.91645 29.2951 10.9323 27.5545 12C25.9909 12.9592 24.0913 14.6165 22.9831 15.6299C22.4098 16.1542 22.2177 16.969 22.4729 17.7028L25.7108 27.0116C25.9261 27.6307 25.8244 28.3157 25.4408 28.8472C24.9047 29.5899 24.1252 30.6764 23.5545 31.5C22.7994 32.5898 21.8102 34.0846 21.1783 35.0465C20.7904 35.637 20.1217 35.982 19.4158 35.9526L9.43018 35.5365C8.87204 35.5132 8.41919 35.7841 8.22448 36.3077C7.53883 38.1514 6.0535 42.5 6.0535 42.5C6.0535 42.5 5.00257 48.1487 5 49.6495C4.99959 49.8893 5.16533 50.0508 5.38366 50.1501L15.0056 54.5237C15.6543 54.8185 16.0971 55.4363 16.168 56.1454L16.5535 60L17.3436 63.9504C17.4747 64.6061 17.2695 65.284 16.7966 65.7569L10.0009 72.5526C9.42765 73.1259 9.25643 73.9871 9.58831 74.7267C10.1728 76.0292 11.1471 78.0905 12.0535 79.5C13.0409 81.0355 14.6765 82.9308 15.6802 84.0481C16.2058 84.6332 17.0311 84.8339 17.7739 84.5755L26.9073 81.3987C27.6117 81.1537 28.3927 81.3209 28.9469 81.82C29.6743 82.475 30.7144 83.3825 31.5535 84C32.6932 84.8387 34.3472 85.7934 35.4362 86.3962C36.1146 86.7717 36.5329 87.4947 36.5006 88.2694L36.1144 97.5372C36.0782 98.4082 36.6101 99.2022 37.4354 99.483C38.8084 99.95 40.937 100.639 42.5535 101C44.4619 101.427 47.1292 101.727 48.7151 101.881C49.5244 101.959 50.2913 101.524 50.6549 100.797L55.0423 92.0225C55.359 91.3889 55.9863 90.9706 56.6923 90.9126C57.7602 90.8248 59.3661 90.6772 60.5535 90.5C61.7763 90.3175 63.4082 89.9761 64.4698 89.7435C65.1448 89.5956 65.8506 89.7971 66.3393 90.2858L73.0342 96.9807C73.6429 97.5894 74.571 97.7413 75.341 97.3563L81.0535 94.5C81.0535 94.5 85.0535 92 85.5535 91C85.9097 90.2876 83.3843 84.2349 81.6502 80.3288C81.2975 79.5344 81.4896 78.6045 82.1196 78.0057C82.9918 77.1768 84.2142 75.9778 85.0547 75C85.7827 74.1531 86.4957 72.9665 86.9728 72.1058C87.3437 71.4367 88.0401 71 88.8052 71H98.4223C99.1248 71 99.7692 70.6268 100.056 69.9853C100.668 68.6137 101.538 66.3369 102.053 64.5C102.606 62.5307 102.89 60.5526 102.999 59.185C103.058 58.4555 102.655 57.7819 102.012 57.4315L93.1612 52.6042C92.4845 52.235 92.0807 51.5103 92.103 50.7397C92.1337 49.6752 92.151 48.1454 92.0535 47C91.9354 45.6128 91.5613 43.7582 91.3057 42.5964C91.1554 41.9135 91.3555 41.198 91.8499 40.7036L98.4995 34.0539C99.1249 33.4286 99.2653 32.4669 98.8343 31.6947C98.1132 30.4024 96.9798 28.4171 96.0535 27C95.1373 25.5984 93.7862 23.7777 92.913 22.6237C92.4011 21.9473 91.5153 21.6794 90.7106 21.9476L81.1572 25.1321C80.4749 25.3595 79.7239 25.2034 79.1843 24.728C78.407 24.0432 77.2814 23.0663 76.5547 22.5C75.4007 21.6007 73.9675 20.6751 73.0326 20.0943C72.4294 19.7196 72.0535 19.0636 72.0535 18.3535V8.82202C72.0535 8.02033 71.5761 7.29659 70.8321 6.99794C69.3639 6.40859 66.8712 5.45412 65.0547 5C63.2936 4.55974 60.896 4.27171 59.4128 4.12249C58.593 4.04001 57.8195 4.48936 57.4639 5.2327L53.0618 14.4371C52.7481 15.093 52.1041 15.5265 51.3792 15.5828C50.3106 15.6658 48.7257 15.8087 47.5535 16C46.4874 16.1739 45.0805 16.4992 44.1256 16.7315C43.457 16.8942 42.7493 16.7137 42.2482 16.2421Z" fill="#DEDFFE" stroke="black" stroke-width="1.9"/>
<path d="M133.813 78.6685L131.614 70.8573C131.443 70.25 130.955 69.7838 130.336 69.6595C128.995 69.3898 126.578 68.9621 124.813 68.978C123.226 68.9922 121.08 69.3742 119.807 69.6316C119.149 69.7648 118.643 70.2831 118.506 70.9407L116.758 79.2826C116.642 79.8374 116.261 80.2999 115.74 80.5229C115.012 80.8345 113.95 81.2925 113.16 81.6486C112.115 82.1199 110.716 82.7871 109.819 83.2186C109.268 83.4834 108.619 83.4411 108.109 83.1048L100.893 78.3476C100.49 78.0817 100.034 78.0807 99.6562 78.382C98.3266 79.4431 95.2883 82.0043 95.2883 82.0043C95.2883 82.0043 91.9927 85.7228 91.3222 86.834C91.215 87.0116 91.2659 87.2051 91.3835 87.3759L96.5664 94.9043C96.9159 95.4119 96.9688 96.067 96.7055 96.6242L95.2739 99.6528L94.0994 102.933C93.9045 103.477 93.4504 103.888 92.8892 104.028L84.8247 106.037C84.1445 106.207 83.6339 106.769 83.5504 107.465C83.4033 108.69 83.207 110.652 83.2509 112.101C83.2986 113.679 83.6664 115.812 83.9126 117.087C84.0415 117.755 84.5637 118.272 85.2294 118.411L93.4141 120.126C94.0453 120.258 94.5497 120.73 94.7381 121.347C94.9854 122.156 95.352 123.292 95.6988 124.124C96.1699 125.253 96.9703 126.698 97.509 127.63C97.8445 128.21 97.8324 128.932 97.4633 129.492L93.0481 136.189C92.6331 136.818 92.6736 137.644 93.1602 138.22C93.9698 139.178 95.2406 140.636 96.2777 141.624C97.5021 142.791 99.3454 144.201 100.452 145.022C101.017 145.441 101.779 145.46 102.373 145.083L109.534 140.535C110.051 140.206 110.702 140.176 111.251 140.447C112.082 140.858 113.338 141.464 114.297 141.862C115.284 142.271 116.646 142.745 117.536 143.046C118.103 143.237 118.536 143.701 118.68 144.28L120.66 152.225C120.84 152.948 121.46 153.474 122.202 153.531L127.709 153.959C127.709 153.959 131.787 153.889 132.603 153.37C133.185 153.001 134.01 147.39 134.464 143.722C134.557 142.976 135.114 142.373 135.847 142.209C136.863 141.984 138.303 141.64 139.362 141.289C140.279 140.986 141.336 140.424 142.073 139.999C142.646 139.668 143.357 139.655 143.924 139.996L151.052 144.28C151.572 144.593 152.216 144.604 152.714 144.256C153.779 143.512 155.438 142.212 156.639 141.08C157.926 139.867 159.017 138.527 159.708 137.562C160.076 137.048 160.078 136.369 159.758 135.823L155.348 128.302C155.011 127.727 155.035 127.01 155.394 126.449C155.891 125.673 156.586 124.547 157.024 123.655C157.554 122.574 158.103 121.033 158.432 120.058C158.624 119.485 159.091 119.044 159.678 118.897L167.569 116.931C168.311 116.747 168.844 116.096 168.869 115.332C168.91 114.053 168.954 112.076 168.899 110.613C168.844 109.166 168.654 107.215 168.521 105.971C168.443 105.241 167.906 104.648 167.19 104.488L158.691 102.592C158.084 102.457 157.597 102.007 157.408 101.414C157.137 100.56 156.738 99.3345 156.452 98.591C155.997 97.4104 155.347 96.0858 154.913 95.2388C154.633 94.6924 154.647 94.0387 154.963 93.5124L159.21 86.4479C159.567 85.8537 159.536 85.1046 159.117 84.5518C158.292 83.4609 156.869 81.6429 155.725 80.497C154.616 79.3861 152.967 78.1045 151.935 77.3331C151.364 76.9067 150.59 76.8951 149.996 77.2876L142.632 82.1484C142.107 82.4948 141.437 82.5291 140.875 82.2479C140.046 81.8334 138.807 81.2332 137.853 80.8527C136.986 80.5066 135.798 80.1209 134.987 79.8677C134.419 79.6903 133.974 79.2413 133.813 78.6685Z" fill="#B2B0F7" stroke="black" stroke-width="1.8"/>
<circle cx="54" cy="53" r="23.1" fill="#B2B0F7" stroke="black" stroke-width="1.8"/>
<circle cx="126.146" cy="111.148" r="19.8544" transform="rotate(31.0106 126.146 111.148)" fill="#DEDFFE" stroke="black" stroke-width="1.8"/>
<circle cx="54" cy="53" r="10" fill="#081722"/>
<circle cx="126.144" cy="111.148" r="8.64768" transform="rotate(31.0106 126.144 111.148)" fill="#081722"/>
<path d="M154.395 44.7332C154.098 45.4655 154.212 48.3491 154.532 48.761C155.013 49.3559 155.905 49.2413 156.066 48.5777C156.569 46.541 155.059 43.0627 154.395 44.7332Z" fill="black"/>
<path d="M129.499 16.4715C129.362 17.4784 129.43 20.0871 129.476 21.6432C129.499 22.1238 129.865 22.4899 130.323 22.5357C131.65 22.6501 131.925 20.1329 131.078 15.991C130.872 14.9612 129.682 15.3045 129.499 16.4715Z" fill="black"/>
<path d="M134.806 14.3433C136.774 14.3433 137.873 14.0459 137.873 13.4967C137.873 12.7873 136.225 12.6042 133.754 12.9932C131.099 13.4509 131.809 14.3433 134.806 14.3433Z" fill="black"/>
<path d="M129.454 4.20577C128.905 4.4346 129.065 11.5285 129.614 11.826C131.124 12.6269 131.788 11.7345 131.605 9.2631C131.17 4.11425 130.964 3.5879 129.454 4.20577Z" fill="black"/>
<path d="M124.922 12.9477C123.389 13.1307 123 13.2908 123 13.7714C123 14.5265 127.577 14.7096 128.652 14.0002C129.934 13.1535 127.943 12.5815 124.922 12.9477Z" fill="black"/>
<path d="M154.647 41.7577C155.059 41.7119 155.38 41.3915 155.38 40.9796C155.494 38.2793 155.586 36.4944 153.915 37.158C153.595 37.2953 153.526 38.9887 153.778 40.7737C153.938 41.8034 153.961 41.8263 154.647 41.7577Z" fill="black"/>
<path d="M156.457 42.7422C155.747 43.0396 155.816 43.5886 156.594 43.7488C157.28 43.909 159.981 43.5202 160.507 43.1998C161.468 42.582 157.83 42.1701 156.457 42.7422Z" fill="black"/>
<path d="M153.323 42.7191C152.591 42.4445 152.431 42.4445 151.264 42.7877C149.502 43.3141 150.234 44.0235 152.27 43.7489C153.689 43.5658 154.193 43.0623 153.323 42.7191Z" fill="black"/>
<path d="M150.667 31.9406C151.239 30.9795 151.056 29.7666 150.255 29.0115C148.264 27.135 146.342 23.9313 145.221 20.6131C144.58 18.7596 142.887 11.3224 142.887 10.3842C142.887 9.19422 141.582 8.59919 140.759 9.42301C140.575 9.60608 140.347 10.4071 140.278 11.208C139.843 15.2355 137.463 24.3661 136.113 27.1121C135.449 28.4623 134.076 29.7666 132.635 30.4074C131.399 30.9566 131.399 31.0481 132.932 32.3754C135.976 35.0299 138.218 40.2703 139.797 48.4627C141.216 55.8083 143.711 53.4284 143.436 51.941C142.864 49.0576 146.228 39.3778 150.072 32.9246L150.667 31.9406ZM147.738 31.0024C145.518 33.8399 143.116 38.2794 141.971 41.6891L141.445 43.2909L141.148 41.8035C139.065 31.7118 134.832 31.2083 134.374 30.7735C134.877 30.2472 139.431 27.3867 141.537 20.7962C142.177 18.8053 142.063 18.8053 142.681 20.6818C143.848 24.2288 145.473 27.1121 147.349 29.0344L148.425 30.1328L147.738 31.0024Z" fill="black"/>
</g>
<defs>
<clipPath id="clip0_784_7543">
<rect width="176" height="162.235" fill="white"/>
</clipPath>
</defs>
</svg>
