<svg width="33" height="31" viewBox="0 0 33 31" fill="none" xmlns="http://www.w3.org/2000/svg">
<path d="M23.2443 6.22668H21.7026C21.2194 6.22668 20.8277 6.61836 20.8277 7.10153V9.55124C20.8277 9.55124 20.8281 10.3386 20.5657 10.6885C20.3032 11.0385 19.4284 10.9947 19.4284 10.9947H17.8974C17.8974 10.9947 16.8902 10.9667 16.5851 11.3009C16.1914 11.7323 16.2789 12.5257 16.2789 12.5257L16.3375 14.9316C16.3375 14.9316 16.3426 15.3772 16.0602 15.6752C15.743 16.0099 15.0978 15.9813 15.0978 15.9813H14.5727H11.9484C11.9484 15.9813 11.4131 15.9357 11.1173 16.2439C10.8215 16.552 10.8546 17.0312 10.8546 17.0312V19.7433C10.8546 19.7433 10.855 20.1371 10.5486 20.3994C10.2113 20.6882 9.71752 20.618 9.71752 20.618L6.65554 20.6181C6.65554 20.6181 6.07318 20.588 5.78069 20.8806C5.4882 21.1731 5.51803 21.7333 5.51803 21.7333V24.6862C5.51803 24.6862 5.52945 25.0451 5.29952 25.3423C5.04433 25.6722 4.29344 25.6722 4.29344 25.6722L1.84365 25.7197C1.84365 25.7197 1.46452 25.7287 1.23147 25.9547C0.986152 26.1926 1.01255 26.6108 1.01255 26.6108V30.2851L32.9446 30.3726V1.19629L25.3332 1.24016C25.3332 1.24016 25.027 1.21388 24.8521 1.41513C24.6771 1.61638 24.6667 1.85258 24.6667 1.85258L24.6441 4.83754C24.6382 5.60644 24.0133 6.22668 23.2443 6.22668Z" fill="#FD6F00"/>
<path d="M22.4592 5.43957H20.9174C20.4343 5.43957 20.0426 5.83126 20.0426 6.31442V8.76413C20.0426 8.76413 20.043 9.5515 19.7805 9.90144C19.518 10.2514 18.6432 10.2076 18.6432 10.2076H17.1122C17.1122 10.2076 16.105 10.1796 15.7999 10.5138C15.4063 10.9452 15.4937 11.7386 15.4937 11.7386L15.5524 14.1445C15.5524 14.1445 15.5575 14.5901 15.275 14.8881C14.9578 15.2228 14.3127 15.1942 14.3127 15.1942H13.7876H11.1632C11.1632 15.1942 10.6279 15.1486 10.3321 15.4567C10.0363 15.7649 10.0695 16.2441 10.0695 16.2441V18.9561C10.0695 18.9561 10.0699 19.35 9.76346 19.6123C9.42614 19.9011 8.93235 19.8309 8.93235 19.8309L5.87038 19.831C5.87038 19.831 5.28801 19.8009 4.99552 20.0935C4.70304 20.386 4.73286 20.9462 4.73286 20.9462V23.8991C4.73286 23.8991 4.74429 24.258 4.51436 24.5552C4.25917 24.885 3.50828 24.885 3.50828 24.885L1.05849 24.9326C1.05849 24.9326 0.679358 24.9416 0.4463 25.1676C0.200987 25.4055 0.227382 25.8237 0.227382 25.8237V29.498L32.1594 29.5855V0.40918L24.5481 0.45305C24.5481 0.45305 24.2419 0.426772 24.0669 0.628021C23.8919 0.829269 23.8815 1.06547 23.8815 1.06547L23.8589 4.05043C23.8531 4.81933 23.2281 5.43957 22.4592 5.43957Z" stroke="black" stroke-width="0.4"/>
<path fill-rule="evenodd" clip-rule="evenodd" d="M13.5018 3.69009C12.5612 3.97605 10.5346 4.37451 10.2167 4.3367C10.038 4.31543 9.87458 4.37657 9.86335 4.47092C9.83854 4.67949 10.4647 4.83457 11.0623 4.76465C11.4603 4.72135 11.4608 4.7164 10.9837 5.00209C9.88164 5.67174 8.16084 7.43616 8.08036 7.98559C8.0559 8.14887 5.71298 8.66585 4.48632 12.3726C4.11585 13.4969 4.2504 14.9483 4.7237 14.9492C4.80433 14.9487 4.86663 14.8906 4.88046 14.8167L4.99474 14.1102C5.61497 10.3363 7.78543 8.98297 7.79099 8.9786C7.80057 9.02506 7.51865 10.1247 8.78289 10.7586C9.33909 11.0363 10.0136 11.0813 10.5382 10.7357C12.2207 9.63153 11.4491 7.65112 9.40176 7.80036C9.1271 7.82308 9.11859 7.85229 9.50637 7.34444C10.1742 6.47205 11.4417 5.46956 12.7527 4.77944C13.2412 4.52532 13.2374 4.51478 12.8144 5.14938C11.8116 6.63662 11.6733 7.58713 12.5462 6.98087C12.7439 6.84323 12.8036 6.76474 13.4561 5.72434C13.705 5.32586 14.1183 4.73038 14.3738 4.40321C14.8502 3.78504 14.8795 3.70797 14.6755 3.60311C14.4185 3.47685 14.1445 3.49461 13.5018 3.69009ZM10.3247 8.42389C10.9828 8.81946 10.6946 9.80249 9.75334 10.3905C9.27995 10.6868 8.77116 10.3492 8.65665 9.66076C8.5897 9.24989 8.77185 8.48088 8.95629 8.41217C9.38512 8.23656 10.029 8.24266 10.3247 8.42389Z" fill="black"/>
</svg>
