<svg width="44" height="46" viewBox="0 0 44 46" fill="none" xmlns="http://www.w3.org/2000/svg">
<g clip-path="url(#clip0_788_7630)">
<g opacity="0.4">
<path fill-rule="evenodd" clip-rule="evenodd" d="M37.6844 28.3589C35.9038 31.1901 33.051 32.8514 30.8825 35.3978C27.9727 38.8145 27.2806 45.107 22.8442 45.7848C18.5199 46.4455 16.2272 40.539 12.5295 38.2017C8.75447 35.8156 2.97106 36.0156 1.0276 31.9948C-0.916783 27.972 2.55996 23.5241 3.30573 19.1188C4.1634 14.0524 2.21325 8.03155 5.72008 4.27583C9.27039 0.473536 15.4908 -0.659216 20.5156 0.68744C25.1781 1.93699 26.2999 8.18134 30.3112 10.8663C34.2286 13.4884 41.3431 11.5097 43.174 15.8535C44.9866 20.1537 40.1688 24.4086 37.6844 28.3589Z" fill="#ACE2F4" fill-opacity="0.8"/>
<path fill-rule="evenodd" clip-rule="evenodd" d="M32.9654 26.9191C31.6865 28.9525 29.6376 30.1457 28.0802 31.9745C25.9903 34.4285 25.4932 38.9478 22.307 39.4346C19.2012 39.9091 17.5545 35.667 14.8988 33.9883C12.1875 32.2746 8.03378 32.4182 6.63796 29.5304C5.24148 26.6412 7.73852 23.4467 8.27414 20.2827C8.89014 16.644 7.48951 12.3197 10.0082 9.6223C12.558 6.89144 17.0256 6.07788 20.6345 7.04507C23.9832 7.94251 24.7888 12.4273 27.6699 14.3557C30.4834 16.2389 35.5931 14.8177 36.9081 17.9375C38.2099 21.026 34.7497 24.0819 32.9654 26.9191Z" fill="#11C2FB" fill-opacity="0.8"/>
</g>
<path d="M28.3695 8.38849L12.2042 10.5202C11.7754 10.5767 11.4749 10.972 11.5351 11.4003L14.8211 34.7677C14.8807 35.1908 15.2701 35.4869 15.6937 35.431L31.859 33.2993C32.2878 33.2428 32.5883 32.8475 32.5281 32.4192L29.242 9.05182C29.1825 8.62869 28.7931 8.33263 28.3695 8.38849Z" fill="white" stroke="black" stroke-width="0.524576"/>
<path d="M18.625 14.5147L24.4631 13.7363M18.8196 15.6823L26.7983 14.7093" stroke="black" stroke-width="0.262288" stroke-linecap="round"/>
<path d="M19.4023 19.1851L25.2404 18.4067M19.5969 20.3528L27.5756 19.3797" stroke="black" stroke-width="0.262288" stroke-linecap="round"/>
<path d="M20.1836 23.8556L26.0217 23.0771M20.3782 25.0232L28.3569 24.0502" stroke="black" stroke-width="0.262288" stroke-linecap="round"/>
<path d="M20.9609 28.526L26.799 27.7476M21.1555 29.6936L29.1342 28.7206" stroke="black" stroke-width="0.262288" stroke-linecap="round"/>
<ellipse cx="10.9792" cy="40.0777" rx="3.17201" ry="0.599184" transform="rotate(5.72571 10.9792 40.0777)" fill="black"/>
<path fill-rule="evenodd" clip-rule="evenodd" d="M8.77663 40.6737C8.82212 40.3297 9.17246 39.7538 8.88386 39.5589C7.66843 38.7381 6.2887 37.6546 6.35378 36.0318C6.38005 35.3741 6.57277 34.5604 7.04155 34.0702C7.35881 33.7386 7.9494 33.6765 8.25627 34.0754C8.58057 34.4973 8.31059 35.1758 8.27907 35.6474C8.25567 35.9994 8.35883 36.3051 8.75108 36.355C8.87001 36.3702 8.99216 36.366 9.11109 36.3521C9.27527 36.333 9.43217 36.2858 9.57378 36.2002C10.0452 35.9148 10.2996 35.1488 10.3135 34.6285C10.3222 34.2976 10.2027 33.9577 9.86035 33.8549C9.3284 33.6952 8.79729 34.3526 8.29256 34.0536C8.2091 34.0042 8.13292 33.941 8.07548 33.8626C7.68324 33.327 8.14223 32.7621 8.58248 32.4463C9.00494 32.1431 9.55492 31.87 10.085 31.8527C11.2689 31.8143 11.972 33.0074 12.1293 34.0332C12.2145 33.0352 11.8748 32.0346 11.802 31.0445C11.77 30.6084 11.7239 30.1097 11.9407 29.7086C12.1299 29.3589 12.5121 29.2673 12.8415 29.5143C13.1815 29.7692 13.3926 30.2025 13.5387 30.5881C13.9743 31.737 14.0305 32.9869 13.7641 34.1723C14.1047 33.3631 14.4349 32.5473 14.7671 31.7347C14.9211 31.3582 15.0443 30.9069 15.3027 30.6857C15.6607 30.3789 16.1215 30.486 16.3606 30.8888C16.5685 31.2389 16.5817 31.6519 16.5387 32.0466C16.4525 32.8394 16.1063 33.5961 15.7345 34.2921C15.3212 35.0657 14.8818 35.8413 14.2826 36.486C14.7909 36.0755 15.2748 35.6577 15.7422 35.2011C16.185 34.7685 16.7097 33.9429 17.3534 33.7796C17.8271 33.6594 18.0474 34.0565 18.0578 34.4965C18.071 35.0547 17.6931 35.5829 17.3461 35.9892C16.6432 36.8126 15.8095 37.5236 14.9064 38.1217C14.602 38.3234 14.2891 38.5123 13.9687 38.6879C13.8282 38.7649 13.579 38.8369 13.4707 38.9518C13.3465 39.0834 13.2984 39.3345 13.2447 39.4998C13.1055 39.927 12.9666 40.3676 12.8871 40.8105" fill="white"/>
<path d="M8.77663 40.6737C8.82212 40.3297 9.17246 39.7538 8.88386 39.5589C7.66843 38.7381 6.2887 37.6546 6.35378 36.0318C6.38005 35.3741 6.57277 34.5604 7.04155 34.0702C7.35881 33.7386 7.9494 33.6765 8.25627 34.0754C8.58057 34.4973 8.31059 35.1758 8.27907 35.6474C8.25567 35.9994 8.35883 36.3051 8.75108 36.355C8.87001 36.3702 8.99216 36.366 9.11109 36.3521C9.27527 36.333 9.43217 36.2858 9.57378 36.2002C10.0452 35.9148 10.2996 35.1488 10.3135 34.6285C10.3222 34.2976 10.2027 33.9577 9.86035 33.8549C9.3284 33.6952 8.79729 34.3526 8.29256 34.0536C8.2091 34.0042 8.13292 33.941 8.07548 33.8626C7.68324 33.327 8.14223 32.7621 8.58248 32.4463C9.00494 32.1431 9.55492 31.87 10.085 31.8527C11.2689 31.8143 11.972 33.0074 12.1293 34.0332C12.2145 33.0352 11.8748 32.0346 11.802 31.0445C11.77 30.6084 11.7239 30.1097 11.9407 29.7086C12.1299 29.3589 12.5121 29.2673 12.8415 29.5143C13.1815 29.7692 13.3926 30.2025 13.5387 30.5881C13.9743 31.737 14.0305 32.9869 13.7641 34.1723C14.1047 33.3631 14.4349 32.5473 14.7671 31.7347C14.9211 31.3582 15.0443 30.9069 15.3027 30.6857C15.6607 30.3789 16.1215 30.486 16.3606 30.8888C16.5685 31.2389 16.5817 31.6519 16.5387 32.0466C16.4525 32.8394 16.1063 33.5961 15.7345 34.2921C15.3212 35.0657 14.8818 35.8413 14.2826 36.486C14.7909 36.0755 15.2748 35.6577 15.7422 35.2011C16.185 34.7685 16.7097 33.9429 17.3534 33.7796C17.8271 33.6594 18.0474 34.0565 18.0578 34.4965C18.071 35.0547 17.6931 35.5829 17.3461 35.9892C16.6432 36.8126 15.8095 37.5236 14.9064 38.1217C14.602 38.3234 14.2891 38.5123 13.9687 38.6879C13.8282 38.7649 13.579 38.8369 13.4707 38.9518C13.3465 39.0834 13.2984 39.3345 13.2447 39.4998C13.1055 39.927 12.9666 40.3676 12.8871 40.8105" stroke="black" stroke-width="0.472119" stroke-miterlimit="1.5" stroke-linecap="round" stroke-linejoin="round"/>
<path d="M7.88838 39.8246L7.60657 41.3753C7.89424 41.5878 8.89623 42.0775 10.6029 42.3356C12.3096 42.5938 13.5192 42.4012 13.9107 42.2726L14.0712 40.4934C14.0734 40.4684 14.0518 40.4478 14.0269 40.4512C13.7178 40.4931 12.0051 40.7122 10.8637 40.5783C9.78928 40.4523 8.21941 39.8959 7.94 39.7947C7.91724 39.7865 7.89271 39.8008 7.88838 39.8246Z" fill="#23A094" stroke="black" stroke-width="0.151885"/>
<path d="M25.5008 9.87416L15.7648 11.1848C15.6575 11.1992 15.5591 11.1233 15.5457 11.0159L15.3764 9.65418C15.3764 9.65418 15.2833 9.12164 15.3795 8.87577C15.4925 8.58656 16.1534 8.48657 16.1534 8.48657L18.4811 8.12852C18.5912 8.11158 18.666 8.00581 18.6545 7.895C18.6248 7.6063 18.6146 7.07378 18.8782 6.73516C19.2337 6.27845 19.6626 6.11736 20.2404 6.15135C20.649 6.17538 20.901 6.2762 21.2134 6.54055C21.4924 6.77657 21.6713 7.27406 21.7504 7.53698C21.7793 7.63332 21.8726 7.69781 21.9722 7.68417C22.5966 7.59876 24.6863 7.31459 24.8517 7.31459C25.0463 7.31459 25.1799 7.3934 25.3001 7.51356C25.47 7.6835 25.4947 8.09737 25.4947 8.09737L25.6683 9.6598C25.6799 9.76488 25.6056 9.86005 25.5008 9.87416Z" fill="#F66C5A" stroke="black" stroke-width="0.377695"/>
<g clip-path="url(#clip1_788_7630)">
<path fill-rule="evenodd" clip-rule="evenodd" d="M17.3048 13.2376C17.0982 13.4262 16.9981 13.5336 16.7538 13.8297C16.5445 14.0821 16.5484 14.0793 16.4678 14.0232C16.3005 13.9015 15.7543 13.8579 15.6176 13.9589C15.5519 14.0057 15.5723 14.074 15.6481 14.0613C15.8542 14.0289 16.0599 14.0873 16.244 14.1893C16.4087 14.282 16.4077 14.2758 16.2342 14.5031C16.0476 14.7453 15.7903 15.1364 15.6516 15.3853L15.5455 15.5761L15.4064 15.437C15.0768 15.1041 14.7574 14.9656 14.5946 15.0836C14.5351 15.1273 14.5494 15.146 14.777 15.3083C14.9766 15.4499 15.1947 15.6622 15.3599 15.8771C15.4936 16.0509 15.7449 16.0088 15.87 15.7053C15.9601 15.4855 16.2149 15.0527 16.4337 14.7503L16.6288 14.4792L16.705 14.5888C17.3859 15.5695 16.3665 17.0079 15.2461 16.6471C14.1021 16.2776 14.0472 14.4876 15.1691 14.1394C15.3892 14.0709 15.3815 13.9984 15.1539 14.0091C14.5654 14.0317 13.9372 14.8013 13.9671 15.4587C14.0257 16.7123 15.4398 17.2981 16.602 16.5529C17.308 16.1014 17.468 14.8765 16.8949 14.3398C16.8527 14.3004 16.8173 14.2621 16.8156 14.2518C16.8084 14.2087 17.1411 13.8155 17.5025 13.447C17.9093 13.0309 17.6448 12.9275 17.3048 13.2376Z" fill="black"/>
</g>
<g clip-path="url(#clip2_788_7630)">
<path fill-rule="evenodd" clip-rule="evenodd" d="M17.9923 17.9588C17.7857 18.1473 17.6856 18.2548 17.4413 18.5509C17.232 18.8033 17.2359 18.8005 17.1553 18.7444C16.988 18.6226 16.4418 18.5791 16.3051 18.6801C16.2394 18.7269 16.2598 18.7952 16.3356 18.7825C16.5417 18.7501 16.7474 18.8085 16.9315 18.9105C17.0962 19.0032 17.0952 18.997 16.9217 19.2243C16.7351 19.4665 16.4778 19.8576 16.3391 20.1065L16.233 20.2973L16.0939 20.1582C15.7643 19.8253 15.4449 19.6868 15.2821 19.8048C15.2226 19.8485 15.2369 19.8672 15.4645 20.0295C15.6641 20.1711 15.8822 20.3834 16.0474 20.5983C16.1811 20.7721 16.4324 20.73 16.5575 20.4264C16.6476 20.2067 16.9024 19.7739 17.1212 19.4715L17.3163 19.2004L17.3925 19.31C18.0734 20.2907 17.054 21.7291 15.9336 21.3683C14.7896 20.9988 14.7347 19.2088 15.8566 18.8606C16.0767 18.7921 16.069 18.7196 15.8414 18.7303C15.2529 18.7529 14.6247 19.5225 14.6546 20.1798C14.7132 21.4335 16.1273 22.0193 17.2895 21.2741C17.9955 20.8226 18.1555 19.5977 17.5824 19.0609C17.5402 19.0216 17.5048 18.9832 17.5031 18.973C17.4959 18.9299 17.8286 18.5367 18.19 18.1682C18.5968 17.7521 18.3323 17.6487 17.9923 17.9588Z" fill="black"/>
</g>
<g clip-path="url(#clip3_788_7630)">
<path fill-rule="evenodd" clip-rule="evenodd" d="M18.6173 22.6795C18.4107 22.868 18.3106 22.9755 18.0663 23.2716C17.857 23.524 17.8609 23.5212 17.7803 23.4651C17.613 23.3433 17.0668 23.2998 16.9301 23.4008C16.8644 23.4476 16.8848 23.5159 16.9606 23.5032C17.1667 23.4708 17.3724 23.5292 17.5565 23.6312C17.7212 23.7239 17.7202 23.7177 17.5467 23.945C17.3601 24.1872 17.1028 24.5783 16.9641 24.8272L16.858 25.018L16.7189 24.8789C16.3893 24.546 16.0699 24.4075 15.9071 24.5255C15.8476 24.5692 15.8619 24.5879 16.0895 24.7502C16.2891 24.8918 16.5072 25.1041 16.6724 25.319C16.8061 25.4928 17.0574 25.4507 17.1825 25.1471C17.2726 24.9274 17.5274 24.4946 17.7462 24.1922L17.9413 23.9211L18.0175 24.0307C18.6984 25.0114 17.679 26.4498 16.5586 26.089C15.4146 25.7195 15.3597 23.9295 16.4816 23.5813C16.7017 23.5128 16.694 23.4403 16.4664 23.451C15.8779 23.4736 15.2497 24.2432 15.2796 24.9005C15.3382 26.1542 16.7523 26.74 17.9145 25.9948C18.6205 25.5433 18.7805 24.3184 18.2074 23.7816C18.1652 23.7423 18.1298 23.704 18.1281 23.6937C18.1209 23.6506 18.4536 23.2574 18.815 22.8889C19.2218 22.4728 18.9573 22.3694 18.6173 22.6795Z" fill="black"/>
</g>
<g clip-path="url(#clip4_788_7630)">
<path fill-rule="evenodd" clip-rule="evenodd" d="M19.3595 27.4011C19.1529 27.5897 19.0528 27.6972 18.8085 27.9933C18.5991 28.2456 18.6031 28.2429 18.5225 28.1868C18.3551 28.065 17.809 28.0215 17.6722 28.1224C17.6066 28.1693 17.627 28.2376 17.7028 28.2249C17.9089 28.1925 18.1146 28.2509 18.2987 28.3529C18.4634 28.4455 18.4624 28.4394 18.2889 28.6667C18.1023 28.9089 17.845 29.3 17.7063 29.5489L17.6002 29.7397L17.4611 29.6005C17.1315 29.2676 16.8121 29.1292 16.6493 29.2471C16.5898 29.2909 16.6041 29.3096 16.8317 29.4718C17.0313 29.6135 17.2494 29.8258 17.4146 30.0407C17.5483 30.2145 17.7996 30.1724 17.9247 29.8688C18.0148 29.6491 18.2696 29.2162 18.4884 28.9138L18.6835 28.6428L18.7597 28.7524C19.4406 29.7331 18.4211 31.1714 17.3008 30.8107C16.1568 30.4412 16.1019 28.6512 17.2238 28.303C17.4439 28.2345 17.4362 28.162 17.2086 28.1727C16.6201 28.1953 15.9919 28.9649 16.0218 29.6222C16.0804 30.8759 17.4945 31.4616 18.6567 30.7165C19.3626 30.265 19.5227 29.0401 18.9496 28.5033C18.9074 28.464 18.872 28.4256 18.8703 28.4154C18.8631 28.3723 19.1958 27.9791 19.5571 27.6106C19.964 27.1944 19.6995 27.0911 19.3595 27.4011Z" fill="black"/>
</g>
</g>
<defs>
<clipPath id="clip0_788_7630">
<rect width="44" height="46" fill="white"/>
</clipPath>
<clipPath id="clip1_788_7630">
<rect width="5.25738" height="4.98009" fill="white" transform="translate(12.9609 13.0645) rotate(-9.5075)"/>
</clipPath>
<clipPath id="clip2_788_7630">
<rect width="5.25738" height="4.98009" fill="white" transform="translate(13.6484 17.7856) rotate(-9.5075)"/>
</clipPath>
<clipPath id="clip3_788_7630">
<rect width="5.25738" height="4.98009" fill="white" transform="translate(14.2734 22.5063) rotate(-9.5075)"/>
</clipPath>
<clipPath id="clip4_788_7630">
<rect width="5.25738" height="4.98009" fill="white" transform="translate(15.0156 27.2275) rotate(-9.5075)"/>
</clipPath>
</defs>
</svg>
