<svg width="619" height="136" viewBox="0 0 619 136" fill="none" xmlns="http://www.w3.org/2000/svg">
<rect x="1.25" y="1.25" width="616.477" height="133.477" rx="10.75" fill="white"/>
<path fill-rule="evenodd" clip-rule="evenodd" d="M41.3382 24.9042C40.1811 25.1756 39.3669 25.9042 37.8525 28.0613C37.4239 28.6756 36.9954 29.1756 36.8953 29.1756C36.5954 29.1756 35.7668 29.6898 35.4383 30.4041C35.2668 30.7756 34.9383 31.2613 34.7097 31.5042C33.9098 32.547 34.9955 32.5898 33.1669 34.947C30.3955 38.547 29.2811 40.3327 29.1811 41.3041C29.0668 42.5042 27.0669 48.8756 27.4669 49.9756C27.7382 50.747 28.6526 50.9042 29.9811 50.5041C32.3668 49.7898 36.6383 46.647 37.4526 45.9471C38.4955 45.047 41.424 39.8756 41.7811 39.8613C42.1811 39.847 43.0097 39.447 43.1525 39.3041C43.8098 38.647 45.6812 35.4899 45.8525 34.6755C45.9239 34.3328 45.8239 34.0184 45.8239 33.6185C45.8239 33.3756 46.1812 32.8185 46.8811 31.947C48.2811 30.2184 48.2954 30.1756 47.4668 28.4613C45.9811 25.4756 43.9811 24.3042 41.3382 24.9042ZM43.2097 25.6184C44.4383 25.9185 45.6097 26.947 46.3097 28.3042C46.9811 29.6328 46.8525 29.9613 44.6669 32.6328C44.6097 32.6899 44.4383 32.3185 44.1812 31.9327C43.1954 30.4185 41.5669 29.3184 39.3811 29.0899C38.5383 29.0041 38.3383 29.3327 39.8097 27.3328C40.3241 26.6327 40.624 26.247 40.8526 26.0042C41.2383 25.6184 42.0669 25.347 43.2097 25.6184ZM39.8669 30.1042C41.8526 30.747 42.5525 31.1613 43.7097 33.3184C44.4525 34.7041 44.3811 34.547 43.5383 35.5613C43.2096 35.9613 43.1811 35.9613 43.0811 35.7042C42.7383 34.747 42.4526 34.2327 41.6383 33.447C40.1383 32.1613 39.724 32.5042 40.9383 33.9042C42.324 35.5185 42.6097 36.447 42.0811 37.647C41.7669 38.347 41.5383 38.5898 41.4668 38.2899C40.5668 34.9613 38.5812 33.547 36.3526 33.347C35.424 33.2613 35.2954 33.047 35.8098 32.4756C36.124 32.1327 36.5811 32.2899 37.6954 32.4327C38.1954 32.5042 38.224 31.8185 37.6668 31.6756C36.9383 31.4898 36.6954 31.247 37.2525 30.3899C37.7668 29.6328 38.2526 29.5756 39.8669 30.1042ZM38.524 30.7899C38.2526 30.9613 38.1811 31.3185 39.1097 31.647C39.9954 31.9613 40.4526 31.7327 40.4526 31.3327C40.4526 31.1756 40.3383 30.9327 39.9526 30.8471C39.4383 30.7184 38.6812 30.6898 38.524 30.7899ZM37.124 34.2327C37.2811 34.3328 37.2954 34.347 36.7668 35.1327C35.4669 37.0613 34.9383 37.8041 34.5525 38.247C34.3382 38.4899 33.8526 39.2184 33.4668 39.8613C32.2239 41.9756 31.1384 42.6471 30.6668 41.5899C30.4955 41.2185 30.5382 40.7899 30.7525 40.4612C31.3668 39.5184 34.6955 34.2756 35.5097 34.0613C36.1812 33.8756 36.8811 34.0756 37.124 34.2327ZM38.7955 35.0755C39.8525 36.1756 39.9954 36.8756 39.1668 37.8899C37.624 39.7899 35.1954 43.0613 34.224 43.7613C33.5669 44.2328 33.2525 42.8612 33.4384 42.0042C33.6811 40.847 34.6525 39.2899 36.7954 36.4756C38.024 34.8328 38.2383 34.5042 38.7955 35.0755ZM40.2669 38.6042C40.3097 38.9184 40.4812 39.347 40.1383 39.8185C39.8954 40.1613 39.1097 41.4612 38.4811 42.5041C37.3955 44.3327 35.9669 45.547 35.8526 45.2328C35.7097 44.847 36.524 43.0185 37.2811 41.9756C39.1811 39.4185 40.0811 37.347 40.2669 38.6042ZM32.324 43.1756C32.3668 44.3042 33.0383 44.7898 34.1525 44.4899C34.8668 44.3042 34.8668 44.2898 34.5811 44.9613C34.4526 45.2612 34.3812 45.6898 34.4097 45.9185C34.4811 46.3756 34.324 46.4327 33.2241 47.1328C33.0669 47.2327 32.8668 47.1898 32.7669 47.0327C32.1955 46.1612 31.3954 45.7184 30.4954 45.5756C29.5954 45.4327 29.6526 45.5899 29.924 44.1613L30.1526 42.947C30.3383 42.947 31.024 43.1041 31.6669 42.8184C31.9383 42.7041 32.2241 42.5899 32.2241 42.5899C32.2241 42.5899 32.324 42.8612 32.324 43.1756Z" fill="black"/>
<path d="M64.6246 43.2441H60.4996V31.6078H64.6587C65.8292 31.6078 66.8368 31.8407 67.6815 32.3066C68.5262 32.7688 69.1758 33.4335 69.6303 34.301C70.0887 35.1684 70.3178 36.2063 70.3178 37.4146C70.3178 38.6267 70.0887 39.6684 69.6303 40.5396C69.1758 41.4108 68.5224 42.0794 67.6701 42.5453C66.8216 43.0112 65.8065 43.2441 64.6246 43.2441ZM62.9599 41.1362H64.5224C65.2496 41.1362 65.8614 41.0074 66.3576 40.7498C66.8576 40.4885 67.2326 40.085 67.4826 39.5396C67.7364 38.9904 67.8633 38.282 67.8633 37.4146C67.8633 36.5547 67.7364 35.8521 67.4826 35.3066C67.2326 34.7612 66.8595 34.3597 66.3633 34.1021C65.8671 33.8445 65.2553 33.7157 64.5281 33.7157H62.9599V41.1362ZM76.0721 43.4146C75.1744 43.4146 74.4016 43.2328 73.7539 42.8691C73.11 42.5017 72.6138 41.9828 72.2653 41.3123C71.9168 40.6381 71.7425 39.8407 71.7425 38.9203C71.7425 38.0225 71.9168 37.2347 72.2653 36.5566C72.6138 35.8786 73.1043 35.3502 73.7369 34.9714C74.3732 34.5926 75.1194 34.4032 75.9755 34.4032C76.5513 34.4032 77.0872 34.496 77.5835 34.6816C78.0835 34.8635 78.5191 35.1381 78.8903 35.5055C79.2653 35.8729 79.5569 36.335 79.7653 36.8919C79.9736 37.4449 80.0778 38.0926 80.0778 38.835V39.4998H72.7085V37.9998H77.7994C77.7994 37.6513 77.7236 37.3426 77.5721 37.0737C77.4206 36.8047 77.2103 36.5945 76.9414 36.443C76.6763 36.2877 76.3675 36.21 76.0153 36.21C75.6478 36.21 75.3221 36.2953 75.038 36.4657C74.7577 36.6324 74.538 36.8578 74.3789 37.1419C74.2198 37.4222 74.1384 37.7347 74.1346 38.0794V39.5055C74.1346 39.9373 74.2141 40.3104 74.3732 40.6248C74.5361 40.9392 74.7653 41.1816 75.0607 41.3521C75.3562 41.5225 75.7066 41.6078 76.1119 41.6078C76.3808 41.6078 76.627 41.5699 76.8505 41.4941C77.074 41.4184 77.2653 41.3047 77.4244 41.1532C77.5835 41.0017 77.7047 40.8161 77.788 40.5964L80.0266 40.7441C79.913 41.282 79.68 41.7517 79.3278 42.1532C78.9793 42.551 78.5285 42.8616 77.9755 43.085C77.4263 43.3047 76.7918 43.4146 76.0721 43.4146ZM89.5593 34.5169L86.5082 43.2441H83.7809L80.7298 34.5169H83.2866L85.0991 40.7612H85.19L86.9968 34.5169H89.5593ZM94.494 43.4146C93.5962 43.4146 92.8235 43.2328 92.1758 42.8691C91.5318 42.5017 91.0356 41.9828 90.6871 41.3123C90.3387 40.6381 90.1644 39.8407 90.1644 38.9203C90.1644 38.0225 90.3387 37.2347 90.6871 36.5566C91.0356 35.8786 91.5262 35.3502 92.1587 34.9714C92.7951 34.5926 93.5413 34.4032 94.3974 34.4032C94.9731 34.4032 95.5091 34.496 96.0053 34.6816C96.5053 34.8635 96.9409 35.1381 97.3121 35.5055C97.6871 35.8729 97.9788 36.335 98.1871 36.8919C98.3955 37.4449 98.4996 38.0926 98.4996 38.835V39.4998H91.1303V37.9998H96.2212C96.2212 37.6513 96.1455 37.3426 95.994 37.0737C95.8424 36.8047 95.6322 36.5945 95.3633 36.443C95.0981 36.2877 94.7894 36.21 94.4371 36.21C94.0697 36.21 93.744 36.2953 93.4599 36.4657C93.1796 36.6324 92.9599 36.8578 92.8008 37.1419C92.6417 37.4222 92.5603 37.7347 92.5565 38.0794V39.5055C92.5565 39.9373 92.636 40.3104 92.7951 40.6248C92.958 40.9392 93.1871 41.1816 93.4826 41.3521C93.7781 41.5225 94.1284 41.6078 94.5337 41.6078C94.8027 41.6078 95.0489 41.5699 95.2724 41.4941C95.4959 41.4184 95.6871 41.3047 95.8462 41.1532C96.0053 41.0017 96.1265 40.8161 96.2099 40.5964L98.4485 40.7441C98.3349 41.282 98.1019 41.7517 97.7496 42.1532C97.4012 42.551 96.9504 42.8616 96.3974 43.085C95.8481 43.3047 95.2137 43.4146 94.494 43.4146ZM102.5 31.6078V43.2441H100.079V31.6078H102.5ZM108.382 43.4146C107.499 43.4146 106.736 43.2271 106.092 42.8521C105.452 42.4733 104.958 41.9468 104.609 41.2725C104.261 40.5945 104.086 39.8085 104.086 38.9146C104.086 38.0131 104.261 37.2252 104.609 36.551C104.958 35.8729 105.452 35.3464 106.092 34.9714C106.736 34.5926 107.499 34.4032 108.382 34.4032C109.264 34.4032 110.026 34.5926 110.666 34.9714C111.31 35.3464 111.806 35.8729 112.154 36.551C112.503 37.2252 112.677 38.0131 112.677 38.9146C112.677 39.8085 112.503 40.5945 112.154 41.2725C111.806 41.9468 111.31 42.4733 110.666 42.8521C110.026 43.2271 109.264 43.4146 108.382 43.4146ZM108.393 41.5396C108.795 41.5396 109.13 41.426 109.399 41.1987C109.668 40.9676 109.87 40.6532 110.007 40.2555C110.147 39.8578 110.217 39.4051 110.217 38.8975C110.217 38.39 110.147 37.9373 110.007 37.5396C109.87 37.1419 109.668 36.8275 109.399 36.5964C109.13 36.3654 108.795 36.2498 108.393 36.2498C107.988 36.2498 107.647 36.3654 107.37 36.5964C107.098 36.8275 106.891 37.1419 106.751 37.5396C106.615 37.9373 106.547 38.39 106.547 38.8975C106.547 39.4051 106.615 39.8578 106.751 40.2555C106.891 40.6532 107.098 40.9676 107.37 41.1987C107.647 41.426 107.988 41.5396 108.393 41.5396ZM114.251 46.5169V34.5169H116.637V35.9828H116.745C116.851 35.7479 117.005 35.5093 117.206 35.2669C117.41 35.0207 117.675 34.8161 118.001 34.6532C118.331 34.4866 118.74 34.4032 119.228 34.4032C119.865 34.4032 120.452 34.5699 120.99 34.9032C121.528 35.2328 121.958 35.7309 122.279 36.3975C122.601 37.0604 122.762 37.8919 122.762 38.8919C122.762 39.8654 122.605 40.6873 122.291 41.3578C121.98 42.0244 121.556 42.5301 121.018 42.8748C120.484 43.2157 119.886 43.3862 119.223 43.3862C118.753 43.3862 118.353 43.3085 118.024 43.1532C117.698 42.9979 117.431 42.8029 117.223 42.568C117.014 42.3294 116.855 42.0888 116.745 41.8464H116.672V46.5169H114.251ZM116.62 38.8805C116.62 39.3994 116.692 39.8521 116.836 40.2385C116.98 40.6248 117.189 40.926 117.461 41.1419C117.734 41.354 118.065 41.46 118.456 41.46C118.85 41.46 119.183 41.3521 119.456 41.1362C119.728 40.9165 119.935 40.6135 120.075 40.2271C120.219 39.8369 120.291 39.3881 120.291 38.8805C120.291 38.3767 120.221 37.9335 120.081 37.551C119.94 37.1684 119.734 36.8691 119.461 36.6532C119.189 36.4373 118.853 36.3294 118.456 36.3294C118.062 36.3294 117.728 36.4335 117.456 36.6419C117.187 36.8502 116.98 37.1457 116.836 37.5282C116.692 37.9108 116.62 38.3616 116.62 38.8805ZM124.376 43.2441V34.5169H126.683V36.0566H126.785C126.967 35.5453 127.27 35.1419 127.694 34.8464C128.118 34.551 128.626 34.4032 129.217 34.4032C129.815 34.4032 130.325 34.5529 130.745 34.8521C131.166 35.1475 131.446 35.5491 131.586 36.0566H131.677C131.855 35.5566 132.177 35.157 132.643 34.8578C133.113 34.5547 133.668 34.4032 134.308 34.4032C135.122 34.4032 135.783 34.6627 136.291 35.1816C136.802 35.6968 137.058 36.4279 137.058 37.3748V43.2441H134.643V37.8521C134.643 37.3672 134.514 37.0036 134.257 36.7612C133.999 36.5188 133.677 36.3975 133.291 36.3975C132.851 36.3975 132.509 36.5377 132.262 36.818C132.016 37.0945 131.893 37.46 131.893 37.9146V43.2441H129.547V37.801C129.547 37.3729 129.423 37.032 129.177 36.7782C128.935 36.5244 128.615 36.3975 128.217 36.3975C127.948 36.3975 127.706 36.4657 127.49 36.6021C127.278 36.7347 127.109 36.9222 126.984 37.1646C126.859 37.4032 126.797 37.6835 126.797 38.0055V43.2441H124.376ZM142.947 43.4146C142.049 43.4146 141.277 43.2328 140.629 42.8691C139.985 42.5017 139.489 41.9828 139.14 41.3123C138.792 40.6381 138.618 39.8407 138.618 38.9203C138.618 38.0225 138.792 37.2347 139.14 36.5566C139.489 35.8786 139.979 35.3502 140.612 34.9714C141.248 34.5926 141.994 34.4032 142.85 34.4032C143.426 34.4032 143.962 34.496 144.458 34.6816C144.958 34.8635 145.394 35.1381 145.765 35.5055C146.14 35.8729 146.432 36.335 146.64 36.8919C146.849 37.4449 146.953 38.0926 146.953 38.835V39.4998H139.583V37.9998H144.674C144.674 37.6513 144.599 37.3426 144.447 37.0737C144.296 36.8047 144.085 36.5945 143.816 36.443C143.551 36.2877 143.243 36.21 142.89 36.21C142.523 36.21 142.197 36.2953 141.913 36.4657C141.633 36.6324 141.413 36.8578 141.254 37.1419C141.095 37.4222 141.013 37.7347 141.01 38.0794V39.5055C141.01 39.9373 141.089 40.3104 141.248 40.6248C141.411 40.9392 141.64 41.1816 141.936 41.3521C142.231 41.5225 142.582 41.6078 142.987 41.6078C143.256 41.6078 143.502 41.5699 143.725 41.4941C143.949 41.4184 144.14 41.3047 144.299 41.1532C144.458 41.0017 144.58 40.8161 144.663 40.5964L146.902 40.7441C146.788 41.282 146.555 41.7517 146.203 42.1532C145.854 42.551 145.404 42.8616 144.85 43.085C144.301 43.3047 143.667 43.4146 142.947 43.4146ZM150.953 38.1987V43.2441H148.532V34.5169H150.839V36.0566H150.941C151.135 35.5491 151.458 35.1475 151.913 34.8521C152.368 34.5529 152.919 34.4032 153.566 34.4032C154.172 34.4032 154.701 34.5358 155.152 34.801C155.602 35.0661 155.953 35.4449 156.203 35.9373C156.453 36.426 156.578 37.0093 156.578 37.6873V43.2441H154.157V38.1191C154.161 37.585 154.025 37.1684 153.748 36.8691C153.472 36.5661 153.091 36.4146 152.606 36.4146C152.28 36.4146 151.993 36.4847 151.743 36.6248C151.496 36.765 151.303 36.9695 151.163 37.2385C151.027 37.5036 150.957 37.8237 150.953 38.1987ZM163.127 34.5169V36.335H157.872V34.5169H163.127ZM159.065 32.426H161.485V40.5623C161.485 40.7858 161.52 40.96 161.588 41.085C161.656 41.2063 161.751 41.2915 161.872 41.3407C161.997 41.39 162.141 41.4146 162.304 41.4146C162.417 41.4146 162.531 41.4051 162.645 41.3862C162.758 41.3635 162.845 41.3464 162.906 41.335L163.287 43.1362C163.165 43.1741 162.995 43.2176 162.775 43.2669C162.556 43.3199 162.288 43.3521 161.974 43.3635C161.391 43.3862 160.879 43.3085 160.44 43.1305C160.004 42.9525 159.665 42.676 159.423 42.301C159.181 41.926 159.061 41.4525 159.065 40.8805V32.426ZM173.049 34.5169V36.335H167.794V34.5169H173.049ZM168.987 32.426H171.407V40.5623C171.407 40.7858 171.441 40.96 171.51 41.085C171.578 41.2063 171.672 41.2915 171.794 41.3407C171.919 41.39 172.063 41.4146 172.225 41.4146C172.339 41.4146 172.453 41.4051 172.566 41.3862C172.68 41.3635 172.767 41.3464 172.828 41.335L173.208 43.1362C173.087 43.1741 172.917 43.2176 172.697 43.2669C172.477 43.3199 172.21 43.3521 171.896 43.3635C171.313 43.3862 170.801 43.3085 170.362 43.1305C169.926 42.9525 169.587 42.676 169.345 42.301C169.102 41.926 168.983 41.4525 168.987 40.8805V32.426ZM174.626 43.2441V34.5169H177.047V43.2441H174.626ZM175.842 33.3919C175.482 33.3919 175.173 33.2725 174.916 33.0339C174.662 32.7915 174.535 32.5017 174.535 32.1646C174.535 31.8313 174.662 31.5453 174.916 31.3066C175.173 31.0642 175.482 30.943 175.842 30.943C176.202 30.943 176.509 31.0642 176.762 31.3066C177.02 31.5453 177.149 31.8313 177.149 32.1646C177.149 32.5017 177.02 32.7915 176.762 33.0339C176.509 33.2725 176.202 33.3919 175.842 33.3919ZM178.985 43.2441V34.5169H181.292V36.0566H181.395C181.576 35.5453 181.879 35.1419 182.304 34.8464C182.728 34.551 183.235 34.4032 183.826 34.4032C184.425 34.4032 184.934 34.5529 185.355 34.8521C185.775 35.1475 186.056 35.5491 186.196 36.0566H186.287C186.465 35.5566 186.787 35.157 187.252 34.8578C187.722 34.5547 188.277 34.4032 188.917 34.4032C189.732 34.4032 190.393 34.6627 190.9 35.1816C191.412 35.6968 191.667 36.4279 191.667 37.3748V43.2441H189.252V37.8521C189.252 37.3672 189.124 37.0036 188.866 36.7612C188.609 36.5188 188.287 36.3975 187.9 36.3975C187.461 36.3975 187.118 36.5377 186.872 36.818C186.626 37.0945 186.502 37.46 186.502 37.9146V43.2441H184.156V37.801C184.156 37.3729 184.033 37.032 183.787 36.7782C183.544 36.5244 183.224 36.3975 182.826 36.3975C182.557 36.3975 182.315 36.4657 182.099 36.6021C181.887 36.7347 181.718 36.9222 181.593 37.1646C181.468 37.4032 181.406 37.6835 181.406 38.0055V43.2441H178.985ZM197.556 43.4146C196.659 43.4146 195.886 43.2328 195.238 42.8691C194.594 42.5017 194.098 41.9828 193.75 41.3123C193.401 40.6381 193.227 39.8407 193.227 38.9203C193.227 38.0225 193.401 37.2347 193.75 36.5566C194.098 35.8786 194.589 35.3502 195.221 34.9714C195.858 34.5926 196.604 34.4032 197.46 34.4032C198.036 34.4032 198.572 34.496 199.068 34.6816C199.568 34.8635 200.003 35.1381 200.375 35.5055C200.75 35.8729 201.041 36.335 201.25 36.8919C201.458 37.4449 201.562 38.0926 201.562 38.835V39.4998H194.193V37.9998H199.284C199.284 37.6513 199.208 37.3426 199.056 37.0737C198.905 36.8047 198.695 36.5945 198.426 36.443C198.161 36.2877 197.852 36.21 197.5 36.21C197.132 36.21 196.806 36.2953 196.522 36.4657C196.242 36.6324 196.022 36.8578 195.863 37.1419C195.704 37.4222 195.623 37.7347 195.619 38.0794V39.5055C195.619 39.9373 195.699 40.3104 195.858 40.6248C196.02 40.9392 196.25 41.1816 196.545 41.3521C196.841 41.5225 197.191 41.6078 197.596 41.6078C197.865 41.6078 198.111 41.5699 198.335 41.4941C198.558 41.4184 198.75 41.3047 198.909 41.1532C199.068 41.0017 199.189 40.8161 199.272 40.5964L201.511 40.7441C201.397 41.282 201.164 41.7517 200.812 42.1532C200.464 42.551 200.013 42.8616 199.46 43.085C198.911 43.3047 198.276 43.4146 197.556 43.4146ZM204.556 43.3919C204.181 43.3919 203.859 43.2593 203.591 42.9941C203.325 42.7252 203.193 42.4032 203.193 42.0282C203.193 41.657 203.325 41.3388 203.591 41.0737C203.859 40.8085 204.181 40.676 204.556 40.676C204.92 40.676 205.238 40.8085 205.511 41.0737C205.784 41.3388 205.92 41.657 205.92 42.0282C205.92 42.2782 205.856 42.5074 205.727 42.7157C205.602 42.9203 205.437 43.085 205.233 43.21C205.028 43.3313 204.803 43.3919 204.556 43.3919ZM204.556 37.2782C204.181 37.2782 203.859 37.1457 203.591 36.8805C203.325 36.6154 203.193 36.2934 203.193 35.9146C203.193 35.5434 203.325 35.2271 203.591 34.9657C203.859 34.7006 204.181 34.568 204.556 34.568C204.92 34.568 205.238 34.7006 205.511 34.9657C205.784 35.2271 205.92 35.5434 205.92 35.9146C205.92 36.1684 205.856 36.3994 205.727 36.6078C205.602 36.8123 205.437 36.9752 205.233 37.0964C205.028 37.2176 204.803 37.2782 204.556 37.2782Z" fill="black"/>
<path d="M224.363 40.9714V39.551L229.392 31.6078H230.511V33.6987H229.801L226.204 39.3919V39.4828H233.096V40.9714H224.363ZM229.88 43.2441V40.5396L229.892 39.8919V31.6078H231.556V43.2441H229.88ZM244.475 36.6873V38.1646H239.316V36.6873H244.475ZM255.014 43.4032C254.495 43.3957 253.984 43.301 253.48 43.1191C252.98 42.9373 252.525 42.6343 252.116 42.21C251.707 41.7858 251.379 41.2157 251.133 40.4998C250.891 39.7839 250.77 38.89 250.77 37.818C250.77 36.8029 250.87 35.9013 251.071 35.1135C251.275 34.3256 251.569 33.6608 251.951 33.1191C252.334 32.5737 252.796 32.1589 253.338 31.8748C253.879 31.5907 254.487 31.4487 255.162 31.4487C255.855 31.4487 256.47 31.585 257.008 31.8578C257.546 32.1305 257.982 32.5074 258.315 32.9885C258.652 33.4695 258.866 34.0169 258.957 34.6305H257.224C257.107 34.1457 256.874 33.7498 256.525 33.443C256.177 33.1362 255.722 32.9828 255.162 32.9828C254.309 32.9828 253.645 33.354 253.167 34.0964C252.694 34.8388 252.455 35.871 252.451 37.193H252.537C252.737 36.8635 252.984 36.5832 253.275 36.3521C253.571 36.1172 253.9 35.9373 254.264 35.8123C254.631 35.6835 255.018 35.6191 255.423 35.6191C256.097 35.6191 256.707 35.7839 257.252 36.1135C257.802 36.4392 258.239 36.89 258.565 37.4657C258.891 38.0415 259.054 38.7006 259.054 39.443C259.054 40.1854 258.885 40.8578 258.548 41.46C258.215 42.0623 257.745 42.5396 257.139 42.8919C256.533 43.2404 255.824 43.4108 255.014 43.4032ZM255.008 41.926C255.455 41.926 255.855 41.8161 256.207 41.5964C256.559 41.3767 256.838 41.0813 257.042 40.71C257.247 40.3388 257.349 39.9241 257.349 39.4657C257.349 39.0188 257.249 38.6116 257.048 38.2441C256.851 37.8767 256.578 37.585 256.23 37.3691C255.885 37.1532 255.491 37.0453 255.048 37.0453C254.711 37.0453 254.398 37.1097 254.11 37.2385C253.826 37.3672 253.576 37.5453 253.36 37.7725C253.145 37.9998 252.974 38.2612 252.849 38.5566C252.728 38.8483 252.667 39.157 252.667 39.4828C252.667 39.9184 252.768 40.3218 252.968 40.693C253.173 41.0642 253.451 41.3635 253.804 41.5907C254.16 41.8142 254.561 41.926 255.008 41.926ZM267.272 43.2441L264.704 34.5169H266.46L268.17 40.926H268.255L269.971 34.5169H271.727L273.431 40.8975H273.517L275.216 34.5169H276.971L274.409 43.2441H272.676L270.903 36.943H270.772L269 43.2441H267.272ZM282.079 43.4203C281.219 43.4203 280.479 43.2366 279.858 42.8691C279.24 42.4979 278.763 41.9771 278.426 41.3066C278.092 40.6324 277.926 39.8426 277.926 38.9373C277.926 38.0434 278.092 37.2555 278.426 36.5737C278.763 35.8919 279.233 35.3597 279.835 34.9771C280.441 34.5945 281.149 34.4032 281.96 34.4032C282.452 34.4032 282.93 34.4847 283.392 34.6475C283.854 34.8104 284.269 35.0661 284.636 35.4146C285.003 35.7631 285.293 36.2157 285.505 36.7725C285.717 37.3256 285.824 37.9979 285.824 38.7896V39.3919H278.886V38.1191H284.159C284.159 37.6722 284.068 37.2763 283.886 36.9316C283.704 36.5832 283.449 36.3085 283.119 36.1078C282.793 35.907 282.411 35.8066 281.971 35.8066C281.494 35.8066 281.077 35.9241 280.721 36.1589C280.369 36.39 280.096 36.693 279.903 37.068C279.714 37.4392 279.619 37.8426 279.619 38.2782V39.2725C279.619 39.8559 279.721 40.3521 279.926 40.7612C280.134 41.1703 280.424 41.4828 280.795 41.6987C281.166 41.9108 281.6 42.0169 282.096 42.0169C282.418 42.0169 282.712 41.9714 282.977 41.8805C283.242 41.7858 283.471 41.6457 283.664 41.46C283.858 41.2744 284.005 41.0453 284.108 40.7725L285.716 41.0623C285.587 41.5358 285.356 41.9506 285.022 42.3066C284.693 42.6589 284.278 42.9335 283.778 43.1305C283.282 43.3237 282.716 43.4203 282.079 43.4203ZM291.47 43.4203C290.61 43.4203 289.869 43.2366 289.248 42.8691C288.631 42.4979 288.154 41.9771 287.816 41.3066C287.483 40.6324 287.316 39.8426 287.316 38.9373C287.316 38.0434 287.483 37.2555 287.816 36.5737C288.154 35.8919 288.623 35.3597 289.225 34.9771C289.832 34.5945 290.54 34.4032 291.35 34.4032C291.843 34.4032 292.32 34.4847 292.782 34.6475C293.244 34.8104 293.659 35.0661 294.027 35.4146C294.394 35.7631 294.684 36.2157 294.896 36.7725C295.108 37.3256 295.214 37.9979 295.214 38.7896V39.3919H288.277V38.1191H293.549C293.549 37.6722 293.458 37.2763 293.277 36.9316C293.095 36.5832 292.839 36.3085 292.51 36.1078C292.184 35.907 291.801 35.8066 291.362 35.8066C290.885 35.8066 290.468 35.9241 290.112 36.1589C289.76 36.39 289.487 36.693 289.294 37.068C289.104 37.4392 289.01 37.8426 289.01 38.2782V39.2725C289.01 39.8559 289.112 40.3521 289.316 40.7612C289.525 41.1703 289.815 41.4828 290.186 41.6987C290.557 41.9108 290.991 42.0169 291.487 42.0169C291.809 42.0169 292.102 41.9714 292.368 41.8805C292.633 41.7858 292.862 41.6457 293.055 41.46C293.248 41.2744 293.396 41.0453 293.498 40.7725L295.106 41.0623C294.977 41.5358 294.746 41.9506 294.413 42.3066C294.083 42.6589 293.669 42.9335 293.169 43.1305C292.672 43.3237 292.106 43.4203 291.47 43.4203ZM298.662 40.2839L298.65 38.21H298.946L302.423 34.5169H304.457L300.491 38.7214H300.224L298.662 40.2839ZM297.099 43.2441V31.6078H298.798V43.2441H297.099ZM302.61 43.2441L299.485 39.0964L300.656 37.9089L304.696 43.2441H302.61ZM312.545 36.6475L311.005 36.9203C310.941 36.7233 310.839 36.5358 310.699 36.3578C310.562 36.1797 310.377 36.0339 310.142 35.9203C309.907 35.8066 309.613 35.7498 309.261 35.7498C308.78 35.7498 308.378 35.8578 308.056 36.0737C307.734 36.2858 307.574 36.5604 307.574 36.8975C307.574 37.1892 307.681 37.4241 307.897 37.6021C308.113 37.7801 308.462 37.926 308.943 38.0396L310.329 38.3578C311.132 38.5434 311.731 38.8294 312.125 39.2157C312.519 39.6021 312.716 40.104 312.716 40.7214C312.716 41.2441 312.564 41.71 312.261 42.1191C311.962 42.5244 311.543 42.8426 311.005 43.0737C310.471 43.3047 309.852 43.4203 309.147 43.4203C308.17 43.4203 307.373 43.2119 306.755 42.7953C306.138 42.3748 305.759 41.7782 305.619 41.0055L307.261 40.7555C307.363 41.1835 307.574 41.5074 307.892 41.7271C308.21 41.943 308.625 42.051 309.136 42.051C309.693 42.051 310.138 41.9354 310.471 41.7044C310.805 41.4695 310.971 41.1835 310.971 40.8464C310.971 40.5737 310.869 40.3445 310.664 40.1589C310.464 39.9733 310.155 39.8332 309.738 39.7385L308.261 39.4146C307.447 39.229 306.844 38.9335 306.454 38.5282C306.068 38.1229 305.875 37.6097 305.875 36.9885C305.875 36.4733 306.019 36.0225 306.306 35.6362C306.594 35.2498 306.992 34.9487 307.5 34.7328C308.007 34.5131 308.589 34.4032 309.244 34.4032C310.187 34.4032 310.93 34.6078 311.471 35.0169C312.013 35.4222 312.371 35.9657 312.545 36.6475Z" fill="black"/>
<path fill-rule="evenodd" clip-rule="evenodd" d="M345.121 25.7623C344.649 25.948 344.721 26.3052 345.263 26.4481C345.935 26.6195 346.178 28.3339 345.521 28.3339C344.706 28.3339 341.906 29.6197 340.906 30.4483C340.677 30.6482 340.578 30.5197 340.02 30.0625C340.792 29.2482 341.378 28.7625 340.22 28.7625C339.42 28.7625 337.235 30.5339 337.235 31.1911C337.235 31.434 338.063 31.4912 338.563 31.2769C339.135 31.034 339.077 31.0768 339.663 31.7055L339.363 31.9768C335.434 35.5055 332.692 47.9918 346.378 49.749C352.778 50.5776 357.692 46.9774 358.35 40.9772L358.45 40.1058L359.221 40.0057C360.793 39.82 360.578 37.6628 358.978 37.4056C358.65 37.3485 358.364 37.2342 358.335 37.1342C357.321 33.3483 355.435 30.7196 354.221 31.3339C353.849 31.5196 353.907 31.6483 354.535 32.0054C357.007 33.4055 357.835 40.3915 355.95 44.0202C351.721 52.149 338.92 49.9061 338.035 40.8772C337.177 32.1625 344.806 26.4624 352.264 30.234C353.249 30.734 354.421 30.734 355.164 30.2196L355.707 29.8482L356.05 30.2196C357.192 31.4483 358.15 30.4769 357.05 29.2197C355.707 27.6768 353.649 27.191 354.45 28.6053C355.035 29.6482 354.221 29.9196 352.621 29.2339C351.992 28.9624 351.021 28.6339 350.449 28.5053L349.421 28.2767C349.421 27.8625 349.435 27.1338 349.335 26.6052C349.249 26.1766 349.264 26.1623 349.749 26.1623C350.306 26.1623 350.578 25.9195 350.264 25.7195C349.964 25.5766 345.535 25.5909 345.121 25.7623ZM348.378 28.191H347.092V27.3481C347.092 26.4481 347.121 26.4195 348.063 26.3624C348.421 26.3338 348.378 26.3909 348.378 28.191ZM346.906 30.2768C346.535 30.6482 346.935 32.3912 347.421 32.5483C347.992 32.734 348.364 31.2339 347.935 30.4483C347.792 30.191 347.106 30.0768 346.906 30.2768ZM343.878 32.2197C344.149 33.4913 345.706 36.3056 346.349 37.5342L346.078 38.0342C345.735 38.6485 345.735 39.2057 346.049 39.4915C347.363 40.6772 349.764 43.163 350.749 43.8201C351.849 44.5345 354.35 44.3059 352.578 41.8058C351.807 40.7057 350.221 39.2772 349.364 38.2199C349.006 37.7628 348.778 37.6199 348.478 37.6199C348.006 37.6199 347.792 37.8914 348.121 38.0771C348.392 38.2199 348.435 38.92 348.206 39.3486C347.835 40.0343 346.421 39.2772 346.749 38.5771C346.849 38.3771 347.035 38.2057 347.178 38.2057C347.563 38.2057 347.878 37.6342 347.578 37.4628C347.449 37.3913 347.149 36.9341 346.906 36.4485C345.921 34.477 345.106 33.0197 344.549 32.2197C343.949 31.2625 343.663 31.2054 343.878 32.2197ZM353.621 38.5057C353.107 38.8914 353.564 39.12 354.85 39.0914C356.25 39.0629 356.878 38.8342 356.45 38.52C356.092 38.2771 353.949 38.2629 353.621 38.5057ZM338.82 38.7628C338.263 38.9914 338.706 39.2914 339.72 39.4057C340.763 39.52 341.263 39.4057 341.206 39.0771C341.12 38.6771 339.563 38.4771 338.82 38.7628ZM347.178 45.6488C347.035 46.6774 347.249 47.2631 347.735 47.2631C348.364 47.2631 348.492 46.9203 348.235 45.9489C347.935 44.8059 347.306 44.6345 347.178 45.6488Z" fill="black"/>
<path d="M378.704 35.3701C378.624 35.0936 378.513 34.8493 378.369 34.6372C378.225 34.4213 378.049 34.2394 377.84 34.0917C377.636 33.9402 377.401 33.8247 377.136 33.7451C376.874 33.6656 376.585 33.6258 376.266 33.6258C375.672 33.6258 375.149 33.7735 374.698 34.069C374.251 34.3644 373.903 34.7944 373.653 35.3588C373.403 35.9194 373.278 36.605 373.278 37.4156C373.278 38.2262 373.401 38.9156 373.647 39.4838C373.893 40.0519 374.242 40.4856 374.692 40.7849C375.143 41.0803 375.675 41.2281 376.289 41.2281C376.846 41.2281 377.321 41.1296 377.715 40.9326C378.113 40.7319 378.416 40.4497 378.624 40.086C378.836 39.7224 378.942 39.2925 378.942 38.7963L379.442 38.8701H376.442V37.0178H381.312V38.4838C381.312 39.5065 381.096 40.3853 380.664 41.1201C380.232 41.8512 379.638 42.4156 378.88 42.8133C378.122 43.2072 377.255 43.4042 376.278 43.4042C375.187 43.4042 374.228 43.1637 373.403 42.6826C372.577 42.1978 371.933 41.5103 371.471 40.6201C371.013 39.7262 370.783 38.6656 370.783 37.4383C370.783 36.4951 370.92 35.6542 371.192 34.9156C371.469 34.1731 371.855 33.5444 372.352 33.0292C372.848 32.5141 373.425 32.122 374.085 31.8531C374.744 31.5841 375.458 31.4497 376.227 31.4497C376.886 31.4497 377.499 31.5463 378.067 31.7394C378.636 31.9288 379.139 32.1978 379.579 32.5463C380.022 32.8947 380.384 33.3095 380.664 33.7906C380.944 34.2678 381.124 34.7944 381.204 35.3701H378.704ZM385.603 43.4099C385.046 43.4099 384.55 43.3133 384.114 43.1201C383.679 42.9231 383.334 42.6334 383.08 42.2508C382.83 41.8644 382.705 41.3834 382.705 40.8076C382.705 40.3228 382.794 39.9156 382.972 39.586C383.15 39.2565 383.393 38.9913 383.7 38.7906C384.006 38.5898 384.355 38.4383 384.745 38.336C385.139 38.2338 385.552 38.1618 385.984 38.1201C386.491 38.0671 386.9 38.0178 387.211 37.9724C387.522 37.9231 387.747 37.8512 387.887 37.7565C388.027 37.6618 388.097 37.5216 388.097 37.336V37.3019C388.097 36.9421 387.984 36.6637 387.756 36.4667C387.533 36.2697 387.215 36.1713 386.802 36.1713C386.366 36.1713 386.02 36.2678 385.762 36.461C385.504 36.6504 385.334 36.8891 385.251 37.1769L383.012 36.9951C383.126 36.4648 383.349 36.0065 383.683 35.6201C384.016 35.23 384.446 34.9307 384.972 34.7224C385.503 34.5103 386.116 34.4042 386.813 34.4042C387.298 34.4042 387.762 34.461 388.205 34.5747C388.652 34.6883 389.048 34.8644 389.393 35.1031C389.741 35.3417 390.016 35.6485 390.217 36.0235C390.417 36.3947 390.518 36.8398 390.518 37.3588V43.2451H388.222V42.0349H388.154C388.014 42.3076 387.826 42.5481 387.592 42.7565C387.357 42.961 387.075 43.122 386.745 43.2394C386.415 43.3531 386.035 43.4099 385.603 43.4099ZM386.296 41.7394C386.652 41.7394 386.967 41.6694 387.239 41.5292C387.512 41.3853 387.726 41.1921 387.881 40.9497C388.037 40.7072 388.114 40.4326 388.114 40.1258V39.1997C388.039 39.2489 387.934 39.2944 387.802 39.336C387.673 39.3739 387.527 39.4099 387.364 39.444C387.201 39.4743 387.039 39.5027 386.876 39.5292C386.713 39.5519 386.565 39.5728 386.433 39.5917C386.148 39.6334 385.9 39.6997 385.688 39.7906C385.476 39.8815 385.311 40.0046 385.194 40.1599C385.076 40.3114 385.018 40.5008 385.018 40.7281C385.018 41.0576 385.137 41.3095 385.376 41.4838C385.618 41.6542 385.925 41.7394 386.296 41.7394ZM392.396 43.2451V34.5178H394.702V36.0576H394.805C394.987 35.5463 395.29 35.1428 395.714 34.8474C396.138 34.5519 396.646 34.4042 397.237 34.4042C397.835 34.4042 398.344 34.5538 398.765 34.8531C399.185 35.1485 399.466 35.55 399.606 36.0576H399.697C399.875 35.5576 400.197 35.158 400.663 34.8588C401.132 34.5557 401.687 34.4042 402.327 34.4042C403.142 34.4042 403.803 34.6637 404.31 35.1826C404.822 35.6978 405.077 36.4288 405.077 37.3758V43.2451H402.663V37.8531C402.663 37.3682 402.534 37.0046 402.276 36.7622C402.019 36.5197 401.697 36.3985 401.31 36.3985C400.871 36.3985 400.528 36.5387 400.282 36.819C400.036 37.0955 399.913 37.461 399.913 37.9156V43.2451H397.566V37.8019C397.566 37.3739 397.443 37.033 397.197 36.7792C396.954 36.5254 396.634 36.3985 396.237 36.3985C395.968 36.3985 395.725 36.4667 395.509 36.6031C395.297 36.7356 395.129 36.9231 395.004 37.1656C394.879 37.4042 394.816 37.6845 394.816 38.0065V43.2451H392.396ZM410.967 43.4156C410.069 43.4156 409.296 43.2338 408.648 42.8701C408.004 42.5027 407.508 41.9838 407.16 41.3133C406.811 40.6391 406.637 39.8417 406.637 38.9213C406.637 38.0235 406.811 37.2356 407.16 36.5576C407.508 35.8796 407.999 35.3512 408.631 34.9724C409.268 34.5936 410.014 34.4042 410.87 34.4042C411.446 34.4042 411.982 34.497 412.478 34.6826C412.978 34.8644 413.414 35.1391 413.785 35.5065C414.16 35.8739 414.451 36.336 414.66 36.8928C414.868 37.4459 414.972 38.0936 414.972 38.836V39.5008H407.603V38.0008H412.694C412.694 37.6523 412.618 37.3436 412.467 37.0747C412.315 36.8057 412.105 36.5955 411.836 36.444C411.571 36.2887 411.262 36.211 410.91 36.211C410.542 36.211 410.217 36.2963 409.933 36.4667C409.652 36.6334 409.433 36.8588 409.273 37.1428C409.114 37.4231 409.033 37.7356 409.029 38.0803V39.5065C409.029 39.9383 409.109 40.3114 409.268 40.6258C409.431 40.9402 409.66 41.1826 409.955 41.3531C410.251 41.5235 410.601 41.6088 411.006 41.6088C411.275 41.6088 411.522 41.5709 411.745 41.4951C411.969 41.4194 412.16 41.3057 412.319 41.1542C412.478 41.0027 412.599 40.8171 412.683 40.5974L414.921 40.7451C414.808 41.283 414.575 41.7527 414.222 42.1542C413.874 42.5519 413.423 42.8625 412.87 43.086C412.321 43.3057 411.686 43.4156 410.967 43.4156ZM423.471 43.3872C422.808 43.3872 422.208 43.2167 421.67 42.8758C421.136 42.5311 420.711 42.0254 420.397 41.3588C420.086 40.6883 419.931 39.8663 419.931 38.8928C419.931 37.8928 420.092 37.0614 420.414 36.3985C420.736 35.7319 421.164 35.2338 421.698 34.9042C422.236 34.5709 422.825 34.4042 423.465 34.4042C423.954 34.4042 424.361 34.4875 424.687 34.6542C425.016 34.8171 425.281 35.0216 425.482 35.2678C425.687 35.5103 425.842 35.7489 425.948 35.9838H426.022V31.6088H428.437V43.2451H426.05V41.8474H425.948C425.835 42.0898 425.674 42.3303 425.465 42.569C425.261 42.8038 424.994 42.9989 424.664 43.1542C424.338 43.3095 423.941 43.3872 423.471 43.3872ZM424.238 41.461C424.628 41.461 424.958 41.355 425.227 41.1428C425.499 40.9269 425.708 40.6258 425.852 40.2394C425.999 39.8531 426.073 39.4004 426.073 38.8815C426.073 38.3625 426.001 37.9118 425.857 37.5292C425.713 37.1466 425.505 36.8512 425.232 36.6428C424.96 36.4345 424.628 36.3303 424.238 36.3303C423.84 36.3303 423.505 36.4383 423.232 36.6542C422.96 36.8701 422.753 37.1694 422.613 37.5519C422.473 37.9345 422.403 38.3777 422.403 38.8815C422.403 39.3891 422.473 39.8379 422.613 40.2281C422.757 40.6144 422.963 40.9175 423.232 41.1372C423.505 41.3531 423.84 41.461 424.238 41.461ZM436.023 39.5292V34.5178H438.444V43.2451H436.12V41.6599H436.029C435.832 42.1713 435.504 42.5822 435.046 42.8928C434.592 43.2035 434.037 43.3588 433.381 43.3588C432.798 43.3588 432.285 43.2262 431.842 42.961C431.398 42.6959 431.052 42.319 430.802 41.8303C430.556 41.3417 430.431 40.7565 430.427 40.0747V34.5178H432.847V39.6428C432.851 40.158 432.989 40.5652 433.262 40.8644C433.535 41.1637 433.9 41.3133 434.359 41.3133C434.65 41.3133 434.923 41.247 435.177 41.1144C435.431 40.9781 435.635 40.7773 435.79 40.5122C435.95 40.247 436.027 39.9194 436.023 39.5292ZM440.38 43.2451V34.5178H442.727V36.0406H442.817C442.977 35.4989 443.244 35.0898 443.619 34.8133C443.994 34.533 444.425 34.3928 444.914 34.3928C445.035 34.3928 445.166 34.4004 445.306 34.4156C445.446 34.4307 445.569 34.4516 445.675 34.4781V36.6258C445.562 36.5917 445.405 36.5614 445.204 36.5349C445.003 36.5084 444.819 36.4951 444.653 36.4951C444.297 36.4951 443.978 36.5728 443.698 36.7281C443.422 36.8796 443.202 37.0917 443.039 37.3644C442.88 37.6372 442.8 37.9516 442.8 38.3076V43.2451H440.38ZM449.165 43.4099C448.609 43.4099 448.112 43.3133 447.677 43.1201C447.241 42.9231 446.897 42.6334 446.643 42.2508C446.393 41.8644 446.268 41.3834 446.268 40.8076C446.268 40.3228 446.357 39.9156 446.535 39.586C446.713 39.2565 446.955 38.9913 447.262 38.7906C447.569 38.5898 447.917 38.4383 448.308 38.336C448.701 38.2338 449.114 38.1618 449.546 38.1201C450.054 38.0671 450.463 38.0178 450.773 37.9724C451.084 37.9231 451.309 37.8512 451.45 37.7565C451.59 37.6618 451.66 37.5216 451.66 37.336V37.3019C451.66 36.9421 451.546 36.6637 451.319 36.4667C451.095 36.2697 450.777 36.1713 450.364 36.1713C449.929 36.1713 449.582 36.2678 449.325 36.461C449.067 36.6504 448.897 36.8891 448.813 37.1769L446.575 36.9951C446.688 36.4648 446.912 36.0065 447.245 35.6201C447.578 35.23 448.008 34.9307 448.535 34.7224C449.065 34.5103 449.679 34.4042 450.376 34.4042C450.861 34.4042 451.325 34.461 451.768 34.5747C452.215 34.6883 452.611 34.8644 452.955 35.1031C453.304 35.3417 453.578 35.6485 453.779 36.0235C453.98 36.3947 454.08 36.8398 454.08 37.3588V43.2451H451.785V42.0349H451.717C451.576 42.3076 451.389 42.5481 451.154 42.7565C450.919 42.961 450.637 43.122 450.308 43.2394C449.978 43.3531 449.597 43.4099 449.165 43.4099ZM449.859 41.7394C450.215 41.7394 450.529 41.6694 450.802 41.5292C451.075 41.3853 451.289 41.1921 451.444 40.9497C451.599 40.7072 451.677 40.4326 451.677 40.1258V39.1997C451.601 39.2489 451.497 39.2944 451.364 39.336C451.236 39.3739 451.09 39.4099 450.927 39.444C450.764 39.4743 450.601 39.5027 450.438 39.5292C450.275 39.5519 450.128 39.5728 449.995 39.5917C449.711 39.6334 449.463 39.6997 449.251 39.7906C449.039 39.8815 448.874 40.0046 448.756 40.1599C448.639 40.3114 448.58 40.5008 448.58 40.7281C448.58 41.0576 448.7 41.3095 448.938 41.4838C449.181 41.6542 449.487 41.7394 449.859 41.7394ZM460.6 34.5178V36.336H455.344V34.5178H460.6ZM456.538 32.4269H458.958V40.5633C458.958 40.7868 458.992 40.961 459.06 41.086C459.129 41.2072 459.223 41.2925 459.344 41.3417C459.469 41.391 459.613 41.4156 459.776 41.4156C459.89 41.4156 460.004 41.4061 460.117 41.3872C460.231 41.3644 460.318 41.3474 460.379 41.336L460.759 43.1372C460.638 43.175 460.468 43.2186 460.248 43.2678C460.028 43.3209 459.761 43.3531 459.447 43.3644C458.863 43.3872 458.352 43.3095 457.913 43.1315C457.477 42.9535 457.138 42.6769 456.896 42.3019C456.653 41.9269 456.534 41.4535 456.538 40.8815V32.4269ZM462.177 43.2451V34.5178H464.597V43.2451H462.177ZM463.393 33.3928C463.033 33.3928 462.724 33.2735 462.467 33.0349C462.213 32.7925 462.086 32.5027 462.086 32.1656C462.086 31.8322 462.213 31.5463 462.467 31.3076C462.724 31.0652 463.033 30.944 463.393 30.944C463.753 30.944 464.059 31.0652 464.313 31.3076C464.571 31.5463 464.7 31.8322 464.7 32.1656C464.7 32.5027 464.571 32.7925 464.313 33.0349C464.059 33.2735 463.753 33.3928 463.393 33.3928ZM470.479 43.4156C469.597 43.4156 468.834 43.2281 468.19 42.8531C467.549 42.4743 467.055 41.9478 466.707 41.2735C466.358 40.5955 466.184 39.8095 466.184 38.9156C466.184 38.0141 466.358 37.2262 466.707 36.5519C467.055 35.8739 467.549 35.3474 468.19 34.9724C468.834 34.5936 469.597 34.4042 470.479 34.4042C471.362 34.4042 472.123 34.5936 472.763 34.9724C473.407 35.3474 473.904 35.8739 474.252 36.5519C474.601 37.2262 474.775 38.0141 474.775 38.9156C474.775 39.8095 474.601 40.5955 474.252 41.2735C473.904 41.9478 473.407 42.4743 472.763 42.8531C472.123 43.2281 471.362 43.4156 470.479 43.4156ZM470.491 41.5406C470.892 41.5406 471.228 41.4269 471.496 41.1997C471.765 40.9686 471.968 40.6542 472.104 40.2565C472.245 39.8588 472.315 39.4061 472.315 38.8985C472.315 38.391 472.245 37.9383 472.104 37.5406C471.968 37.1428 471.765 36.8285 471.496 36.5974C471.228 36.3663 470.892 36.2508 470.491 36.2508C470.085 36.2508 469.745 36.3663 469.468 36.5974C469.195 36.8285 468.989 37.1428 468.849 37.5406C468.712 37.9383 468.644 38.391 468.644 38.8985C468.644 39.4061 468.712 39.8588 468.849 40.2565C468.989 40.6542 469.195 40.9686 469.468 41.1997C469.745 41.4269 470.085 41.5406 470.491 41.5406ZM478.769 38.1997V43.2451H476.349V34.5178H478.656V36.0576H478.758C478.951 35.55 479.275 35.1485 479.729 34.8531C480.184 34.5538 480.735 34.4042 481.383 34.4042C481.989 34.4042 482.517 34.5368 482.968 34.8019C483.419 35.0671 483.769 35.4459 484.019 35.9383C484.269 36.4269 484.394 37.0103 484.394 37.6883V43.2451H481.974V38.1201C481.978 37.586 481.841 37.1694 481.565 36.8701C481.288 36.5671 480.907 36.4156 480.423 36.4156C480.097 36.4156 479.809 36.4856 479.559 36.6258C479.313 36.766 479.12 36.9705 478.979 37.2394C478.843 37.5046 478.773 37.8247 478.769 38.1997ZM487.717 43.3928C487.342 43.3928 487.02 43.2603 486.751 42.9951C486.486 42.7262 486.353 42.4042 486.353 42.0292C486.353 41.658 486.486 41.3398 486.751 41.0747C487.02 40.8095 487.342 40.6769 487.717 40.6769C488.08 40.6769 488.398 40.8095 488.671 41.0747C488.944 41.3398 489.08 41.658 489.08 42.0292C489.08 42.2792 489.016 42.5084 488.887 42.7167C488.762 42.9213 488.597 43.086 488.393 43.211C488.188 43.3322 487.963 43.3928 487.717 43.3928ZM487.717 37.2792C487.342 37.2792 487.02 37.1466 486.751 36.8815C486.486 36.6163 486.353 36.2944 486.353 35.9156C486.353 35.5444 486.486 35.2281 486.751 34.9667C487.02 34.7016 487.342 34.569 487.717 34.569C488.08 34.569 488.398 34.7016 488.671 34.9667C488.944 35.2281 489.08 35.5444 489.08 35.9156C489.08 36.1694 489.016 36.4004 488.887 36.6088C488.762 36.8133 488.597 36.9762 488.393 37.0974C488.188 37.2186 487.963 37.2792 487.717 37.2792Z" fill="black"/>
<path d="M512.511 31.6088V43.2451H510.749V33.3701H510.681L507.897 35.1883V33.5065L510.8 31.6088H512.511ZM521.614 38.0633V43.2451H519.915V31.6088H521.592V35.9383H521.7C521.904 35.4686 522.217 35.0955 522.637 34.819C523.058 34.5425 523.607 34.4042 524.285 34.4042C524.883 34.4042 525.406 34.5273 525.853 34.7735C526.304 35.0197 526.652 35.3872 526.898 35.8758C527.148 36.3606 527.273 36.9667 527.273 37.694V43.2451H525.575V37.8985C525.575 37.2584 525.41 36.7622 525.08 36.4099C524.751 36.0538 524.292 35.8758 523.705 35.8758C523.304 35.8758 522.944 35.961 522.626 36.1315C522.311 36.3019 522.063 36.5519 521.881 36.8815C521.703 37.2072 521.614 37.6012 521.614 38.0633ZM533.217 43.4213C532.398 43.4213 531.684 43.2338 531.075 42.8588C530.465 42.4838 529.991 41.9591 529.654 41.2849C529.317 40.6106 529.148 39.8228 529.148 38.9213C529.148 38.016 529.317 37.2243 529.654 36.5463C529.991 35.8682 530.465 35.3417 531.075 34.9667C531.684 34.5917 532.398 34.4042 533.217 34.4042C534.035 34.4042 534.749 34.5917 535.359 34.9667C535.969 35.3417 536.442 35.8682 536.779 36.5463C537.116 37.2243 537.285 38.016 537.285 38.9213C537.285 39.8228 537.116 40.6106 536.779 41.2849C536.442 41.9591 535.969 42.4838 535.359 42.8588C534.749 43.2338 534.035 43.4213 533.217 43.4213ZM533.222 41.9951C533.753 41.9951 534.192 41.855 534.54 41.5747C534.889 41.2944 535.147 40.9213 535.313 40.4553C535.484 39.9894 535.569 39.4762 535.569 38.9156C535.569 38.3588 535.484 37.8474 535.313 37.3815C535.147 36.9118 534.889 36.5349 534.54 36.2508C534.192 35.9667 533.753 35.8247 533.222 35.8247C532.688 35.8247 532.245 35.9667 531.893 36.2508C531.544 36.5349 531.285 36.9118 531.114 37.3815C530.948 37.8474 530.864 38.3588 530.864 38.9156C530.864 39.4762 530.948 39.9894 531.114 40.4553C531.285 40.9213 531.544 41.2944 531.893 41.5747C532.245 41.855 532.688 41.9951 533.222 41.9951ZM544.71 39.6258V34.5178H546.414V43.2451H544.744V41.7338H544.653C544.452 42.1997 544.13 42.5879 543.687 42.8985C543.247 43.2053 542.7 43.3588 542.045 43.3588C541.484 43.3588 540.988 43.2356 540.556 42.9894C540.128 42.7394 539.791 42.3701 539.545 41.8815C539.302 41.3928 539.181 40.7887 539.181 40.069V34.5178H540.88V39.8644C540.88 40.4591 541.045 40.9326 541.374 41.2849C541.704 41.6372 542.132 41.8133 542.658 41.8133C542.977 41.8133 543.293 41.7338 543.607 41.5747C543.925 41.4156 544.189 41.175 544.397 40.8531C544.609 40.5311 544.713 40.122 544.71 39.6258ZM548.697 43.2451V34.5178H550.339V35.9042H550.43C550.589 35.4345 550.869 35.0652 551.271 34.7963C551.676 34.5235 552.134 34.3872 552.646 34.3872C552.752 34.3872 552.877 34.391 553.021 34.3985C553.168 34.4061 553.284 34.4156 553.367 34.4269V36.0519C553.299 36.033 553.178 36.0122 553.004 35.9894C552.829 35.9629 552.655 35.9497 552.481 35.9497C552.079 35.9497 551.721 36.0349 551.407 36.2053C551.096 36.372 550.85 36.605 550.668 36.9042C550.487 37.1997 550.396 37.5368 550.396 37.9156V43.2451H548.697Z" fill="black"/>
<path fill-rule="evenodd" clip-rule="evenodd" d="M35.4967 85.0692C32.1108 85.412 31.5536 85.7835 30.8107 88.2122C27.2106 99.9269 27.0677 107.341 27.0963 106.856C27.0534 107.556 27.2249 108.242 27.5678 108.856C28.3964 110.313 29.225 110.842 31.2537 111.213C35.9823 112.084 40.5254 111.213 42.8969 110.356C44.9827 109.599 44.354 109.142 44.8684 107.527C46.397 102.827 48.8829 92.0266 48.3542 88.2693C48.2686 87.6693 48.0257 87.6264 47.7685 87.4121C46.8542 86.6692 46.4685 85.6406 45.2828 85.2977C42.6826 84.5691 36.7538 84.9406 35.4967 85.0692ZM43.5684 85.9121L44.3826 86.0549C44.697 86.1264 44.9256 86.3978 44.9256 86.7121V87.7264C44.9256 92.198 42.5541 102.413 40.7683 105.584C39.4111 108.013 39.0539 108.17 34.6395 108.256C29.1249 108.37 28.2391 107.97 28.3964 105.513C28.5249 103.37 29.8535 96.2982 30.7965 92.7837C30.9678 92.1551 31.2821 90.8837 31.5107 89.955C32.2394 87.0121 34.2823 85.4692 35.1109 87.2121C35.2966 87.6121 35.5395 87.8264 36.2395 87.9265C37.4682 88.0836 41.6397 87.7264 41.6255 87.7264C42.0397 87.6978 42.3826 87.4264 42.5254 87.0407C42.7254 86.4978 43.0684 85.8263 43.5684 85.9121ZM41.9112 86.3121C41.7968 86.5692 41.6111 86.8407 41.3682 86.8978C40.9396 86.9978 40.154 87.0407 38.7682 87.0835L36.1824 87.1264C36.0538 87.1264 35.9252 87.0692 35.8538 86.9692L35.4537 86.4549C35.3394 86.1406 35.368 86.1121 35.9109 86.0406C36.5681 85.9406 40.754 85.8263 41.7826 85.8692C42.0112 85.8692 42.1255 85.7978 41.9112 86.3121ZM43.4684 108.084C43.3827 108.356 43.0254 108.399 42.8683 108.184C42.6683 107.913 42.4255 107.57 42.1969 107.199C42.0541 106.97 42.0255 106.699 42.1255 106.456C44.2827 100.784 45.0255 97.7268 46.3971 87.8264C46.4113 87.7406 46.4685 87.6836 46.5542 87.6693C46.6399 87.655 46.7113 87.6836 46.7541 87.755L47.2113 88.4551C47.3828 88.7265 47.4828 89.0408 47.4685 89.3693C47.3828 93.5267 44.3684 105.313 43.4684 108.084ZM42.0683 109.656C41.8826 109.727 40.9682 109.97 40.1254 110.156C36.7824 110.913 31.9822 110.699 30.125 110.084C29.9965 110.042 28.5821 108.627 29.1964 108.67C29.4821 108.699 30.7679 108.927 31.3393 108.999C34.3251 109.327 37.9824 109.184 39.9539 108.47C40.9968 108.084 40.8826 107.327 41.1539 107.584C41.1825 107.599 42.8969 109.327 42.0683 109.656Z" fill="black"/>
<path d="M64.6246 103.733H60.4996V92.097H64.6587C65.8292 92.097 66.8368 92.33 67.6815 92.7959C68.5262 93.258 69.1758 93.9228 69.6303 94.7902C70.0887 95.6576 70.3178 96.6955 70.3178 97.9039C70.3178 99.116 70.0887 100.158 69.6303 101.029C69.1758 101.9 68.5224 102.569 67.6701 103.035C66.8216 103.5 65.8065 103.733 64.6246 103.733ZM62.9599 101.625H64.5224C65.2496 101.625 65.8614 101.497 66.3576 101.239C66.8576 100.978 67.2326 100.574 67.4826 100.029C67.7364 99.4796 67.8633 98.7713 67.8633 97.9039C67.8633 97.044 67.7364 96.3414 67.4826 95.7959C67.2326 95.2504 66.8595 94.8489 66.3633 94.5914C65.8671 94.3338 65.2553 94.205 64.5281 94.205H62.9599V101.625ZM76.0721 103.904C75.1744 103.904 74.4016 103.722 73.7539 103.358C73.11 102.991 72.6138 102.472 72.2653 101.802C71.9168 101.127 71.7425 100.33 71.7425 99.4095C71.7425 98.5118 71.9168 97.7239 72.2653 97.0459C72.6138 96.3679 73.1043 95.8395 73.7369 95.4607C74.3732 95.0819 75.1194 94.8925 75.9755 94.8925C76.5513 94.8925 77.0872 94.9853 77.5835 95.1709C78.0835 95.3527 78.5191 95.6273 78.8903 95.9948C79.2653 96.3622 79.5569 96.8243 79.7653 97.3811C79.9736 97.9342 80.0778 98.5819 80.0778 99.3243V99.9891H72.7085V98.4891H77.7994C77.7994 98.1406 77.7236 97.8319 77.5721 97.5629C77.4206 97.294 77.2103 97.0838 76.9414 96.9323C76.6763 96.777 76.3675 96.6993 76.0153 96.6993C75.6478 96.6993 75.3221 96.7845 75.038 96.955C74.7577 97.1217 74.538 97.347 74.3789 97.6311C74.2198 97.9114 74.1384 98.2239 74.1346 98.5686V99.9948C74.1346 100.427 74.2141 100.8 74.3732 101.114C74.5361 101.428 74.7653 101.671 75.0607 101.841C75.3562 102.012 75.7066 102.097 76.1119 102.097C76.3808 102.097 76.627 102.059 76.8505 101.983C77.074 101.908 77.2653 101.794 77.4244 101.642C77.5835 101.491 77.7047 101.305 77.788 101.086L80.0266 101.233C79.913 101.771 79.68 102.241 79.3278 102.642C78.9793 103.04 78.5285 103.351 77.9755 103.574C77.4263 103.794 76.7918 103.904 76.0721 103.904ZM89.5593 95.0061L86.5082 103.733H83.7809L80.7298 95.0061H83.2866L85.0991 101.25H85.19L86.9968 95.0061H89.5593ZM90.7979 103.733V95.0061H93.2184V103.733H90.7979ZM92.0138 93.8811C91.654 93.8811 91.3453 93.7618 91.0877 93.5232C90.8339 93.2807 90.707 92.991 90.707 92.6539C90.707 92.3205 90.8339 92.0345 91.0877 91.7959C91.3453 91.5535 91.654 91.4323 92.0138 91.4323C92.3737 91.4323 92.6805 91.5535 92.9343 91.7959C93.1919 92.0345 93.3207 92.3205 93.3207 92.6539C93.3207 92.991 93.1919 93.2807 92.9343 93.5232C92.6805 93.7618 92.3737 93.8811 92.0138 93.8811ZM99.1005 103.904C98.2066 103.904 97.4376 103.714 96.7937 103.336C96.1535 102.953 95.6611 102.423 95.3164 101.745C94.9755 101.067 94.805 100.286 94.805 99.4039C94.805 98.5099 94.9774 97.7258 95.3221 97.0516C95.6706 96.3735 96.1649 95.8451 96.805 95.4664C97.4452 95.0838 98.2066 94.8925 99.0891 94.8925C99.8505 94.8925 100.517 95.0307 101.089 95.3073C101.661 95.5838 102.114 95.972 102.447 96.472C102.78 96.972 102.964 97.5592 102.998 98.2334H100.714C100.65 97.7978 100.479 97.4474 100.203 97.1823C99.93 96.9133 99.5721 96.7789 99.1289 96.7789C98.7539 96.7789 98.4263 96.8811 98.146 97.0857C97.8694 97.2864 97.6535 97.58 97.4982 97.9664C97.3429 98.3527 97.2653 98.8205 97.2653 99.3698C97.2653 99.9266 97.341 100.4 97.4925 100.79C97.6478 101.18 97.8656 101.478 98.146 101.682C98.4263 101.887 98.7539 101.989 99.1289 101.989C99.4054 101.989 99.6535 101.932 99.8732 101.819C100.097 101.705 100.28 101.54 100.424 101.324C100.572 101.105 100.669 100.841 100.714 100.535H102.998C102.96 101.201 102.779 101.788 102.453 102.296C102.131 102.8 101.686 103.194 101.118 103.478C100.549 103.762 99.877 103.904 99.1005 103.904ZM108.525 103.904C107.627 103.904 106.855 103.722 106.207 103.358C105.563 102.991 105.067 102.472 104.718 101.802C104.37 101.127 104.196 100.33 104.196 99.4095C104.196 98.5118 104.37 97.7239 104.718 97.0459C105.067 96.3679 105.557 95.8395 106.19 95.4607C106.826 95.0819 107.573 94.8925 108.429 94.8925C109.004 94.8925 109.54 94.9853 110.037 95.1709C110.537 95.3527 110.972 95.6273 111.343 95.9948C111.718 96.3622 112.01 96.8243 112.218 97.3811C112.427 97.9342 112.531 98.5819 112.531 99.3243V99.9891H105.162V98.4891H110.252C110.252 98.1406 110.177 97.8319 110.025 97.5629C109.874 97.294 109.663 97.0838 109.395 96.9323C109.129 96.777 108.821 96.6993 108.468 96.6993C108.101 96.6993 107.775 96.7845 107.491 96.955C107.211 97.1217 106.991 97.347 106.832 97.6311C106.673 97.9114 106.592 98.2239 106.588 98.5686V99.9948C106.588 100.427 106.667 100.8 106.826 101.114C106.989 101.428 107.218 101.671 107.514 101.841C107.809 102.012 108.16 102.097 108.565 102.097C108.834 102.097 109.08 102.059 109.304 101.983C109.527 101.908 109.718 101.794 109.877 101.642C110.037 101.491 110.158 101.305 110.241 101.086L112.48 101.233C112.366 101.771 112.133 102.241 111.781 102.642C111.432 103.04 110.982 103.351 110.429 103.574C109.879 103.794 109.245 103.904 108.525 103.904ZM121.372 97.4948L119.156 97.6311C119.118 97.4417 119.037 97.2713 118.912 97.1198C118.787 96.9645 118.622 96.8414 118.417 96.7504C118.217 96.6557 117.976 96.6084 117.696 96.6084C117.321 96.6084 117.004 96.6879 116.747 96.847C116.489 97.0023 116.36 97.2107 116.36 97.472C116.36 97.6804 116.444 97.8565 116.61 98.0004C116.777 98.1444 117.063 98.2599 117.468 98.347L119.048 98.6652C119.896 98.8395 120.529 99.1198 120.946 99.5061C121.362 99.8925 121.571 100.4 121.571 101.029C121.571 101.601 121.402 102.103 121.065 102.535C120.732 102.966 120.273 103.303 119.69 103.546C119.11 103.785 118.442 103.904 117.684 103.904C116.529 103.904 115.609 103.663 114.923 103.182C114.241 102.697 113.842 102.038 113.724 101.205L116.105 101.08C116.177 101.432 116.351 101.701 116.627 101.887C116.904 102.069 117.258 102.16 117.69 102.16C118.114 102.16 118.455 102.078 118.713 101.915C118.974 101.749 119.107 101.535 119.11 101.273C119.107 101.053 119.014 100.874 118.832 100.733C118.65 100.589 118.37 100.48 117.991 100.404L116.48 100.103C115.627 99.9323 114.993 99.6368 114.576 99.2164C114.163 98.7959 113.957 98.2599 113.957 97.6084C113.957 97.0478 114.109 96.5648 114.412 96.1595C114.718 95.7542 115.148 95.4417 115.701 95.222C116.258 95.0023 116.91 94.8925 117.656 94.8925C118.758 94.8925 119.626 95.1254 120.258 95.5914C120.895 96.0573 121.266 96.6917 121.372 97.4948ZM129.218 98.6879V103.733H126.798V95.0061H129.105V96.5459H129.207C129.4 96.0383 129.724 95.6368 130.179 95.3414C130.633 95.0421 131.184 94.8925 131.832 94.8925C132.438 94.8925 132.967 95.0251 133.417 95.2902C133.868 95.5554 134.218 95.9342 134.468 96.4266C134.718 96.9152 134.843 97.4985 134.843 98.1766V103.733H132.423V98.6084C132.427 98.0743 132.29 97.6576 132.014 97.3584C131.737 97.0554 131.357 96.9039 130.872 96.9039C130.546 96.9039 130.258 96.9739 130.008 97.1141C129.762 97.2542 129.569 97.4588 129.429 97.7277C129.292 97.9929 129.222 98.3129 129.218 98.6879ZM140.728 103.904C139.831 103.904 139.058 103.722 138.41 103.358C137.766 102.991 137.27 102.472 136.922 101.802C136.573 101.127 136.399 100.33 136.399 99.4095C136.399 98.5118 136.573 97.7239 136.922 97.0459C137.27 96.3679 137.761 95.8395 138.393 95.4607C139.029 95.0819 139.776 94.8925 140.632 94.8925C141.208 94.8925 141.743 94.9853 142.24 95.1709C142.74 95.3527 143.175 95.6273 143.547 95.9948C143.922 96.3622 144.213 96.8243 144.422 97.3811C144.63 97.9342 144.734 98.5819 144.734 99.3243V99.9891H137.365V98.4891H142.456C142.456 98.1406 142.38 97.8319 142.228 97.5629C142.077 97.294 141.867 97.0838 141.598 96.9323C141.333 96.777 141.024 96.6993 140.672 96.6993C140.304 96.6993 139.978 96.7845 139.694 96.955C139.414 97.1217 139.194 97.347 139.035 97.6311C138.876 97.9114 138.795 98.2239 138.791 98.5686V99.9948C138.791 100.427 138.87 100.8 139.029 101.114C139.192 101.428 139.422 101.671 139.717 101.841C140.012 102.012 140.363 102.097 140.768 102.097C141.037 102.097 141.283 102.059 141.507 101.983C141.73 101.908 141.922 101.794 142.081 101.642C142.24 101.491 142.361 101.305 142.444 101.086L144.683 101.233C144.569 101.771 144.336 102.241 143.984 102.642C143.636 103.04 143.185 103.351 142.632 103.574C142.083 103.794 141.448 103.904 140.728 103.904ZM150.291 103.904C149.393 103.904 148.62 103.722 147.973 103.358C147.329 102.991 146.833 102.472 146.484 101.802C146.136 101.127 145.961 100.33 145.961 99.4095C145.961 98.5118 146.136 97.7239 146.484 97.0459C146.833 96.3679 147.323 95.8395 147.956 95.4607C148.592 95.0819 149.338 94.8925 150.194 94.8925C150.77 94.8925 151.306 94.9853 151.802 95.1709C152.302 95.3527 152.738 95.6273 153.109 95.9948C153.484 96.3622 153.776 96.8243 153.984 97.3811C154.192 97.9342 154.297 98.5819 154.297 99.3243V99.9891H146.927V98.4891H152.018C152.018 98.1406 151.942 97.8319 151.791 97.5629C151.639 97.294 151.429 97.0838 151.16 96.9323C150.895 96.777 150.586 96.6993 150.234 96.6993C149.867 96.6993 149.541 96.7845 149.257 96.955C148.976 97.1217 148.757 97.347 148.598 97.6311C148.439 97.9114 148.357 98.2239 148.353 98.5686V99.9948C148.353 100.427 148.433 100.8 148.592 101.114C148.755 101.428 148.984 101.671 149.279 101.841C149.575 102.012 149.925 102.097 150.331 102.097C150.6 102.097 150.846 102.059 151.069 101.983C151.293 101.908 151.484 101.794 151.643 101.642C151.802 101.491 151.923 101.305 152.007 101.086L154.245 101.233C154.132 101.771 153.899 102.241 153.547 102.642C153.198 103.04 152.747 103.351 152.194 103.574C151.645 103.794 151.011 103.904 150.291 103.904ZM159.092 103.875C158.429 103.875 157.829 103.705 157.291 103.364C156.757 103.019 156.333 102.514 156.018 101.847C155.708 101.177 155.552 100.355 155.552 99.3811C155.552 98.3811 155.713 97.5497 156.035 96.8868C156.357 96.2201 156.785 95.722 157.319 95.3925C157.857 95.0592 158.446 94.8925 159.086 94.8925C159.575 94.8925 159.982 94.9758 160.308 95.1425C160.637 95.3054 160.903 95.5099 161.103 95.7561C161.308 95.9985 161.463 96.2372 161.569 96.472H161.643V92.097H164.058V103.733H161.672V102.336H161.569C161.456 102.578 161.295 102.819 161.086 103.057C160.882 103.292 160.615 103.487 160.285 103.642C159.959 103.798 159.562 103.875 159.092 103.875ZM159.859 101.949C160.249 101.949 160.579 101.843 160.848 101.631C161.12 101.415 161.329 101.114 161.473 100.728C161.62 100.341 161.694 99.8887 161.694 99.3698C161.694 98.8508 161.622 98.4001 161.478 98.0175C161.334 97.6349 161.126 97.3395 160.853 97.1311C160.581 96.9228 160.249 96.8186 159.859 96.8186C159.461 96.8186 159.126 96.9266 158.853 97.1425C158.581 97.3584 158.374 97.6576 158.234 98.0402C158.094 98.4228 158.024 98.866 158.024 99.3698C158.024 99.8773 158.094 100.326 158.234 100.716C158.378 101.103 158.584 101.406 158.853 101.625C159.126 101.841 159.461 101.949 159.859 101.949ZM170.025 103.904C169.127 103.904 168.355 103.722 167.707 103.358C167.063 102.991 166.567 102.472 166.218 101.802C165.87 101.127 165.696 100.33 165.696 99.4095C165.696 98.5118 165.87 97.7239 166.218 97.0459C166.567 96.3679 167.057 95.8395 167.69 95.4607C168.326 95.0819 169.073 94.8925 169.929 94.8925C170.504 94.8925 171.04 94.9853 171.537 95.1709C172.037 95.3527 172.472 95.6273 172.843 95.9948C173.218 96.3622 173.51 96.8243 173.718 97.3811C173.927 97.9342 174.031 98.5819 174.031 99.3243V99.9891H166.662V98.4891H171.752C171.752 98.1406 171.677 97.8319 171.525 97.5629C171.374 97.294 171.163 97.0838 170.895 96.9323C170.629 96.777 170.321 96.6993 169.968 96.6993C169.601 96.6993 169.275 96.7845 168.991 96.955C168.711 97.1217 168.491 97.347 168.332 97.6311C168.173 97.9114 168.092 98.2239 168.088 98.5686V99.9948C168.088 100.427 168.167 100.8 168.326 101.114C168.489 101.428 168.718 101.671 169.014 101.841C169.309 102.012 169.66 102.097 170.065 102.097C170.334 102.097 170.58 102.059 170.804 101.983C171.027 101.908 171.218 101.794 171.377 101.642C171.537 101.491 171.658 101.305 171.741 101.086L173.98 101.233C173.866 101.771 173.633 102.241 173.281 102.642C172.932 103.04 172.482 103.351 171.929 103.574C171.379 103.794 170.745 103.904 170.025 103.904ZM178.826 103.875C178.163 103.875 177.563 103.705 177.025 103.364C176.491 103.019 176.067 102.514 175.752 101.847C175.442 101.177 175.287 100.355 175.287 99.3811C175.287 98.3811 175.448 97.5497 175.77 96.8868C176.092 96.2201 176.52 95.722 177.054 95.3925C177.592 95.0592 178.181 94.8925 178.821 94.8925C179.309 94.8925 179.717 94.9758 180.042 95.1425C180.372 95.3054 180.637 95.5099 180.838 95.7561C181.042 95.9985 181.198 96.2372 181.304 96.472H181.377V92.097H183.792V103.733H181.406V102.336H181.304C181.19 102.578 181.029 102.819 180.821 103.057C180.616 103.292 180.349 103.487 180.02 103.642C179.694 103.798 179.296 103.875 178.826 103.875ZM179.593 101.949C179.984 101.949 180.313 101.843 180.582 101.631C180.855 101.415 181.063 101.114 181.207 100.728C181.355 100.341 181.429 99.8887 181.429 99.3698C181.429 98.8508 181.357 98.4001 181.213 98.0175C181.069 97.6349 180.86 97.3395 180.588 97.1311C180.315 96.9228 179.984 96.8186 179.593 96.8186C179.196 96.8186 178.86 96.9266 178.588 97.1425C178.315 97.3584 178.109 97.6576 177.968 98.0402C177.828 98.4228 177.758 98.866 177.758 99.3698C177.758 99.8773 177.828 100.326 177.968 100.716C178.112 101.103 178.319 101.406 178.588 101.625C178.86 101.841 179.196 101.949 179.593 101.949ZM187.197 103.881C186.822 103.881 186.5 103.749 186.231 103.483C185.966 103.214 185.833 102.892 185.833 102.517C185.833 102.146 185.966 101.828 186.231 101.563C186.5 101.298 186.822 101.165 187.197 101.165C187.561 101.165 187.879 101.298 188.152 101.563C188.424 101.828 188.561 102.146 188.561 102.517C188.561 102.767 188.496 102.997 188.368 103.205C188.243 103.41 188.078 103.574 187.873 103.699C187.669 103.821 187.443 103.881 187.197 103.881ZM187.197 97.7675C186.822 97.7675 186.5 97.6349 186.231 97.3698C185.966 97.1046 185.833 96.7826 185.833 96.4039C185.833 96.0326 185.966 95.7164 186.231 95.455C186.5 95.1898 186.822 95.0573 187.197 95.0573C187.561 95.0573 187.879 95.1898 188.152 95.455C188.424 95.7164 188.561 96.0326 188.561 96.4039C188.561 96.6576 188.496 96.8887 188.368 97.097C188.243 97.3016 188.078 97.4645 187.873 97.5857C187.669 97.7069 187.443 97.7675 187.197 97.7675Z" fill="black"/>
<path d="M207.767 92.097H209.897L213.602 101.142H213.738L217.443 92.097H219.574V103.733H217.903V95.3129H217.795L214.363 103.716H212.977L209.545 95.3073H209.437V103.733H207.767V92.097ZM225.666 103.91C224.848 103.91 224.134 103.722 223.524 103.347C222.914 102.972 222.44 102.447 222.103 101.773C221.766 101.099 221.598 100.311 221.598 99.4095C221.598 98.5042 221.766 97.7126 222.103 97.0345C222.44 96.3565 222.914 95.83 223.524 95.455C224.134 95.08 224.848 94.8925 225.666 94.8925C226.484 94.8925 227.198 95.08 227.808 95.455C228.418 95.83 228.891 96.3565 229.228 97.0345C229.565 97.7126 229.734 98.5042 229.734 99.4095C229.734 100.311 229.565 101.099 229.228 101.773C228.891 102.447 228.418 102.972 227.808 103.347C227.198 103.722 226.484 103.91 225.666 103.91ZM225.672 102.483C226.202 102.483 226.641 102.343 226.99 102.063C227.338 101.783 227.596 101.41 227.762 100.944C227.933 100.478 228.018 99.9645 228.018 99.4039C228.018 98.847 227.933 98.3357 227.762 97.8698C227.596 97.4001 227.338 97.0232 226.99 96.7391C226.641 96.455 226.202 96.3129 225.672 96.3129C225.137 96.3129 224.694 96.455 224.342 96.7391C223.993 97.0232 223.734 97.4001 223.564 97.8698C223.397 98.3357 223.314 98.847 223.314 99.4039C223.314 99.9645 223.397 100.478 223.564 100.944C223.734 101.41 223.993 101.783 224.342 102.063C224.694 102.343 225.137 102.483 225.672 102.483ZM231.767 103.733V92.097H233.466V96.4209H233.568C233.666 96.2391 233.808 96.0289 233.994 95.7902C234.18 95.5516 234.437 95.3432 234.767 95.1652C235.096 94.9834 235.532 94.8925 236.074 94.8925C236.778 94.8925 237.407 95.0705 237.96 95.4266C238.513 95.7826 238.947 96.2959 239.261 96.9664C239.579 97.6368 239.738 98.4436 239.738 99.3868C239.738 100.33 239.581 101.139 239.267 101.813C238.952 102.483 238.52 103 237.971 103.364C237.422 103.724 236.795 103.904 236.091 103.904C235.56 103.904 235.127 103.815 234.789 103.637C234.456 103.459 234.195 103.25 234.005 103.012C233.816 102.773 233.67 102.561 233.568 102.375H233.426V103.733H231.767ZM233.431 99.3698C233.431 99.9834 233.52 100.521 233.699 100.983C233.877 101.446 234.134 101.807 234.471 102.069C234.808 102.326 235.221 102.455 235.71 102.455C236.217 102.455 236.642 102.321 236.983 102.052C237.324 101.779 237.581 101.41 237.755 100.944C237.933 100.478 238.022 99.9531 238.022 99.3698C238.022 98.794 237.935 98.277 237.761 97.8186C237.591 97.3603 237.333 96.9985 236.988 96.7334C236.647 96.4682 236.221 96.3357 235.71 96.3357C235.217 96.3357 234.801 96.4626 234.46 96.7164C234.123 96.9701 233.867 97.3243 233.693 97.7789C233.519 98.2334 233.431 98.7637 233.431 99.3698ZM241.646 103.733V95.0061H243.345V103.733H241.646ZM242.504 93.6595C242.208 93.6595 241.955 93.561 241.743 93.3641C241.534 93.1633 241.43 92.9247 241.43 92.6482C241.43 92.3679 241.534 92.1292 241.743 91.9323C241.955 91.7315 242.208 91.6311 242.504 91.6311C242.799 91.6311 243.051 91.7315 243.26 91.9323C243.472 92.1292 243.578 92.3679 243.578 92.6482C243.578 92.9247 243.472 93.1633 243.26 93.3641C243.051 93.561 242.799 93.6595 242.504 93.6595ZM247.329 92.097V103.733H245.63V92.097H247.329ZM253.376 103.91C252.516 103.91 251.776 103.726 251.154 103.358C250.537 102.987 250.06 102.466 249.723 101.796C249.389 101.122 249.223 100.332 249.223 99.4266C249.223 98.5326 249.389 97.7448 249.723 97.0629C250.06 96.3811 250.529 95.8489 251.132 95.4664C251.738 95.0838 252.446 94.8925 253.257 94.8925C253.749 94.8925 254.226 94.9739 254.689 95.1368C255.151 95.2997 255.565 95.5554 255.933 95.9039C256.3 96.2523 256.59 96.705 256.802 97.2618C257.014 97.8148 257.12 98.4872 257.12 99.2789V99.8811H250.183V98.6084H255.456C255.456 98.1614 255.365 97.7656 255.183 97.4209C255.001 97.0724 254.745 96.7978 254.416 96.597C254.09 96.3963 253.708 96.2959 253.268 96.2959C252.791 96.2959 252.374 96.4133 252.018 96.6482C251.666 96.8792 251.393 97.1823 251.2 97.5573C251.011 97.9285 250.916 98.3319 250.916 98.7675V99.7618C250.916 100.345 251.018 100.841 251.223 101.25C251.431 101.66 251.721 101.972 252.092 102.188C252.463 102.4 252.897 102.506 253.393 102.506C253.715 102.506 254.009 102.461 254.274 102.37C254.539 102.275 254.768 102.135 254.961 101.949C255.154 101.764 255.302 101.535 255.404 101.262L257.012 101.552C256.884 102.025 256.653 102.44 256.319 102.796C255.99 103.148 255.575 103.423 255.075 103.62C254.579 103.813 254.012 103.91 253.376 103.91ZM263.24 107.006V95.0061H264.899V96.4209H265.041C265.139 96.2391 265.281 96.0289 265.467 95.7902C265.653 95.5516 265.91 95.3432 266.24 95.1652C266.569 94.9834 267.005 94.8925 267.547 94.8925C268.251 94.8925 268.88 95.0705 269.433 95.4266C269.986 95.7826 270.42 96.2959 270.734 96.9664C271.052 97.6368 271.211 98.4436 271.211 99.3868C271.211 100.33 271.054 101.139 270.74 101.813C270.425 102.483 269.993 103 269.444 103.364C268.895 103.724 268.268 103.904 267.564 103.904C267.033 103.904 266.6 103.815 266.262 103.637C265.929 103.459 265.668 103.25 265.478 103.012C265.289 102.773 265.143 102.561 265.041 102.375H264.939V107.006H263.24ZM264.904 99.3698C264.904 99.9834 264.993 100.521 265.172 100.983C265.35 101.446 265.607 101.807 265.944 102.069C266.281 102.326 266.694 102.455 267.183 102.455C267.69 102.455 268.115 102.321 268.456 102.052C268.797 101.779 269.054 101.41 269.228 100.944C269.406 100.478 269.495 99.9531 269.495 99.3698C269.495 98.794 269.408 98.277 269.234 97.8186C269.064 97.3603 268.806 96.9985 268.461 96.7334C268.12 96.4682 267.694 96.3357 267.183 96.3357C266.69 96.3357 266.274 96.4626 265.933 96.7164C265.596 96.9701 265.34 97.3243 265.166 97.7789C264.992 98.2334 264.904 98.7637 264.904 99.3698ZM274.814 98.5516V103.733H273.115V92.097H274.791V96.4266H274.899C275.103 95.9569 275.416 95.5838 275.836 95.3073C276.257 95.0307 276.806 94.8925 277.484 94.8925C278.083 94.8925 278.605 95.0156 279.052 95.2618C279.503 95.508 279.851 95.8754 280.098 96.3641C280.348 96.8489 280.473 97.455 280.473 98.1823V103.733H278.774V98.3868C278.774 97.7467 278.609 97.2504 278.279 96.8982C277.95 96.5421 277.492 96.3641 276.904 96.3641C276.503 96.3641 276.143 96.4493 275.825 96.6198C275.511 96.7902 275.262 97.0402 275.081 97.3698C274.903 97.6955 274.814 98.0895 274.814 98.5516ZM286.416 103.91C285.598 103.91 284.884 103.722 284.274 103.347C283.664 102.972 283.19 102.447 282.853 101.773C282.516 101.099 282.348 100.311 282.348 99.4095C282.348 98.5042 282.516 97.7126 282.853 97.0345C283.19 96.3565 283.664 95.83 284.274 95.455C284.884 95.08 285.598 94.8925 286.416 94.8925C287.234 94.8925 287.948 95.08 288.558 95.455C289.168 95.83 289.641 96.3565 289.978 97.0345C290.315 97.7126 290.484 98.5042 290.484 99.4095C290.484 100.311 290.315 101.099 289.978 101.773C289.641 102.447 289.168 102.972 288.558 103.347C287.948 103.722 287.234 103.91 286.416 103.91ZM286.422 102.483C286.952 102.483 287.391 102.343 287.74 102.063C288.088 101.783 288.346 101.41 288.512 100.944C288.683 100.478 288.768 99.9645 288.768 99.4039C288.768 98.847 288.683 98.3357 288.512 97.8698C288.346 97.4001 288.088 97.0232 287.74 96.7391C287.391 96.455 286.952 96.3129 286.422 96.3129C285.887 96.3129 285.444 96.455 285.092 96.7391C284.743 97.0232 284.484 97.4001 284.314 97.8698C284.147 98.3357 284.064 98.847 284.064 99.4039C284.064 99.9645 284.147 100.478 284.314 100.944C284.484 101.41 284.743 101.783 285.092 102.063C285.444 102.343 285.887 102.483 286.422 102.483ZM294.079 98.5516V103.733H292.38V95.0061H294.011V96.4266H294.119C294.32 95.9645 294.634 95.5932 295.062 95.3129C295.494 95.0326 296.038 94.8925 296.693 94.8925C297.288 94.8925 297.808 95.0175 298.255 95.2675C298.702 95.5137 299.049 95.8811 299.295 96.3698C299.541 96.8584 299.664 97.4626 299.664 98.1823V103.733H297.966V98.3868C297.966 97.7542 297.801 97.2599 297.471 96.9039C297.142 96.544 296.689 96.3641 296.113 96.3641C295.719 96.3641 295.369 96.4493 295.062 96.6198C294.759 96.7902 294.519 97.0402 294.341 97.3698C294.166 97.6955 294.079 98.0895 294.079 98.5516ZM305.704 103.91C304.844 103.91 304.104 103.726 303.483 103.358C302.865 102.987 302.388 102.466 302.051 101.796C301.717 101.122 301.551 100.332 301.551 99.4266C301.551 98.5326 301.717 97.7448 302.051 97.0629C302.388 96.3811 302.858 95.8489 303.46 95.4664C304.066 95.0838 304.774 94.8925 305.585 94.8925C306.077 94.8925 306.555 94.9739 307.017 95.1368C307.479 95.2997 307.894 95.5554 308.261 95.9039C308.628 96.2523 308.918 96.705 309.13 97.2618C309.342 97.8148 309.449 98.4872 309.449 99.2789V99.8811H302.511V98.6084H307.784C307.784 98.1614 307.693 97.7656 307.511 97.4209C307.329 97.0724 307.074 96.7978 306.744 96.597C306.418 96.3963 306.036 96.2959 305.596 96.2959C305.119 96.2959 304.702 96.4133 304.346 96.6482C303.994 96.8792 303.721 97.1823 303.528 97.5573C303.339 97.9285 303.244 98.3319 303.244 98.7675V99.7618C303.244 100.345 303.346 100.841 303.551 101.25C303.759 101.66 304.049 101.972 304.42 102.188C304.791 102.4 305.225 102.506 305.721 102.506C306.043 102.506 306.337 102.461 306.602 102.37C306.867 102.275 307.096 102.135 307.289 101.949C307.483 101.764 307.63 101.535 307.733 101.262L309.341 101.552C309.212 102.025 308.981 102.44 308.647 102.796C308.318 103.148 307.903 103.423 307.403 103.62C306.907 103.813 306.341 103.91 305.704 103.91Z" fill="black"/>
<path fill-rule="evenodd" clip-rule="evenodd" d="M340.156 89.8202C340.298 90.2457 340.408 90.6554 340.408 90.7341C340.408 90.7972 339.872 90.8602 339.21 90.8602C338.202 90.8602 335.728 91.1438 334.499 91.4117C334.073 91.5063 333.018 92.3414 332.671 92.8771C332.104 93.728 332.687 96.5643 333.522 97.0055C333.79 97.1474 333.806 97.1946 333.585 97.6201C333.018 98.7073 333.427 100.346 334.593 101.607C335.161 102.221 335.239 102.395 335.239 103.041C335.239 104.017 335.681 104.821 336.705 105.751C337.209 106.208 337.603 106.712 337.666 106.98C338.328 109.69 342.519 110.667 349.169 109.659C352.746 109.123 352.793 109.107 353.108 109.422C353.612 109.895 354.227 110.068 355.361 110.068C356.307 110.068 356.449 110.116 356.732 110.478C357.142 110.998 358.214 111.187 359.569 110.998C360.089 110.919 360.798 110.856 361.16 110.856C362.169 110.856 362.515 110.509 362.027 110.005C361.68 109.643 361.523 109.596 360.451 109.596C358.655 109.596 358.103 110.033 357.709 100.988C357.615 98.9556 357.772 96.4068 357.709 95.2092C357.583 92.5305 357.82 92.7038 360.624 92.8299C363.051 92.9402 363.524 92.8299 362.988 92.2311C362.326 91.4905 360.246 91.0178 357.709 91.0178H357.174C356.953 91.0178 356.748 91.1123 356.606 91.2699C356.464 91.4275 356.386 91.6323 356.386 91.8529C356.401 92.1996 356.417 92.499 356.417 92.4517L354.526 92.4832C352.667 92.5147 352.635 92.5147 352.651 92.8614C352.667 93.3341 352.525 93.3183 351.438 92.6565C350.445 92.0577 350.02 91.459 347.83 87.5827C347.089 86.2591 346.459 85.3452 345.891 84.7306C343.638 82.2725 338.47 84.4312 340.156 89.8202ZM343.827 84.8252C344.284 85.1876 345.356 86.6249 345.891 88.3267C347.83 91.8529 348.488 92.9883 351.988 94.4883L353.108 95.2092C353.14 96.2019 353.441 104.605 353.488 107.488H351.438C349.862 107.599 345.875 108.157 344.488 108.488C342.393 108.977 339.478 107.938 339.478 106.488C339.478 106.236 339.557 105.656 339.478 105.656C338.438 105.656 336.847 102.978 337.446 102.253C337.54 102.142 337.099 102.001 336.705 101.607C335.696 100.645 335.523 100.08 335.633 98.4883C335.728 97.1647 335.996 97.1631 335.633 96.911C334.578 96.2177 333.559 93.5871 334.488 92.9883C334.725 92.8307 336.42 92.6565 338.562 92.4517C342.912 92.042 342.682 92.8488 341.988 88.9883C341.39 85.8999 342.472 83.7379 343.827 84.8252ZM356.527 108.335C356.512 108.335 355.094 108.335 355.141 108.335L354.558 94.1535C354.589 94.1535 356.181 94.1535 356.118 94.1535C356.323 101.859 356.055 98.8018 356.527 108.335Z" fill="black"/>
<path d="M378.704 95.8584C378.624 95.5819 378.513 95.3376 378.369 95.1254C378.225 94.9095 378.049 94.7277 377.84 94.58C377.636 94.4285 377.401 94.3129 377.136 94.2334C376.874 94.1539 376.585 94.1141 376.266 94.1141C375.672 94.1141 375.149 94.2618 374.698 94.5573C374.251 94.8527 373.903 95.2826 373.653 95.847C373.403 96.4076 373.278 97.0932 373.278 97.9039C373.278 98.7145 373.401 99.4039 373.647 99.972C373.893 100.54 374.242 100.974 374.692 101.273C375.143 101.569 375.675 101.716 376.289 101.716C376.846 101.716 377.321 101.618 377.715 101.421C378.113 101.22 378.416 100.938 378.624 100.574C378.836 100.211 378.942 99.7807 378.942 99.2845L379.442 99.3584H376.442V97.5061H381.312V98.972C381.312 99.9948 381.096 100.874 380.664 101.608C380.232 102.339 379.638 102.904 378.88 103.302C378.122 103.696 377.255 103.892 376.278 103.892C375.187 103.892 374.228 103.652 373.403 103.171C372.577 102.686 371.933 101.999 371.471 101.108C371.013 100.214 370.783 99.1539 370.783 97.9266C370.783 96.9834 370.92 96.1425 371.192 95.4039C371.469 94.6614 371.855 94.0326 372.352 93.5175C372.848 93.0023 373.425 92.6103 374.085 92.3414C374.744 92.0724 375.458 91.9379 376.227 91.9379C376.886 91.9379 377.499 92.0345 378.067 92.2277C378.636 92.4171 379.139 92.686 379.579 93.0345C380.022 93.383 380.384 93.7978 380.664 94.2789C380.944 94.7561 381.124 95.2826 381.204 95.8584H378.704ZM385.603 103.898C385.046 103.898 384.55 103.802 384.114 103.608C383.679 103.411 383.334 103.122 383.08 102.739C382.83 102.353 382.705 101.872 382.705 101.296C382.705 100.811 382.794 100.404 382.972 100.074C383.15 99.7448 383.393 99.4796 383.7 99.2789C384.006 99.0781 384.355 98.9266 384.745 98.8243C385.139 98.722 385.552 98.6501 385.984 98.6084C386.491 98.5554 386.9 98.5061 387.211 98.4607C387.522 98.4114 387.747 98.3395 387.887 98.2448C388.027 98.1501 388.097 98.0099 388.097 97.8243V97.7902C388.097 97.4304 387.984 97.152 387.756 96.955C387.533 96.758 387.215 96.6595 386.802 96.6595C386.366 96.6595 386.02 96.7561 385.762 96.9493C385.504 97.1387 385.334 97.3773 385.251 97.6652L383.012 97.4834C383.126 96.9531 383.349 96.4948 383.683 96.1084C384.016 95.7182 384.446 95.419 384.972 95.2107C385.503 94.9985 386.116 94.8925 386.813 94.8925C387.298 94.8925 387.762 94.9493 388.205 95.0629C388.652 95.1766 389.048 95.3527 389.393 95.5914C389.741 95.83 390.016 96.1368 390.217 96.5118C390.417 96.883 390.518 97.3281 390.518 97.847V103.733H388.222V102.523H388.154C388.014 102.796 387.826 103.036 387.592 103.245C387.357 103.449 387.075 103.61 386.745 103.728C386.415 103.841 386.035 103.898 385.603 103.898ZM386.296 102.228C386.652 102.228 386.967 102.158 387.239 102.017C387.512 101.874 387.726 101.68 387.881 101.438C388.037 101.196 388.114 100.921 388.114 100.614V99.6879C388.039 99.7372 387.934 99.7826 387.802 99.8243C387.673 99.8622 387.527 99.8982 387.364 99.9323C387.201 99.9626 387.039 99.991 386.876 100.017C386.713 100.04 386.565 100.061 386.433 100.08C386.148 100.122 385.9 100.188 385.688 100.279C385.476 100.37 385.311 100.493 385.194 100.648C385.076 100.8 385.018 100.989 385.018 101.216C385.018 101.546 385.137 101.798 385.376 101.972C385.618 102.142 385.925 102.228 386.296 102.228ZM392.396 103.733V95.0061H394.702V96.5459H394.805C394.987 96.0345 395.29 95.6311 395.714 95.3357C396.138 95.0402 396.646 94.8925 397.237 94.8925C397.835 94.8925 398.344 95.0421 398.765 95.3414C399.185 95.6368 399.466 96.0383 399.606 96.5459H399.697C399.875 96.0459 400.197 95.6463 400.663 95.347C401.132 95.044 401.687 94.8925 402.327 94.8925C403.142 94.8925 403.803 95.152 404.31 95.6709C404.822 96.186 405.077 96.9171 405.077 97.8641V103.733H402.663V98.3414C402.663 97.8565 402.534 97.4929 402.276 97.2504C402.019 97.008 401.697 96.8868 401.31 96.8868C400.871 96.8868 400.528 97.027 400.282 97.3073C400.036 97.5838 399.913 97.9493 399.913 98.4039V103.733H397.566V98.2902C397.566 97.8622 397.443 97.5213 397.197 97.2675C396.954 97.0137 396.634 96.8868 396.237 96.8868C395.968 96.8868 395.725 96.955 395.509 97.0914C395.297 97.2239 395.129 97.4114 395.004 97.6539C394.879 97.8925 394.816 98.1728 394.816 98.4948V103.733H392.396ZM410.967 103.904C410.069 103.904 409.296 103.722 408.648 103.358C408.004 102.991 407.508 102.472 407.16 101.802C406.811 101.127 406.637 100.33 406.637 99.4095C406.637 98.5118 406.811 97.7239 407.16 97.0459C407.508 96.3679 407.999 95.8395 408.631 95.4607C409.268 95.0819 410.014 94.8925 410.87 94.8925C411.446 94.8925 411.982 94.9853 412.478 95.1709C412.978 95.3527 413.414 95.6273 413.785 95.9948C414.16 96.3622 414.451 96.8243 414.66 97.3811C414.868 97.9342 414.972 98.5819 414.972 99.3243V99.9891H407.603V98.4891H412.694C412.694 98.1406 412.618 97.8319 412.467 97.5629C412.315 97.294 412.105 97.0838 411.836 96.9323C411.571 96.777 411.262 96.6993 410.91 96.6993C410.542 96.6993 410.217 96.7845 409.933 96.955C409.652 97.1217 409.433 97.347 409.273 97.6311C409.114 97.9114 409.033 98.2239 409.029 98.5686V99.9948C409.029 100.427 409.109 100.8 409.268 101.114C409.431 101.428 409.66 101.671 409.955 101.841C410.251 102.012 410.601 102.097 411.006 102.097C411.275 102.097 411.522 102.059 411.745 101.983C411.969 101.908 412.16 101.794 412.319 101.642C412.478 101.491 412.599 101.305 412.683 101.086L414.921 101.233C414.808 101.771 414.575 102.241 414.222 102.642C413.874 103.04 413.423 103.351 412.87 103.574C412.321 103.794 411.686 103.904 410.967 103.904ZM424.897 95.0061V96.8243H419.641V95.0061H424.897ZM420.835 92.9152H423.255V101.052C423.255 101.275 423.289 101.449 423.357 101.574C423.425 101.696 423.52 101.781 423.641 101.83C423.766 101.879 423.91 101.904 424.073 101.904C424.187 101.904 424.3 101.894 424.414 101.875C424.528 101.853 424.615 101.836 424.675 101.824L425.056 103.625C424.935 103.663 424.764 103.707 424.545 103.756C424.325 103.809 424.058 103.841 423.744 103.853C423.16 103.875 422.649 103.798 422.21 103.62C421.774 103.442 421.435 103.165 421.192 102.79C420.95 102.415 420.831 101.942 420.835 101.37V92.9152ZM427.968 107.006C427.661 107.006 427.373 106.982 427.104 106.932C426.839 106.887 426.62 106.828 426.445 106.756L426.991 104.949C427.275 105.036 427.531 105.084 427.758 105.091C427.989 105.099 428.188 105.046 428.354 104.932C428.525 104.819 428.663 104.625 428.769 104.353L428.911 103.983L425.781 95.0061H428.326L430.133 101.415H430.224L432.048 95.0061H434.61L431.218 104.677C431.055 105.146 430.834 105.555 430.553 105.904C430.277 106.256 429.926 106.527 429.502 106.716C429.078 106.91 428.567 107.006 427.968 107.006ZM435.849 107.006V95.0061H438.235V96.472H438.343C438.449 96.2372 438.603 95.9985 438.803 95.7561C439.008 95.5099 439.273 95.3054 439.599 95.1425C439.928 94.9758 440.337 94.8925 440.826 94.8925C441.462 94.8925 442.049 95.0592 442.587 95.3925C443.125 95.722 443.555 96.2201 443.877 96.8868C444.199 97.5497 444.36 98.3811 444.36 99.3811C444.36 100.355 444.203 101.177 443.888 101.847C443.578 102.514 443.154 103.019 442.616 103.364C442.082 103.705 441.483 103.875 440.82 103.875C440.351 103.875 439.951 103.798 439.621 103.642C439.296 103.487 439.029 103.292 438.82 103.057C438.612 102.819 438.453 102.578 438.343 102.336H438.269V107.006H435.849ZM438.218 99.3698C438.218 99.8887 438.29 100.341 438.434 100.728C438.578 101.114 438.786 101.415 439.059 101.631C439.332 101.843 439.663 101.949 440.053 101.949C440.447 101.949 440.781 101.841 441.053 101.625C441.326 101.406 441.532 101.103 441.673 100.716C441.817 100.326 441.888 99.8773 441.888 99.3698C441.888 98.866 441.818 98.4228 441.678 98.0402C441.538 97.6576 441.332 97.3584 441.059 97.1425C440.786 96.9266 440.451 96.8186 440.053 96.8186C439.659 96.8186 439.326 96.9228 439.053 97.1311C438.784 97.3395 438.578 97.6349 438.434 98.0175C438.29 98.4001 438.218 98.8508 438.218 99.3698ZM449.951 103.904C449.053 103.904 448.281 103.722 447.633 103.358C446.989 102.991 446.493 102.472 446.144 101.802C445.796 101.127 445.621 100.33 445.621 99.4095C445.621 98.5118 445.796 97.7239 446.144 97.0459C446.493 96.3679 446.983 95.8395 447.616 95.4607C448.252 95.0819 448.998 94.8925 449.854 94.8925C450.43 94.8925 450.966 94.9853 451.462 95.1709C451.962 95.3527 452.398 95.6273 452.769 95.9948C453.144 96.3622 453.436 96.8243 453.644 97.3811C453.853 97.9342 453.957 98.5819 453.957 99.3243V99.9891H446.587V98.4891H451.678C451.678 98.1406 451.603 97.8319 451.451 97.5629C451.299 97.294 451.089 97.0838 450.82 96.9323C450.555 96.777 450.246 96.6993 449.894 96.6993C449.527 96.6993 449.201 96.7845 448.917 96.955C448.637 97.1217 448.417 97.347 448.258 97.6311C448.099 97.9114 448.017 98.2239 448.013 98.5686V99.9948C448.013 100.427 448.093 100.8 448.252 101.114C448.415 101.428 448.644 101.671 448.94 101.841C449.235 102.012 449.585 102.097 449.991 102.097C450.26 102.097 450.506 102.059 450.729 101.983C450.953 101.908 451.144 101.794 451.303 101.642C451.462 101.491 451.584 101.305 451.667 101.086L453.906 101.233C453.792 101.771 453.559 102.241 453.207 102.642C452.858 103.04 452.407 103.351 451.854 103.574C451.305 103.794 450.671 103.904 449.951 103.904ZM456.951 103.881C456.576 103.881 456.254 103.749 455.985 103.483C455.72 103.214 455.587 102.892 455.587 102.517C455.587 102.146 455.72 101.828 455.985 101.563C456.254 101.298 456.576 101.165 456.951 101.165C457.315 101.165 457.633 101.298 457.906 101.563C458.178 101.828 458.315 102.146 458.315 102.517C458.315 102.767 458.25 102.997 458.121 103.205C457.996 103.41 457.832 103.574 457.627 103.699C457.423 103.821 457.197 103.881 456.951 103.881ZM456.951 97.7675C456.576 97.7675 456.254 97.6349 455.985 97.3698C455.72 97.1046 455.587 96.7826 455.587 96.4039C455.587 96.0326 455.72 95.7164 455.985 95.455C456.254 95.1898 456.576 95.0573 456.951 95.0573C457.315 95.0573 457.633 95.1898 457.906 95.455C458.178 95.7164 458.315 96.0326 458.315 96.4039C458.315 96.6576 458.25 96.8887 458.121 97.097C457.996 97.3016 457.832 97.4645 457.627 97.5857C457.423 97.7069 457.197 97.7675 456.951 97.7675Z" fill="black"/>
<path d="M487.363 97.9152C487.363 99.1576 487.136 100.226 486.681 101.12C486.227 102.01 485.603 102.696 484.812 103.177C484.024 103.654 483.128 103.892 482.124 103.892C481.117 103.892 480.217 103.654 479.425 103.177C478.638 102.696 478.016 102.008 477.562 101.114C477.107 100.22 476.88 99.1539 476.88 97.9152C476.88 96.6728 477.107 95.6065 477.562 94.7164C478.016 93.8224 478.638 93.1368 479.425 92.6595C480.217 92.1785 481.117 91.9379 482.124 91.9379C483.128 91.9379 484.024 92.1785 484.812 92.6595C485.603 93.1368 486.227 93.8224 486.681 94.7164C487.136 95.6065 487.363 96.6728 487.363 97.9152ZM485.624 97.9152C485.624 96.9682 485.471 96.1709 485.164 95.5232C484.861 94.8717 484.444 94.3792 483.914 94.0459C483.388 93.7088 482.791 93.5402 482.124 93.5402C481.454 93.5402 480.855 93.7088 480.329 94.0459C479.802 94.3792 479.386 94.8717 479.079 95.5232C478.776 96.1709 478.624 96.9682 478.624 97.9152C478.624 98.8622 478.776 99.6614 479.079 100.313C479.386 100.961 479.802 101.453 480.329 101.79C480.855 102.124 481.454 102.29 482.124 102.29C482.791 102.29 483.388 102.124 483.914 101.79C484.444 101.453 484.861 100.961 485.164 100.313C485.471 99.6614 485.624 98.8622 485.624 97.9152ZM491.114 98.5516V103.733H489.415V95.0061H491.046V96.4266H491.154C491.355 95.9645 491.669 95.5932 492.097 95.3129C492.529 95.0326 493.073 94.8925 493.728 94.8925C494.323 94.8925 494.844 95.0175 495.29 95.2675C495.737 95.5137 496.084 95.8811 496.33 96.3698C496.576 96.8584 496.7 97.4626 496.7 98.1823V103.733H495.001V98.3868C495.001 97.7542 494.836 97.2599 494.506 96.9039C494.177 96.544 493.724 96.3641 493.148 96.3641C492.754 96.3641 492.404 96.4493 492.097 96.6198C491.794 96.7902 491.554 97.0402 491.376 97.3698C491.201 97.6955 491.114 98.0895 491.114 98.5516ZM500.677 92.097V103.733H498.978V92.097H500.677ZM502.962 103.733V95.0061H504.661V103.733H502.962ZM503.82 93.6595C503.525 93.6595 503.271 93.561 503.059 93.3641C502.851 93.1633 502.746 92.9247 502.746 92.6482C502.746 92.3679 502.851 92.1292 503.059 91.9323C503.271 91.7315 503.525 91.6311 503.82 91.6311C504.116 91.6311 504.368 91.7315 504.576 91.9323C504.788 92.1292 504.894 92.3679 504.894 92.6482C504.894 92.9247 504.788 93.1633 504.576 93.3641C504.368 93.561 504.116 93.6595 503.82 93.6595ZM508.646 98.5516V103.733H506.947V95.0061H508.577V96.4266H508.685C508.886 95.9645 509.201 95.5932 509.629 95.3129C510.06 95.0326 510.604 94.8925 511.259 94.8925C511.854 94.8925 512.375 95.0175 512.822 95.2675C513.269 95.5137 513.615 95.8811 513.862 96.3698C514.108 96.8584 514.231 97.4626 514.231 98.1823V103.733H512.532V98.3868C512.532 97.7542 512.367 97.2599 512.038 96.9039C511.708 96.544 511.255 96.3641 510.68 96.3641C510.286 96.3641 509.935 96.4493 509.629 96.6198C509.326 96.7902 509.085 97.0402 508.907 97.3698C508.733 97.6955 508.646 98.0895 508.646 98.5516ZM520.271 103.91C519.411 103.91 518.67 103.726 518.049 103.358C517.432 102.987 516.954 102.466 516.617 101.796C516.284 101.122 516.117 100.332 516.117 99.4266C516.117 98.5326 516.284 97.7448 516.617 97.0629C516.954 96.3811 517.424 95.8489 518.026 95.4664C518.632 95.0838 519.341 94.8925 520.151 94.8925C520.644 94.8925 521.121 94.9739 521.583 95.1368C522.045 95.2997 522.46 95.5554 522.827 95.9039C523.195 96.2523 523.485 96.705 523.697 97.2618C523.909 97.8148 524.015 98.4872 524.015 99.2789V99.8811H517.077V98.6084H522.35C522.35 98.1614 522.259 97.7656 522.077 97.4209C521.896 97.0724 521.64 96.7978 521.31 96.597C520.985 96.3963 520.602 96.2959 520.163 96.2959C519.685 96.2959 519.269 96.4133 518.913 96.6482C518.56 96.8792 518.288 97.1823 518.094 97.5573C517.905 97.9285 517.81 98.3319 517.81 98.7675V99.7618C517.81 100.345 517.913 100.841 518.117 101.25C518.326 101.66 518.615 101.972 518.987 102.188C519.358 102.4 519.791 102.506 520.288 102.506C520.61 102.506 520.903 102.461 521.168 102.37C521.433 102.275 521.663 102.135 521.856 101.949C522.049 101.764 522.197 101.535 522.299 101.262L523.907 101.552C523.778 102.025 523.547 102.44 523.214 102.796C522.884 103.148 522.469 103.423 521.969 103.62C521.473 103.813 520.907 103.91 520.271 103.91ZM536.026 107.006V102.375H535.924C535.822 102.561 535.674 102.773 535.481 103.012C535.291 103.25 535.03 103.459 534.697 103.637C534.363 103.815 533.932 103.904 533.401 103.904C532.697 103.904 532.068 103.724 531.515 103.364C530.966 103 530.534 102.483 530.219 101.813C529.909 101.139 529.754 100.33 529.754 99.3868C529.754 98.4436 529.911 97.6368 530.225 96.9664C530.543 96.2959 530.979 95.7826 531.532 95.4266C532.085 95.0705 532.712 94.8925 533.413 94.8925C533.954 94.8925 534.39 94.9834 534.719 95.1652C535.053 95.3432 535.31 95.5516 535.492 95.7902C535.678 96.0289 535.822 96.2391 535.924 96.4209H536.066V95.0061H537.725V107.006H536.026ZM533.776 102.455C534.265 102.455 534.678 102.326 535.015 102.069C535.356 101.807 535.613 101.446 535.788 100.983C535.966 100.521 536.055 99.9834 536.055 99.3698C536.055 98.7637 535.968 98.2334 535.793 97.7789C535.619 97.3243 535.363 96.9701 535.026 96.7164C534.689 96.4626 534.272 96.3357 533.776 96.3357C533.265 96.3357 532.839 96.4682 532.498 96.7334C532.157 96.9985 531.899 97.3603 531.725 97.8186C531.555 98.277 531.469 98.794 531.469 99.3698C531.469 99.9531 531.557 100.478 531.731 100.944C531.905 101.41 532.163 101.779 532.504 102.052C532.848 102.321 533.272 102.455 533.776 102.455ZM545.538 100.114V95.0061H547.242V103.733H545.572V102.222H545.481C545.28 102.688 544.958 103.076 544.515 103.387C544.076 103.694 543.528 103.847 542.873 103.847C542.312 103.847 541.816 103.724 541.384 103.478C540.956 103.228 540.619 102.858 540.373 102.37C540.13 101.881 540.009 101.277 540.009 100.557V95.0061H541.708V100.353C541.708 100.947 541.873 101.421 542.202 101.773C542.532 102.125 542.96 102.302 543.487 102.302C543.805 102.302 544.121 102.222 544.435 102.063C544.754 101.904 545.017 101.663 545.225 101.341C545.437 101.019 545.541 100.61 545.538 100.114ZM549.525 103.733V95.0061H551.224V103.733H549.525ZM550.383 93.6595C550.087 93.6595 549.834 93.561 549.621 93.3641C549.413 93.1633 549.309 92.9247 549.309 92.6482C549.309 92.3679 549.413 92.1292 549.621 91.9323C549.834 91.7315 550.087 91.6311 550.383 91.6311C550.678 91.6311 550.93 91.7315 551.138 91.9323C551.351 92.1292 551.457 92.3679 551.457 92.6482C551.457 92.9247 551.351 93.1633 551.138 93.3641C550.93 93.561 550.678 93.6595 550.383 93.6595ZM553.327 103.733V102.569L558.055 96.5629V96.4834H553.481V95.0061H560.174V96.2448L555.629 102.177V102.256H560.333V103.733H553.327Z" fill="black"/>
<rect x="1.25" y="1.25" width="616.477" height="133.477" rx="10.75" stroke="#FD6F00" stroke-width="2.5" stroke-linecap="square" stroke-dasharray="8 8"/>
</svg>
