<?xml version="1.0" encoding="UTF-8"?>
<svg id="_Слой_1" data-name="Слой 1" xmlns="http://www.w3.org/2000/svg" viewBox="0 0 968.22 520.41">
  <defs>
    <style>
      .cls-1 {
        stroke: #1a1814;
        stroke-miterlimit: 10;
        stroke-width: 2px;
      }

      .cls-1, .cls-2 {
        fill: #feeec4;
      }

      .cls-2, .cls-3, .cls-4, .cls-5, .cls-6 {
        stroke-width: 0px;
      }

      .cls-3 {
        fill: #fc9403;
      }

      .cls-4 {
        fill: #1a1814;
      }

      .cls-5 {
        fill: #474362;
      }

      .cls-6 {
        fill: #c32764;
      }
    </style>
  </defs>
  <rect class="cls-1" x="5.14" y="250.38" width="948.43" height="259.56" rx="129.78" ry="129.78"/>
  <g>
    <path class="cls-4" d="m121.58,251.46c-54.74,5.94-99.74,45.35-112.31,98.84-14.16,60.25,15.6,119.97,69.29,146.18,17.4,8.5,35.8,12.83,55.18,13,.92,0,1.84-.02,2.74.11.6.09.5.5.1.84h-7c-1.72-1.03-3.6-.48-5.42-.53-9.33-.68-18.45-2.5-27.38-5.27-45.22-14.02-79.79-51.2-88.96-97.55-9.13-46.19,3.15-86.58,36.45-120.05,18.77-18.86,41.69-30.3,67.91-35.08,3.11-.57,6.24-1.03,9.39-1.32,0,.28.01.55.02.83Z"/>
    <path class="cls-4" d="m489.05,509.56c.83-.02,1.66-.05,2.5-.05,109.15,0,218.29,0,327.43,0,.83,0,1.68-.04,2.49.08.6.09.5.5.1.84h-353c-.66,0-1.33,0-1.97,0,1.46-.43,2.95-.48,4.44-.48,5.21,0,10.42.02,15.63,0,.8,0,1.67.27,2.37-.38Z"/>
    <path class="cls-5" d="m953.23,393.48c-1.15,14.67-5.08,28.62-11.44,41.82-16.3,33.85-42.34,56.81-77.95,68.86-8.93,3.02-18.15,4.76-27.52,5.76-.45.05-1.03-.16-1.25.5h-9c-.37-.28-.63-.67-.06-.88.52-.19,1.15-.15,1.73-.17,28.81-1.05,54.61-10.43,77.02-28.54,24.78-20.03,40.07-45.89,46.14-77.16.87-4.49,1.48-9.03,1.72-13.61.07-1.21.11-1.21.96-1.58v2c-.2.99-.51,1.97-.34,3Z"/>
    <path class="cls-5" d="m330.87,509.58c.74-.05,1.49-.15,2.23-.15,25.57,0,51.15,0,76.72,0,.75,0,1.52-.04,2.23.13.57.13.4.57.01.87h-80l-.1-.03c-.37-.27-.73-.55-1.1-.82Z"/>
    <path class="cls-4" d="m953.57,375.49c-.44.25-.55-.04-.56-.38-.11-3.45-.42-6.87-.81-10.3-.05-.41.18-.57.51-.65-.13.37-.02.65.31.83.05.51.1,1.03.16,1.54-.03,1.01-.32,2.05.4,2.96v6Z"/>
    <path class="cls-5" d="m124.15,509.89c1.82.05,3.7-.5,5.42.53h-5.5c.06-.11.15-.22.18-.34.02-.05-.06-.13-.1-.2Z"/>
    <path class="cls-2" d="m953.23,393.48c-.17-1.03.14-2.01.34-3v3l-.17.03-.17-.04Z"/>
    <path class="cls-2" d="m953.57,369.49c-.71-.91-.42-1.95-.4-2.96.13-.04.26-.06.4-.04v3Z"/>
    <path class="cls-4" d="m330.07,510.43c-.47-.98.23-.86.81-.85.36.27.73.55,1.09.82-.3,0-.6.02-.9.03h-1Z"/>
    <path class="cls-2" d="m331.07,510.43c.3-.01.6-.02.9-.03,0,0,.1.03.1.03h-1Z"/>
    <path class="cls-2" d="m227.71,151.3c.16,2.45.28,4.9.49,7.34.05.56.17,1.08.07,1.68-.2,1.23-.65,1.94-2.06,1.83-.98-.08-1.97.06-2.96.11-2.29-1-4.31-2.46-6.47-3.69-2.16-1.23-4.23-2.64-6.65-3.37-.88-.27-1.73-.46-2.68-.18-4.58,1.36-6.9,7.48-4.41,11.54,1.54,2.51,3.84,4.11,6.27,5.56,4.28,2.55,8.64,4.96,12.93,7.5,2.77,1.65,5.75,2.95,8.35,4.89-.59.95-.68,1.82.25,2.66.97.88,1.41,2.11,1.57,3.32.47,3.43.94,6.87,1.11,10.33.18,3.8.7,7.57,1.23,11.31.64,4.48,1.01,9,1.79,13.47.74,4.22,1.3,8.47,1.84,12.72.44,3.41.53,4.86-3.69,4.88-.69-.29-1.41-.45-2.17-.47-6.28-.19-12.57-.38-18.85-.58-2.4-.27-4.78-.79-7.22-.55-1.17-.64-2.42-.94-3.73-1.12-5.81-.82-11.53-2.11-17.23-3.52-1.5-.37-2.92-1.22-4.56-.79-.98-1.01-2.33-1.21-3.58-1.61-7.35-2.35-14.63-4.84-21.52-8.38-.73-.37-1.45-.83-2.32-.84-3.29-1.74-6.86-2.58-10.46-3.3-.94-1.96-.37-3.73.75-5.38,2.93-4.34,5.59-8.86,7.89-13.55,2.41-4.92,4.64-9.93,6.75-14.99,2.94-7.05,5.8-14.12,8.48-21.27,2.62-7,5.36-13.94,8.08-20.9,2.84-7.27,5.6-14.56,8.53-21.79,1.31-3.22,2.34-6.56,3.5-9.85,4.5,2.2,9.2,3.75,14.18,4.38,7.45.95,14.9.64,22.36.12-.36,2.41.39,4.75.58,7.12.28,3.67.92,7.32,1.38,10.98.06.51.14.98.59,1.29-.43,4.49.75,8.79,1.57,13.13Z"/>
    <path class="cls-6" d="m211.59,357.44c-.21-.35-.35-.81-.65-1.04-4.25-3.12-5.61-7.69-6.19-12.57-.55-4.62,1.13-8.75,3.82-12.33,1.44-1.93,1.44-3.44.41-5.39-3.53-6.69-7.29-13.24-11.05-19.8-4.09-7.13-8.28-14.2-12.62-21.2-2.01-3.25-3.85-6.6-6.18-9.64-.15-.6-.51-1.05-.95-1.47-.13-.94-.69-1.68-1.19-2.44-3.85-5.92-7.7-11.83-11.56-17.74-.23-.35-.46-.69-.73-1-.41-.49-.85-.44-1.23.05-.25.33-.51.66-.71,1.02-3.68,6.41-7.13,12.94-11.02,19.23-.16.26-.15.63-.22.96-1.7,2.94-3.4,5.88-5.08,8.83-.61,1.07-1.39,2.08-1.5,3.38-1.08.35-1.4,1.38-1.87,2.21-5.11,8.91-10.2,17.83-15.28,26.76-.44.78-.74,1.64-1.11,2.46-1.41,1.76-2.37,3.79-3.48,5.74-1.11,1.94-1.99,4.03-3.47,5.74-.79.91-1.76,1.54-3.07,1.14-1.25-.38-2.11-1.52-2.25-2.99-.12-1.3.3-2.42,1.01-3.51,1.53-2.36,3.03-4.74,4.17-7.33.82-.84,1.43-1.82,2.01-2.84,1.73-3.03,3.19-6.23,5.02-9.17,4.03-6.5,7.63-13.26,11.59-19.79.47-.78.99-1.55.92-2.53,2.65-3.39,4.46-7.25,6.4-11.05.71-.37,1.02-1.04,1.39-1.7,3.18-5.63,6.37-11.26,9.57-16.88.33-.58.77-1.09.59-1.83,0,0-.02-.17-.02-.17.54.09.83-.17.94-.67.41-.72.78-1.47,1.24-2.15,2.08-3.06,2.75-6.52,2.92-10.13,2.01.48,4.13.31,6.1,1-.04.49-.08.99-.12,1.48-.27,3.86-.94,3.65,3.47,4.73,3.05.75,6.2,1.08,9.31,1.6,3.27.55,6.53,1.11,9.8,1.67,1.81,2.44,3.68,4.84,4.8,7.72-7.71-1.98-15.6-2.93-23.55-4.37.06,1.24.67,1.84,1.11,2.53,3.19,4.97,6.44,9.91,9.56,14.93,4.4,7.06,8.74,14.16,13.05,21.28,3.7,6.13,7.34,12.29,10.77,18.58,2.82,5.19,5.75,10.32,8.61,15.49.52.94,1.01,1.63,2.32,1.24,3.29-1,6.42-.18,9.49,1.04.69.27,1.3.77,2.11.64.36.47.8.82,1.4.93.11.41.29.77.66,1.02,1.54,1.04,2.72,2.43,3.88,3.86,1.35,1.69,1.37,1.67,3.17.44.21-.14.41-.28.61-.43,15.08-11.27,30.64-21.86,46.29-32.31,11.01-7.35,22.22-14.4,33.51-21.32,1.63-1,3.3-1.94,4.94-2.93,1.61-.98,2.8-2.63,4.8-3.01.22-.04.22-.4.1-.75-.34-.07-.74-.16-1.14-.24-3.37-.69-6.8-.45-10.2-.69-6.15-.43-12.26-1.18-18.39-1.76-5.88-.56-11.79-.97-17.65-1.71-11.97-1.5-23.92-3.19-35.89-4.74-1.88-.24-3.75-.9-5.69-.41-.81-.12-1.62-.25-2.44-.37-4.23-.59-8.4-1.56-12.69-1.77-.75-.61-1.7-.67-2.58-.81-2.37-.39-4.76-.67-7.14-1-.47-2.3-1.56-4.44-1.82-6.79,2.63.31,5.26.62,7.89.93,3.17,1,6.49,1.14,9.75,1.63,2.68.41,5.35,1.04,8.09,1.02,1.34.55,2.77.53,4.17.72,11.87,1.62,23.72,3.35,35.61,4.81,7.59.93,15.26,1.28,22.85,2.2,10.99,1.33,22.07,1.58,33.05,2.93.9.11,1.83.08,2.74.07.8,0,1.28-.37,1.08-1.24-1.12-4.94-1.92-9.95-3.38-14.8-.12-.22-.24-.43-.37-.65.32-2.39-.64-4.58-1.11-6.83-1.66-7.81-3.39-15.6-5.17-23.39-.53-2.32-.64-2.28-2.94-2.29-.91,0-1.83-.06-2.74-.13-12.95-1.05-25.46-4.09-37.67-8.41-4.62-1.63-9.21-3.37-13.57-5.66,1.39-1.84,2.64-3.74,2.5-6.19,2.6.62,4.92,1.98,7.37,2.98,12.33,5.04,25.12,8.27,38.35,9.76,2.4.27,4.81.45,7.22.51,3.59.09,4.98-2.25,3.19-5.41-1.52-2.69-3.54-5.04-5.62-7.31-7.72-8.4-16.56-15.4-26.62-20.84-1.52-.82-3.25-1.28-4.48-2.61,1.37-1.85,2.4-3.82,2.35-6.2,10.42,4.84,19.73,11.3,28.09,19.16,4.38,4.11,8.37,8.56,11.6,13.64,1.61,2.53,2.36,5.28,1.88,8.32-.33,2.12-1.09,4.02-2.62,5.53-.67.66-.88,1.24-.66,2.17,2.51,11.02,4.98,22.04,7.46,33.07.03.35.18.64.46.85-.24.75-.04,1.5.12,2.22,3.88,17.8,7.52,35.66,10.97,53.55.08.4.28.77.43,1.16.03.41.02.83.1,1.24,1.14,6,2.3,12,3.45,18-.19.76.02,1.47.16,2.21,1.45,7.76,2.85,15.53,4.34,23.29.69,3.58.83,7.26,2.04,10.74.22.88.15,1.79.32,2.69.5,2.69.92,5.41,1.19,8.13.18,1.88-.91,3.28-2.42,3.53-1.67.28-3.17-.74-3.62-2.65-.44-1.86-.67-3.76-1.07-5.63-.38-1.77-.25-3.67-1.28-5.29.46-.69.31-1.39.18-2.15-1.91-10.79-3.8-21.58-5.67-32.37-.12-.67-.3-1.29-.68-1.85-.05-.58-.03-1.17-.15-1.73-1.12-5.61-2.25-11.21-3.39-16.81.2-1.77-.31-3.47-.65-5.16-1.67-8.39-3.46-16.76-5.08-25.17-.31-1.62-.93-2.9-2.16-4.07-6.36,3.87-12.74,7.76-19.13,11.63-10.38,6.3-20.53,12.97-30.73,19.57-9.78,6.33-19.24,13.12-28.9,19.62-6.55,4.41-12.76,9.33-19.14,13.98-1.23.89-1.75,1.86-1.78,3.49-.14,7.77-4.11,13.17-10.95,16.49-3.01,1.46-6.31,1.28-9.55.68-1.79-.33-3.47-1.16-5.31-1.33-.22-.79-.8-1.15-1.56-1.29Zm1.54-15.77c-.05,5.47,3.78,9.93,8.16,10.23,4.35.29,8.76-3.39,9.53-7.94.1-.61-.04-1.15-.19-1.71-1.08-4.04-5.33-7.72-9.47-8.21-1.55-.18-3.04.1-4.24,1.08-2.29,1.86-3.67,4.25-3.78,6.55Z"/>
    <path class="cls-3" d="m223.59,118.78c-7.45.52-14.91.83-22.36-.12-4.99-.64-9.68-2.19-14.18-4.38-1.53-1.13-3.14-2.16-4.59-3.39-6.99-5.95-11.68-13.43-14.47-22.13.23-.32.47-.65.7-.97,1.61-1.03,2.87-2.45,4.28-3.71.18-.16.36-.34.51-.54.24-.33.54-.71.11-1.07-.41-.34-.75-.01-1.06.26-.55.5-1.07,1.03-1.64,1.5-1.14.94-1.99,2.2-3.3,2.94-1.11-1.35-1.6-3-2.2-4.6.21-.26.43-.52.64-.78,1.99-.26,3.71-1.25,5.54-1.96.37-.14.87-.33.69-.84-.23-.64-.82-.43-1.25-.26-1.68.66-3.33,1.38-5,2.08-.26.05-.52.09-.78.14-.43-1.9-1.34-3.67-1.59-5.62.11-.18.21-.36.32-.55,2.97.08,5.96-.13,8.89.61.44.11.88.08.99-.43.11-.48-.26-.74-.66-.9-.31-.12-.63-.21-.96-.26-2.88-.37-5.75-.79-8.64-.07l-.59-.14c-.81-3.65-1.7-7.29-2.13-11.01-.36-3.17-.32-6.34,1.65-9.11,2.7-3.8,7.99-3.85,10.78-.06,1.08,1.47,2,3.06,3.04,4.57,1.15,1.68,1.36,1.76,3.3,1.04,1.95-.73,3.82-1.65,5.79-2.33,7.95-2.73,16.2-3.64,24.56-3.83,4.24-.09,8.48-.17,12.72-.25,2.16-.04,4.33-.13,6.48.22.49.08.99.14,1.49.13,1.51-.04,1.77-.33,1.67-1.94-.16-2.41.36-4.61,1.79-6.6,2.23-3.1,6.52-3.36,9.03-.48,1.26,1.45,2.23,3.09,2.93,4.9,2.04,5.29,3.73,10.67,4.72,16.26-.13.11-.21.25-.24.41-1.99.35-3.74,1.27-5.48,2.23-.38.21-.65.59-.35,1.02.22.32.59.16.9.05,1.78-.68,3.43-1.68,5.3-2.15.39,1.29-.03,2.67.44,3.95-.12.12-.23.25-.35.37-1.91-.17-3.8-.06-5.69.23-.39.26-.35.55-.04.85,1.94.36,3.89.16,5.83,0,.41.44.52.96.35,1.53.22,1.51.45,3.02.67,4.54-.1.05-.16.13-.19.24-1.66-.96-3.55-1.39-5.3-2.14-.38-.16-.9-.3-1.1.16-.24.54.13.96.66,1.13,1.98.62,3.78,1.71,5.83,2.11.03.15.08.29.17.42-.27,2.48-.54,4.96-.82,7.44-.6,5.3-1.4,10.56-3.74,15.45-2.22,4.66-5.67,8.17-10.04,10.8-4.34,2.61-9.14,3.95-14.03,5.05Zm-17.68-55.51c1.42,1.77,2.77,2.87,4.13,3.88,2.01,1.48,1.99,3.51,1.88,5.58-.05.88-.67,1.25-1.6,1.02-.47-.12-.69-.76-1.37-.53.39,1.1,1.19,1.71,2.27,1.44,1.02-.26,1.76-.29,2.7.38.92.65,1.85.23,2.29-1.06-1.79.6-2.16.57-2.7-.17-.94-1.26-1.06-4.98-.27-6.39.84-1.5,1.98-2.84,2.47-4.68-3.21-.29-6.21.44-9.8.53Zm-41.35.59c.25.03.43.12.55.07,1.69-.7,3.38-1.39,5.04-2.14,3.03-1.38,3.09-2.14.37-4.21-1.05-.8-2.23-1.13-3.51-.94-1.14.17-2.1.76-2.38,1.92-.43,1.76-.77,3.55-.07,5.31Zm79.74-10.78c-.51-2.27-1.55-3.98-3.31-5.21-1.32-.92-2.52-.95-3.44-.24-.76.59-1.66,3.26-1.39,4.09.15.46.54.63.94.67,2.35.23,4.68.76,7.19.68Zm-15.39,9.2c.26-2.44-1.27-5.01-3.35-5.62-1.18-.34-2.13.06-2.91.93-1.04,1.16-1.26,3.21-.49,5.1.49-.92.3-1.86.48-2.72.21-.95.61-1.78,1.61-2.03.97-.24,1.77.2,2.45.91.59.62.94,1.36,1.28,2.13.22.5.22,1.15.94,1.31Zm-29.46,1.43c-.66-1.86-1.49-3.57-3.67-3.91-1.36-.21-2.43.45-3.15,1.6-.96,1.53-1.22,3.1.08,5.24.07-1.42.08-2.29.17-3.15.11-1.17.66-2.08,1.86-2.38,1.14-.28,2.1.07,2.9.97.54.61.81,1.48,1.8,1.64Z"/>
    <path class="cls-3" d="m143.07,222.02c3.61.73,7.18,1.56,10.46,3.3-1.54,2.31-3.65,4.13-5.34,6.31-.65.21-1.22.54-1.67,1.05-3.36,3.84-7.64,6.4-12.13,8.63-9.85,4.88-20.18,6.74-31.04,4.46-11.76-2.47-20.12-9.46-25.92-19.81-4.84-8.63-6.91-17.95-7.23-27.74-.3-9.07,0-18.14.12-27.21.14-10.28-.79-20.44-3.37-30.42-.63-2.42-1.22-4.85-1.37-7.35-.15-2.57,1.03-4.76,2.98-5.55,2.04-.83,4.89.07,6.44,2.1,1.32,1.74,2.11,3.76,2.92,5.77,3.25,8.1,4.09,16.58,4.17,25.21.08,8.66-.58,17.3-.64,25.96-.06,7.85.45,15.65,2.62,23.24,2.35,8.22,6.42,15.43,13.56,20.39,8.73,6.07,18.27,6.74,28.11,3.11,6.65-2.45,12.5-6.23,17.34-11.47Z"/>
    <path class="cls-3" d="m230.6,184.5c-2.6-1.94-5.58-3.24-8.35-4.89-4.28-2.55-8.65-4.96-12.93-7.5-2.43-1.44-4.73-3.05-6.27-5.56-2.49-4.05-.17-10.18,4.41-11.54.94-.28,1.8-.09,2.68.18,2.41.74,4.49,2.14,6.65,3.37,2.16,1.23,4.18,2.7,6.47,3.69,2.41,1.62,4.8,3.25,7.22,4.85,8.89,5.88,17.06,12.64,24.81,19.94.84.79,1.6,1.68,2.39,2.53.24.77.55,1.54.71,2.33.43,2.03-.34,3.49-2.2,4.4-.75.37-1.56.47-2.37.54-2.29-.75-4.37-1.95-6.49-3.09-5.62-3.01-11-6.45-16.73-9.25Z"/>
    <path class="cls-4" d="m317.29,117.71c4.29-3.14,8.44-6.2,12.61-9.23,2.29-1.66,4.63-3.26,6.92-4.92,1-.72,1.96-.9,3.24-.65,8.78,1.74,17.64,2.5,26.59,1.68,5.74-.53,11.33-1.72,16.72-3.84,10.05-3.96,16.34-11.33,19.12-21.57,3.83-14.14.95-27.05-8.16-38.49-6.01-7.53-13.5-13.28-22.17-17.49-.6-.29-1.83-.36-1.42-1.29.39-.91,1.3-.17,1.92.14,12.78,6.4,23.27,15.23,29.19,28.57,3.86,8.7,4.6,17.83,2.39,27.12-3.06,12.9-10.9,21.39-23.58,25.42-9.36,2.97-18.95,3.5-28.66,2.77-3.98-.3-7.96-.77-11.85-1.69-1.28-.3-2.24.13-3.22.85-5.92,4.32-11.85,8.62-17.78,12.91-2.48,1.8-2.58,2.55-3.81-1.26-2.02-6.25-4.06-12.49-6-18.76-.49-1.57-1.34-2.39-2.89-3.01-12.68-5.04-23.12-13.02-31.31-23.96-14.09-18.84-6.47-45.43,14.23-54.79,7.67-3.47,15.76-5.35,24.11-5.94,17.56-1.24,34.52,1.49,50.76,8.35.75.32,2.29.42,1.88,1.45-.46,1.17-1.55.02-2.27-.27-14.58-6.06-29.78-8.93-45.55-8.5-9.64.26-19.08,1.84-27.9,5.92-13.23,6.12-20.22,16.68-21.12,31.11-.48,7.71,1.85,14.8,6.36,21.1,8.12,11.35,18.79,19.45,31.76,24.5,1.55.61,2.44,1.41,2.93,2.99,1.87,6.03,3.84,12.04,5.79,18.04.28.86.41,1.79,1.17,2.74Z"/>
    <path class="cls-3" d="m227.71,151.3c-.82-4.34-1.99-8.64-1.57-13.13.63-.21,1.25-.46,1.89-.64,9.99-2.74,17.32-8.9,22.68-17.6.7-1.14,1.48-2.22,2.51-3.08,2.42-2,5-1.07,5.45,2.06.39,2.68-.21,5.32-.99,7.86-.83,2.72-2.22,5.2-4.12,7.34-6.52,7.34-14.44,12.7-23.46,16.5-.76.32-1.59.46-2.39.68Z"/>
    <path class="cls-4" d="m345.73,250.73c-1.25,0-2.5-.06-3.74-.09.02-.21.05-.43.07-.64,1.08-.02,2.16-.07,3.24-.07,159.17,0,318.35,0,477.52,0,.92,0,1.83.04,2.75.06,0,.23,0,.45.01.68-.92.02-1.83.05-2.75.05"/>
    <path class="cls-4" d="m295.29,167.99c.05,2.38-.98,4.35-2.35,6.2-6.34,1.95-10.9-1.73-15.29-5.19-3.11-2.45-2.59-6.93.51-9.01,1.17-.79,2.44-1,3.81-.81,4.07.56,7.64,2.27,10.77,4.87,1.23,1.02,2.02,2.41,2.55,3.94Z"/>
    <path class="cls-5" d="m825.59,250.68c0-.23,0-.45-.01-.68,5.68-.34,11.31.35,16.9,1.15,13.34,1.93,26.11,5.79,38.21,11.76,25.9,12.8,45.56,32.02,58.94,57.61,5.11,9.77,8.82,20.07,11.23,30.82.2.89.29,1.8.44,2.7-.25-.04-.51-.08-.76-.11-.15-.22-.27-.44.02-.65-.04-.47.04-.99-.47-1.3-.97-3.44-1.86-6.9-2.93-10.3-14.1-45.03-51.22-78.63-97.33-88.16-6.78-1.4-13.62-2.29-20.54-2.52-1.24-.04-2.5.13-3.7-.32Z"/>
    <path class="cls-4" d="m148.19,231.63c1.69-2.18,3.8-4,5.34-6.31.87.01,1.59.47,2.32.84,6.88,3.54,14.17,6.03,21.52,8.38,1.25.4,2.6.6,3.58,1.61.21,1.1,1.36,1.67,1.57,2.76-1.73.23-3.44.02-5.17-.14-3.01-.28-6.02-1.15-9.06-.17-1.98-.69-4.09-.52-6.11-1-1.78-.66-3.55-1.29-5.4-1.76-3.14-.81-6.02-2.22-8.59-4.22Z"/>
    <path class="cls-4" d="m253.82,196.84c.81-.07,1.62-.17,2.37-.54,1.86-.91,2.63-2.37,2.2-4.4-.17-.79-.47-1.55-.71-2.33,1.37-.96,2.89-.7,4.29-.29,2.21.65,4.38,1.47,6.49,2.38,2.45,1.05,4,3.05,5.07,5.44.14,2.46-1.11,4.35-2.5,6.19-1.47.19-2.87.97-4.38.66-4.09-.84-7.91-2.3-11.16-5-.69-.57-1.37-1.21-1.68-2.11Z"/>
    <path class="cls-4" d="m357.83,59.38c.98,1.65,1.14,3.33-.06,4.91-1.97,2.61-4.68,1.94-7.41,1.36.05,1.23.97,1.35,1.65,1.67,1.27.62,2.65,1.02,3.79,1.89,2,1.52,1.74,3.91-.53,4.95-2.33,1.07-8.4-.16-10.12-2.06-1.2-1.33-.85-2.78.99-3.49.86-.33,1.4-.41,1.05-1.62-.27-.91,0-.99,1.62-2.15,0-.37-.25-.59-.46-.85-1.19-1.44-1.33-3.02-.48-4.65.81-1.55,2.18-2.22,3.89-2.27.5-.01,1.03-.08,1.49.06,1.81.52,3.44.96,5.28-.34,1.19-.84,2.77.23,2.73,1.48-.01.59-.18,1.19-.83,1.41-.5.16-.98.09-1.34-.37-.32-.41-.42-1.18-1.24-.86-.79.29-.41.61-.02.94Zm-2.75,1.83c-.03-.41-.02-.83-.11-1.23-.22-.93-.66-1.72-1.75-1.81-1.12-.09-1.65.68-1.95,1.57-.37,1.1-.49,2.25-.29,3.42.17,1.01.73,1.7,1.74,1.82.96.12,1.5-.55,1.84-1.37.32-.77.52-1.57.53-2.41Zm-3.09,12.27c.86-.05,1.62-.23,1.87-1.05.29-.92-.48-1.33-1.11-1.68-1.01-.55-2.06-1.01-3.11-1.49-.82-.38-1.61-.44-2.19.4-.65.93-.25,1.76.47,2.4,1.17,1.03,2.68,1.17,4.05,1.43Z"/>
    <path class="cls-4" d="m288.56,51.6c2.11.07,2.31-1.42,2.66-2.91.65-2.75,1.42-5.46,2.13-8.19q.59-2.25-.72-3.9c1.55-.38,4.67.33,6.94,1.62-.37.96-1.87.2-2.09,1.33-.16.81-.43,1.6-.64,2.41-.77,2.97-1.47,5.97-2.32,8.92-.37,1.3.07,1.76,1.25,2.14,1.99.63,3.59.38,4.77-1.47.22-.35.52-.64.79-.96.29-.35.68-.55,1.06-.24.27.21.25.61.08.92-.67,1.24-1.34,2.49-2.05,3.7-.25.44-.68.83-1.23.54-3.07-1.6-6.51-1.88-9.75-2.89-.32-.1-.62-.23-.89-1Z"/>
    <path class="cls-4" d="m366.29,60.55c3.67.13,6.35,2.7,6.28,6.04-.07,3.49-2.9,6.17-6.31,5.97-3.8-.22-6.42-2.89-6.25-6.36.17-3.45,2.76-5.78,6.28-5.65Zm-2.7,6.45c-.06,1.03.02,2.1.59,3.07.93,1.59,2.94,1.68,3.83.07,1.21-2.2,1.42-4.58.46-6.95-.36-.9-1.09-1.47-2.12-1.46-.93.01-1.54.6-1.94,1.36-.63,1.2-.85,2.5-.81,3.91Z"/>
    <path class="cls-4" d="m307.27,51.29c-.46,1.75.09,3.05,1.49,3.93,1.76,1.11,3.48.81,5.18-.63.48,1.49-.43,2.13-1.28,2.67-2.99,1.92-7.86-.06-8.65-3.54-.59-2.56.15-4.82,2.16-6.51,2.02-1.69,4.34-1.52,6.58-.5,1.74.79,2.64,2.25,2.54,4.2-.08,1.66-.57,2.09-2.2,1.77-1.3-.25-2.57-.65-3.86-.97-.63-.16-1.27-.27-1.96-.42Zm4.8-1.77c-.02-1.35-.66-2.2-1.74-2.31-1.11-.11-2.75,1.21-2.74,2.41.01,1.33,1.35.82,2.05,1.21.21.12.47.17.71.22,1.4.27,1.73-.02,1.71-1.53Z"/>
    <path class="cls-4" d="m331.07,59.57c.97.47.93,1.34,1.3,1.96.53.9,1.22,1.56,2.25,1.82.73.19,1.32,0,1.71-.65.41-.68.19-1.34-.36-1.78-.64-.51-1.4-.87-2.11-1.31-.92-.57-1.83-1.14-2.35-2.16-.99-1.97.15-4.44,2.32-4.85,1.33-.25,2.67-.14,3.88.52.87.47,1.69,1.07,2.88.32.09,1.49.17,2.56.21,3.63.01.33-.17.68-.57.63-.2-.02-.46-.21-.56-.39-.27-.51-.43-1.08-.72-1.58-.71-1.23-1.78-1.94-3.23-2.01-.64-.03-1.11.29-1.39.87-.29.61-.12,1.16.36,1.56.5.42,1.08.76,1.63,1.12.56.36,1.16.66,1.68,1.07,1.51,1.19,1.91,2.56,1.27,4.16-.62,1.55-1.92,2.27-3.81,2.16-.77-.04-1.46-.31-2.14-.62-.3-.14-.61-.32-.81-.57-.55-.68-1.51.56-1.94-.45-.2-.47.03-2.1.5-3.46Z"/>
    <path class="cls-4" d="m317.34,48.34c1.97.54,2.84-.76,3.95-1.57.31-.23.69-.55,1.12-.29.44.27.34.73.22,1.11-.43,1.3-.11,2.04,1.37,2.14.44.03,1.14.16,1.05.78-.09.63-.71.49-1.22.42-1.91-.27-1.91-.26-2.4,1.54-.37,1.36-.74,2.72-1.06,4.09-.51,2.19-.03,2.57,2.22,1.88.11-.03.28.11.42.16-.75,1.83-1.91,2.42-3.8,1.92-1.81-.48-2.82-1.77-2.48-3.44.34-1.7.83-3.38,1.3-5.05.36-1.28.7-2.52-.68-3.7Z"/>
    <path class="cls-4" d="m376.5,66.59c.24-2.38.4-4.78.73-7.15.27-1.93,1.57-2.61,3.17-1.81.94.47,1.4,1.25.99,2.24-1.21,2.98-2.5,5.93-3.76,8.89-.14.33-.42.59-.76.52-.47-.1-.57-.53-.54-.96.04-.58.12-1.15.19-1.73,0,0-.01,0-.02,0Z"/>
    <path class="cls-4" d="m326.31,50.47c.43-.61,1.18-.46,1.75-.75,1.63-.83,1.7-1.33.26-2.35-1.26-.9-1.36-2.26-.21-3.02,1.18-.78,3.04-.08,3.39,1.33.52,2.07-1.62,5.95-4.93,5.22-.11-.02-.16-.26-.25-.41Z"/>
    <path class="cls-5" d="m251.01,70.99c.12-.12.23-.25.35-.37,1.03.54,2.1.27,3.18.23,1.93-.07,3.9-.46,5.79.43-.35.82-.97.76-1.54.78-1.91.05-3.83.15-5.74.12-1.09-.02-1.52.47-1.58,1.44.17-.6.06-1.11-.35-1.55-.03-.36-.07-.72-.1-1.08Z"/>
    <path class="cls-5" d="m250.56,65.52c.03-.16.11-.3.24-.41,2.5-.55,4.89-1.55,7.47-1.72.5-.03.99-.15,1.48-.13.18,0,.45.27.49.45.04.19-.1.55-.26.62-.44.21-.93.38-1.41.43-2.07.24-4.05,1.03-6.15,1.03-.67,0-1.03.49-1.52.78-.44-.25-.22-.71-.34-1.05Z"/>
    <path class="cls-4" d="m378.02,72.81c.02,1.15-1.12,2.29-2.23,2.25-1.01-.04-2.06-1.13-2.07-2.16-.01-1.17,1.09-2.26,2.25-2.22,1.08.04,2.03,1.03,2.05,2.13Z"/>
    <path class="cls-5" d="m168.7,87.78c-.23.32-.47.65-.7.97-1.07.43-1.51,1.51-2.31,2.21-.92.8-1.66,1.85-3.01,2.31-.46-1.09.29-1.62.83-2.14,1.25-1.2,2.55-2.35,3.83-3.52.49-.21.97-.42,1.37.16Z"/>
    <path class="cls-5" d="m121.58,251.46c0-.28-.01-.55-.02-.83,3.32-.51,6.64-.84,10.01-.61,0,.24,0,.48.01.72-3.31.51-6.67.4-10,.72Z"/>
    <path class="cls-5" d="m163,73.59c.2.05.39.09.59.14-.07.42.11.75.37,1.04-.11.18-.21.37-.32.55-.69-.27-1.34-.15-2.07,0-1.46.31-2.84,1.25-4.79.84,1.26-1.4,2.81-1.43,4.12-1.92.68-.26,1.49-.13,2.1-.65Z"/>
    <path class="cls-4" d="m131.58,250.74c0-.24,0-.48-.01-.72,8.5,0,17.01,0,25.51-.01,0,.18,0,.36,0,.55,0,0,.02.17.02.17-8.51,0-17.01,0-25.52.01Z"/>
    <path class="cls-4" d="m168.7,87.78c-.39-.58-.88-.37-1.37-.16.09-.16.17-.31.26-.46,1.31-.74,2.17-2,3.3-2.94.57-.47,1.09-1,1.64-1.5.3-.27.65-.6,1.06-.26.43.36.14.74-.11,1.07-.14.2-.32.38-.51.54-1.41,1.26-2.67,2.68-4.28,3.71Z"/>
    <path class="cls-5" d="m166.03,81.78c-.21.26-.42.52-.64.78-1.84.33-3.26,1.85-5.5,1.92,1.35-2.18,3.67-2.38,5.34-3.54.26-.04.52-.09.78-.14,0,.33,0,.65.01.98Z"/>
    <path class="cls-5" d="m252.22,80.05c-.08-.13-.14-.27-.17-.42.15-.43.04-.85-.1-1.26.02-.11.09-.19.19-.24.69.94,1.81,1,2.79,1.35.97.35,2.02.52,2.96,1.51-2.21.52-3.85-.76-5.67-.94Z"/>
    <path class="cls-4" d="m250.56,65.52c.13.35-.1.81.34,1.05,0,0,.02.09.02.09-1.87.46-3.52,1.46-5.3,2.15-.31.12-.68.28-.9-.05-.3-.43-.02-.81.35-1.02,1.74-.96,3.5-1.87,5.48-2.23Z"/>
    <path class="cls-4" d="m951.41,358.66c-.34-.7-.34-1.46-.39-2.22.25.04.5.08.75.12.07.31.14.63.21.94-.05.05-.16.13-.15.15.05.12.14.23.21.34.02.17.04.35.06.52-.23.05-.46.1-.7.15Z"/>
    <path class="cls-5" d="m951.77,356.56c-.25-.04-.5-.08-.75-.12-.21-.37-.4-.74-.2-1.18.23-.08.46-.16.69-.25.24.49.35,1,.26,1.54Z"/>
    <path class="cls-4" d="m951.81,361.2c-.28-.56-.25-1.16-.28-1.76.25.04.51.07.76.11.06.31.13.63.19.94-.14.17-.28.34-.42.51-.08.07-.17.13-.25.19Z"/>
    <path class="cls-5" d="m952.29,359.55c-.25-.04-.51-.07-.76-.11-.04-.26-.08-.52-.12-.79.23-.05.46-.1.7-.15.19.33.34.66.19,1.05Z"/>
    <path class="cls-5" d="m157.08,250.56c0-.18,0-.36,0-.55.32-.04.64-.08.95-.13-.12.5-.41.77-.95.67Z"/>
    <path class="cls-5" d="m342.06,250.01c-.02.21-.05.43-.07.64-.16.03-.32.06-.49.09-.28-.22-.43-.5-.46-.85.34.04.68.08,1.02.12Z"/>
    <path class="cls-4" d="m951.51,355.02c-.23.08-.46.16-.69.25-.29-.4-.27-.87-.29-1.33.25.04.51.08.76.11.07.32.15.64.22.97Z"/>
    <path class="cls-4" d="m953.1,364.18c-1.65.7-.77-.76-1.05-1.23.24-.03.47-.06.71-.09.11.44.23.89.34,1.33Z"/>
    <path class="cls-5" d="m952.75,362.85c-.24.03-.47.06-.71.09-.19-.4-.28-.81-.15-1.24.23-.06.46-.12.69-.18.2.43.28.87.17,1.33Z"/>
    <path class="cls-5" d="m952.04,357.99c-.07-.11-.16-.22-.21-.34-.01-.02.09-.1.15-.15.02.16.04.33.06.49Z"/>
    <path class="cls-5" d="m953.02,365c-.33-.19-.44-.46-.31-.83.16-.05.29-.02.39.08-.03.25-.05.5-.08.75Z"/>
    <path class="cls-4" d="m952.58,361.52c-.23.06-.46.12-.69.18-.03-.17-.06-.33-.09-.5.09-.06.17-.13.25-.19,0,0,.24-.03.24-.03l.24.02c.02.17.03.35.05.52Z"/>
    <path class="cls-5" d="m952.53,360.99l-.24-.02s-.24.03-.24.03c.14-.17.28-.34.42-.51.02.17.04.33.05.5Z"/>
    <path class="cls-5" d="m356.57,326.9c-1.15-6-2.31-12-3.45-18-.08-.4-.07-.82-.1-1.24,5.15-.3,10.3-.3,15.46-.19,6.28.14,12.19,1.71,17.85,4.27,15.09,6.81,26.87,17.34,34.32,32.15,4.91,9.76,8.31,20.14,9.49,31.12,1.3,12.16-.29,23.92-4.93,35.23-3.44,8.39-8.56,15.63-15.65,21.33-5.86,4.71-12.58,7.82-19.97,9.3-11.98,2.4-23.8,1.67-35.54-1.81-6.25-1.85-12.38-3.94-18.12-7.01-11.03-5.89-20.56-13.58-27.69-23.95-8.82-12.82-12.65-26.94-11.17-42.53.99-10.46,3.96-20.21,9.22-29.28,5.87-10.11,14.15-17.56,24.84-22.32,4.95-2.2,9.98-4.17,15.39-4.97,1.13,5.6,2.27,11.21,3.39,16.81.11.57.1,1.16.15,1.73-1.65.51-3.36.9-5.02,1.28-4.31.99-8.11,2.94-11.79,5.21-8.54,5.27-14.68,12.66-18.84,21.75-4.97,10.86-5.18,21.82-.92,32.97,3.19,8.37,8.41,15.21,15.05,21.11,5.22,4.63,11.09,8.16,17.37,11.13,4.99,2.35,10.21,4.1,15.52,5.38,5.66,1.36,11.49,1.88,17.35,1.56,6.47-.35,12.46-1.99,17.66-6.02,4.33-3.36,7.73-7.51,10.72-12.05,2.55-3.88,4.01-8.22,5.26-12.62,1.92-6.81,2.57-13.75,1.33-20.73-1.87-10.54-6.57-19.79-13.01-28.28-6.99-9.21-16.03-15.39-26.94-18.87-5.57-1.78-11.33-2.69-17.21-2.43Z"/>
    <path class="cls-5" d="m144.95,286.3c.11-1.3.89-2.31,1.5-3.38,1.68-2.95,3.39-5.89,5.08-8.83,1.18-.07,2.71-.7,2.21,1.63-.12.56.66.89,1.11,1.25,13.98,11.04,22.17,25.59,26.11,42.78,2.16,9.45,2.72,19.06,1.29,28.51-2.55,16.81-10.38,30.41-26.28,38.29-14.98,7.42-30.54,8.56-46.67,4.74-7.78-1.84-14.82-5.37-21.9-8.91-5.28-2.64-9.89-6.11-14.18-10.09-10.25-9.48-16.3-21.3-19.34-34.77-1.12-4.95-.75-9.93-.05-14.89.32-2.3.46-4.64,1.14-6.87.01-.82.03-1.65.04-2.49.9-1.26.9-2.81,1.32-4.23,3.62-12.24,9.89-22.87,19.57-31.26,5.86-5.07,12.84-8.25,20.21-10.52,5.66-1.75,11.49-2.78,17.4-2.93,6.32-.16,12.6.17,18.78,1.9,3.28.92,6.57,1.77,9.73,3.06,1.23.5,2.48.97,3.52,1.84-1.93,3.8-3.75,7.67-6.4,11.05-1.41-.26-2.67-.91-4-1.4-5.58-2.06-11.3-3.59-17.31-2.99-6.57.65-12.92,2.19-18.85,5.22-12.99,6.64-21.31,17.02-24.95,31.11-1.72,6.66-1.35,13.38,0,20.05,1.61,8.03,4.69,15.45,9.96,21.79,2.92,3.52,6.22,6.71,9.83,9.55,11.13,8.78,23.48,13.63,37.96,12.02,8.44-.94,16.28-3.31,23.17-8.4,5.33-3.93,9.78-8.6,11.8-15.08,1.44-4.62,2.18-9.4,2.27-14.23.15-9.07-1.3-17.91-4.43-26.43-3.98-10.86-10.18-20.16-19.63-27.08Z"/>
    <path class="cls-4" d="m215.79,411.01c5.25.29,9.74,1.38,13.86,3.76.72.41,1.4.9,2.05,1.41.52.4,1.13.85.88,1.63-.23.72-.94.9-1.58,1.07-1.14.3-2.31.21-3.47.14-4.94-.31-9.67-1.59-14.29-3.3-1.17-.43-2.54-1.06-2.45-2.49.1-1.47,1.59-1.79,2.81-2.05.88-.19,1.82-.15,2.19-.17Zm-3.07,1.83c-.26,0-.48.11-.55.36-.15.57.6,1.51,1.23,1.53.13,0,.33-.1.39-.21.25-.44-.48-1.54-1.07-1.68Zm17.12,5.11c.35-.06.61-.26.61-.61,0-.34-.26-.64-.59-.64-.34,0-.57.3-.6.63-.03.36.22.56.57.62Z"/>
    <path class="cls-4" d="m185.24,412.61c5.24.1,10.12,1.71,14.97,3.43.79.28,1.52.71,2.08,1.34.83.93.59,1.89-.62,2.31-1.45.5-2.97.42-4.43.06-4.11-1-8.2-2.04-12.29-3.14-1.27-.34-2.54-.78-3.63-1.58-.41-.3-.75-.73-.65-1.27.1-.55.59-.81,1.1-.87,1.15-.13,2.31-.19,3.47-.28Zm14.54,5.92c.16-.11.49-.21.52-.36.05-.31-.1-.63-.47-.72-.35-.08-.63,0-.67.41-.03.39.25.54.62.66Z"/>
    <path class="cls-4" d="m254.03,432.45c-3.65-.45-7.12-.79-10.52-1.5-.77-.16-1.85-.26-1.79-1.33.04-.81.98-1.08,1.69-1.23,3.54-.77,7.05-.74,10.52.41.31.1.6.29.87.48.75.53,1.59,1.1,1.32,2.17-.3,1.2-1.43.87-2.08,1Z"/>
    <path class="cls-4" d="m217.46,429.84c-1.43-.2-3.32-.42-5.2-.76-.8-.14-1.59-.47-2.33-.83-.77-.38-1.4-1-1.32-1.94.09-1.02.93-1.31,1.77-1.43,3.3-.46,6.44,0,9.33,1.72.77.46,1.64,1.08,1.28,2.16-.3.91-1.24,1-2.08,1.08-.33.03-.66,0-1.46,0Z"/>
    <path class="cls-5" d="m211.59,357.44c.76.15,1.34.5,1.56,1.29-2.72,2.93-4.89,6.28-7.24,9.48-.6.82-1.19,1.64-.13,2.6.39.35.4.9-.01,1.34-.41.44-.91.39-1.37.16-1.73-.87-3.25-2-4.24-3.72-.3-.51-.6-1.03-.05-1.57.44-.44.91-.17,1.39-.07.76.16,1.28,1.36,2.18.68.57-.43.89-1.18,1.32-1.79,2.07-2.91,4.3-5.69,6.61-8.41Z"/>
    <path class="cls-4" d="m844.33,484.2c1.61.96,2.83,1.67,4.02,2.41.42.26.86.62.51,1.21-.31.53-.79.52-1.29.24-1.94-1.13-3.88-2.26-5.81-3.4-.73-.43-.72-1-.3-1.69,1.07-1.78,2.1-3.59,3.16-5.38.31-.53.74-1.02,1.4-.61.71.43.27,1.01.02,1.52-.55,1.1-1.38,2.07-1.8,3.45,1.44.35,2.61-.38,3.83-.61,1.06-.19,2.08-.57,3.12-.85.63-.17,1.18-.12,1.34.65.14.68-.36.82-.87.95-1.93.51-3.85,1.02-5.78,1.55-.39.11-.76.27-1.55.56Z"/>
    <path class="cls-4" d="m384.74,273.58c-.97-1-1.92-1.97-2.87-2.95-.45-.46-.71-1.03-.14-1.5.44-.36.94-.07,1.32.32,1.53,1.53,3.06,3.06,4.58,4.59.48.48.59,1,.07,1.52-1.58,1.6-3.16,3.19-4.76,4.77-.38.37-.87.59-1.31.14-.43-.44-.22-.94.15-1.32.96-1,1.94-1.99,3.16-3.23-1.46-.41-2.59-.2-3.69-.25-.83-.03-1.66,0-2.5-.01-.59,0-1.21.02-1.16-.87.05-.9.72-.76,1.27-.77,1.33-.02,2.66.01,3.99-.02.55-.01,1.15.2,1.87-.42Z"/>
    <path class="cls-4" d="m279.26,431.73c-2.01-.16-3.91-.65-5.57-1.85-.47-.34-.95-.75-.75-1.42.19-.64.77-.89,1.35-.91,2.26-.1,4.45.23,6.43,1.39.63.37,1.34.93,1.11,1.75-.22.79-1.07.94-1.82,1.04-.24.03-.49,0-.74,0Z"/>
    <path class="cls-4" d="m927.56,367.86c.04.53.06.77.07,1.02.03.54-.31.69-.77.73-.49.04-.79-.14-.86-.65-.21-1.65-.44-3.3-.64-4.95-.06-.49.23-.78.68-.88.64-.13.91.22.99.8.19,1.4.38,2.8.53,3.93Z"/>
    <path class="cls-4" d="m899.35,452.5c-.27.52-.33.78-.49.94-1.15,1.18-2.32,2.33-3.48,3.5-.47.48-.87.31-1.23-.11-.3-.34-.36-.69.02-1.06,1.17-1.15,2.33-2.33,3.5-3.49.24-.24.52-.4.87-.23.3.15.58.32.81.45Z"/>
    <path class="cls-4" d="m924.27,404.16c.5.18,1.15.2.98.92-.4,1.7-.84,3.38-1.31,5.06-.14.48-.58.51-1.03.39-.35-.1-.65-.29-.56-.67.43-1.78.89-3.54,1.38-5.3.05-.18.37-.28.54-.4Z"/>
    <path class="cls-4" d="m31.41,367.07c.17-1.07.34-2.13.52-3.2.07-.43.22-.81.78-.75.58.07.92.38.84.99-.2,1.65-.4,3.3-.64,4.94-.08.51-.53.59-.96.54-.45-.05-.8-.24-.71-.79.08-.58.17-1.15.26-1.73-.03,0-.05,0-.08-.01Z"/>
    <path class="cls-4" d="m31.39,392.84c.12-.82-.86-2.11.74-2.17,1.22-.04.78,1.22.93,1.95.21,1.06.32,2.14.46,3.21.08.59.17,1.18-.7,1.28-.9.11-.89-.56-.98-1.11-.18-1.06-.31-2.14-.46-3.16Z"/>
    <path class="cls-5" d="m489.05,509.56c-.71.65-1.57.37-2.37.38-5.21.02-10.42.02-15.63,0-1.49,0-2.98.05-4.44.48-2.03,0-4.05.02-6.08-.01.08-.93.51-.97.9-.97,9.21.05,18.42-.18,27.63.11Z"/>
    <path class="cls-4" d="m47.66,434.65c.05.69-.25.85-.52,1.03-.32.21-.66.2-.85-.12-.93-1.54-1.84-3.1-2.72-4.67-.16-.28-.11-.68.26-.84.29-.12.83-.27.9-.17,1.06,1.64,2.06,3.32,2.93,4.77Z"/>
    <path class="cls-4" d="m98.68,479.3c-1.62-.72-3.35-1.47-5.06-2.26-.37-.17-.24-.52-.12-.85.17-.47.48-.69.93-.51,1.6.64,3.2,1.3,4.78,1.99.42.19.5.59.33,1.05-.13.35-.37.52-.86.58Z"/>
    <path class="cls-4" d="m915.42,430.64c-.06.15-.14.38-.26.58-.78,1.36-1.57,2.71-2.35,4.07-.3.52-.65.67-1.19.32-.55-.35-.52-.72-.22-1.23.81-1.34,1.56-2.71,2.35-4.06.22-.38.51-.63,1-.43.32.13.59.29.66.75Z"/>
    <path class="cls-4" d="m41.27,422.54c.06.47-.08.73-.41.89-.41.2-.89.25-1.08-.18-.73-1.65-1.4-3.32-2.07-4.99-.14-.34.03-.64.39-.76.38-.13.85-.33,1.08.17.74,1.64,1.42,3.31,2.09,4.88Z"/>
    <path class="cls-4" d="m41.22,337.87c-.61,1.44-1.3,3.11-2.02,4.77-.15.35-.5.41-.83.28-.4-.15-.84-.39-.65-.87.65-1.69,1.36-3.35,2.09-5.01.13-.29.45-.48.81-.27.34.19.81.29.61,1.09Z"/>
    <path class="cls-4" d="m36.53,350.69c-.42,1.54-.87,3.14-1.29,4.75-.17.65-.6.7-1.14.57-.56-.14-.57-.57-.47-.98.42-1.61.88-3.2,1.34-4.8.13-.47.44-.69.93-.5.4.16.75.37.64.96Z"/>
    <path class="cls-4" d="m923.15,349.66c.48-.1.72.22.83.63.43,1.58.84,3.17,1.23,4.76.1.42.1.82-.45.95-.53.12-.99.11-1.15-.53-.41-1.59-.8-3.18-1.23-4.76-.19-.69.27-.84.77-1.05Z"/>
    <path class="cls-4" d="m927.56,392.43c-.14,1.05-.34,2.36-.49,3.68-.08.67-.27,1.12-1.07.99-.69-.11-.69-.55-.61-1.1.21-1.48.4-2.96.57-4.45.07-.55.21-.97.88-.93.69.04.76.51.76,1.04,0,.17-.02.33-.04.77Z"/>
    <path class="cls-4" d="m34.48,404.22c.47-.06.64.23.73.56.45,1.6.9,3.19,1.32,4.8.11.43.02.81-.51.95-.44.11-.87.13-1.02-.37-.49-1.67-.96-3.35-1.39-5.04-.17-.7.43-.78.86-.89Z"/>
    <path class="cls-4" d="m60.77,451.98c.14.1.36.22.52.38,1.11,1.1,2.21,2.22,3.33,3.31.44.42.51.78.06,1.23-.35.35-.72.44-1.07.1-1.24-1.2-2.46-2.43-3.67-3.67-.22-.23-.37-.55-.06-.86.23-.23.44-.5.88-.5Z"/>
    <path class="cls-4" d="m860.11,479.25c-.47,0-.6-.3-.77-.58-.29-.47-.09-.83.32-1,1.59-.69,3.19-1.33,4.79-1.99.52-.22.73.15.94.51.19.32.19.68-.14.86-1.65.93-3.44,1.55-5.15,2.2Z"/>
    <path class="cls-4" d="m884.25,466.05c-.4,0-.6-.24-.78-.53-.2-.33-.18-.65.11-.87,1.35-1.07,2.72-2.12,4.1-3.16.37-.28.74-.22,1.06.18.28.36.45.71.03,1.05-1.35,1.07-2.72,2.12-4.09,3.17-.12.09-.29.12-.42.17Z"/>
    <path class="cls-4" d="m907.03,441.44c.54-.07,1.18.7.88,1.12-1.06,1.47-2.17,2.89-3.31,4.3-.33.41-.74.21-1.06-.1-.22-.22-.51-.47-.24-.83,1.09-1.44,2.19-2.88,3.3-4.3.09-.11.29-.13.42-.18Z"/>
    <path class="cls-4" d="m918.45,336.73c.47-.07.62.25.75.54.64,1.51,1.28,3.02,1.9,4.54.24.58-.03.95-.59,1.12-.45.13-.77-.01-.96-.49-.61-1.52-1.28-3.02-1.89-4.55-.31-.78.25-1,.79-1.16Z"/>
    <path class="cls-4" d="m912.01,324.53c.43-.06.63.22.79.5.79,1.35,1.56,2.71,2.36,4.05.3.5.34.89-.19,1.23-.53.34-.91.2-1.21-.32-.82-1.43-1.67-2.84-2.47-4.28-.44-.79.22-.97.72-1.19Z"/>
    <path class="cls-4" d="m920.18,417.35c.82.07,1.2.42.92,1.15-.6,1.52-1.25,3.02-1.88,4.53-.19.45-.5.6-.97.47-.46-.12-.8-.43-.63-.87.64-1.68,1.34-3.34,2.05-4.99.07-.16.39-.22.51-.29Z"/>
    <path class="cls-4" d="m32.33,380.27c0,.82.02,1.64,0,2.46-.02.48-.32.71-.8.71-.46,0-.83-.18-.84-.67-.03-1.72-.04-3.45-.03-5.17,0-.52.38-.67.83-.68.6-.02.9.28.89.89-.01.82,0,1.64,0,2.46,0,0-.02,0-.03,0Z"/>
    <path class="cls-4" d="m877.72,290.18c-.23.7-.6,1.11-1.29.73-1.43-.79-2.84-1.63-4.26-2.45-.39-.23-.62-.53-.36-.99.21-.36.48-.78.94-.53,1.58.85,3.14,1.76,4.69,2.67.16.1.2.41.28.57Z"/>
    <path class="cls-4" d="m906.96,318.88c-.1-.07-.33-.17-.47-.34-1.02-1.3-2.01-2.62-3.03-3.91-.43-.54-.2-.89.24-1.22.39-.29.74-.25,1.05.15,1.05,1.38,2.13,2.73,3.14,4.14.3.43-.28,1.22-.92,1.18Z"/>
    <path class="cls-4" d="m356.18,275.65c-.82,0-1.64,0-2.46,0-.46,0-.79-.17-.82-.69-.03-.56.14-.96.8-.96,1.64,0,3.28,0,4.92.02.5,0,.71.32.72.79.01.49-.22.79-.7.81-.82.03-1.64,0-2.46,0,0,0,0,0,0,0Z"/>
    <path class="cls-4" d="m81.84,469.15c.3.12.54.19.75.31,1.28.73,2.55,1.49,3.84,2.21.58.32.95.68.54,1.35-.33.55-.78.46-1.26.18-1.35-.79-2.7-1.56-4.04-2.35-.36-.21-.69-.51-.43-.98.15-.27.4-.49.6-.73Z"/>
    <path class="cls-4" d="m75.55,465.28c-.31.48-.6,1.11-1.31.59-1.39-1.02-2.75-2.08-4.1-3.14-.41-.32-.29-.7,0-1.06.22-.27.56-.51.83-.31,1.51,1.12,2.99,2.29,4.46,3.46.1.08.08.3.12.46Z"/>
    <path class="cls-4" d="m847.44,277.04c1.4.37,2.85.74,4.29,1.16.48.14.97.39.79,1.05-.21.74-.71.75-1.37.55-1.35-.42-2.72-.78-4.09-1.11-.65-.16-1.12-.36-.89-1.14.2-.67.73-.54,1.27-.5Z"/>
    <path class="cls-4" d="m865.53,283.72c-.18.57-.44,1.09-1.05.86-1.63-.62-3.23-1.32-4.84-1.99-.38-.16-.48-.46-.35-.8.14-.37.34-.9.85-.71,1.71.64,3.39,1.36,5.07,2.08.17.07.24.39.33.56Z"/>
    <path class="cls-4" d="m884.28,294.22c.14.08.37.17.55.31,1.25.95,2.49,1.91,3.73,2.87.44.34.64.71.2,1.23-.42.5-.8.43-1.26.07-1.24-.97-2.49-1.91-3.73-2.87-.32-.25-.65-.51-.31-1.01.19-.28.36-.55.82-.6Z"/>
    <path class="cls-4" d="m872.77,473.43c-.6.02-.76-.27-.94-.55-.21-.33-.19-.69.11-.86,1.55-.93,3.12-1.82,4.68-2.71.36-.2.66,0,.84.27.17.25.44.61.13.89-1.49,1.31-3.32,2.05-4.83,2.97Z"/>
    <path class="cls-4" d="m55.65,445.92c-.04.62-.27.84-.55,1.04-.34.24-.69.11-.88-.14-1.08-1.37-2.13-2.77-3.18-4.16-.23-.31-.2-.59.09-.86.26-.24.66-.52.86-.29,1.3,1.49,2.53,3.04,3.66,4.42Z"/>
    <path class="cls-4" d="m55.01,313.28c-.01.83-.02,1.66-.04,2.49-1.14.62-1.72,1.75-2.5,2.72-.26.32-.55.64-1.03.28-.35-.26-.76-.59-.44-.99,1.26-1.56,1.96-3.63,4.01-4.49Z"/>
    <path class="cls-4" d="m47.76,325.16c-.11.3-.16.55-.27.75-.78,1.37-1.58,2.73-2.37,4.1-.24.42-.57.6-1.02.39-.52-.24-.77-.64-.45-1.2.83-1.44,1.66-2.87,2.51-4.3.18-.31.5-.48.84-.33.28.13.51.39.76.59Z"/>
    <path class="cls-4" d="m899.18,307.47c-.16.23-.28.44-.43.62-.24.29-.56.38-.85.1-1.25-1.22-2.5-2.44-3.73-3.68-.33-.33-.3-.74.04-1.1.33-.35.68-.46,1.06-.09,1.19,1.17,2.37,2.34,3.54,3.52.16.16.24.4.37.63Z"/>
    <path class="cls-4" d="m164.44,274.02c.74,0,1.48-.01,2.22,0,.58.01.89.31.86.92-.03.54-.41.68-.82.68-1.64.02-3.29,0-4.93,0-.48,0-.74-.27-.73-.77,0-.47.19-.81.7-.82.9-.02,1.81,0,2.71,0,0,0,0-.01,0-.02Z"/>
    <path class="cls-4" d="m369.74,275.62c-.82,0-1.64.02-2.46,0-.48-.01-.72-.29-.7-.79.02-.48.26-.78.74-.78,1.64-.02,3.28-.02,4.93-.01.61,0,.85.37.81.95-.04.55-.44.64-.85.65-.82.02-1.64,0-2.46,0,0,0,0-.01,0-.02Z"/>
    <path class="cls-4" d="m926.58,380.01c0-.82-.03-1.65.01-2.47.03-.5.44-.62.88-.61.38,0,.65.22.66.57.02,1.81.01,3.63-.03,5.44,0,.35-.32.52-.7.51-.48,0-.8-.21-.82-.71-.02-.91,0-1.81,0-2.72Z"/>
    <path class="cls-4" d="m178.19,274.02c.43.41.8.87.95,1.47-1.21.28-2.43.15-3.65.15-.45,0-.77-.17-.81-.69-.05-.61.24-.92.83-.92.9-.01,1.79,0,2.69,0Z"/>
    <path class="cls-5" d="m106.72,481.84c-.27-.01-.46-.14-.44-.43.02-.32.1-.67.44-.77.36-.11.32.25.33.44.02.3.08.65-.34.76Z"/>
    <path class="cls-4" d="m950.08,351.99c.51.31.43.82.47,1.3-.48-.32-.43-.82-.47-1.3Z"/>
    <path class="cls-3" d="m182.51,238.92c-.22-1.1-1.36-1.67-1.57-2.76,1.64-.43,3.07.42,4.56.79,5.7,1.41,11.42,2.7,17.23,3.52,1.32.19,2.57.49,3.73,1.12,1.87,2.72,3.58,5.54,5.14,8.46.11.22.23.43.35.65,0,.69.21,1.28.8,1.69.26,2.36,1.35,4.49,1.82,6.79-.03.57-.17,1.16-.06,1.71.75,3.89,1.01,7.82.9,11.78-.02.73.2,1.46.31,2.19v-.03c-.43,1.45-.58,2.93-.65,4.43-.11,2.33-.45,4.64-.97,6.91-.49,2.13-1.5,4.08-3.71,4.62-2.44.6-4.31-.82-5.81-2.65-.69-.85-1.16-1.84-1.38-2.91-.27-1.3-.49-2.62-.63-3.94-.51-4.97-1.13-9.93-2.6-14.71-1.14-3.72-2.01-7.57-4.44-10.77-1.11-2.87-2.99-5.28-4.8-7.72-.14-.67-.42-1.27-.97-1.7-1.71-1.36-2.94-3.17-4.38-4.78-.88-.98-1.57-2.18-2.9-2.69Z"/>
    <path class="cls-3" d="m234.71,243.19c.86,2.31,1.73,4.61,2.59,6.92.06.19.11.37.17.56.16,1.8.57,3.56,1.02,5.3-2.74.03-5.41-.61-8.09-1.02-3.26-.5-6.58-.63-9.75-1.63.13-1.33-1.08-2.07-1.4-3.2-.15.08-.27.04-.37-.1-.24-.9-.8-1.64-1.24-2.43-1.1-1.98-2.73-3.56-3.94-5.45,6.28.19,12.57.39,18.85.58.76.02,1.47.19,2.17.47Z"/>
    <path class="cls-2" d="m356.57,326.9c5.89-.26,11.64.65,17.21,2.43,10.92,3.48,19.96,9.66,26.94,18.87,6.45,8.49,11.14,17.74,13.01,28.28,1.24,6.99.59,13.93-1.33,20.73-1.24,4.41-2.71,8.74-5.26,12.62-2.99,4.54-6.39,8.7-10.72,12.05-5.21,4.04-11.2,5.67-17.66,6.02-5.87.32-11.7-.2-17.35-1.56-5.31-1.28-10.53-3.03-15.52-5.38-6.29-2.96-12.15-6.49-17.37-11.13-6.64-5.9-11.85-12.74-15.05-21.11-4.26-11.15-4.05-22.11.92-32.97,4.16-9.09,10.3-16.47,18.84-21.75,3.68-2.27,7.48-4.21,11.79-5.21,1.66-.38,3.37-.77,5.02-1.28.38.56.56,1.18.68,1.85,1.88,10.79,3.76,21.58,5.67,32.37.13.76.29,1.47-.18,2.15-1.12.6-1.58,1.85-2.55,2.6-1.11.85-1.56,2.06-1.75,3.43-.27,1.89-.52,3.8-1.02,5.63-.58,2.11-.01,4,.99,5.71.78,1.34,1.79,2.58,2.91,3.71,5.2,5.21,12.54,3.22,15.94-1.77,3.35-4.92,3.27-11.56-.34-16.35-1.72-2.28-3.9-4.36-7.28-3.75-1.2-3.48-1.35-7.16-2.04-10.74-1.49-7.75-2.89-15.53-4.34-23.29-.14-.74-.35-1.46-.16-2.21Z"/>
    <path class="cls-2" d="m144.95,286.3c9.45,6.92,15.64,16.22,19.63,27.08,3.13,8.52,4.58,17.36,4.43,26.43-.08,4.84-.83,9.62-2.27,14.23-2.02,6.48-6.46,11.15-11.8,15.08-6.89,5.08-14.73,7.46-23.17,8.4-14.48,1.61-26.82-3.24-37.96-12.02-3.6-2.84-6.9-6.04-9.83-9.55-5.27-6.34-8.34-13.76-9.96-21.79-1.34-6.67-1.71-13.39,0-20.05,3.64-14.09,11.96-24.47,24.95-31.11,5.93-3.03,12.28-4.57,18.85-5.22,6.02-.59,11.73.93,17.31,2.99,1.33.49,2.59,1.15,4,1.4.06.98-.45,1.74-.92,2.53-3.97,6.54-7.56,13.29-11.59,19.79-1.83,2.95-3.28,6.15-5.02,9.17-.58,1.02-1.19,2-2.01,2.84-2.86-.56-5.35.61-7.77,1.82-3.44,1.73-5.45,8.27-4.37,11.08,1.41,3.64,3.82,6.21,7.56,7.33,2.14.64,4.39.9,6.66.73,5.55-.43,9.33-4.11,9.85-9.37.13-1.32.26-2.64.15-3.97.37-.07.82,0,.96-.51-.32-.05-.64-.1-.96-.13-.08,0-.16.03-.24.04-1.32-2.14-2.88-4.08-4.73-5.79.37-.82.67-1.68,1.11-2.46,5.08-8.93,10.16-17.85,15.28-26.76.48-.83.79-1.86,1.87-2.21Zm6.65,54.18c-.13-.06-.25-.12-.38-.17-.03-.01-.09.03-.13.04.18.03.36.07.54.1,1.41,2.25,3.89,2.73,6.12,3.72-.08-.43-.37-.59-.67-.75-1.83-.98-3.66-1.96-5.48-2.93Zm-11.72-18.22c-2.72-.23-4.45.15-5.96,1.34,2.09-.26,3.87-.77,5.96-1.34Z"/>
    <path class="cls-2" d="m195.55,255.81c2.43,3.2,3.3,7.05,4.44,10.77,1.47,4.79,2.09,9.74,2.6,14.71.14,1.32.35,2.64.63,3.94.22,1.06.69,2.06,1.38,2.91,1.5,1.83,3.37,3.25,5.81,2.65,2.2-.55,3.22-2.49,3.71-4.62.52-2.27.86-4.58.97-6.91.07-1.5.22-2.99.65-4.43.13.42.32.79.82.8,1.58.02,3.17.03,4.75.03.54,0,1-.12.99-.8,0-.64-.4-.84-.97-.84-1.58.01-3.17.01-4.75.03-.5,0-.67.42-.84.8-.11-.73-.32-1.46-.31-2.19.1-3.96-.16-7.88-.9-11.78-.1-.55.04-1.14.06-1.71,2.38.33,4.77.61,7.14,1,.88.14,1.83.2,2.58.81.29,1.29.57,2.58.88,3.86.91,3.71,1.34,7.5,1.97,11.26.46,2.74,1.31,5.32,3.59,7.19,2.86,2.35,6.36,1.42,7.57-2.09.4-1.16.51-2.43.7-3.66.74-4.79.49-9.61.42-14.42,1.94-.49,3.81.16,5.69.41,11.97,1.56,23.92,3.25,35.89,4.74,5.86.73,11.77,1.15,17.65,1.71,6.13.58,12.25,1.33,18.39,1.76,3.4.24,6.83,0,10.2.69.4.08.79.17,1.14.24.12.34.11.71-.1.75-2,.37-3.19,2.03-4.8,3.01-1.64.99-3.31,1.93-4.94,2.93-11.29,6.92-22.5,13.96-33.51,21.32-15.65,10.45-31.21,21.04-46.29,32.31-.2.15-.41.29-.61.43-1.8,1.24-1.81,1.25-3.17-.44-1.15-1.43-2.34-2.83-3.88-3.86-.37-.25-.55-.61-.66-1.02,2.23-3.1,4.48-6.19,6.67-9.31,1.29-1.84,1.26-1.88,3.32-1.02.55.23.96.15,1.33-.27.39-.45.34-.93-.04-1.34-.95-1.04-1.89-2.1-2.92-3.07-.66-.62-1.43-1.14-2.19-1.64-.53-.35-1.16-.88-1.77-.2-.51.58.06,1.06.35,1.53.04.07.1.13.15.2q1.62,2.33.03,4.66c-.8,1.16-1.64,2.3-2.41,3.48-1.3,2.02-2.96,3.8-3.91,6.05-.81.13-1.42-.37-2.11-.64-3.06-1.22-6.2-2.04-9.49-1.04-1.3.39-1.8-.3-2.32-1.24-2.86-5.17-5.79-10.3-8.61-15.49-3.42-6.29-7.06-12.45-10.77-18.58-4.3-7.12-8.65-14.22-13.05-21.28-3.12-5.02-6.37-9.96-9.56-14.93-.44-.68-1.05-1.29-1.11-2.53,7.95,1.44,15.84,2.4,23.55,4.37Zm119.39,19.83h0c.83.01,1.65.01,2.48.01.49,0,.77-.22.78-.73,0-.43-.04-.88-.59-.89-1.74-.02-3.47-.01-5.21,0-.5,0-.69.34-.69.81,0,.51.29.76.75.77.83.03,1.65,0,2.48,0Zm-27.38,0c.82,0,1.65,0,2.47,0,.48,0,.77-.23.8-.72.03-.45-.11-.86-.62-.87-1.73-.03-3.46-.03-5.19-.02-.53,0-.66.39-.67.83,0,.49.25.77.74.77.82.01,1.65,0,2.47,0Zm-41.21-.01v.02c.82,0,1.65,0,2.47,0,.63,0,.89-.3.84-.91-.03-.48-.26-.74-.76-.74-1.65.01-3.29,0-4.94.03-.47,0-.75.24-.76.75,0,.48.19.82.68.84.82.03,1.65,0,2.47,0Zm-54.59.02s0-.01,0-.02c.82,0,1.65.02,2.47,0,.48-.02.7-.33.7-.82,0-.5-.26-.76-.74-.77-1.65-.02-3.29-.01-4.94-.03-.68,0-.8.42-.78.97.02.54.36.68.82.68.82,0,1.65,0,2.47,0Zm109.44,0c.82,0,1.64.01,2.46,0,.55-.01.94-.22.87-.89-.05-.5-.35-.72-.8-.72-1.64-.01-3.28,0-4.93,0-.48,0-.72.29-.75.77-.05.69.39.82.93.84.74.01,1.48,0,2.22,0Zm-27.24-.04s0,.01,0,.02c.82,0,1.64.01,2.46,0,.5-.01.7-.32.68-.81-.02-.36-.16-.73-.5-.73-1.8-.04-3.61-.04-5.42,0-.49.01-.58.47-.56.91.02.4.28.59.62.6.9.03,1.81,0,2.71,0Zm-13.77-1.54s0-.03,0-.04c-.82,0-1.65,0-2.47,0-.5,0-.72.3-.74.77-.02.47.14.82.66.83,1.73,0,3.45,0,5.18-.03.34,0,.62-.18.64-.59.03-.45-.07-.89-.56-.92-.9-.06-1.81-.02-2.71-.02Z"/>
    <path class="cls-2" d="m238.48,255.97c-.44-1.75-.85-3.5-1.01-5.3.83.03,1.66.07,2.5.07,30.63,0,61.26,0,91.9,0,.91,0,1.83-.06,2.74-.09,1.46,4.86,2.26,9.87,3.38,14.8.2.88-.28,1.24-1.08,1.24-.91,0-1.84.04-2.74-.07-10.98-1.35-22.06-1.59-33.05-2.93-7.59-.92-15.26-1.27-22.85-2.2-11.89-1.46-23.74-3.19-35.61-4.81-1.4-.19-2.83-.17-4.17-.72Z"/>
    <path class="cls-4" d="m363.11,363.13c3.38-.61,5.56,1.46,7.28,3.75,3.61,4.79,3.69,11.43.34,16.35-3.4,4.99-10.74,6.98-15.94,1.77-1.12-1.13-2.13-2.37-2.91-3.71-1-1.71-1.56-3.6-.99-5.71.5-1.83.75-3.74,1.02-5.63.2-1.37.64-2.57,1.75-3.43.98-.75,1.44-1.99,2.55-2.6,1.03,1.61.89,3.52,1.28,5.29.41,1.87.63,3.77,1.07,5.63.45,1.91,1.95,2.94,3.62,2.65,1.5-.26,2.6-1.65,2.42-3.53-.27-2.72-.68-5.44-1.19-8.13-.17-.9-.09-1.81-.32-2.69Z"/>
    <path class="cls-4" d="m126.69,317.73c1.85,1.71,3.41,3.65,4.73,5.79.08.2.16.4.24.6.1,1.33-.02,2.65-.15,3.97-.52,5.26-4.3,8.95-9.85,9.37-2.26.17-4.51-.09-6.66-.73-3.74-1.11-6.15-3.69-7.56-7.33-1.09-2.81.92-9.35,4.37-11.08,2.43-1.22,4.91-2.38,7.77-1.82-1.14,2.58-2.65,4.96-4.17,7.33-.7,1.09-1.13,2.21-1.01,3.51.14,1.48,1,2.61,2.25,2.99,1.32.4,2.28-.23,3.07-1.14,1.48-1.71,2.36-3.8,3.47-5.74,1.11-1.94,2.08-3.97,3.48-5.74Z"/>
    <path class="cls-3" d="m239.42,263.12c.07,4.81.32,9.63-.42,14.42-.19,1.23-.3,2.49-.7,3.66-1.21,3.52-4.71,4.44-7.57,2.09-2.27-1.86-3.13-4.44-3.59-7.19-.63-3.76-1.06-7.55-1.97-11.26-.31-1.28-.59-2.57-.88-3.86,4.28.21,8.46,1.18,12.69,1.77.81.11,1.62.24,2.44.37Z"/>
    <path class="cls-2" d="m213.13,341.67c.11-2.3,1.49-4.69,3.78-6.55,1.2-.98,2.69-1.26,4.24-1.08,4.14.49,8.39,4.17,9.47,8.21.15.56.29,1.1.19,1.71-.77,4.55-5.17,8.23-9.53,7.94-4.38-.3-8.21-4.76-8.16-10.23Z"/>
    <path class="cls-5" d="m229.01,327.17c.95-2.24,2.61-4.03,3.91-6.05.77-1.18,1.61-2.32,2.41-3.48q1.6-2.32-.03-4.66c-.05-.07-.1-.13-.15-.2-.29-.48-.86-.96-.35-1.53.6-.68,1.24-.15,1.77.2.76.5,1.53,1.02,2.19,1.64,1.02.97,1.96,2.03,2.92,3.07.38.41.43.9.04,1.34-.37.42-.78.49-1.33.27-2.06-.86-2.02-.82-3.32,1.02-2.19,3.12-4.44,6.21-6.67,9.31-.6-.11-1.04-.46-1.4-.93Z"/>
    <path class="cls-4" d="m334.6,250.65c-.91.03-1.83.09-2.74.09-30.63,0-61.26,0-91.9,0-.83,0-1.66-.05-2.5-.07-.06-.19-.11-.37-.17-.56.74-.06,1.49-.16,2.23-.16,31.15,0,62.3,0,93.46,0,.42,0,.83.04,1.25.06.12.22.25.43.37.65Z"/>
    <path class="cls-2" d="m219.24,250.12c.32,1.13,1.53,1.87,1.4,3.2-2.63-.31-5.26-.62-7.89-.93-.6-.41-.81-1-.8-1.69,1.78.01,3.55.04,5.33.04.71,0,1.48.15,1.96-.61Z"/>
    <path class="cls-4" d="m205.92,63.27c3.59-.09,6.59-.82,9.8-.53-.49,1.84-1.64,3.19-2.47,4.68-.79,1.42-.67,5.13.27,6.39.55.74.92.77,2.7.17-.44,1.29-1.37,1.71-2.29,1.06-.94-.67-1.68-.63-2.7-.38-1.07.27-1.88-.35-2.27-1.44.68-.23.9.41,1.37.53.94.23,1.56-.14,1.6-1.02.11-2.08.13-4.1-1.88-5.58-1.36-1-2.71-2.11-4.13-3.88Z"/>
    <path class="cls-4" d="m164.57,63.86c-.71-1.76-.36-3.55.07-5.31.28-1.16,1.24-1.75,2.38-1.92,1.29-.19,2.47.14,3.51.94,2.72,2.08,2.67,2.84-.37,4.21-1.66.75-3.36,1.44-5.04,2.14-.12.05-.3-.03-.55-.07Z"/>
    <path class="cls-4" d="m244.3,53.08c-2.51.08-4.84-.45-7.19-.68-.41-.04-.79-.22-.94-.67-.27-.83.63-3.5,1.39-4.09.92-.71,2.12-.68,3.44.24,1.75,1.23,2.8,2.94,3.31,5.21Z"/>
    <path class="cls-4" d="m228.91,62.28c-.72-.16-.72-.81-.94-1.31-.33-.76-.69-1.51-1.28-2.13-.67-.7-1.48-1.15-2.45-.91-1,.25-1.4,1.09-1.61,2.03-.19.86.01,1.79-.48,2.72-.77-1.89-.55-3.94.49-5.1.78-.87,1.73-1.28,2.91-.93,2.08.61,3.61,3.18,3.35,5.62Z"/>
    <path class="cls-4" d="m163.96,74.77c-.27-.3-.44-.63-.37-1.04,2.88-.72,5.76-.3,8.64.07.33.04.65.14.96.26.4.15.77.42.66.9-.12.51-.56.54-.99.43-2.93-.73-5.92-.52-8.89-.61Z"/>
    <path class="cls-4" d="m199.46,63.71c-.99-.16-1.26-1.03-1.8-1.64-.8-.9-1.77-1.25-2.9-.97-1.2.3-1.75,1.21-1.86,2.38-.08.86-.1,1.73-.17,3.15-1.3-2.14-1.04-3.71-.08-5.24.72-1.14,1.8-1.81,3.15-1.6,2.17.34,3,2.06,3.67,3.91Z"/>
    <path class="cls-4" d="m251.95,78.37c.14.41.25.83.1,1.26-2.06-.4-3.86-1.49-5.83-2.11-.53-.17-.9-.58-.66-1.13.2-.46.72-.32,1.1-.16,1.75.75,3.63,1.18,5.3,2.14Z"/>
    <path class="cls-4" d="m166.03,81.78c0-.33,0-.65-.01-.98,1.66-.7,3.32-1.41,4.99-2.08.42-.17,1.02-.38,1.25.26.18.51-.31.69-.69.84-1.83.71-3.56,1.7-5.54,1.96Z"/>
    <path class="cls-4" d="m251.01,70.99c.03.36.07.72.1,1.08-1.94.17-3.89.37-5.83.01.02-.28.03-.57.04-.85,1.89-.3,3.78-.41,5.69-.23Z"/>
    <path class="cls-5" d="m245.33,71.22c-.01.29-.03.57-.04.85-.31-.3-.34-.59.04-.85Z"/>
    <path class="cls-2" d="m212.72,412.84c.6.14,1.32,1.24,1.07,1.68-.06.11-.26.21-.39.21-.63-.02-1.38-.95-1.23-1.53.07-.25.29-.36.55-.36Z"/>
    <path class="cls-5" d="m229.84,417.95c-.35-.06-.6-.27-.58-.62.02-.33.26-.64.6-.63.33,0,.58.3.59.64,0,.35-.26.55-.61.61Z"/>
    <path class="cls-2" d="m199.78,418.52c-.37-.12-.65-.27-.62-.66.03-.41.32-.49.67-.41.37.09.52.41.47.72-.02.15-.35.25-.52.36Z"/>
    <path class="cls-4" d="m215.72,274.84c.17-.38.34-.79.84-.8,1.58-.02,3.17-.02,4.75-.03.57,0,.97.2.97.84,0,.68-.46.8-.99.8-1.58,0-3.17,0-4.75-.03-.5,0-.69-.39-.82-.8,0,0,0,.03,0,.03Z"/>
    <path class="cls-4" d="m219.24,250.12c-.48.76-1.26.61-1.96.61-1.78,0-3.55-.02-5.33-.04-.12-.22-.23-.43-.35-.65,2.42-.17,4.84-.15,7.27-.03.09.14.22.17.37.1Z"/>
    <path class="cls-6" d="m151.6,340.48c1.83.98,3.66,1.96,5.48,2.94.3.16.59.33.67.75-2.23-.99-4.71-1.47-6.12-3.72l-.03.03Z"/>
    <path class="cls-6" d="m139.88,322.26c-2.09.57-3.87,1.08-5.96,1.34,1.51-1.19,3.25-1.58,5.96-1.34Z"/>
    <path class="cls-6" d="m131.67,324.13c-.08-.2-.16-.4-.24-.6.08-.02.16-.05.24-.04.32.04.64.09.96.13-.14.51-.59.44-.96.51Z"/>
    <path class="cls-6" d="m151.63,340.45c-.18-.03-.36-.07-.54-.1.04-.01.1-.05.13-.04.13.05.26.11.38.17,0,0,.03-.03.03-.03Z"/>
    <path class="cls-4" d="m314.94,275.64c-.83,0-1.65.02-2.48,0-.47-.01-.75-.26-.75-.77,0-.48.19-.81.69-.81,1.74-.02,3.47-.03,5.21,0,.56,0,.6.46.59.89,0,.51-.29.73-.78.73h-2.48Z"/>
    <path class="cls-4" d="m287.56,275.65c-.82,0-1.65,0-2.47,0-.49,0-.74-.28-.74-.77,0-.45.14-.83.67-.83,1.73,0,3.46-.02,5.19.02.51,0,.65.42.62.87-.03.49-.32.72-.8.72-.82,0-1.65,0-2.47,0Z"/>
    <path class="cls-4" d="m246.36,275.63c-.82,0-1.65.02-2.47,0-.49-.02-.69-.36-.68-.84,0-.51.29-.75.76-.75,1.65-.02,3.29-.02,4.94-.03.5,0,.73.26.76.74.04.61-.21.92-.84.91-.82-.01-1.65,0-2.47,0v-.02Z"/>
    <path class="cls-4" d="m191.76,275.65c-.82,0-1.65,0-2.47,0-.46,0-.8-.14-.82-.68-.02-.55.1-.97.78-.97,1.65.01,3.29.01,4.94.03.48,0,.73.27.74.77,0,.49-.21.8-.7.82-.82.03-1.65,0-2.47,0,0,0,0,.01,0,.02Z"/>
    <path class="cls-4" d="m301.2,275.65c-.74,0-1.48.01-2.22,0-.54-.01-.98-.15-.93-.84.03-.48.27-.77.75-.77,1.64-.01,3.28-.02,4.93,0,.45,0,.75.22.8.72.07.66-.32.87-.87.89-.82.02-1.64,0-2.46,0Z"/>
    <path class="cls-4" d="m273.96,275.61c-.9,0-1.81.02-2.71,0-.35-.01-.6-.2-.62-.6-.02-.44.07-.9.56-.91,1.8-.05,3.61-.04,5.42,0,.34,0,.48.38.5.73.02.49-.18.79-.68.81-.82.02-1.64,0-2.46,0,0,0,0-.01,0-.02Z"/>
    <path class="cls-4" d="m260.19,274.07c.9,0,1.81-.05,2.71.02.49.03.58.48.56.92-.02.41-.3.58-.64.59-1.73.03-3.45.03-5.18.03-.52,0-.68-.36-.66-.83.02-.47.25-.77.74-.77.82,0,1.65,0,2.47,0,0,.01,0,.03,0,.04Z"/>
    <g>
      <path class="cls-4" d="m658.3,275.9c-2.56-.4-4.55-.18-6.52-.25-.47-.02-.8-.16-.81-.7-.02-.57.15-.97.82-.95.5.02,1,0,1.5,0,1.54,0,3.09,0,5.27,0-1.4-1.41-2.37-2.37-3.33-3.36-.4-.42-.89-.9-.23-1.46.47-.4.93-.15,1.31.23,1.53,1.53,3.06,3.06,4.6,4.58.58.58.6,1.14.02,1.72-1.53,1.53-3.05,3.06-4.59,4.59-.47.47-1.05.64-1.51.06-.4-.5.02-.92.37-1.28.9-.94,1.81-1.86,3.1-3.18Z"/>
      <path class="cls-4" d="m627.17,274.05c.9,0,1.81-.02,2.71,0,.37.01.56.28.58.65.02.45-.1.88-.6.9-1.73.04-3.46.03-5.18.02-.51,0-.7-.33-.69-.81.01-.47.2-.79.7-.8.82-.01,1.65,0,2.47,0,0,0,0,.02,0,.03Z"/>
      <path class="cls-4" d="m640.84,275.63c-.82,0-1.65.02-2.47,0-.46-.01-.75-.24-.75-.76,0-.48.22-.81.71-.81,1.65-.03,3.3-.03,4.94-.03.61,0,.88.32.85.92-.02.53-.36.68-.81.69-.82.01-1.65,0-2.47,0h0Z"/>
      <path class="cls-4" d="m658.3,275.9c-2.56-.4-4.55-.18-6.52-.25-.47-.02-.8-.16-.81-.7-.02-.57.15-.97.82-.95.5.02,1,0,1.5,0,1.54,0,3.09,0,5.27,0-1.4-1.41-2.37-2.37-3.33-3.36-.4-.42-.89-.9-.23-1.46.47-.4.93-.15,1.31.23,1.53,1.53,3.06,3.06,4.6,4.58.58.58.6,1.14.02,1.72-1.53,1.53-3.05,3.06-4.59,4.59-.47.47-1.05.64-1.51.06-.4-.5.02-.92.37-1.28.9-.94,1.81-1.86,3.1-3.18Z"/>
      <path class="cls-4" d="m627.17,274.05c.9,0,1.81-.02,2.71,0,.37.01.56.28.58.65.02.45-.1.88-.6.9-1.73.04-3.46.03-5.18.02-.51,0-.7-.33-.69-.81.01-.47.2-.79.7-.8.82-.01,1.65,0,2.47,0,0,0,0,.02,0,.03Z"/>
      <path class="cls-4" d="m640.84,275.63c-.82,0-1.65.02-2.47,0-.46-.01-.75-.24-.75-.76,0-.48.22-.81.71-.81,1.65-.03,3.3-.03,4.94-.03.61,0,.88.32.85.92-.02.53-.36.68-.81.69-.82.01-1.65,0-2.47,0h0Z"/>
      <g>
        <path class="cls-4" d="m598.75,274.05c.9,0,1.81-.02,2.71,0,.37.01.56.28.58.65.02.45-.1.88-.6.9-1.73.04-3.46.03-5.18.02-.51,0-.7-.33-.69-.81.01-.47.2-.79.7-.8.82-.01,1.65,0,2.47,0,0,0,0,.02,0,.03Z"/>
        <path class="cls-4" d="m612.42,275.63c-.82,0-1.65.02-2.47,0-.46-.01-.75-.24-.75-.76,0-.48.22-.81.71-.81,1.65-.03,3.3-.03,4.94-.03.61,0,.88.32.85.92-.02.53-.36.68-.81.69-.82.01-1.65,0-2.47,0h0Z"/>
      </g>
      <g>
        <path class="cls-4" d="m572,274.05c.9,0,1.81-.02,2.71,0,.37.01.56.28.58.65.02.45-.1.88-.6.9-1.73.04-3.46.03-5.18.02-.51,0-.7-.33-.69-.81.01-.47.2-.79.7-.8.82-.01,1.65,0,2.47,0,0,0,0,.02,0,.03Z"/>
        <path class="cls-4" d="m585.66,275.63c-.82,0-1.65.02-2.47,0-.46-.01-.75-.24-.75-.76,0-.48.22-.81.71-.81,1.65-.03,3.3-.03,4.94-.03.61,0,.88.32.85.92-.02.53-.36.68-.81.69-.82.01-1.65,0-2.47,0h0Z"/>
      </g>
      <g>
        <path class="cls-4" d="m545.24,274.05c.9,0,1.81-.02,2.71,0,.37.01.56.28.58.65.02.45-.1.88-.6.9-1.73.04-3.46.03-5.18.02-.51,0-.7-.33-.69-.81.01-.47.2-.79.7-.8.82-.01,1.65,0,2.47,0,0,0,0,.02,0,.03Z"/>
        <path class="cls-4" d="m558.9,275.63c-.82,0-1.65.02-2.47,0-.46-.01-.75-.24-.75-.76,0-.48.22-.81.71-.81,1.65-.03,3.3-.03,4.94-.03.61,0,.88.32.85.92-.02.53-.36.68-.81.69-.82.01-1.65,0-2.47,0h0Z"/>
      </g>
      <g>
        <path class="cls-4" d="m518.48,274.05c.9,0,1.81-.02,2.71,0,.37.01.56.28.58.65.02.45-.1.88-.6.9-1.73.04-3.46.03-5.18.02-.51,0-.7-.33-.69-.81.01-.47.2-.79.7-.8.82-.01,1.65,0,2.47,0,0,0,0,.02,0,.03Z"/>
        <path class="cls-4" d="m532.15,275.63c-.82,0-1.65.02-2.47,0-.46-.01-.75-.24-.75-.76,0-.48.22-.81.71-.81,1.65-.03,3.3-.03,4.94-.03.61,0,.88.32.85.92-.02.53-.36.68-.81.69-.82.01-1.65,0-2.47,0h0Z"/>
      </g>
      <g>
        <path class="cls-4" d="m491.73,274.05c.9,0,1.81-.02,2.71,0,.37.01.56.28.58.65.02.45-.1.88-.6.9-1.73.04-3.46.03-5.18.02-.51,0-.7-.33-.69-.81.01-.47.2-.79.7-.8.82-.01,1.65,0,2.47,0,0,0,0,.02,0,.03Z"/>
        <path class="cls-4" d="m505.39,275.63c-.82,0-1.65.02-2.47,0-.46-.01-.75-.24-.75-.76,0-.48.22-.81.71-.81,1.65-.03,3.3-.03,4.94-.03.61,0,.88.32.85.92-.02.53-.36.68-.81.69-.82.01-1.65,0-2.47,0h0Z"/>
      </g>
      <g>
        <path class="cls-4" d="m464.97,274.05c.9,0,1.81-.02,2.71,0,.37.01.56.28.58.65.02.45-.1.88-.6.9-1.73.04-3.46.03-5.18.02-.51,0-.7-.33-.69-.81.01-.47.2-.79.7-.8.82-.01,1.65,0,2.47,0,0,0,0,.02,0,.03Z"/>
        <path class="cls-4" d="m478.63,275.63c-.82,0-1.65.02-2.47,0-.46-.01-.75-.24-.75-.76,0-.48.22-.81.71-.81,1.65-.03,3.3-.03,4.94-.03.61,0,.88.32.85.92-.02.53-.36.68-.81.69-.82.01-1.65,0-2.47,0h0Z"/>
      </g>
      <g>
        <path class="cls-4" d="m438.21,274.05c.9,0,1.81-.02,2.71,0,.37.01.56.28.58.65.02.45-.1.88-.6.9-1.73.04-3.46.03-5.18.02-.51,0-.7-.33-.69-.81.01-.47.2-.79.7-.8.82-.01,1.65,0,2.47,0,0,0,0,.02,0,.03Z"/>
        <path class="cls-4" d="m451.88,275.63c-.82,0-1.65.02-2.47,0-.46-.01-.75-.24-.75-.76,0-.48.22-.81.71-.81,1.65-.03,3.3-.03,4.94-.03.61,0,.88.32.85.92-.02.53-.36.68-.81.69-.82.01-1.65,0-2.47,0h0Z"/>
      </g>
      <g>
        <path class="cls-4" d="m411.46,274.05c.9,0,1.81-.02,2.71,0,.37.01.56.28.58.65.02.45-.1.88-.6.9-1.73.04-3.46.03-5.18.02-.51,0-.7-.33-.69-.81.01-.47.2-.79.7-.8.82-.01,1.65,0,2.47,0,0,0,0,.02,0,.03Z"/>
        <path class="cls-4" d="m425.12,275.63c-.82,0-1.65.02-2.47,0-.46-.01-.75-.24-.75-.76,0-.48.22-.81.71-.81,1.65-.03,3.3-.03,4.94-.03.61,0,.88.32.85.92-.02.53-.36.68-.81.69-.82.01-1.65,0-2.47,0h0Z"/>
      </g>
      <path class="cls-4" d="m398.36,275.63c-.82,0-1.65.02-2.47,0-.46-.01-.75-.24-.75-.76,0-.48.22-.81.71-.81,1.65-.03,3.3-.03,4.94-.03.61,0,.88.32.85.92-.02.53-.36.68-.81.69-.82.01-1.65,0-2.47,0h0Z"/>
    </g>
    <g>
      <path class="cls-4" d="m838.22,275.9c-2.56-.4-4.55-.18-6.52-.25-.47-.02-.8-.16-.81-.7-.02-.57.15-.97.82-.95.5.02,1,0,1.5,0,1.54,0,3.09,0,5.27,0-1.4-1.41-2.37-2.37-3.33-3.36-.4-.42-.89-.9-.23-1.46.47-.4.93-.15,1.31.23,1.53,1.53,3.06,3.06,4.6,4.58.58.58.6,1.14.02,1.72-1.53,1.53-3.05,3.06-4.59,4.59-.47.47-1.05.64-1.51.06-.4-.5.02-.92.37-1.28.9-.94,1.81-1.86,3.1-3.18Z"/>
      <path class="cls-4" d="m807.09,274.05c.9,0,1.81-.02,2.71,0,.37.01.56.28.58.65.02.45-.1.88-.6.9-1.73.04-3.46.03-5.18.02-.51,0-.7-.33-.69-.81.01-.47.2-.79.7-.8.82-.01,1.65,0,2.47,0,0,0,0,.02,0,.03Z"/>
      <path class="cls-4" d="m820.75,275.63c-.82,0-1.65.02-2.47,0-.46-.01-.75-.24-.75-.76,0-.48.22-.81.71-.81,1.65-.03,3.3-.03,4.94-.03.61,0,.88.32.85.92-.02.53-.36.68-.81.69-.82.01-1.65,0-2.47,0h0Z"/>
      <path class="cls-4" d="m838.22,275.9c-2.56-.4-4.55-.18-6.52-.25-.47-.02-.8-.16-.81-.7-.02-.57.15-.97.82-.95.5.02,1,0,1.5,0,1.54,0,3.09,0,5.27,0-1.4-1.41-2.37-2.37-3.33-3.36-.4-.42-.89-.9-.23-1.46.47-.4.93-.15,1.31.23,1.53,1.53,3.06,3.06,4.6,4.58.58.58.6,1.14.02,1.72-1.53,1.53-3.05,3.06-4.59,4.59-.47.47-1.05.64-1.51.06-.4-.5.02-.92.37-1.28.9-.94,1.81-1.86,3.1-3.18Z"/>
      <path class="cls-4" d="m807.09,274.05c.9,0,1.81-.02,2.71,0,.37.01.56.28.58.65.02.45-.1.88-.6.9-1.73.04-3.46.03-5.18.02-.51,0-.7-.33-.69-.81.01-.47.2-.79.7-.8.82-.01,1.65,0,2.47,0,0,0,0,.02,0,.03Z"/>
      <path class="cls-4" d="m820.75,275.63c-.82,0-1.65.02-2.47,0-.46-.01-.75-.24-.75-.76,0-.48.22-.81.71-.81,1.65-.03,3.3-.03,4.94-.03.61,0,.88.32.85.92-.02.53-.36.68-.81.69-.82.01-1.65,0-2.47,0h0Z"/>
      <g>
        <path class="cls-4" d="m778.67,274.05c.9,0,1.81-.02,2.71,0,.37.01.56.28.58.65.02.45-.1.88-.6.9-1.73.04-3.46.03-5.18.02-.51,0-.7-.33-.69-.81.01-.47.2-.79.7-.8.82-.01,1.65,0,2.47,0,0,0,0,.02,0,.03Z"/>
        <path class="cls-4" d="m792.33,275.63c-.82,0-1.65.02-2.47,0-.46-.01-.75-.24-.75-.76,0-.48.22-.81.71-.81,1.65-.03,3.3-.03,4.94-.03.61,0,.88.32.85.92-.02.53-.36.68-.81.69-.82.01-1.65,0-2.47,0h0Z"/>
      </g>
      <g>
        <path class="cls-4" d="m751.91,274.05c.9,0,1.81-.02,2.71,0,.37.01.56.28.58.65.02.45-.1.88-.6.9-1.73.04-3.46.03-5.18.02-.51,0-.7-.33-.69-.81.01-.47.2-.79.7-.8.82-.01,1.65,0,2.47,0,0,0,0,.02,0,.03Z"/>
        <path class="cls-4" d="m765.58,275.63c-.82,0-1.65.02-2.47,0-.46-.01-.75-.24-.75-.76,0-.48.22-.81.71-.81,1.65-.03,3.3-.03,4.94-.03.61,0,.88.32.85.92-.02.53-.36.68-.81.69-.82.01-1.65,0-2.47,0h0Z"/>
      </g>
      <g>
        <path class="cls-4" d="m725.15,274.05c.9,0,1.81-.02,2.71,0,.37.01.56.28.58.65.02.45-.1.88-.6.9-1.73.04-3.46.03-5.18.02-.51,0-.7-.33-.69-.81.01-.47.2-.79.7-.8.82-.01,1.65,0,2.47,0,0,0,0,.02,0,.03Z"/>
        <path class="cls-4" d="m738.82,275.63c-.82,0-1.65.02-2.47,0-.46-.01-.75-.24-.75-.76,0-.48.22-.81.71-.81,1.65-.03,3.3-.03,4.94-.03.61,0,.88.32.85.92-.02.53-.36.68-.81.69-.82.01-1.65,0-2.47,0h0Z"/>
      </g>
      <g>
        <path class="cls-4" d="m698.4,274.05c.9,0,1.81-.02,2.71,0,.37.01.56.28.58.65.02.45-.1.88-.6.9-1.73.04-3.46.03-5.18.02-.51,0-.7-.33-.69-.81.01-.47.2-.79.7-.8.82-.01,1.65,0,2.47,0,0,0,0,.02,0,.03Z"/>
        <path class="cls-4" d="m712.06,275.63c-.82,0-1.65.02-2.47,0-.46-.01-.75-.24-.75-.76,0-.48.22-.81.71-.81,1.65-.03,3.3-.03,4.94-.03.61,0,.88.32.85.92-.02.53-.36.68-.81.69-.82.01-1.65,0-2.47,0h0Z"/>
      </g>
      <g>
        <path class="cls-4" d="m671.64,274.05c.9,0,1.81-.02,2.71,0,.37.01.56.28.58.65.02.45-.1.88-.6.9-1.73.04-3.46.03-5.18.02-.51,0-.7-.33-.69-.81.01-.47.2-.79.7-.8.82-.01,1.65,0,2.47,0,0,0,0,.02,0,.03Z"/>
        <path class="cls-4" d="m685.31,275.63c-.82,0-1.65.02-2.47,0-.46-.01-.75-.24-.75-.76,0-.48.22-.81.71-.81,1.65-.03,3.3-.03,4.94-.03.61,0,.88.32.85.92-.02.53-.36.68-.81.69-.82.01-1.65,0-2.47,0h0Z"/>
      </g>
    </g>
    <g>
      <path class="cls-4" d="m570.11,482.49c2.56.4,4.55.18,6.52.25.47.02.8.16.81.7.02.57-.15.97-.82.95-.5-.02-1,0-1.5,0-1.54,0-3.09,0-5.27,0,1.4,1.41,2.37,2.37,3.33,3.36.4.42.89.9.23,1.46-.47.4-.93.15-1.31-.23-1.53-1.53-3.06-3.06-4.6-4.58-.58-.58-.6-1.14-.02-1.72,1.53-1.53,3.05-3.06,4.59-4.59.47-.47,1.05-.64,1.51-.06.4.5-.02.92-.37,1.28-.9.94-1.81,1.86-3.1,3.18Z"/>
      <path class="cls-4" d="m601.24,484.34c-.9,0-1.81.02-2.71,0-.37-.01-.56-.28-.58-.65-.02-.45.1-.88.6-.9,1.73-.04,3.46-.03,5.18-.02.51,0,.7.33.69.81-.01.47-.2.79-.7.8-.82.01-1.65,0-2.47,0,0,0,0-.02,0-.03Z"/>
      <path class="cls-4" d="m587.57,482.77c.82,0,1.65-.02,2.47,0,.46.01.75.24.75.76,0,.48-.22.81-.71.81-1.65.03-3.3.03-4.94.03-.61,0-.88-.32-.85-.92.02-.53.36-.68.81-.69.82-.01,1.65,0,2.47,0h0Z"/>
      <path class="cls-4" d="m570.11,482.49c2.56.4,4.55.18,6.52.25.47.02.8.16.81.7.02.57-.15.97-.82.95-.5-.02-1,0-1.5,0-1.54,0-3.09,0-5.27,0,1.4,1.41,2.37,2.37,3.33,3.36.4.42.89.9.23,1.46-.47.4-.93.15-1.31-.23-1.53-1.53-3.06-3.06-4.6-4.58-.58-.58-.6-1.14-.02-1.72,1.53-1.53,3.05-3.06,4.59-4.59.47-.47,1.05-.64,1.51-.06.4.5-.02.92-.37,1.28-.9.94-1.81,1.86-3.1,3.18Z"/>
      <path class="cls-4" d="m601.24,484.34c-.9,0-1.81.02-2.71,0-.37-.01-.56-.28-.58-.65-.02-.45.1-.88.6-.9,1.73-.04,3.46-.03,5.18-.02.51,0,.7.33.69.81-.01.47-.2.79-.7.8-.82.01-1.65,0-2.47,0,0,0,0-.02,0-.03Z"/>
      <path class="cls-4" d="m587.57,482.77c.82,0,1.65-.02,2.47,0,.46.01.75.24.75.76,0,.48-.22.81-.71.81-1.65.03-3.3.03-4.94.03-.61,0-.88-.32-.85-.92.02-.53.36-.68.81-.69.82-.01,1.65,0,2.47,0h0Z"/>
      <g>
        <path class="cls-4" d="m629.65,484.34c-.9,0-1.81.02-2.71,0-.37-.01-.56-.28-.58-.65-.02-.45.1-.88.6-.9,1.73-.04,3.46-.03,5.18-.02.51,0,.7.33.69.81-.01.47-.2.79-.7.8-.82.01-1.65,0-2.47,0,0,0,0-.02,0-.03Z"/>
        <path class="cls-4" d="m615.99,482.77c.82,0,1.65-.02,2.47,0,.46.01.75.24.75.76,0,.48-.22.81-.71.81-1.65.03-3.3.03-4.94.03-.61,0-.88-.32-.85-.92.02-.53.36-.68.81-.69.82-.01,1.65,0,2.47,0h0Z"/>
      </g>
      <g>
        <path class="cls-4" d="m656.41,484.34c-.9,0-1.81.02-2.71,0-.37-.01-.56-.28-.58-.65-.02-.45.1-.88.6-.9,1.73-.04,3.46-.03,5.18-.02.51,0,.7.33.69.81-.01.47-.2.79-.7.8-.82.01-1.65,0-2.47,0,0,0,0-.02,0-.03Z"/>
        <path class="cls-4" d="m642.75,482.77c.82,0,1.65-.02,2.47,0,.46.01.75.24.75.76,0,.48-.22.81-.71.81-1.65.03-3.3.03-4.94.03-.61,0-.88-.32-.85-.92.02-.53.36-.68.81-.69.82-.01,1.65,0,2.47,0h0Z"/>
      </g>
      <g>
        <path class="cls-4" d="m683.17,484.34c-.9,0-1.81.02-2.71,0-.37-.01-.56-.28-.58-.65-.02-.45.1-.88.6-.9,1.73-.04,3.46-.03,5.18-.02.51,0,.7.33.69.81-.01.47-.2.79-.7.8-.82.01-1.65,0-2.47,0,0,0,0-.02,0-.03Z"/>
        <path class="cls-4" d="m669.5,482.77c.82,0,1.65-.02,2.47,0,.46.01.75.24.75.76,0,.48-.22.81-.71.81-1.65.03-3.3.03-4.94.03-.61,0-.88-.32-.85-.92.02-.53.36-.68.81-.69.82-.01,1.65,0,2.47,0h0Z"/>
      </g>
      <g>
        <path class="cls-4" d="m709.93,484.34c-.9,0-1.81.02-2.71,0-.37-.01-.56-.28-.58-.65-.02-.45.1-.88.6-.9,1.73-.04,3.46-.03,5.18-.02.51,0,.7.33.69.81-.01.47-.2.79-.7.8-.82.01-1.65,0-2.47,0,0,0,0-.02,0-.03Z"/>
        <path class="cls-4" d="m696.26,482.77c.82,0,1.65-.02,2.47,0,.46.01.75.24.75.76,0,.48-.22.81-.71.81-1.65.03-3.3.03-4.94.03-.61,0-.88-.32-.85-.92.02-.53.36-.68.81-.69.82-.01,1.65,0,2.47,0h0Z"/>
      </g>
      <g>
        <path class="cls-4" d="m736.68,484.34c-.9,0-1.81.02-2.71,0-.37-.01-.56-.28-.58-.65-.02-.45.1-.88.6-.9,1.73-.04,3.46-.03,5.18-.02.51,0,.7.33.69.81-.01.47-.2.79-.7.8-.82.01-1.65,0-2.47,0,0,0,0-.02,0-.03Z"/>
        <path class="cls-4" d="m723.02,482.77c.82,0,1.65-.02,2.47,0,.46.01.75.24.75.76,0,.48-.22.81-.71.81-1.65.03-3.3.03-4.94.03-.61,0-.88-.32-.85-.92.02-.53.36-.68.81-.69.82-.01,1.65,0,2.47,0h0Z"/>
      </g>
      <g>
        <path class="cls-4" d="m763.44,484.34c-.9,0-1.81.02-2.71,0-.37-.01-.56-.28-.58-.65-.02-.45.1-.88.6-.9,1.73-.04,3.46-.03,5.18-.02.51,0,.7.33.69.81-.01.47-.2.79-.7.8-.82.01-1.65,0-2.47,0,0,0,0-.02,0-.03Z"/>
        <path class="cls-4" d="m749.77,482.77c.82,0,1.65-.02,2.47,0,.46.01.75.24.75.76,0,.48-.22.81-.71.81-1.65.03-3.3.03-4.94.03-.61,0-.88-.32-.85-.92.02-.53.36-.68.81-.69.82-.01,1.65,0,2.47,0h0Z"/>
      </g>
      <g>
        <path class="cls-4" d="m790.2,484.34c-.9,0-1.81.02-2.71,0-.37-.01-.56-.28-.58-.65-.02-.45.1-.88.6-.9,1.73-.04,3.46-.03,5.18-.02.51,0,.7.33.69.81-.01.47-.2.79-.7.8-.82.01-1.65,0-2.47,0,0,0,0-.02,0-.03Z"/>
        <path class="cls-4" d="m776.53,482.77c.82,0,1.65-.02,2.47,0,.46.01.75.24.75.76,0,.48-.22.81-.71.81-1.65.03-3.3.03-4.94.03-.61,0-.88-.32-.85-.92.02-.53.36-.68.81-.69.82-.01,1.65,0,2.47,0h0Z"/>
      </g>
      <g>
        <path class="cls-4" d="m816.95,484.34c-.9,0-1.81.02-2.71,0-.37-.01-.56-.28-.58-.65-.02-.45.1-.88.6-.9,1.73-.04,3.46-.03,5.18-.02.51,0,.7.33.69.81-.01.47-.2.79-.7.8-.82.01-1.65,0-2.47,0,0,0,0-.02,0-.03Z"/>
        <path class="cls-4" d="m803.29,482.77c.82,0,1.65-.02,2.47,0,.46.01.75.24.75.76,0,.48-.22.81-.71.81-1.65.03-3.3.03-4.94.03-.61,0-.88-.32-.85-.92.02-.53.36-.68.81-.69.82-.01,1.65,0,2.47,0h0Z"/>
      </g>
      <path class="cls-4" d="m830.04,482.77c.82,0,1.65-.02,2.47,0,.46.01.75.24.75.76,0,.48-.22.81-.71.81-1.65.03-3.3.03-4.94.03-.61,0-.88-.32-.85-.92.02-.53.36-.68.81-.69.82-.01,1.65,0,2.47,0h0Z"/>
    </g>
    <g>
      <path class="cls-4" d="m390.19,482.49c2.56.4,4.55.18,6.52.25.47.02.8.16.81.7.02.57-.15.97-.82.95-.5-.02-1,0-1.5,0-1.54,0-3.09,0-5.27,0,1.4,1.41,2.37,2.37,3.33,3.36.4.42.89.9.23,1.46-.47.4-.93.15-1.31-.23-1.53-1.53-3.06-3.06-4.6-4.58-.58-.58-.6-1.14-.02-1.72,1.53-1.53,3.05-3.06,4.59-4.59.47-.47,1.05-.64,1.51-.06.4.5-.02.92-.37,1.28-.9.94-1.81,1.86-3.1,3.18Z"/>
      <path class="cls-4" d="m421.32,484.34c-.9,0-1.81.02-2.71,0-.37-.01-.56-.28-.58-.65-.02-.45.1-.88.6-.9,1.73-.04,3.46-.03,5.18-.02.51,0,.7.33.69.81-.01.47-.2.79-.7.8-.82.01-1.65,0-2.47,0,0,0,0-.02,0-.03Z"/>
      <path class="cls-4" d="m407.66,482.77c.82,0,1.65-.02,2.47,0,.46.01.75.24.75.76,0,.48-.22.81-.71.81-1.65.03-3.3.03-4.94.03-.61,0-.88-.32-.85-.92.02-.53.36-.68.81-.69.82-.01,1.65,0,2.47,0h0Z"/>
      <path class="cls-4" d="m390.19,482.49c2.56.4,4.55.18,6.52.25.47.02.8.16.81.7.02.57-.15.97-.82.95-.5-.02-1,0-1.5,0-1.54,0-3.09,0-5.27,0,1.4,1.41,2.37,2.37,3.33,3.36.4.42.89.9.23,1.46-.47.4-.93.15-1.31-.23-1.53-1.53-3.06-3.06-4.6-4.58-.58-.58-.6-1.14-.02-1.72,1.53-1.53,3.05-3.06,4.59-4.59.47-.47,1.05-.64,1.51-.06.4.5-.02.92-.37,1.28-.9.94-1.81,1.86-3.1,3.18Z"/>
      <path class="cls-4" d="m421.32,484.34c-.9,0-1.81.02-2.71,0-.37-.01-.56-.28-.58-.65-.02-.45.1-.88.6-.9,1.73-.04,3.46-.03,5.18-.02.51,0,.7.33.69.81-.01.47-.2.79-.7.8-.82.01-1.65,0-2.47,0,0,0,0-.02,0-.03Z"/>
      <path class="cls-4" d="m407.66,482.77c.82,0,1.65-.02,2.47,0,.46.01.75.24.75.76,0,.48-.22.81-.71.81-1.65.03-3.3.03-4.94.03-.61,0-.88-.32-.85-.92.02-.53.36-.68.81-.69.82-.01,1.65,0,2.47,0h0Z"/>
      <g>
        <path class="cls-4" d="m449.74,484.34c-.9,0-1.81.02-2.71,0-.37-.01-.56-.28-.58-.65-.02-.45.1-.88.6-.9,1.73-.04,3.46-.03,5.18-.02.51,0,.7.33.69.81-.01.47-.2.79-.7.8-.82.01-1.65,0-2.47,0,0,0,0-.02,0-.03Z"/>
        <path class="cls-4" d="m436.08,482.77c.82,0,1.65-.02,2.47,0,.46.01.75.24.75.76,0,.48-.22.81-.71.81-1.65.03-3.3.03-4.94.03-.61,0-.88-.32-.85-.92.02-.53.36-.68.81-.69.82-.01,1.65,0,2.47,0h0Z"/>
      </g>
      <g>
        <path class="cls-4" d="m476.5,484.34c-.9,0-1.81.02-2.71,0-.37-.01-.56-.28-.58-.65-.02-.45.1-.88.6-.9,1.73-.04,3.46-.03,5.18-.02.51,0,.7.33.69.81-.01.47-.2.79-.7.8-.82.01-1.65,0-2.47,0,0,0,0-.02,0-.03Z"/>
        <path class="cls-4" d="m462.83,482.77c.82,0,1.65-.02,2.47,0,.46.01.75.24.75.76,0,.48-.22.81-.71.81-1.65.03-3.3.03-4.94.03-.61,0-.88-.32-.85-.92.02-.53.36-.68.81-.69.82-.01,1.65,0,2.47,0h0Z"/>
      </g>
      <g>
        <path class="cls-4" d="m503.25,484.34c-.9,0-1.81.02-2.71,0-.37-.01-.56-.28-.58-.65-.02-.45.1-.88.6-.9,1.73-.04,3.46-.03,5.18-.02.51,0,.7.33.69.81-.01.47-.2.79-.7.8-.82.01-1.65,0-2.47,0,0,0,0-.02,0-.03Z"/>
        <path class="cls-4" d="m489.59,482.77c.82,0,1.65-.02,2.47,0,.46.01.75.24.75.76,0,.48-.22.81-.71.81-1.65.03-3.3.03-4.94.03-.61,0-.88-.32-.85-.92.02-.53.36-.68.81-.69.82-.01,1.65,0,2.47,0h0Z"/>
      </g>
      <g>
        <path class="cls-4" d="m530.01,484.34c-.9,0-1.81.02-2.71,0-.37-.01-.56-.28-.58-.65-.02-.45.1-.88.6-.9,1.73-.04,3.46-.03,5.18-.02.51,0,.7.33.69.81-.01.47-.2.79-.7.8-.82.01-1.65,0-2.47,0,0,0,0-.02,0-.03Z"/>
        <path class="cls-4" d="m516.35,482.77c.82,0,1.65-.02,2.47,0,.46.01.75.24.75.76,0,.48-.22.81-.71.81-1.65.03-3.3.03-4.94.03-.61,0-.88-.32-.85-.92.02-.53.36-.68.81-.69.82-.01,1.65,0,2.47,0h0Z"/>
      </g>
      <g>
        <path class="cls-4" d="m556.77,484.34c-.9,0-1.81.02-2.71,0-.37-.01-.56-.28-.58-.65-.02-.45.1-.88.6-.9,1.73-.04,3.46-.03,5.18-.02.51,0,.7.33.69.81-.01.47-.2.79-.7.8-.82.01-1.65,0-2.47,0,0,0,0-.02,0-.03Z"/>
        <path class="cls-4" d="m543.1,482.77c.82,0,1.65-.02,2.47,0,.46.01.75.24.75.76,0,.48-.22.81-.71.81-1.65.03-3.3.03-4.94.03-.61,0-.88-.32-.85-.92.02-.53.36-.68.81-.69.82-.01,1.65,0,2.47,0h0Z"/>
      </g>
    </g>
    <g>
      <path class="cls-4" d="m290.03,482.49c2.56.4,4.55.18,6.52.25.47.02.8.16.81.7.02.57-.15.97-.82.95-.5-.02-1,0-1.5,0-1.54,0-3.09,0-5.27,0,1.4,1.41,2.37,2.37,3.33,3.36.4.42.89.9.23,1.46-.47.4-.93.15-1.31-.23-1.53-1.53-3.06-3.06-4.6-4.58-.58-.58-.6-1.14-.02-1.72,1.53-1.53,3.05-3.06,4.59-4.59.47-.47,1.05-.64,1.51-.06.4.5-.02.92-.37,1.28-.9.94-1.81,1.86-3.1,3.18Z"/>
      <path class="cls-4" d="m321.16,484.34c-.9,0-1.81.02-2.71,0-.37-.01-.56-.28-.58-.65-.02-.45.1-.88.6-.9,1.73-.04,3.46-.03,5.18-.02.51,0,.7.33.69.81-.01.47-.2.79-.7.8-.82.01-1.65,0-2.47,0,0,0,0-.02,0-.03Z"/>
      <path class="cls-4" d="m307.49,482.77c.82,0,1.65-.02,2.47,0,.46.01.75.24.75.76,0,.48-.22.81-.71.81-1.65.03-3.3.03-4.94.03-.61,0-.88-.32-.85-.92.02-.53.36-.68.81-.69.82-.01,1.65,0,2.47,0h0Z"/>
      <path class="cls-4" d="m290.03,482.49c2.56.4,4.55.18,6.52.25.47.02.8.16.81.7.02.57-.15.97-.82.95-.5-.02-1,0-1.5,0-1.54,0-3.09,0-5.27,0,1.4,1.41,2.37,2.37,3.33,3.36.4.42.89.9.23,1.46-.47.4-.93.15-1.31-.23-1.53-1.53-3.06-3.06-4.6-4.58-.58-.58-.6-1.14-.02-1.72,1.53-1.53,3.05-3.06,4.59-4.59.47-.47,1.05-.64,1.51-.06.4.5-.02.92-.37,1.28-.9.94-1.81,1.86-3.1,3.18Z"/>
      <path class="cls-4" d="m321.16,484.34c-.9,0-1.81.02-2.71,0-.37-.01-.56-.28-.58-.65-.02-.45.1-.88.6-.9,1.73-.04,3.46-.03,5.18-.02.51,0,.7.33.69.81-.01.47-.2.79-.7.8-.82.01-1.65,0-2.47,0,0,0,0-.02,0-.03Z"/>
      <path class="cls-4" d="m307.49,482.77c.82,0,1.65-.02,2.47,0,.46.01.75.24.75.76,0,.48-.22.81-.71.81-1.65.03-3.3.03-4.94.03-.61,0-.88-.32-.85-.92.02-.53.36-.68.81-.69.82-.01,1.65,0,2.47,0h0Z"/>
      <g>
        <path class="cls-4" d="m349.58,484.34c-.9,0-1.81.02-2.71,0-.37-.01-.56-.28-.58-.65-.02-.45.1-.88.6-.9,1.73-.04,3.46-.03,5.18-.02.51,0,.7.33.69.81-.01.47-.2.79-.7.8-.82.01-1.65,0-2.47,0,0,0,0-.02,0-.03Z"/>
        <path class="cls-4" d="m335.91,482.77c.82,0,1.65-.02,2.47,0,.46.01.75.24.75.76,0,.48-.22.81-.71.81-1.65.03-3.3.03-4.94.03-.61,0-.88-.32-.85-.92.02-.53.36-.68.81-.69.82-.01,1.65,0,2.47,0h0Z"/>
      </g>
      <g>
        <path class="cls-4" d="m376.33,484.34c-.9,0-1.81.02-2.71,0-.37-.01-.56-.28-.58-.65-.02-.45.1-.88.6-.9,1.73-.04,3.46-.03,5.18-.02.51,0,.7.33.69.81-.01.47-.2.79-.7.8-.82.01-1.65,0-2.47,0,0,0,0-.02,0-.03Z"/>
        <path class="cls-4" d="m362.67,482.77c.82,0,1.65-.02,2.47,0,.46.01.75.24.75.76,0,.48-.22.81-.71.81-1.65.03-3.3.03-4.94.03-.61,0-.88-.32-.85-.92.02-.53.36-.68.81-.69.82-.01,1.65,0,2.47,0h0Z"/>
      </g>
    </g>
    <g>
      <path class="cls-4" d="m110.11,482.49c2.56.4,4.55.18,6.52.25.47.02.8.16.81.7.02.57-.15.97-.82.95-.5-.02-1,0-1.5,0-1.54,0-3.09,0-5.27,0,1.4,1.41,2.37,2.37,3.33,3.36.4.42.89.9.23,1.46-.47.4-.93.15-1.31-.23-1.53-1.53-3.06-3.06-4.6-4.58-.58-.58-.6-1.14-.02-1.72,1.53-1.53,3.05-3.06,4.59-4.59.47-.47,1.05-.64,1.51-.06.4.5-.02.92-.37,1.28-.9.94-1.81,1.86-3.1,3.18Z"/>
      <path class="cls-4" d="m141.24,484.34c-.9,0-1.81.02-2.71,0-.37-.01-.56-.28-.58-.65-.02-.45.1-.88.6-.9,1.73-.04,3.46-.03,5.18-.02.51,0,.7.33.69.81-.01.47-.2.79-.7.8-.82.01-1.65,0-2.47,0,0,0,0-.02,0-.03Z"/>
      <path class="cls-4" d="m127.58,482.77c.82,0,1.65-.02,2.47,0,.46.01.75.24.75.76,0,.48-.22.81-.71.81-1.65.03-3.3.03-4.94.03-.61,0-.88-.32-.85-.92.02-.53.36-.68.81-.69.82-.01,1.65,0,2.47,0h0Z"/>
      <path class="cls-4" d="m110.11,482.49c2.56.4,4.55.18,6.52.25.47.02.8.16.81.7.02.57-.15.97-.82.95-.5-.02-1,0-1.5,0-1.54,0-3.09,0-5.27,0,1.4,1.41,2.37,2.37,3.33,3.36.4.42.89.9.23,1.46-.47.4-.93.15-1.31-.23-1.53-1.53-3.06-3.06-4.6-4.58-.58-.58-.6-1.14-.02-1.72,1.53-1.53,3.05-3.06,4.59-4.59.47-.47,1.05-.64,1.51-.06.4.5-.02.92-.37,1.28-.9.94-1.81,1.86-3.1,3.18Z"/>
      <path class="cls-4" d="m141.24,484.34c-.9,0-1.81.02-2.71,0-.37-.01-.56-.28-.58-.65-.02-.45.1-.88.6-.9,1.73-.04,3.46-.03,5.18-.02.51,0,.7.33.69.81-.01.47-.2.79-.7.8-.82.01-1.65,0-2.47,0,0,0,0-.02,0-.03Z"/>
      <path class="cls-4" d="m127.58,482.77c.82,0,1.65-.02,2.47,0,.46.01.75.24.75.76,0,.48-.22.81-.71.81-1.65.03-3.3.03-4.94.03-.61,0-.88-.32-.85-.92.02-.53.36-.68.81-.69.82-.01,1.65,0,2.47,0h0Z"/>
      <g>
        <path class="cls-4" d="m169.66,484.34c-.9,0-1.81.02-2.71,0-.37-.01-.56-.28-.58-.65-.02-.45.1-.88.6-.9,1.73-.04,3.46-.03,5.18-.02.51,0,.7.33.69.81-.01.47-.2.79-.7.8-.82.01-1.65,0-2.47,0,0,0,0-.02,0-.03Z"/>
        <path class="cls-4" d="m156,482.77c.82,0,1.65-.02,2.47,0,.46.01.75.24.75.76,0,.48-.22.81-.71.81-1.65.03-3.3.03-4.94.03-.61,0-.88-.32-.85-.92.02-.53.36-.68.81-.69.82-.01,1.65,0,2.47,0h0Z"/>
      </g>
      <g>
        <path class="cls-4" d="m196.42,484.34c-.9,0-1.81.02-2.71,0-.37-.01-.56-.28-.58-.65-.02-.45.1-.88.6-.9,1.73-.04,3.46-.03,5.18-.02.51,0,.7.33.69.81-.01.47-.2.79-.7.8-.82.01-1.65,0-2.47,0,0,0,0-.02,0-.03Z"/>
        <path class="cls-4" d="m182.75,482.77c.82,0,1.65-.02,2.47,0,.46.01.75.24.75.76,0,.48-.22.81-.71.81-1.65.03-3.3.03-4.94.03-.61,0-.88-.32-.85-.92.02-.53.36-.68.81-.69.82-.01,1.65,0,2.47,0h0Z"/>
      </g>
      <g>
        <path class="cls-4" d="m223.17,484.34c-.9,0-1.81.02-2.71,0-.37-.01-.56-.28-.58-.65-.02-.45.1-.88.6-.9,1.73-.04,3.46-.03,5.18-.02.51,0,.7.33.69.81-.01.47-.2.79-.7.8-.82.01-1.65,0-2.47,0,0,0,0-.02,0-.03Z"/>
        <path class="cls-4" d="m209.51,482.77c.82,0,1.65-.02,2.47,0,.46.01.75.24.75.76,0,.48-.22.81-.71.81-1.65.03-3.3.03-4.94.03-.61,0-.88-.32-.85-.92.02-.53.36-.68.81-.69.82-.01,1.65,0,2.47,0h0Z"/>
      </g>
      <g>
        <path class="cls-4" d="m249.93,484.34c-.9,0-1.81.02-2.71,0-.37-.01-.56-.28-.58-.65-.02-.45.1-.88.6-.9,1.73-.04,3.46-.03,5.18-.02.51,0,.7.33.69.81-.01.47-.2.79-.7.8-.82.01-1.65,0-2.47,0,0,0,0-.02,0-.03Z"/>
        <path class="cls-4" d="m236.27,482.77c.82,0,1.65-.02,2.47,0,.46.01.75.24.75.76,0,.48-.22.81-.71.81-1.65.03-3.3.03-4.94.03-.61,0-.88-.32-.85-.92.02-.53.36-.68.81-.69.82-.01,1.65,0,2.47,0h0Z"/>
      </g>
      <g>
        <path class="cls-4" d="m276.69,484.34c-.9,0-1.81.02-2.71,0-.37-.01-.56-.28-.58-.65-.02-.45.1-.88.6-.9,1.73-.04,3.46-.03,5.18-.02.51,0,.7.33.69.81-.01.47-.2.79-.7.8-.82.01-1.65,0-2.47,0,0,0,0-.02,0-.03Z"/>
        <path class="cls-4" d="m263.02,482.77c.82,0,1.65-.02,2.47,0,.46.01.75.24.75.76,0,.48-.22.81-.71.81-1.65.03-3.3.03-4.94.03-.61,0-.88-.32-.85-.92.02-.53.36-.68.81-.69.82-.01,1.65,0,2.47,0h0Z"/>
      </g>
    </g>
  </g>
</svg>