<?xml version="1.0" encoding="utf-8"?>
<!-- Generator: Adobe Illustrator 28.0.0, SVG Export Plug-In . SVG Version: 6.00 Build 0)  -->
<svg version="1.1" id="Слой_1" xmlns="http://www.w3.org/2000/svg" xmlns:xlink="http://www.w3.org/1999/xlink" x="0px" y="0px"
	 viewBox="0 0 35 25.7" style="enable-background:new 0 0 35 25.7;" xml:space="preserve">
<style type="text/css">
	.st0{fill:#FC9403;}
	.st1{fill:#474362;}
	.st2{fill:#1A1814;}
	.st3{fill:#FEEEC4;}
</style>
<g>
	<path class="st0" d="M21.6,24.4c-2.4,0.2-4.7,0.3-7.1,0C13,24.2,11.5,23.7,10,23c-0.5-0.4-1-0.7-1.5-1.1c-2.2-1.9-3.7-4.3-4.6-7
		c0.1-0.1,0.1-0.2,0.2-0.3c0.5-0.3,0.9-0.8,1.4-1.2c0.1-0.1,0.1-0.1,0.2-0.2c0.1-0.1,0.2-0.2,0-0.3c-0.1-0.1-0.2,0-0.3,0.1
		c-0.2,0.2-0.3,0.3-0.5,0.5c-0.4,0.3-0.6,0.7-1,0.9c-0.4-0.4-0.5-1-0.7-1.5c0.1-0.1,0.1-0.2,0.2-0.2C4,12.6,4.5,12.3,5.1,12
		c0.1,0,0.3-0.1,0.2-0.3c-0.1-0.2-0.3-0.1-0.4-0.1c-0.5,0.2-1.1,0.4-1.6,0.7c-0.1,0-0.2,0-0.2,0c-0.1-0.6-0.4-1.2-0.5-1.8
		c0-0.1,0.1-0.1,0.1-0.2c0.9,0,1.9,0,2.8,0.2c0.1,0,0.3,0,0.3-0.1c0-0.2-0.1-0.2-0.2-0.3c-0.1,0-0.2-0.1-0.3-0.1
		c-0.9-0.1-1.8-0.2-2.7,0c-0.1,0-0.1,0-0.2,0C2.1,8.9,1.9,7.7,1.7,6.6c-0.1-1-0.1-2,0.5-2.9c0.9-1.2,2.5-1.2,3.4,0
		c0.3,0.5,0.6,1,1,1.5c0.4,0.5,0.4,0.6,1,0.3c0.6-0.2,1.2-0.5,1.8-0.7c2.5-0.9,5.1-1.2,7.8-1.2c1.3,0,2.7-0.1,4-0.1
		c0.7,0,1.4,0,2.1,0.1c0.2,0,0.3,0,0.5,0c0.5,0,0.6-0.1,0.5-0.6c-0.1-0.8,0.1-1.5,0.6-2.1c0.7-1,2.1-1.1,2.9-0.2
		c0.4,0.5,0.7,1,0.9,1.6c0.6,1.7,1.2,3.4,1.5,5.2c0,0-0.1,0.1-0.1,0.1c-0.6,0.1-1.2,0.4-1.7,0.7c-0.1,0.1-0.2,0.2-0.1,0.3
		c0.1,0.1,0.2,0.1,0.3,0c0.6-0.2,1.1-0.5,1.7-0.7c0.1,0.4,0,0.8,0.1,1.3c0,0-0.1,0.1-0.1,0.1c-0.6-0.1-1.2,0-1.8,0.1
		c-0.1,0.1-0.1,0.2,0,0.3c0.6,0.1,1.2,0.1,1.9,0c0.1,0.1,0.2,0.3,0.1,0.5c0.1,0.5,0.1,1,0.2,1.4c0,0-0.1,0-0.1,0.1
		c-0.5-0.3-1.1-0.4-1.7-0.7c-0.1-0.1-0.3-0.1-0.3,0.1c-0.1,0.2,0,0.3,0.2,0.4c0.6,0.2,1.2,0.5,1.9,0.7c0,0,0,0.1,0.1,0.1
		c-0.1,0.8-0.2,1.6-0.3,2.4c-0.2,1.7-0.4,3.4-1.2,4.9c-0.7,1.5-1.8,2.6-3.2,3.4C24.7,23.6,23.2,24.1,21.6,24.4z M16,6.8
		c0.5,0.6,0.9,0.9,1.3,1.2C18,8.5,18,9.1,17.9,9.8c0,0.3-0.2,0.4-0.5,0.3c-0.1,0-0.2-0.2-0.4-0.2c0.1,0.3,0.4,0.5,0.7,0.5
		c0.3-0.1,0.6-0.1,0.9,0.1c0.3,0.2,0.6,0.1,0.7-0.3c-0.6,0.2-0.7,0.2-0.9-0.1c-0.3-0.4-0.3-1.6-0.1-2c0.3-0.5,0.6-0.9,0.8-1.5
		C18.1,6.5,17.2,6.7,16,6.8z M2.9,7C3,7,3,7,3.1,7c0.5-0.2,1.1-0.4,1.6-0.7c1-0.4,1-0.7,0.1-1.3C4.5,4.7,4.1,4.6,3.7,4.7
		C3.3,4.7,3,4.9,2.9,5.3C2.8,5.8,2.7,6.4,2.9,7z M28.2,3.5c-0.2-0.7-0.5-1.3-1.1-1.7c-0.4-0.3-0.8-0.3-1.1-0.1
		c-0.2,0.2-0.5,1-0.4,1.3c0,0.1,0.2,0.2,0.3,0.2C26.7,3.4,27.4,3.6,28.2,3.5z M23.3,6.5c0.1-0.8-0.4-1.6-1.1-1.8
		c-0.4-0.1-0.7,0-0.9,0.3c-0.3,0.4-0.4,1-0.2,1.6c0.2-0.3,0.1-0.6,0.2-0.9c0.1-0.3,0.2-0.6,0.5-0.6c0.3-0.1,0.6,0.1,0.8,0.3
		C22.8,5.6,22.9,5.8,23,6C23.1,6.2,23.1,6.4,23.3,6.5z M14,6.9c-0.2-0.6-0.5-1.1-1.2-1.2c-0.4-0.1-0.8,0.1-1,0.5
		c-0.3,0.5-0.4,1,0,1.7c0-0.5,0-0.7,0.1-1c0-0.4,0.2-0.7,0.6-0.8c0.4-0.1,0.7,0,0.9,0.3C13.6,6.6,13.7,6.9,14,6.9z"/>
	<path class="st1" d="M30.4,9.2c0,0,0.1-0.1,0.1-0.1c0.3,0.2,0.7,0.1,1,0.1c0.6,0,1.2-0.1,1.8,0.1c-0.1,0.3-0.3,0.2-0.5,0.2
		c-0.6,0-1.2,0-1.8,0c-0.3,0-0.5,0.1-0.5,0.5c0.1-0.2,0-0.4-0.1-0.5C30.4,9.5,30.4,9.3,30.4,9.2z"/>
	<path class="st1" d="M30.2,7.5c0-0.1,0-0.1,0.1-0.1c0.8-0.2,1.6-0.5,2.4-0.5c0.2,0,0.3,0,0.5,0c0.1,0,0.1,0.1,0.2,0.1
		c0,0.1,0,0.2-0.1,0.2c-0.1,0.1-0.3,0.1-0.4,0.1c-0.7,0.1-1.3,0.3-2,0.3c-0.2,0-0.3,0.2-0.5,0.2C30.2,7.7,30.3,7.6,30.2,7.5z"/>
	<path class="st1" d="M4.2,14.6c-0.1,0.1-0.1,0.2-0.2,0.3c-0.3,0.1-0.5,0.5-0.7,0.7c-0.3,0.3-0.5,0.6-1,0.7
		c-0.1-0.3,0.1-0.5,0.3-0.7c0.4-0.4,0.8-0.7,1.2-1.1C3.9,14.4,4.1,14.4,4.2,14.6z"/>
	<path class="st1" d="M2.4,10.1c0.1,0,0.1,0,0.2,0c0,0.1,0,0.2,0.1,0.3c0,0.1-0.1,0.1-0.1,0.2c-0.2-0.1-0.4,0-0.7,0
		C1.5,10.7,1,11,0.4,10.9c0.4-0.4,0.9-0.5,1.3-0.6C1.9,10.2,2.2,10.2,2.4,10.1z"/>
	<path class="st2" d="M4.2,14.6c-0.1-0.2-0.3-0.1-0.4-0.1c0,0,0.1-0.1,0.1-0.1c0.4-0.2,0.7-0.6,1-0.9c0.2-0.1,0.3-0.3,0.5-0.5
		c0.1-0.1,0.2-0.2,0.3-0.1c0.1,0.1,0,0.2,0,0.3c0,0.1-0.1,0.1-0.2,0.2C5.1,13.8,4.7,14.2,4.2,14.6z"/>
	<path class="st1" d="M3.4,12.7c-0.1,0.1-0.1,0.2-0.2,0.2c-0.6,0.1-1,0.6-1.7,0.6c0.4-0.7,1.2-0.8,1.7-1.1c0.1,0,0.2,0,0.2,0
		C3.4,12.5,3.4,12.6,3.4,12.7z"/>
	<path class="st1" d="M30.7,12.1c0,0,0-0.1-0.1-0.1c0-0.1,0-0.3,0-0.4c0,0,0-0.1,0.1-0.1c0.2,0.3,0.6,0.3,0.9,0.4
		c0.3,0.1,0.6,0.2,0.9,0.5C31.8,12.6,31.3,12.2,30.7,12.1z"/>
	<path class="st2" d="M30.2,7.5c0,0.1,0,0.3,0.1,0.3c0,0,0,0,0,0c-0.6,0.1-1.1,0.5-1.7,0.7c-0.1,0-0.2,0.1-0.3,0
		c-0.1-0.1,0-0.3,0.1-0.3C29,7.9,29.6,7.6,30.2,7.5z"/>
	<path class="st2" d="M16,6.8c1.1,0,2.1-0.3,3.1-0.2c-0.2,0.6-0.5,1-0.8,1.5c-0.3,0.5-0.2,1.6,0.1,2c0.2,0.2,0.3,0.2,0.9,0.1
		c-0.1,0.4-0.4,0.5-0.7,0.3c-0.3-0.2-0.5-0.2-0.9-0.1c-0.3,0.1-0.6-0.1-0.7-0.5c0.2-0.1,0.3,0.1,0.4,0.2c0.3,0.1,0.5,0,0.5-0.3
		c0-0.7,0-1.3-0.6-1.8C16.9,7.7,16.5,7.3,16,6.8z"/>
	<path class="st2" d="M2.9,7c-0.2-0.6-0.1-1.1,0-1.7C3,4.9,3.3,4.7,3.7,4.7c0.4-0.1,0.8,0,1.1,0.3c0.9,0.7,0.8,0.9-0.1,1.3
		C4.1,6.5,3.6,6.8,3.1,7C3,7,3,7,2.9,7z"/>
	<path class="st2" d="M28.2,3.5c-0.8,0-1.5-0.1-2.3-0.2c-0.1,0-0.3-0.1-0.3-0.2c-0.1-0.3,0.2-1.1,0.4-1.3c0.3-0.2,0.7-0.2,1.1,0.1
		C27.7,2.3,28.1,2.8,28.2,3.5z"/>
	<path class="st2" d="M23.3,6.5c-0.2,0-0.2-0.3-0.3-0.4c-0.1-0.2-0.2-0.5-0.4-0.7c-0.2-0.2-0.5-0.4-0.8-0.3
		c-0.3,0.1-0.4,0.3-0.5,0.6c-0.1,0.3,0,0.6-0.2,0.9C20.9,6,21,5.3,21.4,5c0.2-0.3,0.6-0.4,0.9-0.3C22.9,4.9,23.4,5.7,23.3,6.5z"/>
	<path class="st2" d="M2.7,10.4c-0.1-0.1-0.1-0.2-0.1-0.3c0.9-0.2,1.8-0.1,2.7,0c0.1,0,0.2,0,0.3,0.1c0.1,0,0.2,0.1,0.2,0.3
		c0,0.2-0.2,0.2-0.3,0.1C4.6,10.4,3.6,10.5,2.7,10.4z"/>
	<path class="st2" d="M14,6.9c-0.3-0.1-0.4-0.3-0.6-0.5c-0.3-0.3-0.6-0.4-0.9-0.3c-0.4,0.1-0.6,0.4-0.6,0.8c0,0.3,0,0.5-0.1,1
		c-0.4-0.7-0.3-1.2,0-1.7c0.2-0.4,0.6-0.6,1-0.5C13.5,5.8,13.8,6.3,14,6.9z"/>
	<path class="st2" d="M30.7,11.6c0,0.1,0.1,0.3,0,0.4c-0.7-0.1-1.2-0.5-1.9-0.7c-0.2-0.1-0.3-0.2-0.2-0.4c0.1-0.1,0.2-0.1,0.3-0.1
		C29.5,11.1,30.1,11.3,30.7,11.6z"/>
	<path class="st2" d="M3.4,12.7c0-0.1,0-0.2,0-0.3c0.5-0.2,1.1-0.4,1.6-0.7c0.1-0.1,0.3-0.1,0.4,0.1C5.4,11.9,5.2,12,5.1,12
		C4.5,12.3,4,12.6,3.4,12.7z"/>
	<path class="st2" d="M30.4,9.2c0,0.1,0,0.2,0,0.3c-0.6,0.1-1.2,0.1-1.9,0c0-0.1,0-0.2,0-0.3C29.2,9.2,29.8,9.2,30.4,9.2z"/>
	<path class="st1" d="M28.6,9.3c0,0.1,0,0.2,0,0.3C28.4,9.5,28.4,9.4,28.6,9.3z"/>
</g>
<g>
	<path class="st3" d="M-30.4,33.7c0.8,0.5,1.5,0.7,1.5,0.7c0.5,0.1,0.9,0.2,1.2,0.2c0.2,0,0.5,0,0.7,0c2.1,0.2,4.2,0.4,6.3,0.7
		c1,0,2,0.1,3,0.1c0-0.2,0-0.4,0-0.7c-0.3-1.4-0.6-2.7-0.5-4.2c-0.1-0.1-0.2-0.2-0.2-0.4c-0.1-1.2-0.3-2.3-0.4-3.5
		c-0.1-0.8-0.3-1.5-0.2-2.3c-2.4,0.2-4.7,0.3-7.1,0c-1.6-0.2-3.1-0.7-4.5-1.4c-0.4,1-0.7,2.1-1.1,3.1c-0.5,1.3-1.1,2.7-1.6,4
		C-33.3,30.3-32.1,32.7-30.4,33.7z"/>
	<path class="st0" d="M-19.1,24.4c-2.4,0.2-4.7,0.3-7.1,0c-1.6-0.2-3.1-0.7-4.5-1.4c-0.5-0.4-1-0.7-1.5-1.1c-2.2-1.9-3.7-4.3-4.6-7
		c0.1-0.1,0.1-0.2,0.2-0.3c0.5-0.3,0.9-0.8,1.4-1.2c0.1-0.1,0.1-0.1,0.2-0.2c0.1-0.1,0.2-0.2,0-0.3c-0.1-0.1-0.2,0-0.3,0.1
		c-0.2,0.2-0.3,0.3-0.5,0.5c-0.4,0.3-0.6,0.7-1,0.9c-0.4-0.4-0.5-1-0.7-1.5c0.1-0.1,0.1-0.2,0.2-0.2c0.6-0.1,1.2-0.4,1.8-0.6
		c0.1,0,0.3-0.1,0.2-0.3c-0.1-0.2-0.3-0.1-0.4-0.1c-0.5,0.2-1.1,0.4-1.6,0.7c-0.1,0-0.2,0-0.2,0c-0.1-0.6-0.4-1.2-0.5-1.8
		c0-0.1,0.1-0.1,0.1-0.2c0.9,0,1.9,0,2.8,0.2c0.1,0,0.3,0,0.3-0.1c0-0.2-0.1-0.2-0.2-0.3c-0.1,0-0.2-0.1-0.3-0.1
		c-0.9-0.1-1.8-0.2-2.7,0c-0.1,0-0.1,0-0.2,0c-0.3-1.2-0.5-2.3-0.7-3.5c-0.1-1-0.1-2,0.5-2.9c0.9-1.2,2.5-1.2,3.4,0
		c0.3,0.5,0.6,1,1,1.5c0.4,0.5,0.4,0.6,1,0.3c0.6-0.2,1.2-0.5,1.8-0.7c2.5-0.9,5.1-1.2,7.8-1.2c1.3,0,2.7-0.1,4-0.1
		c0.7,0,1.4,0,2.1,0.1c0.2,0,0.3,0,0.5,0c0.5,0,0.6-0.1,0.5-0.6c-0.1-0.8,0.1-1.5,0.6-2.1c0.7-1,2.1-1.1,2.9-0.2
		c0.4,0.5,0.7,1,0.9,1.6c0.6,1.7,1.2,3.4,1.5,5.2c0,0-0.1,0.1-0.1,0.1c-0.6,0.1-1.2,0.4-1.7,0.7c-0.1,0.1-0.2,0.2-0.1,0.3
		c0.1,0.1,0.2,0.1,0.3,0c0.6-0.2,1.1-0.5,1.7-0.7c0.1,0.4,0,0.8,0.1,1.3c0,0-0.1,0.1-0.1,0.1c-0.6-0.1-1.2,0-1.8,0.1
		c-0.1,0.1-0.1,0.2,0,0.3c0.6,0.1,1.2,0.1,1.9,0c0.1,0.1,0.2,0.3,0.1,0.5c0.1,0.5,0.1,1,0.2,1.4c0,0-0.1,0-0.1,0.1
		c-0.5-0.3-1.1-0.4-1.7-0.7c-0.1-0.1-0.3-0.1-0.3,0.1c-0.1,0.2,0,0.3,0.2,0.4c0.6,0.2,1.2,0.5,1.9,0.7c0,0,0,0.1,0.1,0.1
		c-0.1,0.8-0.2,1.6-0.3,2.4c-0.2,1.7-0.4,3.4-1.2,4.9c-0.7,1.5-1.8,2.6-3.2,3.4C-16,23.6-17.5,24.1-19.1,24.4z M-24.7,6.8
		c0.5,0.6,0.9,0.9,1.3,1.2c0.6,0.5,0.6,1.1,0.6,1.8c0,0.3-0.2,0.4-0.5,0.3c-0.1,0-0.2-0.2-0.4-0.2c0.1,0.3,0.4,0.5,0.7,0.5
		c0.3-0.1,0.6-0.1,0.9,0.1c0.3,0.2,0.6,0.1,0.7-0.3c-0.6,0.2-0.7,0.2-0.9-0.1c-0.3-0.4-0.3-1.6-0.1-2c0.3-0.5,0.6-0.9,0.8-1.5
		C-22.6,6.5-23.5,6.7-24.7,6.8z M-37.8,7c0.1,0,0.1,0,0.2,0c0.5-0.2,1.1-0.4,1.6-0.7c1-0.4,1-0.7,0.1-1.3c-0.3-0.3-0.7-0.4-1.1-0.3
		c-0.4,0.1-0.7,0.2-0.8,0.6C-37.9,5.8-38,6.4-37.8,7z M-12.5,3.5c-0.2-0.7-0.5-1.3-1.1-1.7c-0.4-0.3-0.8-0.3-1.1-0.1
		c-0.2,0.2-0.5,1-0.4,1.3c0,0.1,0.2,0.2,0.3,0.2C-14,3.4-13.3,3.6-12.5,3.5z M-17.4,6.5c0.1-0.8-0.4-1.6-1.1-1.8
		c-0.4-0.1-0.7,0-0.9,0.3c-0.3,0.4-0.4,1-0.2,1.6c0.2-0.3,0.1-0.6,0.2-0.9c0.1-0.3,0.2-0.6,0.5-0.6c0.3-0.1,0.6,0.1,0.8,0.3
		c0.2,0.2,0.3,0.4,0.4,0.7C-17.6,6.2-17.6,6.4-17.4,6.5z M-26.7,6.9c-0.2-0.6-0.5-1.1-1.2-1.2c-0.4-0.1-0.8,0.1-1,0.5
		c-0.3,0.5-0.4,1,0,1.7c0-0.5,0-0.7,0.1-1c0-0.4,0.2-0.7,0.6-0.8c0.4-0.1,0.7,0,0.9,0.3C-27.1,6.6-27.1,6.9-26.7,6.9z"/>
	<path class="st0" d="M-17.8,34.7c-0.3-1.4-0.6-2.7-0.5-4.2c0.2-0.1,0.4-0.1,0.6-0.2c3.2-0.9,5.5-2.8,7.2-5.6c0.2-0.4,0.5-0.7,0.8-1
		c0.8-0.6,1.6-0.3,1.7,0.7c0.1,0.9-0.1,1.7-0.3,2.5c-0.3,0.9-0.7,1.7-1.3,2.3c-2.1,2.3-4.6,4-7.5,5.2
		C-17.2,34.6-17.5,34.7-17.8,34.7z"/>
	<path class="st1" d="M-10.4,9.2c0,0,0.1-0.1,0.1-0.1c0.3,0.2,0.7,0.1,1,0.1C-8.6,9.2-8,9-7.4,9.3c-0.1,0.3-0.3,0.2-0.5,0.2
		c-0.6,0-1.2,0-1.8,0c-0.3,0-0.5,0.1-0.5,0.5c0.1-0.2,0-0.4-0.1-0.5C-10.3,9.5-10.3,9.3-10.4,9.2z"/>
	<path class="st1" d="M-10.5,7.5c0-0.1,0-0.1,0.1-0.1c0.8-0.2,1.6-0.5,2.4-0.5c0.2,0,0.3,0,0.5,0c0.1,0,0.1,0.1,0.2,0.1
		c0,0.1,0,0.2-0.1,0.2C-7.7,7.2-7.8,7.2-8,7.3c-0.7,0.1-1.3,0.3-2,0.3c-0.2,0-0.3,0.2-0.5,0.2C-10.5,7.7-10.5,7.6-10.5,7.5z"/>
	<path class="st1" d="M-36.5,14.6c-0.1,0.1-0.1,0.2-0.2,0.3c-0.3,0.1-0.5,0.5-0.7,0.7c-0.3,0.3-0.5,0.6-1,0.7
		c-0.1-0.3,0.1-0.5,0.3-0.7c0.4-0.4,0.8-0.7,1.2-1.1C-36.8,14.4-36.6,14.4-36.5,14.6z"/>
	<path class="st1" d="M-38.3,10.1c0.1,0,0.1,0,0.2,0c0,0.1,0,0.2,0.1,0.3c0,0.1-0.1,0.1-0.1,0.2c-0.2-0.1-0.4,0-0.7,0
		c-0.5,0.1-0.9,0.4-1.5,0.3c0.4-0.4,0.9-0.5,1.3-0.6C-38.8,10.2-38.5,10.2-38.3,10.1z"/>
	<path class="st2" d="M-36.5,14.6c-0.1-0.2-0.3-0.1-0.4-0.1c0,0,0.1-0.1,0.1-0.1c0.4-0.2,0.7-0.6,1-0.9c0.2-0.1,0.3-0.3,0.5-0.5
		c0.1-0.1,0.2-0.2,0.3-0.1c0.1,0.1,0,0.2,0,0.3c0,0.1-0.1,0.1-0.2,0.2C-35.6,13.8-36,14.2-36.5,14.6z"/>
	<path class="st1" d="M-37.4,12.7c-0.1,0.1-0.1,0.2-0.2,0.2c-0.6,0.1-1,0.6-1.7,0.6c0.4-0.7,1.2-0.8,1.7-1.1c0.1,0,0.2,0,0.2,0
		C-37.4,12.5-37.4,12.6-37.4,12.7z"/>
	<path class="st1" d="M-10,12.1c0,0,0-0.1-0.1-0.1c0-0.1,0-0.3,0-0.4c0,0,0-0.1,0.1-0.1c0.2,0.3,0.6,0.3,0.9,0.4
		c0.3,0.1,0.6,0.2,0.9,0.5C-8.9,12.6-9.4,12.2-10,12.1z"/>
	<path class="st2" d="M-10.5,7.5c0,0.1,0,0.3,0.1,0.3c0,0,0,0,0,0C-11,8-11.5,8.3-12.1,8.5c-0.1,0-0.2,0.1-0.3,0
		c-0.1-0.1,0-0.3,0.1-0.3C-11.7,7.9-11.1,7.6-10.5,7.5z"/>
	<path class="st2" d="M-24.7,6.8c1.1,0,2.1-0.3,3.1-0.2c-0.2,0.6-0.5,1-0.8,1.5c-0.3,0.5-0.2,1.6,0.1,2c0.2,0.2,0.3,0.2,0.9,0.1
		c-0.1,0.4-0.4,0.5-0.7,0.3c-0.3-0.2-0.5-0.2-0.9-0.1c-0.3,0.1-0.6-0.1-0.7-0.5c0.2-0.1,0.3,0.1,0.4,0.2c0.3,0.1,0.5,0,0.5-0.3
		c0-0.7,0-1.3-0.6-1.8C-23.8,7.7-24.2,7.3-24.7,6.8z"/>
	<path class="st2" d="M-37.8,7c-0.2-0.6-0.1-1.1,0-1.7c0.1-0.4,0.4-0.6,0.8-0.6c0.4-0.1,0.8,0,1.1,0.3c0.9,0.7,0.8,0.9-0.1,1.3
		c-0.5,0.2-1.1,0.5-1.6,0.7C-37.7,7-37.7,7-37.8,7z"/>
	<path class="st2" d="M-12.5,3.5c-0.8,0-1.5-0.1-2.3-0.2c-0.1,0-0.3-0.1-0.3-0.2c-0.1-0.3,0.2-1.1,0.4-1.3c0.3-0.2,0.7-0.2,1.1,0.1
		C-13,2.3-12.7,2.8-12.5,3.5z"/>
	<path class="st2" d="M-17.4,6.5c-0.2,0-0.2-0.3-0.3-0.4c-0.1-0.2-0.2-0.5-0.4-0.7c-0.2-0.2-0.5-0.4-0.8-0.3
		c-0.3,0.1-0.4,0.3-0.5,0.6c-0.1,0.3,0,0.6-0.2,0.9C-19.8,6-19.7,5.3-19.4,5c0.2-0.3,0.6-0.4,0.9-0.3C-17.8,4.9-17.3,5.7-17.4,6.5z"
		/>
	<path class="st2" d="M-38,10.4c-0.1-0.1-0.1-0.2-0.1-0.3c0.9-0.2,1.8-0.1,2.7,0c0.1,0,0.2,0,0.3,0.1c0.1,0,0.2,0.1,0.2,0.3
		c0,0.2-0.2,0.2-0.3,0.1C-36.1,10.4-37.1,10.5-38,10.4z"/>
	<path class="st2" d="M-26.7,6.9c-0.3-0.1-0.4-0.3-0.6-0.5c-0.3-0.3-0.6-0.4-0.9-0.3c-0.4,0.1-0.6,0.4-0.6,0.8c0,0.3,0,0.5-0.1,1
		c-0.4-0.7-0.3-1.2,0-1.7c0.2-0.4,0.6-0.6,1-0.5C-27.2,5.8-26.9,6.3-26.7,6.9z"/>
	<path class="st2" d="M-10.1,11.6c0,0.1,0.1,0.3,0,0.4c-0.7-0.1-1.2-0.5-1.9-0.7c-0.2-0.1-0.3-0.2-0.2-0.4c0.1-0.1,0.2-0.1,0.3-0.1
		C-11.2,11.1-10.6,11.3-10.1,11.6z"/>
	<path class="st2" d="M-37.4,12.7c0-0.1,0-0.2,0-0.3c0.5-0.2,1.1-0.4,1.6-0.7c0.1-0.1,0.3-0.1,0.4,0.1c0.1,0.2-0.1,0.2-0.2,0.3
		C-36.2,12.3-36.7,12.6-37.4,12.7z"/>
	<path class="st2" d="M-10.4,9.2c0,0.1,0,0.2,0,0.3c-0.6,0.1-1.2,0.1-1.9,0c0-0.1,0-0.2,0-0.3C-11.6,9.2-11,9.2-10.4,9.2z"/>
	<path class="st1" d="M-12.2,9.3c0,0.1,0,0.2,0,0.3C-12.3,9.5-12.3,9.4-12.2,9.3z"/>
</g>
</svg>
