<?xml version="1.0" encoding="utf-8"?>
<!-- Generator: Adobe Illustrator 28.0.0, SVG Export Plug-In . SVG Version: 6.00 Build 0)  -->
<svg version="1.1" id="Слой_1" xmlns="http://www.w3.org/2000/svg" xmlns:xlink="http://www.w3.org/1999/xlink" x="0px" y="0px"
	 viewBox="0 0 35 36" style="enable-background:new 0 0 35 36;" xml:space="preserve">
<style type="text/css">
	.st0{clip-path:url(#SVGID_00000055699764113169628270000010458436646553735608_);}
	.st1{clip-path:url(#SVGID_00000070104756619521904380000006664426863886132662_);}
	.st2{fill:#FFFFFF;filter:url(#Adobe_OpacityMaskFilter);}
	.st3{mask:url(#mask0_686_7744_00000151502449660981643940000000349817582890711972_);}
	.st4{fill:#FE7000;}
	.st5{fill:none;stroke:#000000;stroke-width:2;stroke-linecap:round;stroke-linejoin:round;}
</style>
<g>
	<defs>
		<rect id="SVGID_1_" y="0.6" width="35" height="35"/>
	</defs>
	<clipPath id="SVGID_00000168798164994163882750000007013423222972517562_">
		<use xlink:href="#SVGID_1_"  style="overflow:visible;"/>
	</clipPath>
	<g style="clip-path:url(#SVGID_00000168798164994163882750000007013423222972517562_);">
		<g>
			<defs>
				<rect id="SVGID_00000091698100574031603720000007409582385408725382_" y="0.6" width="35" height="35"/>
			</defs>
			<clipPath id="SVGID_00000114770231905787473570000007351844019074025142_">
				<use xlink:href="#SVGID_00000091698100574031603720000007409582385408725382_"  style="overflow:visible;"/>
			</clipPath>
			<g style="clip-path:url(#SVGID_00000114770231905787473570000007351844019074025142_);">
				<defs>
					<filter id="Adobe_OpacityMaskFilter" filterUnits="userSpaceOnUse" x="-0.3" y="0.3" width="35.6" height="35.6">
						<feColorMatrix  type="matrix" values="1 0 0 0 0  0 1 0 0 0  0 0 1 0 0  0 0 0 1 0"/>
					</filter>
				</defs>
				
					<mask maskUnits="userSpaceOnUse" x="-0.3" y="0.3" width="35.6" height="35.6" id="mask0_686_7744_00000151502449660981643940000000349817582890711972_">
					<path class="st2" d="M35,0.6H0v35h35V0.6z"/>
				</mask>
				<g class="st3">
					<path class="st4" d="M17.7,29.5c6.4,0,11.5-5.2,11.5-11.5S24.1,6.4,17.7,6.4S6.1,11.5,6.1,17.9S11.3,29.5,17.7,29.5z"/>
					<path class="st5" d="M34.3,18.1c0,4-1.4,7.9-4.1,11c-2.6,3-6.3,5.1-10.2,5.6c-4,0.6-8-0.3-11.5-2.4c-3.4-2.1-5.9-5.5-7.1-9.3
						c-1.2-3.9-0.9-8,0.7-11.7c1.6-3.7,4.5-6.7,8.1-8.4c3.6-1.7,7.8-2.1,11.7-1c3.9,1.1,7.3,3.5,9.5,6.8L16.9,24.9l-8.4-6.8"/>
				</g>
			</g>
		</g>
	</g>
</g>
</svg>
