<svg width="78" height="79" viewBox="0 0 78 79" fill="none" xmlns="http://www.w3.org/2000/svg">
<path d="M18.476 28.7648C18.125 27.0878 17.3645 26.5612 16.9355 27.6727C16.409 29.0767 16.8185 30.6757 17.7155 30.6757C18.554 30.6757 18.7685 30.1298 18.476 28.7648Z" fill="black"/>
<path d="M57.9244 60.9597C56.5789 60.3941 51.1773 58.5416 49.1103 57.9371C46.6533 57.2156 46.7314 57.2742 46.6534 55.9871C46.3024 48.5966 45.932 47.0952 45.1715 47.8752C44.9765 48.0702 44.9958 51.8141 45.2103 54.5831C45.4833 58.0151 45.6393 58.1712 49.7928 59.3997C52.4448 60.1796 53.4784 60.6086 54.5119 60.9986C47.6869 60.9986 34.0954 61.0182 34.0954 60.9402C34.0954 60.9012 35.6554 60.1406 37.5469 59.2241C41.7589 57.1961 41.3494 57.8591 41.2129 53.2961C40.9984 46.7441 41.0179 46.7831 38.1904 45.6911C36.2014 44.9306 33.9394 43.6241 32.7304 42.5516C31.7749 41.7131 31.6579 41.6547 31.4239 42.0252C30.7024 43.1562 27.3874 43.4486 25.5934 42.5516C18.0469 38.7101 20.2114 25.1576 28.0309 27.3416C29.1424 27.6536 29.4349 27.6731 29.7274 27.4586C31.1704 26.4641 41.798 25.8597 47.999 25.8402C48.545 25.8402 53.6149 26.4251 50.0659 25.0991C46.4974 23.7536 35.3434 23.6756 30.2929 25.7036C29.8444 25.8791 29.8639 24.1046 30.3124 23.6561C31.1704 22.8371 38.0539 21.7256 44.9569 22.0766C48.4864 22.2521 51.7039 23.0126 53.4199 23.5391C53.9659 23.7146 54.3559 24.2216 54.3559 24.8066V25.3331C54.3559 26.8541 54.9409 28.1411 55.6234 28.1411C55.9354 28.1411 56.15 27.5366 55.994 27.1271C55.7015 26.3861 58.88 24.4361 60.3815 24.4361C65.783 24.4361 65.4319 33.1916 62.3119 38.2031C59.4454 42.8051 57.4955 43.5461 52.289 41.9861C49.442 41.1281 46.4389 40.9136 38.0929 41.9666C35.7139 42.2786 36.4354 43.1951 39.4969 43.1366C46.8874 42.9806 50.9239 43.1171 50.5534 43.5071C50.1244 43.9751 48.1743 45.0281 46.8678 45.4766C44.8008 46.1981 45.8928 47.8167 47.6478 46.9977C48.9543 46.3737 51.1579 45.0086 52.1134 44.1311C52.9324 43.3901 53.0104 43.3512 53.4199 43.6047C58.0414 46.5492 63.0138 43.3316 65.3928 35.8241C67.9473 27.7511 62.7799 20.6336 56.7934 24.0071L55.7403 24.5921L55.5259 23.9486C55.1749 22.8761 54.3364 22.0961 53.1469 21.6671C47.4139 19.6781 34.7194 19.5806 29.2399 22.4471C28.4989 22.8371 28.0309 23.6171 28.0309 24.4556C28.0309 24.4946 28.0309 26.2106 28.0309 26.1521L27.4849 26.0156C19.7434 24.0656 15.3559 35.0246 21.2839 41.5181C23.6629 44.1311 27.2314 45.0476 30.6829 43.9361L31.8724 43.5461L32.5159 44.1896C33.4714 45.1646 35.9479 46.5296 37.8394 47.1341L39.5359 47.6606C39.7504 49.4156 39.7699 49.1621 39.6529 56.8256C38.3464 57.4106 31.1704 60.5697 29.7079 61.0377C28.1479 61.5252 28.6159 62.6366 29.7859 62.6756C31.3654 62.7341 36.4549 62.7731 42.3634 62.7731C50.7679 62.7731 58.3339 63.0071 58.3144 63.0071C59.1334 63.1046 59.4844 61.6227 57.9244 60.9597Z" fill="black"/>
<path d="M31.4825 48.889C31.2485 47.953 29.9615 48.2065 30.1175 49.162C30.2735 50.137 29.435 51.5605 28.3625 50.9365C27.2705 50.332 27.29 48.421 29.474 48.4015C29.708 48.4015 30.0395 48.304 30.1955 48.2065C30.956 47.6995 29.006 47.1925 27.953 47.6215C26.4905 48.226 26.1979 50.7805 27.5044 51.463C29.4154 52.438 31.9505 50.8 31.4825 48.889Z" fill="black"/>
<path d="M28.9475 29.6425C26.1005 27.5755 22.064 29.0575 22.22 33.718C22.3955 38.4565 25.5544 41.4205 29.8834 40.894C31.4434 40.699 31.4825 40.66 30.995 39.1195C28.7135 31.6315 30.0395 30.442 28.9475 29.6425ZM28.265 39.7435C25.73 38.905 24.5015 37.033 24.365 33.8545C24.2285 30.3055 24.9694 29.2135 26.8414 30.169L27.7775 30.637L27.8164 32.1775C27.8554 33.8935 28.4209 37.033 29.0254 38.7685C29.4934 40.1335 29.4935 40.153 28.265 39.7435Z" fill="black"/>
<path d="M17.4035 23.383C18.3395 24.085 18.866 23.4025 18.866 21.511C18.866 18.859 18.1444 17.4745 17.2864 18.508C16.8379 19.054 16.9355 23.032 17.4035 23.383Z" fill="black"/>
<path d="M57.7294 20.614C59.1529 20.38 60.0305 18.391 59.075 17.533C58.49 17.0065 58.2364 17.1235 58.3729 17.8645C58.5289 18.6835 57.7294 19.912 56.7934 19.444C55.8379 18.976 55.76 17.0455 58.0025 17.026C58.4705 17.026 58.6459 16.753 58.3144 16.558C57.2614 15.9145 55.4869 16.3435 54.9019 17.65C54.2389 19.093 55.5064 20.9845 57.7294 20.614Z" fill="black"/>
<path d="M18.3005 25.3133C18.3005 25.8983 20.426 25.8398 22.8245 25.1963C25.028 24.6113 22.922 23.9093 20.543 24.4358C18.905 24.8063 18.3005 25.0403 18.3005 25.3133Z" fill="black"/>
<path d="M12.548 24.8064C11.7875 24.9624 11.651 25.5473 12.353 25.7228C13.1915 25.9373 16.682 25.7033 17.033 25.4108C17.813 24.7478 14.693 24.3384 12.548 24.8064Z" fill="black"/>
<path d="M59.6599 50.4295C60.5179 50.6635 60.7909 50.2735 60.7909 48.85C60.7909 46.9975 60.6739 46.666 60.0109 46.666C59.6209 46.666 59.4453 46.783 59.3478 47.095C59.0553 48.2845 59.2309 50.3125 59.6599 50.4295Z" fill="black"/>
<path d="M55.37 40.6403C59.8745 42.9413 65.3735 32.9963 62.195 28.2773C61.337 27.0098 59.6794 26.4053 58.3729 26.8733C57.2029 27.3023 55.0189 29.5838 55.2529 30.1688C55.5064 30.8513 54.9409 35.1998 54.3754 36.9158C53.5369 39.4118 53.6345 39.7433 55.37 40.6403ZM55.4479 38.4368C55.9549 36.9743 56.501 33.5618 56.501 31.8263C56.501 28.9403 59.4066 26.5418 60.9666 28.1213C62.4486 29.6033 60.9469 35.8238 58.4704 38.5343C57.0079 40.1333 54.8824 40.0748 55.4479 38.4368Z" fill="black"/>
<path d="M59.0555 54.9535C58.3925 56.6695 59.0752 58.522 60.2842 58.2685C61.2007 58.093 61.3761 56.7475 60.6936 55.09C60.3621 54.2515 59.348 54.1735 59.0555 54.9535Z" fill="black"/>
<path d="M65.2565 52.4378C64.418 52.2623 61.4345 52.2038 61.025 52.3598C59.543 52.9058 62.9359 53.7638 64.9054 53.3348C65.7049 53.1593 65.939 52.5743 65.2565 52.4378Z" fill="black"/>
<path d="M55.3894 52.2429C55.0384 52.3794 55.0774 52.8279 55.4479 52.9644C56.3839 53.3349 59.231 53.0424 59.231 52.5939C59.2505 52.1649 56.2864 51.8919 55.3894 52.2429Z" fill="black"/>
<path d="M48.35 28.7651C48.038 28.1996 43.3969 27.8486 39.7504 28.1411C36.7084 28.3751 33.8224 28.9601 32.4184 29.5256C31.0924 30.0716 31.4044 30.9101 32.7304 30.6761C34.5829 30.3446 41.6808 29.6816 43.7478 29.6816C47.7063 29.6621 48.7205 29.4671 48.35 28.7651Z" fill="black"/>
</svg>
