<svg width="72" height="70" viewBox="0 0 72 70" fill="none" xmlns="http://www.w3.org/2000/svg">
<g clip-path="url(#clip0_711_7510)">
<path fill-rule="evenodd" clip-rule="evenodd" d="M32.4012 10.3278C25.4094 11.3158 18.7975 15.8757 18.1642 25.1475C17.7082 32.0633 17.7589 32.114 24.3961 30.7713C29.9946 29.6313 29.6905 29.9354 29.6905 25.6795C29.6905 22.0569 30.7039 20.0049 33.4652 18.5863C39.5957 15.4704 44.0037 23.6782 44.0037 26.2621C44.0037 29.0994 41.9769 30.594 35.5931 32.4433C30.3746 33.9632 28.7027 36.1166 28.4999 41.5125C28.4492 43.1085 28.2721 44.3751 28.0947 44.5777C27.3094 45.5403 30.0453 46.4271 32.9585 46.1737C41.6984 45.3884 41.5717 45.4645 41.0903 42.1711C40.7864 40.1192 40.989 39.8151 43.0663 39.1818C48.0822 37.6618 50.9448 34.774 52.4648 29.7074C56.442 16.6357 47.7023 8.19987 32.4012 10.3278ZM40.5838 11.8478C46.2836 12.6838 51.6036 20.0556 50.6155 25.8061C49.7035 31.1261 46.8155 34.394 41.0651 36.5472C38.2783 37.5859 37.3917 38.9031 37.3665 41.9937V43.7165C34.2759 44.0203 34.0731 44.0204 32.0465 44.3244C32.4012 36.8513 31.8945 36.0912 41.1411 32.8486C46.9424 30.822 48.2089 25.9835 44.4343 20.3596C38.3798 11.3411 22.8001 17.3197 25.764 27.5288C25.8907 28.01 25.9667 28.4408 25.916 28.4915C25.8401 28.5673 22.5467 29.302 22.2934 29.302C22.2681 29.302 22.0908 26.1861 21.9388 25.1221C20.5961 15.977 30.2987 10.3785 40.5838 11.8478ZM30.9573 49.0617C26.3974 51.139 26.22 56.7121 30.6532 58.3081C39.4944 61.5 47.4997 56.2562 42.509 50.5563C41.0398 48.8337 33.5412 47.871 30.9573 49.0617ZM37.4426 50.5817C39.469 50.8856 41.2424 52.5068 41.2424 54.0268C41.2424 56.8388 34.352 58.2322 31.8693 55.927C30.6532 54.7869 30.2481 49.4923 37.4426 50.5817Z" fill="black"/>
</g>
<defs>
<clipPath id="clip0_711_7510">
<rect width="35.4227" height="49.2769" fill="white" transform="translate(18 10)"/>
</clipPath>
</defs>
</svg>
