<svg width="82" height="59" viewBox="0 0 82 59" fill="none" xmlns="http://www.w3.org/2000/svg">
<g clip-path="url(#clip0_461_7925)">
<path d="M15.5808 17.0317C10.5116 18.1009 8.59972 25.8494 12.5871 29.1072C17.9834 33.5097 22.5619 29.5349 23.4173 27.8745C23.5305 27.6607 23.7947 27.3588 23.996 27.2204C25.3922 26.2267 25.3167 23.7864 24.4111 21.6103C22.7256 17.5223 18.1846 16.4908 15.5808 17.0317ZM12.2978 21.2456C14.0965 18.516 16.2852 17.4971 19.1658 18.0506C21.7318 18.5537 23.8828 20.9185 23.8828 23.2456C23.8828 23.6229 23.8702 23.6229 23.3293 23.5852C22.6501 23.5349 21.6815 23.9248 21.5557 24.3022C21.4551 24.6292 21.3545 24.6292 20.7507 24.3273C19.6941 23.7864 18.9267 22.4531 18.6626 20.7047C18.4236 19.1323 17.845 18.5537 17.1029 19.1449C15.7696 20.2141 11.6437 23.1701 11.5809 23.1072C11.4802 23.0317 11.9833 21.711 12.2978 21.2456ZM12.7255 23.4468C14.0462 22.6292 16.2349 21.0191 16.65 20.5537C16.9519 20.2267 17.0903 20.2267 17.0903 20.5789C17.1029 22.6544 19.0148 24.6795 21.2916 25.0066L21.5431 25.0443C22.0211 25.1198 22.5117 25.0066 22.9016 24.7298L23.1028 24.5915C23.2035 24.5286 23.3293 24.5034 23.4425 24.5412C23.5557 24.5789 23.6563 24.6544 23.6941 24.7676C23.933 25.3462 23.7444 26.1135 23.2538 26.5789C20.3607 29.3336 19.0273 29.9751 16.5745 29.7865C13.7821 29.56 11.4173 27.0695 11.4173 24.3399C11.4299 24.2896 12.0085 23.8871 12.7255 23.4468Z" fill="black"/>
<path d="M24.7759 37.9751C23.757 34.8179 22.1217 33.1071 19.606 32.5285C18.9645 32.3775 17.6941 31.8996 14.1721 32.2644C10.889 32.6166 8.36074 36.1637 7.78213 37.5851C6.51168 40.6417 10.0588 41.6858 19.5809 41.5474C20.4111 41.3713 26.1972 42.3776 24.7759 37.9751ZM15.9959 32.8933C16.5243 32.8053 17.8325 32.6795 19.1281 33.3336C19.191 33.3587 19.2287 33.4216 19.2413 33.4845C19.2539 33.5474 19.2287 33.6103 19.191 33.6606C18.2979 34.5914 17.191 34.7298 16.7256 34.7549C16.5872 34.7549 16.4488 34.692 16.3733 34.5914C16.1846 34.3525 15.8828 33.8618 15.7821 33.2203C15.757 33.0568 15.8576 32.9184 15.9959 32.8933ZM16.2979 35.7487C16.1343 36.2014 14.2601 38.3272 14.0085 38.2015C13.757 38.0757 14.2853 35.7613 14.6501 35.3461C15.0148 34.9185 16.4614 35.2958 16.2979 35.7487ZM12.4362 33.648C12.8765 33.1449 13.9079 32.9688 14.4991 32.931C14.5494 32.931 14.5871 32.9436 14.6123 32.9814C14.6375 33.0191 14.6501 33.0569 14.6375 33.1071C14.2476 34.2895 12.5243 34.6543 12.3985 34.6292C12.2601 34.604 12.0966 34.1889 12.4362 33.648ZM11.0149 35.799C10.713 36.604 10.5494 37.7109 10.5494 38.8807C10.5494 40.038 10.5369 40.0506 9.68151 39.799C8.71295 39.5222 8.47392 38.9688 8.95192 38.1386L9.22867 37.6355L9.41735 38.3021C9.83244 39.7487 10.235 38.9185 9.9205 37.2832C9.79471 36.6291 9.85763 36.4656 10.5746 35.6858C11.1784 35.0442 11.2916 35.0694 11.0149 35.799ZM11.6312 37.9625C11.4551 37.8871 11.7947 36.1512 12.084 35.6481C12.3734 35.1449 13.4551 34.8933 13.5557 35.2329C13.6689 35.5851 11.8073 38.0505 11.6312 37.9625ZM23.6438 39.6481C23.6187 39.8744 22.9268 40.2769 22.1217 40.516C21.3796 40.7423 14.4362 40.7046 13.6437 40.4656L13.279 40.365L14.4739 39.0443C16.7507 36.5285 18.7381 34.9185 19.9834 34.604C20.952 34.3525 20.9017 34.4279 22.2727 35.9625C21.2916 36.3775 21.3922 36.4153 20.7129 36.0757C19.6689 35.5474 19.3167 35.799 19.8073 36.7172C20.0463 37.17 20.0841 37.1449 18.4237 37.8493C16.6878 38.5914 15.7193 39.1574 15.7193 39.4467C15.7193 39.8367 16.0211 39.7738 17.3545 39.1197C20.3985 37.6103 21.0275 37.7864 20.6249 37.0317C20.4489 36.7172 20.6249 36.7172 21.1658 37.0443C21.8828 37.4845 22.0966 37.2707 22.8639 36.7927C23.2161 37.648 23.7319 38.7424 23.6438 39.6481Z" fill="black"/>
</g>
<g clip-path="url(#clip1_461_7925)">
<path d="M37.4614 7.31295C28.3293 9.23909 24.885 23.198 32.0683 29.067C41.7897 36.9981 50.0379 29.8374 51.5788 26.8462C51.7828 26.461 52.2587 25.9172 52.6213 25.6678C55.1366 23.8778 55.0006 19.4816 53.3692 15.5613C50.3327 8.19671 42.1521 6.33855 37.4614 7.31295ZM31.547 14.9042C34.7874 9.98687 38.7304 8.15138 43.9197 9.14844C48.5425 10.0549 52.4174 14.315 52.4174 18.5072C52.4174 19.187 52.3947 19.187 51.4203 19.119C50.1967 19.0284 48.4517 19.7308 48.2252 20.4107C48.0439 20.9998 47.8626 20.9998 46.7749 20.456C44.8715 19.4816 43.489 17.0796 43.0133 13.9298C42.5827 11.0972 41.5403 10.0548 40.2034 11.1199C37.8014 13.046 30.3688 18.3712 30.2555 18.2579C30.0742 18.122 30.9805 15.7426 31.547 14.9042ZM32.3175 18.8698C34.6969 17.3968 38.6397 14.4963 39.3876 13.6579C39.9314 13.0687 40.1807 13.0687 40.1807 13.7032C40.2034 17.4421 43.6477 21.0905 47.7493 21.6797L48.2024 21.7476C49.0636 21.8836 49.9473 21.6796 50.6498 21.1811L51.0123 20.9319C51.1936 20.8186 51.4203 20.7732 51.6242 20.8412C51.8281 20.9092 52.0094 21.0452 52.0775 21.2491C52.5079 22.2915 52.168 23.6737 51.2843 24.5121C46.0724 29.4748 43.6703 30.6305 39.2516 30.2906C34.221 29.8827 29.9608 25.396 29.9608 20.4786C29.9835 20.388 31.0258 19.6629 32.3175 18.8698Z" fill="black"/>
<path d="M54.0261 45.0424C52.1906 39.3547 49.2447 36.2727 44.7126 35.2304C43.5569 34.9584 41.2683 34.0973 34.9234 34.7545C29.0089 35.389 24.4542 41.7792 23.4119 44.3398C21.1232 49.8463 27.5134 51.7273 44.6673 51.4779C46.1629 51.1607 56.5867 52.9735 54.0261 45.0424ZM38.209 35.8876C39.1608 35.7289 41.5176 35.5024 43.8517 36.6807C43.9649 36.726 44.0328 36.8394 44.0556 36.9525C44.0782 37.0659 44.0329 37.1793 43.9649 37.2698C42.3561 38.9467 40.3619 39.196 39.5235 39.2413C39.2742 39.2413 39.0248 39.1279 38.8888 38.9467C38.5489 38.5162 38.0053 37.6323 37.8238 36.4767C37.7786 36.1822 37.9598 35.9328 38.209 35.8876ZM38.753 41.0315C38.4584 41.8472 35.082 45.6768 34.6287 45.4502C34.1756 45.2237 35.1273 41.0542 35.7844 40.3063C36.4416 39.5359 39.0476 40.2157 38.753 41.0315ZM31.7962 37.2472C32.5893 36.3408 34.4475 36.0236 35.5124 35.9555C35.6032 35.9555 35.6711 35.9781 35.7164 36.0462C35.7618 36.1141 35.7844 36.1822 35.7618 36.2727C35.0594 38.4029 31.9549 39.06 31.7283 39.0148C31.479 38.9693 31.1844 38.2216 31.7962 37.2472ZM29.2356 41.1221C28.6918 42.5724 28.3971 44.5665 28.3971 46.6739C28.3971 48.7587 28.3745 48.7814 26.8336 48.3281C25.0887 47.8296 24.6581 46.8325 25.5192 45.3369L26.0178 44.4305L26.3577 45.6315C27.1055 48.2375 27.8307 46.7419 27.2641 43.796C27.0375 42.6177 27.1509 42.3231 28.4425 40.9182C29.5302 39.7625 29.7342 39.8078 29.2356 41.1221ZM30.346 45.0198C30.0287 44.8838 30.6406 41.7566 31.1618 40.8503C31.683 39.9437 33.6317 39.4905 33.8129 40.1024C34.0168 40.7369 30.6632 45.1783 30.346 45.0198ZM51.9867 48.0563C51.9414 48.4641 50.695 49.1892 49.2447 49.6198C47.9077 50.0276 35.3993 49.9597 33.9716 49.5291L33.3146 49.3478L35.4672 46.9685C39.5688 42.4364 43.1491 39.5359 45.3924 38.9693C47.1373 38.5162 47.0468 38.6522 49.5167 41.4167C47.7492 42.1644 47.9303 42.2325 46.7067 41.6206C44.8259 40.669 44.1914 41.1221 45.0753 42.7763C45.5058 43.5921 45.5738 43.5468 42.5826 44.8157C39.4554 46.1527 37.7106 47.1724 37.7106 47.6936C37.7106 48.3962 38.2545 48.2828 40.6564 47.1045C46.1403 44.3853 47.2733 44.7025 46.5481 43.3429C46.231 42.7763 46.5481 42.7763 47.5225 43.3656C48.8142 44.1586 49.1994 43.7734 50.5816 42.9123C51.2162 44.4532 52.1453 46.4247 51.9867 48.0563Z" fill="black"/>
</g>
<path d="M62.2517 11.3718C53.8491 12.9308 50.6799 24.2288 57.2894 28.9791C66.2342 35.3983 73.8235 29.6026 75.2413 27.1816C75.4291 26.8698 75.867 26.4297 76.2005 26.2278C78.5149 24.779 78.3898 21.2208 76.8887 18.0479C74.0948 12.0871 66.5677 10.5832 62.2517 11.3718ZM56.8098 17.516C59.7914 13.5361 63.4194 12.0504 68.1941 12.8574C72.4476 13.5911 76.0129 17.0392 76.0129 20.4322C76.0129 20.9824 75.9921 20.9824 75.0955 20.9274C73.9696 20.854 72.3641 21.4226 72.1556 21.9728C71.9888 22.4497 71.8221 22.4497 70.8212 22.0095C69.0698 21.2208 67.7978 19.2767 67.3601 16.7273C66.9639 14.4347 66.0048 13.5911 64.7747 14.4531C62.5646 16.0121 55.7257 20.3221 55.6214 20.2304C55.4546 20.1204 56.2886 18.1946 56.8098 17.516ZM57.5187 20.7256C59.708 19.5335 63.3359 17.1859 64.024 16.5073C64.5244 16.0304 64.7538 16.0304 64.7538 16.5439C64.7747 19.5702 67.9438 22.523 71.7178 22.9999L72.1347 23.0549C72.9271 23.165 73.7402 22.9999 74.3865 22.5964L74.7201 22.3947C74.8869 22.3029 75.0955 22.2663 75.2831 22.3213C75.4707 22.3763 75.6375 22.4864 75.7002 22.6514C76.0962 23.4951 75.7835 24.6138 74.9704 25.2924C70.1748 29.3091 67.9646 30.2445 63.8989 29.9694C59.2702 29.6392 55.3503 26.0078 55.3503 22.0278C55.3712 21.9545 56.3303 21.3676 57.5187 20.7256Z" fill="black"/>
<path d="M77.4932 41.9095C75.8043 37.3059 73.0937 34.8115 68.9237 33.9679C67.8603 33.7477 65.7545 33.0508 59.9165 33.5827C54.4745 34.0962 50.2837 39.2683 49.3246 41.3408C47.2187 45.7976 53.0984 47.32 68.882 47.1182C70.2581 46.8614 79.8492 48.3287 77.4932 41.9095ZM62.9396 34.4997C63.8154 34.3714 65.984 34.188 68.1315 35.1417C68.2357 35.1784 68.2982 35.2701 68.3192 35.3617C68.34 35.4535 68.2983 35.5452 68.2357 35.6185C66.7554 36.9757 64.9206 37.1775 64.1491 37.2142C63.9197 37.2142 63.6903 37.1224 63.5651 36.9757C63.2524 36.6273 62.7522 35.9119 62.5852 34.9765C62.5436 34.7382 62.7104 34.5364 62.9396 34.4997ZM63.4402 38.6631C63.1691 39.3233 60.0624 42.4229 59.6454 42.2396C59.2285 42.0562 60.1041 38.6815 60.7087 38.0762C61.3134 37.4526 63.7112 38.0029 63.4402 38.6631ZM57.0391 35.6002C57.7689 34.8666 59.4786 34.6098 60.4585 34.5547C60.542 34.5547 60.6044 34.573 60.6461 34.6281C60.6879 34.6831 60.7087 34.7382 60.6879 34.8115C60.0416 36.5356 57.1851 37.0675 56.9766 37.0308C56.7473 36.994 56.4762 36.3889 57.0391 35.6002ZM54.6831 38.7364C54.1827 39.9103 53.9116 41.5243 53.9116 43.2299C53.9116 44.9173 53.8908 44.9357 52.473 44.5688C50.8675 44.1653 50.4713 43.3583 51.2636 42.1478L51.7223 41.4142L52.0351 42.3863C52.7231 44.4955 53.3904 43.285 52.8691 40.9007C52.6606 39.9469 52.7649 39.7085 53.9533 38.5714C54.9542 37.636 55.1418 37.6727 54.6831 38.7364ZM55.7047 41.8912C55.4128 41.7811 55.9758 39.25 56.4554 38.5164C56.9349 37.7827 58.728 37.4159 58.8947 37.9111C59.0824 38.4247 55.9966 42.0194 55.7047 41.8912ZM75.6167 44.3488C75.575 44.6789 74.4282 45.2657 73.0937 45.6143C71.8635 45.9444 60.3543 45.8894 59.0407 45.5409L58.4362 45.3941L60.4168 43.4684C64.1908 39.8002 67.4851 37.4526 69.5492 36.994C71.1547 36.6273 71.0714 36.7374 73.344 38.9749C71.7177 39.5801 71.8844 39.6352 70.7585 39.1399C69.028 38.3697 68.4441 38.7364 69.2574 40.0753C69.6535 40.7356 69.7161 40.699 66.9639 41.726C64.0865 42.8081 62.4811 43.6334 62.4811 44.0552C62.4811 44.6239 62.9815 44.5322 65.1915 43.5785C70.2373 41.3776 71.2799 41.6344 70.6126 40.5339C70.3208 40.0753 70.6126 40.0753 71.5091 40.5523C72.6976 41.1941 73.052 40.8823 74.3239 40.1854C74.9077 41.4326 75.7626 43.0282 75.6167 44.3488Z" fill="black"/>
<defs>
<clipPath id="clip0_461_7925">
<rect width="24.5984" height="24.5984" fill="white" transform="translate(4 16.8579)"/>
</clipPath>
<clipPath id="clip1_461_7925">
<rect width="44.3141" height="44.3141" fill="white" transform="translate(16.5984 7)"/>
</clipPath>
</defs>
</svg>
