<svg width="85" height="85" viewBox="0 0 85 85" fill="none" xmlns="http://www.w3.org/2000/svg">
<path d="M24.9322 32.602C25.7302 32.518 25.7722 32.539 25.8982 33.253C27.2632 40.582 38.4562 39.301 39.6532 31.678C39.9052 30.103 40.3462 29.473 41.2492 29.473C41.6062 29.473 41.7532 29.599 41.7532 29.872C41.7532 34.975 50.0271 38.461 53.3451 34.744C54.5211 33.442 55.8653 31.006 55.9913 29.977L56.0963 29.032L57.3142 28.906C59.4352 28.654 59.4143 28.549 56.5163 24.097C51.4763 16.369 47.5702 13.198 45.4072 15.046C44.7562 15.613 44.8192 15.592 44.6722 20.254C44.6722 20.569 44.8823 20.842 45.1763 20.926C46.4573 21.241 47.9272 20.17 46.8352 19.687C46.3732 19.477 46.3522 19.414 46.4782 18.007C46.6672 15.949 46.8142 15.886 48.2002 17.377C51.3922 20.821 53.4713 22.732 54.3533 24.412C54.5843 24.832 54.5633 24.895 54.3533 24.664C54.1013 24.433 52.6942 24.286 52.6942 24.496C52.6942 24.538 52.9881 25.063 53.3451 25.63C56.7681 31.153 50.5732 38.272 46.1842 33.862C42.8872 30.565 45.7853 24.139 50.5733 24.139C51.8963 24.139 52.1273 23.908 51.2663 23.467C48.8723 22.228 44.6932 24.181 42.8452 27.415L42.2363 28.486L40.7663 28.528C39.9263 28.549 39.2963 28.486 39.2963 28.36C39.2963 27.94 38.2463 27.121 37.7213 27.121C37.0493 27.121 37.0492 27.331 37.7002 28.276C40.5142 32.413 35.0542 38.545 30.6442 36.193C25.1002 33.232 29.2583 24.265 35.3063 26.176C37.0493 26.722 37.3222 26.722 37.1122 26.176C35.6632 22.417 28.2083 25.063 26.4863 29.935C26.0243 31.258 25.9822 31.3 25.2682 31.3C24.6592 31.3 24.5542 31.237 24.6802 30.922C24.7642 30.712 25.2682 28.717 25.8352 26.449C27.5992 19.309 29.7622 14.752 30.3292 17.062C30.6862 18.532 30.7282 21.43 30.3922 21.43C29.5102 21.43 29.5102 22.816 30.4132 23.026C32.3452 23.509 33.0172 18.049 31.2322 16.432C29.2372 14.626 26.8433 16.39 25.5413 20.695C25.2263 21.745 24.6382 23.572 24.2392 24.769C22.1812 30.922 22.3702 32.833 24.9322 32.602Z" fill="black"/>
<path d="M66.7223 51.46C64.8113 46.861 64.0552 48.268 65.1052 50.788C65.6932 52.216 65.7773 52.573 65.5043 52.468C60.9893 50.662 51.8543 53.539 46.3103 58.558L43.6643 60.952C43.5383 58.831 43.4753 57.613 43.3703 56.941C43.2863 56.353 42.3414 56.185 42.2364 56.836C42.1104 57.613 42.1314 58.999 42.1314 61.204L41.4803 60.469C38.2463 56.794 28.7964 55.765 19.8714 58.138C18.3804 58.537 18.3803 58.936 19.8293 53.707C21.7823 46.588 22.3493 43.123 22.7273 41.737C22.8953 41.107 29.7623 40.981 32.3453 41.548C34.7603 42.073 40.1153 44.488 40.8923 45.37C41.1443 45.664 41.3543 46.882 41.6903 49.969C42.1943 54.589 42.2574 54.274 42.6564 54.442C43.3704 54.715 43.0133 50.662 42.7403 45.559L45.4914 43.585C52.0014 38.923 57.6713 39.364 58.6793 39.175L60.0234 41.212C63.0054 45.706 63.4462 47.386 63.8452 46.378C63.9922 46 60.2332 38.377 59.6452 37.852C58.5322 36.865 49.2503 36.529 42.9083 42.766C41.2493 44.404 41.4384 44.341 40.5564 43.669C34.8654 39.322 22.1183 37.726 21.4043 41.275C20.9633 43.438 17.9393 52.111 16.8473 57.823C16.5743 59.293 16.5533 59.671 16.7843 60.133C17.0573 60.679 17.2044 60.721 18.0864 60.553C18.4644 60.49 18.5273 60.637 18.6743 62.149C18.8423 63.745 19.2623 64.711 19.6823 64.459C19.9763 64.291 19.8924 64.669 19.5564 65.11C18.7584 66.16 19.6403 68.281 20.8373 68.197C21.3623 68.155 21.5093 68.26 21.6983 68.785C22.0133 69.646 22.4123 69.73 23.2943 69.121C24.2183 68.491 25.8773 67.462 28.6493 66.811C31.4213 66.16 40.1363 66.811 40.9973 67.21C41.5223 67.462 41.7953 67.504 41.9003 67.336C41.9843 67.21 42.6983 67.042 43.5173 66.979C46.2683 66.748 50.6574 66.244 52.6314 65.908C55.5714 65.404 61.0944 65.572 62.9214 66.223C64.9584 66.937 65.5884 66.202 64.2234 64.711C63.7404 64.186 63.7193 64.123 64.0973 64.228C67.0583 65.005 67.6044 63.976 65.8614 60.868C65.0844 59.482 65.0843 59.545 66.1973 59.545C67.5203 59.545 67.4574 59.041 65.9034 56.689C64.4964 54.568 64.4964 54.547 66.1764 55.114C68.1924 55.786 68.2763 55.198 66.7223 51.46ZM27.6623 63.745C25.1213 63.976 22.7693 65.215 22.5383 65.299C22.1813 65.404 21.9503 65.173 22.0973 64.627C22.1813 64.291 22.2863 63.892 22.3073 63.724C22.4753 62.632 29.5733 61.561 32.9333 62.128C36.2303 62.674 36.7133 62.905 39.5483 63.913C34.7183 63.577 30.3713 63.493 27.6623 63.745ZM41.6273 62.59C31.0433 59.587 26.8854 59.482 21.2364 62.023C20.4804 62.38 19.8293 62.632 19.8083 62.59C19.7663 62.527 19.6403 61.351 19.4933 60.154C24.5963 58.915 28.6703 57.781 33.6683 58.432C35.1593 58.621 37.1753 59.377 38.7083 60.301C41.3333 61.897 42.5513 62.863 41.6273 62.59ZM47.7803 59.881C53.5973 54.862 57.6922 53.329 62.3752 54.442C62.8582 54.547 64.7693 56.941 64.5593 57.151C64.5173 57.193 64.0763 57.13 63.5723 57.004C59.6453 56.143 57.4194 56.479 52.1484 58.768C50.7624 59.377 49.3132 59.986 48.9352 60.133C47.3812 60.742 43.6013 63.493 47.7803 59.881ZM63.2993 61.288C60.7583 60.805 57.8393 60.889 55.2143 61.498C53.2403 61.96 47.2343 63.199 47.0453 63.031C46.9403 62.947 49.9224 61.435 51.4134 60.637C54.4374 59.02 58.0702 58.474 62.3752 58.978C63.2992 59.083 63.4253 59.188 64.2023 60.28C65.2313 61.729 65.2733 61.666 63.2993 61.288Z" fill="black"/>
</svg>
