<svg width="65" height="68" viewBox="0 0 65 68" fill="none" xmlns="http://www.w3.org/2000/svg">
<path fill-rule="evenodd" clip-rule="evenodd" d="M31.5133 1.95011C31.224 4.36064 31.2433 10.628 31.6676 11.4379C32.6511 13.4049 33.596 11.8622 33.8081 7.96678C33.9817 4.57275 34.1359 2.9336 34.1552 2.06581C34.2324 0.137384 31.7061 0.291659 31.5133 1.95011ZM44.4145 2.49007C43.0646 3.03002 35.5244 16.7411 35.5244 18.6695C35.5244 19.2095 36.3536 19.383 36.99 18.9588C37.6264 18.5345 39.1498 16.1819 41.0204 12.6914C43.1031 8.83457 45.3208 4.82346 45.8608 3.97495C46.7093 2.62506 45.9765 1.87297 44.4145 2.49007ZM19.0364 5.44056C18.6892 5.69125 18.7471 5.80696 19.7884 7.79324C23.761 15.2755 23.9731 16.1626 25.9401 15.9119C27.425 15.719 27.425 15.6226 25.4194 11.9201C23.1246 7.63895 21.8711 5.61412 21.4276 5.38271C20.9262 5.09344 19.4606 5.13201 19.0364 5.44056ZM51.0482 6.69404C49.9298 7.15686 44.0095 14.1763 44.0095 15.0441C44.0095 16.664 46.9407 14.3692 52.1667 8.6803C53.7288 6.964 53.1117 5.84553 51.0482 6.69404ZM11.4769 10.5123C9.72201 10.8594 12.3254 14.0413 14.3696 14.0413C16.0087 14.0413 16.0666 13.27 14.5431 11.8236C13.6368 10.9366 12.7304 10.2616 11.4769 10.5123ZM57.9713 13.2893C56.8914 13.8678 55.5222 15.1019 53.1117 16.7025C50.2576 18.5924 47.23 20.7329 46.3236 21.5236C44.7616 22.8735 46.0536 23.2206 48.0013 21.9479C48.657 21.5236 50.6433 20.2894 52.4174 19.2288C56.6407 16.6833 60.9604 13.8485 60.9604 13.6556C60.9796 12.9036 59.1283 12.6722 57.9713 13.2893ZM31.7061 14.4656C31.359 14.8127 31.4169 16.6447 31.7833 17.0111C33.0946 18.3224 34.7916 15.9504 33.5767 14.5042C33.3067 14.1764 32.0147 14.157 31.7061 14.4656ZM15.9316 16.2397C15.4688 16.5675 15.6616 16.8375 18.7278 20.1158C22.334 23.9727 22.6618 24.1655 24.2238 23.452C24.9373 23.1242 24.8602 22.9699 23.3175 21.2151C19.3642 16.7604 17.2043 15.3141 15.9316 16.2397ZM4.97804 20.463C4.26452 21.0029 4.70814 21.2729 9.10495 23.0085C13.5211 24.7441 15.9316 25.9783 19.3063 28.1574C21.2155 29.3916 24.3974 29.4494 23.3946 28.2152C21.1191 25.5154 6.46293 19.3252 4.97804 20.463ZM58.6655 24.0884C48.0013 27.9067 47.1721 28.3117 47.9049 29.0445C48.252 29.3916 48.7727 29.3337 50.9711 28.6781C65.3572 24.397 65.6272 24.5512 63.8723 23.2785C62.9659 22.6228 62.561 22.6807 58.6655 24.0884ZM41.1168 24.8791C39.6512 26.1518 39.5162 26.5568 40.4226 26.8075C42.2546 27.2896 44.8194 24.7634 44.8001 24.7826C44.8966 24.6862 44.9737 24.5512 44.9544 24.4162C44.9544 24.2812 44.8773 24.1463 44.7809 24.0498C43.8359 23.2592 42.6596 23.5292 41.1168 24.8791ZM31.4554 27.1932L31.0505 28.7359C30.2598 31.8214 28.0807 34.4826 26.3644 34.4826C25.1109 34.4826 25.863 35.5433 27.2707 35.7747C29.1413 36.0639 30.7998 39.2266 30.8769 42.312C30.9347 44.3947 33.056 44.4333 33.461 42.9291C34.5216 39.0337 35.3894 37.4717 37.6457 35.7361C39.0341 34.6755 39.0534 34.4826 37.8771 33.692C35.9872 32.4192 35.5437 31.7443 34.4252 28.4274C33.1717 24.6862 31.764 26.0554 31.4554 27.1932ZM3.99462 28.6202C3.60894 29.0059 3.60886 29.5266 4.01383 30.3751C4.51522 31.4164 5.20953 31.6478 10.8405 32.4578C12.6918 32.7278 14.9867 33.1327 15.9316 33.3641C17.8793 33.8462 18.0529 33.7498 17.9179 32.5156C17.7829 31.3586 17.3586 30.915 16.1244 30.5294C14.2924 29.9894 13.8296 29.893 9.91483 29.2759C7.85142 28.948 5.82657 28.6009 5.38303 28.5045C4.3224 28.2731 4.36102 28.2731 3.99462 28.6202ZM33.4996 32.3228C33.8852 32.9013 34.4831 33.422 35.2737 33.8848C36.5658 34.6369 36.6815 34.7719 36.1029 34.9647C35.5244 35.1576 34.0395 36.4496 33.3646 37.356L32.7668 38.1659L32.2268 37.2981C31.6868 36.4496 30.4334 35.389 29.6813 35.1576C29.3342 35.0419 29.392 34.9454 30.2598 34.1934C31.9568 32.7085 32.3425 30.5101 32.7089 31.1465C32.8246 31.3007 33.1717 31.8407 33.4996 32.3228ZM43.8552 34.0969C43.026 34.4248 44.1445 36.2568 45.3208 36.4689C47.3264 36.8546 56.1586 36.816 56.1586 36.4303C56.1586 35.8711 55.0979 34.7333 54.3651 34.5019C53.2852 34.1741 44.5494 33.827 43.8552 34.0969ZM57.1999 34.7526C56.8142 35.7747 58.4727 36.7003 61.3653 37.0474C64.2965 37.3946 64.6822 37.1824 63.5444 35.8132C62.5802 34.6948 57.547 33.8462 57.1999 34.7526ZM19.2099 35.9675C18.1878 36.9896 19.5956 38.9759 21.2733 38.8794C22.4304 38.8216 22.7196 38.2238 22.199 36.9703C21.7747 35.9097 19.9041 35.2926 19.2099 35.9675ZM11.4191 36.9124C9.0471 37.3946 5.73021 37.9538 3.8982 38.1466C1.41053 38.4359 0.619873 38.648 0.619873 39.0916C0.619873 39.8629 2.25902 40.75 3.39679 40.5957C3.82104 40.5379 5.30595 40.345 6.69442 40.1908C12.3447 39.4965 16.2401 38.4745 15.8544 37.7802C15.2952 36.7389 13.7332 36.4303 11.4191 36.9124ZM47.1143 41.7528C44.3566 43.0834 47.6156 45.224 50.5854 44.0283C51.5111 43.6619 50.6818 42.5435 49.7562 42.1385C48.2327 41.4635 47.8471 41.4057 47.1143 41.7528ZM40.7312 43.122C39.6127 43.4884 39.3041 44.4719 40.1333 45.1275C40.4419 45.3782 42.1196 46.8631 43.8745 48.4252C51.1061 54.9047 53.2081 56.4667 54.1144 56.0617C55.5608 55.4061 54.4808 54.114 46.8057 47.4802C42.6403 43.8741 41.3097 42.9291 40.7312 43.122ZM22.8354 44.5297C21.6397 45.1275 10.6477 56.5824 10.6477 57.2188C10.6477 58.453 13.251 58.1059 14.5238 56.6981C15.488 55.6375 18.4385 52.552 22.5654 48.3287C26.2294 44.5683 26.3644 42.7556 22.8354 44.5297ZM53.5166 45.1854C52.8995 45.4554 52.456 46.3425 52.8224 46.6124C57.7785 50.0836 60.2276 50.7585 60.2276 48.6373C60.2083 47.4417 54.7701 44.6454 53.5166 45.1854ZM10.6477 47.4224C7.75505 48.888 7.67792 48.9651 8.43 49.4472C9.85704 50.3729 16.703 47.3067 15.3723 46.3232C14.5624 45.7254 13.5018 45.9761 10.6477 47.4224ZM32.3811 47.4609C31.494 48.1359 31.1662 51.1828 33.3453 51.2214C34.1938 51.2407 34.8302 50.3536 34.7916 48.8687C34.753 47.326 33.4996 46.5931 32.3811 47.4609ZM25.998 49.9679C24.6095 51.6649 21.2348 57.3152 21.2348 57.9516C21.2348 59.6486 24.5324 55.811 27.2707 50.8743C28.4085 48.8687 27.4443 48.1937 25.998 49.9679ZM39.7477 50.0257C38.957 50.99 46.015 59.745 47.1528 59.2243C48.1556 58.7615 47.8278 58.183 44.318 54.1719C40.6733 49.9486 40.1719 49.5051 39.7477 50.0257ZM32.4775 54.4997C31.629 55.0397 31.0505 66.0895 31.8604 66.7259C33.6153 68.153 34.3673 66.1667 34.3481 60.15C34.3481 54.7311 33.9624 53.5741 32.4775 54.4997Z" fill="black"/>
</svg>
