<svg width="70" height="50" viewBox="0 0 70 50" fill="none" xmlns="http://www.w3.org/2000/svg">
<g clip-path="url(#clip0_592_7551)">
<path d="M42.5647 3.20981C43.8615 0.877301 42.1757 -0.805154 40.3818 1.04939C39.0635 2.42595 37.2048 6.34533 37.529 7.09097C38.2855 8.79256 40.3602 7.18656 42.5647 3.20981Z" fill="black"/>
<path d="M29.6622 7.91282C31.0238 8.2952 31.4994 7.58778 31.3481 5.40822C31.0239 1.10645 29.5326 -0.67161 26.9823 0.226981C25.772 0.647599 28.1493 7.4922 29.6622 7.91282Z" fill="black"/>
<path d="M16.0245 9.02214C19.0935 11.0488 21.2331 11.9473 22.3138 11.6032C23.6538 11.1826 23.4377 10.7811 20.9955 9.07951C17.8832 6.88083 16.1757 6.23078 14.5332 6.61316C13.3661 6.88082 13.7336 7.49262 16.0245 9.02214Z" fill="black"/>
<path d="M42.5431 9.74848C41.8083 10.4559 41.8084 10.475 42.3703 10.8383C43.9696 11.8707 45.6771 11.0486 52.4418 5.9438C54.2573 4.56723 51.2531 3.47746 49.135 4.75843C48.0328 5.4276 43.4077 8.92636 42.5431 9.74848Z" fill="black"/>
<path d="M68.2625 44.2006C67.506 43.6462 67.009 42.6138 66.7928 41.1416C66.6416 40.1283 64.2209 23.3801 63.1187 18.9636C62.2109 15.2928 59.6607 13.5529 57.6291 13.4573C56.3539 13.4 55.619 14.1456 55.1003 13.8588C53.6955 13.075 53.3064 12.7117 51.9232 12.8264C51.2748 12.8647 49.8268 13.2088 49.3297 13.5912C49.0055 13.8206 48.5949 13.8206 47.6872 13.6103C43.235 12.5587 41.2681 16.3061 43.2781 22.0226C44.4236 25.292 46.0662 23.858 45.5907 20.0151C44.964 14.9295 45.0936 14.3942 46.8875 14.9677C47.8601 15.2736 47.9032 15.3501 47.8168 16.4016C47.6871 17.8738 48.8543 24.6037 49.2865 24.8522C50.4752 25.5405 51.3829 24.3169 50.9939 22.5006C49.9349 17.415 50.6481 14.2603 52.7662 14.7383C53.4146 14.8913 53.89 15.4075 53.89 16.0002C53.9981 21.755 54.0629 25.5979 56.0513 25.5979C57.3048 25.5979 57.3048 25.6361 57.0238 20.6461C56.7213 15.3501 57.4345 15.0633 58.4936 15.3501C60.0281 15.7707 60.1794 18.9445 60.3307 19.8048C60.3307 19.824 63.7454 39.6694 63.7454 39.7077C64.1561 44.2197 67.3331 48.1774 69.5592 46.9155C70.0131 46.6479 69.1702 44.8698 68.2625 44.2006Z" fill="black"/>
<path d="M14.8791 20.1108C14.8791 17.0326 14.9223 16.7841 15.6139 16.0958C16.8458 14.8148 17.2349 15.9811 17.4726 21.8697C17.6455 26.1715 17.6672 26.2289 18.7046 26.4965C20.0446 26.8598 20.1743 26.3053 20.023 21.4491C19.8717 17.0709 19.8933 16.9179 20.5417 16.3444C21.8816 15.1399 22.1626 15.6178 22.7246 19.7667C23.0488 22.2904 23.0055 23.7052 22.5516 25.8847C22.4435 26.4392 22.5516 26.6113 23.0703 26.7451C24.4751 27.0701 24.7128 26.6495 25.1235 23.0169C25.8367 16.7267 24.8642 14.834 20.8442 14.7957C19.6555 14.7766 18.2939 14.6428 17.8184 14.4516C17.3429 14.2795 16.2623 14.1457 15.4194 14.1648C14.5765 14.1839 13.1933 14.1266 12.372 14.031C11.3778 13.9163 10.5566 13.9927 9.97304 14.2222C7.48758 15.2355 7.05532 16.4208 4.1376 30.3585C3.64051 32.7675 3.07856 35.7692 2.92727 37.012C2.62469 39.3254 1.71691 42.0211 0.506601 44.2389C-0.336296 45.7685 -0.141739 46.3229 1.19825 46.3229C3.59726 46.3229 5.84499 42.8815 6.38531 38.3503C6.66627 35.9413 7.16339 34.9471 8.0279 29.4409C9.67047 18.8298 9.97296 17.6062 11.1833 16.3635C12.8475 14.6619 12.6962 15.2164 12.9123 25.12C12.9123 25.5406 13.3446 25.8656 13.8201 25.8274C14.6846 25.77 14.8791 25.0626 14.8791 20.1108Z" fill="black"/>
<path d="M55.1867 46.4758C53.8251 44.258 53.7171 44.1815 51.2964 43.9521C48.3571 43.6653 46.0878 42.652 45.1152 41.199C42.9755 37.9679 39.9714 29.3834 40.3172 27.4907C40.7927 24.8331 41.7868 25.0243 43.4078 28.0451C44.6829 30.4159 45.5259 31.2571 48.5301 33.2455C49.87 34.125 50.6913 34.9088 51.2317 35.8457C51.9016 36.9928 52.1393 37.184 52.9174 37.184C55.5758 37.184 52.3987 32.0792 49.1568 31.1615C47.7736 30.7791 47.3414 30.4541 47.3414 29.8232C47.3414 26.6686 42.1327 23.2463 39.3663 24.5846C36.9889 25.7509 36.7943 27.5098 38.4369 32.8058C41.5923 42.9579 43.3646 45.0228 49.2865 45.4816C51.5991 45.6728 52.1609 46.0169 53.328 47.948C54.9274 50.6055 56.7645 48.7892 56.3971 48.3686C56.2674 48.1965 55.7271 47.3553 55.1867 46.4758Z" fill="black"/>
<path d="M26.4637 25.8274C24.886 26.4774 23.1786 28.0834 22.4437 29.613C21.9034 30.741 21.7522 30.8557 20.5418 31.0277C17.9051 31.391 15.6142 33.1308 15.2684 34.9854C14.9658 36.6296 16.8676 37.4708 17.5592 35.9796C18.467 34.0485 20.2608 32.5573 22.2276 32.1175C23.4379 31.8499 25.8586 29.7085 27.9118 27.1466C29.2086 25.5215 30.073 27.7202 29.1653 30.2821C26.3124 38.1974 22.6166 42.5565 18.3589 42.9771C16.5651 43.1683 16.176 43.4933 14.6415 46.1891C13.6257 47.948 13.6041 48.0436 14.1445 48.3878C15.4412 49.229 16.6732 48.426 17.5161 46.2082C18.0996 44.6787 18.1645 44.6022 19.4828 44.3154C24.4538 43.1874 26.9176 40.5872 30.4837 32.7676C33.2069 26.8025 31.4563 23.7817 26.4637 25.8274Z" fill="black"/>
</g>
<defs>
<clipPath id="clip0_592_7551">
<rect width="69.686" height="49.3654" fill="white"/>
</clipPath>
</defs>
</svg>
