<svg width="79" height="79" viewBox="0 0 79 79" fill="none" xmlns="http://www.w3.org/2000/svg">
<path d="M20.3221 58.5243C17.7871 56.3598 17.6313 52.8303 17.5533 50.2953C17.2803 40.6233 18.1771 31.2243 18.1771 27.4023C18.1966 22.8783 19.1327 20.9088 20.5562 19.4463C21.4337 18.5298 21.0242 17.9253 19.8542 18.3738C18.5087 18.9003 17.6896 19.7388 17.1046 22.1178C15.6226 28.2213 15.2521 48.0528 15.7396 53.5518C16.0126 56.6133 17.5532 58.8948 19.6787 59.3433C21.1217 59.6943 21.3361 59.4018 20.3221 58.5243Z" fill="black"/>
<path d="M23.1302 48.0329C22.1162 47.1749 22.0967 47.2334 24.9827 44.3669C30.4037 39.0044 35.3957 35.5334 40.7777 41.0129C42.9422 43.2164 43.4298 43.8794 45.3408 47.0579C45.8088 47.8379 45.7697 48.1694 45.2042 47.9939C44.6972 47.8379 30.1113 47.7404 25.9383 47.8379C24.0858 47.8769 24.6707 48.7739 25.9577 48.8519C29.1752 49.0469 37.7747 49.1444 43.7417 49.4564C48.9677 49.7489 52.5362 50.1974 55.1492 49.6514C60.0827 48.6179 58.4642 48.2669 59.4392 35.6114C59.7122 31.9844 59.5367 25.4714 59.1662 24.7109C57.3137 21.1229 48.9872 19.6799 34.4987 20.4209C29.4287 20.6744 26.3087 21.1229 26.3087 21.5909C26.3087 22.2734 28.7267 22.3709 35.4542 21.9809C40.1732 21.7079 42.4157 21.7469 48.0512 22.2539C53.5112 22.7414 56.6118 23.3459 57.2358 24.0479C58.2888 25.2374 58.4446 25.7249 58.2496 27.2264C57.9961 29.1179 57.8402 34.7144 57.8012 35.6894L57.2358 34.8119C52.8483 27.9284 44.9702 28.7279 38.7692 36.7034L38.2817 37.3274L37.2092 36.9179C32.9192 35.2409 27.3033 37.8929 23.0133 43.6649L21.7067 45.4004L21.5508 44.2499C21.3948 43.0799 21.4922 35.0264 21.7652 27.5774C21.9212 23.1119 22.0773 22.8194 23.3058 22.2734C24.1638 21.9029 24.1246 21.3374 23.1496 21.3374C21.7651 21.3374 21.1996 21.9809 20.6146 23.6384C19.6396 26.4269 18.6062 43.0604 20.1077 46.6289C20.6927 48.0329 21.2777 48.7349 22.5062 48.9104C23.7737 49.1444 24.0077 48.7934 23.1302 48.0329ZM39.9002 38.2829C40.0172 38.0879 45.5942 33.6029 46.2962 33.1544C48.2072 31.9064 50.8202 31.5944 52.7312 32.3744C54.0572 32.9204 54.9737 33.7004 56.0462 35.1239C57.7427 37.4249 57.7037 37.3079 57.3917 39.9989C57.2357 41.2859 57.0212 43.2554 56.9042 44.3669C56.4752 48.6569 55.8707 48.4229 46.9787 47.8379L46.0427 46.1804C45.0677 44.4449 43.2153 42.0659 41.0508 39.8039C40.3683 39.0629 39.8222 38.3804 39.9002 38.2829Z" fill="black"/>
<path d="M63.2612 25.8617C64.0217 23.3657 61.9353 19.4462 57.3333 18.4712C54.3498 17.8277 48.1488 17.7302 31.4568 17.4182C28.9803 17.3792 26.1138 17.3987 25.0803 17.4572C23.1888 17.5937 22.5258 17.8277 23.0133 18.1982C23.6763 18.7052 25.8213 18.8417 35.2593 18.9392C58.2888 19.1927 60.1607 19.5242 61.6427 23.3852C61.9157 24.1067 61.7988 37.3667 61.4868 40.7792C61.3308 42.6122 61.0968 46.3757 60.9993 49.1642C60.7068 57.2372 59.8682 58.6802 55.7537 58.3682C53.7647 58.2122 40.3878 58.5632 29.8968 58.7192C19.0743 58.8752 22.9937 60.2402 24.7097 60.4352C31.1837 61.1567 58.2303 60.1622 60.6093 58.9532C65.3088 56.5937 63.1832 26.1152 63.2612 25.8617Z" fill="black"/>
<path d="M30.1893 24.0873C25.2753 26.0178 27.0887 33.0963 32.4902 33.0768C36.4292 33.0573 38.9057 27.9288 36.4487 25.9398C35.3567 25.0428 35.2398 25.6473 35.6493 26.7393C36.7803 29.7033 33.5822 32.9403 30.5402 31.6533C27.3227 30.3078 29.8578 25.1013 33.7383 25.1013L34.4596 25.1208C34.9666 25.1403 35.1226 24.4188 34.6546 24.2238C33.5626 23.7363 31.4763 23.5803 30.1893 24.0873Z" fill="black"/>
</svg>
