<?xml version="1.0" encoding="utf-8"?>
<!-- Generator: Adobe Illustrator 28.0.0, SVG Export Plug-In . SVG Version: 6.00 Build 0)  -->
<svg version="1.1" id="Слой_1" xmlns="http://www.w3.org/2000/svg" xmlns:xlink="http://www.w3.org/1999/xlink" x="0px" y="0px"
	 viewBox="0 0 619 136" style="enable-background:new 0 0 619 136;" xml:space="preserve">
<style type="text/css">
	.st0{fill:#FFFFFF;}
	.st1{fill-rule:evenodd;clip-rule:evenodd;}
	.st2{fill:none;stroke:#FD6F00;stroke-width:2.5;stroke-linecap:square;stroke-dasharray:8,8;}
</style>
<path class="st0" d="M12,1.2h595c5.9,0,10.8,4.8,10.8,10.8v112c0,5.9-4.8,10.8-10.8,10.8H12c-5.9,0-10.8-4.8-10.8-10.8V12
	C1.2,6.1,6.1,1.2,12,1.2z"/>
<path class="st1" d="M41.3,24.9c-1.2,0.3-2,1-3.5,3.2c-0.4,0.6-0.9,1.1-1,1.1c-0.3,0-1.1,0.5-1.5,1.2c-0.2,0.4-0.5,0.9-0.7,1.1
	c-0.8,1,0.3,1.1-1.5,3.4c-2.8,3.6-3.9,5.4-4,6.4c-0.1,1.2-2.1,7.6-1.7,8.7c0.3,0.8,1.2,0.9,2.5,0.5c2.4-0.7,6.7-3.9,7.5-4.6
	c1-0.9,4-6.1,4.3-6.1c0.4,0,1.2-0.4,1.4-0.6c0.7-0.7,2.5-3.8,2.7-4.6c0.1-0.3,0-0.7,0-1.1c0-0.2,0.4-0.8,1.1-1.7
	c1.4-1.7,1.4-1.8,0.6-3.5C46,25.5,44,24.3,41.3,24.9z M43.2,25.6c1.2,0.3,2.4,1.3,3.1,2.7c0.7,1.3,0.5,1.7-1.6,4.3
	c-0.1,0.1-0.2-0.3-0.5-0.7c-1-1.5-2.6-2.6-4.8-2.8c-0.8-0.1-1,0.2,0.4-1.8c0.5-0.7,0.8-1.1,1-1.3C41.2,25.6,42.1,25.3,43.2,25.6z
	 M39.9,30.1c2,0.6,2.7,1.1,3.8,3.2c0.7,1.4,0.7,1.2-0.2,2.2c-0.3,0.4-0.4,0.4-0.5,0.1c-0.3-1-0.6-1.5-1.4-2.3
	c-1.5-1.3-1.9-0.9-0.7,0.5c1.4,1.6,1.7,2.5,1.1,3.7c-0.3,0.7-0.5,0.9-0.6,0.6c-0.9-3.3-2.9-4.7-5.1-4.9c-0.9-0.1-1.1-0.3-0.5-0.9
	c0.3-0.3,0.8-0.2,1.9,0c0.5,0.1,0.5-0.6,0-0.8c-0.7-0.2-1-0.4-0.4-1.3C37.8,29.6,38.3,29.6,39.9,30.1z M38.5,30.8
	c-0.3,0.2-0.3,0.5,0.6,0.9c0.9,0.3,1.3,0.1,1.3-0.3c0-0.2-0.1-0.4-0.5-0.5C39.4,30.7,38.7,30.7,38.5,30.8z M37.1,34.2
	c0.2,0.1,0.2,0.1-0.4,0.9c-1.3,1.9-1.8,2.7-2.2,3.1c-0.2,0.2-0.7,1-1.1,1.6c-1.2,2.1-2.3,2.8-2.8,1.7c-0.2-0.4-0.1-0.8,0.1-1.1
	c0.6-0.9,3.9-6.2,4.8-6.4C36.2,33.9,36.9,34.1,37.1,34.2z M38.8,35.1c1.1,1.1,1.2,1.8,0.4,2.8c-1.5,1.9-4,5.2-4.9,5.9
	c-0.7,0.5-1-0.9-0.8-1.8c0.2-1.2,1.2-2.7,3.4-5.5C38,34.8,38.2,34.5,38.8,35.1z M40.3,38.6c0,0.3,0.2,0.7-0.1,1.2
	c-0.2,0.3-1,1.6-1.7,2.7c-1.1,1.8-2.5,3-2.6,2.7c-0.1-0.4,0.7-2.2,1.4-3.3C39.2,39.4,40.1,37.3,40.3,38.6z M32.3,43.2
	c0,1.1,0.7,1.6,1.8,1.3c0.7-0.2,0.7-0.2,0.4,0.5c-0.1,0.3-0.2,0.7-0.2,1c0.1,0.5-0.1,0.5-1.2,1.2c-0.2,0.1-0.4,0.1-0.5-0.1
	c-0.6-0.9-1.4-1.3-2.3-1.5c-0.9-0.1-0.8,0-0.6-1.4l0.2-1.2c0.2,0,0.9,0.2,1.5-0.1c0.3-0.1,0.6-0.2,0.6-0.2S32.3,42.9,32.3,43.2z"/>
<path d="M64.6,43.2h-4.1V31.6h4.2c1.2,0,2.2,0.2,3,0.7c0.8,0.5,1.5,1.1,1.9,2c0.5,0.9,0.7,1.9,0.7,3.1c0,1.2-0.2,2.3-0.7,3.1
	c-0.5,0.9-1.1,1.5-2,2C66.8,43,65.8,43.2,64.6,43.2z M63,41.1h1.6c0.7,0,1.3-0.1,1.8-0.4c0.5-0.3,0.9-0.7,1.1-1.2
	c0.3-0.5,0.4-1.3,0.4-2.1c0-0.9-0.1-1.6-0.4-2.1c-0.2-0.5-0.6-0.9-1.1-1.2c-0.5-0.3-1.1-0.4-1.8-0.4H63V41.1z M76.1,43.4
	c-0.9,0-1.7-0.2-2.3-0.5c-0.6-0.4-1.1-0.9-1.5-1.6c-0.3-0.7-0.5-1.5-0.5-2.4c0-0.9,0.2-1.7,0.5-2.4c0.3-0.7,0.8-1.2,1.5-1.6
	c0.6-0.4,1.4-0.6,2.2-0.6c0.6,0,1.1,0.1,1.6,0.3c0.5,0.2,0.9,0.5,1.3,0.8c0.4,0.4,0.7,0.8,0.9,1.4c0.2,0.6,0.3,1.2,0.3,1.9v0.7h-7.4
	V38h5.1c0-0.3-0.1-0.7-0.2-0.9c-0.2-0.3-0.4-0.5-0.6-0.6c-0.3-0.2-0.6-0.2-0.9-0.2c-0.4,0-0.7,0.1-1,0.3c-0.3,0.2-0.5,0.4-0.7,0.7
	c-0.2,0.3-0.2,0.6-0.2,0.9v1.4c0,0.4,0.1,0.8,0.2,1.1c0.2,0.3,0.4,0.6,0.7,0.7c0.3,0.2,0.6,0.3,1.1,0.3c0.3,0,0.5,0,0.7-0.1
	c0.2-0.1,0.4-0.2,0.6-0.3c0.2-0.2,0.3-0.3,0.4-0.6l2.2,0.1c-0.1,0.5-0.3,1-0.7,1.4c-0.3,0.4-0.8,0.7-1.4,0.9
	C77.4,43.3,76.8,43.4,76.1,43.4z M89.6,34.5l-3.1,8.7h-2.7l-3.1-8.7h2.6l1.8,6.2h0.1l1.8-6.2H89.6z M94.5,43.4
	c-0.9,0-1.7-0.2-2.3-0.5c-0.6-0.4-1.1-0.9-1.5-1.6c-0.3-0.7-0.5-1.5-0.5-2.4c0-0.9,0.2-1.7,0.5-2.4c0.3-0.7,0.8-1.2,1.5-1.6
	c0.6-0.4,1.4-0.6,2.2-0.6c0.6,0,1.1,0.1,1.6,0.3c0.5,0.2,0.9,0.5,1.3,0.8c0.4,0.4,0.7,0.8,0.9,1.4c0.2,0.6,0.3,1.2,0.3,1.9v0.7h-7.4
	V38h5.1c0-0.3-0.1-0.7-0.2-0.9c-0.2-0.3-0.4-0.5-0.6-0.6c-0.3-0.2-0.6-0.2-0.9-0.2c-0.4,0-0.7,0.1-1,0.3c-0.3,0.2-0.5,0.4-0.7,0.7
	c-0.2,0.3-0.2,0.6-0.2,0.9v1.4c0,0.4,0.1,0.8,0.2,1.1c0.2,0.3,0.4,0.6,0.7,0.7c0.3,0.2,0.6,0.3,1.1,0.3c0.3,0,0.5,0,0.7-0.1
	c0.2-0.1,0.4-0.2,0.6-0.3c0.2-0.2,0.3-0.3,0.4-0.6l2.2,0.1c-0.1,0.5-0.3,1-0.7,1.4c-0.3,0.4-0.8,0.7-1.4,0.9
	C95.8,43.3,95.2,43.4,94.5,43.4z M102.5,31.6v11.6h-2.4V31.6H102.5z M108.4,43.4c-0.9,0-1.6-0.2-2.3-0.6c-0.6-0.4-1.1-0.9-1.5-1.6
	c-0.3-0.7-0.5-1.5-0.5-2.4c0-0.9,0.2-1.7,0.5-2.4c0.3-0.7,0.8-1.2,1.5-1.6c0.6-0.4,1.4-0.6,2.3-0.6c0.9,0,1.6,0.2,2.3,0.6
	c0.6,0.4,1.1,0.9,1.5,1.6c0.3,0.7,0.5,1.5,0.5,2.4c0,0.9-0.2,1.7-0.5,2.4c-0.3,0.7-0.8,1.2-1.5,1.6C110,43.2,109.3,43.4,108.4,43.4z
	 M108.4,41.5c0.4,0,0.7-0.1,1-0.3c0.3-0.2,0.5-0.5,0.6-0.9c0.1-0.4,0.2-0.9,0.2-1.4c0-0.5-0.1-1-0.2-1.4c-0.1-0.4-0.3-0.7-0.6-0.9
	c-0.3-0.2-0.6-0.3-1-0.3c-0.4,0-0.7,0.1-1,0.3c-0.3,0.2-0.5,0.5-0.6,0.9c-0.1,0.4-0.2,0.9-0.2,1.4c0,0.5,0.1,1,0.2,1.4
	c0.1,0.4,0.3,0.7,0.6,0.9C107.6,41.4,108,41.5,108.4,41.5z M114.3,46.5v-12h2.4V36h0.1c0.1-0.2,0.3-0.5,0.5-0.7
	c0.2-0.2,0.5-0.5,0.8-0.6c0.3-0.2,0.7-0.2,1.2-0.2c0.6,0,1.2,0.2,1.8,0.5c0.5,0.3,1,0.8,1.3,1.5c0.3,0.7,0.5,1.5,0.5,2.5
	c0,1-0.2,1.8-0.5,2.5c-0.3,0.7-0.7,1.2-1.3,1.5c-0.5,0.3-1.1,0.5-1.8,0.5c-0.5,0-0.9-0.1-1.2-0.2c-0.3-0.2-0.6-0.4-0.8-0.6
	c-0.2-0.2-0.4-0.5-0.5-0.7h-0.1v4.7H114.3z M116.6,38.9c0,0.5,0.1,1,0.2,1.4c0.1,0.4,0.4,0.7,0.6,0.9c0.3,0.2,0.6,0.3,1,0.3
	c0.4,0,0.7-0.1,1-0.3c0.3-0.2,0.5-0.5,0.6-0.9c0.1-0.4,0.2-0.8,0.2-1.3c0-0.5-0.1-0.9-0.2-1.3c-0.1-0.4-0.3-0.7-0.6-0.9
	c-0.3-0.2-0.6-0.3-1-0.3c-0.4,0-0.7,0.1-1,0.3c-0.3,0.2-0.5,0.5-0.6,0.9C116.7,37.9,116.6,38.4,116.6,38.9z M124.4,43.2v-8.7h2.3
	v1.5h0.1c0.2-0.5,0.5-0.9,0.9-1.2c0.4-0.3,0.9-0.4,1.5-0.4c0.6,0,1.1,0.1,1.5,0.4c0.4,0.3,0.7,0.7,0.8,1.2h0.1
	c0.2-0.5,0.5-0.9,1-1.2c0.5-0.3,1-0.5,1.7-0.5c0.8,0,1.5,0.3,2,0.8c0.5,0.5,0.8,1.2,0.8,2.2v5.9h-2.4v-5.4c0-0.5-0.1-0.8-0.4-1.1
	c-0.3-0.2-0.6-0.4-1-0.4c-0.4,0-0.8,0.1-1,0.4c-0.2,0.3-0.4,0.6-0.4,1.1v5.3h-2.3v-5.4c0-0.4-0.1-0.8-0.4-1c-0.2-0.3-0.6-0.4-1-0.4
	c-0.3,0-0.5,0.1-0.7,0.2c-0.2,0.1-0.4,0.3-0.5,0.6c-0.1,0.2-0.2,0.5-0.2,0.8v5.2H124.4z M142.9,43.4c-0.9,0-1.7-0.2-2.3-0.5
	c-0.6-0.4-1.1-0.9-1.5-1.6c-0.3-0.7-0.5-1.5-0.5-2.4c0-0.9,0.2-1.7,0.5-2.4c0.3-0.7,0.8-1.2,1.5-1.6c0.6-0.4,1.4-0.6,2.2-0.6
	c0.6,0,1.1,0.1,1.6,0.3c0.5,0.2,0.9,0.5,1.3,0.8c0.4,0.4,0.7,0.8,0.9,1.4c0.2,0.6,0.3,1.2,0.3,1.9v0.7h-7.4V38h5.1
	c0-0.3-0.1-0.7-0.2-0.9c-0.2-0.3-0.4-0.5-0.6-0.6c-0.3-0.2-0.6-0.2-0.9-0.2c-0.4,0-0.7,0.1-1,0.3c-0.3,0.2-0.5,0.4-0.7,0.7
	c-0.2,0.3-0.2,0.6-0.2,0.9v1.4c0,0.4,0.1,0.8,0.2,1.1c0.2,0.3,0.4,0.6,0.7,0.7c0.3,0.2,0.6,0.3,1.1,0.3c0.3,0,0.5,0,0.7-0.1
	c0.2-0.1,0.4-0.2,0.6-0.3c0.2-0.2,0.3-0.3,0.4-0.6l2.2,0.1c-0.1,0.5-0.3,1-0.7,1.4c-0.3,0.4-0.8,0.7-1.4,0.9
	C144.3,43.3,143.7,43.4,142.9,43.4z M151,38.2v5h-2.4v-8.7h2.3v1.5h0.1c0.2-0.5,0.5-0.9,1-1.2c0.5-0.3,1-0.4,1.7-0.4
	c0.6,0,1.1,0.1,1.6,0.4c0.5,0.3,0.8,0.6,1.1,1.1c0.2,0.5,0.4,1.1,0.4,1.8v5.6h-2.4v-5.1c0-0.5-0.1-1-0.4-1.2
	c-0.3-0.3-0.7-0.5-1.1-0.5c-0.3,0-0.6,0.1-0.9,0.2c-0.2,0.1-0.4,0.3-0.6,0.6C151,37.5,151,37.8,151,38.2z M163.1,34.5v1.8h-5.3v-1.8
	H163.1z M159.1,32.4h2.4v8.1c0,0.2,0,0.4,0.1,0.5c0.1,0.1,0.2,0.2,0.3,0.3c0.1,0,0.3,0.1,0.4,0.1c0.1,0,0.2,0,0.3,0
	c0.1,0,0.2,0,0.3-0.1l0.4,1.8c-0.1,0-0.3,0.1-0.5,0.1c-0.2,0.1-0.5,0.1-0.8,0.1c-0.6,0-1.1-0.1-1.5-0.2c-0.4-0.2-0.8-0.5-1-0.8
	c-0.2-0.4-0.4-0.8-0.4-1.4V32.4z M173,34.5v1.8h-5.3v-1.8H173z M169,32.4h2.4v8.1c0,0.2,0,0.4,0.1,0.5c0.1,0.1,0.2,0.2,0.3,0.3
	c0.1,0,0.3,0.1,0.4,0.1c0.1,0,0.2,0,0.3,0c0.1,0,0.2,0,0.3-0.1l0.4,1.8c-0.1,0-0.3,0.1-0.5,0.1c-0.2,0.1-0.5,0.1-0.8,0.1
	c-0.6,0-1.1-0.1-1.5-0.2c-0.4-0.2-0.8-0.5-1-0.8c-0.2-0.4-0.4-0.8-0.4-1.4V32.4z M174.6,43.2v-8.7h2.4v8.7H174.6z M175.8,33.4
	c-0.4,0-0.7-0.1-0.9-0.4c-0.3-0.2-0.4-0.5-0.4-0.9c0-0.3,0.1-0.6,0.4-0.9c0.3-0.2,0.6-0.4,0.9-0.4s0.7,0.1,0.9,0.4
	c0.3,0.2,0.4,0.5,0.4,0.9c0,0.3-0.1,0.6-0.4,0.9C176.5,33.3,176.2,33.4,175.8,33.4z M179,43.2v-8.7h2.3v1.5h0.1
	c0.2-0.5,0.5-0.9,0.9-1.2c0.4-0.3,0.9-0.4,1.5-0.4c0.6,0,1.1,0.1,1.5,0.4c0.4,0.3,0.7,0.7,0.8,1.2h0.1c0.2-0.5,0.5-0.9,1-1.2
	c0.5-0.3,1-0.5,1.7-0.5c0.8,0,1.5,0.3,2,0.8c0.5,0.5,0.8,1.2,0.8,2.2v5.9h-2.4v-5.4c0-0.5-0.1-0.8-0.4-1.1c-0.3-0.2-0.6-0.4-1-0.4
	c-0.4,0-0.8,0.1-1,0.4c-0.2,0.3-0.4,0.6-0.4,1.1v5.3h-2.3v-5.4c0-0.4-0.1-0.8-0.4-1c-0.2-0.3-0.6-0.4-1-0.4c-0.3,0-0.5,0.1-0.7,0.2
	c-0.2,0.1-0.4,0.3-0.5,0.6c-0.1,0.2-0.2,0.5-0.2,0.8v5.2H179z M197.6,43.4c-0.9,0-1.7-0.2-2.3-0.5c-0.6-0.4-1.1-0.9-1.5-1.6
	c-0.3-0.7-0.5-1.5-0.5-2.4c0-0.9,0.2-1.7,0.5-2.4c0.3-0.7,0.8-1.2,1.5-1.6c0.6-0.4,1.4-0.6,2.2-0.6c0.6,0,1.1,0.1,1.6,0.3
	c0.5,0.2,0.9,0.5,1.3,0.8c0.4,0.4,0.7,0.8,0.9,1.4c0.2,0.6,0.3,1.2,0.3,1.9v0.7h-7.4V38h5.1c0-0.3-0.1-0.7-0.2-0.9
	c-0.2-0.3-0.4-0.5-0.6-0.6c-0.3-0.2-0.6-0.2-0.9-0.2c-0.4,0-0.7,0.1-1,0.3c-0.3,0.2-0.5,0.4-0.7,0.7c-0.2,0.3-0.2,0.6-0.2,0.9v1.4
	c0,0.4,0.1,0.8,0.2,1.1c0.2,0.3,0.4,0.6,0.7,0.7c0.3,0.2,0.6,0.3,1.1,0.3c0.3,0,0.5,0,0.7-0.1c0.2-0.1,0.4-0.2,0.6-0.3
	c0.2-0.2,0.3-0.3,0.4-0.6l2.2,0.1c-0.1,0.5-0.3,1-0.7,1.4c-0.3,0.4-0.8,0.7-1.4,0.9C198.9,43.3,198.3,43.4,197.6,43.4z M204.6,43.4
	c-0.4,0-0.7-0.1-1-0.4c-0.3-0.3-0.4-0.6-0.4-1c0-0.4,0.1-0.7,0.4-1c0.3-0.3,0.6-0.4,1-0.4c0.4,0,0.7,0.1,1,0.4
	c0.3,0.3,0.4,0.6,0.4,1c0,0.2-0.1,0.5-0.2,0.7c-0.1,0.2-0.3,0.4-0.5,0.5C205,43.3,204.8,43.4,204.6,43.4z M204.6,37.3
	c-0.4,0-0.7-0.1-1-0.4c-0.3-0.3-0.4-0.6-0.4-1c0-0.4,0.1-0.7,0.4-0.9c0.3-0.3,0.6-0.4,1-0.4c0.4,0,0.7,0.1,1,0.4
	c0.3,0.3,0.4,0.6,0.4,0.9c0,0.3-0.1,0.5-0.2,0.7c-0.1,0.2-0.3,0.4-0.5,0.5C205,37.2,204.8,37.3,204.6,37.3z"/>
<path d="M228.7,43.4c-0.5,0-1-0.1-1.5-0.3c-0.5-0.2-1-0.5-1.4-0.9c-0.4-0.4-0.7-1-1-1.7c-0.2-0.7-0.4-1.6-0.4-2.7
	c0-1,0.1-1.9,0.3-2.7c0.2-0.8,0.5-1.5,0.9-2c0.4-0.5,0.8-1,1.4-1.2c0.5-0.3,1.1-0.4,1.8-0.4c0.7,0,1.3,0.1,1.8,0.4
	c0.5,0.3,1,0.6,1.3,1.1c0.3,0.5,0.6,1,0.6,1.6h-1.7c-0.1-0.5-0.4-0.9-0.7-1.2c-0.3-0.3-0.8-0.5-1.4-0.5c-0.9,0-1.5,0.4-2,1.1
	c-0.5,0.7-0.7,1.8-0.7,3.1h0.1c0.2-0.3,0.4-0.6,0.7-0.8c0.3-0.2,0.6-0.4,1-0.5c0.4-0.1,0.8-0.2,1.2-0.2c0.7,0,1.3,0.2,1.8,0.5
	c0.5,0.3,1,0.8,1.3,1.4c0.3,0.6,0.5,1.2,0.5,2c0,0.7-0.2,1.4-0.5,2c-0.3,0.6-0.8,1.1-1.4,1.4C230.2,43.2,229.5,43.4,228.7,43.4z
	 M228.7,41.9c0.4,0,0.8-0.1,1.2-0.3c0.4-0.2,0.6-0.5,0.8-0.9c0.2-0.4,0.3-0.8,0.3-1.2c0-0.4-0.1-0.9-0.3-1.2
	c-0.2-0.4-0.5-0.7-0.8-0.9c-0.3-0.2-0.7-0.3-1.2-0.3c-0.3,0-0.6,0.1-0.9,0.2c-0.3,0.1-0.5,0.3-0.8,0.5c-0.2,0.2-0.4,0.5-0.5,0.8
	c-0.1,0.3-0.2,0.6-0.2,0.9c0,0.4,0.1,0.8,0.3,1.2c0.2,0.4,0.5,0.7,0.8,0.9C227.8,41.8,228.2,41.9,228.7,41.9z M244.2,36.7v1.5H239
	v-1.5H244.2z M254.6,43.4c-0.8,0-1.5-0.1-2.2-0.4c-0.6-0.3-1.1-0.7-1.5-1.2c-0.4-0.5-0.5-1.1-0.5-1.7c0-0.5,0.1-0.9,0.3-1.4
	c0.2-0.4,0.5-0.8,0.8-1c0.4-0.3,0.8-0.5,1.2-0.5v-0.1c-0.6-0.1-1-0.5-1.4-0.9c-0.3-0.5-0.5-1-0.5-1.7c0-0.6,0.2-1.1,0.5-1.6
	c0.3-0.5,0.8-0.8,1.3-1.1c0.6-0.3,1.2-0.4,1.9-0.4c0.7,0,1.3,0.1,1.9,0.4c0.6,0.3,1,0.6,1.3,1.1c0.3,0.5,0.5,1,0.5,1.6
	c0,0.6-0.2,1.2-0.5,1.7c-0.4,0.5-0.8,0.8-1.4,0.9v0.1c0.4,0.1,0.8,0.3,1.2,0.5c0.4,0.3,0.6,0.6,0.8,1c0.2,0.4,0.3,0.9,0.3,1.4
	c0,0.6-0.2,1.2-0.5,1.7c-0.4,0.5-0.8,0.9-1.5,1.2C256.1,43.3,255.4,43.4,254.6,43.4z M254.6,42c0.5,0,0.9-0.1,1.2-0.2
	c0.4-0.2,0.6-0.4,0.8-0.7c0.2-0.3,0.3-0.6,0.3-1c0-0.4-0.1-0.8-0.3-1.1c-0.2-0.3-0.5-0.6-0.8-0.7c-0.4-0.2-0.8-0.3-1.2-0.3
	c-0.5,0-0.9,0.1-1.2,0.3c-0.4,0.2-0.6,0.4-0.8,0.7c-0.2,0.3-0.3,0.7-0.3,1.1c0,0.4,0.1,0.7,0.3,1c0.2,0.3,0.5,0.5,0.8,0.7
	C253.7,41.9,254.1,42,254.6,42z M254.6,36.6c0.4,0,0.7-0.1,1-0.2c0.3-0.2,0.5-0.4,0.7-0.6c0.2-0.3,0.3-0.6,0.3-1
	c0-0.4-0.1-0.7-0.3-1c-0.2-0.3-0.4-0.5-0.7-0.6c-0.3-0.2-0.6-0.2-1-0.2c-0.4,0-0.8,0.1-1.1,0.2c-0.3,0.1-0.5,0.4-0.7,0.6
	c-0.2,0.3-0.2,0.6-0.2,1c0,0.4,0.1,0.7,0.2,1c0.2,0.3,0.4,0.5,0.7,0.6C253.8,36.5,254.2,36.6,254.6,36.6z M266.9,43.2l-2.6-8.7h1.8
	l1.7,6.4h0.1l1.7-6.4h1.8l1.7,6.4h0.1l1.7-6.4h1.8l-2.6,8.7h-1.7l-1.8-6.3h-0.1l-1.8,6.3H266.9z M281.7,43.4c-0.9,0-1.6-0.2-2.2-0.6
	c-0.6-0.4-1.1-0.9-1.4-1.6c-0.3-0.7-0.5-1.5-0.5-2.4c0-0.9,0.2-1.7,0.5-2.4c0.3-0.7,0.8-1.2,1.4-1.6c0.6-0.4,1.3-0.6,2.1-0.6
	c0.5,0,1,0.1,1.4,0.2c0.5,0.2,0.9,0.4,1.2,0.8c0.4,0.3,0.7,0.8,0.9,1.4c0.2,0.6,0.3,1.2,0.3,2v0.6h-6.9v-1.3h5.3
	c0-0.4-0.1-0.8-0.3-1.2c-0.2-0.3-0.4-0.6-0.8-0.8c-0.3-0.2-0.7-0.3-1.1-0.3c-0.5,0-0.9,0.1-1.2,0.4c-0.4,0.2-0.6,0.5-0.8,0.9
	c-0.2,0.4-0.3,0.8-0.3,1.2v1c0,0.6,0.1,1.1,0.3,1.5c0.2,0.4,0.5,0.7,0.9,0.9c0.4,0.2,0.8,0.3,1.3,0.3c0.3,0,0.6,0,0.9-0.1
	c0.3-0.1,0.5-0.2,0.7-0.4c0.2-0.2,0.3-0.4,0.4-0.7l1.6,0.3c-0.1,0.5-0.4,0.9-0.7,1.2c-0.3,0.4-0.7,0.6-1.2,0.8
	C282.9,43.3,282.4,43.4,281.7,43.4z M291.1,43.4c-0.9,0-1.6-0.2-2.2-0.6c-0.6-0.4-1.1-0.9-1.4-1.6c-0.3-0.7-0.5-1.5-0.5-2.4
	c0-0.9,0.2-1.7,0.5-2.4c0.3-0.7,0.8-1.2,1.4-1.6c0.6-0.4,1.3-0.6,2.1-0.6c0.5,0,1,0.1,1.4,0.2c0.5,0.2,0.9,0.4,1.2,0.8
	c0.4,0.3,0.7,0.8,0.9,1.4c0.2,0.6,0.3,1.2,0.3,2v0.6h-6.9v-1.3h5.3c0-0.4-0.1-0.8-0.3-1.2c-0.2-0.3-0.4-0.6-0.8-0.8
	c-0.3-0.2-0.7-0.3-1.1-0.3c-0.5,0-0.9,0.1-1.2,0.4c-0.4,0.2-0.6,0.5-0.8,0.9c-0.2,0.4-0.3,0.8-0.3,1.2v1c0,0.6,0.1,1.1,0.3,1.5
	c0.2,0.4,0.5,0.7,0.9,0.9c0.4,0.2,0.8,0.3,1.3,0.3c0.3,0,0.6,0,0.9-0.1c0.3-0.1,0.5-0.2,0.7-0.4c0.2-0.2,0.3-0.4,0.4-0.7l1.6,0.3
	c-0.1,0.5-0.4,0.9-0.7,1.2c-0.3,0.4-0.7,0.6-1.2,0.8C292.3,43.3,291.7,43.4,291.1,43.4z M298.3,40.3l0-2.1h0.3l3.5-3.7h2l-4,4.2
	h-0.3L298.3,40.3z M296.7,43.2V31.6h1.7v11.6H296.7z M302.3,43.2l-3.1-4.1l1.2-1.2l4,5.3H302.3z M312.2,36.6l-1.5,0.3
	c-0.1-0.2-0.2-0.4-0.3-0.6c-0.1-0.2-0.3-0.3-0.6-0.4c-0.2-0.1-0.5-0.2-0.9-0.2c-0.5,0-0.9,0.1-1.2,0.3c-0.3,0.2-0.5,0.5-0.5,0.8
	c0,0.3,0.1,0.5,0.3,0.7s0.6,0.3,1,0.4l1.4,0.3c0.8,0.2,1.4,0.5,1.8,0.9c0.4,0.4,0.6,0.9,0.6,1.5c0,0.5-0.2,1-0.5,1.4
	c-0.3,0.4-0.7,0.7-1.3,1c-0.5,0.2-1.2,0.3-1.9,0.3c-1,0-1.8-0.2-2.4-0.6c-0.6-0.4-1-1-1.1-1.8l1.6-0.2c0.1,0.4,0.3,0.8,0.6,1
	c0.3,0.2,0.7,0.3,1.2,0.3c0.6,0,1-0.1,1.3-0.3c0.3-0.2,0.5-0.5,0.5-0.9c0-0.3-0.1-0.5-0.3-0.7c-0.2-0.2-0.5-0.3-0.9-0.4l-1.5-0.3
	c-0.8-0.2-1.4-0.5-1.8-0.9c-0.4-0.4-0.6-0.9-0.6-1.5c0-0.5,0.1-1,0.4-1.4c0.3-0.4,0.7-0.7,1.2-0.9c0.5-0.2,1.1-0.3,1.7-0.3
	c0.9,0,1.7,0.2,2.2,0.6C311.7,35.4,312,36,312.2,36.6z"/>
<path class="st1" d="M345.1,25.8c-0.5,0.2-0.4,0.5,0.1,0.7c0.7,0.2,0.9,1.9,0.3,1.9c-0.8,0-3.6,1.3-4.6,2.1
	c-0.2,0.2-0.3,0.1-0.9-0.4c0.8-0.8,1.4-1.3,0.2-1.3c-0.8,0-3,1.8-3,2.4c0,0.2,0.8,0.3,1.3,0.1c0.6-0.2,0.5-0.2,1.1,0.4l-0.3,0.3
	c-3.9,3.5-6.7,16,7,17.8c6.4,0.8,11.3-2.8,12-8.8l0.1-0.9l0.8-0.1c1.6-0.2,1.4-2.3-0.2-2.6c-0.3-0.1-0.6-0.2-0.6-0.3
	c-1-3.8-2.9-6.4-4.1-5.8c-0.4,0.2-0.3,0.3,0.3,0.7c2.5,1.4,3.3,8.4,1.4,12c-4.2,8.1-17,5.9-17.9-3.1c-0.9-8.7,6.8-14.4,14.2-10.6
	c1,0.5,2.2,0.5,2.9,0l0.5-0.4l0.3,0.4c1.1,1.2,2.1,0.3,1-1c-1.3-1.5-3.4-2-2.6-0.6c0.6,1-0.2,1.3-1.8,0.6c-0.6-0.3-1.6-0.6-2.2-0.7
	l-1-0.2c0-0.4,0-1.1-0.1-1.7c-0.1-0.4-0.1-0.4,0.4-0.4c0.6,0,0.8-0.2,0.5-0.4C350,25.6,345.5,25.6,345.1,25.8z M348.4,28.2h-1.3
	v-0.8c0-0.9,0-0.9,1-1C348.4,26.3,348.4,26.4,348.4,28.2z M346.9,30.3c-0.4,0.4,0,2.1,0.5,2.3c0.6,0.2,0.9-1.3,0.5-2.1
	C347.8,30.2,347.1,30.1,346.9,30.3z M343.9,32.2c0.3,1.3,1.8,4.1,2.5,5.3l-0.3,0.5c-0.3,0.6-0.3,1.2,0,1.5c1.3,1.2,3.7,3.7,4.7,4.3
	c1.1,0.7,3.6,0.5,1.8-2c-0.8-1.1-2.4-2.5-3.2-3.6c-0.4-0.5-0.6-0.6-0.9-0.6c-0.5,0-0.7,0.3-0.4,0.5c0.3,0.1,0.3,0.8,0.1,1.3
	c-0.4,0.7-1.8-0.1-1.5-0.8c0.1-0.2,0.3-0.4,0.4-0.4c0.4,0,0.7-0.6,0.4-0.7c-0.1-0.1-0.4-0.5-0.7-1c-1-2-1.8-3.4-2.4-4.2
	C343.9,31.3,343.7,31.2,343.9,32.2z M353.6,38.5c-0.5,0.4-0.1,0.6,1.2,0.6c1.4,0,2-0.3,1.6-0.6C356.1,38.3,353.9,38.3,353.6,38.5z
	 M338.8,38.8c-0.6,0.2-0.1,0.5,0.9,0.6c1,0.1,1.5,0,1.5-0.3C341.1,38.7,339.6,38.5,338.8,38.8z M347.2,45.6c-0.1,1,0.1,1.6,0.6,1.6
	c0.6,0,0.8-0.3,0.5-1.3C347.9,44.8,347.3,44.6,347.2,45.6z"/>
<path d="M378.7,35.4c-0.1-0.3-0.2-0.5-0.3-0.7c-0.1-0.2-0.3-0.4-0.5-0.5c-0.2-0.2-0.4-0.3-0.7-0.3c-0.3-0.1-0.6-0.1-0.9-0.1
	c-0.6,0-1.1,0.1-1.6,0.4c-0.4,0.3-0.8,0.7-1,1.3c-0.2,0.6-0.4,1.2-0.4,2.1s0.1,1.5,0.4,2.1c0.2,0.6,0.6,1,1,1.3
	c0.5,0.3,1,0.4,1.6,0.4c0.6,0,1-0.1,1.4-0.3c0.4-0.2,0.7-0.5,0.9-0.8c0.2-0.4,0.3-0.8,0.3-1.3l0.5,0.1h-3V37h4.9v1.5
	c0,1-0.2,1.9-0.6,2.6c-0.4,0.7-1,1.3-1.8,1.7c-0.8,0.4-1.6,0.6-2.6,0.6c-1.1,0-2.1-0.2-2.9-0.7c-0.8-0.5-1.5-1.2-1.9-2.1
	c-0.5-0.9-0.7-2-0.7-3.2c0-0.9,0.1-1.8,0.4-2.5c0.3-0.7,0.7-1.4,1.2-1.9c0.5-0.5,1.1-0.9,1.7-1.2c0.7-0.3,1.4-0.4,2.1-0.4
	c0.7,0,1.3,0.1,1.8,0.3c0.6,0.2,1.1,0.5,1.5,0.8c0.4,0.3,0.8,0.8,1.1,1.2c0.3,0.5,0.5,1,0.5,1.6H378.7z M385.6,43.4
	c-0.6,0-1.1-0.1-1.5-0.3c-0.4-0.2-0.8-0.5-1-0.9c-0.2-0.4-0.4-0.9-0.4-1.4c0-0.5,0.1-0.9,0.3-1.2c0.2-0.3,0.4-0.6,0.7-0.8
	c0.3-0.2,0.7-0.4,1-0.5c0.4-0.1,0.8-0.2,1.2-0.2c0.5-0.1,0.9-0.1,1.2-0.1c0.3,0,0.5-0.1,0.7-0.2c0.1-0.1,0.2-0.2,0.2-0.4v0
	c0-0.4-0.1-0.6-0.3-0.8c-0.2-0.2-0.5-0.3-1-0.3c-0.4,0-0.8,0.1-1,0.3c-0.3,0.2-0.4,0.4-0.5,0.7L383,37c0.1-0.5,0.3-1,0.7-1.4
	c0.3-0.4,0.8-0.7,1.3-0.9c0.5-0.2,1.1-0.3,1.8-0.3c0.5,0,0.9,0.1,1.4,0.2c0.4,0.1,0.8,0.3,1.2,0.5c0.3,0.2,0.6,0.5,0.8,0.9
	c0.2,0.4,0.3,0.8,0.3,1.3v5.9h-2.3V42h-0.1c-0.1,0.3-0.3,0.5-0.6,0.7c-0.2,0.2-0.5,0.4-0.8,0.5C386.4,43.4,386,43.4,385.6,43.4z
	 M386.3,41.7c0.4,0,0.7-0.1,0.9-0.2c0.3-0.1,0.5-0.3,0.6-0.6c0.2-0.2,0.2-0.5,0.2-0.8v-0.9c-0.1,0-0.2,0.1-0.3,0.1
	c-0.1,0-0.3,0.1-0.4,0.1c-0.2,0-0.3,0.1-0.5,0.1c-0.2,0-0.3,0-0.4,0.1c-0.3,0-0.5,0.1-0.7,0.2c-0.2,0.1-0.4,0.2-0.5,0.4
	c-0.1,0.2-0.2,0.3-0.2,0.6c0,0.3,0.1,0.6,0.4,0.8C385.6,41.7,385.9,41.7,386.3,41.7z M392.4,43.2v-8.7h2.3v1.5h0.1
	c0.2-0.5,0.5-0.9,0.9-1.2c0.4-0.3,0.9-0.4,1.5-0.4c0.6,0,1.1,0.1,1.5,0.4c0.4,0.3,0.7,0.7,0.8,1.2h0.1c0.2-0.5,0.5-0.9,1-1.2
	c0.5-0.3,1-0.5,1.7-0.5c0.8,0,1.5,0.3,2,0.8c0.5,0.5,0.8,1.2,0.8,2.2v5.9h-2.4v-5.4c0-0.5-0.1-0.8-0.4-1.1c-0.3-0.2-0.6-0.4-1-0.4
	c-0.4,0-0.8,0.1-1,0.4c-0.2,0.3-0.4,0.6-0.4,1.1v5.3h-2.3v-5.4c0-0.4-0.1-0.8-0.4-1c-0.2-0.3-0.6-0.4-1-0.4c-0.3,0-0.5,0.1-0.7,0.2
	c-0.2,0.1-0.4,0.3-0.5,0.6c-0.1,0.2-0.2,0.5-0.2,0.8v5.2H392.4z M411,43.4c-0.9,0-1.7-0.2-2.3-0.5c-0.6-0.4-1.1-0.9-1.5-1.6
	c-0.3-0.7-0.5-1.5-0.5-2.4c0-0.9,0.2-1.7,0.5-2.4c0.3-0.7,0.8-1.2,1.5-1.6c0.6-0.4,1.4-0.6,2.2-0.6c0.6,0,1.1,0.1,1.6,0.3
	c0.5,0.2,0.9,0.5,1.3,0.8c0.4,0.4,0.7,0.8,0.9,1.4c0.2,0.6,0.3,1.2,0.3,1.9v0.7h-7.4V38h5.1c0-0.3-0.1-0.7-0.2-0.9
	c-0.2-0.3-0.4-0.5-0.6-0.6c-0.3-0.2-0.6-0.2-0.9-0.2c-0.4,0-0.7,0.1-1,0.3c-0.3,0.2-0.5,0.4-0.7,0.7c-0.2,0.3-0.2,0.6-0.2,0.9v1.4
	c0,0.4,0.1,0.8,0.2,1.1c0.2,0.3,0.4,0.6,0.7,0.7c0.3,0.2,0.6,0.3,1.1,0.3c0.3,0,0.5,0,0.7-0.1c0.2-0.1,0.4-0.2,0.6-0.3
	c0.2-0.2,0.3-0.3,0.4-0.6l2.2,0.1c-0.1,0.5-0.3,1-0.7,1.4c-0.3,0.4-0.8,0.7-1.4,0.9C412.3,43.3,411.7,43.4,411,43.4z M423.5,43.4
	c-0.7,0-1.3-0.2-1.8-0.5c-0.5-0.3-1-0.9-1.3-1.5c-0.3-0.7-0.5-1.5-0.5-2.5c0-1,0.2-1.8,0.5-2.5c0.3-0.7,0.8-1.2,1.3-1.5
	c0.5-0.3,1.1-0.5,1.8-0.5c0.5,0,0.9,0.1,1.2,0.2c0.3,0.2,0.6,0.4,0.8,0.6c0.2,0.2,0.4,0.5,0.5,0.7h0.1v-4.4h2.4v11.6H426v-1.4h-0.1
	c-0.1,0.2-0.3,0.5-0.5,0.7c-0.2,0.2-0.5,0.4-0.8,0.6C424.3,43.3,423.9,43.4,423.5,43.4z M424.2,41.5c0.4,0,0.7-0.1,1-0.3
	c0.3-0.2,0.5-0.5,0.6-0.9c0.1-0.4,0.2-0.8,0.2-1.4c0-0.5-0.1-1-0.2-1.4c-0.1-0.4-0.4-0.7-0.6-0.9c-0.3-0.2-0.6-0.3-1-0.3
	c-0.4,0-0.7,0.1-1,0.3c-0.3,0.2-0.5,0.5-0.6,0.9c-0.1,0.4-0.2,0.8-0.2,1.3c0,0.5,0.1,1,0.2,1.3c0.1,0.4,0.4,0.7,0.6,0.9
	C423.5,41.4,423.8,41.5,424.2,41.5z M436,39.5v-5h2.4v8.7h-2.3v-1.6H436c-0.2,0.5-0.5,0.9-1,1.2c-0.5,0.3-1,0.5-1.7,0.5
	c-0.6,0-1.1-0.1-1.5-0.4c-0.4-0.3-0.8-0.6-1-1.1c-0.2-0.5-0.4-1.1-0.4-1.8v-5.6h2.4v5.1c0,0.5,0.1,0.9,0.4,1.2
	c0.3,0.3,0.6,0.4,1.1,0.4c0.3,0,0.6-0.1,0.8-0.2c0.3-0.1,0.5-0.3,0.6-0.6C436,40.2,436,39.9,436,39.5z M440.4,43.2v-8.7h2.3V36h0.1
	c0.2-0.5,0.4-1,0.8-1.2c0.4-0.3,0.8-0.4,1.3-0.4c0.1,0,0.3,0,0.4,0c0.1,0,0.3,0,0.4,0.1v2.1c-0.1,0-0.3-0.1-0.5-0.1
	c-0.2,0-0.4,0-0.6,0c-0.4,0-0.7,0.1-1,0.2c-0.3,0.2-0.5,0.4-0.7,0.6c-0.2,0.3-0.2,0.6-0.2,0.9v4.9H440.4z M449.2,43.4
	c-0.6,0-1.1-0.1-1.5-0.3c-0.4-0.2-0.8-0.5-1-0.9c-0.2-0.4-0.4-0.9-0.4-1.4c0-0.5,0.1-0.9,0.3-1.2c0.2-0.3,0.4-0.6,0.7-0.8
	c0.3-0.2,0.7-0.4,1-0.5c0.4-0.1,0.8-0.2,1.2-0.2c0.5-0.1,0.9-0.1,1.2-0.1c0.3,0,0.5-0.1,0.7-0.2c0.1-0.1,0.2-0.2,0.2-0.4v0
	c0-0.4-0.1-0.6-0.3-0.8c-0.2-0.2-0.5-0.3-1-0.3c-0.4,0-0.8,0.1-1,0.3c-0.3,0.2-0.4,0.4-0.5,0.7l-2.2-0.2c0.1-0.5,0.3-1,0.7-1.4
	c0.3-0.4,0.8-0.7,1.3-0.9c0.5-0.2,1.1-0.3,1.8-0.3c0.5,0,0.9,0.1,1.4,0.2c0.4,0.1,0.8,0.3,1.2,0.5c0.3,0.2,0.6,0.5,0.8,0.9
	c0.2,0.4,0.3,0.8,0.3,1.3v5.9h-2.3V42h-0.1c-0.1,0.3-0.3,0.5-0.6,0.7c-0.2,0.2-0.5,0.4-0.8,0.5C450,43.4,449.6,43.4,449.2,43.4z
	 M449.9,41.7c0.4,0,0.7-0.1,0.9-0.2c0.3-0.1,0.5-0.3,0.6-0.6c0.2-0.2,0.2-0.5,0.2-0.8v-0.9c-0.1,0-0.2,0.1-0.3,0.1
	c-0.1,0-0.3,0.1-0.4,0.1c-0.2,0-0.3,0.1-0.5,0.1c-0.2,0-0.3,0-0.4,0.1c-0.3,0-0.5,0.1-0.7,0.2s-0.4,0.2-0.5,0.4
	c-0.1,0.2-0.2,0.3-0.2,0.6c0,0.3,0.1,0.6,0.4,0.8C449.2,41.7,449.5,41.7,449.9,41.7z M460.6,34.5v1.8h-5.3v-1.8H460.6z M456.5,32.4
	h2.4v8.1c0,0.2,0,0.4,0.1,0.5c0.1,0.1,0.2,0.2,0.3,0.3c0.1,0,0.3,0.1,0.4,0.1c0.1,0,0.2,0,0.3,0c0.1,0,0.2,0,0.3-0.1l0.4,1.8
	c-0.1,0-0.3,0.1-0.5,0.1c-0.2,0.1-0.5,0.1-0.8,0.1c-0.6,0-1.1-0.1-1.5-0.2c-0.4-0.2-0.8-0.5-1-0.8c-0.2-0.4-0.4-0.8-0.4-1.4V32.4z
	 M462.2,43.2v-8.7h2.4v8.7H462.2z M463.4,33.4c-0.4,0-0.7-0.1-0.9-0.4c-0.3-0.2-0.4-0.5-0.4-0.9c0-0.3,0.1-0.6,0.4-0.9
	c0.3-0.2,0.6-0.4,0.9-0.4c0.4,0,0.7,0.1,0.9,0.4c0.3,0.2,0.4,0.5,0.4,0.9c0,0.3-0.1,0.6-0.4,0.9C464.1,33.3,463.8,33.4,463.4,33.4z
	 M470.5,43.4c-0.9,0-1.6-0.2-2.3-0.6c-0.6-0.4-1.1-0.9-1.5-1.6c-0.3-0.7-0.5-1.5-0.5-2.4c0-0.9,0.2-1.7,0.5-2.4
	c0.3-0.7,0.8-1.2,1.5-1.6c0.6-0.4,1.4-0.6,2.3-0.6c0.9,0,1.6,0.2,2.3,0.6c0.6,0.4,1.1,0.9,1.5,1.6c0.3,0.7,0.5,1.5,0.5,2.4
	c0,0.9-0.2,1.7-0.5,2.4c-0.3,0.7-0.8,1.2-1.5,1.6C472.1,43.2,471.4,43.4,470.5,43.4z M470.5,41.5c0.4,0,0.7-0.1,1-0.3
	c0.3-0.2,0.5-0.5,0.6-0.9c0.1-0.4,0.2-0.9,0.2-1.4c0-0.5-0.1-1-0.2-1.4c-0.1-0.4-0.3-0.7-0.6-0.9c-0.3-0.2-0.6-0.3-1-0.3
	c-0.4,0-0.7,0.1-1,0.3c-0.3,0.2-0.5,0.5-0.6,0.9c-0.1,0.4-0.2,0.9-0.2,1.4c0,0.5,0.1,1,0.2,1.4c0.1,0.4,0.3,0.7,0.6,0.9
	C469.7,41.4,470.1,41.5,470.5,41.5z M478.8,38.2v5h-2.4v-8.7h2.3v1.5h0.1c0.2-0.5,0.5-0.9,1-1.2c0.5-0.3,1-0.4,1.7-0.4
	c0.6,0,1.1,0.1,1.6,0.4c0.5,0.3,0.8,0.6,1.1,1.1c0.2,0.5,0.4,1.1,0.4,1.8v5.6H482v-5.1c0-0.5-0.1-1-0.4-1.2
	c-0.3-0.3-0.7-0.5-1.1-0.5c-0.3,0-0.6,0.1-0.9,0.2c-0.2,0.1-0.4,0.3-0.6,0.6C478.8,37.5,478.8,37.8,478.8,38.2z M487.7,43.4
	c-0.4,0-0.7-0.1-1-0.4c-0.3-0.3-0.4-0.6-0.4-1c0-0.4,0.1-0.7,0.4-1c0.3-0.3,0.6-0.4,1-0.4c0.4,0,0.7,0.1,1,0.4
	c0.3,0.3,0.4,0.6,0.4,1c0,0.2-0.1,0.5-0.2,0.7c-0.1,0.2-0.3,0.4-0.5,0.5C488.2,43.3,488,43.4,487.7,43.4z M487.7,37.3
	c-0.4,0-0.7-0.1-1-0.4c-0.3-0.3-0.4-0.6-0.4-1c0-0.4,0.1-0.7,0.4-0.9c0.3-0.3,0.6-0.4,1-0.4c0.4,0,0.7,0.1,1,0.4
	c0.3,0.3,0.4,0.6,0.4,0.9c0,0.3-0.1,0.5-0.2,0.7c-0.1,0.2-0.3,0.4-0.5,0.5C488.2,37.2,488,37.3,487.7,37.3z"/>
<path d="M512.5,31.6v11.6h-1.8v-9.9h-0.1l-2.8,1.8v-1.7l2.9-1.9H512.5z M516.1,43.4c-0.3,0-0.6-0.1-0.8-0.3
	c-0.2-0.2-0.3-0.5-0.3-0.8c0-0.3,0.1-0.6,0.3-0.8c0.2-0.2,0.5-0.3,0.8-0.3c0.3,0,0.6,0.1,0.8,0.3c0.2,0.2,0.3,0.5,0.3,0.8
	c0,0.2-0.1,0.4-0.2,0.6c-0.1,0.2-0.2,0.3-0.4,0.4C516.5,43.3,516.3,43.4,516.1,43.4z M523.2,43.4c-0.7,0-1.4-0.1-1.9-0.4
	c-0.6-0.3-1-0.7-1.4-1.1c-0.3-0.5-0.5-1-0.5-1.6h1.7c0,0.5,0.3,0.9,0.7,1.2c0.4,0.3,0.9,0.5,1.4,0.5c0.4,0,0.8-0.1,1.2-0.3
	c0.3-0.2,0.6-0.5,0.8-0.9c0.2-0.4,0.3-0.8,0.3-1.2c0-0.5-0.1-0.9-0.3-1.3c-0.2-0.4-0.5-0.7-0.8-0.9c-0.4-0.2-0.8-0.3-1.2-0.3
	c-0.4,0-0.7,0.1-1.1,0.2c-0.4,0.1-0.6,0.3-0.9,0.5l-1.6-0.2l0.7-5.9h6.4v1.5h-4.9l-0.4,3.3h0.1c0.2-0.2,0.5-0.4,0.9-0.6
	c0.4-0.1,0.8-0.2,1.2-0.2c0.7,0,1.3,0.2,1.9,0.5c0.6,0.3,1,0.8,1.3,1.4c0.3,0.6,0.5,1.2,0.5,2c0,0.8-0.2,1.4-0.5,2
	c-0.3,0.6-0.8,1.1-1.4,1.4C524.6,43.2,524,43.4,523.2,43.4z M535.2,38.1v5.2h-1.7V31.6h1.7v4.3h0.1c0.2-0.5,0.5-0.8,0.9-1.1
	c0.4-0.3,1-0.4,1.6-0.4c0.6,0,1.1,0.1,1.6,0.4c0.4,0.2,0.8,0.6,1,1.1c0.2,0.5,0.4,1.1,0.4,1.8v5.6h-1.7v-5.3c0-0.6-0.2-1.1-0.5-1.5
	c-0.3-0.4-0.8-0.5-1.4-0.5c-0.4,0-0.8,0.1-1.1,0.3c-0.3,0.2-0.6,0.4-0.7,0.8C535.3,37.2,535.2,37.6,535.2,38.1z M546.8,43.4
	c-0.8,0-1.5-0.2-2.1-0.6c-0.6-0.4-1.1-0.9-1.4-1.6c-0.3-0.7-0.5-1.5-0.5-2.4c0-0.9,0.2-1.7,0.5-2.4c0.3-0.7,0.8-1.2,1.4-1.6
	c0.6-0.4,1.3-0.6,2.1-0.6c0.8,0,1.5,0.2,2.1,0.6c0.6,0.4,1.1,0.9,1.4,1.6c0.3,0.7,0.5,1.5,0.5,2.4c0,0.9-0.2,1.7-0.5,2.4
	c-0.3,0.7-0.8,1.2-1.4,1.6C548.3,43.2,547.6,43.4,546.8,43.4z M546.8,42c0.5,0,1-0.1,1.3-0.4c0.3-0.3,0.6-0.7,0.8-1.1
	c0.2-0.5,0.3-1,0.3-1.5c0-0.6-0.1-1.1-0.3-1.5c-0.2-0.5-0.4-0.8-0.8-1.1c-0.3-0.3-0.8-0.4-1.3-0.4c-0.5,0-1,0.1-1.3,0.4
	c-0.3,0.3-0.6,0.7-0.8,1.1c-0.2,0.5-0.2,1-0.2,1.5c0,0.6,0.1,1.1,0.2,1.5c0.2,0.5,0.4,0.8,0.8,1.1C545.8,41.9,546.3,42,546.8,42z
	 M558.3,39.6v-5.1h1.7v8.7h-1.7v-1.5h-0.1c-0.2,0.5-0.5,0.9-1,1.2c-0.4,0.3-1,0.5-1.6,0.5c-0.6,0-1.1-0.1-1.5-0.4
	c-0.4-0.2-0.8-0.6-1-1.1c-0.2-0.5-0.4-1.1-0.4-1.8v-5.6h1.7v5.3c0,0.6,0.2,1.1,0.5,1.4c0.3,0.4,0.8,0.5,1.3,0.5
	c0.3,0,0.6-0.1,0.9-0.2c0.3-0.2,0.6-0.4,0.8-0.7C558.2,40.5,558.3,40.1,558.3,39.6z M562.3,43.2v-8.7h1.6v1.4h0.1
	c0.2-0.5,0.4-0.8,0.8-1.1c0.4-0.3,0.9-0.4,1.4-0.4c0.1,0,0.2,0,0.4,0c0.1,0,0.3,0,0.3,0v1.6c-0.1,0-0.2,0-0.4-0.1
	c-0.2,0-0.3,0-0.5,0c-0.4,0-0.8,0.1-1.1,0.3c-0.3,0.2-0.6,0.4-0.7,0.7c-0.2,0.3-0.3,0.6-0.3,1v5.3H562.3z M575,36.6l-1.5,0.3
	c-0.1-0.2-0.2-0.4-0.3-0.6c-0.1-0.2-0.3-0.3-0.6-0.4c-0.2-0.1-0.5-0.2-0.9-0.2c-0.5,0-0.9,0.1-1.2,0.3c-0.3,0.2-0.5,0.5-0.5,0.8
	c0,0.3,0.1,0.5,0.3,0.7c0.2,0.2,0.6,0.3,1,0.4l1.4,0.3c0.8,0.2,1.4,0.5,1.8,0.9c0.4,0.4,0.6,0.9,0.6,1.5c0,0.5-0.2,1-0.5,1.4
	c-0.3,0.4-0.7,0.7-1.3,1c-0.5,0.2-1.2,0.3-1.9,0.3c-1,0-1.8-0.2-2.4-0.6c-0.6-0.4-1-1-1.1-1.8l1.6-0.2c0.1,0.4,0.3,0.8,0.6,1
	c0.3,0.2,0.7,0.3,1.2,0.3c0.6,0,1-0.1,1.3-0.3c0.3-0.2,0.5-0.5,0.5-0.9c0-0.3-0.1-0.5-0.3-0.7c-0.2-0.2-0.5-0.3-0.9-0.4l-1.5-0.3
	c-0.8-0.2-1.4-0.5-1.8-0.9c-0.4-0.4-0.6-0.9-0.6-1.5c0-0.5,0.1-1,0.4-1.4c0.3-0.4,0.7-0.7,1.2-0.9c0.5-0.2,1.1-0.3,1.7-0.3
	c0.9,0,1.7,0.2,2.2,0.6C574.4,35.4,574.8,36,575,36.6z"/>
<path class="st1" d="M35.5,85.1c-3.4,0.3-3.9,0.7-4.7,3.1c-3.6,11.7-3.7,19.1-3.7,18.6c0,0.7,0.1,1.4,0.5,2c0.8,1.5,1.7,2,3.7,2.4
	c4.7,0.9,9.3,0,11.6-0.9c2.1-0.8,1.5-1.2,2-2.8c1.5-4.7,4-15.5,3.5-19.3c-0.1-0.6-0.3-0.6-0.6-0.9c-0.9-0.7-1.3-1.8-2.5-2.1
	C42.7,84.6,36.8,84.9,35.5,85.1z M43.6,85.9l0.8,0.1c0.3,0.1,0.5,0.3,0.5,0.7v1c0,4.5-2.4,14.7-4.2,17.9c-1.4,2.4-1.7,2.6-6.1,2.7
	c-5.5,0.1-6.4-0.3-6.2-2.7c0.1-2.1,1.5-9.2,2.4-12.7c0.2-0.6,0.5-1.9,0.7-2.8c0.7-2.9,2.8-4.5,3.6-2.7c0.2,0.4,0.4,0.6,1.1,0.7
	c1.2,0.2,5.4-0.2,5.4-0.2c0.4,0,0.8-0.3,0.9-0.7C42.7,86.5,43.1,85.8,43.6,85.9z M41.9,86.3c-0.1,0.3-0.3,0.5-0.5,0.6
	c-0.4,0.1-1.2,0.1-2.6,0.2l-2.6,0c-0.1,0-0.3-0.1-0.3-0.2l-0.4-0.5c-0.1-0.3-0.1-0.3,0.5-0.4c0.7-0.1,4.8-0.2,5.9-0.2
	C42,85.9,42.1,85.8,41.9,86.3z M43.5,108.1c-0.1,0.3-0.4,0.3-0.6,0.1c-0.2-0.3-0.4-0.6-0.7-1c-0.1-0.2-0.2-0.5-0.1-0.7
	c2.2-5.7,2.9-8.7,4.3-18.6c0-0.1,0.1-0.1,0.2-0.2c0.1,0,0.2,0,0.2,0.1l0.5,0.7c0.2,0.3,0.3,0.6,0.3,0.9
	C47.4,93.5,44.4,105.3,43.5,108.1z M42.1,109.7c-0.2,0.1-1.1,0.3-1.9,0.5c-3.3,0.8-8.1,0.5-10-0.1c-0.1,0-1.5-1.5-0.9-1.4
	c0.3,0,1.6,0.3,2.1,0.3c3,0.3,6.6,0.2,8.6-0.5c1-0.4,0.9-1.1,1.2-0.9C41.2,107.6,42.9,109.3,42.1,109.7z"/>
<path d="M64.6,103.7h-4.1V92.1h4.2c1.2,0,2.2,0.2,3,0.7c0.8,0.5,1.5,1.1,1.9,2c0.5,0.9,0.7,1.9,0.7,3.1c0,1.2-0.2,2.3-0.7,3.1
	c-0.5,0.9-1.1,1.5-2,2C66.8,103.5,65.8,103.7,64.6,103.7z M63,101.6h1.6c0.7,0,1.3-0.1,1.8-0.4c0.5-0.3,0.9-0.7,1.1-1.2
	c0.3-0.5,0.4-1.3,0.4-2.1c0-0.9-0.1-1.6-0.4-2.1c-0.2-0.5-0.6-0.9-1.1-1.2c-0.5-0.3-1.1-0.4-1.8-0.4H63V101.6z M76.1,103.9
	c-0.9,0-1.7-0.2-2.3-0.5c-0.6-0.4-1.1-0.9-1.5-1.6c-0.3-0.7-0.5-1.5-0.5-2.4c0-0.9,0.2-1.7,0.5-2.4c0.3-0.7,0.8-1.2,1.5-1.6
	c0.6-0.4,1.4-0.6,2.2-0.6c0.6,0,1.1,0.1,1.6,0.3c0.5,0.2,0.9,0.5,1.3,0.8c0.4,0.4,0.7,0.8,0.9,1.4c0.2,0.6,0.3,1.2,0.3,1.9v0.7h-7.4
	v-1.5h5.1c0-0.3-0.1-0.7-0.2-0.9c-0.2-0.3-0.4-0.5-0.6-0.6c-0.3-0.2-0.6-0.2-0.9-0.2c-0.4,0-0.7,0.1-1,0.3c-0.3,0.2-0.5,0.4-0.7,0.7
	c-0.2,0.3-0.2,0.6-0.2,0.9v1.4c0,0.4,0.1,0.8,0.2,1.1c0.2,0.3,0.4,0.6,0.7,0.7c0.3,0.2,0.6,0.3,1.1,0.3c0.3,0,0.5,0,0.7-0.1
	c0.2-0.1,0.4-0.2,0.6-0.3c0.2-0.2,0.3-0.3,0.4-0.6l2.2,0.1c-0.1,0.5-0.3,1-0.7,1.4c-0.3,0.4-0.8,0.7-1.4,0.9
	C77.4,103.8,76.8,103.9,76.1,103.9z M89.6,95l-3.1,8.7h-2.7L80.7,95h2.6l1.8,6.2h0.1L87,95H89.6z M90.8,103.7V95h2.4v8.7H90.8z
	 M92,93.9c-0.4,0-0.7-0.1-0.9-0.4c-0.3-0.2-0.4-0.5-0.4-0.9c0-0.3,0.1-0.6,0.4-0.9c0.3-0.2,0.6-0.4,0.9-0.4c0.4,0,0.7,0.1,0.9,0.4
	c0.3,0.2,0.4,0.5,0.4,0.9c0,0.3-0.1,0.6-0.4,0.9C92.7,93.8,92.4,93.9,92,93.9z M99.1,103.9c-0.9,0-1.7-0.2-2.3-0.6
	c-0.6-0.4-1.1-0.9-1.5-1.6c-0.3-0.7-0.5-1.5-0.5-2.3c0-0.9,0.2-1.7,0.5-2.4c0.3-0.7,0.8-1.2,1.5-1.6c0.6-0.4,1.4-0.6,2.3-0.6
	c0.8,0,1.4,0.1,2,0.4c0.6,0.3,1,0.7,1.4,1.2s0.5,1.1,0.6,1.8h-2.3c-0.1-0.4-0.2-0.8-0.5-1.1c-0.3-0.3-0.6-0.4-1.1-0.4
	c-0.4,0-0.7,0.1-1,0.3c-0.3,0.2-0.5,0.5-0.6,0.9c-0.2,0.4-0.2,0.9-0.2,1.4c0,0.6,0.1,1,0.2,1.4c0.2,0.4,0.4,0.7,0.7,0.9
	c0.3,0.2,0.6,0.3,1,0.3c0.3,0,0.5-0.1,0.7-0.2c0.2-0.1,0.4-0.3,0.6-0.5c0.1-0.2,0.2-0.5,0.3-0.8h2.3c0,0.7-0.2,1.3-0.5,1.8
	c-0.3,0.5-0.8,0.9-1.3,1.2C100.5,103.8,99.9,103.9,99.1,103.9z M108.5,103.9c-0.9,0-1.7-0.2-2.3-0.5c-0.6-0.4-1.1-0.9-1.5-1.6
	c-0.3-0.7-0.5-1.5-0.5-2.4c0-0.9,0.2-1.7,0.5-2.4c0.3-0.7,0.8-1.2,1.5-1.6c0.6-0.4,1.4-0.6,2.2-0.6c0.6,0,1.1,0.1,1.6,0.3
	c0.5,0.2,0.9,0.5,1.3,0.8c0.4,0.4,0.7,0.8,0.9,1.4c0.2,0.6,0.3,1.2,0.3,1.9v0.7h-7.4v-1.5h5.1c0-0.3-0.1-0.7-0.2-0.9
	c-0.2-0.3-0.4-0.5-0.6-0.6c-0.3-0.2-0.6-0.2-0.9-0.2c-0.4,0-0.7,0.1-1,0.3c-0.3,0.2-0.5,0.4-0.7,0.7c-0.2,0.3-0.2,0.6-0.2,0.9v1.4
	c0,0.4,0.1,0.8,0.2,1.1c0.2,0.3,0.4,0.6,0.7,0.7c0.3,0.2,0.6,0.3,1.1,0.3c0.3,0,0.5,0,0.7-0.1c0.2-0.1,0.4-0.2,0.6-0.3
	c0.2-0.2,0.3-0.3,0.4-0.6l2.2,0.1c-0.1,0.5-0.3,1-0.7,1.4c-0.3,0.4-0.8,0.7-1.4,0.9C109.9,103.8,109.2,103.9,108.5,103.9z
	 M121.4,97.5l-2.2,0.1c0-0.2-0.1-0.4-0.2-0.5c-0.1-0.2-0.3-0.3-0.5-0.4c-0.2-0.1-0.4-0.1-0.7-0.1c-0.4,0-0.7,0.1-0.9,0.2
	c-0.3,0.2-0.4,0.4-0.4,0.6c0,0.2,0.1,0.4,0.2,0.5c0.2,0.1,0.5,0.3,0.9,0.3l1.6,0.3c0.8,0.2,1.5,0.5,1.9,0.8c0.4,0.4,0.6,0.9,0.6,1.5
	c0,0.6-0.2,1.1-0.5,1.5c-0.3,0.4-0.8,0.8-1.4,1c-0.6,0.2-1.2,0.4-2,0.4c-1.2,0-2.1-0.2-2.8-0.7c-0.7-0.5-1.1-1.1-1.2-2l2.4-0.1
	c0.1,0.4,0.2,0.6,0.5,0.8c0.3,0.2,0.6,0.3,1.1,0.3c0.4,0,0.8-0.1,1-0.2c0.3-0.2,0.4-0.4,0.4-0.6c0-0.2-0.1-0.4-0.3-0.5
	c-0.2-0.1-0.5-0.3-0.8-0.3l-1.5-0.3c-0.9-0.2-1.5-0.5-1.9-0.9c-0.4-0.4-0.6-1-0.6-1.6c0-0.6,0.2-1,0.5-1.4c0.3-0.4,0.7-0.7,1.3-0.9
	c0.6-0.2,1.2-0.3,2-0.3c1.1,0,2,0.2,2.6,0.7C120.9,96.1,121.3,96.7,121.4,97.5z M129.2,98.7v5h-2.4V95h2.3v1.5h0.1
	c0.2-0.5,0.5-0.9,1-1.2c0.5-0.3,1-0.4,1.7-0.4c0.6,0,1.1,0.1,1.6,0.4c0.5,0.3,0.8,0.6,1.1,1.1c0.2,0.5,0.4,1.1,0.4,1.8v5.6h-2.4
	v-5.1c0-0.5-0.1-1-0.4-1.2c-0.3-0.3-0.7-0.5-1.1-0.5c-0.3,0-0.6,0.1-0.9,0.2c-0.2,0.1-0.4,0.3-0.6,0.6
	C129.3,98,129.2,98.3,129.2,98.7z M140.7,103.9c-0.9,0-1.7-0.2-2.3-0.5c-0.6-0.4-1.1-0.9-1.5-1.6c-0.3-0.7-0.5-1.5-0.5-2.4
	c0-0.9,0.2-1.7,0.5-2.4c0.3-0.7,0.8-1.2,1.5-1.6c0.6-0.4,1.4-0.6,2.2-0.6c0.6,0,1.1,0.1,1.6,0.3c0.5,0.2,0.9,0.5,1.3,0.8
	c0.4,0.4,0.7,0.8,0.9,1.4c0.2,0.6,0.3,1.2,0.3,1.9v0.7h-7.4v-1.5h5.1c0-0.3-0.1-0.7-0.2-0.9c-0.2-0.3-0.4-0.5-0.6-0.6
	c-0.3-0.2-0.6-0.2-0.9-0.2c-0.4,0-0.7,0.1-1,0.3c-0.3,0.2-0.5,0.4-0.7,0.7c-0.2,0.3-0.2,0.6-0.2,0.9v1.4c0,0.4,0.1,0.8,0.2,1.1
	c0.2,0.3,0.4,0.6,0.7,0.7c0.3,0.2,0.6,0.3,1.1,0.3c0.3,0,0.5,0,0.7-0.1c0.2-0.1,0.4-0.2,0.6-0.3c0.2-0.2,0.3-0.3,0.4-0.6l2.2,0.1
	c-0.1,0.5-0.3,1-0.7,1.4c-0.3,0.4-0.8,0.7-1.4,0.9C142.1,103.8,141.4,103.9,140.7,103.9z M150.3,103.9c-0.9,0-1.7-0.2-2.3-0.5
	c-0.6-0.4-1.1-0.9-1.5-1.6c-0.3-0.7-0.5-1.5-0.5-2.4c0-0.9,0.2-1.7,0.5-2.4c0.3-0.7,0.8-1.2,1.5-1.6c0.6-0.4,1.4-0.6,2.2-0.6
	c0.6,0,1.1,0.1,1.6,0.3c0.5,0.2,0.9,0.5,1.3,0.8c0.4,0.4,0.7,0.8,0.9,1.4c0.2,0.6,0.3,1.2,0.3,1.9v0.7h-7.4v-1.5h5.1
	c0-0.3-0.1-0.7-0.2-0.9c-0.2-0.3-0.4-0.5-0.6-0.6c-0.3-0.2-0.6-0.2-0.9-0.2c-0.4,0-0.7,0.1-1,0.3c-0.3,0.2-0.5,0.4-0.7,0.7
	c-0.2,0.3-0.2,0.6-0.2,0.9v1.4c0,0.4,0.1,0.8,0.2,1.1c0.2,0.3,0.4,0.6,0.7,0.7c0.3,0.2,0.6,0.3,1.1,0.3c0.3,0,0.5,0,0.7-0.1
	c0.2-0.1,0.4-0.2,0.6-0.3c0.2-0.2,0.3-0.3,0.4-0.6l2.2,0.1c-0.1,0.5-0.3,1-0.7,1.4c-0.3,0.4-0.8,0.7-1.4,0.9
	C151.6,103.8,151,103.9,150.3,103.9z M159.1,103.9c-0.7,0-1.3-0.2-1.8-0.5c-0.5-0.3-1-0.8-1.3-1.5c-0.3-0.7-0.5-1.5-0.5-2.5
	c0-1,0.2-1.8,0.5-2.5c0.3-0.7,0.8-1.2,1.3-1.5c0.5-0.3,1.1-0.5,1.8-0.5c0.5,0,0.9,0.1,1.2,0.2c0.3,0.2,0.6,0.4,0.8,0.6
	c0.2,0.2,0.4,0.5,0.5,0.7h0.1v-4.4h2.4v11.6h-2.4v-1.4h-0.1c-0.1,0.2-0.3,0.5-0.5,0.7c-0.2,0.2-0.5,0.4-0.8,0.6
	C160,103.8,159.6,103.9,159.1,103.9z M159.9,101.9c0.4,0,0.7-0.1,1-0.3c0.3-0.2,0.5-0.5,0.6-0.9c0.1-0.4,0.2-0.8,0.2-1.4
	c0-0.5-0.1-1-0.2-1.4s-0.4-0.7-0.6-0.9c-0.3-0.2-0.6-0.3-1-0.3c-0.4,0-0.7,0.1-1,0.3c-0.3,0.2-0.5,0.5-0.6,0.9s-0.2,0.8-0.2,1.3
	c0,0.5,0.1,1,0.2,1.3c0.1,0.4,0.4,0.7,0.6,0.9C159.1,101.8,159.5,101.9,159.9,101.9z M170,103.9c-0.9,0-1.7-0.2-2.3-0.5
	c-0.6-0.4-1.1-0.9-1.5-1.6c-0.3-0.7-0.5-1.5-0.5-2.4c0-0.9,0.2-1.7,0.5-2.4c0.3-0.7,0.8-1.2,1.5-1.6c0.6-0.4,1.4-0.6,2.2-0.6
	c0.6,0,1.1,0.1,1.6,0.3c0.5,0.2,0.9,0.5,1.3,0.8c0.4,0.4,0.7,0.8,0.9,1.4c0.2,0.6,0.3,1.2,0.3,1.9v0.7h-7.4v-1.5h5.1
	c0-0.3-0.1-0.7-0.2-0.9c-0.2-0.3-0.4-0.5-0.6-0.6c-0.3-0.2-0.6-0.2-0.9-0.2c-0.4,0-0.7,0.1-1,0.3c-0.3,0.2-0.5,0.4-0.7,0.7
	c-0.2,0.3-0.2,0.6-0.2,0.9v1.4c0,0.4,0.1,0.8,0.2,1.1c0.2,0.3,0.4,0.6,0.7,0.7c0.3,0.2,0.6,0.3,1.1,0.3c0.3,0,0.5,0,0.7-0.1
	c0.2-0.1,0.4-0.2,0.6-0.3c0.2-0.2,0.3-0.3,0.4-0.6l2.2,0.1c-0.1,0.5-0.3,1-0.7,1.4c-0.3,0.4-0.8,0.7-1.4,0.9
	C171.4,103.8,170.7,103.9,170,103.9z M178.8,103.9c-0.7,0-1.3-0.2-1.8-0.5c-0.5-0.3-1-0.8-1.3-1.5c-0.3-0.7-0.5-1.5-0.5-2.5
	c0-1,0.2-1.8,0.5-2.5c0.3-0.7,0.8-1.2,1.3-1.5c0.5-0.3,1.1-0.5,1.8-0.5c0.5,0,0.9,0.1,1.2,0.2c0.3,0.2,0.6,0.4,0.8,0.6
	c0.2,0.2,0.4,0.5,0.5,0.7h0.1v-4.4h2.4v11.6h-2.4v-1.4h-0.1c-0.1,0.2-0.3,0.5-0.5,0.7c-0.2,0.2-0.5,0.4-0.8,0.6
	C179.7,103.8,179.3,103.9,178.8,103.9z M179.6,101.9c0.4,0,0.7-0.1,1-0.3c0.3-0.2,0.5-0.5,0.6-0.9c0.1-0.4,0.2-0.8,0.2-1.4
	c0-0.5-0.1-1-0.2-1.4s-0.4-0.7-0.6-0.9c-0.3-0.2-0.6-0.3-1-0.3c-0.4,0-0.7,0.1-1,0.3c-0.3,0.2-0.5,0.5-0.6,0.9
	c-0.1,0.4-0.2,0.8-0.2,1.3c0,0.5,0.1,1,0.2,1.3c0.1,0.4,0.4,0.7,0.6,0.9C178.9,101.8,179.2,101.9,179.6,101.9z M187.2,103.9
	c-0.4,0-0.7-0.1-1-0.4c-0.3-0.3-0.4-0.6-0.4-1c0-0.4,0.1-0.7,0.4-1c0.3-0.3,0.6-0.4,1-0.4c0.4,0,0.7,0.1,1,0.4
	c0.3,0.3,0.4,0.6,0.4,1c0,0.2-0.1,0.5-0.2,0.7c-0.1,0.2-0.3,0.4-0.5,0.5C187.7,103.8,187.4,103.9,187.2,103.9z M187.2,97.8
	c-0.4,0-0.7-0.1-1-0.4c-0.3-0.3-0.4-0.6-0.4-1c0-0.4,0.1-0.7,0.4-0.9c0.3-0.3,0.6-0.4,1-0.4c0.4,0,0.7,0.1,1,0.4
	c0.3,0.3,0.4,0.6,0.4,0.9c0,0.3-0.1,0.5-0.2,0.7c-0.1,0.2-0.3,0.4-0.5,0.5C187.7,97.7,187.4,97.8,187.2,97.8z"/>
<path d="M207.8,92.1h2.1l3.7,9h0.1l3.7-9h2.1v11.6h-1.7v-8.4h-0.1l-3.4,8.4H213l-3.4-8.4h-0.1v8.4h-1.7V92.1z M225.7,103.9
	c-0.8,0-1.5-0.2-2.1-0.6s-1.1-0.9-1.4-1.6c-0.3-0.7-0.5-1.5-0.5-2.4c0-0.9,0.2-1.7,0.5-2.4c0.3-0.7,0.8-1.2,1.4-1.6s1.3-0.6,2.1-0.6
	s1.5,0.2,2.1,0.6s1.1,0.9,1.4,1.6c0.3,0.7,0.5,1.5,0.5,2.4c0,0.9-0.2,1.7-0.5,2.4c-0.3,0.7-0.8,1.2-1.4,1.6S226.5,103.9,225.7,103.9
	z M225.7,102.5c0.5,0,1-0.1,1.3-0.4c0.3-0.3,0.6-0.7,0.8-1.1c0.2-0.5,0.3-1,0.3-1.5c0-0.6-0.1-1.1-0.3-1.5c-0.2-0.5-0.4-0.8-0.8-1.1
	c-0.3-0.3-0.8-0.4-1.3-0.4c-0.5,0-1,0.1-1.3,0.4c-0.3,0.3-0.6,0.7-0.8,1.1c-0.2,0.5-0.2,1-0.2,1.5c0,0.6,0.1,1.1,0.2,1.5
	c0.2,0.5,0.4,0.8,0.8,1.1C224.7,102.3,225.1,102.5,225.7,102.5z M231.8,103.7V92.1h1.7v4.3h0.1c0.1-0.2,0.2-0.4,0.4-0.6
	c0.2-0.2,0.4-0.4,0.8-0.6c0.3-0.2,0.8-0.3,1.3-0.3c0.7,0,1.3,0.2,1.9,0.5c0.6,0.4,1,0.9,1.3,1.5c0.3,0.7,0.5,1.5,0.5,2.4
	s-0.2,1.8-0.5,2.4c-0.3,0.7-0.7,1.2-1.3,1.6c-0.5,0.4-1.2,0.5-1.9,0.5c-0.5,0-1-0.1-1.3-0.3c-0.3-0.2-0.6-0.4-0.8-0.6
	c-0.2-0.2-0.3-0.5-0.4-0.6h-0.1v1.4H231.8z M233.4,99.4c0,0.6,0.1,1.2,0.3,1.6c0.2,0.5,0.4,0.8,0.8,1.1c0.3,0.3,0.8,0.4,1.2,0.4
	c0.5,0,0.9-0.1,1.3-0.4c0.3-0.3,0.6-0.6,0.8-1.1c0.2-0.5,0.3-1,0.3-1.6c0-0.6-0.1-1.1-0.3-1.6c-0.2-0.5-0.4-0.8-0.8-1.1
	c-0.3-0.3-0.8-0.4-1.3-0.4c-0.5,0-0.9,0.1-1.2,0.4c-0.3,0.3-0.6,0.6-0.8,1.1C233.5,98.2,233.4,98.8,233.4,99.4z M241.6,103.7V95h1.7
	v8.7H241.6z M242.5,93.7c-0.3,0-0.5-0.1-0.8-0.3c-0.2-0.2-0.3-0.4-0.3-0.7c0-0.3,0.1-0.5,0.3-0.7c0.2-0.2,0.5-0.3,0.8-0.3
	c0.3,0,0.5,0.1,0.8,0.3c0.2,0.2,0.3,0.4,0.3,0.7c0,0.3-0.1,0.5-0.3,0.7C243.1,93.6,242.8,93.7,242.5,93.7z M247.3,92.1v11.6h-1.7
	V92.1H247.3z M253.4,103.9c-0.9,0-1.6-0.2-2.2-0.6c-0.6-0.4-1.1-0.9-1.4-1.6c-0.3-0.7-0.5-1.5-0.5-2.4c0-0.9,0.2-1.7,0.5-2.4
	c0.3-0.7,0.8-1.2,1.4-1.6c0.6-0.4,1.3-0.6,2.1-0.6c0.5,0,1,0.1,1.4,0.2c0.5,0.2,0.9,0.4,1.2,0.8c0.4,0.3,0.7,0.8,0.9,1.4
	c0.2,0.6,0.3,1.2,0.3,2v0.6h-6.9v-1.3h5.3c0-0.4-0.1-0.8-0.3-1.2c-0.2-0.3-0.4-0.6-0.8-0.8c-0.3-0.2-0.7-0.3-1.1-0.3
	c-0.5,0-0.9,0.1-1.2,0.4c-0.4,0.2-0.6,0.5-0.8,0.9c-0.2,0.4-0.3,0.8-0.3,1.2v1c0,0.6,0.1,1.1,0.3,1.5c0.2,0.4,0.5,0.7,0.9,0.9
	c0.4,0.2,0.8,0.3,1.3,0.3c0.3,0,0.6,0,0.9-0.1c0.3-0.1,0.5-0.2,0.7-0.4c0.2-0.2,0.3-0.4,0.4-0.7l1.6,0.3c-0.1,0.5-0.4,0.9-0.7,1.2
	c-0.3,0.4-0.7,0.6-1.2,0.8C254.6,103.8,254,103.9,253.4,103.9z M263.2,107V95h1.7v1.4h0.1c0.1-0.2,0.2-0.4,0.4-0.6
	c0.2-0.2,0.4-0.4,0.8-0.6c0.3-0.2,0.8-0.3,1.3-0.3c0.7,0,1.3,0.2,1.9,0.5c0.6,0.4,1,0.9,1.3,1.5c0.3,0.7,0.5,1.5,0.5,2.4
	s-0.2,1.8-0.5,2.4c-0.3,0.7-0.7,1.2-1.3,1.6c-0.5,0.4-1.2,0.5-1.9,0.5c-0.5,0-1-0.1-1.3-0.3c-0.3-0.2-0.6-0.4-0.8-0.6
	c-0.2-0.2-0.3-0.5-0.4-0.6h-0.1v4.6H263.2z M264.9,99.4c0,0.6,0.1,1.2,0.3,1.6c0.2,0.5,0.4,0.8,0.8,1.1c0.3,0.3,0.8,0.4,1.2,0.4
	c0.5,0,0.9-0.1,1.3-0.4c0.3-0.3,0.6-0.6,0.8-1.1c0.2-0.5,0.3-1,0.3-1.6c0-0.6-0.1-1.1-0.3-1.6c-0.2-0.5-0.4-0.8-0.8-1.1
	c-0.3-0.3-0.8-0.4-1.3-0.4c-0.5,0-0.9,0.1-1.2,0.4c-0.3,0.3-0.6,0.6-0.8,1.1C265,98.2,264.9,98.8,264.9,99.4z M274.8,98.6v5.2h-1.7
	V92.1h1.7v4.3h0.1c0.2-0.5,0.5-0.8,0.9-1.1c0.4-0.3,1-0.4,1.6-0.4c0.6,0,1.1,0.1,1.6,0.4c0.5,0.2,0.8,0.6,1,1.1
	c0.2,0.5,0.4,1.1,0.4,1.8v5.6h-1.7v-5.3c0-0.6-0.2-1.1-0.5-1.5c-0.3-0.4-0.8-0.5-1.4-0.5c-0.4,0-0.8,0.1-1.1,0.3
	c-0.3,0.2-0.6,0.4-0.7,0.8C274.9,97.7,274.8,98.1,274.8,98.6z M286.4,103.9c-0.8,0-1.5-0.2-2.1-0.6c-0.6-0.4-1.1-0.9-1.4-1.6
	c-0.3-0.7-0.5-1.5-0.5-2.4c0-0.9,0.2-1.7,0.5-2.4c0.3-0.7,0.8-1.2,1.4-1.6c0.6-0.4,1.3-0.6,2.1-0.6c0.8,0,1.5,0.2,2.1,0.6
	c0.6,0.4,1.1,0.9,1.4,1.6c0.3,0.7,0.5,1.5,0.5,2.4c0,0.9-0.2,1.7-0.5,2.4c-0.3,0.7-0.8,1.2-1.4,1.6
	C287.9,103.7,287.2,103.9,286.4,103.9z M286.4,102.5c0.5,0,1-0.1,1.3-0.4c0.3-0.3,0.6-0.7,0.8-1.1c0.2-0.5,0.3-1,0.3-1.5
	c0-0.6-0.1-1.1-0.3-1.5c-0.2-0.5-0.4-0.8-0.8-1.1c-0.3-0.3-0.8-0.4-1.3-0.4c-0.5,0-1,0.1-1.3,0.4c-0.3,0.3-0.6,0.7-0.8,1.1
	c-0.2,0.5-0.2,1-0.2,1.5c0,0.6,0.1,1.1,0.2,1.5c0.2,0.5,0.4,0.8,0.8,1.1C285.4,102.3,285.9,102.5,286.4,102.5z M294.1,98.6v5.2h-1.7
	V95h1.6v1.4h0.1c0.2-0.5,0.5-0.8,0.9-1.1c0.4-0.3,1-0.4,1.6-0.4c0.6,0,1.1,0.1,1.6,0.4c0.4,0.2,0.8,0.6,1,1.1
	c0.2,0.5,0.4,1.1,0.4,1.8v5.6H298v-5.3c0-0.6-0.2-1.1-0.5-1.5c-0.3-0.4-0.8-0.5-1.4-0.5c-0.4,0-0.7,0.1-1.1,0.3
	c-0.3,0.2-0.5,0.4-0.7,0.8C294.2,97.7,294.1,98.1,294.1,98.6z M305.7,103.9c-0.9,0-1.6-0.2-2.2-0.6c-0.6-0.4-1.1-0.9-1.4-1.6
	c-0.3-0.7-0.5-1.5-0.5-2.4c0-0.9,0.2-1.7,0.5-2.4c0.3-0.7,0.8-1.2,1.4-1.6c0.6-0.4,1.3-0.6,2.1-0.6c0.5,0,1,0.1,1.4,0.2
	c0.5,0.2,0.9,0.4,1.2,0.8c0.4,0.3,0.7,0.8,0.9,1.4c0.2,0.6,0.3,1.2,0.3,2v0.6h-6.9v-1.3h5.3c0-0.4-0.1-0.8-0.3-1.2
	c-0.2-0.3-0.4-0.6-0.8-0.8c-0.3-0.2-0.7-0.3-1.1-0.3c-0.5,0-0.9,0.1-1.2,0.4c-0.4,0.2-0.6,0.5-0.8,0.9c-0.2,0.4-0.3,0.8-0.3,1.2v1
	c0,0.6,0.1,1.1,0.3,1.5c0.2,0.4,0.5,0.7,0.9,0.9c0.4,0.2,0.8,0.3,1.3,0.3c0.3,0,0.6,0,0.9-0.1c0.3-0.1,0.5-0.2,0.7-0.4
	c0.2-0.2,0.3-0.4,0.4-0.7l1.6,0.3c-0.1,0.5-0.4,0.9-0.7,1.2c-0.3,0.4-0.7,0.6-1.2,0.8C306.9,103.8,306.3,103.9,305.7,103.9z"/>
<path class="st1" d="M340.2,89.8c0.1,0.4,0.3,0.8,0.3,0.9c0,0.1-0.5,0.1-1.2,0.1c-1,0-3.5,0.3-4.7,0.6c-0.4,0.1-1.5,0.9-1.8,1.5
	c-0.6,0.9,0,3.7,0.9,4.1c0.3,0.1,0.3,0.2,0.1,0.6c-0.6,1.1-0.2,2.7,1,4c0.6,0.6,0.6,0.8,0.6,1.4c0,1,0.4,1.8,1.5,2.7
	c0.5,0.5,0.9,1,1,1.2c0.7,2.7,4.9,3.7,11.5,2.7c3.6-0.5,3.6-0.6,3.9-0.2c0.5,0.5,1.1,0.6,2.3,0.6c0.9,0,1.1,0,1.4,0.4
	c0.4,0.5,1.5,0.7,2.8,0.5c0.5-0.1,1.2-0.1,1.6-0.1c1,0,1.4-0.3,0.9-0.9c-0.3-0.4-0.5-0.4-1.6-0.4c-1.8,0-2.3,0.4-2.7-8.6
	c-0.1-2,0.1-4.6,0-5.8c-0.1-2.7,0.1-2.5,2.9-2.4c2.4,0.1,2.9,0,2.4-0.6c-0.7-0.7-2.7-1.2-5.3-1.2h-0.5c-0.2,0-0.4,0.1-0.6,0.3
	s-0.2,0.4-0.2,0.6c0,0.3,0,0.6,0,0.6l-1.9,0c-1.9,0-1.9,0-1.9,0.4c0,0.5-0.1,0.5-1.2-0.2c-1-0.6-1.4-1.2-3.6-5.1
	c-0.7-1.3-1.4-2.2-1.9-2.9C343.6,82.3,338.5,84.4,340.2,89.8z M343.8,84.8c0.5,0.4,1.5,1.8,2.1,3.5c1.9,3.5,2.6,4.7,6.1,6.2l1.1,0.7
	c0,1,0.3,9.4,0.4,12.3h-2.1c-1.6,0.1-5.6,0.7-6.9,1c-2.1,0.5-5-0.5-5-2c0-0.3,0.1-0.8,0-0.8c-1,0-2.6-2.7-2-3.4
	c0.1-0.1-0.3-0.3-0.7-0.6c-1-1-1.2-1.5-1.1-3.1c0.1-1.3,0.4-1.3,0-1.6c-1.1-0.7-2.1-3.3-1.1-3.9c0.2-0.2,1.9-0.3,4.1-0.5
	c4.3-0.4,4.1,0.4,3.4-3.5C341.4,85.9,342.5,83.7,343.8,84.8z M356.5,108.3c0,0-1.4,0-1.4,0l-0.6-14.2c0,0,1.6,0,1.6,0
	C356.3,101.9,356.1,98.8,356.5,108.3z"/>
<path d="M378.7,95.9c-0.1-0.3-0.2-0.5-0.3-0.7c-0.1-0.2-0.3-0.4-0.5-0.5c-0.2-0.2-0.4-0.3-0.7-0.3c-0.3-0.1-0.6-0.1-0.9-0.1
	c-0.6,0-1.1,0.1-1.6,0.4c-0.4,0.3-0.8,0.7-1,1.3c-0.2,0.6-0.4,1.2-0.4,2.1c0,0.8,0.1,1.5,0.4,2.1c0.2,0.6,0.6,1,1,1.3
	c0.5,0.3,1,0.4,1.6,0.4c0.6,0,1-0.1,1.4-0.3c0.4-0.2,0.7-0.5,0.9-0.8c0.2-0.4,0.3-0.8,0.3-1.3l0.5,0.1h-3v-1.9h4.9V99
	c0,1-0.2,1.9-0.6,2.6c-0.4,0.7-1,1.3-1.8,1.7c-0.8,0.4-1.6,0.6-2.6,0.6c-1.1,0-2.1-0.2-2.9-0.7c-0.8-0.5-1.5-1.2-1.9-2.1
	c-0.5-0.9-0.7-2-0.7-3.2c0-0.9,0.1-1.8,0.4-2.5c0.3-0.7,0.7-1.4,1.2-1.9c0.5-0.5,1.1-0.9,1.7-1.2c0.7-0.3,1.4-0.4,2.1-0.4
	c0.7,0,1.3,0.1,1.8,0.3c0.6,0.2,1.1,0.5,1.5,0.8c0.4,0.3,0.8,0.8,1.1,1.2c0.3,0.5,0.5,1,0.5,1.6H378.7z M385.6,103.9
	c-0.6,0-1.1-0.1-1.5-0.3c-0.4-0.2-0.8-0.5-1-0.9c-0.2-0.4-0.4-0.9-0.4-1.4c0-0.5,0.1-0.9,0.3-1.2c0.2-0.3,0.4-0.6,0.7-0.8
	c0.3-0.2,0.7-0.4,1-0.5c0.4-0.1,0.8-0.2,1.2-0.2c0.5-0.1,0.9-0.1,1.2-0.1c0.3,0,0.5-0.1,0.7-0.2c0.1-0.1,0.2-0.2,0.2-0.4v0
	c0-0.4-0.1-0.6-0.3-0.8c-0.2-0.2-0.5-0.3-1-0.3c-0.4,0-0.8,0.1-1,0.3c-0.3,0.2-0.4,0.4-0.5,0.7l-2.2-0.2c0.1-0.5,0.3-1,0.7-1.4
	c0.3-0.4,0.8-0.7,1.3-0.9c0.5-0.2,1.1-0.3,1.8-0.3c0.5,0,0.9,0.1,1.4,0.2c0.4,0.1,0.8,0.3,1.2,0.5c0.3,0.2,0.6,0.5,0.8,0.9
	c0.2,0.4,0.3,0.8,0.3,1.3v5.9h-2.3v-1.2h-0.1c-0.1,0.3-0.3,0.5-0.6,0.7c-0.2,0.2-0.5,0.4-0.8,0.5C386.4,103.8,386,103.9,385.6,103.9
	z M386.3,102.2c0.4,0,0.7-0.1,0.9-0.2c0.3-0.1,0.5-0.3,0.6-0.6c0.2-0.2,0.2-0.5,0.2-0.8v-0.9c-0.1,0-0.2,0.1-0.3,0.1
	c-0.1,0-0.3,0.1-0.4,0.1c-0.2,0-0.3,0.1-0.5,0.1c-0.2,0-0.3,0-0.4,0.1c-0.3,0-0.5,0.1-0.7,0.2c-0.2,0.1-0.4,0.2-0.5,0.4
	c-0.1,0.2-0.2,0.3-0.2,0.6c0,0.3,0.1,0.6,0.4,0.8C385.6,102.1,385.9,102.2,386.3,102.2z M392.4,103.7V95h2.3v1.5h0.1
	c0.2-0.5,0.5-0.9,0.9-1.2c0.4-0.3,0.9-0.4,1.5-0.4c0.6,0,1.1,0.1,1.5,0.4c0.4,0.3,0.7,0.7,0.8,1.2h0.1c0.2-0.5,0.5-0.9,1-1.2
	c0.5-0.3,1-0.5,1.7-0.5c0.8,0,1.5,0.3,2,0.8c0.5,0.5,0.8,1.2,0.8,2.2v5.9h-2.4v-5.4c0-0.5-0.1-0.8-0.4-1.1c-0.3-0.2-0.6-0.4-1-0.4
	c-0.4,0-0.8,0.1-1,0.4c-0.2,0.3-0.4,0.6-0.4,1.1v5.3h-2.3v-5.4c0-0.4-0.1-0.8-0.4-1c-0.2-0.3-0.6-0.4-1-0.4c-0.3,0-0.5,0.1-0.7,0.2
	c-0.2,0.1-0.4,0.3-0.5,0.6c-0.1,0.2-0.2,0.5-0.2,0.8v5.2H392.4z M411,103.9c-0.9,0-1.7-0.2-2.3-0.5c-0.6-0.4-1.1-0.9-1.5-1.6
	c-0.3-0.7-0.5-1.5-0.5-2.4c0-0.9,0.2-1.7,0.5-2.4c0.3-0.7,0.8-1.2,1.5-1.6c0.6-0.4,1.4-0.6,2.2-0.6c0.6,0,1.1,0.1,1.6,0.3
	c0.5,0.2,0.9,0.5,1.3,0.8c0.4,0.4,0.7,0.8,0.9,1.4c0.2,0.6,0.3,1.2,0.3,1.9v0.7h-7.4v-1.5h5.1c0-0.3-0.1-0.7-0.2-0.9
	c-0.2-0.3-0.4-0.5-0.6-0.6c-0.3-0.2-0.6-0.2-0.9-0.2c-0.4,0-0.7,0.1-1,0.3c-0.3,0.2-0.5,0.4-0.7,0.7c-0.2,0.3-0.2,0.6-0.2,0.9v1.4
	c0,0.4,0.1,0.8,0.2,1.1c0.2,0.3,0.4,0.6,0.7,0.7c0.3,0.2,0.6,0.3,1.1,0.3c0.3,0,0.5,0,0.7-0.1c0.2-0.1,0.4-0.2,0.6-0.3
	c0.2-0.2,0.3-0.3,0.4-0.6l2.2,0.1c-0.1,0.5-0.3,1-0.7,1.4c-0.3,0.4-0.8,0.7-1.4,0.9C412.3,103.8,411.7,103.9,411,103.9z M424.9,95
	v1.8h-5.3V95H424.9z M420.8,92.9h2.4v8.1c0,0.2,0,0.4,0.1,0.5c0.1,0.1,0.2,0.2,0.3,0.3c0.1,0,0.3,0.1,0.4,0.1c0.1,0,0.2,0,0.3,0
	c0.1,0,0.2,0,0.3-0.1l0.4,1.8c-0.1,0-0.3,0.1-0.5,0.1c-0.2,0.1-0.5,0.1-0.8,0.1c-0.6,0-1.1-0.1-1.5-0.2c-0.4-0.2-0.8-0.5-1-0.8
	c-0.2-0.4-0.4-0.8-0.4-1.4V92.9z M428,107c-0.3,0-0.6,0-0.9-0.1c-0.3,0-0.5-0.1-0.7-0.2l0.5-1.8c0.3,0.1,0.5,0.1,0.8,0.1
	c0.2,0,0.4,0,0.6-0.2c0.2-0.1,0.3-0.3,0.4-0.6l0.1-0.4l-3.1-9h2.5l1.8,6.4h0.1L432,95h2.6l-3.4,9.7c-0.2,0.5-0.4,0.9-0.7,1.2
	c-0.3,0.4-0.6,0.6-1.1,0.8C429.1,106.9,428.6,107,428,107z M435.8,107V95h2.4v1.5h0.1c0.1-0.2,0.3-0.5,0.5-0.7
	c0.2-0.2,0.5-0.5,0.8-0.6c0.3-0.2,0.7-0.2,1.2-0.2c0.6,0,1.2,0.2,1.8,0.5c0.5,0.3,1,0.8,1.3,1.5c0.3,0.7,0.5,1.5,0.5,2.5
	c0,1-0.2,1.8-0.5,2.5c-0.3,0.7-0.7,1.2-1.3,1.5c-0.5,0.3-1.1,0.5-1.8,0.5c-0.5,0-0.9-0.1-1.2-0.2c-0.3-0.2-0.6-0.3-0.8-0.6
	c-0.2-0.2-0.4-0.5-0.5-0.7h-0.1v4.7H435.8z M438.2,99.4c0,0.5,0.1,1,0.2,1.4c0.1,0.4,0.4,0.7,0.6,0.9c0.3,0.2,0.6,0.3,1,0.3
	c0.4,0,0.7-0.1,1-0.3c0.3-0.2,0.5-0.5,0.6-0.9c0.1-0.4,0.2-0.8,0.2-1.3c0-0.5-0.1-0.9-0.2-1.3c-0.1-0.4-0.3-0.7-0.6-0.9
	c-0.3-0.2-0.6-0.3-1-0.3c-0.4,0-0.7,0.1-1,0.3c-0.3,0.2-0.5,0.5-0.6,0.9C438.3,98.4,438.2,98.9,438.2,99.4z M450,103.9
	c-0.9,0-1.7-0.2-2.3-0.5c-0.6-0.4-1.1-0.9-1.5-1.6c-0.3-0.7-0.5-1.5-0.5-2.4c0-0.9,0.2-1.7,0.5-2.4c0.3-0.7,0.8-1.2,1.5-1.6
	c0.6-0.4,1.4-0.6,2.2-0.6c0.6,0,1.1,0.1,1.6,0.3c0.5,0.2,0.9,0.5,1.3,0.8c0.4,0.4,0.7,0.8,0.9,1.4c0.2,0.6,0.3,1.2,0.3,1.9v0.7h-7.4
	v-1.5h5.1c0-0.3-0.1-0.7-0.2-0.9c-0.2-0.3-0.4-0.5-0.6-0.6c-0.3-0.2-0.6-0.2-0.9-0.2c-0.4,0-0.7,0.1-1,0.3c-0.3,0.2-0.5,0.4-0.7,0.7
	c-0.2,0.3-0.2,0.6-0.2,0.9v1.4c0,0.4,0.1,0.8,0.2,1.1c0.2,0.3,0.4,0.6,0.7,0.7c0.3,0.2,0.6,0.3,1.1,0.3c0.3,0,0.5,0,0.7-0.1
	c0.2-0.1,0.4-0.2,0.6-0.3c0.2-0.2,0.3-0.3,0.4-0.6l2.2,0.1c-0.1,0.5-0.3,1-0.7,1.4c-0.3,0.4-0.8,0.7-1.4,0.9
	C451.3,103.8,450.7,103.9,450,103.9z M457,103.9c-0.4,0-0.7-0.1-1-0.4c-0.3-0.3-0.4-0.6-0.4-1c0-0.4,0.1-0.7,0.4-1
	c0.3-0.3,0.6-0.4,1-0.4c0.4,0,0.7,0.1,1,0.4c0.3,0.3,0.4,0.6,0.4,1c0,0.2-0.1,0.5-0.2,0.7c-0.1,0.2-0.3,0.4-0.5,0.5
	C457.4,103.8,457.2,103.9,457,103.9z M457,97.8c-0.4,0-0.7-0.1-1-0.4c-0.3-0.3-0.4-0.6-0.4-1c0-0.4,0.1-0.7,0.4-0.9
	c0.3-0.3,0.6-0.4,1-0.4c0.4,0,0.7,0.1,1,0.4c0.3,0.3,0.4,0.6,0.4,0.9c0,0.3-0.1,0.5-0.2,0.7c-0.1,0.2-0.3,0.4-0.5,0.5
	C457.4,97.7,457.2,97.8,457,97.8z"/>
<path d="M476.7,93.6v-1.5h9v1.5h-3.6v10.1h-1.8V93.6H476.7z M490,103.9c-0.9,0-1.6-0.2-2.2-0.6c-0.6-0.4-1.1-0.9-1.4-1.6
	c-0.3-0.7-0.5-1.5-0.5-2.4c0-0.9,0.2-1.7,0.5-2.4c0.3-0.7,0.8-1.2,1.4-1.6c0.6-0.4,1.3-0.6,2.1-0.6c0.5,0,1,0.1,1.4,0.2
	c0.5,0.2,0.9,0.4,1.2,0.8c0.4,0.3,0.7,0.8,0.9,1.4c0.2,0.6,0.3,1.2,0.3,2v0.6h-6.9v-1.3h5.3c0-0.4-0.1-0.8-0.3-1.2
	c-0.2-0.3-0.4-0.6-0.8-0.8c-0.3-0.2-0.7-0.3-1.1-0.3c-0.5,0-0.9,0.1-1.2,0.4c-0.4,0.2-0.6,0.5-0.8,0.9c-0.2,0.4-0.3,0.8-0.3,1.2v1
	c0,0.6,0.1,1.1,0.3,1.5c0.2,0.4,0.5,0.7,0.9,0.9c0.4,0.2,0.8,0.3,1.3,0.3c0.3,0,0.6,0,0.9-0.1c0.3-0.1,0.5-0.2,0.7-0.4
	c0.2-0.2,0.3-0.4,0.4-0.7l1.6,0.3c-0.1,0.5-0.4,0.9-0.7,1.2c-0.3,0.4-0.7,0.6-1.2,0.8C491.2,103.8,490.7,103.9,490,103.9z
	 M498.2,103.9c-0.6,0-1.1-0.1-1.5-0.3c-0.4-0.2-0.8-0.5-1.1-0.9c-0.3-0.4-0.4-0.9-0.4-1.4c0-0.5,0.1-0.9,0.3-1.2
	c0.2-0.3,0.4-0.6,0.8-0.8c0.3-0.2,0.7-0.3,1.1-0.4c0.4-0.1,0.8-0.2,1.2-0.2c0.5-0.1,0.9-0.1,1.3-0.1c0.3,0,0.6-0.1,0.7-0.2
	c0.1-0.1,0.2-0.2,0.2-0.4v0c0-0.5-0.1-0.9-0.4-1.2c-0.3-0.3-0.7-0.4-1.2-0.4c-0.6,0-1,0.1-1.4,0.4c-0.3,0.2-0.6,0.5-0.7,0.8
	l-1.6-0.4c0.2-0.5,0.5-1,0.8-1.3c0.4-0.3,0.8-0.6,1.3-0.7c0.5-0.2,1-0.2,1.5-0.2c0.3,0,0.7,0,1.1,0.1c0.4,0.1,0.8,0.2,1.1,0.4
	c0.3,0.2,0.6,0.5,0.8,0.9c0.2,0.4,0.3,0.9,0.3,1.6v5.8h-1.7v-1.2h-0.1c-0.1,0.2-0.3,0.4-0.5,0.6c-0.2,0.2-0.5,0.4-0.8,0.5
	C499.1,103.9,498.7,103.9,498.2,103.9z M498.6,102.6c0.5,0,0.9-0.1,1.2-0.3c0.3-0.2,0.6-0.4,0.8-0.7c0.2-0.3,0.3-0.6,0.3-1v-1.1
	c-0.1,0.1-0.2,0.1-0.4,0.2c-0.2,0-0.4,0.1-0.6,0.1c-0.2,0-0.4,0.1-0.6,0.1c-0.2,0-0.4,0-0.5,0.1c-0.3,0-0.6,0.1-0.9,0.2
	c-0.3,0.1-0.5,0.2-0.6,0.4c-0.2,0.2-0.2,0.4-0.2,0.7c0,0.4,0.2,0.7,0.5,1C497.7,102.5,498.1,102.6,498.6,102.6z M504.8,103.7V95h1.6
	v1.4h0.1c0.2-0.5,0.5-0.9,0.9-1.1c0.4-0.3,0.9-0.4,1.5-0.4c0.6,0,1.1,0.1,1.5,0.4c0.4,0.3,0.7,0.6,0.9,1.1h0.1
	c0.2-0.5,0.5-0.8,1-1.1c0.5-0.3,1-0.4,1.6-0.4c0.8,0,1.4,0.2,1.9,0.7c0.5,0.5,0.8,1.2,0.8,2.2v5.9h-1.7V98c0-0.6-0.2-1-0.5-1.3
	c-0.3-0.3-0.7-0.4-1.2-0.4c-0.6,0-1,0.2-1.3,0.5c-0.3,0.3-0.5,0.8-0.5,1.3v5.6h-1.7v-5.8c0-0.5-0.1-0.9-0.4-1.1
	c-0.3-0.3-0.7-0.4-1.2-0.4c-0.3,0-0.6,0.1-0.9,0.3c-0.3,0.2-0.5,0.4-0.7,0.7c-0.2,0.3-0.2,0.6-0.2,1v5.4H504.8z M523.3,103.7V92.1
	h1.7v4.3h0.1c0.1-0.2,0.2-0.4,0.4-0.6c0.2-0.2,0.4-0.4,0.8-0.6c0.3-0.2,0.8-0.3,1.3-0.3c0.7,0,1.3,0.2,1.9,0.5
	c0.6,0.4,1,0.9,1.3,1.5c0.3,0.7,0.5,1.5,0.5,2.4s-0.2,1.8-0.5,2.4c-0.3,0.7-0.7,1.2-1.3,1.6c-0.5,0.4-1.2,0.5-1.9,0.5
	c-0.5,0-1-0.1-1.3-0.3c-0.3-0.2-0.6-0.4-0.8-0.6c-0.2-0.2-0.3-0.5-0.4-0.6h-0.1v1.4H523.3z M525,99.4c0,0.6,0.1,1.2,0.3,1.6
	c0.2,0.5,0.4,0.8,0.8,1.1c0.3,0.3,0.8,0.4,1.2,0.4c0.5,0,0.9-0.1,1.3-0.4c0.3-0.3,0.6-0.6,0.8-1.1c0.2-0.5,0.3-1,0.3-1.6
	c0-0.6-0.1-1.1-0.3-1.6c-0.2-0.5-0.4-0.8-0.8-1.1c-0.3-0.3-0.8-0.4-1.3-0.4c-0.5,0-0.9,0.1-1.2,0.4c-0.3,0.3-0.6,0.6-0.8,1.1
	C525,98.2,525,98.8,525,99.4z M538.7,100.1V95h1.7v8.7h-1.7v-1.5h-0.1c-0.2,0.5-0.5,0.9-1,1.2c-0.4,0.3-1,0.5-1.6,0.5
	c-0.6,0-1.1-0.1-1.5-0.4c-0.4-0.2-0.8-0.6-1-1.1c-0.2-0.5-0.4-1.1-0.4-1.8V95h1.7v5.3c0,0.6,0.2,1.1,0.5,1.4
	c0.3,0.4,0.8,0.5,1.3,0.5c0.3,0,0.6-0.1,0.9-0.2c0.3-0.2,0.6-0.4,0.8-0.7C538.6,101,538.7,100.6,538.7,100.1z M542.7,103.7V95h1.7
	v8.7H542.7z M543.5,93.7c-0.3,0-0.5-0.1-0.8-0.3c-0.2-0.2-0.3-0.4-0.3-0.7c0-0.3,0.1-0.5,0.3-0.7c0.2-0.2,0.5-0.3,0.8-0.3
	c0.3,0,0.5,0.1,0.8,0.3c0.2,0.2,0.3,0.4,0.3,0.7c0,0.3-0.1,0.5-0.3,0.7C544.1,93.6,543.8,93.7,543.5,93.7z M548.4,92.1v11.6h-1.7
	V92.1H548.4z M553.9,103.9c-0.7,0-1.3-0.2-1.9-0.5c-0.5-0.4-1-0.9-1.3-1.6c-0.3-0.7-0.5-1.5-0.5-2.4s0.2-1.8,0.5-2.4
	c0.3-0.7,0.8-1.2,1.3-1.5c0.6-0.4,1.2-0.5,1.9-0.5c0.5,0,1,0.1,1.3,0.3c0.3,0.2,0.6,0.4,0.8,0.6c0.2,0.2,0.3,0.4,0.4,0.6h0.1v-4.3
	h1.7v11.6h-1.7v-1.4h-0.1c-0.1,0.2-0.2,0.4-0.4,0.6c-0.2,0.2-0.4,0.4-0.8,0.6C554.9,103.8,554.4,103.9,553.9,103.9z M554.3,102.5
	c0.5,0,0.9-0.1,1.2-0.4c0.3-0.3,0.6-0.6,0.8-1.1c0.2-0.5,0.3-1,0.3-1.6c0-0.6-0.1-1.1-0.3-1.6c-0.2-0.5-0.4-0.8-0.8-1.1
	c-0.3-0.3-0.8-0.4-1.2-0.4c-0.5,0-0.9,0.1-1.3,0.4c-0.3,0.3-0.6,0.6-0.8,1.1c-0.2,0.5-0.3,1-0.3,1.6c0,0.6,0.1,1.1,0.3,1.6
	c0.2,0.5,0.4,0.8,0.8,1.1C553.4,102.3,553.8,102.5,554.3,102.5z M560.7,103.7V95h1.7v8.7H560.7z M561.5,93.7c-0.3,0-0.5-0.1-0.8-0.3
	c-0.2-0.2-0.3-0.4-0.3-0.7c0-0.3,0.1-0.5,0.3-0.7c0.2-0.2,0.5-0.3,0.8-0.3c0.3,0,0.5,0.1,0.8,0.3c0.2,0.2,0.3,0.4,0.3,0.7
	c0,0.3-0.1,0.5-0.3,0.7C562.1,93.6,561.8,93.7,561.5,93.7z M566.3,98.6v5.2h-1.7V95h1.6v1.4h0.1c0.2-0.5,0.5-0.8,0.9-1.1
	c0.4-0.3,1-0.4,1.6-0.4c0.6,0,1.1,0.1,1.6,0.4c0.4,0.2,0.8,0.6,1,1.1c0.2,0.5,0.4,1.1,0.4,1.8v5.6h-1.7v-5.3c0-0.6-0.2-1.1-0.5-1.5
	c-0.3-0.4-0.8-0.5-1.4-0.5c-0.4,0-0.7,0.1-1.1,0.3c-0.3,0.2-0.5,0.4-0.7,0.8C566.4,97.7,566.3,98.1,566.3,98.6z M577.9,107.2
	c-0.7,0-1.3-0.1-1.8-0.3c-0.5-0.2-0.9-0.4-1.2-0.7c-0.3-0.3-0.5-0.6-0.7-1l1.5-0.6c0.1,0.2,0.2,0.3,0.4,0.5c0.2,0.2,0.4,0.3,0.7,0.5
	c0.3,0.1,0.7,0.2,1.2,0.2c0.6,0,1.2-0.2,1.6-0.5c0.4-0.3,0.6-0.8,0.6-1.5v-1.7H580c-0.1,0.2-0.2,0.4-0.4,0.6
	c-0.2,0.2-0.5,0.4-0.8,0.6c-0.3,0.2-0.8,0.2-1.3,0.2c-0.7,0-1.3-0.2-1.9-0.5c-0.5-0.3-1-0.8-1.3-1.4c-0.3-0.6-0.5-1.4-0.5-2.3
	c0-0.9,0.2-1.7,0.5-2.4c0.3-0.7,0.8-1.2,1.3-1.5c0.6-0.4,1.2-0.5,1.9-0.5c0.5,0,1,0.1,1.3,0.3c0.3,0.2,0.6,0.4,0.8,0.6
	c0.2,0.2,0.3,0.4,0.4,0.6h0.1V95h1.7v8.9c0,0.8-0.2,1.4-0.5,1.8c-0.3,0.5-0.8,0.8-1.4,1.1C579.3,107.1,578.6,107.2,577.9,107.2z
	 M577.9,102.2c0.5,0,0.9-0.1,1.2-0.3c0.3-0.2,0.6-0.6,0.8-1c0.2-0.4,0.3-0.9,0.3-1.6c0-0.6-0.1-1.1-0.3-1.6c-0.2-0.4-0.4-0.8-0.8-1
	c-0.3-0.3-0.8-0.4-1.2-0.4c-0.5,0-0.9,0.1-1.3,0.4c-0.3,0.3-0.6,0.6-0.8,1.1c-0.2,0.5-0.3,1-0.3,1.5c0,0.6,0.1,1.1,0.3,1.5
	c0.2,0.4,0.4,0.8,0.8,1C576.9,102.1,577.4,102.2,577.9,102.2z"/>
<path class="st2" d="M12,1.2h595c5.9,0,10.8,4.8,10.8,10.8v112c0,5.9-4.8,10.8-10.8,10.8H12c-5.9,0-10.8-4.8-10.8-10.8V12
	C1.2,6.1,6.1,1.2,12,1.2z"/>
<path class="st0" d="M12-203.2h595c5.9,0,10.8,4.8,10.8,10.8v112c0,5.9-4.8,10.8-10.8,10.8H12c-5.9,0-10.8-4.8-10.8-10.8v-112
	C1.2-198.4,6.1-203.2,12-203.2z"/>
<path class="st1" d="M41.3-179.5c-1.2,0.3-2,1-3.5,3.2c-0.4,0.6-0.9,1.1-1,1.1c-0.3,0-1.1,0.5-1.5,1.2c-0.2,0.4-0.5,0.9-0.7,1.1
	c-0.8,1,0.3,1.1-1.5,3.4c-2.8,3.6-3.9,5.4-4,6.4c-0.1,1.2-2.1,7.6-1.7,8.7c0.3,0.8,1.2,0.9,2.5,0.5c2.4-0.7,6.7-3.9,7.5-4.6
	c1-0.9,4-6.1,4.3-6.1c0.4,0,1.2-0.4,1.4-0.6c0.7-0.7,2.5-3.8,2.7-4.6c0.1-0.3,0-0.7,0-1.1c0-0.2,0.4-0.8,1.1-1.7
	c1.4-1.7,1.4-1.8,0.6-3.5C46-179,44-180.1,41.3-179.5z M43.2-178.8c1.2,0.3,2.4,1.3,3.1,2.7c0.7,1.3,0.5,1.7-1.6,4.3
	c-0.1,0.1-0.2-0.3-0.5-0.7c-1-1.5-2.6-2.6-4.8-2.8c-0.8-0.1-1,0.2,0.4-1.8c0.5-0.7,0.8-1.1,1-1.3C41.2-178.8,42.1-179.1,43.2-178.8z
	 M39.9-174.3c2,0.6,2.7,1.1,3.8,3.2c0.7,1.4,0.7,1.2-0.2,2.2c-0.3,0.4-0.4,0.4-0.5,0.1c-0.3-1-0.6-1.5-1.4-2.3
	c-1.5-1.3-1.9-0.9-0.7,0.5c1.4,1.6,1.7,2.5,1.1,3.7c-0.3,0.7-0.5,0.9-0.6,0.6c-0.9-3.3-2.9-4.7-5.1-4.9c-0.9-0.1-1.1-0.3-0.5-0.9
	c0.3-0.3,0.8-0.2,1.9,0c0.5,0.1,0.5-0.6,0-0.8c-0.7-0.2-1-0.4-0.4-1.3C37.8-174.8,38.3-174.9,39.9-174.3z M38.5-173.6
	c-0.3,0.2-0.3,0.5,0.6,0.9c0.9,0.3,1.3,0.1,1.3-0.3c0-0.2-0.1-0.4-0.5-0.5C39.4-173.7,38.7-173.7,38.5-173.6z M37.1-170.2
	c0.2,0.1,0.2,0.1-0.4,0.9c-1.3,1.9-1.8,2.7-2.2,3.1c-0.2,0.2-0.7,1-1.1,1.6c-1.2,2.1-2.3,2.8-2.8,1.7c-0.2-0.4-0.1-0.8,0.1-1.1
	c0.6-0.9,3.9-6.2,4.8-6.4C36.2-170.6,36.9-170.4,37.1-170.2z M38.8-169.4c1.1,1.1,1.2,1.8,0.4,2.8c-1.5,1.9-4,5.2-4.9,5.9
	c-0.7,0.5-1-0.9-0.8-1.8c0.2-1.2,1.2-2.7,3.4-5.5C38-169.6,38.2-169.9,38.8-169.4z M40.3-165.8c0,0.3,0.2,0.7-0.1,1.2
	c-0.2,0.3-1,1.6-1.7,2.7c-1.1,1.8-2.5,3-2.6,2.7c-0.1-0.4,0.7-2.2,1.4-3.3C39.2-165,40.1-167.1,40.3-165.8z M32.3-161.3
	c0,1.1,0.7,1.6,1.8,1.3c0.7-0.2,0.7-0.2,0.4,0.5c-0.1,0.3-0.2,0.7-0.2,1c0.1,0.5-0.1,0.5-1.2,1.2c-0.2,0.1-0.4,0.1-0.5-0.1
	c-0.6-0.9-1.4-1.3-2.3-1.5c-0.9-0.1-0.8,0-0.6-1.4l0.2-1.2c0.2,0,0.9,0.2,1.5-0.1c0.3-0.1,0.6-0.2,0.6-0.2S32.3-161.6,32.3-161.3z"
	/>
<path d="M64.6-161.2h-4.1v-11.6h4.2c1.2,0,2.2,0.2,3,0.7c0.8,0.5,1.5,1.1,1.9,2c0.5,0.9,0.7,1.9,0.7,3.1c0,1.2-0.2,2.3-0.7,3.1
	c-0.5,0.9-1.1,1.5-2,2C66.8-161.4,65.8-161.2,64.6-161.2z M63-163.3h1.6c0.7,0,1.3-0.1,1.8-0.4c0.5-0.3,0.9-0.7,1.1-1.2
	c0.3-0.5,0.4-1.3,0.4-2.1c0-0.9-0.1-1.6-0.4-2.1c-0.2-0.5-0.6-0.9-1.1-1.2c-0.5-0.3-1.1-0.4-1.8-0.4H63V-163.3z M76.1-161
	c-0.9,0-1.7-0.2-2.3-0.5c-0.6-0.4-1.1-0.9-1.5-1.6c-0.3-0.7-0.5-1.5-0.5-2.4c0-0.9,0.2-1.7,0.5-2.4c0.3-0.7,0.8-1.2,1.5-1.6
	c0.6-0.4,1.4-0.6,2.2-0.6c0.6,0,1.1,0.1,1.6,0.3c0.5,0.2,0.9,0.5,1.3,0.8c0.4,0.4,0.7,0.8,0.9,1.4c0.2,0.6,0.3,1.2,0.3,1.9v0.7h-7.4
	v-1.5h5.1c0-0.3-0.1-0.7-0.2-0.9c-0.2-0.3-0.4-0.5-0.6-0.6c-0.3-0.2-0.6-0.2-0.9-0.2c-0.4,0-0.7,0.1-1,0.3c-0.3,0.2-0.5,0.4-0.7,0.7
	c-0.2,0.3-0.2,0.6-0.2,0.9v1.4c0,0.4,0.1,0.8,0.2,1.1c0.2,0.3,0.4,0.6,0.7,0.7c0.3,0.2,0.6,0.3,1.1,0.3c0.3,0,0.5,0,0.7-0.1
	c0.2-0.1,0.4-0.2,0.6-0.3c0.2-0.2,0.3-0.3,0.4-0.6l2.2,0.1c-0.1,0.5-0.3,1-0.7,1.4c-0.3,0.4-0.8,0.7-1.4,0.9
	C77.4-161.1,76.8-161,76.1-161z M89.6-169.9l-3.1,8.7h-2.7l-3.1-8.7h2.6l1.8,6.2h0.1l1.8-6.2H89.6z M94.5-161
	c-0.9,0-1.7-0.2-2.3-0.5c-0.6-0.4-1.1-0.9-1.5-1.6c-0.3-0.7-0.5-1.5-0.5-2.4c0-0.9,0.2-1.7,0.5-2.4c0.3-0.7,0.8-1.2,1.5-1.6
	c0.6-0.4,1.4-0.6,2.2-0.6c0.6,0,1.1,0.1,1.6,0.3c0.5,0.2,0.9,0.5,1.3,0.8c0.4,0.4,0.7,0.8,0.9,1.4c0.2,0.6,0.3,1.2,0.3,1.9v0.7h-7.4
	v-1.5h5.1c0-0.3-0.1-0.7-0.2-0.9c-0.2-0.3-0.4-0.5-0.6-0.6c-0.3-0.2-0.6-0.2-0.9-0.2c-0.4,0-0.7,0.1-1,0.3c-0.3,0.2-0.5,0.4-0.7,0.7
	c-0.2,0.3-0.2,0.6-0.2,0.9v1.4c0,0.4,0.1,0.8,0.2,1.1c0.2,0.3,0.4,0.6,0.7,0.7c0.3,0.2,0.6,0.3,1.1,0.3c0.3,0,0.5,0,0.7-0.1
	c0.2-0.1,0.4-0.2,0.6-0.3c0.2-0.2,0.3-0.3,0.4-0.6l2.2,0.1c-0.1,0.5-0.3,1-0.7,1.4c-0.3,0.4-0.8,0.7-1.4,0.9
	C95.8-161.1,95.2-161,94.5-161z M102.5-172.8v11.6h-2.4v-11.6H102.5z M108.4-161c-0.9,0-1.6-0.2-2.3-0.6c-0.6-0.4-1.1-0.9-1.5-1.6
	c-0.3-0.7-0.5-1.5-0.5-2.4c0-0.9,0.2-1.7,0.5-2.4c0.3-0.7,0.8-1.2,1.5-1.6c0.6-0.4,1.4-0.6,2.3-0.6c0.9,0,1.6,0.2,2.3,0.6
	c0.6,0.4,1.1,0.9,1.5,1.6c0.3,0.7,0.5,1.5,0.5,2.4c0,0.9-0.2,1.7-0.5,2.4c-0.3,0.7-0.8,1.2-1.5,1.6C110-161.2,109.3-161,108.4-161z
	 M108.4-162.9c0.4,0,0.7-0.1,1-0.3c0.3-0.2,0.5-0.5,0.6-0.9c0.1-0.4,0.2-0.9,0.2-1.4c0-0.5-0.1-1-0.2-1.4c-0.1-0.4-0.3-0.7-0.6-0.9
	c-0.3-0.2-0.6-0.3-1-0.3c-0.4,0-0.7,0.1-1,0.3c-0.3,0.2-0.5,0.5-0.6,0.9c-0.1,0.4-0.2,0.9-0.2,1.4c0,0.5,0.1,1,0.2,1.4
	c0.1,0.4,0.3,0.7,0.6,0.9C107.6-163,108-162.9,108.4-162.9z M114.3-157.9v-12h2.4v1.5h0.1c0.1-0.2,0.3-0.5,0.5-0.7
	c0.2-0.2,0.5-0.5,0.8-0.6c0.3-0.2,0.7-0.2,1.2-0.2c0.6,0,1.2,0.2,1.8,0.5c0.5,0.3,1,0.8,1.3,1.5c0.3,0.7,0.5,1.5,0.5,2.5
	c0,1-0.2,1.8-0.5,2.5c-0.3,0.7-0.7,1.2-1.3,1.5c-0.5,0.3-1.1,0.5-1.8,0.5c-0.5,0-0.9-0.1-1.2-0.2c-0.3-0.2-0.6-0.4-0.8-0.6
	c-0.2-0.2-0.4-0.5-0.5-0.7h-0.1v4.7H114.3z M116.6-165.5c0,0.5,0.1,1,0.2,1.4c0.1,0.4,0.4,0.7,0.6,0.9c0.3,0.2,0.6,0.3,1,0.3
	c0.4,0,0.7-0.1,1-0.3c0.3-0.2,0.5-0.5,0.6-0.9c0.1-0.4,0.2-0.8,0.2-1.3c0-0.5-0.1-0.9-0.2-1.3c-0.1-0.4-0.3-0.7-0.6-0.9
	c-0.3-0.2-0.6-0.3-1-0.3c-0.4,0-0.7,0.1-1,0.3c-0.3,0.2-0.5,0.5-0.6,0.9C116.7-166.5,116.6-166.1,116.6-165.5z M124.4-161.2v-8.7
	h2.3v1.5h0.1c0.2-0.5,0.5-0.9,0.9-1.2c0.4-0.3,0.9-0.4,1.5-0.4c0.6,0,1.1,0.1,1.5,0.4c0.4,0.3,0.7,0.7,0.8,1.2h0.1
	c0.2-0.5,0.5-0.9,1-1.2c0.5-0.3,1-0.5,1.7-0.5c0.8,0,1.5,0.3,2,0.8c0.5,0.5,0.8,1.2,0.8,2.2v5.9h-2.4v-5.4c0-0.5-0.1-0.8-0.4-1.1
	c-0.3-0.2-0.6-0.4-1-0.4c-0.4,0-0.8,0.1-1,0.4c-0.2,0.3-0.4,0.6-0.4,1.1v5.3h-2.3v-5.4c0-0.4-0.1-0.8-0.4-1c-0.2-0.3-0.6-0.4-1-0.4
	c-0.3,0-0.5,0.1-0.7,0.2c-0.2,0.1-0.4,0.3-0.5,0.6c-0.1,0.2-0.2,0.5-0.2,0.8v5.2H124.4z M142.9-161c-0.9,0-1.7-0.2-2.3-0.5
	c-0.6-0.4-1.1-0.9-1.5-1.6c-0.3-0.7-0.5-1.5-0.5-2.4c0-0.9,0.2-1.7,0.5-2.4c0.3-0.7,0.8-1.2,1.5-1.6c0.6-0.4,1.4-0.6,2.2-0.6
	c0.6,0,1.1,0.1,1.6,0.3c0.5,0.2,0.9,0.5,1.3,0.8c0.4,0.4,0.7,0.8,0.9,1.4c0.2,0.6,0.3,1.2,0.3,1.9v0.7h-7.4v-1.5h5.1
	c0-0.3-0.1-0.7-0.2-0.9c-0.2-0.3-0.4-0.5-0.6-0.6c-0.3-0.2-0.6-0.2-0.9-0.2c-0.4,0-0.7,0.1-1,0.3c-0.3,0.2-0.5,0.4-0.7,0.7
	c-0.2,0.3-0.2,0.6-0.2,0.9v1.4c0,0.4,0.1,0.8,0.2,1.1c0.2,0.3,0.4,0.6,0.7,0.7c0.3,0.2,0.6,0.3,1.1,0.3c0.3,0,0.5,0,0.7-0.1
	c0.2-0.1,0.4-0.2,0.6-0.3c0.2-0.2,0.3-0.3,0.4-0.6l2.2,0.1c-0.1,0.5-0.3,1-0.7,1.4c-0.3,0.4-0.8,0.7-1.4,0.9
	C144.3-161.1,143.7-161,142.9-161z M151-166.2v5h-2.4v-8.7h2.3v1.5h0.1c0.2-0.5,0.5-0.9,1-1.2c0.5-0.3,1-0.4,1.7-0.4
	c0.6,0,1.1,0.1,1.6,0.4c0.5,0.3,0.8,0.6,1.1,1.1c0.2,0.5,0.4,1.1,0.4,1.8v5.6h-2.4v-5.1c0-0.5-0.1-1-0.4-1.2
	c-0.3-0.3-0.7-0.5-1.1-0.5c-0.3,0-0.6,0.1-0.9,0.2c-0.2,0.1-0.4,0.3-0.6,0.6C151-166.9,151-166.6,151-166.2z M163.1-169.9v1.8h-5.3
	v-1.8H163.1z M159.1-172h2.4v8.1c0,0.2,0,0.4,0.1,0.5c0.1,0.1,0.2,0.2,0.3,0.3c0.1,0,0.3,0.1,0.4,0.1c0.1,0,0.2,0,0.3,0
	c0.1,0,0.2,0,0.3-0.1l0.4,1.8c-0.1,0-0.3,0.1-0.5,0.1c-0.2,0.1-0.5,0.1-0.8,0.1c-0.6,0-1.1-0.1-1.5-0.2c-0.4-0.2-0.8-0.5-1-0.8
	c-0.2-0.4-0.4-0.8-0.4-1.4V-172z M173-169.9v1.8h-5.3v-1.8H173z M169-172h2.4v8.1c0,0.2,0,0.4,0.1,0.5c0.1,0.1,0.2,0.2,0.3,0.3
	c0.1,0,0.3,0.1,0.4,0.1c0.1,0,0.2,0,0.3,0c0.1,0,0.2,0,0.3-0.1l0.4,1.8c-0.1,0-0.3,0.1-0.5,0.1c-0.2,0.1-0.5,0.1-0.8,0.1
	c-0.6,0-1.1-0.1-1.5-0.2c-0.4-0.2-0.8-0.5-1-0.8c-0.2-0.4-0.4-0.8-0.4-1.4V-172z M174.6-161.2v-8.7h2.4v8.7H174.6z M175.8-171
	c-0.4,0-0.7-0.1-0.9-0.4c-0.3-0.2-0.4-0.5-0.4-0.9c0-0.3,0.1-0.6,0.4-0.9c0.3-0.2,0.6-0.4,0.9-0.4s0.7,0.1,0.9,0.4
	c0.3,0.2,0.4,0.5,0.4,0.9c0,0.3-0.1,0.6-0.4,0.9C176.5-171.2,176.2-171,175.8-171z M179-161.2v-8.7h2.3v1.5h0.1
	c0.2-0.5,0.5-0.9,0.9-1.2c0.4-0.3,0.9-0.4,1.5-0.4c0.6,0,1.1,0.1,1.5,0.4c0.4,0.3,0.7,0.7,0.8,1.2h0.1c0.2-0.5,0.5-0.9,1-1.2
	c0.5-0.3,1-0.5,1.7-0.5c0.8,0,1.5,0.3,2,0.8c0.5,0.5,0.8,1.2,0.8,2.2v5.9h-2.4v-5.4c0-0.5-0.1-0.8-0.4-1.1c-0.3-0.2-0.6-0.4-1-0.4
	c-0.4,0-0.8,0.1-1,0.4c-0.2,0.3-0.4,0.6-0.4,1.1v5.3h-2.3v-5.4c0-0.4-0.1-0.8-0.4-1c-0.2-0.3-0.6-0.4-1-0.4c-0.3,0-0.5,0.1-0.7,0.2
	c-0.2,0.1-0.4,0.3-0.5,0.6c-0.1,0.2-0.2,0.5-0.2,0.8v5.2H179z M197.6-161c-0.9,0-1.7-0.2-2.3-0.5c-0.6-0.4-1.1-0.9-1.5-1.6
	c-0.3-0.7-0.5-1.5-0.5-2.4c0-0.9,0.2-1.7,0.5-2.4c0.3-0.7,0.8-1.2,1.5-1.6c0.6-0.4,1.4-0.6,2.2-0.6c0.6,0,1.1,0.1,1.6,0.3
	c0.5,0.2,0.9,0.5,1.3,0.8c0.4,0.4,0.7,0.8,0.9,1.4c0.2,0.6,0.3,1.2,0.3,1.9v0.7h-7.4v-1.5h5.1c0-0.3-0.1-0.7-0.2-0.9
	c-0.2-0.3-0.4-0.5-0.6-0.6c-0.3-0.2-0.6-0.2-0.9-0.2c-0.4,0-0.7,0.1-1,0.3c-0.3,0.2-0.5,0.4-0.7,0.7c-0.2,0.3-0.2,0.6-0.2,0.9v1.4
	c0,0.4,0.1,0.8,0.2,1.1c0.2,0.3,0.4,0.6,0.7,0.7c0.3,0.2,0.6,0.3,1.1,0.3c0.3,0,0.5,0,0.7-0.1c0.2-0.1,0.4-0.2,0.6-0.3
	c0.2-0.2,0.3-0.3,0.4-0.6l2.2,0.1c-0.1,0.5-0.3,1-0.7,1.4c-0.3,0.4-0.8,0.7-1.4,0.9C198.9-161.1,198.3-161,197.6-161z M204.6-161
	c-0.4,0-0.7-0.1-1-0.4c-0.3-0.3-0.4-0.6-0.4-1c0-0.4,0.1-0.7,0.4-1c0.3-0.3,0.6-0.4,1-0.4c0.4,0,0.7,0.1,1,0.4
	c0.3,0.3,0.4,0.6,0.4,1c0,0.2-0.1,0.5-0.2,0.7c-0.1,0.2-0.3,0.4-0.5,0.5C205-161.1,204.8-161,204.6-161z M204.6-167.1
	c-0.4,0-0.7-0.1-1-0.4c-0.3-0.3-0.4-0.6-0.4-1c0-0.4,0.1-0.7,0.4-0.9c0.3-0.3,0.6-0.4,1-0.4c0.4,0,0.7,0.1,1,0.4
	c0.3,0.3,0.4,0.6,0.4,0.9c0,0.3-0.1,0.5-0.2,0.7c-0.1,0.2-0.3,0.4-0.5,0.5C205-167.2,204.8-167.1,204.6-167.1z"/>
<path d="M228.7-161c-0.5,0-1-0.1-1.5-0.3c-0.5-0.2-1-0.5-1.4-0.9c-0.4-0.4-0.7-1-1-1.7c-0.2-0.7-0.4-1.6-0.4-2.7
	c0-1,0.1-1.9,0.3-2.7c0.2-0.8,0.5-1.5,0.9-2c0.4-0.5,0.8-1,1.4-1.2c0.5-0.3,1.1-0.4,1.8-0.4c0.7,0,1.3,0.1,1.8,0.4
	c0.5,0.3,1,0.6,1.3,1.1c0.3,0.5,0.6,1,0.6,1.6h-1.7c-0.1-0.5-0.4-0.9-0.7-1.2c-0.3-0.3-0.8-0.5-1.4-0.5c-0.9,0-1.5,0.4-2,1.1
	c-0.5,0.7-0.7,1.8-0.7,3.1h0.1c0.2-0.3,0.4-0.6,0.7-0.8c0.3-0.2,0.6-0.4,1-0.5c0.4-0.1,0.8-0.2,1.2-0.2c0.7,0,1.3,0.2,1.8,0.5
	c0.5,0.3,1,0.8,1.3,1.4c0.3,0.6,0.5,1.2,0.5,2s-0.2,1.4-0.5,2c-0.3,0.6-0.8,1.1-1.4,1.4C230.2-161.2,229.5-161,228.7-161z
	 M228.7-162.5c0.4,0,0.8-0.1,1.2-0.3c0.4-0.2,0.6-0.5,0.8-0.9c0.2-0.4,0.3-0.8,0.3-1.2c0-0.4-0.1-0.9-0.3-1.2
	c-0.2-0.4-0.5-0.7-0.8-0.9c-0.3-0.2-0.7-0.3-1.2-0.3c-0.3,0-0.6,0.1-0.9,0.2c-0.3,0.1-0.5,0.3-0.8,0.5c-0.2,0.2-0.4,0.5-0.5,0.8
	c-0.1,0.3-0.2,0.6-0.2,0.9c0,0.4,0.1,0.8,0.3,1.2c0.2,0.4,0.5,0.7,0.8,0.9C227.8-162.6,228.2-162.5,228.7-162.5z M244.2-167.7v1.5
	H239v-1.5H244.2z M254.6-161c-0.8,0-1.5-0.1-2.2-0.4c-0.6-0.3-1.1-0.7-1.5-1.2c-0.4-0.5-0.5-1.1-0.5-1.7c0-0.5,0.1-0.9,0.3-1.4
	c0.2-0.4,0.5-0.8,0.8-1c0.4-0.3,0.8-0.5,1.2-0.5v-0.1c-0.6-0.1-1-0.5-1.4-0.9c-0.3-0.5-0.5-1-0.5-1.7c0-0.6,0.2-1.1,0.5-1.6
	c0.3-0.5,0.8-0.8,1.3-1.1c0.6-0.3,1.2-0.4,1.9-0.4c0.7,0,1.3,0.1,1.9,0.4c0.6,0.3,1,0.6,1.3,1.1c0.3,0.5,0.5,1,0.5,1.6
	c0,0.6-0.2,1.2-0.5,1.7c-0.4,0.5-0.8,0.8-1.4,0.9v0.1c0.4,0.1,0.8,0.3,1.2,0.5c0.4,0.3,0.6,0.6,0.8,1c0.2,0.4,0.3,0.9,0.3,1.4
	c0,0.6-0.2,1.2-0.5,1.7c-0.4,0.5-0.8,0.9-1.5,1.2C256.1-161.2,255.4-161,254.6-161z M254.6-162.5c0.5,0,0.9-0.1,1.2-0.2
	c0.4-0.2,0.6-0.4,0.8-0.7c0.2-0.3,0.3-0.6,0.3-1c0-0.4-0.1-0.8-0.3-1.1c-0.2-0.3-0.5-0.6-0.8-0.7c-0.4-0.2-0.8-0.3-1.2-0.3
	c-0.5,0-0.9,0.1-1.2,0.3c-0.4,0.2-0.6,0.4-0.8,0.7c-0.2,0.3-0.3,0.7-0.3,1.1c0,0.4,0.1,0.7,0.3,1c0.2,0.3,0.5,0.5,0.8,0.7
	C253.7-162.5,254.1-162.5,254.6-162.5z M254.6-167.9c0.4,0,0.7-0.1,1-0.2c0.3-0.2,0.5-0.4,0.7-0.6c0.2-0.3,0.3-0.6,0.3-1
	c0-0.4-0.1-0.7-0.3-1c-0.2-0.3-0.4-0.5-0.7-0.6c-0.3-0.2-0.6-0.2-1-0.2c-0.4,0-0.8,0.1-1.1,0.2c-0.3,0.1-0.5,0.4-0.7,0.6
	c-0.2,0.3-0.2,0.6-0.2,1c0,0.4,0.1,0.7,0.2,1c0.2,0.3,0.4,0.5,0.7,0.6C253.8-168,254.2-167.9,254.6-167.9z M266.9-161.2l-2.6-8.7
	h1.8l1.7,6.4h0.1l1.7-6.4h1.8l1.7,6.4h0.1l1.7-6.4h1.8l-2.6,8.7h-1.7l-1.8-6.3h-0.1l-1.8,6.3H266.9z M281.7-161
	c-0.9,0-1.6-0.2-2.2-0.6c-0.6-0.4-1.1-0.9-1.4-1.6c-0.3-0.7-0.5-1.5-0.5-2.4c0-0.9,0.2-1.7,0.5-2.4c0.3-0.7,0.8-1.2,1.4-1.6
	c0.6-0.4,1.3-0.6,2.1-0.6c0.5,0,1,0.1,1.4,0.2c0.5,0.2,0.9,0.4,1.2,0.8c0.4,0.3,0.7,0.8,0.9,1.4c0.2,0.6,0.3,1.2,0.3,2v0.6h-6.9
	v-1.3h5.3c0-0.4-0.1-0.8-0.3-1.2c-0.2-0.3-0.4-0.6-0.8-0.8c-0.3-0.2-0.7-0.3-1.1-0.3c-0.5,0-0.9,0.1-1.2,0.4
	c-0.4,0.2-0.6,0.5-0.8,0.9c-0.2,0.4-0.3,0.8-0.3,1.2v1c0,0.6,0.1,1.1,0.3,1.5c0.2,0.4,0.5,0.7,0.9,0.9c0.4,0.2,0.8,0.3,1.3,0.3
	c0.3,0,0.6,0,0.9-0.1c0.3-0.1,0.5-0.2,0.7-0.4c0.2-0.2,0.3-0.4,0.4-0.7l1.6,0.3c-0.1,0.5-0.4,0.9-0.7,1.2c-0.3,0.4-0.7,0.6-1.2,0.8
	C282.9-161.1,282.4-161,281.7-161z M291.1-161c-0.9,0-1.6-0.2-2.2-0.6c-0.6-0.4-1.1-0.9-1.4-1.6c-0.3-0.7-0.5-1.5-0.5-2.4
	c0-0.9,0.2-1.7,0.5-2.4c0.3-0.7,0.8-1.2,1.4-1.6c0.6-0.4,1.3-0.6,2.1-0.6c0.5,0,1,0.1,1.4,0.2c0.5,0.2,0.9,0.4,1.2,0.8
	c0.4,0.3,0.7,0.8,0.9,1.4c0.2,0.6,0.3,1.2,0.3,2v0.6h-6.9v-1.3h5.3c0-0.4-0.1-0.8-0.3-1.2c-0.2-0.3-0.4-0.6-0.8-0.8
	c-0.3-0.2-0.7-0.3-1.1-0.3c-0.5,0-0.9,0.1-1.2,0.4c-0.4,0.2-0.6,0.5-0.8,0.9c-0.2,0.4-0.3,0.8-0.3,1.2v1c0,0.6,0.1,1.1,0.3,1.5
	c0.2,0.4,0.5,0.7,0.9,0.9c0.4,0.2,0.8,0.3,1.3,0.3c0.3,0,0.6,0,0.9-0.1c0.3-0.1,0.5-0.2,0.7-0.4c0.2-0.2,0.3-0.4,0.4-0.7l1.6,0.3
	c-0.1,0.5-0.4,0.9-0.7,1.2c-0.3,0.4-0.7,0.6-1.2,0.8C292.3-161.1,291.7-161,291.1-161z M298.3-164.1l0-2.1h0.3l3.5-3.7h2l-4,4.2
	h-0.3L298.3-164.1z M296.7-161.2v-11.6h1.7v11.6H296.7z M302.3-161.2l-3.1-4.1l1.2-1.2l4,5.3H302.3z M312.2-167.8l-1.5,0.3
	c-0.1-0.2-0.2-0.4-0.3-0.6c-0.1-0.2-0.3-0.3-0.6-0.4c-0.2-0.1-0.5-0.2-0.9-0.2c-0.5,0-0.9,0.1-1.2,0.3c-0.3,0.2-0.5,0.5-0.5,0.8
	c0,0.3,0.1,0.5,0.3,0.7s0.6,0.3,1,0.4l1.4,0.3c0.8,0.2,1.4,0.5,1.8,0.9c0.4,0.4,0.6,0.9,0.6,1.5c0,0.5-0.2,1-0.5,1.4
	c-0.3,0.4-0.7,0.7-1.3,1c-0.5,0.2-1.2,0.3-1.9,0.3c-1,0-1.8-0.2-2.4-0.6c-0.6-0.4-1-1-1.1-1.8l1.6-0.2c0.1,0.4,0.3,0.8,0.6,1
	c0.3,0.2,0.7,0.3,1.2,0.3c0.6,0,1-0.1,1.3-0.3c0.3-0.2,0.5-0.5,0.5-0.9c0-0.3-0.1-0.5-0.3-0.7c-0.2-0.2-0.5-0.3-0.9-0.4l-1.5-0.3
	c-0.8-0.2-1.4-0.5-1.8-0.9c-0.4-0.4-0.6-0.9-0.6-1.5c0-0.5,0.1-1,0.4-1.4c0.3-0.4,0.7-0.7,1.2-0.9c0.5-0.2,1.1-0.3,1.7-0.3
	c0.9,0,1.7,0.2,2.2,0.6C311.7-169,312-168.5,312.2-167.8z"/>
<path class="st1" d="M345.1-178.7c-0.5,0.2-0.4,0.5,0.1,0.7c0.7,0.2,0.9,1.9,0.3,1.9c-0.8,0-3.6,1.3-4.6,2.1
	c-0.2,0.2-0.3,0.1-0.9-0.4c0.8-0.8,1.4-1.3,0.2-1.3c-0.8,0-3,1.8-3,2.4c0,0.2,0.8,0.3,1.3,0.1c0.6-0.2,0.5-0.2,1.1,0.4l-0.3,0.3
	c-3.9,3.5-6.7,16,7,17.8c6.4,0.8,11.3-2.8,12-8.8l0.1-0.9l0.8-0.1c1.6-0.2,1.4-2.3-0.2-2.6c-0.3-0.1-0.6-0.2-0.6-0.3
	c-1-3.8-2.9-6.4-4.1-5.8c-0.4,0.2-0.3,0.3,0.3,0.7c2.5,1.4,3.3,8.4,1.4,12c-4.2,8.1-17,5.9-17.9-3.1c-0.9-8.7,6.8-14.4,14.2-10.6
	c1,0.5,2.2,0.5,2.9,0l0.5-0.4l0.3,0.4c1.1,1.2,2.1,0.3,1-1c-1.3-1.5-3.4-2-2.6-0.6c0.6,1-0.2,1.3-1.8,0.6c-0.6-0.3-1.6-0.6-2.2-0.7
	l-1-0.2c0-0.4,0-1.1-0.1-1.7c-0.1-0.4-0.1-0.4,0.4-0.4c0.6,0,0.8-0.2,0.5-0.4C350-178.8,345.5-178.8,345.1-178.7z M348.4-176.2h-1.3
	v-0.8c0-0.9,0-0.9,1-1C348.4-178.1,348.4-178,348.4-176.2z M346.9-174.1c-0.4,0.4,0,2.1,0.5,2.3c0.6,0.2,0.9-1.3,0.5-2.1
	C347.8-174.2,347.1-174.3,346.9-174.1z M343.9-172.2c0.3,1.3,1.8,4.1,2.5,5.3l-0.3,0.5c-0.3,0.6-0.3,1.2,0,1.5
	c1.3,1.2,3.7,3.7,4.7,4.3c1.1,0.7,3.6,0.5,1.8-2c-0.8-1.1-2.4-2.5-3.2-3.6c-0.4-0.5-0.6-0.6-0.9-0.6c-0.5,0-0.7,0.3-0.4,0.5
	c0.3,0.1,0.3,0.8,0.1,1.3c-0.4,0.7-1.8-0.1-1.5-0.8c0.1-0.2,0.3-0.4,0.4-0.4c0.4,0,0.7-0.6,0.4-0.7c-0.1-0.1-0.4-0.5-0.7-1
	c-1-2-1.8-3.4-2.4-4.2C343.9-173.2,343.7-173.2,343.9-172.2z M353.6-165.9c-0.5,0.4-0.1,0.6,1.2,0.6c1.4,0,2-0.3,1.6-0.6
	C356.1-166.1,353.9-166.2,353.6-165.9z M338.8-165.7c-0.6,0.2-0.1,0.5,0.9,0.6c1,0.1,1.5,0,1.5-0.3
	C341.1-165.7,339.6-165.9,338.8-165.7z M347.2-158.8c-0.1,1,0.1,1.6,0.6,1.6c0.6,0,0.8-0.3,0.5-1.3
	C347.9-159.6,347.3-159.8,347.2-158.8z"/>
<path d="M378.7-169.1c-0.1-0.3-0.2-0.5-0.3-0.7c-0.1-0.2-0.3-0.4-0.5-0.5c-0.2-0.2-0.4-0.3-0.7-0.3c-0.3-0.1-0.6-0.1-0.9-0.1
	c-0.6,0-1.1,0.1-1.6,0.4c-0.4,0.3-0.8,0.7-1,1.3c-0.2,0.6-0.4,1.2-0.4,2.1c0,0.8,0.1,1.5,0.4,2.1c0.2,0.6,0.6,1,1,1.3
	c0.5,0.3,1,0.4,1.6,0.4c0.6,0,1-0.1,1.4-0.3c0.4-0.2,0.7-0.5,0.9-0.8c0.2-0.4,0.3-0.8,0.3-1.3l0.5,0.1h-3v-1.9h4.9v1.5
	c0,1-0.2,1.9-0.6,2.6c-0.4,0.7-1,1.3-1.8,1.7c-0.8,0.4-1.6,0.6-2.6,0.6c-1.1,0-2.1-0.2-2.9-0.7c-0.8-0.5-1.5-1.2-1.9-2.1
	c-0.5-0.9-0.7-2-0.7-3.2c0-0.9,0.1-1.8,0.4-2.5c0.3-0.7,0.7-1.4,1.2-1.9c0.5-0.5,1.1-0.9,1.7-1.2c0.7-0.3,1.4-0.4,2.1-0.4
	c0.7,0,1.3,0.1,1.8,0.3c0.6,0.2,1.1,0.5,1.5,0.8c0.4,0.3,0.8,0.8,1.1,1.2c0.3,0.5,0.5,1,0.5,1.6H378.7z M385.6-161
	c-0.6,0-1.1-0.1-1.5-0.3c-0.4-0.2-0.8-0.5-1-0.9c-0.2-0.4-0.4-0.9-0.4-1.4c0-0.5,0.1-0.9,0.3-1.2c0.2-0.3,0.4-0.6,0.7-0.8
	c0.3-0.2,0.7-0.4,1-0.5c0.4-0.1,0.8-0.2,1.2-0.2c0.5-0.1,0.9-0.1,1.2-0.1c0.3,0,0.5-0.1,0.7-0.2c0.1-0.1,0.2-0.2,0.2-0.4v0
	c0-0.4-0.1-0.6-0.3-0.8c-0.2-0.2-0.5-0.3-1-0.3c-0.4,0-0.8,0.1-1,0.3c-0.3,0.2-0.4,0.4-0.5,0.7l-2.2-0.2c0.1-0.5,0.3-1,0.7-1.4
	c0.3-0.4,0.8-0.7,1.3-0.9c0.5-0.2,1.1-0.3,1.8-0.3c0.5,0,0.9,0.1,1.4,0.2c0.4,0.1,0.8,0.3,1.2,0.5c0.3,0.2,0.6,0.5,0.8,0.9
	c0.2,0.4,0.3,0.8,0.3,1.3v5.9h-2.3v-1.2h-0.1c-0.1,0.3-0.3,0.5-0.6,0.7c-0.2,0.2-0.5,0.4-0.8,0.5C386.4-161.1,386-161,385.6-161z
	 M386.3-162.7c0.4,0,0.7-0.1,0.9-0.2c0.3-0.1,0.5-0.3,0.6-0.6c0.2-0.2,0.2-0.5,0.2-0.8v-0.9c-0.1,0-0.2,0.1-0.3,0.1
	c-0.1,0-0.3,0.1-0.4,0.1c-0.2,0-0.3,0.1-0.5,0.1c-0.2,0-0.3,0-0.4,0.1c-0.3,0-0.5,0.1-0.7,0.2c-0.2,0.1-0.4,0.2-0.5,0.4
	c-0.1,0.2-0.2,0.3-0.2,0.6c0,0.3,0.1,0.6,0.4,0.8C385.6-162.8,385.9-162.7,386.3-162.7z M392.4-161.2v-8.7h2.3v1.5h0.1
	c0.2-0.5,0.5-0.9,0.9-1.2c0.4-0.3,0.9-0.4,1.5-0.4c0.6,0,1.1,0.1,1.5,0.4c0.4,0.3,0.7,0.7,0.8,1.2h0.1c0.2-0.5,0.5-0.9,1-1.2
	c0.5-0.3,1-0.5,1.7-0.5c0.8,0,1.5,0.3,2,0.8c0.5,0.5,0.8,1.2,0.8,2.2v5.9h-2.4v-5.4c0-0.5-0.1-0.8-0.4-1.1c-0.3-0.2-0.6-0.4-1-0.4
	c-0.4,0-0.8,0.1-1,0.4c-0.2,0.3-0.4,0.6-0.4,1.1v5.3h-2.3v-5.4c0-0.4-0.1-0.8-0.4-1c-0.2-0.3-0.6-0.4-1-0.4c-0.3,0-0.5,0.1-0.7,0.2
	c-0.2,0.1-0.4,0.3-0.5,0.6c-0.1,0.2-0.2,0.5-0.2,0.8v5.2H392.4z M411-161c-0.9,0-1.7-0.2-2.3-0.5c-0.6-0.4-1.1-0.9-1.5-1.6
	c-0.3-0.7-0.5-1.5-0.5-2.4c0-0.9,0.2-1.7,0.5-2.4c0.3-0.7,0.8-1.2,1.5-1.6c0.6-0.4,1.4-0.6,2.2-0.6c0.6,0,1.1,0.1,1.6,0.3
	c0.5,0.2,0.9,0.5,1.3,0.8c0.4,0.4,0.7,0.8,0.9,1.4c0.2,0.6,0.3,1.2,0.3,1.9v0.7h-7.4v-1.5h5.1c0-0.3-0.1-0.7-0.2-0.9
	c-0.2-0.3-0.4-0.5-0.6-0.6c-0.3-0.2-0.6-0.2-0.9-0.2c-0.4,0-0.7,0.1-1,0.3c-0.3,0.2-0.5,0.4-0.7,0.7c-0.2,0.3-0.2,0.6-0.2,0.9v1.4
	c0,0.4,0.1,0.8,0.2,1.1c0.2,0.3,0.4,0.6,0.7,0.7c0.3,0.2,0.6,0.3,1.1,0.3c0.3,0,0.5,0,0.7-0.1c0.2-0.1,0.4-0.2,0.6-0.3
	c0.2-0.2,0.3-0.3,0.4-0.6l2.2,0.1c-0.1,0.5-0.3,1-0.7,1.4c-0.3,0.4-0.8,0.7-1.4,0.9C412.3-161.1,411.7-161,411-161z M423.5-161
	c-0.7,0-1.3-0.2-1.8-0.5c-0.5-0.3-1-0.9-1.3-1.5c-0.3-0.7-0.5-1.5-0.5-2.5c0-1,0.2-1.8,0.5-2.5c0.3-0.7,0.8-1.2,1.3-1.5
	c0.5-0.3,1.1-0.5,1.8-0.5c0.5,0,0.9,0.1,1.2,0.2c0.3,0.2,0.6,0.4,0.8,0.6c0.2,0.2,0.4,0.5,0.5,0.7h0.1v-4.4h2.4v11.6H426v-1.4h-0.1
	c-0.1,0.2-0.3,0.5-0.5,0.7c-0.2,0.2-0.5,0.4-0.8,0.6C424.3-161.1,423.9-161,423.5-161z M424.2-163c0.4,0,0.7-0.1,1-0.3
	c0.3-0.2,0.5-0.5,0.6-0.9c0.1-0.4,0.2-0.8,0.2-1.4c0-0.5-0.1-1-0.2-1.4c-0.1-0.4-0.4-0.7-0.6-0.9c-0.3-0.2-0.6-0.3-1-0.3
	c-0.4,0-0.7,0.1-1,0.3c-0.3,0.2-0.5,0.5-0.6,0.9c-0.1,0.4-0.2,0.8-0.2,1.3c0,0.5,0.1,1,0.2,1.3c0.1,0.4,0.4,0.7,0.6,0.9
	C423.5-163.1,423.8-163,424.2-163z M436-164.9v-5h2.4v8.7h-2.3v-1.6H436c-0.2,0.5-0.5,0.9-1,1.2c-0.5,0.3-1,0.5-1.7,0.5
	c-0.6,0-1.1-0.1-1.5-0.4c-0.4-0.3-0.8-0.6-1-1.1c-0.2-0.5-0.4-1.1-0.4-1.8v-5.6h2.4v5.1c0,0.5,0.1,0.9,0.4,1.2
	c0.3,0.3,0.6,0.4,1.1,0.4c0.3,0,0.6-0.1,0.8-0.2c0.3-0.1,0.5-0.3,0.6-0.6C436-164.2,436-164.5,436-164.9z M440.4-161.2v-8.7h2.3v1.5
	h0.1c0.2-0.5,0.4-1,0.8-1.2c0.4-0.3,0.8-0.4,1.3-0.4c0.1,0,0.3,0,0.4,0c0.1,0,0.3,0,0.4,0.1v2.1c-0.1,0-0.3-0.1-0.5-0.1
	c-0.2,0-0.4,0-0.6,0c-0.4,0-0.7,0.1-1,0.2c-0.3,0.2-0.5,0.4-0.7,0.6c-0.2,0.3-0.2,0.6-0.2,0.9v4.9H440.4z M449.2-161
	c-0.6,0-1.1-0.1-1.5-0.3c-0.4-0.2-0.8-0.5-1-0.9c-0.2-0.4-0.4-0.9-0.4-1.4c0-0.5,0.1-0.9,0.3-1.2c0.2-0.3,0.4-0.6,0.7-0.8
	c0.3-0.2,0.7-0.4,1-0.5c0.4-0.1,0.8-0.2,1.2-0.2c0.5-0.1,0.9-0.1,1.2-0.1c0.3,0,0.5-0.1,0.7-0.2c0.1-0.1,0.2-0.2,0.2-0.4v0
	c0-0.4-0.1-0.6-0.3-0.8c-0.2-0.2-0.5-0.3-1-0.3c-0.4,0-0.8,0.1-1,0.3c-0.3,0.2-0.4,0.4-0.5,0.7l-2.2-0.2c0.1-0.5,0.3-1,0.7-1.4
	c0.3-0.4,0.8-0.7,1.3-0.9c0.5-0.2,1.1-0.3,1.8-0.3c0.5,0,0.9,0.1,1.4,0.2c0.4,0.1,0.8,0.3,1.2,0.5c0.3,0.2,0.6,0.5,0.8,0.9
	c0.2,0.4,0.3,0.8,0.3,1.3v5.9h-2.3v-1.2h-0.1c-0.1,0.3-0.3,0.5-0.6,0.7c-0.2,0.2-0.5,0.4-0.8,0.5C450-161.1,449.6-161,449.2-161z
	 M449.9-162.7c0.4,0,0.7-0.1,0.9-0.2c0.3-0.1,0.5-0.3,0.6-0.6c0.2-0.2,0.2-0.5,0.2-0.8v-0.9c-0.1,0-0.2,0.1-0.3,0.1
	c-0.1,0-0.3,0.1-0.4,0.1c-0.2,0-0.3,0.1-0.5,0.1c-0.2,0-0.3,0-0.4,0.1c-0.3,0-0.5,0.1-0.7,0.2c-0.2,0.1-0.4,0.2-0.5,0.4
	c-0.1,0.2-0.2,0.3-0.2,0.6c0,0.3,0.1,0.6,0.4,0.8C449.2-162.8,449.5-162.7,449.9-162.7z M460.6-169.9v1.8h-5.3v-1.8H460.6z
	 M456.5-172h2.4v8.1c0,0.2,0,0.4,0.1,0.5c0.1,0.1,0.2,0.2,0.3,0.3c0.1,0,0.3,0.1,0.4,0.1c0.1,0,0.2,0,0.3,0c0.1,0,0.2,0,0.3-0.1
	l0.4,1.8c-0.1,0-0.3,0.1-0.5,0.1c-0.2,0.1-0.5,0.1-0.8,0.1c-0.6,0-1.1-0.1-1.5-0.2c-0.4-0.2-0.8-0.5-1-0.8c-0.2-0.4-0.4-0.8-0.4-1.4
	V-172z M462.2-161.2v-8.7h2.4v8.7H462.2z M463.4-171c-0.4,0-0.7-0.1-0.9-0.4c-0.3-0.2-0.4-0.5-0.4-0.9c0-0.3,0.1-0.6,0.4-0.9
	c0.3-0.2,0.6-0.4,0.9-0.4c0.4,0,0.7,0.1,0.9,0.4c0.3,0.2,0.4,0.5,0.4,0.9c0,0.3-0.1,0.6-0.4,0.9C464.1-171.2,463.8-171,463.4-171z
	 M470.5-161c-0.9,0-1.6-0.2-2.3-0.6c-0.6-0.4-1.1-0.9-1.5-1.6c-0.3-0.7-0.5-1.5-0.5-2.4c0-0.9,0.2-1.7,0.5-2.4
	c0.3-0.7,0.8-1.2,1.5-1.6c0.6-0.4,1.4-0.6,2.3-0.6c0.9,0,1.6,0.2,2.3,0.6c0.6,0.4,1.1,0.9,1.5,1.6c0.3,0.7,0.5,1.5,0.5,2.4
	c0,0.9-0.2,1.7-0.5,2.4c-0.3,0.7-0.8,1.2-1.5,1.6C472.1-161.2,471.4-161,470.5-161z M470.5-162.9c0.4,0,0.7-0.1,1-0.3
	c0.3-0.2,0.5-0.5,0.6-0.9c0.1-0.4,0.2-0.9,0.2-1.4c0-0.5-0.1-1-0.2-1.4c-0.1-0.4-0.3-0.7-0.6-0.9c-0.3-0.2-0.6-0.3-1-0.3
	c-0.4,0-0.7,0.1-1,0.3c-0.3,0.2-0.5,0.5-0.6,0.9c-0.1,0.4-0.2,0.9-0.2,1.4c0,0.5,0.1,1,0.2,1.4c0.1,0.4,0.3,0.7,0.6,0.9
	C469.7-163,470.1-162.9,470.5-162.9z M478.8-166.2v5h-2.4v-8.7h2.3v1.5h0.1c0.2-0.5,0.5-0.9,1-1.2c0.5-0.3,1-0.4,1.7-0.4
	c0.6,0,1.1,0.1,1.6,0.4c0.5,0.3,0.8,0.6,1.1,1.1c0.2,0.5,0.4,1.1,0.4,1.8v5.6H482v-5.1c0-0.5-0.1-1-0.4-1.2
	c-0.3-0.3-0.7-0.5-1.1-0.5c-0.3,0-0.6,0.1-0.9,0.2c-0.2,0.1-0.4,0.3-0.6,0.6C478.8-166.9,478.8-166.6,478.8-166.2z M487.7-161
	c-0.4,0-0.7-0.1-1-0.4c-0.3-0.3-0.4-0.6-0.4-1c0-0.4,0.1-0.7,0.4-1c0.3-0.3,0.6-0.4,1-0.4c0.4,0,0.7,0.1,1,0.4
	c0.3,0.3,0.4,0.6,0.4,1c0,0.2-0.1,0.5-0.2,0.7c-0.1,0.2-0.3,0.4-0.5,0.5C488.2-161.1,488-161,487.7-161z M487.7-167.1
	c-0.4,0-0.7-0.1-1-0.4c-0.3-0.3-0.4-0.6-0.4-1c0-0.4,0.1-0.7,0.4-0.9c0.3-0.3,0.6-0.4,1-0.4c0.4,0,0.7,0.1,1,0.4
	c0.3,0.3,0.4,0.6,0.4,0.9c0,0.3-0.1,0.5-0.2,0.7c-0.1,0.2-0.3,0.4-0.5,0.5C488.2-167.2,488-167.1,487.7-167.1z"/>
<path d="M512.5-172.8v11.6h-1.8v-9.9h-0.1l-2.8,1.8v-1.7l2.9-1.9H512.5z M516.1-161.1c-0.3,0-0.6-0.1-0.8-0.3
	c-0.2-0.2-0.3-0.5-0.3-0.8c0-0.3,0.1-0.6,0.3-0.8c0.2-0.2,0.5-0.3,0.8-0.3c0.3,0,0.6,0.1,0.8,0.3c0.2,0.2,0.3,0.5,0.3,0.8
	c0,0.2-0.1,0.4-0.2,0.6c-0.1,0.2-0.2,0.3-0.4,0.4C516.5-161.1,516.3-161.1,516.1-161.1z M523.2-161c-0.7,0-1.4-0.1-1.9-0.4
	c-0.6-0.3-1-0.7-1.4-1.1c-0.3-0.5-0.5-1-0.5-1.6h1.7c0,0.5,0.3,0.9,0.7,1.2c0.4,0.3,0.9,0.5,1.4,0.5c0.4,0,0.8-0.1,1.2-0.3
	c0.3-0.2,0.6-0.5,0.8-0.9c0.2-0.4,0.3-0.8,0.3-1.2c0-0.5-0.1-0.9-0.3-1.3c-0.2-0.4-0.5-0.7-0.8-0.9c-0.4-0.2-0.8-0.3-1.2-0.3
	c-0.4,0-0.7,0.1-1.1,0.2c-0.4,0.1-0.6,0.3-0.9,0.5l-1.6-0.2l0.7-5.9h6.4v1.5h-4.9l-0.4,3.3h0.1c0.2-0.2,0.5-0.4,0.9-0.6
	c0.4-0.1,0.8-0.2,1.2-0.2c0.7,0,1.3,0.2,1.9,0.5c0.6,0.3,1,0.8,1.3,1.4c0.3,0.6,0.5,1.2,0.5,2c0,0.8-0.2,1.4-0.5,2
	c-0.3,0.6-0.8,1.1-1.4,1.4C524.6-161.2,524-161,523.2-161z M535.2-166.4v5.2h-1.7v-11.6h1.7v4.3h0.1c0.2-0.5,0.5-0.8,0.9-1.1
	c0.4-0.3,1-0.4,1.6-0.4c0.6,0,1.1,0.1,1.6,0.4c0.4,0.2,0.8,0.6,1,1.1c0.2,0.5,0.4,1.1,0.4,1.8v5.6h-1.7v-5.3c0-0.6-0.2-1.1-0.5-1.5
	c-0.3-0.4-0.8-0.5-1.4-0.5c-0.4,0-0.8,0.1-1.1,0.3c-0.3,0.2-0.6,0.4-0.7,0.8C535.3-167.2,535.2-166.8,535.2-166.4z M546.8-161
	c-0.8,0-1.5-0.2-2.1-0.6c-0.6-0.4-1.1-0.9-1.4-1.6c-0.3-0.7-0.5-1.5-0.5-2.4c0-0.9,0.2-1.7,0.5-2.4c0.3-0.7,0.8-1.2,1.4-1.6
	c0.6-0.4,1.3-0.6,2.1-0.6c0.8,0,1.5,0.2,2.1,0.6c0.6,0.4,1.1,0.9,1.4,1.6c0.3,0.7,0.5,1.5,0.5,2.4c0,0.9-0.2,1.7-0.5,2.4
	c-0.3,0.7-0.8,1.2-1.4,1.6C548.3-161.2,547.6-161,546.8-161z M546.8-162.4c0.5,0,1-0.1,1.3-0.4c0.3-0.3,0.6-0.7,0.8-1.1
	c0.2-0.5,0.3-1,0.3-1.5c0-0.6-0.1-1.1-0.3-1.5c-0.2-0.5-0.4-0.8-0.8-1.1c-0.3-0.3-0.8-0.4-1.3-0.4c-0.5,0-1,0.1-1.3,0.4
	c-0.3,0.3-0.6,0.7-0.8,1.1c-0.2,0.5-0.2,1-0.2,1.5c0,0.6,0.1,1.1,0.2,1.5c0.2,0.5,0.4,0.8,0.8,1.1
	C545.8-162.6,546.3-162.4,546.8-162.4z M558.3-164.8v-5.1h1.7v8.7h-1.7v-1.5h-0.1c-0.2,0.5-0.5,0.9-1,1.2c-0.4,0.3-1,0.5-1.6,0.5
	c-0.6,0-1.1-0.1-1.5-0.4c-0.4-0.2-0.8-0.6-1-1.1c-0.2-0.5-0.4-1.1-0.4-1.8v-5.6h1.7v5.3c0,0.6,0.2,1.1,0.5,1.4
	c0.3,0.4,0.8,0.5,1.3,0.5c0.3,0,0.6-0.1,0.9-0.2c0.3-0.2,0.6-0.4,0.8-0.7C558.2-163.9,558.3-164.3,558.3-164.8z M562.3-161.2v-8.7
	h1.6v1.4h0.1c0.2-0.5,0.4-0.8,0.8-1.1c0.4-0.3,0.9-0.4,1.4-0.4c0.1,0,0.2,0,0.4,0c0.1,0,0.3,0,0.3,0v1.6c-0.1,0-0.2,0-0.4-0.1
	c-0.2,0-0.3,0-0.5,0c-0.4,0-0.8,0.1-1.1,0.3c-0.3,0.2-0.6,0.4-0.7,0.7c-0.2,0.3-0.3,0.6-0.3,1v5.3H562.3z M575-167.8l-1.5,0.3
	c-0.1-0.2-0.2-0.4-0.3-0.6c-0.1-0.2-0.3-0.3-0.6-0.4c-0.2-0.1-0.5-0.2-0.9-0.2c-0.5,0-0.9,0.1-1.2,0.3c-0.3,0.2-0.5,0.5-0.5,0.8
	c0,0.3,0.1,0.5,0.3,0.7c0.2,0.2,0.6,0.3,1,0.4l1.4,0.3c0.8,0.2,1.4,0.5,1.8,0.9c0.4,0.4,0.6,0.9,0.6,1.5c0,0.5-0.2,1-0.5,1.4
	c-0.3,0.4-0.7,0.7-1.3,1c-0.5,0.2-1.2,0.3-1.9,0.3c-1,0-1.8-0.2-2.4-0.6c-0.6-0.4-1-1-1.1-1.8l1.6-0.2c0.1,0.4,0.3,0.8,0.6,1
	c0.3,0.2,0.7,0.3,1.2,0.3c0.6,0,1-0.1,1.3-0.3c0.3-0.2,0.5-0.5,0.5-0.9c0-0.3-0.1-0.5-0.3-0.7c-0.2-0.2-0.5-0.3-0.9-0.4l-1.5-0.3
	c-0.8-0.2-1.4-0.5-1.8-0.9c-0.4-0.4-0.6-0.9-0.6-1.5c0-0.5,0.1-1,0.4-1.4c0.3-0.4,0.7-0.7,1.2-0.9c0.5-0.2,1.1-0.3,1.7-0.3
	c0.9,0,1.7,0.2,2.2,0.6C574.4-169,574.8-168.5,575-167.8z"/>
<path class="st1" d="M35.5-119.4c-3.4,0.3-3.9,0.7-4.7,3.1c-3.6,11.7-3.7,19.1-3.7,18.6c0,0.7,0.1,1.4,0.5,2c0.8,1.5,1.7,2,3.7,2.4
	c4.7,0.9,9.3,0,11.6-0.9c2.1-0.8,1.5-1.2,2-2.8c1.5-4.7,4-15.5,3.5-19.3c-0.1-0.6-0.3-0.6-0.6-0.9c-0.9-0.7-1.3-1.8-2.5-2.1
	C42.7-119.9,36.8-119.5,35.5-119.4z M43.6-118.5l0.8,0.1c0.3,0.1,0.5,0.3,0.5,0.7v1c0,4.5-2.4,14.7-4.2,17.9
	c-1.4,2.4-1.7,2.6-6.1,2.7c-5.5,0.1-6.4-0.3-6.2-2.7c0.1-2.1,1.5-9.2,2.4-12.7c0.2-0.6,0.5-1.9,0.7-2.8c0.7-2.9,2.8-4.5,3.6-2.7
	c0.2,0.4,0.4,0.6,1.1,0.7c1.2,0.2,5.4-0.2,5.4-0.2c0.4,0,0.8-0.3,0.9-0.7C42.7-117.9,43.1-118.6,43.6-118.5z M41.9-118.1
	c-0.1,0.3-0.3,0.5-0.5,0.6c-0.4,0.1-1.2,0.1-2.6,0.2l-2.6,0c-0.1,0-0.3-0.1-0.3-0.2l-0.4-0.5c-0.1-0.3-0.1-0.3,0.5-0.4
	c0.7-0.1,4.8-0.2,5.9-0.2C42-118.6,42.1-118.6,41.9-118.1z M43.5-96.3c-0.1,0.3-0.4,0.3-0.6,0.1c-0.2-0.3-0.4-0.6-0.7-1
	c-0.1-0.2-0.2-0.5-0.1-0.7c2.2-5.7,2.9-8.7,4.3-18.6c0-0.1,0.1-0.1,0.2-0.2s0.2,0,0.2,0.1l0.5,0.7c0.2,0.3,0.3,0.6,0.3,0.9
	C47.4-110.9,44.4-99.1,43.5-96.3z M42.1-94.8c-0.2,0.1-1.1,0.3-1.9,0.5c-3.3,0.8-8.1,0.5-10-0.1c-0.1,0-1.5-1.5-0.9-1.4
	c0.3,0,1.6,0.3,2.1,0.3c3,0.3,6.6,0.2,8.6-0.5c1-0.4,0.9-1.1,1.2-0.9C41.2-96.8,42.9-95.1,42.1-94.8z"/>
<path d="M64.6-100.7h-4.1v-11.6h4.2c1.2,0,2.2,0.2,3,0.7c0.8,0.5,1.5,1.1,1.9,2c0.5,0.9,0.7,1.9,0.7,3.1c0,1.2-0.2,2.3-0.7,3.1
	c-0.5,0.9-1.1,1.5-2,2C66.8-100.9,65.8-100.7,64.6-100.7z M63-102.8h1.6c0.7,0,1.3-0.1,1.8-0.4c0.5-0.3,0.9-0.7,1.1-1.2
	c0.3-0.5,0.4-1.3,0.4-2.1c0-0.9-0.1-1.6-0.4-2.1c-0.2-0.5-0.6-0.9-1.1-1.2c-0.5-0.3-1.1-0.4-1.8-0.4H63V-102.8z M76.1-100.5
	c-0.9,0-1.7-0.2-2.3-0.5c-0.6-0.4-1.1-0.9-1.5-1.6c-0.3-0.7-0.5-1.5-0.5-2.4c0-0.9,0.2-1.7,0.5-2.4c0.3-0.7,0.8-1.2,1.5-1.6
	c0.6-0.4,1.4-0.6,2.2-0.6c0.6,0,1.1,0.1,1.6,0.3c0.5,0.2,0.9,0.5,1.3,0.8c0.4,0.4,0.7,0.8,0.9,1.4c0.2,0.6,0.3,1.2,0.3,1.9v0.7h-7.4
	v-1.5h5.1c0-0.3-0.1-0.7-0.2-0.9c-0.2-0.3-0.4-0.5-0.6-0.6c-0.3-0.2-0.6-0.2-0.9-0.2c-0.4,0-0.7,0.1-1,0.3c-0.3,0.2-0.5,0.4-0.7,0.7
	c-0.2,0.3-0.2,0.6-0.2,0.9v1.4c0,0.4,0.1,0.8,0.2,1.1c0.2,0.3,0.4,0.6,0.7,0.7c0.3,0.2,0.6,0.3,1.1,0.3c0.3,0,0.5,0,0.7-0.1
	c0.2-0.1,0.4-0.2,0.6-0.3c0.2-0.2,0.3-0.3,0.4-0.6l2.2,0.1c-0.1,0.5-0.3,1-0.7,1.4c-0.3,0.4-0.8,0.7-1.4,0.9
	C77.4-100.6,76.8-100.5,76.1-100.5z M89.6-109.4l-3.1,8.7h-2.7l-3.1-8.7h2.6l1.8,6.2h0.1l1.8-6.2H89.6z M90.8-100.7v-8.7h2.4v8.7
	H90.8z M92-110.5c-0.4,0-0.7-0.1-0.9-0.4c-0.3-0.2-0.4-0.5-0.4-0.9c0-0.3,0.1-0.6,0.4-0.9c0.3-0.2,0.6-0.4,0.9-0.4
	c0.4,0,0.7,0.1,0.9,0.4c0.3,0.2,0.4,0.5,0.4,0.9c0,0.3-0.1,0.6-0.4,0.9C92.7-110.7,92.4-110.5,92-110.5z M99.1-100.5
	c-0.9,0-1.7-0.2-2.3-0.6c-0.6-0.4-1.1-0.9-1.5-1.6c-0.3-0.7-0.5-1.5-0.5-2.3c0-0.9,0.2-1.7,0.5-2.4c0.3-0.7,0.8-1.2,1.5-1.6
	c0.6-0.4,1.4-0.6,2.3-0.6c0.8,0,1.4,0.1,2,0.4c0.6,0.3,1,0.7,1.4,1.2s0.5,1.1,0.6,1.8h-2.3c-0.1-0.4-0.2-0.8-0.5-1.1
	c-0.3-0.3-0.6-0.4-1.1-0.4c-0.4,0-0.7,0.1-1,0.3c-0.3,0.2-0.5,0.5-0.6,0.9c-0.2,0.4-0.2,0.9-0.2,1.4c0,0.6,0.1,1,0.2,1.4
	c0.2,0.4,0.4,0.7,0.7,0.9c0.3,0.2,0.6,0.3,1,0.3c0.3,0,0.5-0.1,0.7-0.2c0.2-0.1,0.4-0.3,0.6-0.5c0.1-0.2,0.2-0.5,0.3-0.8h2.3
	c0,0.7-0.2,1.3-0.5,1.8c-0.3,0.5-0.8,0.9-1.3,1.2C100.5-100.7,99.9-100.5,99.1-100.5z M108.5-100.5c-0.9,0-1.7-0.2-2.3-0.5
	c-0.6-0.4-1.1-0.9-1.5-1.6c-0.3-0.7-0.5-1.5-0.5-2.4c0-0.9,0.2-1.7,0.5-2.4c0.3-0.7,0.8-1.2,1.5-1.6c0.6-0.4,1.4-0.6,2.2-0.6
	c0.6,0,1.1,0.1,1.6,0.3c0.5,0.2,0.9,0.5,1.3,0.8c0.4,0.4,0.7,0.8,0.9,1.4c0.2,0.6,0.3,1.2,0.3,1.9v0.7h-7.4v-1.5h5.1
	c0-0.3-0.1-0.7-0.2-0.9c-0.2-0.3-0.4-0.5-0.6-0.6c-0.3-0.2-0.6-0.2-0.9-0.2c-0.4,0-0.7,0.1-1,0.3c-0.3,0.2-0.5,0.4-0.7,0.7
	c-0.2,0.3-0.2,0.6-0.2,0.9v1.4c0,0.4,0.1,0.8,0.2,1.1c0.2,0.3,0.4,0.6,0.7,0.7c0.3,0.2,0.6,0.3,1.1,0.3c0.3,0,0.5,0,0.7-0.1
	c0.2-0.1,0.4-0.2,0.6-0.3c0.2-0.2,0.3-0.3,0.4-0.6l2.2,0.1c-0.1,0.5-0.3,1-0.7,1.4c-0.3,0.4-0.8,0.7-1.4,0.9
	C109.9-100.6,109.2-100.5,108.5-100.5z M121.4-106.9l-2.2,0.1c0-0.2-0.1-0.4-0.2-0.5c-0.1-0.2-0.3-0.3-0.5-0.4
	c-0.2-0.1-0.4-0.1-0.7-0.1c-0.4,0-0.7,0.1-0.9,0.2c-0.3,0.2-0.4,0.4-0.4,0.6c0,0.2,0.1,0.4,0.2,0.5c0.2,0.1,0.5,0.3,0.9,0.3l1.6,0.3
	c0.8,0.2,1.5,0.5,1.9,0.8c0.4,0.4,0.6,0.9,0.6,1.5c0,0.6-0.2,1.1-0.5,1.5c-0.3,0.4-0.8,0.8-1.4,1c-0.6,0.2-1.2,0.4-2,0.4
	c-1.2,0-2.1-0.2-2.8-0.7c-0.7-0.5-1.1-1.1-1.2-2l2.4-0.1c0.1,0.4,0.2,0.6,0.5,0.8c0.3,0.2,0.6,0.3,1.1,0.3c0.4,0,0.8-0.1,1-0.2
	c0.3-0.2,0.4-0.4,0.4-0.6c0-0.2-0.1-0.4-0.3-0.5c-0.2-0.1-0.5-0.3-0.8-0.3l-1.5-0.3c-0.9-0.2-1.5-0.5-1.9-0.9
	c-0.4-0.4-0.6-1-0.6-1.6c0-0.6,0.2-1,0.5-1.4c0.3-0.4,0.7-0.7,1.3-0.9c0.6-0.2,1.2-0.3,2-0.3c1.1,0,2,0.2,2.6,0.7
	C120.9-108.4,121.3-107.7,121.4-106.9z M129.2-105.7v5h-2.4v-8.7h2.3v1.5h0.1c0.2-0.5,0.5-0.9,1-1.2c0.5-0.3,1-0.4,1.7-0.4
	c0.6,0,1.1,0.1,1.6,0.4c0.5,0.3,0.8,0.6,1.1,1.1c0.2,0.5,0.4,1.1,0.4,1.8v5.6h-2.4v-5.1c0-0.5-0.1-1-0.4-1.2
	c-0.3-0.3-0.7-0.5-1.1-0.5c-0.3,0-0.6,0.1-0.9,0.2c-0.2,0.1-0.4,0.3-0.6,0.6C129.3-106.4,129.2-106.1,129.2-105.7z M140.7-100.5
	c-0.9,0-1.7-0.2-2.3-0.5c-0.6-0.4-1.1-0.9-1.5-1.6c-0.3-0.7-0.5-1.5-0.5-2.4c0-0.9,0.2-1.7,0.5-2.4c0.3-0.7,0.8-1.2,1.5-1.6
	c0.6-0.4,1.4-0.6,2.2-0.6c0.6,0,1.1,0.1,1.6,0.3c0.5,0.2,0.9,0.5,1.3,0.8c0.4,0.4,0.7,0.8,0.9,1.4c0.2,0.6,0.3,1.2,0.3,1.9v0.7h-7.4
	v-1.5h5.1c0-0.3-0.1-0.7-0.2-0.9c-0.2-0.3-0.4-0.5-0.6-0.6c-0.3-0.2-0.6-0.2-0.9-0.2c-0.4,0-0.7,0.1-1,0.3c-0.3,0.2-0.5,0.4-0.7,0.7
	c-0.2,0.3-0.2,0.6-0.2,0.9v1.4c0,0.4,0.1,0.8,0.2,1.1c0.2,0.3,0.4,0.6,0.7,0.7c0.3,0.2,0.6,0.3,1.1,0.3c0.3,0,0.5,0,0.7-0.1
	c0.2-0.1,0.4-0.2,0.6-0.3c0.2-0.2,0.3-0.3,0.4-0.6l2.2,0.1c-0.1,0.5-0.3,1-0.7,1.4c-0.3,0.4-0.8,0.7-1.4,0.9
	C142.1-100.6,141.4-100.5,140.7-100.5z M150.3-100.5c-0.9,0-1.7-0.2-2.3-0.5c-0.6-0.4-1.1-0.9-1.5-1.6c-0.3-0.7-0.5-1.5-0.5-2.4
	c0-0.9,0.2-1.7,0.5-2.4c0.3-0.7,0.8-1.2,1.5-1.6c0.6-0.4,1.4-0.6,2.2-0.6c0.6,0,1.1,0.1,1.6,0.3c0.5,0.2,0.9,0.5,1.3,0.8
	c0.4,0.4,0.7,0.8,0.9,1.4c0.2,0.6,0.3,1.2,0.3,1.9v0.7h-7.4v-1.5h5.1c0-0.3-0.1-0.7-0.2-0.9c-0.2-0.3-0.4-0.5-0.6-0.6
	c-0.3-0.2-0.6-0.2-0.9-0.2c-0.4,0-0.7,0.1-1,0.3c-0.3,0.2-0.5,0.4-0.7,0.7c-0.2,0.3-0.2,0.6-0.2,0.9v1.4c0,0.4,0.1,0.8,0.2,1.1
	c0.2,0.3,0.4,0.6,0.7,0.7c0.3,0.2,0.6,0.3,1.1,0.3c0.3,0,0.5,0,0.7-0.1c0.2-0.1,0.4-0.2,0.6-0.3c0.2-0.2,0.3-0.3,0.4-0.6l2.2,0.1
	c-0.1,0.5-0.3,1-0.7,1.4c-0.3,0.4-0.8,0.7-1.4,0.9C151.6-100.6,151-100.5,150.3-100.5z M159.1-100.6c-0.7,0-1.3-0.2-1.8-0.5
	c-0.5-0.3-1-0.9-1.3-1.5c-0.3-0.7-0.5-1.5-0.5-2.5c0-1,0.2-1.8,0.5-2.5c0.3-0.7,0.8-1.2,1.3-1.5c0.5-0.3,1.1-0.5,1.8-0.5
	c0.5,0,0.9,0.1,1.2,0.2c0.3,0.2,0.6,0.4,0.8,0.6c0.2,0.2,0.4,0.5,0.5,0.7h0.1v-4.4h2.4v11.6h-2.4v-1.4h-0.1
	c-0.1,0.2-0.3,0.5-0.5,0.7c-0.2,0.2-0.5,0.4-0.8,0.6C160-100.6,159.6-100.6,159.1-100.6z M159.9-102.5c0.4,0,0.7-0.1,1-0.3
	c0.3-0.2,0.5-0.5,0.6-0.9c0.1-0.4,0.2-0.8,0.2-1.4c0-0.5-0.1-1-0.2-1.4s-0.4-0.7-0.6-0.9c-0.3-0.2-0.6-0.3-1-0.3
	c-0.4,0-0.7,0.1-1,0.3c-0.3,0.2-0.5,0.5-0.6,0.9s-0.2,0.8-0.2,1.3c0,0.5,0.1,1,0.2,1.3c0.1,0.4,0.4,0.7,0.6,0.9
	C159.1-102.6,159.5-102.5,159.9-102.5z M170-100.5c-0.9,0-1.7-0.2-2.3-0.5c-0.6-0.4-1.1-0.9-1.5-1.6c-0.3-0.7-0.5-1.5-0.5-2.4
	c0-0.9,0.2-1.7,0.5-2.4c0.3-0.7,0.8-1.2,1.5-1.6c0.6-0.4,1.4-0.6,2.2-0.6c0.6,0,1.1,0.1,1.6,0.3c0.5,0.2,0.9,0.5,1.3,0.8
	c0.4,0.4,0.7,0.8,0.9,1.4c0.2,0.6,0.3,1.2,0.3,1.9v0.7h-7.4v-1.5h5.1c0-0.3-0.1-0.7-0.2-0.9c-0.2-0.3-0.4-0.5-0.6-0.6
	c-0.3-0.2-0.6-0.2-0.9-0.2c-0.4,0-0.7,0.1-1,0.3c-0.3,0.2-0.5,0.4-0.7,0.7c-0.2,0.3-0.2,0.6-0.2,0.9v1.4c0,0.4,0.1,0.8,0.2,1.1
	c0.2,0.3,0.4,0.6,0.7,0.7c0.3,0.2,0.6,0.3,1.1,0.3c0.3,0,0.5,0,0.7-0.1c0.2-0.1,0.4-0.2,0.6-0.3c0.2-0.2,0.3-0.3,0.4-0.6l2.2,0.1
	c-0.1,0.5-0.3,1-0.7,1.4c-0.3,0.4-0.8,0.7-1.4,0.9C171.4-100.6,170.7-100.5,170-100.5z M178.8-100.6c-0.7,0-1.3-0.2-1.8-0.5
	c-0.5-0.3-1-0.9-1.3-1.5c-0.3-0.7-0.5-1.5-0.5-2.5c0-1,0.2-1.8,0.5-2.5c0.3-0.7,0.8-1.2,1.3-1.5c0.5-0.3,1.1-0.5,1.8-0.5
	c0.5,0,0.9,0.1,1.2,0.2c0.3,0.2,0.6,0.4,0.8,0.6c0.2,0.2,0.4,0.5,0.5,0.7h0.1v-4.4h2.4v11.6h-2.4v-1.4h-0.1
	c-0.1,0.2-0.3,0.5-0.5,0.7c-0.2,0.2-0.5,0.4-0.8,0.6C179.7-100.6,179.3-100.6,178.8-100.6z M179.6-102.5c0.4,0,0.7-0.1,1-0.3
	c0.3-0.2,0.5-0.5,0.6-0.9c0.1-0.4,0.2-0.8,0.2-1.4c0-0.5-0.1-1-0.2-1.4s-0.4-0.7-0.6-0.9c-0.3-0.2-0.6-0.3-1-0.3
	c-0.4,0-0.7,0.1-1,0.3c-0.3,0.2-0.5,0.5-0.6,0.9c-0.1,0.4-0.2,0.8-0.2,1.3c0,0.5,0.1,1,0.2,1.3c0.1,0.4,0.4,0.7,0.6,0.9
	C178.9-102.6,179.2-102.5,179.6-102.5z M187.2-100.5c-0.4,0-0.7-0.1-1-0.4c-0.3-0.3-0.4-0.6-0.4-1c0-0.4,0.1-0.7,0.4-1
	c0.3-0.3,0.6-0.4,1-0.4c0.4,0,0.7,0.1,1,0.4c0.3,0.3,0.4,0.6,0.4,1c0,0.2-0.1,0.5-0.2,0.7c-0.1,0.2-0.3,0.4-0.5,0.5
	C187.7-100.6,187.4-100.5,187.2-100.5z M187.2-106.7c-0.4,0-0.7-0.1-1-0.4c-0.3-0.3-0.4-0.6-0.4-1c0-0.4,0.1-0.7,0.4-0.9
	c0.3-0.3,0.6-0.4,1-0.4c0.4,0,0.7,0.1,1,0.4c0.3,0.3,0.4,0.6,0.4,0.9c0,0.3-0.1,0.5-0.2,0.7c-0.1,0.2-0.3,0.4-0.5,0.5
	C187.7-106.7,187.4-106.7,187.2-106.7z"/>
<path d="M207.8-112.3h2.1l3.7,9h0.1l3.7-9h2.1v11.6h-1.7v-8.4h-0.1l-3.4,8.4H213l-3.4-8.4h-0.1v8.4h-1.7V-112.3z M225.7-100.5
	c-0.8,0-1.5-0.2-2.1-0.6s-1.1-0.9-1.4-1.6c-0.3-0.7-0.5-1.5-0.5-2.4c0-0.9,0.2-1.7,0.5-2.4c0.3-0.7,0.8-1.2,1.4-1.6s1.3-0.6,2.1-0.6
	s1.5,0.2,2.1,0.6s1.1,0.9,1.4,1.6c0.3,0.7,0.5,1.5,0.5,2.4c0,0.9-0.2,1.7-0.5,2.4c-0.3,0.7-0.8,1.2-1.4,1.6S226.5-100.5,225.7-100.5
	z M225.7-101.9c0.5,0,1-0.1,1.3-0.4c0.3-0.3,0.6-0.7,0.8-1.1c0.2-0.5,0.3-1,0.3-1.5c0-0.6-0.1-1.1-0.3-1.5c-0.2-0.5-0.4-0.8-0.8-1.1
	c-0.3-0.3-0.8-0.4-1.3-0.4c-0.5,0-1,0.1-1.3,0.4c-0.3,0.3-0.6,0.7-0.8,1.1c-0.2,0.5-0.2,1-0.2,1.5c0,0.6,0.1,1.1,0.2,1.5
	c0.2,0.5,0.4,0.8,0.8,1.1C224.7-102.1,225.1-101.9,225.7-101.9z M231.8-100.7v-11.6h1.7v4.3h0.1c0.1-0.2,0.2-0.4,0.4-0.6
	c0.2-0.2,0.4-0.4,0.8-0.6c0.3-0.2,0.8-0.3,1.3-0.3c0.7,0,1.3,0.2,1.9,0.5c0.6,0.4,1,0.9,1.3,1.5c0.3,0.7,0.5,1.5,0.5,2.4
	c0,0.9-0.2,1.8-0.5,2.4c-0.3,0.7-0.7,1.2-1.3,1.6c-0.5,0.4-1.2,0.5-1.9,0.5c-0.5,0-1-0.1-1.3-0.3c-0.3-0.2-0.6-0.4-0.8-0.6
	c-0.2-0.2-0.3-0.5-0.4-0.6h-0.1v1.4H231.8z M233.4-105.1c0,0.6,0.1,1.2,0.3,1.6c0.2,0.5,0.4,0.8,0.8,1.1c0.3,0.3,0.8,0.4,1.2,0.4
	c0.5,0,0.9-0.1,1.3-0.4c0.3-0.3,0.6-0.6,0.8-1.1c0.2-0.5,0.3-1,0.3-1.6c0-0.6-0.1-1.1-0.3-1.6c-0.2-0.5-0.4-0.8-0.8-1.1
	c-0.3-0.3-0.8-0.4-1.3-0.4c-0.5,0-0.9,0.1-1.2,0.4c-0.3,0.3-0.6,0.6-0.8,1.1C233.5-106.2,233.4-105.7,233.4-105.1z M241.6-100.7
	v-8.7h1.7v8.7H241.6z M242.5-110.8c-0.3,0-0.5-0.1-0.8-0.3c-0.2-0.2-0.3-0.4-0.3-0.7c0-0.3,0.1-0.5,0.3-0.7c0.2-0.2,0.5-0.3,0.8-0.3
	c0.3,0,0.5,0.1,0.8,0.3c0.2,0.2,0.3,0.4,0.3,0.7c0,0.3-0.1,0.5-0.3,0.7C243.1-110.9,242.8-110.8,242.5-110.8z M247.3-112.3v11.6
	h-1.7v-11.6H247.3z M253.4-100.5c-0.9,0-1.6-0.2-2.2-0.6c-0.6-0.4-1.1-0.9-1.4-1.6c-0.3-0.7-0.5-1.5-0.5-2.4c0-0.9,0.2-1.7,0.5-2.4
	c0.3-0.7,0.8-1.2,1.4-1.6c0.6-0.4,1.3-0.6,2.1-0.6c0.5,0,1,0.1,1.4,0.2c0.5,0.2,0.9,0.4,1.2,0.8c0.4,0.3,0.7,0.8,0.9,1.4
	c0.2,0.6,0.3,1.2,0.3,2v0.6h-6.9v-1.3h5.3c0-0.4-0.1-0.8-0.3-1.2c-0.2-0.3-0.4-0.6-0.8-0.8c-0.3-0.2-0.7-0.3-1.1-0.3
	c-0.5,0-0.9,0.1-1.2,0.4c-0.4,0.2-0.6,0.5-0.8,0.9c-0.2,0.4-0.3,0.8-0.3,1.2v1c0,0.6,0.1,1.1,0.3,1.5c0.2,0.4,0.5,0.7,0.9,0.9
	c0.4,0.2,0.8,0.3,1.3,0.3c0.3,0,0.6,0,0.9-0.1c0.3-0.1,0.5-0.2,0.7-0.4c0.2-0.2,0.3-0.4,0.4-0.7l1.6,0.3c-0.1,0.5-0.4,0.9-0.7,1.2
	c-0.3,0.4-0.7,0.6-1.2,0.8C254.6-100.6,254-100.5,253.4-100.5z M263.2-97.4v-12h1.7v1.4h0.1c0.1-0.2,0.2-0.4,0.4-0.6
	c0.2-0.2,0.4-0.4,0.8-0.6c0.3-0.2,0.8-0.3,1.3-0.3c0.7,0,1.3,0.2,1.9,0.5c0.6,0.4,1,0.9,1.3,1.5c0.3,0.7,0.5,1.5,0.5,2.4
	c0,0.9-0.2,1.8-0.5,2.4c-0.3,0.7-0.7,1.2-1.3,1.6c-0.5,0.4-1.2,0.5-1.9,0.5c-0.5,0-1-0.1-1.3-0.3c-0.3-0.2-0.6-0.4-0.8-0.6
	c-0.2-0.2-0.3-0.5-0.4-0.6h-0.1v4.6H263.2z M264.9-105.1c0,0.6,0.1,1.2,0.3,1.6c0.2,0.5,0.4,0.8,0.8,1.1c0.3,0.3,0.8,0.4,1.2,0.4
	c0.5,0,0.9-0.1,1.3-0.4c0.3-0.3,0.6-0.6,0.8-1.1c0.2-0.5,0.3-1,0.3-1.6c0-0.6-0.1-1.1-0.3-1.6c-0.2-0.5-0.4-0.8-0.8-1.1
	c-0.3-0.3-0.8-0.4-1.3-0.4c-0.5,0-0.9,0.1-1.2,0.4c-0.3,0.3-0.6,0.6-0.8,1.1C265-106.2,264.9-105.7,264.9-105.1z M274.8-105.9v5.2
	h-1.7v-11.6h1.7v4.3h0.1c0.2-0.5,0.5-0.8,0.9-1.1c0.4-0.3,1-0.4,1.6-0.4c0.6,0,1.1,0.1,1.6,0.4c0.5,0.2,0.8,0.6,1,1.1
	c0.2,0.5,0.4,1.1,0.4,1.8v5.6h-1.7v-5.3c0-0.6-0.2-1.1-0.5-1.5c-0.3-0.4-0.8-0.5-1.4-0.5c-0.4,0-0.8,0.1-1.1,0.3
	c-0.3,0.2-0.6,0.4-0.7,0.8C274.9-106.7,274.8-106.3,274.8-105.9z M286.4-100.5c-0.8,0-1.5-0.2-2.1-0.6c-0.6-0.4-1.1-0.9-1.4-1.6
	s-0.5-1.5-0.5-2.4c0-0.9,0.2-1.7,0.5-2.4c0.3-0.7,0.8-1.2,1.4-1.6c0.6-0.4,1.3-0.6,2.1-0.6c0.8,0,1.5,0.2,2.1,0.6
	c0.6,0.4,1.1,0.9,1.4,1.6c0.3,0.7,0.5,1.5,0.5,2.4c0,0.9-0.2,1.7-0.5,2.4s-0.8,1.2-1.4,1.6C287.9-100.7,287.2-100.5,286.4-100.5z
	 M286.4-101.9c0.5,0,1-0.1,1.3-0.4c0.3-0.3,0.6-0.7,0.8-1.1c0.2-0.5,0.3-1,0.3-1.5c0-0.6-0.1-1.1-0.3-1.5c-0.2-0.5-0.4-0.8-0.8-1.1
	c-0.3-0.3-0.8-0.4-1.3-0.4c-0.5,0-1,0.1-1.3,0.4c-0.3,0.3-0.6,0.7-0.8,1.1c-0.2,0.5-0.2,1-0.2,1.5c0,0.6,0.1,1.1,0.2,1.5
	c0.2,0.5,0.4,0.8,0.8,1.1C285.4-102.1,285.9-101.9,286.4-101.9z M294.1-105.9v5.2h-1.7v-8.7h1.6v1.4h0.1c0.2-0.5,0.5-0.8,0.9-1.1
	c0.4-0.3,1-0.4,1.6-0.4c0.6,0,1.1,0.1,1.6,0.4c0.4,0.2,0.8,0.6,1,1.1c0.2,0.5,0.4,1.1,0.4,1.8v5.6H298v-5.3c0-0.6-0.2-1.1-0.5-1.5
	c-0.3-0.4-0.8-0.5-1.4-0.5c-0.4,0-0.7,0.1-1.1,0.3c-0.3,0.2-0.5,0.4-0.7,0.8C294.2-106.7,294.1-106.3,294.1-105.9z M305.7-100.5
	c-0.9,0-1.6-0.2-2.2-0.6c-0.6-0.4-1.1-0.9-1.4-1.6c-0.3-0.7-0.5-1.5-0.5-2.4c0-0.9,0.2-1.7,0.5-2.4c0.3-0.7,0.8-1.2,1.4-1.6
	c0.6-0.4,1.3-0.6,2.1-0.6c0.5,0,1,0.1,1.4,0.2s0.9,0.4,1.2,0.8c0.4,0.3,0.7,0.8,0.9,1.4c0.2,0.6,0.3,1.2,0.3,2v0.6h-6.9v-1.3h5.3
	c0-0.4-0.1-0.8-0.3-1.2c-0.2-0.3-0.4-0.6-0.8-0.8c-0.3-0.2-0.7-0.3-1.1-0.3c-0.5,0-0.9,0.1-1.2,0.4c-0.4,0.2-0.6,0.5-0.8,0.9
	c-0.2,0.4-0.3,0.8-0.3,1.2v1c0,0.6,0.1,1.1,0.3,1.5c0.2,0.4,0.5,0.7,0.9,0.9c0.4,0.2,0.8,0.3,1.3,0.3c0.3,0,0.6,0,0.9-0.1
	c0.3-0.1,0.5-0.2,0.7-0.4c0.2-0.2,0.3-0.4,0.4-0.7l1.6,0.3c-0.1,0.5-0.4,0.9-0.7,1.2c-0.3,0.4-0.7,0.6-1.2,0.8
	C306.9-100.6,306.3-100.5,305.7-100.5z"/>
<path class="st1" d="M340.2-114.6c0.1,0.4,0.3,0.8,0.3,0.9c0,0.1-0.5,0.1-1.2,0.1c-1,0-3.5,0.3-4.7,0.6c-0.4,0.1-1.5,0.9-1.8,1.5
	c-0.6,0.9,0,3.7,0.9,4.1c0.3,0.1,0.3,0.2,0.1,0.6c-0.6,1.1-0.2,2.7,1,4c0.6,0.6,0.6,0.8,0.6,1.4c0,1,0.4,1.8,1.5,2.7
	c0.5,0.5,0.9,1,1,1.2c0.7,2.7,4.9,3.7,11.5,2.7c3.6-0.5,3.6-0.6,3.9-0.2c0.5,0.5,1.1,0.6,2.3,0.6c0.9,0,1.1,0,1.4,0.4
	c0.4,0.5,1.5,0.7,2.8,0.5c0.5-0.1,1.2-0.1,1.6-0.1c1,0,1.4-0.3,0.9-0.9c-0.3-0.4-0.5-0.4-1.6-0.4c-1.8,0-2.3,0.4-2.7-8.6
	c-0.1-2,0.1-4.6,0-5.8c-0.1-2.7,0.1-2.5,2.9-2.4c2.4,0.1,2.9,0,2.4-0.6c-0.7-0.7-2.7-1.2-5.3-1.2h-0.5c-0.2,0-0.4,0.1-0.6,0.3
	c-0.1,0.2-0.2,0.4-0.2,0.6c0,0.3,0,0.6,0,0.6l-1.9,0c-1.9,0-1.9,0-1.9,0.4c0,0.5-0.1,0.5-1.2-0.2c-1-0.6-1.4-1.2-3.6-5.1
	c-0.7-1.3-1.4-2.2-1.9-2.9C343.6-122.2,338.5-120,340.2-114.6z M343.8-119.6c0.5,0.4,1.5,1.8,2.1,3.5c1.9,3.5,2.6,4.7,6.1,6.2
	l1.1,0.7c0,1,0.3,9.4,0.4,12.3h-2.1c-1.6,0.1-5.6,0.7-6.9,1c-2.1,0.5-5-0.5-5-2c0-0.3,0.1-0.8,0-0.8c-1,0-2.6-2.7-2-3.4
	c0.1-0.1-0.3-0.3-0.7-0.6c-1-1-1.2-1.5-1.1-3.1c0.1-1.3,0.4-1.3,0-1.6c-1.1-0.7-2.1-3.3-1.1-3.9c0.2-0.2,1.9-0.3,4.1-0.5
	c4.3-0.4,4.1,0.4,3.4-3.5C341.4-118.5,342.5-120.7,343.8-119.6z M356.5-96.1c0,0-1.4,0-1.4,0l-0.6-14.2c0,0,1.6,0,1.6,0
	C356.3-102.6,356.1-105.6,356.5-96.1z"/>
<path d="M378.7-108.6c-0.1-0.3-0.2-0.5-0.3-0.7c-0.1-0.2-0.3-0.4-0.5-0.5c-0.2-0.2-0.4-0.3-0.7-0.3c-0.3-0.1-0.6-0.1-0.9-0.1
	c-0.6,0-1.1,0.1-1.6,0.4c-0.4,0.3-0.8,0.7-1,1.3c-0.2,0.6-0.4,1.2-0.4,2.1c0,0.8,0.1,1.5,0.4,2.1c0.2,0.6,0.6,1,1,1.3
	c0.5,0.3,1,0.4,1.6,0.4c0.6,0,1-0.1,1.4-0.3c0.4-0.2,0.7-0.5,0.9-0.8c0.2-0.4,0.3-0.8,0.3-1.3l0.5,0.1h-3v-1.9h4.9v1.5
	c0,1-0.2,1.9-0.6,2.6c-0.4,0.7-1,1.3-1.8,1.7c-0.8,0.4-1.6,0.6-2.6,0.6c-1.1,0-2.1-0.2-2.9-0.7c-0.8-0.5-1.5-1.2-1.9-2.1
	c-0.5-0.9-0.7-2-0.7-3.2c0-0.9,0.1-1.8,0.4-2.5c0.3-0.7,0.7-1.4,1.2-1.9c0.5-0.5,1.1-0.9,1.7-1.2c0.7-0.3,1.4-0.4,2.1-0.4
	c0.7,0,1.3,0.1,1.8,0.3c0.6,0.2,1.1,0.5,1.5,0.8c0.4,0.3,0.8,0.8,1.1,1.2c0.3,0.5,0.5,1,0.5,1.6H378.7z M385.6-100.5
	c-0.6,0-1.1-0.1-1.5-0.3c-0.4-0.2-0.8-0.5-1-0.9c-0.2-0.4-0.4-0.9-0.4-1.4c0-0.5,0.1-0.9,0.3-1.2c0.2-0.3,0.4-0.6,0.7-0.8
	c0.3-0.2,0.7-0.4,1-0.5c0.4-0.1,0.8-0.2,1.2-0.2c0.5-0.1,0.9-0.1,1.2-0.1c0.3,0,0.5-0.1,0.7-0.2c0.1-0.1,0.2-0.2,0.2-0.4v0
	c0-0.4-0.1-0.6-0.3-0.8c-0.2-0.2-0.5-0.3-1-0.3c-0.4,0-0.8,0.1-1,0.3c-0.3,0.2-0.4,0.4-0.5,0.7l-2.2-0.2c0.1-0.5,0.3-1,0.7-1.4
	c0.3-0.4,0.8-0.7,1.3-0.9c0.5-0.2,1.1-0.3,1.8-0.3c0.5,0,0.9,0.1,1.4,0.2c0.4,0.1,0.8,0.3,1.2,0.5c0.3,0.2,0.6,0.5,0.8,0.9
	c0.2,0.4,0.3,0.8,0.3,1.3v5.9h-2.3v-1.2h-0.1c-0.1,0.3-0.3,0.5-0.6,0.7c-0.2,0.2-0.5,0.4-0.8,0.5C386.4-100.6,386-100.5,385.6-100.5
	z M386.3-102.2c0.4,0,0.7-0.1,0.9-0.2c0.3-0.1,0.5-0.3,0.6-0.6c0.2-0.2,0.2-0.5,0.2-0.8v-0.9c-0.1,0-0.2,0.1-0.3,0.1
	c-0.1,0-0.3,0.1-0.4,0.1c-0.2,0-0.3,0.1-0.5,0.1c-0.2,0-0.3,0-0.4,0.1c-0.3,0-0.5,0.1-0.7,0.2c-0.2,0.1-0.4,0.2-0.5,0.4
	c-0.1,0.2-0.2,0.3-0.2,0.6c0,0.3,0.1,0.6,0.4,0.8C385.6-102.3,385.9-102.2,386.3-102.2z M392.4-100.7v-8.7h2.3v1.5h0.1
	c0.2-0.5,0.5-0.9,0.9-1.2c0.4-0.3,0.9-0.4,1.5-0.4c0.6,0,1.1,0.1,1.5,0.4c0.4,0.3,0.7,0.7,0.8,1.2h0.1c0.2-0.5,0.5-0.9,1-1.2
	c0.5-0.3,1-0.5,1.7-0.5c0.8,0,1.5,0.3,2,0.8c0.5,0.5,0.8,1.2,0.8,2.2v5.9h-2.4v-5.4c0-0.5-0.1-0.8-0.4-1.1c-0.3-0.2-0.6-0.4-1-0.4
	c-0.4,0-0.8,0.1-1,0.4c-0.2,0.3-0.4,0.6-0.4,1.1v5.3h-2.3v-5.4c0-0.4-0.1-0.8-0.4-1c-0.2-0.3-0.6-0.4-1-0.4c-0.3,0-0.5,0.1-0.7,0.2
	c-0.2,0.1-0.4,0.3-0.5,0.6c-0.1,0.2-0.2,0.5-0.2,0.8v5.2H392.4z M411-100.5c-0.9,0-1.7-0.2-2.3-0.5c-0.6-0.4-1.1-0.9-1.5-1.6
	c-0.3-0.7-0.5-1.5-0.5-2.4c0-0.9,0.2-1.7,0.5-2.4c0.3-0.7,0.8-1.2,1.5-1.6c0.6-0.4,1.4-0.6,2.2-0.6c0.6,0,1.1,0.1,1.6,0.3
	c0.5,0.2,0.9,0.5,1.3,0.8c0.4,0.4,0.7,0.8,0.9,1.4c0.2,0.6,0.3,1.2,0.3,1.9v0.7h-7.4v-1.5h5.1c0-0.3-0.1-0.7-0.2-0.9
	c-0.2-0.3-0.4-0.5-0.6-0.6c-0.3-0.2-0.6-0.2-0.9-0.2c-0.4,0-0.7,0.1-1,0.3c-0.3,0.2-0.5,0.4-0.7,0.7c-0.2,0.3-0.2,0.6-0.2,0.9v1.4
	c0,0.4,0.1,0.8,0.2,1.1c0.2,0.3,0.4,0.6,0.7,0.7c0.3,0.2,0.6,0.3,1.1,0.3c0.3,0,0.5,0,0.7-0.1c0.2-0.1,0.4-0.2,0.6-0.3
	c0.2-0.2,0.3-0.3,0.4-0.6l2.2,0.1c-0.1,0.5-0.3,1-0.7,1.4c-0.3,0.4-0.8,0.7-1.4,0.9C412.3-100.6,411.7-100.5,411-100.5z
	 M424.9-109.4v1.8h-5.3v-1.8H424.9z M420.8-111.5h2.4v8.1c0,0.2,0,0.4,0.1,0.5c0.1,0.1,0.2,0.2,0.3,0.3c0.1,0,0.3,0.1,0.4,0.1
	c0.1,0,0.2,0,0.3,0c0.1,0,0.2,0,0.3-0.1l0.4,1.8c-0.1,0-0.3,0.1-0.5,0.1c-0.2,0.1-0.5,0.1-0.8,0.1c-0.6,0-1.1-0.1-1.5-0.2
	c-0.4-0.2-0.8-0.5-1-0.8c-0.2-0.4-0.4-0.8-0.4-1.4V-111.5z M428-97.4c-0.3,0-0.6,0-0.9-0.1c-0.3,0-0.5-0.1-0.7-0.2l0.5-1.8
	c0.3,0.1,0.5,0.1,0.8,0.1c0.2,0,0.4,0,0.6-0.2c0.2-0.1,0.3-0.3,0.4-0.6l0.1-0.4l-3.1-9h2.5l1.8,6.4h0.1l1.8-6.4h2.6l-3.4,9.7
	c-0.2,0.5-0.4,0.9-0.7,1.2c-0.3,0.4-0.6,0.6-1.1,0.8C429.1-97.5,428.6-97.4,428-97.4z M435.8-97.4v-12h2.4v1.5h0.1
	c0.1-0.2,0.3-0.5,0.5-0.7c0.2-0.2,0.5-0.5,0.8-0.6c0.3-0.2,0.7-0.2,1.2-0.2c0.6,0,1.2,0.2,1.8,0.5c0.5,0.3,1,0.8,1.3,1.5
	c0.3,0.7,0.5,1.5,0.5,2.5c0,1-0.2,1.8-0.5,2.5c-0.3,0.7-0.7,1.2-1.3,1.5c-0.5,0.3-1.1,0.5-1.8,0.5c-0.5,0-0.9-0.1-1.2-0.2
	c-0.3-0.2-0.6-0.4-0.8-0.6c-0.2-0.2-0.4-0.5-0.5-0.7h-0.1v4.7H435.8z M438.2-105.1c0,0.5,0.1,1,0.2,1.4c0.1,0.4,0.4,0.7,0.6,0.9
	c0.3,0.2,0.6,0.3,1,0.3c0.4,0,0.7-0.1,1-0.3c0.3-0.2,0.5-0.5,0.6-0.9c0.1-0.4,0.2-0.8,0.2-1.3c0-0.5-0.1-0.9-0.2-1.3
	c-0.1-0.4-0.3-0.7-0.6-0.9c-0.3-0.2-0.6-0.3-1-0.3c-0.4,0-0.7,0.1-1,0.3c-0.3,0.2-0.5,0.5-0.6,0.9
	C438.3-106,438.2-105.6,438.2-105.1z M450-100.5c-0.9,0-1.7-0.2-2.3-0.5c-0.6-0.4-1.1-0.9-1.5-1.6c-0.3-0.7-0.5-1.5-0.5-2.4
	c0-0.9,0.2-1.7,0.5-2.4c0.3-0.7,0.8-1.2,1.5-1.6c0.6-0.4,1.4-0.6,2.2-0.6c0.6,0,1.1,0.1,1.6,0.3c0.5,0.2,0.9,0.5,1.3,0.8
	c0.4,0.4,0.7,0.8,0.9,1.4c0.2,0.6,0.3,1.2,0.3,1.9v0.7h-7.4v-1.5h5.1c0-0.3-0.1-0.7-0.2-0.9c-0.2-0.3-0.4-0.5-0.6-0.6
	c-0.3-0.2-0.6-0.2-0.9-0.2c-0.4,0-0.7,0.1-1,0.3c-0.3,0.2-0.5,0.4-0.7,0.7c-0.2,0.3-0.2,0.6-0.2,0.9v1.4c0,0.4,0.1,0.8,0.2,1.1
	c0.2,0.3,0.4,0.6,0.7,0.7c0.3,0.2,0.6,0.3,1.1,0.3c0.3,0,0.5,0,0.7-0.1c0.2-0.1,0.4-0.2,0.6-0.3c0.2-0.2,0.3-0.3,0.4-0.6l2.2,0.1
	c-0.1,0.5-0.3,1-0.7,1.4c-0.3,0.4-0.8,0.7-1.4,0.9C451.3-100.6,450.7-100.5,450-100.5z M457-100.5c-0.4,0-0.7-0.1-1-0.4
	c-0.3-0.3-0.4-0.6-0.4-1c0-0.4,0.1-0.7,0.4-1c0.3-0.3,0.6-0.4,1-0.4c0.4,0,0.7,0.1,1,0.4c0.3,0.3,0.4,0.6,0.4,1
	c0,0.2-0.1,0.5-0.2,0.7c-0.1,0.2-0.3,0.4-0.5,0.5C457.4-100.6,457.2-100.5,457-100.5z M457-106.7c-0.4,0-0.7-0.1-1-0.4
	c-0.3-0.3-0.4-0.6-0.4-1c0-0.4,0.1-0.7,0.4-0.9c0.3-0.3,0.6-0.4,1-0.4c0.4,0,0.7,0.1,1,0.4c0.3,0.3,0.4,0.6,0.4,0.9
	c0,0.3-0.1,0.5-0.2,0.7c-0.1,0.2-0.3,0.4-0.5,0.5C457.4-106.7,457.2-106.7,457-106.7z"/>
<path d="M476.7-110.8v-1.5h9v1.5h-3.6v10.1h-1.8v-10.1H476.7z M490-100.5c-0.9,0-1.6-0.2-2.2-0.6c-0.6-0.4-1.1-0.9-1.4-1.6
	c-0.3-0.7-0.5-1.5-0.5-2.4c0-0.9,0.2-1.7,0.5-2.4c0.3-0.7,0.8-1.2,1.4-1.6c0.6-0.4,1.3-0.6,2.1-0.6c0.5,0,1,0.1,1.4,0.2
	s0.9,0.4,1.2,0.8c0.4,0.3,0.7,0.8,0.9,1.4c0.2,0.6,0.3,1.2,0.3,2v0.6h-6.9v-1.3h5.3c0-0.4-0.1-0.8-0.3-1.2c-0.2-0.3-0.4-0.6-0.8-0.8
	c-0.3-0.2-0.7-0.3-1.1-0.3c-0.5,0-0.9,0.1-1.2,0.4c-0.4,0.2-0.6,0.5-0.8,0.9c-0.2,0.4-0.3,0.8-0.3,1.2v1c0,0.6,0.1,1.1,0.3,1.5
	c0.2,0.4,0.5,0.7,0.9,0.9c0.4,0.2,0.8,0.3,1.3,0.3c0.3,0,0.6,0,0.9-0.1c0.3-0.1,0.5-0.2,0.7-0.4c0.2-0.2,0.3-0.4,0.4-0.7l1.6,0.3
	c-0.1,0.5-0.4,0.9-0.7,1.2c-0.3,0.4-0.7,0.6-1.2,0.8C491.2-100.6,490.7-100.5,490-100.5z M498.2-100.5c-0.6,0-1.1-0.1-1.5-0.3
	c-0.4-0.2-0.8-0.5-1.1-0.9c-0.3-0.4-0.4-0.9-0.4-1.4c0-0.5,0.1-0.9,0.3-1.2c0.2-0.3,0.4-0.6,0.8-0.8c0.3-0.2,0.7-0.3,1.1-0.4
	c0.4-0.1,0.8-0.2,1.2-0.2c0.5-0.1,0.9-0.1,1.3-0.1c0.3,0,0.6-0.1,0.7-0.2c0.1-0.1,0.2-0.2,0.2-0.4v0c0-0.5-0.1-0.9-0.4-1.2
	c-0.3-0.3-0.7-0.4-1.2-0.4c-0.6,0-1,0.1-1.4,0.4c-0.3,0.2-0.6,0.5-0.7,0.8l-1.6-0.4c0.2-0.5,0.5-1,0.8-1.3c0.4-0.3,0.8-0.6,1.3-0.7
	c0.5-0.2,1-0.2,1.5-0.2c0.3,0,0.7,0,1.1,0.1c0.4,0.1,0.8,0.2,1.1,0.4c0.3,0.2,0.6,0.5,0.8,0.9c0.2,0.4,0.3,0.9,0.3,1.6v5.8h-1.7
	v-1.2h-0.1c-0.1,0.2-0.3,0.4-0.5,0.6c-0.2,0.2-0.5,0.4-0.8,0.5C499.1-100.6,498.7-100.5,498.2-100.5z M498.6-101.9
	c0.5,0,0.9-0.1,1.2-0.3c0.3-0.2,0.6-0.4,0.8-0.7c0.2-0.3,0.3-0.6,0.3-1v-1.1c-0.1,0.1-0.2,0.1-0.4,0.2c-0.2,0-0.4,0.1-0.6,0.1
	c-0.2,0-0.4,0.1-0.6,0.1c-0.2,0-0.4,0-0.5,0.1c-0.3,0-0.6,0.1-0.9,0.2c-0.3,0.1-0.5,0.2-0.6,0.4c-0.2,0.2-0.2,0.4-0.2,0.7
	c0,0.4,0.2,0.7,0.5,1C497.7-102,498.1-101.9,498.6-101.9z M504.8-100.7v-8.7h1.6v1.4h0.1c0.2-0.5,0.5-0.9,0.9-1.1
	c0.4-0.3,0.9-0.4,1.5-0.4c0.6,0,1.1,0.1,1.5,0.4c0.4,0.3,0.7,0.6,0.9,1.1h0.1c0.2-0.5,0.5-0.8,1-1.1c0.5-0.3,1-0.4,1.6-0.4
	c0.8,0,1.4,0.2,1.9,0.7c0.5,0.5,0.8,1.2,0.8,2.2v5.9h-1.7v-5.7c0-0.6-0.2-1-0.5-1.3c-0.3-0.3-0.7-0.4-1.2-0.4c-0.6,0-1,0.2-1.3,0.5
	c-0.3,0.3-0.5,0.8-0.5,1.3v5.6h-1.7v-5.8c0-0.5-0.1-0.9-0.4-1.1c-0.3-0.3-0.7-0.4-1.2-0.4c-0.3,0-0.6,0.1-0.9,0.3
	c-0.3,0.2-0.5,0.4-0.7,0.7c-0.2,0.3-0.2,0.6-0.2,1v5.4H504.8z M523.3-100.7v-11.6h1.7v4.3h0.1c0.1-0.2,0.2-0.4,0.4-0.6
	c0.2-0.2,0.4-0.4,0.8-0.6c0.3-0.2,0.8-0.3,1.3-0.3c0.7,0,1.3,0.2,1.9,0.5c0.6,0.4,1,0.9,1.3,1.5c0.3,0.7,0.5,1.5,0.5,2.4
	c0,0.9-0.2,1.8-0.5,2.4c-0.3,0.7-0.7,1.2-1.3,1.6c-0.5,0.4-1.2,0.5-1.9,0.5c-0.5,0-1-0.1-1.3-0.3c-0.3-0.2-0.6-0.4-0.8-0.6
	c-0.2-0.2-0.3-0.5-0.4-0.6h-0.1v1.4H523.3z M525-105.1c0,0.6,0.1,1.2,0.3,1.6c0.2,0.5,0.4,0.8,0.8,1.1c0.3,0.3,0.8,0.4,1.2,0.4
	c0.5,0,0.9-0.1,1.3-0.4c0.3-0.3,0.6-0.6,0.8-1.1c0.2-0.5,0.3-1,0.3-1.6c0-0.6-0.1-1.1-0.3-1.6c-0.2-0.5-0.4-0.8-0.8-1.1
	c-0.3-0.3-0.8-0.4-1.3-0.4c-0.5,0-0.9,0.1-1.2,0.4c-0.3,0.3-0.6,0.6-0.8,1.1C525-106.2,525-105.7,525-105.1z M538.7-104.3v-5.1h1.7
	v8.7h-1.7v-1.5h-0.1c-0.2,0.5-0.5,0.9-1,1.2c-0.4,0.3-1,0.5-1.6,0.5c-0.6,0-1.1-0.1-1.5-0.4c-0.4-0.2-0.8-0.6-1-1.1
	c-0.2-0.5-0.4-1.1-0.4-1.8v-5.6h1.7v5.3c0,0.6,0.2,1.1,0.5,1.4c0.3,0.4,0.8,0.5,1.3,0.5c0.3,0,0.6-0.1,0.9-0.2
	c0.3-0.2,0.6-0.4,0.8-0.7C538.6-103.4,538.7-103.8,538.7-104.3z M542.7-100.7v-8.7h1.7v8.7H542.7z M543.5-110.8
	c-0.3,0-0.5-0.1-0.8-0.3c-0.2-0.2-0.3-0.4-0.3-0.7c0-0.3,0.1-0.5,0.3-0.7c0.2-0.2,0.5-0.3,0.8-0.3c0.3,0,0.5,0.1,0.8,0.3
	c0.2,0.2,0.3,0.4,0.3,0.7c0,0.3-0.1,0.5-0.3,0.7C544.1-110.9,543.8-110.8,543.5-110.8z M548.4-112.3v11.6h-1.7v-11.6H548.4z
	 M553.9-100.5c-0.7,0-1.3-0.2-1.9-0.5c-0.5-0.4-1-0.9-1.3-1.6c-0.3-0.7-0.5-1.5-0.5-2.4c0-0.9,0.2-1.8,0.5-2.4
	c0.3-0.7,0.8-1.2,1.3-1.5c0.6-0.4,1.2-0.5,1.9-0.5c0.5,0,1,0.1,1.3,0.3c0.3,0.2,0.6,0.4,0.8,0.6c0.2,0.2,0.3,0.4,0.4,0.6h0.1v-4.3
	h1.7v11.6h-1.7v-1.4h-0.1c-0.1,0.2-0.2,0.4-0.4,0.6c-0.2,0.2-0.4,0.4-0.8,0.6C554.9-100.6,554.4-100.5,553.9-100.5z M554.3-102
	c0.5,0,0.9-0.1,1.2-0.4c0.3-0.3,0.6-0.6,0.8-1.1c0.2-0.5,0.3-1,0.3-1.6c0-0.6-0.1-1.1-0.3-1.6c-0.2-0.5-0.4-0.8-0.8-1.1
	c-0.3-0.3-0.8-0.4-1.2-0.4c-0.5,0-0.9,0.1-1.3,0.4c-0.3,0.3-0.6,0.6-0.8,1.1c-0.2,0.5-0.3,1-0.3,1.6c0,0.6,0.1,1.1,0.3,1.6
	c0.2,0.5,0.4,0.8,0.8,1.1C553.4-102.1,553.8-102,554.3-102z M560.7-100.7v-8.7h1.7v8.7H560.7z M561.5-110.8c-0.3,0-0.5-0.1-0.8-0.3
	c-0.2-0.2-0.3-0.4-0.3-0.7c0-0.3,0.1-0.5,0.3-0.7c0.2-0.2,0.5-0.3,0.8-0.3c0.3,0,0.5,0.1,0.8,0.3c0.2,0.2,0.3,0.4,0.3,0.7
	c0,0.3-0.1,0.5-0.3,0.7C562.1-110.9,561.8-110.8,561.5-110.8z M566.3-105.9v5.2h-1.7v-8.7h1.6v1.4h0.1c0.2-0.5,0.5-0.8,0.9-1.1
	c0.4-0.3,1-0.4,1.6-0.4c0.6,0,1.1,0.1,1.6,0.4c0.4,0.2,0.8,0.6,1,1.1c0.2,0.5,0.4,1.1,0.4,1.8v5.6h-1.7v-5.3c0-0.6-0.2-1.1-0.5-1.5
	c-0.3-0.4-0.8-0.5-1.4-0.5c-0.4,0-0.7,0.1-1.1,0.3c-0.3,0.2-0.5,0.4-0.7,0.8C566.4-106.7,566.3-106.3,566.3-105.9z M577.9-97.2
	c-0.7,0-1.3-0.1-1.8-0.3c-0.5-0.2-0.9-0.4-1.2-0.7c-0.3-0.3-0.5-0.6-0.7-1l1.5-0.6c0.1,0.2,0.2,0.3,0.4,0.5c0.2,0.2,0.4,0.4,0.7,0.5
	c0.3,0.1,0.7,0.2,1.2,0.2c0.6,0,1.2-0.2,1.6-0.5c0.4-0.3,0.6-0.8,0.6-1.5v-1.7H580c-0.1,0.2-0.2,0.4-0.4,0.6
	c-0.2,0.2-0.5,0.4-0.8,0.6c-0.3,0.2-0.8,0.2-1.3,0.2c-0.7,0-1.3-0.2-1.9-0.5c-0.5-0.3-1-0.8-1.3-1.4c-0.3-0.6-0.5-1.4-0.5-2.3
	c0-0.9,0.2-1.7,0.5-2.4c0.3-0.7,0.8-1.2,1.3-1.5c0.6-0.4,1.2-0.5,1.9-0.5c0.5,0,1,0.1,1.3,0.3c0.3,0.2,0.6,0.4,0.8,0.6
	c0.2,0.2,0.3,0.4,0.4,0.6h0.1v-1.4h1.7v8.9c0,0.8-0.2,1.4-0.5,1.8c-0.3,0.5-0.8,0.8-1.4,1.1C579.3-97.4,578.6-97.2,577.9-97.2z
	 M577.9-102.2c0.5,0,0.9-0.1,1.2-0.3c0.3-0.2,0.6-0.6,0.8-1c0.2-0.4,0.3-0.9,0.3-1.6c0-0.6-0.1-1.1-0.3-1.6c-0.2-0.4-0.4-0.8-0.8-1
	c-0.3-0.3-0.8-0.4-1.2-0.4c-0.5,0-0.9,0.1-1.3,0.4c-0.3,0.3-0.6,0.6-0.8,1.1c-0.2,0.5-0.3,1-0.3,1.5c0,0.6,0.1,1.1,0.3,1.5
	c0.2,0.4,0.4,0.8,0.8,1C576.9-102.4,577.4-102.2,577.9-102.2z"/>
<path class="st2" d="M12-203.2h595c5.9,0,10.8,4.8,10.8,10.8v112c0,5.9-4.8,10.8-10.8,10.8H12c-5.9,0-10.8-4.8-10.8-10.8v-112
	C1.2-198.4,6.1-203.2,12-203.2z"/>
</svg>
