<?xml version="1.0" encoding="utf-8"?>
<!-- Generator: Adobe Illustrator 28.0.0, SVG Export Plug-In . SVG Version: 6.00 Build 0)  -->
<svg version="1.1" id="Слой_1" xmlns="http://www.w3.org/2000/svg" xmlns:xlink="http://www.w3.org/1999/xlink" x="0px" y="0px"
	 viewBox="0 0 33.4 32.7" style="enable-background:new 0 0 33.4 32.7;" xml:space="preserve">
<style type="text/css">
	.st0{fill:#FFFFFF;}
	.st1{fill:#EE701B;}
	.st2{fill:none;stroke:#020203;stroke-width:0.4;}
	.st3{fill-rule:evenodd;clip-rule:evenodd;fill:#020203;}
</style>
<rect x="-0.3" y="-0.7" class="st0" width="34.1" height="34.1"/>
<g>
	<path class="st1" d="M23.4,7.2h-1.5c-0.5,0-0.9,0.4-0.9,0.9v2.4c0,0,0,0.8-0.3,1.1C20.4,12,19.6,12,19.6,12H18c0,0-1,0-1.3,0.3
		c-0.4,0.4-0.3,1.2-0.3,1.2l0.1,2.4c0,0,0,0.4-0.3,0.7c-0.3,0.3-1,0.3-1,0.3h-0.5h-2.6c0,0-0.5,0-0.8,0.3C10.9,17.5,11,18,11,18v2.7
		c0,0,0,0.4-0.3,0.7c-0.3,0.3-0.8,0.2-0.8,0.2H6.8c0,0-0.6,0-0.9,0.3s-0.3,0.9-0.3,0.9v3c0,0,0,0.4-0.2,0.7c-0.3,0.3-1,0.3-1,0.3H2
		c0,0-0.4,0-0.6,0.2s-0.2,0.7-0.2,0.7v3.7l31.9,0.1V2.2h-7.6c0,0-0.3,0-0.5,0.2s-0.2,0.4-0.2,0.4v3C24.8,6.6,24.1,7.2,23.4,7.2z"/>
	<path class="st2" d="M22.6,6.4H21c-0.5,0-0.9,0.4-0.9,0.9v2.4c0,0,0,0.8-0.3,1.1s-1.1,0.3-1.1,0.3h-1.5c0,0-1,0-1.3,0.3
		c-0.4,0.4-0.3,1.2-0.3,1.2l0.1,2.4c0,0,0,0.4-0.3,0.7s-1,0.3-1,0.3h-0.5h-2.6c0,0-0.5,0-0.8,0.3s-0.3,0.8-0.3,0.8v2.7
		c0,0,0,0.4-0.3,0.7c-0.3,0.3-0.8,0.2-0.8,0.2H6c0,0-0.6,0-0.9,0.3s-0.3,0.9-0.3,0.9v3c0,0,0,0.4-0.2,0.7c-0.3,0.3-1,0.3-1,0.3H1.2
		c0,0-0.4,0-0.6,0.2s-0.2,0.7-0.2,0.7v3.7l31.9,0.1V1.4h-7.6c0,0-0.3,0-0.5,0.2C24,1.8,24,2,24,2v3C24,5.8,23.4,6.4,22.6,6.4z"/>
	<path class="st3" d="M13.6,4.7c-0.9,0.3-3,0.7-3.3,0.6c-0.2,0-0.3,0-0.4,0.1c0,0.2,0.6,0.4,1.2,0.3c0.4,0,0.4,0-0.1,0.2
		C10,6.6,8.3,8.4,8.2,9c0,0.2-2.4,0.7-3.6,4.4C4.2,14.5,4.4,16,4.8,16c0.1,0,0.1-0.1,0.2-0.1l0.1-0.7C5.7,11.3,7.9,10,7.9,10
		s-0.3,1.1,1,1.8c0.6,0.3,1.2,0.3,1.8,0c1.7-1.1,0.9-3.1-1.1-2.9C9.3,8.9,9.3,9,9.7,8.4c0.7-0.9,1.9-1.9,3.2-2.6
		c0.5-0.3,0.5-0.3,0.1,0.4c-1,1.5-1.1,2.4-0.3,1.8c0.2-0.1,0.3-0.2,0.9-1.3c0.2-0.4,0.7-1,0.9-1.3C15,4.8,15,4.7,14.8,4.6
		C14.5,4.5,14.3,4.5,13.6,4.7z M10.5,9.4c0.7,0.4,0.4,1.4-0.6,2c-0.5,0.3-1,0-1.1-0.7c-0.1-0.4,0.1-1.2,0.3-1.2
		C9.5,9.2,10.2,9.2,10.5,9.4z"/>
</g>
</svg>
