<?xml version="1.0" encoding="utf-8"?>
<!-- Generator: Adobe Illustrator 28.0.0, SVG Export Plug-In . SVG Version: 6.00 Build 0)  -->
<svg version="1.1" id="Слой_1" xmlns="http://www.w3.org/2000/svg" xmlns:xlink="http://www.w3.org/1999/xlink" x="0px" y="0px"
	 viewBox="0 0 247.4 119.4" style="enable-background:new 0 0 247.4 119.4;" xml:space="preserve">
<style type="text/css">
	.st0{fill:#AC1E17;}
	.st1{fill:none;stroke:#010101;stroke-width:2;}
	.st2{fill:#FFFFFF;}
	.st3{fill-rule:evenodd;clip-rule:evenodd;fill:#FFFFFF;}
	.st4{fill-rule:evenodd;clip-rule:evenodd;fill:#AC1E17;}
</style>
<path class="st0" d="M61.3,3.1h131c30.4,0,55,24.6,55,55v4c0,30.4-24.6,55-55,55h-131c-30.4,0-55-24.6-55-55v-4
	C6.3,27.7,30.9,3.1,61.3,3.1z"/>
<path class="st1" d="M61.3,3.1h131c30.4,0,55,24.6,55,55v4c0,30.4-24.6,55-55,55h-131c-30.4,0-55-24.6-55-55v-4
	C6.3,27.7,30.9,3.1,61.3,3.1z"/>
<path class="st2" d="M60.3,14.7L60.3,14.7c24.9,0,45,20.1,45,45l0,0c0,24.9-20.1,45-45,45l0,0c-24.9,0-45-20.1-45-45l0,0
	C15.3,34.8,35.4,14.7,60.3,14.7z"/>
<g>
	<path class="st3" d="M134.9,71.7c-2.2,0.7-3.9,1.1-5.1,1.1c-3,0-5.4-0.8-7.2-2.7c-1.8-1.8-2.6-4.1-2.6-7.1c0-2.7,0.8-5,2.7-6.8
		c1.8-1.8,4.2-2.7,7.1-2.7c0.7,0,2.5,0.4,5,0.9l-0.4,3.6c-1.6-0.7-2.8-0.9-3.6-0.9c-1.8,0-3.2,0.6-4.3,1.7c-1,1.1-1.6,2.5-1.6,4.3
		s0.6,3.2,1.6,4.3s2.5,1.7,4.2,1.7c1.1,0,2.5-0.4,4-1.1L134.9,71.7L134.9,71.7z M231,66.9c0,1.7-0.7,3.1-2.1,4.1s-3.3,1.6-5.7,1.6
		c-2.1,0-3.9-0.3-5.7-0.9l0.3-3.6c1.8,0.8,3.6,1.3,5.4,1.3c2,0,3-0.6,3-1.8c0-0.7-0.4-1.2-1-1.7c-0.5-0.4-1.3-0.8-2.7-1.5
		c-1.7-0.8-2.8-1.6-3.4-2.2c-0.8-0.8-1.3-1.9-1.3-3.1c0-1.6,0.7-2.9,2.1-3.9c1.3-1,3.1-1.6,5.4-1.6c1.1,0,2.8,0.4,5,1l-0.4,3.5
		c-1.6-0.8-3.2-1.3-4.7-1.3c-1.8,0-2.7,0.6-2.7,1.7c0,0.6,0.3,1.1,0.9,1.5c0.3,0.2,1.1,0.7,2.5,1.2c1.8,0.7,3.1,1.6,3.8,2.3
		C230.6,64.5,231,65.5,231,66.9L231,66.9z M208.9,64.7v-1h-1.7c-3.9,0-5.8,1-5.8,3.2c0,0.7,0.3,1.5,0.8,2c0.6,0.6,1.3,0.7,2.2,0.7
		c1.3,0,2.3-0.5,3.2-1.4C208.4,67.3,208.9,66.1,208.9,64.7L208.9,64.7z M213.4,72.4h-4.2l-0.1-3c-1.6,2.2-3.6,3.4-6.3,3.4
		c-1.9,0-3.4-0.6-4.5-1.6c-1.1-1-1.7-2.5-1.7-4.2c0-4.1,3.2-6.1,9.6-6.1h2.4v-0.3c0-2.6-1.5-3.9-4.5-3.9c-1.7,0-3.4,0.5-5.2,1.5
		l-0.1-3.4c2.2-0.8,4.3-1.3,6.5-1.3c2.7,0,4.8,0.7,6,2.1c1.3,1.3,1.9,3.5,1.9,6.4L213.4,72.4L213.4,72.4z M194.5,72.4
		c-1,0.3-2.2,0.4-3.3,0.4c-2.2,0-3.7-0.6-4.7-1.7c-0.9-1-1.4-2.8-1.4-5.3v-8.3h-3.6V54h3.8v-4.5l4.5-1.5v6h4.4v3.5h-4.4v8
		c0,1.4,0.3,2.3,0.7,2.9c0.5,0.7,1.1,0.9,2.1,0.9c0.6,0,1.1-0.1,1.9-0.4V72.4L194.5,72.4z M178.2,72.4h-4.7V54h4.7V72.4L178.2,72.4z
		 M178.3,50.4h-4.9v-4.6h4.9V50.4L178.3,50.4z M170.5,53.8l-0.2,4.2c-0.5-0.2-1-0.3-1.6-0.3c-3.2,0-4.9,2-4.9,6v8.6h-4.7V54h4.3v3.6
		c1.1-2.7,3-4.1,5.4-4.1C169.3,53.6,169.9,53.6,170.5,53.8L170.5,53.8z M149.6,64.7v-1h-1.7c-3.8,0-5.8,1-5.8,3.2
		c0,0.7,0.3,1.5,0.8,2c0.6,0.6,1.3,0.7,2.2,0.7c1.3,0,2.3-0.5,3.2-1.4C149.1,67.3,149.6,66.1,149.6,64.7L149.6,64.7z M154.1,72.4
		h-4.2l-0.1-3c-1.6,2.2-3.6,3.4-6.3,3.4c-1.9,0-3.4-0.6-4.5-1.6c-1.1-1-1.7-2.5-1.7-4.2c0-4.1,3.2-6.1,9.6-6.1h2.4v-0.3
		c0-2.6-1.5-3.9-4.6-3.9c-1.6,0-3.4,0.5-5.2,1.5l-0.1-3.4c2.2-0.8,4.3-1.3,6.5-1.3c2.7,0,4.7,0.7,6,2.1c1.3,1.3,1.9,3.5,1.9,6.4
		v10.5H154.1z"/>
</g>
<g>
	<path class="st4" d="M82.3,75.2c1,0.1,3.1-1,3.1-2.1c-1.9-0.6-4.1-4.7-5.9-6.3h-7.2c4.1,3.4,4.3,4.5,6.1,6.5
		C79.7,74.5,80.4,75.1,82.3,75.2L82.3,75.2z M54.6,31.4h11.3v16.9c0.8-0.2,1.7-0.2,2.5-0.2c3.7-4.7,9.6-7.8,10.4-10.6
		c1.3,0.7,2.3,2.6,2.2,3.7c-0.1,1.9-0.7,2.7-2.1,3.9c-1.6,1.4-3.8,3.1-5.5,4.9c0.3,0.2,0.6,0.5,0.9,0.8c3-3.5,8.1-5.8,8.7-8.3
		c1.3,0.7,1.6,2.4,1.7,3.5c0.1,2-0.5,2.5-1.8,3.8c-0.8,0.7-2.3,1.9-3.2,2.9h-3.8c0.2,0.4,0.5,0.8,0.7,1.3h12v11.3H72.8
		c-0.6,0.6-1.1,1.1-1.7,1.8L71,67.2c5.2,3.6,8.5,10.2,11.5,11c-0.6,1.3-2.6,2.3-3.7,2.2c-1.9-0.1-2.7-0.7-3.9-2.1
		c-2.1-2.4-4.9-6.2-7.6-7.3v-0.1c-0.4,0.4-0.9,0.8-1.3,1.2V88H54.6V71.8c-0.6-0.5-1.2-1-1.8-1.5c-3.6,5.3-10.3,8.6-11.1,11.6
		c-1.3-0.7-2.3-2.6-2.2-3.7c0.1-1.9,0.7-2.7,2.1-3.9c2.4-2.1,6.2-4.9,7.3-7.6c-0.3-0.3-0.6-0.6-0.8-0.8c-0.2-0.2-0.4-0.4-0.6-0.6
		H31.9V54.1h11.9c0.2-0.5,0.4-0.9,0.7-1.3H41c-1.9-1.7-4.1-5.7-5.9-6.3c0-1.1,2.1-2.2,3.1-2.1c1.9,0.1,2.6,0.7,3.8,2
		c1.5,1.6,1.9,2.6,4.1,4.6c0.3-0.3,0.7-0.6,1-0.8c-3.8-3.7-6.5-8.4-9-9c0.7-1.3,2.6-2.3,3.7-2.2c1.9,0.1,2.7,0.7,3.9,2.1
		c2,2.3,4.7,6.1,7.4,7.3c0.5,0,1,0.1,1.5,0.2V31.4L54.6,31.4z M75.7,37.7c0.1-1-1-3.1-2.1-3.1c-0.6,1.9-4.7,4.1-6.3,5.9v7.1
		c3.4-4.1,4.5-4.3,6.5-6.1C75,40.3,75.6,39.6,75.7,37.7L75.7,37.7z M35.7,73.4c0,1,0.3,2.8,1.7,3.5c0.7-2.9,7.5-5.6,10.1-10.3h-6.7
		c-0.9,1.1-2.4,2.3-3.2,2.9C36.2,70.9,35.6,71.5,35.7,73.4L35.7,73.4z M44.8,81.8c-0.1,1,1,3.1,2.1,3.1c0.6-1.9,4.7-4.1,6.3-5.9
		v-7.1c-3.4,4.1-4.5,4.3-6.5,6.1C45.5,79.2,44.9,79.9,44.8,81.8L44.8,81.8z M46.5,35.2c-1,0-2.8,0.3-3.5,1.7
		c2.9,0.7,5.6,7.5,10.3,10.1v-6.7c-1.1-0.9-2.3-2.4-2.9-3.2C49.1,35.7,48.5,35.1,46.5,35.2L46.5,35.2z M73.9,84.3
		c1,0,2.8-0.3,3.5-1.7c-2.9-0.7-5.6-7.5-10.3-10.1v6.7c1.1,0.9,2.3,2.4,2.9,3.2C71.4,83.8,72,84.3,73.9,84.3L73.9,84.3z M60.8,72.7
		L60.8,72.7l-0.1,0.2L60.6,73l-0.1,0.1l-0.1,0.1l-0.1,0.1h-0.1h-0.1H60h-0.1l-0.1-0.1l-0.1-0.1L59.6,73l-0.1-0.1v-0.1v-0.1V55.8
		v-0.1v-0.1l0.1-0.1l0.1-0.1l0.1-0.1l0.1-0.1H60h0.1h0.2h0.1l0.1,0.1l0.1,0.1l0.1,0.1l0.1,0.1v0.1v0.1L60.8,72.7L60.8,72.7z
		 M54.8,68.3L54.8,68.3l-0.2-0.1l-0.1-0.1L54.4,68v-0.1v-0.1l0,0l0,0l0,0l0,0V51.3v-0.1v-0.1l0.1-0.1l0.1-0.1l0.1-0.1l0.1-0.1h0.1
		H55l0,0l0,0l0,0l0,0h0.1l0.1,0.1l0.3,0.1l0.2,0.1l0.2,0.1l0.2,0.1l0.2,0.1l0.2,0.1l0.2,0.1l0.1,0.1l0.2,0.1l0,0l0,0l0,0l0,0l0,0
		l0,0l0,0l0,0l0.2,0.1l0.1,0.1l0.2,0.2l0.1,0.2l0.1,0.2l0.1,0.2v0.2v0.2v3.5v0.2V57l-0.1,0.2l-0.1,0.2l-0.1,0.1l0.3,0.1l-0.1,0.2
		l0,0l0,0l0.1,0.1l0.1,0.2l0.1,0.2l0.1,0.2l0.1,0.2v0.2v0.2v11.1v0.1l-0.1,0.1L58,70.5l-0.1,0.1h-0.1h-0.1h-0.1h-0.1h-0.1h-0.1h-0.1
		l-0.1-0.1L57,70.4l-0.1-0.1v-0.1v-0.1l0,0l0,0l0,0l0,0l0,0l0,0l0,0v-11V59v-0.1l-0.1-0.1l-0.1-0.2l-0.1-0.1l-0.1-0.1h-0.1h-0.1l0,0
		l0,0h-0.7v9.4l0,0l0,0l0,0l0,0l0,0l0,0v0.1V68l-0.1,0.1l-0.1,0.1l-0.1,0.1l-0.1,0.1h-0.1H55L54.8,68.3L54.8,68.3L54.8,68.3z
		 M56.9,53.2L56.9,53.2L56.9,53.2L56.8,53l0,0v-0.1h-0.1l-0.1-0.1l-0.1-0.1l-0.1-0.1l-0.2-0.1L56,52.4l-0.2-0.1l-0.2-0.1h-0.1v5.1
		h0.8h0.1h0.1l0.1-0.1l0.1-0.1l0.1-0.1l0.1-0.1v-0.1v-0.1v-3.2L56.9,53.2L56.9,53.2L56.9,53.2z M52.6,64L52.6,64h-0.2l-0.1-0.1
		l-0.1-0.1v-0.1l-0.1-0.1v-0.1v-0.1l0,0l0,0l0,0l0,0v-5.2h-1.4V61v0.1v0.1l-0.1,0.1l-0.1,0.1l-0.1,0.2h-0.1h-0.1h-0.1H50h-0.1h-0.1
		l-0.1-0.1v-0.1l-0.1-0.1l-0.1-0.1v-0.1l0,0l0,0l0,0l0,0l0,0v-6.8v-0.2v-0.2l0.1-0.1l0.1-0.2l0.1-0.2l0.1-0.2l0.1-0.1l0.1-0.1
		l0.1-0.1l0.1-0.1l0.2-0.1l0.2-0.1l0.2-0.1h0.2l0.2-0.1h0.2h0.2l0.2,0.1h0.2l0.2,0.1l0.2,0.1l0.1,0.1l0.1,0.1l0.1,0.1l0.1,0.1
		l0.1,0.1l0.1,0.2l0.1,0.2l0.1,0.2v0.1v0.2v0.2v9.2l0,0l0,0l0,0l0,0l0,0v0.1v0.1l-0.1,0.1l-0.1,0.1L53,64l-0.1,0.1L52.6,64L52.6,64
		L52.6,64z M50.7,57.3h1.4v-3v-0.2L52,54l-0.1-0.1l-0.1-0.1h-0.1l-0.1-0.1h-0.1h-0.1h-0.1h-0.2L51,53.8l-0.1,0.1L50.8,54l-0.1,0.1
		v0.1v0.2L50.7,57.3L50.7,57.3z M66.9,57.3h1.4v-5v-0.1v-0.1L68.2,52l-0.1-0.1L68,51.8l-0.1-0.1l-0.2-0.1h-0.2h-0.1l-0.2,0.1
		l-0.1,0.1L67,51.9L66.9,52l-0.1,0.1v0.1v0.1L66.9,57.3L66.9,57.3z M69.3,65.1L69.3,65.1L69.3,65.1L69.3,65.1v0.2v0.1v0.1l-0.2,0.1
		l0,0H69h-0.1h-0.1h-0.1h-0.2l-0.1-0.1l-0.1-0.1v-0.1l0,0v-0.1v-6.8h-1.4v9.2l0,0l0,0l-0.1,0.1l-0.1,0.1l-0.1,0.1L66.5,68l-0.1,0.1
		l-0.1,0.1l0,0h-0.1l-0.1-0.1L66,68l-0.1-0.1v-0.1v-0.1l-0.1-0.1v-0.1l0,0l0,0l0,0l0,0V52.3v-0.2v-0.2l0.1-0.2v-0.1l0.1-0.2l0.1-0.1
		l0.1-0.1l0.1-0.1l0.1-0.1l0.1-0.1l0.1-0.1l0.1-0.1l0.2-0.1l0.1-0.1h0.2h0.2h0.2h0.2l0.2,0.1h0.2l0.1,0.1l0.2,0.1l0.1,0.1l0.1,0.1
		l0.1,0.1l0.1,0.2l0.1,0.1l0.1,0.1l0.1,0.2l0.1,0.2v0.2v0.2v0.2L69.3,65.1L69.3,65.1L69.3,65.1L69.3,65.1L69.3,65.1L69.3,65.1
		L69.3,65.1z M71.2,62L71.2,62L71,61.8l-0.1-0.2l-0.1-0.1l-0.1-0.2l-0.1-0.1L70.5,61v-0.2v-0.2l0,0v-2.1l0,0l0,0l0,0l0,0l0,0v-0.1
		l0.1-0.1v-0.1l0.1-0.1l0.1-0.1l0.1-0.1H71h0.1h0.1h0.1l0.1,0.1l0.1,0.1l0.1,0.1l0.1,0.1l0.1,0.1v0.1l0,0l0,0l0,0l0,0l0,0v2v0.1v0.2
		l0.1,0.1L72,61l0.1,0.1l0.1,0.1l0.1,0.1h0.2l0,0h0.1h0.1l0,0h0.1h0.1l0.1-0.1l0,0l0.1-0.1l0.1-0.1l0.1-0.1l0.1-0.2l0.1-0.1l0.1-0.2
		l0.1-0.2l0.1-0.2l0.1-0.2l0.1-0.2l0.1-0.2l0.1-0.2l0.1-0.2v-0.1v-0.1v-0.1v-0.1v-0.1l-0.1-0.1v-0.1l-0.1-0.1L74,58.1l0,0l0,0l0,0
		l0,0l0,0l-2.2-1.3l0,0l0,0l0,0l0,0l0,0l-0.2-0.1l-0.2-0.1l-0.2-0.2L71,56.2L70.9,56l-0.1-0.2v-0.3v-0.4l0,0v-3.5v-0.1l0.1-0.1v-0.1
		l0.1-0.1h0.1l0.1-0.1h0.1h0.1l0,0l0,0l0,0l0,0l0,0l0,0l0,0l0,0l0.1,0.1l0.2,0.1l0.2,0.1l0.2,0.1l0.2,0.1l0.2,0.1l0.2,0.1l0.2,0.1
		l0.2,0.2l0.2,0.2l0.2,0.2l0.2,0.2l0.1,0.2l0.1,0.2l0.2,0.2l0.1,0.2l0.2,0.2l0.1,0.2l0.1,0.2l0.1,0.2l0.1,0.2l0.1,0.2l0.1,0.2
		l0.1,0.3l0.1,0.2l0.1,0.2l0.1,0.2v0.1l0,0l0,0l0,0V56l0,0l0,0v0.1l0,0v0.1v0.1l-0.1,0.1l-0.1,0.1l-0.1,0.1L75,56.7l-0.2-0.1h-0.1
		h-0.1h-0.1h-0.1l-0.1-0.1l-0.1-0.1l-0.1-0.1L74,56.2v-0.1l0,0l-0.1-0.2v-0.2v-0.2l-0.1-0.2l-0.1-0.2l-0.1-0.2l-0.1-0.2l-0.1-0.2
		v0.1l-0.1-0.2l-0.1-0.2l-0.1-0.1L73,53.9l-0.1-0.2l-0.2-0.1l-0.1-0.1l-0.1-0.1l-0.2-0.1l-0.1-0.1l-0.1-0.1L72,53l-0.2-0.1l-0.1-0.1
		l-0.1-0.1v2.8v0.1v0.1v0.1l0.1,0.1V56l0.1,0.1h0.1l0.1,0.1h0.1l0,0l2.1,1.2h0.1l0,0l0,0l0,0l0,0l0,0l0,0l0,0l0,0l0,0l0,0l0,0l0,0
		l0,0v0.1h0.1l0,0l0,0l0.1,0.1l0.1,0.1l0.1,0.1l0.1,0.1l0.1,0.1l0.1,0.1l0.1,0.1l0.1,0.2l0.1,0.1v0.1v0.1v0.1v0.1v0.2l0,0l0,0
		l-0.1,0.2l-0.3,0.3l-0.1,0.2L74.7,60l-0.1,0.2l-0.1,0.2l-0.1,0.2l-0.1,0.2v0.3l-0.1,0.2l-0.1,0.2L74,61.7l-0.1,0.2L73.8,62l0,0l0,0
		l-0.1,0.1l-0.1,0.1l-0.1,0.1l-0.2,0.1l-0.1,0.1l-0.1,0.1h-0.2h-0.1h-0.1l0,0h-0.4l0,0h-0.1H72l-0.2-0.1l-0.2-0.1l-0.2-0.1L71.2,62
		L71.2,62z M64.9,52L64.9,52l-0.3,0.2l-0.2,0.1l-0.1,0.1l-0.2,0.1L64,52.6l-0.2,0.1l0,0v17.1l0,0l0,0l0,0l0,0l0,0l0,0l0,0v0.1V70
		l-0.1,0.1v0.1l-0.1,0.1l-0.1,0.1h-0.1h-0.2h-0.1H63l-0.1-0.1l-0.1-0.1l-0.1-0.1L62.6,70v-0.1v-0.1l0,0v-16l0,0L62.4,54l-0.1,0.1
		v0.1l-0.1,0.1l-0.1,0.1L62,54.5l0,0h-0.1h-0.1l0,0h-0.1h-0.1h-0.1h-0.1l-0.1-0.1l-0.1-0.1v-0.1v-0.1V54l0,0l0,0v-0.1v-0.1l0,0l0,0
		l0,0l0,0l0.1-0.1l0.2-0.2l0.2-0.2l0.2-0.2l0.2-0.2l0.2-0.2l0.2-0.2l0.2-0.2l0.2-0.2l0.2-0.2l0.2-0.2l0.2-0.1l0.2-0.1l0.2-0.1
		l0.2-0.1l0.2-0.1l0,0h0.1l0,0l0,0l0,0l0,0h0.1l0,0h0.1l0,0l0.1,0.1l0.1,0.1l0.1,0.1v0.1v0.1v-0.1v0.1v0.1v0.1V52L64.9,52L64.9,52
		L64.9,52L64.9,52z M46.5,60.9l-0.2-0.2l-0.1-0.2l-0.1-0.2L46,60.1l-0.1-0.2l-0.1-0.3l-0.1-0.2l-0.1-0.2l-0.1-0.3l0.1-0.3l-0.1-0.3
		v-0.2v-0.3v-0.3v-0.3v-0.1v-0.2v-0.3v-0.2v-0.3l0.1-0.2l0.1-0.3l0.1-0.2l0.1-0.2L46,55l0.1-0.2l0.1-0.2l0.1-0.2l0.1-0.2l0.1-0.2
		l0.1-0.2l0.1-0.2l0.1-0.2l0.2-0.2l0.1-0.2l0.1-0.2l0.2-0.2l-0.1,0l0.2-0.2l0.2-0.2l0.2-0.2l0.2-0.2l0.2-0.1l0.2-0.1l0.2-0.1
		l0.2-0.1l0.2-0.1l0.2-0.1l0.2-0.1l0.2-0.1l0.2-0.1l0.2-0.1l0.2-0.1h0.3l0.2-0.1l0.2-0.1h0.2h0.2h0.3H52h0.3h0.1l0,0l0,0l0,0l0,0
		l0,0l0,0h0.1h0.1l0.1,0.1l0.1,0.1l0.1,0.1l0.1,0.1V51v0.1l-0.1,0.2v0.1l-0.1,0.1l-0.1,0.1l-0.1,0.1l-0.2-0.1h-0.1h-0.1h-0.1h-0.2
		h-0.2h-0.2h-0.2h-0.2l-0.2,0.1h-0.2l-0.2,0.1l-0.2,0.1L50.1,52l-0.2,0.1l-0.2,0.1l-0.2,0.1l-0.2,0.1l-0.2,0.1h0.2l-0.2,0.1
		l-0.2,0.1l-0.1,0.1l-0.2,0.1L48.5,53l-0.1,0.2l-0.2,0.1l-0.1,0.3l-0.2,0.1l-0.1,0.2L47.7,54l-0.1,0.2l-0.1,0.2l-0.2,0.1l-0.1,0.2
		l-0.1,0.2L47,55.1l-0.1,0.2l-0.1,0.2v0.1v0.2L46.7,56l-0.1,0.2v0.2v0.2v0.2V57v0.2v0.2v0.2v0.2V58v0.2v0.2v0.2l0.1,0.2l0.1,0.2
		l0.1,0.2l0.1,0.2l0.1,0.2l0.1,0.2l0.1,0.2l0.1,0.2l0.1,0.2l0.1,0.2l0.1,0.2l0.1,0.1l0.1,0.2l0.1,0.1l0.1,0.2l0.1,0.1l4.5,4.3v0.1
		l0,0V66l0,0v0.1v0.1l0,0v0.1v0.1v0.1l-0.1,0.1l-0.1,0.1l-0.1,0.1l-0.2,0.1h-0.1H52l0,0l0,0l0,0l0,0l0,0l0,0l0,0h-0.1l-0.2-0.2
		l-4.5-4.2L47,62.3l-0.1-0.7l-0.1-0.2l-0.2-0.2L46.4,61L46.5,60.9L46.5,60.9z"/>
</g>
</svg>
