<?xml version="1.0" encoding="utf-8"?>
<!-- Generator: Adobe Illustrator 28.0.0, SVG Export Plug-In . SVG Version: 6.00 Build 0)  -->
<svg version="1.1" id="Слой_1" xmlns="http://www.w3.org/2000/svg" xmlns:xlink="http://www.w3.org/1999/xlink" x="0px" y="0px"
	 viewBox="0 0 247.4 119.4" style="enable-background:new 0 0 247.4 119.4;" xml:space="preserve">
<style type="text/css">
	.st0{fill:#F99D5F;}
	.st1{fill:none;stroke:#010101;stroke-width:2;}
	.st2{fill:#FFFFFF;}
	.st3{fill:#E74E0F;}
	.st4{fill:#EE7D01;}
	.st5{fill:#FEFEFE;}
</style>
<g>
	<path class="st0" d="M58.2,2.7h131c30.4,0,55,24.6,55,55v4c0,30.4-24.6,55-55,55h-131c-30.4,0-55-24.6-55-55v-4
		C3.2,27.3,27.8,2.7,58.2,2.7z"/>
	<path class="st1" d="M58.2,2.7h131c30.4,0,55,24.6,55,55v4c0,30.4-24.6,55-55,55h-131c-30.4,0-55-24.6-55-55v-4
		C3.2,27.3,27.8,2.7,58.2,2.7z"/>
	<path class="st2" d="M56.9,14.2L56.9,14.2c24.9,0,45,20.1,45,45l0,0c0,24.9-20.1,45-45,45l0,0c-24.9,0-45-20.1-45-45l0,0
		C11.9,34.3,32,14.2,56.9,14.2z"/>
</g>
<g>
	<path class="st2" d="M230.7,63.1c-1.1,0-2.1,0-3.2,0c-0.2,0-0.3-0.1-0.4-0.2c-0.6-1.1-1.3-2.2-2-3.3c-0.5-0.8-1-1.7-1.5-2.5
		c-0.4,0.7-0.9,1.5-1.3,2.3c-0.5,0.9-1,1.7-1.5,2.6c-0.2,0.3-0.4,0.6-0.5,0.9c-0.1,0.2-0.2,0.3-0.4,0.3c-1,0-2,0-2.9,0
		c-0.3,0-0.3-0.1-0.2-0.3c0.5-1,1.2-1.9,1.8-2.9c0.6-0.9,1.1-1.9,1.7-2.8c0.4-0.7,0.8-1.3,1.2-2c0.1-0.1,0-0.2,0-0.2
		c-0.2-0.3-0.4-0.6-0.5-0.9c-0.3-0.4-0.5-0.8-0.8-1.3c-0.3-0.6-0.7-1.1-1-1.7c-0.4-0.7-0.9-1.4-1.3-2.2c-0.3-0.5-0.6-1-0.9-1.6
		c-0.1-0.1-0.1-0.2,0-0.4c0-0.1,0.2-0.1,0.3-0.1c1,0,1.9,0,2.9,0c0.2,0,0.3,0,0.4,0.2c0.4,0.8,0.9,1.6,1.3,2.3
		c0.3,0.5,0.5,0.9,0.8,1.4c0.1,0.3,0.3,0.5,0.5,0.8c0.2,0.4,0.5,0.9,0.7,1.3c0.7-1.2,1.4-2.4,2.1-3.6c0.4-0.7,0.8-1.5,1.3-2.3
		c0.1-0.1,0.1-0.2,0.3-0.2c1,0,2,0,3,0c0.3,0,0.3,0.2,0.2,0.3c-0.2,0.4-0.5,0.8-0.7,1.2c-0.4,0.7-0.8,1.4-1.2,2.1
		c-0.3,0.5-0.6,0.9-0.8,1.4c-0.4,0.7-0.9,1.5-1.3,2.2c-0.1,0.2-0.2,0.4-0.3,0.5c-0.3,0.3-0.2,0.5,0,0.8c0.4,0.7,0.8,1.3,1.2,2
		s0.8,1.4,1.3,2.1c0.5,0.7,0.9,1.4,1.3,2.1c0.2,0.4,0.5,0.7,0.7,1.1C230.7,62.9,230.7,63,230.7,63.1z"/>
	<path class="st2" d="M114.6,50.9c0.2-0.3,0.2-0.7,0.4-1.1c0.4-0.9,1-1.6,1.9-2.1c0.8-0.5,1.7-0.8,2.6-1s1.8-0.2,2.6-0.1
		c1,0.1,2,0.2,3,0.4c0.1,0,0.2,0.1,0.2,0.3c-0.1,0.8-0.2,1.6-0.1,2.4c0,0.2-0.1,0.1-0.2,0.1c-0.7-0.2-1.4-0.2-2.1-0.3
		c-0.4-0.1-0.8,0-1.3-0.1c-0.5,0-1,0.1-1.5,0.2c-0.5,0.1-1,0.4-1.4,0.7c-0.6,0.5-1,1.1-1,1.9c0,1.9,0,3.8,0,5.6
		c0,0.7,0.3,1.2,0.8,1.7s1.2,0.8,1.9,1c0.7,0.1,1.4,0.2,2.1,0.1c0.5-0.1,1,0,1.6-0.2c0.3-0.1,0.5-0.1,0.8-0.2
		c0.2-0.1,0.3-0.1,0.3,0.2c0,0.8,0.1,1.5,0.1,2.3c0,0.1,0,0.3-0.2,0.3c-0.7,0-1.3,0.3-2,0.3H123c-1.2,0-2.5,0.2-3.7-0.1
		c-0.6-0.1-1.2-0.3-1.7-0.6c-0.7-0.3-1.4-0.8-1.9-1.3c-0.6-0.6-1-1.4-1.1-2.2c0,0,0,0-0.1-0.1C114.6,56.4,114.6,53.6,114.6,50.9z"/>
	<path class="st2" d="M188.4,79.1c0-2.4,0-4.7,0-7.1c0-0.3,0-0.6,0-0.9c0-0.2,0.1-0.3,0.3-0.3c0.5,0,0.5,0,0.5,0.5
		c0,0.1,0,0.2,0,0.3c0.2,0,0.2-0.2,0.3-0.3c0.7-0.6,1.5-0.7,2.3-0.4c0.8,0.2,1.2,0.8,1.4,1.5s0.2,1.5,0.1,2.2
		c-0.1,0.3-0.2,0.7-0.3,1c-0.4,0.7-1,1.1-1.8,1.2s-1.5-0.1-2-0.9c0,1.1,0,2.1,0,3.1C189,79.1,188.7,79.1,188.4,79.1z M192.5,74.2
		c0-1-0.2-1.9-1-2.3c-0.3-0.2-0.6-0.3-1-0.1c-0.7,0.3-1.3,1.1-1.3,1.8c0,0.6,0,1.2,0.3,1.7c0.4,0.8,1.7,1.1,2.3,0.4
		C192.3,75.2,192.5,74.6,192.5,74.2z"/>
	<path class="st2" d="M201.7,55.2c0-1.1,0-1.9,0-2.8c0-1,0.2-2,0.7-2.9c0.4-0.7,1-1.3,1.6-1.7s1.4-0.7,2.1-0.9
		c0.4-0.1,0.9-0.2,1.3-0.2c0.4,0,0.9-0.1,1.3-0.1c1,0.1,2,0.2,2.9,0.5c0.8,0.3,1.5,0.6,2.1,1.2c0.8,0.7,1.3,1.6,1.5,2.7
		c0.3,1.6,0.2,3.2,0.2,4.8c0,0.9,0,1.8-0.1,2.6c-0.2,1.7-1,3-2.5,3.9c-1.2,0.7-2.6,1-4,1.1c-1.1,0-2.2-0.1-3.3-0.4
		c-0.4-0.1-0.8-0.3-1.1-0.5c-0.9-0.5-1.6-1.2-2.1-2.1c-0.3-0.6-0.5-1.3-0.6-2C201.6,57.3,201.7,56.1,201.7,55.2z M204.9,55
		c0,0.9,0,1.8,0,2.7c0,0.4,0.1,0.7,0.2,1c0.3,0.7,0.8,1.2,1.5,1.5c1.1,0.5,2.3,0.5,3.4,0.1c0.6-0.2,1.1-0.5,1.5-1s0.6-1.2,0.6-1.8
		c0-1.6,0-3.1,0-4.7c0-0.3,0-0.6-0.1-1c-0.1-0.5-0.3-1-0.6-1.4c-0.7-0.8-1.7-1-2.7-1.1c-0.6-0.1-1.2,0.1-1.7,0.3
		c-0.7,0.2-1.2,0.6-1.6,1.2c-0.4,0.5-0.5,1.1-0.5,1.7C204.9,53.4,204.9,54.2,204.9,55z"/>
	<path class="st2" d="M174,56c-1.6,0-3.2,0-4.9,0c-0.3,0-0.3,0.1-0.3,0.3c0,0.6,0,1.1,0,1.7c0,0.8,0.4,1.4,1,1.9
		c1.1,0.9,2.4,1,3.7,0.9c0.5-0.1,1.1-0.1,1.6-0.2c0.8,0,1.5-0.1,2.3-0.3c0.2,0,0.4,0,0.6-0.1c0.2,0,0.4,0,0.4,0.3
		c0.1,0.6,0.2,1.2,0.2,1.8c0,0.2,0,0.2-0.2,0.3c-1.2,0.3-2.5,0.4-3.7,0.5c-0.9,0.1-1.8,0.2-2.8,0.1c-0.5,0-1-0.1-1.5-0.2
		c-0.6-0.1-1.3-0.3-1.8-0.6c-0.6-0.3-1.2-0.7-1.6-1.2c-0.7-0.7-1-1.5-1.2-2.4c-0.1-0.3-0.1-0.6-0.1-0.9c0-2,0-4,0-5.9
		c0-1.4,0.5-2.7,1.5-3.7c0.6-0.6,1.4-1,2.2-1.3c1.2-0.4,2.5-0.6,3.7-0.5c0.8,0.1,1.6,0.2,2.4,0.5c0.9,0.3,1.7,0.8,2.3,1.5
		c0.5,0.6,0.9,1.3,1.1,2.1c0.3,1.4,0.1,2.7,0.2,4.1c0,0.4,0.2,0.9-0.1,1.1c-0.2,0.2-0.7,0.1-1.1,0.1C176.7,56,175.3,56,174,56z
		 M172.4,54c1.1,0,2.3,0,3.4,0c0.2,0,0.3,0,0.3-0.3c0-0.6,0-1.2,0-1.8s-0.2-1.1-0.6-1.5c-0.7-0.8-1.6-1.1-2.7-1.1
		c-0.8,0-1.6,0.1-2.4,0.5c-0.9,0.5-1.5,1.2-1.6,2.3c0,0.6,0,1.2,0,1.7c0,0.2,0.1,0.3,0.3,0.3C170.2,54,171.3,54,172.4,54z"/>
	<path class="st2" d="M143.3,56c-1.6,0-3.2,0-4.9,0c-0.2,0-0.3,0-0.3,0.3c0.1,0.8-0.1,1.6,0.1,2.4c0.2,0.7,0.6,1.2,1.2,1.5
		c0.5,0.3,1.1,0.5,1.7,0.6c0.5,0.1,1,0.1,1.5,0c0.7,0,1.3-0.2,2-0.2s1.3-0.2,2-0.2c0.2,0,0.4,0,0.6-0.1c0.3-0.1,0.4,0,0.4,0.4
		c0,0.5,0.2,0.9,0.2,1.4c0,0.2,0,0.4,0,0.5s-0.1,0.1-0.1,0.1c-1.1,0.2-2.2,0.3-3.2,0.5c-1.1,0.1-2.1,0.2-3.2,0.2
		c-0.7,0-1.3-0.2-1.9-0.3c-1.1-0.2-2.1-0.7-3-1.5c-0.6-0.5-1-1.2-1.3-2c-0.2-0.6-0.2-1.2-0.2-1.8c0-1.8,0-3.7,0-5.5
		c0-0.9,0.1-1.8,0.6-2.6c0.3-0.5,0.6-0.9,0.9-1.2c0.6-0.5,1.3-1,2.1-1.3c0.7-0.3,1.5-0.4,2.2-0.5c0.6-0.1,1.3-0.1,1.9,0
		c0.8,0.1,1.6,0.2,2.3,0.5c0.4,0.2,0.8,0.4,1.2,0.6c0.5,0.3,0.9,0.7,1.2,1.1c0.5,0.7,0.9,1.4,0.9,2.3c0.1,1.5,0,2.9,0.1,4.4
		c0,0.3-0.1,0.3-0.3,0.3C146.6,56,144.9,56,143.3,56z M141.8,54c1.1,0,2.1,0,3.2,0c0.4,0,0.4-0.1,0.4-0.4c0-0.3,0-0.6,0-0.9
		c0-0.7,0-1.5-0.5-2.1c-0.3-0.4-0.6-0.7-1-0.9c-0.5-0.3-1.1-0.5-1.6-0.5c-0.6,0-1.3-0.1-1.9,0.2c-0.4,0.2-0.9,0.3-1.2,0.6
		c-0.4,0.3-0.7,0.7-0.9,1.3c-0.2,0.8-0.1,1.6-0.1,2.4c0,0.3,0.1,0.3,0.3,0.3C139.6,54,140.7,54,141.8,54z"/>
	<path class="st2" d="M157.1,59.7c0.2-1.1,0.6-2.2,0.9-3.3c0.2-0.7,0.4-1.4,0.6-2.1c0.2-0.8,0.4-1.6,0.6-2.4
		c0.2-0.6,0.3-1.1,0.5-1.7c0.2-0.7,0.4-1.3,0.5-2c0.1-0.4,0.3-0.8,0.3-1.3c0-0.1,0.1-0.2,0.2-0.2c1,0,2,0,3,0c0.3,0,0.2,0.1,0.2,0.3
		c-0.2,0.7-0.5,1.4-0.7,2.1c-0.2,0.9-0.5,1.7-0.8,2.6c-0.2,0.7-0.4,1.3-0.6,2c-0.3,0.9-0.6,1.9-0.8,2.8c-0.2,0.7-0.4,1.3-0.6,2
		c-0.3,1-0.6,2-0.9,3c-0.1,0.4-0.3,0.7-0.3,1.1c0,0.1-0.1,0.2-0.2,0.2c-1.3,0-2.6,0-3.9,0c-0.2,0-0.2-0.1-0.2-0.2
		c-0.2-0.7-0.4-1.5-0.7-2.2c-0.2-0.7-0.4-1.3-0.6-2c-0.2-0.6-0.3-1.1-0.5-1.7c-0.2-0.7-0.5-1.3-0.6-2c-0.1-0.5-0.3-1-0.4-1.5
		c-0.1-0.6-0.3-1.1-0.5-1.7c-0.2-0.7-0.4-1.3-0.6-2c-0.2-0.6-0.3-1.2-0.6-1.8c-0.1-0.3-0.2-0.6-0.2-0.8s0-0.3,0.2-0.3
		c1,0,1.9,0,2.9,0c0.2,0,0.3,0.1,0.3,0.3c0.2,0.9,0.4,1.7,0.7,2.6c0.3,1.1,0.6,2.2,0.9,3.4c0.3,0.8,0.5,1.7,0.7,2.6
		c0.2,0.9,0.5,1.8,0.7,2.7C156.9,58.8,157,59.3,157.1,59.7z"/>
	<path class="st2" d="M196.4,56.4c0,2.1,0,4.2,0,6.4c0,0.3-0.1,0.3-0.3,0.3c-0.9,0-1.8,0-2.6,0c-0.3,0-0.4-0.1-0.4-0.4
		c0-4.2,0-8.4,0-12.7c0-0.4-0.1-0.5-0.4-0.4c-0.3,0-0.6,0-0.8,0c-0.1,0-0.2,0-0.2-0.2c0-0.8,0-1.6,0-2.4c0-0.2,0.1-0.2,0.2-0.2
		c0.3,0,0.6,0,1,0c0.2,0,0.3-0.1,0.3-0.3c0-0.8,0-1.6,0-2.5c0-1.1,0.5-2,1.3-2.8c0.5-0.5,1.2-0.8,1.9-1c0.3-0.1,0.7-0.1,1-0.1
		c0.9,0,1.7,0,2.6,0c0.2,0,0.3,0,0.3,0.3c0,0.7,0,1.5,0,2.2c0,0.2-0.1,0.3-0.3,0.3c-0.6,0-1.2,0-1.8,0c-0.8,0-1.2,0.3-1.5,1.1
		c-0.1,0.1,0,0.3,0,0.4c0,0.7,0,1.4,0,2.1c0,0.3,0.1,0.3,0.3,0.3c1,0,2.1,0,3.1,0c0.2,0,0.3,0.1,0.3,0.3c0,0.7,0,1.5,0,2.2
		c0,0.2-0.1,0.3-0.3,0.3c-1,0-2,0-3,0c-0.3,0-0.3,0.1-0.3,0.3C196.4,52.1,196.4,54.3,196.4,56.4z"/>
	<path class="st2" d="M128.6,51.8c0-3.6,0-7.3,0-10.9c0-0.3,0.1-0.4,0.4-0.4c0.9,0,1.7,0,2.6,0c0.2,0,0.3,0,0.3,0.3
		c0,7.3,0,14.7,0,22c0,0.2-0.1,0.3-0.3,0.3c-0.9,0-1.8,0-2.6,0c-0.3,0-0.3-0.1-0.3-0.4C128.6,59.1,128.6,55.4,128.6,51.8z"/>
	<path class="st2" d="M185.2,48.4c0.5-0.4,1-0.8,1.5-1c0.8-0.4,1.6-0.6,2.5-0.5c0.5,0,0.5,0,0.5,0.5c0,0.7,0,1.4,0,2
		c0,0.2,0,0.3-0.3,0.3c-0.4,0-0.8,0-1.2,0c-0.7,0-1.4,0.3-2,0.6c-0.3,0.1-0.4,0.3-0.6,0.5c-0.1,0.1-0.1,0.3-0.1,0.4
		c0,3.9,0,7.7,0,11.6c0,0.3-0.1,0.4-0.4,0.4c-0.9,0-1.7,0-2.6,0c-0.2,0-0.3,0-0.3-0.3c0-5.2,0-10.4,0-15.7c0-0.2,0.1-0.3,0.3-0.3
		c0.7,0,1.5,0,2.2,0c0.2,0,0.3,0.1,0.3,0.3C185.1,47.6,185.1,48,185.2,48.4z"/>
	<path class="st2" d="M119.8,73.5c0,0.8,0,1.5,0,2.3c0,0.2,0.1,0.3,0.3,0.3c0.6,0,0.6,0,0.6,0.6c0,0.5,0,1,0,1.5
		c0,0.2,0,0.2-0.2,0.2c-0.7,0-0.6,0-0.7-0.6c0-0.3,0.1-0.7-0.1-0.8c-0.2-0.2-0.5-0.1-0.8-0.1c-1.1,0-2.2,0-3.3,0
		c-0.2,0-0.3,0-0.3,0.3s0,0.6,0,1c0,0.2-0.1,0.3-0.3,0.3c0,0,0,0-0.1,0c-0.5,0-0.5,0-0.5-0.5s0-1.1,0-1.6c0-0.2,0.1-0.3,0.3-0.3
		c0.3,0.1,0.4-0.1,0.6-0.3c0.4-0.7,0.6-1.4,0.6-2.1c0-0.8,0-1.6,0-2.3c0-0.2,0-0.3,0.3-0.3c1.1,0,2.2,0,3.4,0c0.2,0,0.3,0.1,0.3,0.3
		C119.8,72,119.8,72.7,119.8,73.5z M116.2,76c0.9,0,1.7,0,2.6,0c0.2,0,0.3-0.1,0.3-0.3c0-1.3,0-2.5,0-3.8c0-0.2,0-0.3-0.2-0.3
		s-0.4,0-0.6,0c-0.5,0-0.9-0.1-1.4,0c0,0.5,0,0.9,0,1.4C116.7,74.1,116.7,75.1,116.2,76z"/>
	<path class="st2" d="M152.6,75.4c0.5-0.8,1.1-1.5,1.6-2.3c0.4-0.6,0.8-1.2,1.2-1.7c0.2-0.3,0.5-0.5,0.9-0.5c0.3,0,0.3,0.1,0.3,0.4
		c0,0.5,0,1.1,0,1.6c0,1.2,0,2.4,0,3.6c0,0.3-0.1,0.4-0.3,0.3c-0.1,0-0.2,0-0.2,0c-0.2,0-0.3-0.1-0.3-0.3c0-1.3,0-2.6,0-4
		c0-0.1,0-0.1,0-0.2c-0.1,0-0.2,0-0.2,0.1c-0.6,1-1.4,2-2,2.9c-0.3,0.4-0.5,0.8-0.8,1.2c-0.1,0.2-0.8,0.4-1,0.2
		c-0.1-0.1-0.1-0.2-0.1-0.2c0-1.8,0-3.6,0-5.5c0-0.2,0-0.2,0.2-0.2c0.7,0,0.7,0,0.7,0.6C152.6,72.8,152.6,74.1,152.6,75.4z"/>
	<path class="st2" d="M173,74.2c-0.6,0-1.1,0-1.7,0c-0.3,0-0.3,0.1-0.3,0.4c0.3,1.5,1.6,1.7,2.7,1.4c0.1,0,0.1,0,0.2-0.1
		c0.2,0,0.4-0.3,0.6-0.1c0.2,0.2,0,0.5,0,0.8c0,0.1-0.1,0.1-0.2,0.1c-0.7,0.2-1.3,0.3-2,0.2c-0.9-0.1-1.6-0.5-1.9-1.4
		c-0.5-1.2-0.5-2.4,0.1-3.6c0.3-0.6,0.8-0.9,1.5-1c0.8-0.1,1.6-0.1,2.2,0.5c0.4,0.4,0.5,0.8,0.6,1.3c0.1,0.4,0.1,0.8,0.1,1.3
		c0,0.2-0.1,0.3-0.3,0.2C174.1,74.2,173.6,74.2,173,74.2z M172.6,73.4c0.5,0,0.9,0,1.4,0c0.1,0,0.2,0,0.2-0.2
		c-0.1-0.5-0.2-1-0.7-1.3c-0.7-0.4-1.4-0.2-1.9,0.3c-0.3,0.3-0.3,0.6-0.4,0.9c-0.1,0.2,0,0.3,0.2,0.3
		C171.7,73.4,172.1,73.4,172.6,73.4z"/>
	<path class="st2" d="M124.7,74.2c-0.6,0-1.2,0-1.8,0c-0.2,0-0.3,0.1-0.2,0.3c0.1,0.4,0.2,0.8,0.5,1.1c0.3,0.3,0.7,0.5,1.1,0.5
		c0.6,0.1,1.1,0,1.6-0.3c0.3-0.1,0.3-0.1,0.3,0.2c0,0.6,0,0.6-0.6,0.7c-0.8,0.2-1.6,0.2-2.4-0.1c-0.5-0.2-0.8-0.5-1-1
		c-0.3-0.7-0.4-1.5-0.3-2.3c0-0.4,0.1-0.8,0.3-1.2c0.3-0.7,0.8-1.1,1.5-1.3c0.9-0.2,1.7-0.1,2.4,0.5c0.2,0.2,0.4,0.5,0.5,0.8
		c0.2,0.6,0.2,1.2,0.2,1.9c0,0.2-0.1,0.1-0.2,0.1C125.9,74.2,125.3,74.2,124.7,74.2L124.7,74.2z M124.2,73.4c0.4,0,0.9,0,1.3,0
		c0.2,0,0.3,0,0.2-0.2c-0.1-0.5-0.3-1-0.8-1.3s-1.4-0.2-1.8,0.2c-0.3,0.3-0.4,0.6-0.5,1c-0.1,0.2,0,0.3,0.2,0.3
		C123.3,73.4,123.8,73.4,124.2,73.4z"/>
	<path class="st2" d="M163.7,73.9c0-0.9,0-1.7,0-2.6c0-0.3,0.1-0.4,0.4-0.4h0.1c0.3-0.1,0.3,0.1,0.3,0.3c0,1.5,0,2.9,0,4.4
		c0,0.3,0,0.4,0.4,0.4c0.7,0,1.4,0,2.1,0c0.2,0,0.3-0.1,0.3-0.3c0-1.5,0-2.9,0-4.4c0-0.1-0.1-0.4,0.1-0.4c0.2-0.1,0.5,0,0.7,0
		c0.1,0,0.1,0.2,0.1,0.3c0,1.5,0,2.9,0,4.4c0,0.3,0.1,0.4,0.4,0.4c0.4,0,0.4,0,0.4,0.5s0,1.1,0,1.6c0,0.2-0.1,0.3-0.3,0.3
		c-0.1,0-0.2,0-0.3,0c-0.2,0-0.3-0.1-0.3-0.3c0-0.3,0-0.6,0-1c0-0.3-0.1-0.3-0.3-0.3c-1.3,0-2.6,0-3.9,0c-0.3,0-0.3-0.1-0.3-0.3
		C163.7,75.6,163.7,74.8,163.7,73.9z"/>
	<path class="st2" d="M148.8,72.3c-0.4,0.6-0.7,1-1.1,1.5c-0.4,0.6-0.8,1.2-1.2,1.8c-0.2,0.4-0.5,0.7-0.8,1.1
		c-0.1,0.1-0.8,0.2-0.9,0.1c-0.1-0.1,0-0.1,0-0.2c0-1.8,0-3.7,0-5.5c0-0.2,0.1-0.2,0.2-0.2c0.6,0,0.5-0.1,0.5,0.5c0,1.2,0,2.5,0,3.7
		c0,0.1,0,0.2,0,0.4c0.5-0.7,1-1.4,1.4-2c0.5-0.8,1.1-1.5,1.7-2.3c0.2-0.2,0.8-0.4,1-0.3c0.1,0.1,0.1,0.2,0.1,0.3c0,1,0,2,0,2.9
		c0,0.8,0,1.6,0,2.4c0,0.2-0.1,0.3-0.3,0.3h-0.1c-0.3,0-0.4,0-0.4-0.4c0-1.3,0-2.6,0-3.8C148.8,72.5,148.8,72.4,148.8,72.3z"/>
	<path class="st2" d="M176.7,73.9c0-0.9,0-1.7,0-2.6c0-0.3,0.1-0.4,0.4-0.4c0.4,0,0.4,0.1,0.4,0.4c0,0.6,0,1.2,0,1.7
		c0,0.2,0.1,0.3,0.3,0.3c0.8,0,1.6,0,2.4,0c0.2,0,0.3-0.1,0.3-0.3c0-0.6,0-1.2,0-1.8c0-0.2,0-0.3,0.3-0.3c0.6,0,0.6,0,0.6,0.6
		c0,1.7,0,3.3,0,5c0,0.2,0,0.3-0.3,0.3c-0.6,0-0.6,0-0.6-0.6s0-1.2,0-1.8c0-0.2,0-0.3-0.3-0.3c-0.8,0-1.6,0-2.4,0
		c-0.2,0-0.3,0.1-0.3,0.3c0,0.7,0,1.4,0,2.1c0,0.2,0,0.3-0.3,0.3c-0.1,0-0.2,0-0.3,0c-0.2,0-0.3-0.1-0.3-0.3
		C176.7,75.7,176.7,74.8,176.7,73.9z"/>
	<path class="st2" d="M139.5,74.2c0,0.8,0,1.6,0,2.4c0,0.2,0,0.3-0.3,0.3c-0.6,0-0.6,0-0.6-0.6c0-1.7,0-3.3,0-5c0-0.2,0-0.4,0.3-0.3
		c0.6,0,0.6,0,0.6,0.6s0,1.2,0,1.8c0.1,0,0.1,0,0.1,0c0.7-0.7,1.4-1.4,2.2-2.1c0.2-0.2,0.9-0.3,1.1-0.2c0.1,0.1,0.1,0.2,0,0.3
		c-0.6,0.5-1,1-1.6,1.5c-0.4,0.3-0.6,0.6-1,1c0.7,0.7,1.4,1.5,2.2,2.1c0.2,0.2,0.4,0.4,0.7,0.7c0.1,0.1,0.1,0.2,0.1,0.3
		c0,0.1-0.2,0.1-0.2,0.1c-0.5,0.1-1-0.1-1.4-0.5C141,75.6,140.3,74.9,139.5,74.2z"/>
	<path class="st2" d="M137,75.8c0,0.1,0,0.2,0,0.2c0.1,0.7,0.1,0.8-0.7,0.9c-0.9,0.1-1.8,0-2.6-0.5c-0.5-0.4-0.9-1-1-1.7
		c-0.1-0.6-0.1-1.1,0-1.7s0.4-1.2,0.9-1.6c0.9-0.7,2-0.8,3.1-0.4c0.1,0,0.2,0.1,0.2,0.2s0,0.1,0,0.2c0,0.5,0,0.5-0.5,0.4
		c-1-0.4-2.1,0-2.6,1c-0.3,0.5-0.3,1.1-0.2,1.6c0.1,0.9,0.7,1.5,1.6,1.7C135.8,76.2,136.4,76.1,137,75.8z"/>
	<path class="st2" d="M184.4,74.3c0-0.7,0-1.5,0-2.2c0-0.3,0-0.4-0.3-0.3c-0.4,0-0.8,0-1.1,0c-0.2,0-0.3-0.1-0.3-0.3l0,0
		c0-0.5,0-0.5,0.5-0.5c1.2,0,2.3,0,3.5,0c0.4,0,0.3,0.2,0.3,0.4c0,0.2,0,0.4-0.3,0.4c-0.4,0-0.7,0-1.1,0c-0.3,0-0.4,0.1-0.3,0.4
		c0,1.5,0,2.9,0,4.4c0,0.3-0.1,0.4-0.4,0.4c-0.1,0-0.2,0-0.3,0c-0.2,0-0.3-0.1-0.2-0.3C184.4,75.8,184.4,75.1,184.4,74.3z"/>
	<path class="st2" d="M129.9,74.3c0,0.8,0,1.5,0,2.3c0,0.2-0.1,0.3-0.3,0.3c-0.1,0-0.2,0-0.3,0c-0.2,0-0.3-0.1-0.3-0.3
		c0-1.5,0-3,0-4.5c0-0.3-0.1-0.4-0.4-0.4c-0.4,0-0.8,0-1.1,0c-0.2,0-0.3,0-0.3-0.2c0-0.6,0-0.6,0.6-0.6c1.2,0,2.3,0,3.5,0
		c0.3,0,0.3,0.1,0.3,0.3c0,0.5,0,0.5-0.5,0.5c-0.3,0-0.6,0-0.9,0c-0.3,0-0.4,0-0.4,0.4C130,72.8,129.9,73.6,129.9,74.3z"/>
	<path class="st2" d="M172.7,69.9c-0.7,0.1-1.1-0.4-1.5-0.8c-0.2-0.2,0-0.4,0.2-0.6s0.3,0,0.4,0.1c0.3,0.4,0.7,0.4,1.1,0.4
		c0.4,0,0.8-0.1,1-0.4c0.2-0.2,0.3-0.1,0.4,0c0.1,0.2,0.4,0.4,0.1,0.6c-0.2,0.1-0.3,0.3-0.5,0.5C173.6,69.8,173.1,69.9,172.7,69.9z"
		/>
</g>
<g>
	<path class="st3" d="M49.8,30.5c-0.2,0.5-0.8,0.5-1.1,0.7c-0.7,0.3-1.3,0.6-2,0.8c-0.7,0.4-1.3,0.7-2,1.1c-0.8,0.5-1.5,1-2.4,1.6
		c-1.4,0.9-2.6,2.1-3.8,3.3c-1,1.1-2.1,2.4-2.9,3.7c-0.7,0.9-1.2,1.9-1.8,2.9c-0.5,0.9-0.9,2-1.3,3c-0.3,0.8-0.7,1.7-0.8,2.6
		c-0.3,1.1-0.6,2.2-0.7,3.3c-0.2,1.7-0.4,3.4-0.3,5.1c0.1,1.8,0.3,3.6,0.8,5.4c0.3,1.1,0.6,2.3,1,3.3c0.4,1.1,0.9,2.2,1.5,3.3
		c0.4,0.8,0.8,1.5,1.3,2.3c1,1.5,2.2,2.9,3.4,4.2c0.7,0.7,1.4,1.4,2.1,2c0.7,0.6,1.5,1.1,2.3,1.7c0.9,0.7,2,1.2,2.9,1.8
		c1.1,0.6,2.4,1.1,3.6,1.6c1.1,0.4,2.3,0.8,3.4,1c2.2,0.5,4.3,0.8,6.5,0.6c0.5,0,0.8,0,1.3,0c1.3,0.1,2.6-0.3,4-0.5
		c1.4-0.2,2.6-0.7,4.1-1c0.5-0.1,0.9-0.4,1.4-0.6c0.8-0.4,1.7-0.8,2.5-1.3c1.4-0.8,2.7-1.7,4-2.6c1-0.8,2-1.6,2.8-2.5
		c0.8-0.8,1.7-1.8,2.5-2.8c0.1-0.1,0.2-0.3,0.4-0.3c0,0.4-0.2,0.7-0.4,1c-1,1.6-2.2,3-3.4,4.3s-2.5,2.5-4,3.5
		c-1.3,0.9-2.5,1.8-4,2.5c-0.9,0.5-2,0.9-3,1.3c-0.8,0.3-1.6,0.6-2.5,0.8c-1,0.3-2,0.5-3,0.7c-2,0.3-4,0.6-5.9,0.5
		c-1.4,0-2.9-0.3-4.3-0.5c-1.2-0.2-2.5-0.5-3.6-0.8c-1.6-0.5-3.1-1.1-4.5-1.8c-1.3-0.7-2.6-1.5-3.9-2.4c-0.9-0.7-1.9-1.4-2.8-2.3
		c-0.9-0.8-1.8-1.8-2.6-2.7c-0.8-0.9-1.4-1.9-2.1-2.8c-0.8-1.1-1.4-2.4-2.1-3.6c-1-2.2-1.7-4.3-2.3-6.7c-0.5-2.5-0.6-4.9-0.6-7.4
		c0-1.4,0.3-2.8,0.5-4.2c0.2-1.4,0.7-2.7,1-4.1c0.5-1.6,1.2-3,2-4.5c0.8-1.5,1.7-2.9,2.7-4.3c1.2-1.5,2.6-3,4.2-4.2
		c0.8-0.7,1.5-1.2,2.4-1.8c0.9-0.7,1.9-1.2,2.9-1.8c0.9-0.5,1.9-0.9,2.8-1.3c0.8-0.4,1.7-0.6,2.5-0.8c0.1,0,0.1,0,0.2-0.1
		C49.2,30.5,49.5,30.5,49.8,30.5z"/>
	<path class="st4" d="M66.2,70.6c0-0.8,0-1.3,0-1.9c0-1.2,0.3-2.4,0.7-3.5c0.4-1,1-1.9,1.5-2.9c0.5-0.8,0.8-1.7,1.3-2.5
		c0.5-0.9,0.9-2,1.2-2.9c0.6-1.6,1.1-3.2,1.2-5c0.1-1.3,0.1-2.5-0.3-3.8c-0.3-0.8-0.7-1.4-1.1-2.1c-0.7-0.8-1.5-1.5-2.5-2
		c-0.1-0.1-0.2-0.1-0.2-0.3s0.1-0.3,0.2-0.3c0.6-0.3,1.2-0.4,1.8-0.6c1.4-0.5,2.8-0.5,4.3-0.4c1.8,0.1,3.5,0.7,5,1.5
		c1,0.6,1.9,1.3,2.6,2.3c0.9,1.1,1.7,2.5,2.2,3.8c0.4,1,0.7,2.2,0.8,3.3c0.1,0.4,0.2,0.8,0.2,1.2c0,1.5,0,3,0,4.5
		c0,0.8-0.3,1.7-0.4,2.5c-0.2,1.3-0.6,2.6-0.9,4c-0.6,1.9-1.3,3.6-2.4,5.2c-0.6,0.8-1.1,1.7-1.8,2.5c-0.8,0.8-1.5,1.7-2.4,2.5
		c-1,0.9-2.1,1.8-3.2,2.5c-0.9,0.7-1.9,1.2-2.9,1.8c-0.9,0.5-1.9,0.8-2.8,1.2c-0.9,0.4-2,0.8-3,0.9c-1.2,0.3-2.5,0.6-3.8,0.6
		c-1,0-2.1,0.3-3.1,0.2c-1.8-0.2-3.7-0.2-5.5-0.6c-1.4-0.3-2.8-0.7-4.2-1.2c-0.9-0.4-1.9-0.8-2.7-1.3c-0.9-0.6-1.8-1.1-2.6-1.9
		c-0.3-0.3-0.5-0.6-0.7-0.9c-0.8-1.5-1.2-3.1-1.6-4.7c-0.1-0.4-0.1-0.8-0.1-1.2c-0.2-2.2-0.1-4.2,0.6-6.3c0.4-1.3,0.8-2.5,1.5-3.8
		c0.8-1.5,1.8-2.7,2.9-3.9c0.8-0.8,1.9-1.7,3-2.3c0.5-0.3,0.8-0.6,1.3-0.8c1.1-0.6,2.3-1,3.6-1.2c0.6-0.1,1-0.3,1.6-0.4
		c0.2,0,0.5-0.1,0.6,0c0.2,0.2-0.1,0.4-0.2,0.6c-0.4,0.4-0.8,0.8-1,1.1c-1,1.3-1.7,2.7-1.3,4.4c0.2,0.9,0.8,1.7,1.5,2.4
		c1,0.9,2.3,1.6,3.4,2.4c0.7,0.4,1.3,0.8,1.9,1c0.7,0.4,1.1,0.8,1.7,1.2c0.8,0.7,1.6,1.5,2.3,2.4c0.5,0.7,0.9,1.4,1.2,2.2
		C66,70.4,66.1,70.4,66.2,70.6z M77.6,69.2c0.5-0.5,0.9-1,1.4-1.6c0.9-1.1,1.6-2.3,2.3-3.6c0.5-0.9,0.9-2,1.2-3
		c0.3-0.9,0.5-1.9,0.8-2.9c0.4-1.4,0.1-2.9,0.2-4.3c0-0.4-0.1-0.8-0.2-1.2c-0.3-1.3-0.7-2.5-1.3-3.8c-0.5-0.8-1-1.6-1.7-2.3
		c-0.7-0.6-1.4-1-2.3-1.4c-0.9-0.4-2-0.7-3-0.8C74,44.1,73.1,44,72.2,44c-0.1,0-0.2-0.1-0.3,0.1c0,0.1,0.1,0.1,0.1,0.2
		c0.2,0.3,0.5,0.6,0.7,0.8c0.5,0.6,0.9,1.3,1.2,2c0.3,0.8,0.6,1.5,0.7,2.4c0.1,1,0.1,2.1,0,3c-0.1,0.8-0.2,1.5-0.5,2.2
		c0.7-0.5,1-1.1,1.3-1.8c0.4-0.7,0.5-1.4,0.8-2.2c1.2,3.4,1,6.8,0.1,10.3c1.8-2.5,2.5-5.2,2.7-8.2c0.3,0.2,0.4,0.4,0.4,0.5
		c0.2,0.9,0.5,2,0.5,2.9c0,1,0.1,2.2-0.1,3.2c-0.1,1.1-0.3,2.4-0.6,3.5c-0.3,1.4-0.7,2.8-1.2,4.2C78,67.9,77.7,68.5,77.6,69.2
		C77.4,69.2,77.4,69.2,77.6,69.2L77.6,69.2z"/>
	<path class="st4" d="M36.8,67.7c-0.6-0.6-0.8-1.3-1.1-2c-0.7-1.3-1-2.8-1.3-4.2c-0.1-0.6-0.2-1.2-0.2-1.8c-0.2-1.7,0-3.5,0.2-5.2
		c0.2-1.3,0.5-2.6,0.8-3.9c0.6-2,1.4-3.8,2.5-5.6c0.8-1.4,1.8-2.7,2.8-4c0.7-0.8,1.4-1.5,2.2-2.3c0.7-0.7,1.5-1.2,2.4-1.9
		c0.8-0.6,1.4-1.1,2.1-1.7c1.2-1,2.5-2.1,3.8-3c0.2-0.2,0.3,0,0.4,0.1c0.4,0.7,0.5,1.4,0.5,2.2c0,0.9,0.1,1.8,0,2.7
		c-0.1,0.7,0,1.2-0.2,1.9c-0.1,0.2,0,0.4,0.2,0.6c0.9,0.9,1.8,1.9,2.7,2.8c0.8,0.8,1.4,1.6,2.3,2.4c0.4,0.4,0.7,0.8,1,1.1
		c0.7,0.6,1.3,0.8,2.2,0.8c1.1,0.1,2.2,0.4,3.3,0.3c0.2,0,0.3,0.2,0.3,0.3c0.4,2.2-0.3,3.9-2.4,4.9c-0.8,0.4-1.6,0.7-2.5,0.9
		c-0.1,0-0.2,0.1-0.3,0.1s-0.3,0.1-0.3-0.1c0-0.1,0-0.2,0.2-0.3c0.7-0.4,1.2-0.7,1.9-1c0.5-0.3,0.8-0.6,1.2-0.8
		c0.3-0.3,0.2-0.4-0.1-0.6c-0.1-0.1-0.3-0.1-0.4-0.1c-1.1,0-2.3-0.2-3.4-0.1c-1.5,0.1-3,0.2-4.4,0.5c-1.3,0.3-2.5,0.7-3.8,1.1
		c-1.1,0.5-2.3,1.1-3.3,1.8c-1.1,0.8-2.2,1.6-3.1,2.6c-0.6,0.6-1,1.3-1.5,1.9c-0.7,0.8-1.2,1.8-1.8,2.7c-0.5,0.9-0.9,1.9-1.3,2.8
		c-0.3,0.8-0.5,1.4-0.8,2.2c-0.2,0.5-0.3,0.9-0.4,1.4C36.9,67.4,36.9,67.5,36.8,67.7z M47.2,42.4c0.1,0.8,0.5,1.3,1,1.6
		c0.9,0.6,2.1,0.6,3.2,0.6c0.3,0,0.6,0,0.9,0c-0.4-0.6-0.8-1-1.1-1.4c-0.4-0.5-0.8-0.8-1.5-0.8C48.9,42.4,48,42.4,47.2,42.4z"/>
	<path class="st4" d="M56.4,37.2c0.1,1.4-0.1,2.9-0.4,4.5c-0.1,0.4-0.3,0.7-0.5,1c-0.1,0.2-0.2,0.2-0.3,0c-0.7-0.9-1.5-1.8-2.4-2.6
		c-0.2-0.2-0.5-0.4-0.7-0.6c-0.2-0.2-0.2-0.4,0-0.6c0.8-1,1.6-2.1,2.5-3c0.4-0.4,0.9-0.7,1.3-1c0.3-0.2,0.4-0.1,0.4,0.2
		C56.4,35.8,56.4,36.4,56.4,37.2z"/>
	<path class="st5" d="M77.5,69.1c0.3-0.7,0.5-1.3,0.8-1.9c0.6-1.3,0.9-2.7,1.2-4.2c0.3-1.1,0.4-2.3,0.6-3.5c0.1-1,0.1-2.2,0.1-3.2
		s-0.3-2-0.5-2.9c0-0.2-0.1-0.3-0.4-0.5c-0.2,2.9-0.9,5.8-2.7,8.2c0.9-3.5,1.1-6.9-0.1-10.3c-0.3,0.8-0.5,1.5-0.8,2.2
		c-0.4,0.7-0.7,1.3-1.3,1.8c0.2-0.8,0.4-1.4,0.5-2.2c0.1-1,0.1-2.1,0-3c-0.1-0.8-0.4-1.6-0.7-2.4c-0.3-0.8-0.7-1.4-1.2-2
		c-0.2-0.3-0.5-0.6-0.7-0.8c-0.1-0.1-0.1-0.1-0.1-0.2c0-0.1,0.2-0.1,0.3-0.1c0.9,0,1.8,0.1,2.7,0.2c1,0.1,2.1,0.4,3,0.8
		c0.8,0.4,1.6,0.8,2.3,1.4c0.7,0.6,1.2,1.4,1.7,2.3c0.7,1.2,1,2.5,1.3,3.8c0.1,0.4,0.2,0.8,0.2,1.2c-0.1,1.4,0.2,2.9-0.2,4.3
		c-0.2,0.9-0.4,2-0.8,2.9c-0.3,1-0.8,2.1-1.2,3c-0.7,1.2-1.3,2.5-2.3,3.6C78.5,68.2,78.1,68.8,77.5,69.1
		C77.6,69.2,77.6,69.1,77.5,69.1z"/>
	<path class="st5" d="M77.6,69.2L77.6,69.2C77.4,69.2,77.5,69.1,77.6,69.2C77.6,69.1,77.6,69.2,77.6,69.2z"/>
	<path class="st5" d="M47.2,42.4c0.8,0,1.7,0,2.5,0c0.6,0,1,0.4,1.5,0.8c0.4,0.4,0.8,0.8,1.1,1.4c-0.4,0-0.7,0-0.9,0
		c-1.1-0.1-2.2,0-3.2-0.6C47.5,43.7,47.3,43.2,47.2,42.4z"/>
</g>
</svg>
