<?xml version="1.0" encoding="utf-8"?>
<!-- Generator: Adobe Illustrator 28.0.0, SVG Export Plug-In . SVG Version: 6.00 Build 0)  -->
<svg version="1.1" id="Слой_1" xmlns="http://www.w3.org/2000/svg" xmlns:xlink="http://www.w3.org/1999/xlink" x="0px" y="0px"
	 viewBox="0 0 247.4 119.4" style="enable-background:new 0 0 247.4 119.4;" xml:space="preserve">
<style type="text/css">
	.st0{fill:#6EA59F;}
	.st1{fill:none;stroke:#010101;stroke-width:2;}
	.st2{fill:#FFFFFF;}
	.st3{clip-path:url(#SVGID_00000078021924415733002530000009284295580710609564_);}
	.st4{fill:#80C8BC;}
</style>
<g>
	<path class="st0" d="M58.2,2.7h131c30.4,0,55,24.6,55,55v4c0,30.4-24.6,55-55,55h-131c-30.4,0-55-24.6-55-55v-4
		C3.2,27.3,27.8,2.7,58.2,2.7z"/>
	<path class="st1" d="M58.2,2.7h131c30.4,0,55,24.6,55,55v4c0,30.4-24.6,55-55,55h-131c-30.4,0-55-24.6-55-55v-4
		C3.2,27.3,27.8,2.7,58.2,2.7z"/>
	<path class="st2" d="M56.9,14.2L56.9,14.2c24.9,0,45,20.1,45,45l0,0c0,24.9-20.1,45-45,45l0,0c-24.9,0-45-20.1-45-45l0,0
		C11.9,34.3,32,14.2,56.9,14.2z"/>
</g>
<g>
	<g>
		<defs>
			<rect id="SVGID_1_" x="20.1" y="-45.8" width="72.8" height="23.3"/>
		</defs>
		<clipPath id="SVGID_00000007412211757885209890000001670060243699479956_">
			<use xlink:href="#SVGID_1_"  style="overflow:visible;"/>
		</clipPath>
		<g transform="matrix(1 0 0 1 0 0)" style="clip-path:url(#SVGID_00000007412211757885209890000001670060243699479956_);">
		</g>
	</g>
</g>
<g>
	<g>
		<path class="st4" d="M37.3,65.1v3.5H23.1V50.8H37v3.5H27v3.6h8.7v3.2H27v4H37.3z"/>
		<path class="st4" d="M60.2,50.8v17.8h-3.9v-11l-5,6.6h-2.7l-5-6.6v11h-3.9V50.8h3.4l6.8,9.1l6.8-9.1
			C56.7,50.8,60.2,50.8,60.2,50.8z"/>
		<path class="st4" d="M70.8,54.3v10.9h3.8v3.5H63.2v-3.5h3.7V54.3h-3.7v-3.5h11.3v3.5H70.8z"/>
		<path class="st4" d="M80.8,59.7c0,3.5,2.4,5.7,5.8,5.7c2,0,3.8-0.8,5.3-1.9v4c-1.3,0.9-3.1,1.4-5.3,1.4c-5.7,0-9.8-4-9.8-9.3
			c0-5.4,4-9.3,9.8-9.3c2.2,0,4,0.6,5.3,1.4v4c-1.5-1.1-3.3-1.9-5.3-1.9C83.2,54,80.8,56.2,80.8,59.7z"/>
	</g>
</g>
<g>
	<text transform="matrix(1 0 0 1 21.5186 -62.3703)" class="st4" style="font-family:'Bilbao-Bold'; font-size:26.2424px;">EMIC</text>
</g>
<g>
	<path class="st2" d="M118.6,53.2h9.9v2.5h-7.1V59h6.6v2.5h-6.6v4.7h-2.8V53.2z"/>
	<path class="st2" d="M142.1,53.2v7.6c0,3.6-2.7,5.7-6,5.7s-6-2.1-6-5.7v-7.6h2.8v7c0,2.5,1.4,3.7,3.2,3.7s3.2-1.2,3.2-3.7v-7H142.1
		z"/>
	<path class="st2" d="M157.1,53.2v13h-2.5l-7.4-8.5v8.5h-2.8v-13h2.5l7.4,8.4v-8.4C154.3,53.2,157.1,53.2,157.1,53.2z"/>
	<path class="st2" d="M171.9,59.7c0,3.8-2.7,6.5-6.9,6.5h-5.6v-13h5.6C169.2,53.2,171.9,55.9,171.9,59.7z M168.9,59.7
		c0-2.6-1.7-4.2-4-4.2h-2.7v8.3h2.7C167.3,63.9,168.9,62.3,168.9,59.7z"/>
	<path class="st2" d="M181.8,63.2h-5.6l-1.3,3H172l5.6-13h3l5.5,13h-3L181.8,63.2z M180.9,61l-1.9-4.5l-1.9,4.5H180.9z"/>
	<path class="st2" d="M189,59.7c0,2.6,1.7,4.2,4.2,4.2c1.5,0,2.8-0.6,3.8-1.4v2.9c-0.9,0.6-2.3,1-3.9,1c-4.2,0-7.1-2.9-7.1-6.8
		s2.9-6.8,7.1-6.8c1.6,0,2.9,0.4,3.9,1v2.9c-1.1-0.8-2.4-1.4-3.8-1.4C190.8,55.5,189,57.2,189,59.7z"/>
	<path class="st2" d="M204.3,55.7v7.9h2.7v2.5h-8.3v-2.5h2.7v-7.9h-2.7v-2.5h8.3v2.5C207,55.7,204.3,55.7,204.3,55.7z"/>
	<path class="st2" d="M218.1,61c0,3.3-2.2,5.4-5.2,5.4c-2,0-3.9-1-4.8-2.9l2.3-1.1c0.6,1,1.5,1.4,2.5,1.4c1.6,0,2.5-1.1,2.5-2.9
		v-5.3h-6v-2.5h8.8V61H218.1z"/>
	<path class="st2" d="M228.7,63.2h-5.6l-1.3,3h-2.9l5.6-13h3l5.5,13h-3L228.7,63.2z M227.8,61l-1.9-4.5L224,61H227.8z"/>
</g>
<text transform="matrix(1 0 0 1 120.4824 -28.4214)" style="font-family:'Bilbao-Bold'; font-size:19.1283px;">FUNDACIJA</text>
</svg>
