<?xml version="1.0" encoding="utf-8"?>
<!-- Generator: Adobe Illustrator 28.0.0, SVG Export Plug-In . SVG Version: 6.00 Build 0)  -->
<svg version="1.1" id="Слой_1" xmlns="http://www.w3.org/2000/svg" xmlns:xlink="http://www.w3.org/1999/xlink" x="0px" y="0px"
	 viewBox="0 0 247.4 119.4" style="enable-background:new 0 0 247.4 119.4;" xml:space="preserve">
<style type="text/css">
	.st0{fill:#374151;}
	.st1{fill:none;stroke:#010101;stroke-width:2;}
	.st2{fill:#8D97AD;}
	.st3{fill:#FFFFFF;}
	.st4{fill:#1072BA;}
	.st5{fill:#D41C5C;}
	.st6{fill:#EC2227;}
	.st7{fill:#F79421;}
	.st8{fill:#079247;}
</style>
<path class="st0" d="M61.3,3.1h131c30.4,0,55,24.6,55,55v4c0,30.4-24.6,55-55,55h-131c-30.4,0-55-24.6-55-55v-4
	C6.3,27.7,30.9,3.1,61.3,3.1z"/>
<path class="st1" d="M61.3,3.1h131c30.4,0,55,24.6,55,55v4c0,30.4-24.6,55-55,55h-131c-30.4,0-55-24.6-55-55v-4
	C6.3,27.7,30.9,3.1,61.3,3.1z"/>
<g>
	<path class="st2" d="M120.6,69.8c0-1,0.6-1.5,1.7-1.5c1,0,1.4,0.4,1.7,1.1c0,0.2,0,0.2-0.2,0.2h-0.2c-0.2,0-0.2,0-0.2-0.2
		c-0.2-0.5-0.5-0.8-1.3-0.8c-0.8,0-1.3,0.5-1.3,1.1v1.3c0,0.6,0.5,1.1,1.3,1.1c0.6,0,1.1-0.4,1.3-0.8c0-0.2,0.2-0.2,0.2-0.2h0.2
		c0.2,0,0.2,0.2,0.2,0.2c-0.4,0.8-0.8,1.1-1.7,1.1c-1.1,0-1.7-0.6-1.7-1.5C120.6,70.7,120.6,69.8,120.6,69.8z M128.6,68.5
		C128.7,68.5,128.7,68.5,128.6,68.5l0.2,0.4c0,0.2,0,0.2-0.2,0.2h-1.3v3.4c0,0.2,0,0.2-0.2,0.2h-0.4c-0.2,0-0.2,0-0.2-0.2V69h-1.3
		c-0.2,0-0.2,0-0.2-0.2v-0.2c0-0.2,0-0.2,0.2-0.2L128.6,68.5L128.6,68.5z M131.9,68.3c1.1,0,1.7,0.5,1.7,1.5v1.1
		c0,1.1-0.5,1.5-1.7,1.5c-0.4,0-0.8-0.2-1.3-0.4v1.7c0,0.2,0,0.2-0.2,0.2h-0.4c-0.2,0-0.2,0-0.2-0.2v-5c0-0.4,0-0.4,0.4-0.5
		C130.9,68.5,131.3,68.3,131.9,68.3z M133.2,69.8c0-0.8-0.5-1.1-1.3-1.1c-0.4,0-0.6,0-1,0.2c-0.2,0-0.2,0.2-0.2,0.2v2.7
		c0.5,0.2,0.8,0.4,1.1,0.4c0.8,0,1.1-0.4,1.1-1.1V70C133,69.8,133.2,69.8,133.2,69.8z M136.9,68.3c1.3,0,1.5,0.6,1.5,1.5v2.3
		c0,0.4,0,0.4-0.4,0.5c-0.4,0.2-0.8,0.2-1.4,0.2c-0.5,0-1-0.1-1.4-0.4c-0.4-0.2-0.4-0.5-0.4-1c0-1,0.5-1.3,1.7-1.3
		c0.2,0,0.6,0,1.1,0.2V70c0-0.6-0.4-1.1-1.1-1.1c-0.5,0-1,0.2-1.1,0.6c0,0.2-0.2,0.2-0.2,0l-0.2-0.2c-0.2,0-0.2-0.2-0.2-0.2
		C135.5,68.6,136.2,68.3,136.9,68.3z M138.1,70.6H137c-0.8,0-1.1,0.2-1.1,0.8c0,0.5,0.4,0.8,1.1,0.8c0.5,0,0.8,0,1-0.2
		c0.2,0,0.2-0.2,0.2-0.2L138.1,70.6C138.2,70.6,138.1,70.6,138.1,70.6z M143.8,68.5l0.2,4.1c0,0.2,0,0.2-0.2,0.2h-0.4
		c-0.2,0-0.2,0-0.2-0.2v-1.8h-2.4v1.7c0,0.2,0,0.2-0.2,0.2h-0.3c-0.2,0-0.2,0-0.2-0.2v-4c0-0.2,0-0.2,0.2-0.2h0.4
		c0.2,0,0.2,0,0.2,0.2v1.5h2.4v-1.5c0-0.2,0-0.2,0.2-0.2C143.4,68.5,143.8,68.5,143.8,68.5z M147.2,68.3c1.3,0,1.5,0.6,1.5,1.5v2.3
		c0,0.4,0,0.4-0.4,0.5c-0.4,0.2-0.8,0.2-1.4,0.2c-0.5,0-1-0.1-1.4-0.4c-0.4-0.2-0.4-0.5-0.4-1c0-1,0.5-1.3,1.7-1.3
		c0.2,0,0.6,0,1.1,0.2V70c0-0.6-0.4-1.1-1.1-1.1c-0.5,0-1,0.2-1.1,0.6c0,0.2-0.2,0.2-0.2,0l-0.2-0.2c-0.2,0-0.2-0.2-0.2-0.2
		C146,68.6,146.5,68.3,147.2,68.3z M148.4,70.6h-1.1c-0.8,0-1.1,0.2-1.1,0.8c0,0.5,0.4,0.8,1.1,0.8c0.5,0,0.8,0,1-0.2
		c0.2,0,0.2-0.2,0.2-0.2L148.4,70.6C148.5,70.6,148.4,70.6,148.4,70.6z M156.3,68.5C156.4,68.5,156.4,68.5,156.3,68.5l0.2,0.4
		c0,0.2,0,0.2-0.2,0.2H155v3.4c0,0.2,0,0.2-0.2,0.2h-0.4c-0.2,0-0.2,0-0.2-0.2V69H153c-0.2,0-0.2,0-0.2-0.2v-0.2
		c0-0.2,0-0.2,0.2-0.2L156.3,68.5L156.3,68.5z M159.5,68.3c1.3,0,1.5,0.6,1.5,1.5v2.3c0,0.4,0,0.4-0.4,0.5c-0.4,0.2-0.8,0.2-1.4,0.2
		c-0.5,0-1-0.1-1.4-0.4c-0.4-0.2-0.4-0.5-0.4-1c0-1,0.5-1.3,1.7-1.3c0.2,0,0.6,0,1.1,0.2V70c0-0.6-0.4-1.1-1.1-1.1
		c-0.5,0-1,0.2-1.1,0.6c0,0.2-0.2,0.2-0.2,0l-0.2-0.2c-0.2,0-0.2-0.2-0.2-0.2C158,68.6,158.7,68.3,159.5,68.3z M160.5,70.6h-1.1
		c-0.8,0-1.1,0.2-1.1,0.8c0,0.5,0.4,0.8,1.1,0.8c0.5,0,0.8,0,1-0.2c0.2,0,0.2-0.2,0.2-0.2L160.5,70.6
		C160.6,70.6,160.5,70.6,160.5,70.6z M166.1,68.5C166.3,68.5,166.3,68.5,166.1,68.5l0.2,4.1c0,0.2,0,0.2-0.2,0.2h-0.4
		c-0.2,0-0.2,0-0.2-0.2V69h-1.7v0.9c0,1-0.2,1.7-0.4,2.1c-0.2,0.4-0.5,0.5-0.8,0.6h-0.2l-0.2-0.4v-0.2c0.2-0.2,0.4-0.2,0.5-0.4
		c0.2-0.2,0.2-0.2,0.2-0.4c0.2-0.4,0.2-0.8,0.2-1.5v-1.3c0-0.2,0-0.2,0.2-0.2C163.4,68.5,166.1,68.5,166.1,68.5z M169.6,68.3
		c1.3,0,1.5,0.6,1.5,1.5v2.3c0,0.4,0,0.4-0.4,0.5c-0.4,0.2-0.8,0.2-1.4,0.2c-0.5,0-1-0.1-1.4-0.4c-0.4-0.2-0.4-0.5-0.4-1
		c0-1,0.5-1.3,1.7-1.3c0.2,0,0.6,0,1.1,0.2V70c0-0.6-0.4-1.1-1.1-1.1c-0.5,0-1,0.2-1.1,0.6c0,0.2-0.2,0.2-0.2,0l-0.2-0.2
		c-0.2,0-0.2-0.2-0.2-0.2C168.3,68.6,168.8,68.3,169.6,68.3z M170.7,70.6h-1.1c-0.8,0-1.1,0.2-1.1,0.8c0,0.5,0.4,0.8,1.1,0.8
		c0.5,0,0.8,0,1-0.2c0.2,0,0.2-0.2,0.2-0.2L170.7,70.6C170.8,70.6,170.7,70.6,170.7,70.6z M176.4,68.5
		C176.4,68.5,176.6,68.5,176.4,68.5l0.2,4.1c0,0.2,0,0.2-0.2,0.2H176c-0.2,0-0.2,0-0.2-0.2v-1.8h-2.4v1.7c0,0.2,0,0.2-0.2,0.2h-0.4
		c-0.2,0-0.2,0-0.2-0.2v-4c0-0.2,0-0.2,0.2-0.2h0.4c0.2,0,0.2,0,0.2,0.2v1.5h2.4v-1.5c0-0.2,0-0.2,0.2-0.2
		C176.1,68.5,176.4,68.5,176.4,68.5z M181.4,68.5C181.4,68.5,181.5,68.5,181.4,68.5l0.2,0.4c0,0.2,0,0.2-0.2,0.2h-1.3v3.4
		c0,0.2,0,0.2-0.2,0.2h-0.4c-0.2,0-0.2,0-0.2-0.2V69h-1.3c-0.2,0-0.2,0-0.2-0.2v-0.2c0-0.2,0-0.2,0.2-0.2
		C178.1,68.5,181.4,68.5,181.4,68.5z M182.7,69.8c0-1,0.6-1.4,1.7-1.4c1.1,0,1.7,0.6,1.7,1.4v1.4c0,1-0.6,1.4-1.7,1.4
		c-1.1,0-1.7-0.6-1.7-1.4V69.8z M185.8,69.8c0-0.6-0.5-1-1.3-1c-0.7,0-1.3,0.4-1.3,1v1.4c0,0.6,0.5,1,1.3,1c0.7,0,1.3-0.4,1.3-1
		V69.8z M190.8,70.4c0.5,0.2,0.6,0.5,0.6,1.1c0,0.8-0.5,1.1-1.3,1.1h-2.1c-0.2,0-0.2,0-0.2-0.2v-4c0-0.2,0-0.2,0.2-0.2h2.1
		c0.8,0,1.1,0.5,1.1,1.1C191.4,69.8,191.2,70.2,190.8,70.4z M190.2,70.2c0.5,0,0.6-0.4,0.6-0.6c0-0.5-0.2-0.6-0.6-0.6h-1.5v1.3
		L190.2,70.2L190.2,70.2z M190.2,72.1c0.5,0,0.8-0.4,0.8-0.8c0-0.5-0.4-0.8-0.8-0.8h-1.5V72L190.2,72.1L190.2,72.1z"/>
	<path class="st3" d="M120.2,60.6c-0.5,0-0.8-0.4-0.6-0.6l4.8-13c0.6-0.4,1.4-0.5,2.3-0.5c0.6,0,1,0.2,1.3,0.8l5,13.3h-2.3
		c-0.5,0-0.8-0.2-1-0.5l-0.8-2.5h-5.2l-1,3L120.2,60.6L120.2,60.6z M126,49.4l-1.9,5.7h3.8L126,49.4L126,49.4z M143.2,60.6h-2.1
		c-0.5,0-0.6-0.2-0.6-0.5v-6l-4.3,6.4c-0.2,0.4-0.5,0.4-0.8,0.4c-0.5,0-1.3-0.4-1.9-0.8v-10c0.6-0.2,1.3-0.4,1.9-0.4
		c0.5,0,0.8,0.2,0.8,0.6v6.2l4.3-6.4c0.2-0.4,0.5-0.4,0.8-0.4c0.5,0,1.3,0.4,1.9,0.8V60.6L143.2,60.6z M138.4,47
		c0.6,0,1-0.5,1.1-1.5h1.3c0.5,0,0.6,0.2,0.6,0.5c-0.2,1.4-1.1,2.7-3,2.7c-1.4,0-2.7-0.8-3-2.7c0.4-0.2,1-0.5,1.4-0.5
		c0.5,0,0.6,0.2,0.6,0.5C137.4,46.8,137.9,47,138.4,47L138.4,47z M148.4,60.6c-0.5,0-0.6-0.2-0.6-0.5v-8.1h-2.9
		c-0.4,0-0.6-0.2-0.6-0.6c0-0.5,0-1,0.2-1.4h8.8c0.4,0,0.5,0.2,0.5,0.6v1.4h-3.4v8.7H148.4L148.4,60.6z M164.5,60.6h-2.1
		c-0.5,0-0.6-0.2-0.6-0.5v-6l-4.3,6.4c-0.2,0.4-0.5,0.4-0.8,0.4c-0.5,0-1.3-0.4-1.9-0.8v-10c0.6-0.2,1.3-0.4,1.9-0.4
		c0.5,0,0.8,0.2,0.8,0.6v6.2l4.3-6.4c0.2-0.4,0.5-0.4,0.8-0.4c0.5,0,1.3,0.4,1.9,0.8V60.6L164.5,60.6z M176.9,60.6h-2.1
		c-0.5,0-0.6-0.2-0.6-0.5v-8.1H171c0,1.9-0.2,3.6-0.4,5c-0.4,2.5-1.3,3.8-3.2,3.8c-1.3,0-2.3-0.5-2.3-1.1c0-0.5,0.2-0.8,0.4-1.1
		c0.4,0.2,0.6,0.2,1.1,0.2c0.8,0,1.3-0.5,1.4-1.9c0.2-2.1,0.5-4.5,0.5-6.9h7.7c0.5,0,0.6,0.2,0.6,0.5v10.4
		C177,60.6,176.9,60.6,176.9,60.6z M179.5,52.3c-0.2-0.4-0.4-0.8-0.4-1.1c0-0.6,1.7-1.5,3.8-1.5c3,0,4.6,1.4,4.6,4.3v3.6
		c0,0.8,0.4,1,0.8,1h0.5c0.2,0.4,0.2,0.6,0.2,1c0,0.5-0.6,1.1-1.7,1.1c-0.8,0-1.7-0.5-2.1-1.5c-0.6,1.1-1.7,1.7-3.2,1.7
		c-2.3,0-3.6-1.4-3.6-3.4c0-2.3,1.7-3.4,4.3-3.4c0.8,0,1.9,0.2,2.4,0.5v-0.8c0-1.3-0.8-2.1-2.7-2.1
		C181.4,51.6,180.4,51.8,179.5,52.3L179.5,52.3z M185,57.1v-1.1c-0.5-0.2-1.3-0.4-1.9-0.4c-1.3,0-2.1,0.6-2.1,1.4
		c0,1,0.8,1.4,1.7,1.4C183.6,58.7,184.5,58.1,185,57.1L185,57.1z M197.2,60.6c-0.5,0-0.6-0.2-0.6-0.5v-4h-4v4.5h-2.1
		c-0.5,0-0.6-0.2-0.6-0.5V49.9c0.6-0.2,1.3-0.4,1.9-0.4c0.5,0,0.8,0.2,0.8,0.6v3.6h4v-4.1h2.1c0.5,0,0.6,0.2,0.6,0.5v10.2h-2.1
		L197.2,60.6L197.2,60.6z M209.1,49.7c0.5,0,0.6,0.2,0.6,0.5v8.1h0.8c0.5,0,0.6,0.2,0.6,0.5v4h-2.1c-0.5,0-0.6-0.2-0.6-0.5v-1.9
		h-5.7v2.4h-2.1c-0.5,0-0.6-0.2-0.6-0.5v-4h1.1c0.8-2.5,1.3-5.4,1.4-8.6C202.5,49.7,209.1,49.7,209.1,49.7z M207.2,58.3v-6.5h-2.1
		c-0.2,2.1-0.6,4.5-1.1,6.5H207.2z M221.7,60.6h-2.1c-0.5,0-0.6-0.2-0.6-0.5v-6l-4.3,6.4c-0.2,0.4-0.5,0.4-0.8,0.4
		c-0.5,0-1.3-0.4-1.9-0.8v-10c0.6-0.2,1.3-0.4,1.9-0.4c0.5,0,0.8,0.2,0.8,0.6v6.2L219,50c0.2-0.4,0.5-0.4,0.8-0.4
		c0.5,0,1.3,0.4,1.9,0.8C221.7,50.6,221.7,60.6,221.7,60.6z M231,56.1c-0.4,0.2-1.1,0.2-1.5,0.2c-0.5,1.1-1.1,2.1-1.7,3
		c-1,1.1-1.5,1.4-2.5,1.4c-1.3,0-1.7-0.6-1.7-1.3c0-0.4,0-0.8,0.2-1h0.5c0.5,0,1-0.4,1.4-0.8c0.5-0.5,1-1.1,1.4-1.9
		c-1.7-0.6-2.9-2.3-2.9-4.5c0-3,2.3-5,5.7-5h3.8c0.5,0,0.6,0.2,0.6,0.6v13.5h-2.1c-0.5,0-0.6-0.2-0.6-0.5v-4H231V56.1z M231,48.8
		h-1.4c-1.9,0-3,1-3,2.5c0,1.7,1.1,2.5,3,2.5c0.5,0,1,0,1.4-0.2C231,53.7,231,48.8,231,48.8z"/>
</g>
<path class="st3" d="M60,14.6L60,14.6c24.9,0,45,20.1,45,45l0,0c0,24.9-20.1,45-45,45l0,0c-24.9,0-45-20.1-45-45l0,0
	C15,34.7,35.1,14.6,60,14.6z"/>
<g>
	<path class="st0" d="M66.8,57.3H52.7c-1.6,0-2.8,1.3-2.8,2.9v16c0,1.6,1.2,3.1,2.8,3.1h1.2c0,0,0,0.5,0.2,1l0.8,8.7
		c0.2,1.6,1.5,2.9,3.1,2.9h3.6c1.6,0,2.9-1.3,3.1-2.9l0.8-8.5c0-0.5,0-1,0.2-1h1.2c1.6,0,2.9-1.5,2.9-3.1V60.2
		C69.8,58.6,68.2,57.3,66.8,57.3L66.8,57.3z M56.1,77.1V59.6h7.4v17.7h-7.4C56.1,77.2,56.1,77.1,56.1,77.1z M52,76.2v-16
		c0-0.4,0.2-0.6,0.6-0.6H54v17.7h-1.3C52.2,77.1,52,76.5,52,76.2L52,76.2z M63.1,80l-0.8,8.7c0,0.5-0.5,0.8-1,0.8h-3.5
		c-0.5,0-0.8-0.5-1-1L56.1,80c0-0.4,0-0.8-0.2-0.8h7.2C63.4,79.4,63.1,79.6,63.1,80z M67.6,76.2c0,0.4-0.5,0.8-0.8,0.8h-1V59.6h1
		c0.4,0,0.8,0.4,0.8,0.6V76.2L67.6,76.2z"/>
	<path class="st4" d="M60.2,38.2c-0.6,0-1.2-0.4-1.2-1.1c0,0,0,0,0-0.1v-8.3c0-0.6,0.5-1.2,1.2-1.2s1,0.5,1,1.2v8.5
		C61.1,37.6,60.7,38.2,60.2,38.2z"/>
	<path class="st5" d="M78.8,49.3h-8.5c-0.6,0-1.2-0.4-1.2-1.1c0,0,0,0,0-0.1c0-0.6,0.5-1.2,1.2-1.2h8.5c0.6,0,1.2,0.5,1.2,1.2
		C80,48.7,79.5,49.3,78.8,49.3z"/>
	<path class="st6" d="M49.4,49.3h-8.3c-0.6,0-1.2-0.4-1.2-1.1c0,0,0,0,0-0.1c0-0.6,0.5-1.2,1.2-1.2h8.5c0.6,0,1.2,0.5,1.2,1.2
		C50.7,48.7,50,49.3,49.4,49.3z"/>
	<path class="st7" d="M52.4,41.4c-0.4,0-0.5-0.2-0.8-0.4l-6-6c-0.4-0.5-0.4-1.2,0-1.7s1.2-0.5,1.6,0l5.9,5.9c0.5,0.5,0.5,1.2,0,1.6
		C53,41.2,52.7,41.4,52.4,41.4L52.4,41.4z"/>
	<path class="st8" d="M67.6,41.4c-0.4,0-0.5-0.2-0.8-0.4c-0.5-0.5-0.5-1.2,0-1.6l5.9-5.9c0.5-0.5,1.2-0.5,1.6,0
		c0.4,0.5,0.5,1.2,0,1.6l-5.9,5.9C68.1,41.3,67.8,41.4,67.6,41.4z"/>
	<path class="st0" d="M60,54.1c-3.6,0-6.4-2.9-6.4-6.4s2.9-6.4,6.4-6.4c3.5,0,6.4,2.9,6.4,6.4S63.7,54.1,60,54.1L60,54.1z M60,43.7
		c-2.3,0-4.3,2-4.3,4.3s2,4.3,4.3,4.3s4.3-2,4.3-4.3S62.5,43.7,60,43.7z"/>
</g>
</svg>
