<?xml version="1.0" encoding="utf-8"?>
<!-- Generator: Adobe Illustrator 28.0.0, SVG Export Plug-In . SVG Version: 6.00 Build 0)  -->
<svg version="1.1" id="Слой_1" xmlns="http://www.w3.org/2000/svg" xmlns:xlink="http://www.w3.org/1999/xlink" x="0px" y="0px"
	 viewBox="0 0 247.4 119.4" style="enable-background:new 0 0 247.4 119.4;" xml:space="preserve">
<style type="text/css">
	.st0{fill:#3A1A43;}
	.st1{fill:none;stroke:#010101;stroke-width:2;}
	.st2{fill:#FFFFFF;}
</style>
<g>
	<path class="st0" d="M58.2,2.7h131c30.4,0,55,24.6,55,55v4c0,30.4-24.6,55-55,55h-131c-30.4,0-55-24.6-55-55v-4
		C3.2,27.3,27.8,2.7,58.2,2.7z"/>
	<path class="st1" d="M58.2,2.7h131c30.4,0,55,24.6,55,55v4c0,30.4-24.6,55-55,55h-131c-30.4,0-55-24.6-55-55v-4
		C3.2,27.3,27.8,2.7,58.2,2.7z"/>
	<path class="st2" d="M56.9,14.2L56.9,14.2c24.9,0,45,20.1,45,45l0,0c0,24.9-20.1,45-45,45l0,0c-24.9,0-45-20.1-45-45l0,0
		C11.9,34.3,32,14.2,56.9,14.2z"/>
</g>
<g>
	<g>
		<path class="st2" d="M113.7,50.7v-16h1.7v9.9h0.2c0.5,0,1-0.2,1.4-0.5c0.5-0.4,1-1,1.5-2l1.1-2.2h2l-1.4,2.4
			c-0.6,0.9-1,1.6-1.3,1.9c-0.3,0.4-0.7,0.7-1.1,0.8c0.7,0.2,1.4,0.9,2.1,2.2l1.8,3.4h-1.9l-1.2-2.3c-0.5-0.9-0.9-1.6-1.3-1.9
			s-0.9-0.5-1.6-0.5h-0.4v4.7L113.7,50.7L113.7,50.7z"/>
		<path class="st2" d="M129.2,37.1c0-0.7,0.5-1.3,1.3-1.3s1.3,0.6,1.3,1.3c0,0.8-0.5,1.3-1.3,1.3C129.7,38.5,129.2,37.9,129.2,37.1z
			 M131.4,50.7h-1.7V39.9h1.7V50.7z"/>
		<path class="st2" d="M144.3,50.7h-2l-3.2-10.8h1.8l1.5,5.3c0,0.1,0.2,0.7,0.5,1.6c0.2,0.9,0.4,1.6,0.5,2c0.2-0.8,0.5-2,1-3.7
			l1.4-5.2h1.5l1.5,5.3c0.4,1.5,0.8,2.7,1,3.6c0-0.2,0.4-1.5,1-3.7l1.5-5.2h1.7l-3.2,10.8h-2l-1.6-5.4c-0.3-1.2-0.6-2.1-0.6-2.6
			c-0.1,0.6-0.3,1.4-0.6,2.6L144.3,50.7z"/>
		<path class="st2" d="M161.2,37.1c0-0.7,0.5-1.3,1.3-1.3s1.3,0.6,1.3,1.3c0,0.8-0.5,1.3-1.3,1.3C161.7,38.5,161.2,37.9,161.2,37.1z
			 M163.4,50.7h-1.7V39.9h1.7V50.7z"/>
	</g>
	<g>
		<g>
			<path class="st2" d="M112.6,70.2v-1.5h2.1v-1.9c0-1,0.2-1.8,0.6-2.3c0.5-0.6,1.3-1,2.4-1c0.8,0,1.6,0.2,2.3,0.5l-0.5,1.4
				c-0.7-0.3-1.2-0.4-1.6-0.4c-0.5,0-0.8,0.2-1.1,0.5c-0.2,0.3-0.3,0.7-0.3,1.4v1.9h3.4v1.5h-3.4v9.3h-1.7v-9.3L112.6,70.2
				L112.6,70.2z"/>
			<path class="st2" d="M134.1,79.4v-1.6c-0.7,1.2-1.8,1.8-3.2,1.8c-1.2,0-2.4-0.5-3-1.4c-0.5-0.7-0.7-2-0.7-3.8v-5.8h1.7v5.6
				c0,1.5,0.1,2.5,0.5,3c0.4,0.6,1,1,1.8,1s1.5-0.3,2-1c0.6-0.8,0.9-2,0.9-3.8v-4.8h1.7v10.8C135.8,79.3,134.1,79.3,134.1,79.4z"/>
			<path class="st2" d="M146.1,68.7v1.6c0.3-0.5,0.6-0.9,1-1.1c0.6-0.4,1.3-0.7,2.2-0.7c1.1,0,1.9,0.3,2.6,1
				c0.8,0.8,1.1,2.1,1.1,4.1v6h-1.7v-5.7c0-1.5-0.2-2.6-0.7-3.2c-0.4-0.5-0.9-0.7-1.6-0.7c-0.8,0-1.5,0.3-2,1
				c-0.6,0.8-0.9,2-0.9,3.8v4.8h-1.7V68.7H146.1z"/>
			<path class="st2" d="M168.7,79.4v-1.6c-0.4,0.7-0.9,1.1-1.5,1.4c-0.5,0.2-1,0.3-1.6,0.4c-3.1,0.1-4.5-2.8-4.5-5.6
				c0-1.6,0.4-2.9,1.2-4s2-1.7,3.5-1.6c1.4,0,2.4,0.6,2.9,1.6v-6.6h1.7v16C170.4,79.4,168.7,79.4,168.7,79.4z M165.8,69.9
				c-1,0-1.7,0.4-2.2,1.2s-0.7,1.8-0.7,2.9c0,1.4,0.2,2.6,1.2,3.5c0.5,0.5,1,0.7,1.7,0.7c1.1,0,1.9-0.6,2.3-1.4s0.6-1.7,0.6-2.8
				C168.8,72.1,167.9,70,165.8,69.9z"/>
			<path class="st2" d="M185.3,78.2c-0.8,1-2,1.5-3.4,1.5c-0.9,0-1.6-0.2-2.2-0.5c-0.9-0.6-1.3-1.4-1.3-2.5s0.5-2,1.2-2.5
				c0.8-0.5,1.5-0.7,2.5-0.8c1.8-0.2,2.8-0.3,3-0.4c0-0.8,0-1.2,0-1.3c-0.1-0.5-0.3-0.9-0.6-1.1c-0.4-0.4-1-0.6-1.8-0.6
				c-0.7,0-1.2,0.2-1.6,0.6c-0.4,0.3-0.7,0.8-0.8,1.3l-1.6-0.4c0.2-1,0.7-1.8,1.5-2.3s1.6-0.8,2.7-0.8c1.6,0,2.7,0.5,3.4,1.5
				c0.3,0.5,0.5,1.3,0.5,1.7c0,0.2,0,0.5,0,1v2.4c0,2.4,0.1,3.9,0.4,4.5h-1.8C185.5,79.1,185.4,78.7,185.3,78.2L185.3,78.2z
				 M185.2,74.3c-0.3,0.1-0.8,0.2-1.5,0.2c-0.7,0.1-1.2,0.1-1.5,0.2c-1,0.2-2,0.5-2,1.8c0,1.1,0.8,1.7,1.8,1.7s1.8-0.4,2.4-1.1
				c0.5-0.6,0.7-1.4,0.7-2.5v-0.3H185.2z"/>
			<path class="st2" d="M203.9,76.9c-0.6,1.8-2.2,2.7-4.1,2.7c-1.7,0-2.9-0.6-3.7-1.9c-0.7-1-1-2.3-1-3.8c0-1.6,0.4-2.9,1.2-4
				c0.8-1,1.9-1.6,3.5-1.6c1.9,0,3.3,1,4,2.7l-1.5,0.7c-0.5-1.3-1.3-2-2.5-2c-0.9,0-1.7,0.4-2.2,1.1s-0.8,1.7-0.8,3
				c0,1.1,0.2,2,0.6,2.7c0.6,1,1.4,1.4,2.4,1.4c1.3,0,2.2-0.6,2.6-1.9L203.9,76.9z"/>
			<path class="st2" d="M214,68.7v12.7c0,2.2-0.9,3.3-2.9,3.4c-0.8,0-1.5-0.2-2.2-0.6l0.4-1.4c0.6,0.3,1.1,0.4,1.6,0.4
				s0.9-0.2,1.1-0.5c0.2-0.3,0.3-0.8,0.3-1.6V68.7H214z M211.8,65.9c0-0.7,0.5-1.3,1.3-1.3s1.3,0.6,1.3,1.3c0,0.8-0.5,1.3-1.3,1.3
				C212.3,67.2,211.8,66.7,211.8,65.9z"/>
			<path class="st2" d="M229.3,78.2c-0.8,1-2,1.5-3.4,1.5c-0.9,0-1.6-0.2-2.2-0.5c-0.9-0.6-1.3-1.4-1.3-2.5s0.5-2,1.2-2.5
				c0.8-0.5,1.5-0.7,2.5-0.8c1.8-0.2,2.8-0.3,3-0.4c0-0.8,0-1.2,0-1.3c-0.1-0.5-0.3-0.9-0.6-1.1c-0.4-0.4-1-0.6-1.8-0.6
				c-0.7,0-1.2,0.2-1.6,0.6c-0.4,0.3-0.7,0.8-0.8,1.3l-1.6-0.4c0.2-1,0.7-1.8,1.5-2.3s1.6-0.8,2.7-0.8c1.6,0,2.7,0.5,3.4,1.5
				c0.3,0.5,0.5,1.3,0.5,1.7c0,0.2,0,0.5,0,1v2.4c0,2.4,0.1,3.9,0.4,4.5h-1.8C229.4,79.1,229.3,78.7,229.3,78.2L229.3,78.2z
				 M229.2,74.3c-0.3,0.1-0.8,0.2-1.5,0.2c-0.7,0.1-1.2,0.1-1.5,0.2c-1,0.2-2,0.5-2,1.8c0,1.1,0.8,1.7,1.8,1.7s1.8-0.4,2.4-1.1
				c0.5-0.6,0.7-1.4,0.7-2.5v-0.3H229.2z"/>
		</g>
	</g>
</g>
<g>
	
		<text transform="matrix(1 0 0 1 109.231 -52.6336)" class="st2" style="font-family:'AKsans-Regular'; font-size:21.0155px; letter-spacing:4;">kiwi</text>
	<g>
		
			<text transform="matrix(1 0 0 1 109.231 -29.3036)" class="st2" style="font-family:'AKsans-Regular'; font-size:21.0155px; letter-spacing:4;">fundacja</text>
	</g>
</g>
<path class="st0" d="M66.6,64.2c0-0.1-0.2,1.1,0.7-3.1c1.1-5.2,2.3-10.4,3.5-15.6c0.3-1.4,0.8-2.7,1.4-4.1c0.6-1.6,1.8-2.7,3.5-3.1
	c0.4,0,1.1,0,1.8,0.4c0.5,0.3,1,0.6,1.6,1.8c0.9,1.8,1,3.5,1,3.7c0.3,5.3-0.3,10.4-1.3,15.6c-1,5.4-2.2,10.6-3.4,15.9
	c-0.9,5.5-4.1,9.4-8.5,12.4c-6.1,4.2-15.6,4.3-21.7-1.5c-2.6-2.4-4.3-5.5-5.7-8.9c-3.1-7.3-4.9-15.1-6.4-22.8
	c-0.6-3.3-1.3-6.8-1.1-10.2c0-0.6-0.1-1.8,0.7-2.8c0.9-1.1,2.5-1.3,3.1-1.4c0.5-0.1,1.2-0.1,1.9,0.3c2,0.8,2.7,3.4,3.2,5.4
	c0,0,2.4,6.5,5,13.4c0.8,2.1,1.7,4.3,2.5,6.4c0,0,0.4,1,1.1,1.6c0,0,0.1,0.1,0.2,0.1c0.2,0.1,0.5-0.1,0.6-0.2s0.3-0.4,0.4-0.6
	c0.3-0.6,0.2-1.1,0.1-1.3c-0.2-1.3,0-2.6-0.1-3.8c-0.2-1.6-0.1-1.8-0.1-4.8c-0.3-16.1-0.4-19.5-0.4-19.5c0-0.4,0-1.8,0.5-3.7
	c0.6-2.6,2.2-4.3,4.7-5.3c3.1,0.2,4.7,2.1,5.4,4.8c0.9,3.8,1.8,7.6,2.1,11.5c0.2,1.8,0.4,3.7,0.6,5.5c0.6,6.5-0.3,10.2,1.3,16.1
	c0.1,0.2,0.1,0.4,0.1,0.5c0.1,0,0.2,0.1,0.4,0.1c0,0,0.2,0,0.5,0C66.3,66.9,66.5,64.7,66.6,64.2z M75.6,43.5
	C74.9,46,74,48.5,73.4,51c-1.4,5.5-2.7,11.1-4.1,16.6c-0.4,1.6-1.2,3-2.9,3.8c-0.2,0.1-0.6,0.3-1.1,0.3c-0.6,0-1-0.2-1.2-0.3
	c-0.4-0.1-0.8-0.3-1.3-0.6c-0.3-0.3-0.6-0.6-1-1.7c-0.5-1.4-0.6-2.4-0.6-2.4c-0.4-3.5-0.7-7-1.1-10.5c-0.5-4.7-0.7-9.5-1.3-14.2
	c-0.3-2.4-0.8-4.9-1.5-7.3c-0.1-0.3-0.1-1.1-0.6-1.6c-0.5-0.4-1-0.5-1.3-0.5c-0.2,0.2-0.5,0.5-0.6,0.9c-0.2,0.5-0.3,0.9-0.3,1.1
	C53.7,42.3,54,44.9,54,44.9c0,7,0.4,14.1,0.4,21.2c0,0.6,0,2.1-0.9,3.4c-0.8,1.2-2.1,1.8-3,2.1c-0.6,0.1-1.4,0.1-2.3-0.4
	c-1.4-0.6-1.9-1.8-2.4-2.7c-1.1-2.1-2-4.3-2.8-6.6c-1.8-4.7-3.4-9.5-5.2-14.2c-0.4-1-1.1-1.9-1.7-2.9c-0.1-0.1-0.3-0.1-0.4-0.1
	c-0.3,0.1-0.3,0.3-0.3,0.3c0.1,0.6,0.2,1.2,0.3,2c0.1,0.6,0.2,1.4,0.3,2c1.1,9,3.3,17.6,6.4,26.1c1.3,3.4,3,6.7,5.7,9.2
	c4.1,3.7,13,3.3,17,0.6C69,82.6,71,79,72.1,74.6c3.1-12.6,3.1-20.4,4.4-24.7c0.2-0.6,0.9-2.9,0.8-5.8c0-0.6-0.1-1-0.1-1.3
	c0-0.1-0.3-0.4-0.6-0.5c-0.5-0.1-0.7,0.1-0.8,0.1C75.8,42.7,75.7,43.1,75.6,43.5z"/>
<path d="M-18.6,188.6"/>
</svg>
