<?xml version="1.0" encoding="utf-8"?>
<!-- Generator: Adobe Illustrator 28.0.0, SVG Export Plug-In . SVG Version: 6.00 Build 0)  -->
<svg version="1.1" id="Слой_1" xmlns="http://www.w3.org/2000/svg" xmlns:xlink="http://www.w3.org/1999/xlink" x="0px" y="0px"
	 viewBox="0 0 247.4 119.4" style="enable-background:new 0 0 247.4 119.4;" xml:space="preserve">
<style type="text/css">
	.st0{fill:#EA1818;}
	.st1{fill:none;stroke:#010101;stroke-width:2;}
	.st2{fill:#FFFFFF;}
	.st3{fill:#FBBA00;}
	.st4{fill:#E30613;}
</style>
<g>
	<path class="st0" d="M58.2,2.7h131c30.4,0,55,24.6,55,55v4c0,30.4-24.6,55-55,55h-131c-30.4,0-55-24.6-55-55v-4
		C3.2,27.3,27.8,2.7,58.2,2.7z"/>
	<path class="st1" d="M58.2,2.7h131c30.4,0,55,24.6,55,55v4c0,30.4-24.6,55-55,55h-131c-30.4,0-55-24.6-55-55v-4
		C3.2,27.3,27.8,2.7,58.2,2.7z"/>
	<path class="st2" d="M56.9,14.2L56.9,14.2c24.9,0,45,20.1,45,45l0,0c0,24.9-20.1,45-45,45l0,0c-24.9,0-45-20.1-45-45l0,0
		C11.9,34.3,32,14.2,56.9,14.2z"/>
</g>
<g>
	<path class="st3" d="M55.1,55.8l-9.9,10l-6.1-6.1l6-6.1l1.8,1.8c0.4,0.4,1,0.7,1.7,0.7c0.6,0,1.2-0.3,1.7-0.7l2.6-2.6
		c0.9-0.9,0.9-2.4,0-3.3l-6-6c-0.4-0.4-1-0.7-1.7-0.7s-1.2,0.3-1.7,0.7L29,58.1c-0.9,0.9-0.9,2.4,0,3.3L43.5,76
		c0.4,0.4,1,0.7,1.7,0.7s1.2-0.3,1.7-0.7l12.4-12.5l1.7-1.7L55.1,55.8z"/>
	<path class="st4" d="M85.3,61.4L70.8,76c-0.4,0.4-1,0.7-1.7,0.7c-0.6,0-1.2-0.3-1.7-0.7l-6.1-6.1c-0.9-0.9-0.9-2.4,0-3.3l2.6-2.6
		c0.4-0.4,1-0.7,1.7-0.7c0.6,0,1.2,0.3,1.7,0.7l1.7,1.7l0.1,0.1l6.1-6.1l-6.1-6.1l-9,9L60,62.7c-0.8,0.7-1.8,1.1-2.8,1.1
		c-1.1,0-2.2-0.4-3-1.2s-1.2-1.8-1.2-3c0-1.1,0.4-2.1,1.1-2.8l0.1-0.1l0,0l0,0l13.2-13.2c0.4-0.4,1-0.7,1.7-0.7
		c0.6,0,1.2,0.3,1.7,0.7l14.5,14.6C86.2,59,86.2,60.5,85.3,61.4z"/>
</g>
<g>
	<path class="st2" d="M141.1,48.3c-1.4-1.3-3.1-2-5.4-2c-2.2,0-4,0.7-5.4,2.1c-1.4,1.4-2.1,3.1-2.1,5.2c0,2.2,0.7,3.9,2.1,5.3
		c1.4,1.3,3.2,2,5.4,2s3.9-0.7,5.3-2c0.7-0.7,1.3-1.5,1.6-2.3c0.3-0.9,0.5-1.8,0.5-2.9C143.2,51.3,142.5,49.6,141.1,48.3z
		 M138.8,56.7c-0.8,0.8-1.8,1.2-3.1,1.2c-1.2,0-2.2-0.4-3.1-1.3c-0.8-0.9-1.2-1.9-1.2-3.2c0-1.3,0.4-2.4,1.2-3.2
		c0.8-0.8,1.8-1.2,3-1.2c1.2,0,2.2,0.4,3,1.2c0.8,0.8,1.2,1.9,1.2,3.2C139.9,54.8,139.6,55.9,138.8,56.7z"/>
	<path class="st2" d="M152.5,52.6h-4v-3.2h4.6c0.2,0,0.4-0.2,0.4-0.4v-2c0-0.2-0.2-0.4-0.4-0.4h-7.2c-0.2,0-0.4,0.2-0.4,0.4v13.2
		c0,0.2,0.2,0.4,0.4,0.4h2.2c0.2,0,0.4-0.2,0.4-0.4v-4.7h4c0.2,0,0.4-0.2,0.4-0.4v-2C152.9,52.8,152.7,52.6,152.5,52.6z"/>
	<path class="st2" d="M159.2,49.4v10.8c0,0.2,0.2,0.4,0.4,0.4h2.2c0.2,0,0.4-0.2,0.4-0.4V49.4h3.9c0.2,0,0.4-0.2,0.4-0.4v-2
		c0-0.2-0.2-0.4-0.4-0.4h-10.8c-0.2,0-0.4,0.2-0.4,0.4v2c0,0.2,0.2,0.4,0.4,0.4H159.2L159.2,49.4z"/>
	<path class="st2" d="M171.8,54.8c0.7,0.3,1.2,0.7,1.6,1c0.3,0.3,0.6,0.6,0.6,1s-0.1,0.7-0.4,0.9c-0.3,0.2-0.6,0.3-1,0.3
		c-0.6,0-1.1-0.1-1.7-0.4c-0.4-0.2-0.8-0.4-1-0.7c-0.2-0.2-0.4-0.1-0.6,0l-1.3,1.5c-0.1,0.1-0.1,0.3,0,0.5c0.3,0.6,0.9,1,1.7,1.3
		c0.9,0.4,1.9,0.6,2.9,0.6c1.4,0,2.5-0.4,3.4-1.2c0.8-0.6,1.3-1.4,1.3-2.4c0.1-1-0.1-1.7-0.4-2.4c-0.3-0.6-0.6-1-1-1.3
		c-0.4-0.3-0.9-0.6-1.4-0.9c-0.5-0.3-1-0.5-1.4-0.7c-0.4-0.2-0.8-0.4-1.1-0.7c-0.3-0.3-0.5-0.6-0.5-1c0-0.3,0.1-0.6,0.4-0.8
		c0.3-0.2,0.7-0.3,1.1-0.3c0.5,0,0.8,0.1,1.2,0.2c0.2,0.1,0.4,0.2,0.6,0.4c0.2,0.1,0.4,0.1,0.6-0.1l1.2-1.6c0.1-0.2,0.1-0.4-0.1-0.5
		c-0.9-0.8-2.2-1.2-3.8-1.2c-1.4,0-2.4,0.4-3.3,1.2c-0.8,0.8-1.2,1.7-1.2,2.8c0,0.5,0.1,1,0.2,1.4c0.2,0.4,0.4,0.8,0.6,1.1
		c0.2,0.3,0.5,0.6,0.9,0.8c0.4,0.3,0.7,0.5,1,0.6C171.1,54.4,171.4,54.6,171.8,54.8z"/>
	<path class="st2" d="M185.5,60.3l2.9-9.1l2.9,9.1c0.1,0.2,0.2,0.3,0.4,0.3h2.4c0.2,0,0.3-0.1,0.4-0.3l3.7-13.2
		c0.1-0.3-0.1-0.5-0.4-0.5h-2.1c-0.2,0-0.3,0.1-0.4,0.3l-2.4,9l-2.7-9c-0.1-0.2-0.2-0.3-0.4-0.3h-2.5c-0.2,0-0.3,0.1-0.4,0.3l-2.6,9
		l-2.4-9c-0.1-0.2-0.2-0.3-0.4-0.3h-2.6c-0.3,0-0.5,0.3-0.4,0.5l3.9,13.2c0.1,0.2,0.2,0.3,0.4,0.3h2.4
		C185.3,60.6,185.5,60.4,185.5,60.3z"/>
	<path class="st2" d="M200.9,60.6h2.2c0.2,0,0.4-0.2,0.4-0.4V46.9c0-0.2-0.2-0.4-0.4-0.4h-2.2c-0.2,0-0.4,0.2-0.4,0.4v13.2
		C200.5,60.4,200.7,60.6,200.9,60.6z"/>
	<path class="st2" d="M210.2,54.8c0.7,0.3,1.2,0.7,1.6,1c0.3,0.3,0.6,0.6,0.6,1s-0.1,0.7-0.4,0.9c-0.3,0.2-0.6,0.3-1,0.3
		c-0.6,0-1.1-0.1-1.7-0.4c-0.4-0.2-0.8-0.4-1-0.7c-0.2-0.2-0.4-0.1-0.6,0l-1.3,1.5c-0.1,0.1-0.1,0.3,0,0.5c0.3,0.6,0.9,1,1.7,1.3
		c0.9,0.4,1.9,0.6,2.9,0.6c1.4,0,2.5-0.4,3.4-1.2l0.1-0.1c0.8-0.7,1.2-1.7,1.2-2.7c0-0.7-0.1-1.4-0.4-1.9c-0.3-0.6-0.6-1-1-1.3
		c-0.4-0.3-0.9-0.6-1.4-0.9s-1-0.5-1.4-0.7c-0.4-0.2-0.8-0.4-1.1-0.7c-0.3-0.3-0.5-0.6-0.5-1c0-0.3,0.1-0.6,0.4-0.8
		c0.3-0.2,0.7-0.3,1.1-0.3c0.5,0,0.8,0.1,1.2,0.2c0.2,0.1,0.4,0.2,0.6,0.4c0.2,0.1,0.4,0.1,0.6-0.1l1.2-1.6c0.1-0.2,0.1-0.4-0.1-0.5
		c-0.9-0.8-2.2-1.2-3.8-1.2c-1.4,0-2.4,0.4-3.3,1.2c-0.8,0.8-1.2,1.7-1.2,2.8c0,0.5,0.1,1,0.2,1.4c0.2,0.4,0.4,0.8,0.6,1.1
		c0.2,0.3,0.5,0.6,0.9,0.8c0.4,0.3,0.7,0.5,1,0.6C209.4,54.4,209.7,54.6,210.2,54.8z"/>
	<path class="st2" d="M220.9,54.8c0.7,0.3,1.2,0.7,1.6,1c0.3,0.3,0.6,0.6,0.6,1s-0.1,0.7-0.4,0.9c-0.3,0.2-0.6,0.3-1,0.3
		c-0.6,0-1.1-0.1-1.7-0.4c-0.4-0.2-0.8-0.4-1-0.7c-0.2-0.2-0.4-0.1-0.6,0l-1.3,1.5c-0.1,0.1-0.1,0.3,0,0.5c0.3,0.6,0.9,1,1.7,1.3
		c0.9,0.4,1.9,0.6,2.9,0.6c1.4,0,2.5-0.4,3.4-1.2l0.1-0.1c0.8-0.7,1.2-1.7,1.2-2.7c0-0.7-0.1-1.4-0.4-1.9c-0.3-0.6-0.6-1-1-1.3
		c-0.4-0.3-0.9-0.6-1.4-0.9s-1-0.5-1.4-0.7c-0.4-0.2-0.8-0.4-1.1-0.7c-0.3-0.3-0.5-0.6-0.5-1c0-0.3,0.1-0.6,0.4-0.8
		c0.3-0.2,0.7-0.3,1.1-0.3c0.5,0,0.8,0.1,1.2,0.2c0.2,0.1,0.4,0.2,0.6,0.4c0.2,0.1,0.4,0.1,0.6-0.1l1.2-1.6c0.1-0.2,0.1-0.4-0.1-0.5
		c-0.9-0.8-2.2-1.2-3.8-1.2c-1.4,0-2.4,0.4-3.3,1.2c-0.8,0.8-1.2,1.7-1.2,2.8c0,0.5,0.1,1,0.2,1.4c0.2,0.4,0.4,0.8,0.6,1.1
		c0.2,0.3,0.5,0.6,0.9,0.8c0.4,0.3,0.7,0.5,1,0.6C220.1,54.4,220.5,54.6,220.9,54.8z"/>
	<path class="st2" d="M121.1,54.8c0.7,0.3,1.2,0.7,1.6,1c0.3,0.3,0.6,0.6,0.6,1s-0.1,0.7-0.4,0.9c-0.3,0.2-0.6,0.3-1,0.3
		c-0.6,0-1.1-0.1-1.7-0.4c-0.4-0.2-0.8-0.4-1-0.7c-0.2-0.2-0.4-0.1-0.6,0l-1.3,1.5c-0.1,0.1-0.1,0.3,0,0.5c0.3,0.6,0.9,1,1.7,1.3
		c0.9,0.4,1.9,0.6,2.9,0.6c1.4,0,2.5-0.4,3.4-1.2l0.1-0.1c0.8-0.7,1.2-1.7,1.3-2.8c0-0.7-0.1-1.4-0.4-1.9c-0.3-0.6-0.6-1-1-1.3
		c-0.4-0.3-0.9-0.6-1.4-0.9s-1-0.5-1.4-0.7c-0.4-0.2-0.8-0.4-1.1-0.7c-0.3-0.3-0.5-0.6-0.5-1c0-0.3,0.1-0.6,0.4-0.8
		c0.3-0.2,0.7-0.3,1.1-0.3c0.5,0,0.8,0.1,1.2,0.2c0.2,0.1,0.4,0.2,0.6,0.4c0.2,0.1,0.4,0.1,0.6-0.1L126,48c0.1-0.2,0.1-0.4-0.1-0.5
		c-0.9-0.8-2.2-1.2-3.8-1.2c-1.4,0-2.4,0.4-3.3,1.2c-0.8,0.8-1.2,1.7-1.2,2.8c0,0.5,0.1,1,0.2,1.4c0.2,0.4,0.4,0.8,0.6,1.1
		c0.2,0.3,0.5,0.6,0.9,0.8c0.4,0.3,0.7,0.5,1,0.6C120.3,54.4,120.7,54.6,121.1,54.8z"/>
	<path class="st2" d="M124.5,66.8h1.3l-1.7,6.1h-1.3l-1.3-3.9l-1.3,3.9h-1.3l-1.8-6.1h1.6l1,3.9l1.1-3.9h1.4l1.2,3.8L124.5,66.8z"/>
	<path class="st2" d="M128.2,72.8h-1.4v-6.1h1.4V72.8z"/>
	<path class="st2" d="M135.3,66.8v6.1h-1.1l-2.9-3.7v3.7H130v-6.1h1.1l2.9,3.7v-3.7H135.3z"/>
	<path class="st2" d="M142.3,66.8v6.1h-1.1l-2.9-3.7v3.7H137v-6.1h1.1l2.9,3.7v-3.7H142.3z"/>
	<path class="st2" d="M145.5,72.8h-1.4v-6.1h1.4V72.8z"/>
	<path class="st2" d="M152.5,66.8v6.1h-1.1l-2.9-3.7v3.7h-1.3v-6.1h1.1l2.9,3.7v-3.7H152.5z"/>
	<path class="st2" d="M158,70.6h-1.3v-1.3h2.6V72c-0.3,0.3-0.6,0.5-1,0.6s-0.8,0.2-1.3,0.2c-1,0-1.8-0.3-2.4-0.8
		c-0.6-0.6-0.9-1.3-0.9-2.3c0-0.9,0.3-1.7,0.8-2.2c0.6-0.6,1.3-0.9,2.2-0.9c0.8,0,1.5,0.2,2,0.6l-0.6,1.1c-0.1-0.1-0.3-0.2-0.5-0.3
		c-0.2-0.1-0.5-0.1-0.7-0.1c-0.6,0-1,0.2-1.3,0.5s-0.5,0.8-0.5,1.4s0.2,1,0.5,1.3c0.3,0.4,0.8,0.5,1.3,0.5c0.2,0,0.3,0,0.6-0.1
		c0.2-0.1,0.3-0.1,0.4-0.2L158,70.6L158,70.6z"/>
	<path class="st2" d="M166.7,71.1l0.5,1c-0.2,0.2-0.5,0.4-0.8,0.5s-0.8,0.2-1.2,0.2c-1,0-1.7-0.3-2.3-0.9s-0.9-1.4-0.9-2.3
		s0.3-1.7,0.8-2.3c0.6-0.6,1.3-0.9,2.4-0.9c0.4,0,0.8,0.1,1.1,0.2s0.6,0.3,0.8,0.5l-0.6,1c-0.4-0.3-0.8-0.4-1.3-0.4
		s-0.9,0.2-1.2,0.5s-0.5,0.8-0.5,1.4c0,0.5,0.2,1,0.5,1.3s0.8,0.5,1.3,0.5C165.9,71.6,166.3,71.4,166.7,71.1z"/>
	<path class="st2" d="M167.6,69.8c0-0.9,0.3-1.7,0.9-2.2c0.6-0.6,1.4-0.9,2.4-0.9s1.7,0.3,2.3,0.9s0.9,1.3,0.9,2.3
		c0,0.9-0.3,1.7-0.9,2.3c-0.6,0.6-1.4,0.9-2.3,0.9c-1,0-1.7-0.3-2.3-0.9C167.9,71.4,167.6,70.8,167.6,69.8z M169.1,69.8
		c0,0.5,0.2,1,0.5,1.3c0.3,0.4,0.8,0.5,1.3,0.5c0.6,0,1-0.2,1.3-0.5c0.3-0.4,0.5-0.8,0.5-1.3c0-0.6-0.2-1-0.5-1.3
		c-0.3-0.4-0.8-0.5-1.3-0.5s-0.9,0.2-1.3,0.5C169.3,68.8,169.1,69.2,169.1,69.8z"/>
	<path class="st2" d="M176.7,72.8h-1.4v-6.1h1.4l1.9,2.6l1.8-2.6h1.3v6.1h-1.4v-3.9l-1.7,2.4h-0.2l-1.7-2.4L176.7,72.8L176.7,72.8z"
		/>
	<path class="st2" d="M183.4,72.8v-6.1c0.7,0,1.3-0.1,1.9-0.1c0.7,0,1.2,0.1,1.5,0.4s0.5,0.6,0.5,1.1c0,0.6-0.2,1-0.7,1.4l0,0
		c0.3,0.1,0.5,0.3,0.6,0.5s0.2,0.5,0.2,0.9c0,0.6-0.2,1.1-0.6,1.4c-0.4,0.3-1,0.5-1.7,0.5C184.4,72.8,183.8,72.8,183.4,72.8z
		 M185.3,67.9c-0.1,0-0.3,0-0.4,0V69h0.5c0.4,0,0.6-0.2,0.6-0.6c0-0.2-0.1-0.3-0.2-0.4C185.6,68,185.4,67.9,185.3,67.9z M185.3,70.3
		h-0.6v1.1c0.1,0,0.3,0.1,0.5,0.1c0.6,0,0.8-0.2,0.8-0.6C186.1,70.5,185.8,70.3,185.3,70.3z"/>
	<path class="st2" d="M190.4,72.8H189v-6.1h1.4V72.8z"/>
	<path class="st2" d="M197.5,66.8v6.1h-1.1l-2.9-3.7v3.7h-1.3v-6.1h1.1l2.9,3.7v-3.7H197.5z"/>
	<path class="st2" d="M199.7,72.8h-1.4l2.5-6.1h1.3l2.5,6.1h-1.4l-0.5-1.3h-2.4L199.7,72.8z M202.2,70.2l-0.7-1.7l-0.7,1.7H202.2z"
		/>
	<path class="st2" d="M206.2,68h-1.8v-1.3h5.1V68h-1.8v4.8h-1.5V68L206.2,68z"/>
	<path class="st2" d="M211.9,72.8h-1.4v-6.1h1.4V72.8z"/>
	<path class="st2" d="M213.2,69.8c0-0.9,0.3-1.7,0.9-2.2c0.6-0.6,1.4-0.9,2.4-0.9s1.7,0.3,2.3,0.9s0.9,1.3,0.9,2.3
		c0,0.9-0.3,1.7-0.9,2.3c-0.6,0.6-1.4,0.9-2.3,0.9c-1,0-1.7-0.3-2.3-0.9C213.5,71.4,213.2,70.8,213.2,69.8z M214.7,69.8
		c0,0.5,0.2,1,0.5,1.3c0.3,0.4,0.8,0.5,1.3,0.5c0.6,0,1-0.2,1.3-0.5c0.3-0.4,0.5-0.8,0.5-1.3c0-0.6-0.2-1-0.5-1.3
		c-0.3-0.4-0.8-0.5-1.3-0.5s-0.9,0.2-1.3,0.5C214.9,68.8,214.7,69.2,214.7,69.8z"/>
	<path class="st2" d="M226.3,66.8v6.1h-1.1l-2.9-3.7v3.7H221v-6.1h1.1l2.9,3.7v-3.7H226.3z"/>
</g>
</svg>
