<?xml version="1.0" encoding="utf-8"?>
<!-- Generator: Adobe Illustrator 28.0.0, SVG Export Plug-In . SVG Version: 6.00 Build 0)  -->
<svg version="1.1" id="Слой_1" xmlns="http://www.w3.org/2000/svg" xmlns:xlink="http://www.w3.org/1999/xlink" x="0px" y="0px"
	 viewBox="0 0 247.4 119.4" style="enable-background:new 0 0 247.4 119.4;" xml:space="preserve">
<style type="text/css">
	.st0{fill:#374151;}
	.st1{fill:none;stroke:#010101;stroke-width:2;}
	.st2{fill:#FFFFFF;}
</style>
<g>
	<path class="st0" d="M58.2,2.7h131c30.4,0,55,24.6,55,55v4c0,30.4-24.6,55-55,55h-131c-30.4,0-55-24.6-55-55v-4
		C3.2,27.3,27.8,2.7,58.2,2.7z"/>
	<path class="st1" d="M58.2,2.7h131c30.4,0,55,24.6,55,55v4c0,30.4-24.6,55-55,55h-131c-30.4,0-55-24.6-55-55v-4
		C3.2,27.3,27.8,2.7,58.2,2.7z"/>
	<path class="st2" d="M56.9,14.2L56.9,14.2c24.9,0,45,20.1,45,45l0,0c0,24.9-20.1,45-45,45l0,0c-24.9,0-45-20.1-45-45l0,0
		C11.9,34.3,32,14.2,56.9,14.2z"/>
</g>
</svg>
