<?xml version="1.0" encoding="utf-8"?>
<!-- Generator: Adobe Illustrator 28.0.0, SVG Export Plug-In . SVG Version: 6.00 Build 0)  -->
<svg version="1.1" id="Слой_1" xmlns="http://www.w3.org/2000/svg" xmlns:xlink="http://www.w3.org/1999/xlink" x="0px" y="0px"
	 viewBox="0 0 247.4 119.4" style="enable-background:new 0 0 247.4 119.4;" xml:space="preserve">
<style type="text/css">
	.st0{fill:#35BDEF;}
	.st1{fill:none;stroke:#010101;stroke-width:2;}
	.st2{fill:#FFFFFF;}
	.st3{fill:#059CD8;}
</style>
<g>
	<path class="st0" d="M58.2,2.7h131c30.4,0,55,24.6,55,55v4c0,30.4-24.6,55-55,55h-131c-30.4,0-55-24.6-55-55v-4
		C3.2,27.3,27.8,2.7,58.2,2.7z"/>
	<path class="st1" d="M58.2,2.7h131c30.4,0,55,24.6,55,55v4c0,30.4-24.6,55-55,55h-131c-30.4,0-55-24.6-55-55v-4
		C3.2,27.3,27.8,2.7,58.2,2.7z"/>
	<path class="st2" d="M56.9,14.2L56.9,14.2c24.9,0,45,20.1,45,45l0,0c0,24.9-20.1,45-45,45l0,0c-24.9,0-45-20.1-45-45l0,0
		C11.9,34.3,32,14.2,56.9,14.2z"/>
</g>
<g>
	<path class="st3" d="M56.8,33.2c-11.4,0-20.9,9.3-20.9,20.9c0,11.4,9.3,20.9,20.9,20.9c11.4,0,20.9-9.3,20.9-20.9
		S68.2,33.2,56.8,33.2 M73,42.5c-1,0.6-2.2,1.4-3.4,2c-0.6-1.4-1.5-2.7-2.6-3.8c0.9-0.5,1.7-1.2,2.3-1.7C71,39.7,72.2,41.1,73,42.5
		 M64.3,35.5c1.7,0.6,3.2,1.5,4.7,2.7c-0.6,0.6-1.5,1.2-2.3,1.7c-1-1.2-2.2-2.2-3.4-3.2C63.5,36.2,63.8,35.9,64.3,35.5 M65.9,40.2
		c-1.2,0.6-2.3,1-3.5,1.5c-0.5-1.2-1-2.3-1.7-3.4c0.6-0.3,1.4-0.6,1.8-1.2C63.7,38.1,64.9,39.1,65.9,40.2 M63.4,35.2
		c-0.3,0.3-0.6,0.6-0.9,1c-1.2-0.6-2.2-1.4-3.5-1.8C60.5,34.4,62,34.7,63.4,35.2 M61.8,36.7c-0.5,0.3-1,0.6-1.5,0.9
		c-0.6-1-1.4-1.8-2-2.9C59.5,35.2,60.6,35.9,61.8,36.7 M57.1,34.9c0.9,0.9,1.5,1.8,2.2,3c-0.6,0.2-1.4,0.3-2.2,0.3V34.9z M57.1,39.1
		c0.9,0,1.8-0.2,2.7-0.5c0.6,1,1.2,2.2,1.7,3.4c-1.4,0.3-2.9,0.5-4.4,0.6V39.1z M56.3,34.9v3.4c-0.6,0-1.4-0.2-2.2-0.3
		C55,36.9,55.6,35.9,56.3,34.9 M53.4,37.6c-0.5-0.2-1.2-0.5-1.5-0.9c1.2-0.6,2.3-1.4,3.5-1.8C54.6,35.7,53.9,36.5,53.4,37.6
		 M54.6,34.1c-1.2,0.5-2.3,1.2-3.5,1.8c-0.3-0.3-0.6-0.6-0.9-1C51.6,34.7,53.1,34.4,54.6,34.1 M69,69.9c-2.7-1.5-2.9-3.7-2.7-4.4
		c0.2-0.9,0.6-0.5,1-0.5c1.8,0,3.7-0.5,6.1-3c2.7-2.7,3.5-8.7-0.6-12.7c-4.4-4.3-9.1-3.5-12.2,0.3c-0.6,0.9-2.2,1.4-3.4,1.4
		c-2,0-0.6,1.5-0.6,1.8c0,0.3-0.3,0.5-0.5,0.5c-0.6-0.2-0.3,0.9-0.3,1s-0.3,0.5-0.3,0.5c-0.9,0-0.6,0.6-0.5,1c0,0.2,0,0.5-0.3,0.6
		c-0.3,0.2-0.5,0.9-0.5,1.4c0,0.9,0.9,1.5,2.2,2.6c1.4,1,1.5,2,1.5,2.7s0.2,1.8,0.3,2.6c0.3,0.9,0.3,2.6-1.5,2.6
		c-2.3,0.2-6.4,1.8-6.7,2c-1.4,0.5-3,0.6-4.4,0.3c-0.6-0.5-1.4-1-2-1.7C43,68,43.6,67,44,66.3c0.9,0.9,1.8,0.6,2.6,0.6
		c0.6,0,3.7-0.5,4.3-0.6c0.5-0.1,0.6-0.2,0.9,0c1.2,0.5,2.9,0.5,3.5-1.7c0.6-2.3-0.9-1.7-1.2-1.5c-0.2,0.2-0.5,0-0.3-0.2
		c0.3-0.5-0.2-0.5-0.3-0.5c-0.6,0-1.5,0.6-1.7,0.9c-0.3,0.2-0.5,0.2-0.6,0.2c-0.9-0.5-3.4,0.2-4.3-1.2c0-0.3-0.6-5.9-1-6.9
		c0-0.2-0.2-0.5,0.2-0.9c0.6-1,2.3,0,3.4,0c1.2,0,1.4-0.5,1.7-0.9c0.3-0.3,0.5-0.2,0.6-0.3c0.2-0.2,0-0.3,0-0.5c0-0.2,0.2,0,0.3-0.2
		c0.2-0.2,0-0.5,0-0.6c0.3-0.5,1-0.2,0.6-1.2C52.5,50,53,49.3,53.3,49c0.5-0.6,2.7-3.7-1-6.9c-3.5-3-7.3-2.7-9.6-0.2
		c-2.3,2.6-1.2,6.2-1,7.3c0.2,1-0.5,1.8-1.4,2.2c-0.6,0.3-2.2,1.4-3.2,2.2c0.2-8.1,5-15.2,12.5-18c0.3,0.3,0.6,0.9,1,1.2
		c-0.9,0.6-2.7,2.2-2.7,2.2s0.2,0,0.5,0.2c0.2,0,0.5,0.2,0.5,0.2s1.5-1.4,2.3-1.8c0.5,0.5,1.2,0.9,1.8,1.2c-0.3,0.6-1.4,2.3-1.4,2.3
		s0.2,0.2,0.3,0.2c0.2,0.2,0.3,0.2,0.3,0.2s1-1.8,1.4-2.6c0.9,0.3,1.7,0.5,2.6,0.5v3.4c-0.5,0-1.7,0-2.2-0.2h-0.3L54,43
		c0.2,0.2,0.2,0.3,0.3,0.5l0,0l0,0c0.3,0,1.5,0,2,0v6.2H57v-1.5c1.4,0,2.3-0.2,3.5-0.3l0,0l1.2-1h-0.6c-1.4,0.2-2.6,0.3-3.5,0.3
		c0,0-0.3,0-0.5,0v-3.8c1.5,0,3.2-0.2,4.7-0.6c0.3,1,1.2,3.5,1.2,3.5l0.9-0.3c0,0-0.9-2.6-1.2-3.5c1.4-0.3,2.6-1,3.7-1.5
		c1,1.2,1.8,2.6,2.6,3.8c-0.6,0.3-1.7,0.6-1.7,0.6c0.9,0.2,1.5,0.3,1.5,0.3s0.3-0.2,0.5-0.2c0,0.2,0.2,0.5,0.2,0.5l1.2,0.5l-0.2-0.3
		c0,0-0.3-0.9-0.5-1c1.2-0.5,2.3-1.2,3.5-2c2.2,3.2,3.2,7,3.2,11C76.9,60.5,73.7,66.3,69,69.9"/>
	<path class="st3" d="M34.1,38.7l-0.3,0.3c-1.2,1-4.1,3.8-3.5,7v0.2l0.2,0.6l0.3-0.3c1.7-1.5,3-4.3,3.5-7.3l0.2-0.9L34.1,38.7z"/>
	<path class="st3" d="M28.3,44.2l-0.2,0.3c-0.2,0.5-0.5,1.7-0.6,3c-0.3,2-0.2,5,1.5,7.3l0.2,0.3l0.2,0.3l0.3-1.4
		c0.3-2.3-0.2-7.3-1-9.5L28.3,44V44.2z"/>
	<path class="st3" d="M26.3,52.6v0.3c-0.2,2,0,7.3,4.3,10.1l0.5,0.3v-0.6c0-2-2.3-7.9-4.1-9.9l-0.5-0.6L26.3,52.6z"/>
	<path class="st3" d="M26.9,61.9v0.3c0.6,3,3.4,7.8,7.8,9.3l0.6,0.2l-0.2-0.6c-0.9-2.2-5-7.5-7.8-9.1l-0.5-0.3v0.2
		C26.8,61.9,26.9,61.9,26.9,61.9z"/>
	<path class="st3" d="M35.9,43.3l-0.5,0.2c-3.2,2-4.7,4.4-4.7,7.5v0.6l0.5-0.3c1.7-1.5,4.1-5.2,4.6-7.3L35.9,43.3L35.9,43.3z"/>
	<path class="st3" d="M33.9,49.7L33.6,50c-0.9,0.9-3.5,3.7-3.4,7.3c0,0.5,0.2,1.2,0.3,1.7l0.2,0.5l0.3-0.5c1.4-1.8,3-6.6,2.9-8.7
		v-0.6L33.9,49.7z"/>
	<path class="st3" d="M34.1,55.9l-0.2,0.3c-1.4,2-2,4.1-2,6.1c0,1.4,0.5,2.7,1.4,4.1l0.3,0.5l0.2-0.5c0.5-1.2,1-4.7,1-7.6
		c0-1-0.2-1.8-0.3-2.3L34.1,55.9L34.1,55.9z"/>
	<path class="st3" d="M35.6,62.5l-0.2,0.3c-0.3,1.4-0.6,2.6-0.5,3.8c0,2.7,1.4,4.9,3.7,6.4l0.3,0.2l0.2-0.5v-0.5
		c0-2.2-1.7-7.9-3-9.6l-0.4-0.4L35.6,62.5z"/>
	<path class="st3" d="M31,71.3l0.2,0.3c1.7,2.9,4.7,6.7,10.2,5.8H42L41.6,77c-1-1.5-7.8-5.4-10.1-5.8l-0.6-0.2L31,71.3z"/>
	<path class="st3" d="M39.3,78.7L39.3,78.7L38.4,79l0.9,0.3c3.5,1.5,7.9,1.8,10.7,1c1-0.3,1.5-0.9,2.2-1.5C56.8,79.3,61,83,63.5,86
		l0.2,0.2h0.2c0.3-0.2,0.6-0.5,0.9-0.6l0.2-0.2l-0.2-0.2c-2.6-3.4-6.6-5.4-6.7-5.5C54.1,77.9,47.7,76.5,39.3,78.7"/>
	<path class="st3" d="M39.4,69.2v0.3c0.5,3.4,1.8,7.8,7.6,7.3h0.3l-0.2-0.3c-0.3-1.5-5.5-5.9-7.5-7l-0.5-0.3L39.4,69.2z"/>
	<path class="st3" d="M79.2,38.4l0.2,0.9c0.5,3,1.8,5.8,3.5,7.3l0.3,0.3l0.2-0.6V46c0.5-3.2-2.3-6.1-3.5-7l-0.3-0.3L79.2,38.4z"/>
	<path class="st3" d="M85.2,43.7l-0.4,0.7c-0.9,2.2-1.2,7-1,9.5l0.3,1.4l0.2-0.2l0.2-0.3c1.8-2.2,1.8-5,1.5-7.3
		c-0.2-1.5-0.5-2.6-0.6-3l-0.2-0.3V43.7z"/>
	<path class="st3" d="M87.3,52.2l-0.5,0.6c-1.7,2.2-4.1,7.9-4.1,9.9v0.6l0.5-0.3c4.3-2.7,4.4-7.9,4.3-10.1v-0.3L87.3,52.2z"/>
	<path class="st3" d="M86.7,61.5L86,61.8c-2.7,1.7-6.9,6.9-7.8,9.1L78,71.5l0.6-0.2c4.4-1.4,7.3-6.2,7.8-9.3v-0.3L86.7,61.5z"/>
	<path class="st3" d="M77.7,43l0.2,0.9c0.6,2.2,2.7,5.9,4.6,7.5l0.5,0.3V51c0.2-3-1.4-5.4-4.6-7.5l-0.3-0.2L77.7,43z"/>
	<path class="st3" d="M79.5,49.5v0.6c-0.2,2.2,1.7,7,2.9,8.7l0.3,0.5l0.2-0.5c0.2-0.6,0.3-1.2,0.3-1.7c0.2-3.5-2.6-6.4-3.4-7.3
		l-0.2-0.2L79.5,49.5z"/>
	<path class="st3" d="M79.4,55.6l-0.2,0.6c-0.2,0.5-0.3,1.4-0.3,2.3c0,2.9,0.3,6.4,1,7.6l0.2,0.5l0.3-0.5c0.9-1.2,1.4-2.6,1.4-4.1
		c0-1.8-0.6-4.1-2-6.1l-0.2-0.3L79.4,55.6z"/>
	<path class="st3" d="M77.9,62.2l-0.3,0.5c-1.4,1.7-3,7.5-3,9.6c0,0,0,0.3,0,0.5l0.2,0.5l0.3-0.2c2.3-1.5,3.5-3.7,3.7-6.4
		c0-1.2-0.2-2.6-0.5-3.8l-0.2-0.3L77.9,62.2z"/>
	<path class="st3" d="M82.7,71l-0.6,0.2c-2.3,0.3-9.1,4.3-10.1,5.8l-0.3,0.3h0.5c5.5,1,8.6-2.9,10.2-5.8l0.2-0.3L82.7,71z"/>
	<path class="st3" d="M55.9,79.6c-0.2,0-4.3,2.2-6.7,5.5L49,85.4l0.2,0.2c0.2,0.2,0.6,0.5,0.9,0.6h0.2l0.2-0.2
		c2.6-3,6.7-6.9,11.3-7.3c0.6,0.6,1.4,1.2,2.2,1.5c2.6,0.9,7,0.5,10.7-1l0.9-0.3l-0.9-0.2C65.9,76.5,59.5,77.9,55.9,79.6"/>
	<path class="st3" d="M74.2,68.9l-0.5,0.3c-1.8,1.2-6.9,5.5-7.5,7L66,76.6h0.3c5.5,0.5,6.9-3.8,7.6-7.3V69L74.2,68.9z"/>
</g>
<g>
	<path class="st2" d="M164.3,45.9h4.4v4h-4.4V45.9z M164.7,54.5h3.6v19.3h-3.6V54.5z"/>
	<path class="st2" d="M137.2,54.5h3.6v19.3h-3.5V71h-0.1c-1.4,2.4-4,3.4-6.7,3.4c-4,0-6.3-3.1-6.3-6.9v-13h3.6v11.4
		c0,3.3,0.7,5.8,4.2,5.8c1.4,0,3.5-0.7,4.2-2.8c0.7-1.8,0.7-4,0.7-4.6v-9.9H137.2z"/>
	<path class="st2" d="M148,57.3L148,57.3c1.3-2.4,4-3.4,5.9-3.4c1.3,0,7.3,0.3,7.3,6.6v13.3h-3.6V61.5c0-3.2-1.3-4.9-4.5-4.9
		c0,0-2-0.1-3.5,1.4c-0.5,0.5-1.5,1.3-1.5,5.2v10.5h-3.6V54.5h3.6L148,57.3L148,57.3z"/>
	<path class="st2" d="M183.7,60.6c-0.2-2.4-1.3-4-4-4c-3.4,0-4.8,3.1-4.8,7.5c0,4.5,1.3,7.5,4.8,7.5c2.4,0,3.9-1.5,4-4.4h3.6
		c-0.3,4.4-3.5,6.9-7.8,6.9c-6.1,0-8.6-4.4-8.6-10c0-5.6,2.8-10.3,8.9-10.3c4,0,7.1,2.6,7.3,6.7C187.2,60.6,183.7,60.6,183.7,60.6z"
		/>
	<path class="st2" d="M192.7,64.7c-0.3,3.3,1.2,6.8,4.8,6.8c2.8,0,4.2-1.2,4.7-4h3.9c-0.6,4.4-4,6.6-8.5,6.6c-6.1,0-8.6-4.4-8.6-10
		s2.8-10.3,8.9-10.3c5.8,0.1,8.5,3.8,8.5,9.1v1.8C206.3,64.7,192.7,64.7,192.7,64.7z M202.5,62.2c0.1-3.2-1.3-5.8-4.9-5.8
		c-3.1,0-4.8,2.6-4.8,5.8H202.5z"/>
	<path class="st2" d="M210.5,73.6V56.9h-3.3v-2.5h3.3v-4.1c0.1-4.1,3.3-5.3,6-5.3c0.8,0,1.8,0.2,2.6,0.4v3.1c-0.6,0-1.3-0.1-1.9-0.1
		c-2.1,0-3.2,0.5-3.1,2.6v3.5h4.5V57h-4.5v16.6L210.5,73.6L210.5,73.6L210.5,73.6z"/>
</g>
</svg>
